G04*
G04 #@! TF.GenerationSoftware,Altium Limited,Altium Designer,26.5.0 (11)*
G04*
G04 Layer_Color=32896*
G04 Board_Origin=0|0*
%FSLAX44Y44*%
%MOMM*%
G71*
G04*
G04 #@! TF.SameCoordinates,DD4D5FAA-8BF8-414C-B01C-6ACC3CF4EDD8*
G04*
G04*
G04 #@! TF.FilePolarity,Positive*
G04*
G01*
G75*
%ADD13C,0.2000*%
%ADD14C,0.1500*%
%ADD15C,0.1778*%
%ADD16C,0.1270*%
%ADD18C,0.2540*%
%ADD138C,0.1800*%
D13*
X1619400Y1500216D02*
G03*
X1619400Y1500216I-1000J0D01*
G01*
X1757406Y1014286D02*
G03*
X1757406Y1014286I-1000J0D01*
G01*
X1100241Y1405715D02*
G03*
X1100241Y1405715I-1000J0D01*
G01*
X1553361Y1432642D02*
G03*
X1553361Y1432642I-1000J0D01*
G01*
X1553939Y1337301D02*
Y1374300D01*
X1522939Y1337301D02*
Y1389800D01*
D14*
X1698252Y761120D02*
Y767120D01*
X1709252Y761120D02*
Y767120D01*
X1532851Y917242D02*
Y923242D01*
X1543851Y917242D02*
Y923242D01*
X1535224Y970192D02*
X1541224D01*
X1535224Y959192D02*
X1541224D01*
X1539836Y850948D02*
Y856948D01*
X1550836Y850948D02*
Y856948D01*
X1541741Y801418D02*
Y807418D01*
X1552741Y801418D02*
Y807418D01*
X1597064Y782114D02*
Y788114D01*
X1586064Y782114D02*
Y788114D01*
X1605749Y955596D02*
Y961596D01*
X1616749Y955596D02*
Y961596D01*
X1749892Y762390D02*
Y768390D01*
X1738892Y762390D02*
Y768390D01*
D15*
X1558691Y1346915D02*
Y1353514D01*
Y1346915D02*
X1572526D01*
Y1353514D01*
Y1370786D02*
Y1377386D01*
X1558691D02*
X1572526D01*
X1558691Y1370786D02*
Y1377386D01*
X1501907Y1287204D02*
X1508506D01*
X1501907D02*
Y1301039D01*
X1508506D01*
X1525778D02*
X1532377D01*
Y1287204D02*
Y1301039D01*
X1525778Y1287204D02*
X1532377D01*
X1512570Y1372997D02*
X1518412D01*
Y1383411D01*
X1512570D02*
X1518412D01*
X1494028Y1372997D02*
X1499870D01*
X1494028D02*
Y1383411D01*
X1499870D01*
X1493394Y1323526D02*
X1499993D01*
Y1337361D01*
X1493394D02*
X1499993D01*
X1469523D02*
X1476122D01*
X1469523Y1323526D02*
Y1337361D01*
Y1323526D02*
X1476122D01*
X1518246Y1405330D02*
Y1411172D01*
X1507832D02*
X1518246D01*
X1507832Y1405330D02*
Y1411172D01*
X1518246Y1386788D02*
Y1392630D01*
X1507832Y1386788D02*
X1518246D01*
X1507832D02*
Y1392630D01*
X1542711Y1439787D02*
X1548553D01*
Y1450201D01*
X1542711D02*
X1548553D01*
X1524169Y1439787D02*
X1530011D01*
X1524169D02*
Y1450201D01*
X1530011D01*
X1496441Y1406844D02*
Y1412686D01*
X1486027D02*
X1496441D01*
X1486027Y1406844D02*
Y1412686D01*
X1496441Y1388302D02*
Y1394144D01*
X1486027Y1388302D02*
X1496441D01*
X1486027D02*
Y1394144D01*
X1308794Y976127D02*
Y982726D01*
Y976127D02*
X1322629D01*
Y982726D01*
Y999998D02*
Y1006597D01*
X1308794D02*
X1322629D01*
X1308794Y999998D02*
Y1006597D01*
X1306329Y1094834D02*
X1312928D01*
X1306329Y1080999D02*
Y1094834D01*
Y1080999D02*
X1312928D01*
X1330200D02*
X1336799D01*
Y1094834D01*
X1330200D02*
X1336799D01*
X1355713Y1081526D02*
X1361555D01*
Y1091940D01*
X1355713D02*
X1361555D01*
X1337171Y1081526D02*
X1343013D01*
X1337171D02*
Y1091940D01*
X1343013D01*
X1151746Y1095387D02*
X1158345D01*
X1151746Y1081553D02*
Y1095387D01*
Y1081553D02*
X1158345D01*
X1175617D02*
X1182216D01*
Y1095387D01*
X1175617D02*
X1182216D01*
X1151746Y1078600D02*
X1158345D01*
X1151746Y1064766D02*
Y1078600D01*
Y1064766D02*
X1158345D01*
X1175617D02*
X1182216D01*
Y1078600D01*
X1175617D02*
X1182216D01*
X1220384Y1081423D02*
X1226984D01*
Y1095258D01*
X1220384D02*
X1226984D01*
X1196513D02*
X1203112D01*
X1196513Y1081423D02*
Y1095258D01*
Y1081423D02*
X1203112D01*
X1220384Y1064626D02*
X1226984D01*
Y1078460D01*
X1220384D02*
X1226984D01*
X1196513D02*
X1203112D01*
X1196513Y1064626D02*
Y1078460D01*
Y1064626D02*
X1203112D01*
X1220010Y980996D02*
X1226610D01*
Y994830D01*
X1220010D02*
X1226610D01*
X1196139D02*
X1202738D01*
X1196139Y980996D02*
Y994830D01*
Y980996D02*
X1202738D01*
X1220010Y964198D02*
X1226610D01*
Y978032D01*
X1220010D02*
X1226610D01*
X1196139D02*
X1202738D01*
X1196139Y964198D02*
Y978032D01*
Y964198D02*
X1202738D01*
X1175617Y977916D02*
X1182216D01*
Y964082D02*
Y977916D01*
X1175617Y964082D02*
X1182216D01*
X1151746D02*
X1158345D01*
X1151746D02*
Y977916D01*
X1158345D01*
X1175617Y994704D02*
X1182216D01*
Y980870D02*
Y994704D01*
X1175617Y980870D02*
X1182216D01*
X1151746D02*
X1158345D01*
X1151746D02*
Y994704D01*
X1158345D01*
X1175617Y1162511D02*
X1182216D01*
Y1148676D02*
Y1162511D01*
X1175617Y1148676D02*
X1182216D01*
X1151746D02*
X1158345D01*
X1151746D02*
Y1162511D01*
X1158345D01*
X1196513Y1031300D02*
X1203112D01*
X1196513D02*
Y1045134D01*
X1203112D01*
X1220384D02*
X1226984D01*
Y1031300D02*
Y1045134D01*
X1220384Y1031300D02*
X1226984D01*
X1175617Y1011485D02*
X1182216D01*
Y997650D02*
Y1011485D01*
X1175617Y997650D02*
X1182216D01*
X1151746D02*
X1158345D01*
X1151746D02*
Y1011485D01*
X1158345D01*
X1175617Y1028265D02*
X1182216D01*
Y1014431D02*
Y1028265D01*
X1175617Y1014431D02*
X1182216D01*
X1151746D02*
X1158345D01*
X1151746D02*
Y1028265D01*
X1158345D01*
X1196513Y997800D02*
X1203112D01*
X1196513D02*
Y1011635D01*
X1203112D01*
X1220384D02*
X1226984D01*
Y997800D02*
Y1011635D01*
X1220384Y997800D02*
X1226984D01*
X1220384Y1014550D02*
X1226984D01*
Y1028384D01*
X1220384D02*
X1226984D01*
X1196513D02*
X1203112D01*
X1196513Y1014550D02*
Y1028384D01*
Y1014550D02*
X1203112D01*
X1196513Y1048049D02*
X1203112D01*
X1196513D02*
Y1061883D01*
X1203112D01*
X1220384D02*
X1226984D01*
Y1048049D02*
Y1061883D01*
X1220384Y1048049D02*
X1226984D01*
X1151746Y1045046D02*
X1158345D01*
X1151746Y1031211D02*
Y1045046D01*
Y1031211D02*
X1158345D01*
X1175617D02*
X1182216D01*
Y1045046D01*
X1175617D02*
X1182216D01*
X1151746Y1061826D02*
X1158345D01*
X1151746Y1047992D02*
Y1061826D01*
Y1047992D02*
X1158345D01*
X1175617D02*
X1182216D01*
Y1061826D01*
X1175617D02*
X1182216D01*
X1196513Y1131797D02*
X1203112D01*
X1196513D02*
Y1145631D01*
X1203112D01*
X1220384D02*
X1226984D01*
Y1131797D02*
Y1145631D01*
X1220384Y1131797D02*
X1226984D01*
X1175617Y1145730D02*
X1182216D01*
Y1131896D02*
Y1145730D01*
X1175617Y1131896D02*
X1182216D01*
X1151746D02*
X1158345D01*
X1151746D02*
Y1145730D01*
X1158345D01*
X1196513Y1148546D02*
X1203112D01*
X1196513D02*
Y1162381D01*
X1203112D01*
X1220384D02*
X1226984D01*
Y1148546D02*
Y1162381D01*
X1220384Y1148546D02*
X1226984D01*
X1175617Y1128949D02*
X1182216D01*
Y1115115D02*
Y1128949D01*
X1175617Y1115115D02*
X1182216D01*
X1151746D02*
X1158345D01*
X1151746D02*
Y1128949D01*
X1158345D01*
X1196513Y1115047D02*
X1203112D01*
X1196513D02*
Y1128882D01*
X1203112D01*
X1220384D02*
X1226984D01*
Y1115047D02*
Y1128882D01*
X1220384Y1115047D02*
X1226984D01*
X1196513Y1098298D02*
X1203112D01*
X1196513D02*
Y1112132D01*
X1203112D01*
X1220384D02*
X1226984D01*
Y1098298D02*
Y1112132D01*
X1220384Y1098298D02*
X1226984D01*
X1175617Y1112169D02*
X1182216D01*
Y1098334D02*
Y1112169D01*
X1175617Y1098334D02*
X1182216D01*
X1151746D02*
X1158345D01*
X1151746D02*
Y1112169D01*
X1158345D01*
X1502767Y1245168D02*
X1508609D01*
Y1255582D01*
X1502767D02*
X1508609D01*
X1484225Y1245168D02*
X1490067D01*
X1484225D02*
Y1255582D01*
X1490067D01*
X1503021Y1233738D02*
X1508863D01*
Y1244152D01*
X1503021D02*
X1508863D01*
X1484479Y1233738D02*
X1490321D01*
X1484479D02*
Y1244152D01*
X1490321D01*
X1446913Y1088162D02*
Y1094004D01*
X1436499D02*
X1446913D01*
X1436499Y1088162D02*
Y1094004D01*
X1446913Y1069620D02*
Y1075462D01*
X1436499Y1069620D02*
X1446913D01*
X1436499D02*
Y1075462D01*
X1491107Y1199388D02*
Y1205230D01*
Y1199388D02*
X1501521D01*
Y1205230D01*
X1491107Y1217930D02*
Y1223772D01*
X1501521D01*
Y1217930D02*
Y1223772D01*
X1484733Y1156014D02*
X1490575D01*
X1484733Y1145600D02*
Y1156014D01*
Y1145600D02*
X1490575D01*
X1503275Y1156014D02*
X1509117D01*
Y1145600D02*
Y1156014D01*
X1503275Y1145600D02*
X1509117D01*
X1484479Y1167444D02*
X1490321D01*
X1484479Y1157030D02*
Y1167444D01*
Y1157030D02*
X1490321D01*
X1503021Y1167444D02*
X1508863D01*
Y1157030D02*
Y1167444D01*
X1503021Y1157030D02*
X1508863D01*
X1355784Y1004824D02*
Y1011423D01*
X1369619D01*
Y1004824D02*
Y1011423D01*
Y980953D02*
Y987552D01*
X1355784Y980953D02*
X1369619D01*
X1355784D02*
Y987552D01*
D16*
X1624050Y1556466D02*
X1627650D01*
X1217150D02*
X1220750D01*
X1217150Y1518966D02*
X1220750D01*
X1624050D02*
X1627650D01*
Y1556466D02*
Y1567716D01*
Y1507716D02*
Y1518966D01*
X1217150Y1556466D02*
Y1567716D01*
Y1507716D02*
Y1518966D01*
X1193400Y1507716D02*
Y1567716D01*
X1627650D02*
X1651400D01*
X1193400D02*
X1217150D01*
X1651400Y1546916D02*
Y1567716D01*
Y1507716D02*
Y1528516D01*
X1627650Y1507716D02*
X1651400D01*
X1193400D02*
X1217150D01*
X1812656Y1005036D02*
Y1008636D01*
Y1411936D02*
Y1415536D01*
X1775156Y1411936D02*
Y1415536D01*
Y1005036D02*
Y1008636D01*
X1812656Y1005036D02*
X1823906D01*
X1763906D02*
X1775156D01*
X1812656Y1415536D02*
X1823906D01*
X1763906D02*
X1775156D01*
X1763906Y1439286D02*
X1823906D01*
Y981286D02*
Y1005036D01*
Y1415536D02*
Y1439286D01*
X1803106Y981286D02*
X1823906D01*
X1763906D02*
X1784706D01*
X1763906D02*
Y1005036D01*
Y1415536D02*
Y1439286D01*
X1091741Y980715D02*
Y1004465D01*
Y1414965D02*
Y1438715D01*
X1070941D02*
X1091741D01*
X1031741D02*
X1052541D01*
X1031741Y980715D02*
Y1004465D01*
Y1414965D02*
Y1438715D01*
Y980715D02*
X1091741D01*
X1080491Y1004465D02*
X1091741D01*
X1031741D02*
X1042991D01*
X1080491Y1414965D02*
X1091741D01*
X1031741D02*
X1042991D01*
X1080491Y1411365D02*
Y1414965D01*
Y1004465D02*
Y1008065D01*
X1042991Y1004465D02*
Y1008065D01*
Y1411365D02*
Y1414965D01*
D18*
X1516634Y1419606D02*
Y1427224D01*
X1512825D01*
X1511556Y1425954D01*
Y1423415D01*
X1512825Y1422145D01*
X1516634D01*
X1514095D02*
X1511556Y1419606D01*
X1509017Y1425954D02*
X1507747Y1427224D01*
X1505208D01*
X1503938Y1425954D01*
Y1424684D01*
X1505208Y1423415D01*
X1503938Y1422145D01*
Y1420876D01*
X1505208Y1419606D01*
X1507747D01*
X1509017Y1420876D01*
Y1422145D01*
X1507747Y1423415D01*
X1509017Y1424684D01*
Y1425954D01*
X1507747Y1423415D02*
X1505208D01*
X1497590Y1419606D02*
Y1427224D01*
X1501399Y1423415D01*
X1496321D01*
X1498346Y1345946D02*
Y1353564D01*
X1494537D01*
X1493268Y1352294D01*
Y1349755D01*
X1494537Y1348485D01*
X1498346D01*
X1495807D02*
X1493268Y1345946D01*
X1490728Y1353564D02*
X1485650D01*
Y1352294D01*
X1490728Y1347216D01*
Y1345946D01*
X1483111Y1352294D02*
X1481841Y1353564D01*
X1479302D01*
X1478033Y1352294D01*
Y1351024D01*
X1479302Y1349755D01*
X1480572D01*
X1479302D01*
X1478033Y1348485D01*
Y1347216D01*
X1479302Y1345946D01*
X1481841D01*
X1483111Y1347216D01*
X1646430Y1587751D02*
X1648969D01*
X1647699D01*
Y1581404D01*
X1648969Y1580134D01*
X1650238D01*
X1651508Y1581404D01*
X1643891Y1580134D02*
X1641351D01*
X1642621D01*
Y1587751D01*
X1643891Y1586482D01*
X1632464Y1580134D02*
X1637543D01*
X1632464Y1585212D01*
Y1586482D01*
X1633734Y1587751D01*
X1636273D01*
X1637543Y1586482D01*
X1220218Y1177288D02*
X1221487Y1178558D01*
X1224026D01*
X1225296Y1177288D01*
Y1172210D01*
X1224026Y1170940D01*
X1221487D01*
X1220218Y1172210D01*
X1217679D02*
X1216409Y1170940D01*
X1213870D01*
X1212600Y1172210D01*
Y1177288D01*
X1213870Y1178558D01*
X1216409D01*
X1217679Y1177288D01*
Y1176018D01*
X1216409Y1174749D01*
X1212600D01*
X1219964Y1009648D02*
X1221233Y1010918D01*
X1223772D01*
X1225042Y1009648D01*
Y1004570D01*
X1223772Y1003300D01*
X1221233D01*
X1219964Y1004570D01*
X1212346Y1003300D02*
X1217424D01*
X1212346Y1008378D01*
Y1009648D01*
X1213616Y1010918D01*
X1216155D01*
X1217424Y1009648D01*
X1209807D02*
X1208537Y1010918D01*
X1205998D01*
X1204729Y1009648D01*
Y1008378D01*
X1205998Y1007109D01*
X1207268D01*
X1205998D01*
X1204729Y1005839D01*
Y1004570D01*
X1205998Y1003300D01*
X1208537D01*
X1209807Y1004570D01*
X1220218Y1043176D02*
X1221487Y1044445D01*
X1224026D01*
X1225296Y1043176D01*
Y1038098D01*
X1224026Y1036828D01*
X1221487D01*
X1220218Y1038098D01*
X1212600Y1036828D02*
X1217679D01*
X1212600Y1041906D01*
Y1043176D01*
X1213870Y1044445D01*
X1216409D01*
X1217679Y1043176D01*
X1204983Y1036828D02*
X1210061D01*
X1204983Y1041906D01*
Y1043176D01*
X1206252Y1044445D01*
X1208791D01*
X1210061Y1043176D01*
X1220218Y1076704D02*
X1221487Y1077973D01*
X1224026D01*
X1225296Y1076704D01*
Y1071626D01*
X1224026Y1070356D01*
X1221487D01*
X1220218Y1071626D01*
X1217679Y1070356D02*
X1215139D01*
X1216409D01*
Y1077973D01*
X1217679Y1076704D01*
X1211330D02*
X1210061Y1077973D01*
X1207522D01*
X1206252Y1076704D01*
Y1075434D01*
X1207522Y1074165D01*
X1206252Y1072895D01*
Y1071626D01*
X1207522Y1070356D01*
X1210061D01*
X1211330Y1071626D01*
Y1072895D01*
X1210061Y1074165D01*
X1211330Y1075434D01*
Y1076704D01*
X1210061Y1074165D02*
X1207522D01*
X1219964Y992884D02*
X1221233Y994154D01*
X1223772D01*
X1225042Y992884D01*
Y987806D01*
X1223772Y986536D01*
X1221233D01*
X1219964Y987806D01*
X1217424Y986536D02*
X1214885D01*
X1216155D01*
Y994154D01*
X1217424Y992884D01*
X1211077Y986536D02*
X1208537D01*
X1209807D01*
Y994154D01*
X1211077Y992884D01*
X1220218Y1026412D02*
X1221487Y1027682D01*
X1224026D01*
X1225296Y1026412D01*
Y1021334D01*
X1224026Y1020064D01*
X1221487D01*
X1220218Y1021334D01*
X1217679Y1020064D02*
X1215139D01*
X1216409D01*
Y1027682D01*
X1217679Y1026412D01*
X1211330D02*
X1210061Y1027682D01*
X1207522D01*
X1206252Y1026412D01*
Y1021334D01*
X1207522Y1020064D01*
X1210061D01*
X1211330Y1021334D01*
Y1026412D01*
X1220218Y1059940D02*
X1221487Y1061209D01*
X1224026D01*
X1225296Y1059940D01*
Y1054862D01*
X1224026Y1053592D01*
X1221487D01*
X1220218Y1054862D01*
X1212600Y1061209D02*
X1215139Y1059940D01*
X1217679Y1057401D01*
Y1054862D01*
X1216409Y1053592D01*
X1213870D01*
X1212600Y1054862D01*
Y1056131D01*
X1213870Y1057401D01*
X1217679D01*
X1616712Y1111502D02*
X1617981Y1112772D01*
X1620520D01*
X1621790Y1111502D01*
Y1106424D01*
X1620520Y1105154D01*
X1617981D01*
X1616712Y1106424D01*
X1614173Y1105154D02*
X1611633D01*
X1612903D01*
Y1112772D01*
X1614173Y1111502D01*
X1607825D02*
X1606555Y1112772D01*
X1604016D01*
X1602746Y1111502D01*
Y1110232D01*
X1604016Y1108963D01*
X1602746Y1107693D01*
Y1106424D01*
X1604016Y1105154D01*
X1606555D01*
X1607825Y1106424D01*
Y1107693D01*
X1606555Y1108963D01*
X1607825Y1110232D01*
Y1111502D01*
X1606555Y1108963D02*
X1604016D01*
X1595129Y1112772D02*
X1600207D01*
Y1108963D01*
X1597668Y1110232D01*
X1596398D01*
X1595129Y1108963D01*
Y1106424D01*
X1596398Y1105154D01*
X1598937D01*
X1600207Y1106424D01*
X1617474Y1165604D02*
X1618743Y1166873D01*
X1621282D01*
X1622552Y1165604D01*
Y1160526D01*
X1621282Y1159256D01*
X1618743D01*
X1617474Y1160526D01*
X1614935Y1159256D02*
X1612395D01*
X1613665D01*
Y1166873D01*
X1614935Y1165604D01*
X1608586D02*
X1607317Y1166873D01*
X1604778D01*
X1603508Y1165604D01*
Y1164334D01*
X1604778Y1163065D01*
X1603508Y1161795D01*
Y1160526D01*
X1604778Y1159256D01*
X1607317D01*
X1608586Y1160526D01*
Y1161795D01*
X1607317Y1163065D01*
X1608586Y1164334D01*
Y1165604D01*
X1607317Y1163065D02*
X1604778D01*
X1597160Y1159256D02*
Y1166873D01*
X1600969Y1163065D01*
X1595891D01*
X1694436Y1109978D02*
X1695705Y1111247D01*
X1698244D01*
X1699514Y1109978D01*
Y1104900D01*
X1698244Y1103630D01*
X1695705D01*
X1694436Y1104900D01*
X1691897Y1103630D02*
X1689357D01*
X1690627D01*
Y1111247D01*
X1691897Y1109978D01*
X1685549D02*
X1684279Y1111247D01*
X1681740D01*
X1680470Y1109978D01*
Y1108708D01*
X1681740Y1107439D01*
X1680470Y1106169D01*
Y1104900D01*
X1681740Y1103630D01*
X1684279D01*
X1685549Y1104900D01*
Y1106169D01*
X1684279Y1107439D01*
X1685549Y1108708D01*
Y1109978D01*
X1684279Y1107439D02*
X1681740D01*
X1677931Y1109978D02*
X1676661Y1111247D01*
X1674122D01*
X1672853Y1109978D01*
Y1108708D01*
X1674122Y1107439D01*
X1675392D01*
X1674122D01*
X1672853Y1106169D01*
Y1104900D01*
X1674122Y1103630D01*
X1676661D01*
X1677931Y1104900D01*
X1694182Y1150618D02*
X1695451Y1151888D01*
X1697990D01*
X1699260Y1150618D01*
Y1145540D01*
X1697990Y1144270D01*
X1695451D01*
X1694182Y1145540D01*
X1691642Y1144270D02*
X1689103D01*
X1690373D01*
Y1151888D01*
X1691642Y1150618D01*
X1685294D02*
X1684025Y1151888D01*
X1681486D01*
X1680216Y1150618D01*
Y1149348D01*
X1681486Y1148079D01*
X1680216Y1146809D01*
Y1145540D01*
X1681486Y1144270D01*
X1684025D01*
X1685294Y1145540D01*
Y1146809D01*
X1684025Y1148079D01*
X1685294Y1149348D01*
Y1150618D01*
X1684025Y1148079D02*
X1681486D01*
X1672599Y1144270D02*
X1677677D01*
X1672599Y1149348D01*
Y1150618D01*
X1673868Y1151888D01*
X1676407D01*
X1677677Y1150618D01*
X1617982Y1247138D02*
X1619251Y1248408D01*
X1621790D01*
X1623060Y1247138D01*
Y1242060D01*
X1621790Y1240790D01*
X1619251D01*
X1617982Y1242060D01*
X1615443Y1240790D02*
X1612903D01*
X1614173D01*
Y1248408D01*
X1615443Y1247138D01*
X1609095D02*
X1607825Y1248408D01*
X1605286D01*
X1604016Y1247138D01*
Y1245868D01*
X1605286Y1244599D01*
X1604016Y1243329D01*
Y1242060D01*
X1605286Y1240790D01*
X1607825D01*
X1609095Y1242060D01*
Y1243329D01*
X1607825Y1244599D01*
X1609095Y1245868D01*
Y1247138D01*
X1607825Y1244599D02*
X1605286D01*
X1601477Y1240790D02*
X1598938D01*
X1600207D01*
Y1248408D01*
X1601477Y1247138D01*
X1616712Y1289810D02*
X1617981Y1291080D01*
X1620520D01*
X1621790Y1289810D01*
Y1284732D01*
X1620520Y1283462D01*
X1617981D01*
X1616712Y1284732D01*
X1614173Y1283462D02*
X1611633D01*
X1612903D01*
Y1291080D01*
X1614173Y1289810D01*
X1607825D02*
X1606555Y1291080D01*
X1604016D01*
X1602746Y1289810D01*
Y1288540D01*
X1604016Y1287271D01*
X1602746Y1286001D01*
Y1284732D01*
X1604016Y1283462D01*
X1606555D01*
X1607825Y1284732D01*
Y1286001D01*
X1606555Y1287271D01*
X1607825Y1288540D01*
Y1289810D01*
X1606555Y1287271D02*
X1604016D01*
X1600207Y1289810D02*
X1598937Y1291080D01*
X1596398D01*
X1595129Y1289810D01*
Y1284732D01*
X1596398Y1283462D01*
X1598937D01*
X1600207Y1284732D01*
Y1289810D01*
X1616204Y1388870D02*
X1617473Y1390139D01*
X1620012D01*
X1621282Y1388870D01*
Y1383792D01*
X1620012Y1382522D01*
X1617473D01*
X1616204Y1383792D01*
X1613665Y1382522D02*
X1611125D01*
X1612395D01*
Y1390139D01*
X1613665Y1388870D01*
X1607316Y1390139D02*
X1602238D01*
Y1388870D01*
X1607316Y1383792D01*
Y1382522D01*
X1599699Y1383792D02*
X1598429Y1382522D01*
X1595890D01*
X1594621Y1383792D01*
Y1388870D01*
X1595890Y1390139D01*
X1598429D01*
X1599699Y1388870D01*
Y1387600D01*
X1598429Y1386331D01*
X1594621D01*
X1616458Y1429256D02*
X1617727Y1430526D01*
X1620266D01*
X1621536Y1429256D01*
Y1424178D01*
X1620266Y1422908D01*
X1617727D01*
X1616458Y1424178D01*
X1613918Y1422908D02*
X1611379D01*
X1612649D01*
Y1430526D01*
X1613918Y1429256D01*
X1607570Y1430526D02*
X1602492D01*
Y1429256D01*
X1607570Y1424178D01*
Y1422908D01*
X1599953Y1429256D02*
X1598683Y1430526D01*
X1596144D01*
X1594875Y1429256D01*
Y1427986D01*
X1596144Y1426717D01*
X1594875Y1425447D01*
Y1424178D01*
X1596144Y1422908D01*
X1598683D01*
X1599953Y1424178D01*
Y1425447D01*
X1598683Y1426717D01*
X1599953Y1427986D01*
Y1429256D01*
X1598683Y1426717D02*
X1596144D01*
X1694436Y1289556D02*
X1695705Y1290826D01*
X1698244D01*
X1699514Y1289556D01*
Y1284478D01*
X1698244Y1283208D01*
X1695705D01*
X1694436Y1284478D01*
X1691897Y1283208D02*
X1689357D01*
X1690627D01*
Y1290826D01*
X1691897Y1289556D01*
X1685549Y1290826D02*
X1680470D01*
Y1289556D01*
X1685549Y1284478D01*
Y1283208D01*
X1677931Y1290826D02*
X1672853D01*
Y1289556D01*
X1677931Y1284478D01*
Y1283208D01*
X1694436Y1249678D02*
X1695705Y1250947D01*
X1698244D01*
X1699514Y1249678D01*
Y1244600D01*
X1698244Y1243330D01*
X1695705D01*
X1694436Y1244600D01*
X1691897Y1243330D02*
X1689357D01*
X1690627D01*
Y1250947D01*
X1691897Y1249678D01*
X1685549Y1250947D02*
X1680470D01*
Y1249678D01*
X1685549Y1244600D01*
Y1243330D01*
X1672853Y1250947D02*
X1675392Y1249678D01*
X1677931Y1247139D01*
Y1244600D01*
X1676661Y1243330D01*
X1674122D01*
X1672853Y1244600D01*
Y1245869D01*
X1674122Y1247139D01*
X1677931D01*
X1705734Y1418843D02*
X1707004Y1420113D01*
X1709543D01*
X1710813Y1418843D01*
Y1413765D01*
X1709543Y1412495D01*
X1707004D01*
X1705734Y1413765D01*
X1703195Y1412495D02*
X1700656D01*
X1701926D01*
Y1420113D01*
X1703195Y1418843D01*
X1696847Y1420113D02*
X1691769D01*
Y1418843D01*
X1696847Y1413765D01*
Y1412495D01*
X1684151Y1420113D02*
X1689230D01*
Y1416304D01*
X1686691Y1417574D01*
X1685421D01*
X1684151Y1416304D01*
Y1413765D01*
X1685421Y1412495D01*
X1687960D01*
X1689230Y1413765D01*
X1694944Y1388616D02*
X1696213Y1389886D01*
X1698752D01*
X1700022Y1388616D01*
Y1383538D01*
X1698752Y1382268D01*
X1696213D01*
X1694944Y1383538D01*
X1692404Y1382268D02*
X1689865D01*
X1691135D01*
Y1389886D01*
X1692404Y1388616D01*
X1686057Y1389886D02*
X1680978D01*
Y1388616D01*
X1686057Y1383538D01*
Y1382268D01*
X1674630D02*
Y1389886D01*
X1678439Y1386077D01*
X1673361D01*
X1232156Y1235454D02*
X1233425Y1236723D01*
X1235964D01*
X1237234Y1235454D01*
Y1230376D01*
X1235964Y1229106D01*
X1233425D01*
X1232156Y1230376D01*
X1229616Y1229106D02*
X1227077D01*
X1228347D01*
Y1236723D01*
X1229616Y1235454D01*
X1223269Y1236723D02*
X1218190D01*
Y1235454D01*
X1223269Y1230376D01*
Y1229106D01*
X1215651Y1235454D02*
X1214381Y1236723D01*
X1211842D01*
X1210573Y1235454D01*
Y1234184D01*
X1211842Y1232915D01*
X1213112D01*
X1211842D01*
X1210573Y1231645D01*
Y1230376D01*
X1211842Y1229106D01*
X1214381D01*
X1215651Y1230376D01*
X1232410Y1307082D02*
X1233679Y1308351D01*
X1236218D01*
X1237488Y1307082D01*
Y1302004D01*
X1236218Y1300734D01*
X1233679D01*
X1232410Y1302004D01*
X1229871Y1300734D02*
X1227331D01*
X1228601D01*
Y1308351D01*
X1229871Y1307082D01*
X1223522Y1308351D02*
X1218444D01*
Y1307082D01*
X1223522Y1302004D01*
Y1300734D01*
X1210827D02*
X1215905D01*
X1210827Y1305812D01*
Y1307082D01*
X1212096Y1308351D01*
X1214635D01*
X1215905Y1307082D01*
X1230632Y1443480D02*
X1231901Y1444749D01*
X1234440D01*
X1235710Y1443480D01*
Y1438402D01*
X1234440Y1437132D01*
X1231901D01*
X1230632Y1438402D01*
X1228092Y1437132D02*
X1225553D01*
X1226823D01*
Y1444749D01*
X1228092Y1443480D01*
X1221745Y1444749D02*
X1216666D01*
Y1443480D01*
X1221745Y1438402D01*
Y1437132D01*
X1214127D02*
X1211588D01*
X1212857D01*
Y1444749D01*
X1214127Y1443480D01*
X1228600Y1374900D02*
X1229869Y1376169D01*
X1232408D01*
X1233678Y1374900D01*
Y1369822D01*
X1232408Y1368552D01*
X1229869D01*
X1228600Y1369822D01*
X1226060Y1368552D02*
X1223521D01*
X1224791D01*
Y1376169D01*
X1226060Y1374900D01*
X1219713Y1376169D02*
X1214634D01*
Y1374900D01*
X1219713Y1369822D01*
Y1368552D01*
X1212095Y1374900D02*
X1210825Y1376169D01*
X1208286D01*
X1207017Y1374900D01*
Y1369822D01*
X1208286Y1368552D01*
X1210825D01*
X1212095Y1369822D01*
Y1374900D01*
X1156718Y1292604D02*
X1157987Y1293873D01*
X1160526D01*
X1161796Y1292604D01*
Y1287526D01*
X1160526Y1286256D01*
X1157987D01*
X1156718Y1287526D01*
X1154178Y1286256D02*
X1151639D01*
X1152909D01*
Y1293873D01*
X1154178Y1292604D01*
X1142752Y1293873D02*
X1145291Y1292604D01*
X1147831Y1290065D01*
Y1287526D01*
X1146561Y1286256D01*
X1144022D01*
X1142752Y1287526D01*
Y1288795D01*
X1144022Y1290065D01*
X1147831D01*
X1140213Y1287526D02*
X1138943Y1286256D01*
X1136404D01*
X1135135Y1287526D01*
Y1292604D01*
X1136404Y1293873D01*
X1138943D01*
X1140213Y1292604D01*
Y1291334D01*
X1138943Y1290065D01*
X1135135D01*
X1156972Y1237486D02*
X1158241Y1238755D01*
X1160780D01*
X1162050Y1237486D01*
Y1232408D01*
X1160780Y1231138D01*
X1158241D01*
X1156972Y1232408D01*
X1154433Y1231138D02*
X1151893D01*
X1153163D01*
Y1238755D01*
X1154433Y1237486D01*
X1143006Y1238755D02*
X1145545Y1237486D01*
X1148084Y1234947D01*
Y1232408D01*
X1146815Y1231138D01*
X1144276D01*
X1143006Y1232408D01*
Y1233677D01*
X1144276Y1234947D01*
X1148084D01*
X1140467Y1237486D02*
X1139197Y1238755D01*
X1136658D01*
X1135389Y1237486D01*
Y1236216D01*
X1136658Y1234947D01*
X1135389Y1233677D01*
Y1232408D01*
X1136658Y1231138D01*
X1139197D01*
X1140467Y1232408D01*
Y1233677D01*
X1139197Y1234947D01*
X1140467Y1236216D01*
Y1237486D01*
X1139197Y1234947D02*
X1136658D01*
X1156464Y1389124D02*
X1157733Y1390394D01*
X1160272D01*
X1161542Y1389124D01*
Y1384046D01*
X1160272Y1382776D01*
X1157733D01*
X1156464Y1384046D01*
X1153924Y1382776D02*
X1151385D01*
X1152655D01*
Y1390394D01*
X1153924Y1389124D01*
X1142498Y1390394D02*
X1145037Y1389124D01*
X1147577Y1386585D01*
Y1384046D01*
X1146307Y1382776D01*
X1143768D01*
X1142498Y1384046D01*
Y1385315D01*
X1143768Y1386585D01*
X1147577D01*
X1139959Y1390394D02*
X1134881D01*
Y1389124D01*
X1139959Y1384046D01*
Y1382776D01*
X1156464Y1429764D02*
X1157733Y1431033D01*
X1160272D01*
X1161542Y1429764D01*
Y1424686D01*
X1160272Y1423416D01*
X1157733D01*
X1156464Y1424686D01*
X1153924Y1423416D02*
X1151385D01*
X1152655D01*
Y1431033D01*
X1153924Y1429764D01*
X1142498Y1431033D02*
X1145037Y1429764D01*
X1147577Y1427225D01*
Y1424686D01*
X1146307Y1423416D01*
X1143768D01*
X1142498Y1424686D01*
Y1425955D01*
X1143768Y1427225D01*
X1147577D01*
X1134881Y1431033D02*
X1137420Y1429764D01*
X1139959Y1427225D01*
Y1424686D01*
X1138689Y1423416D01*
X1136150D01*
X1134881Y1424686D01*
Y1425955D01*
X1136150Y1427225D01*
X1139959D01*
X1617472Y981456D02*
Y989073D01*
X1613663D01*
X1612394Y987804D01*
Y985265D01*
X1613663Y983995D01*
X1617472D01*
X1614933D02*
X1612394Y981456D01*
X1609854D02*
X1607315D01*
X1608585D01*
Y989073D01*
X1609854Y987804D01*
X1603506Y989073D02*
X1598428D01*
Y987804D01*
X1603506Y982726D01*
Y981456D01*
X1590811Y989073D02*
X1595889D01*
Y985265D01*
X1593350Y986534D01*
X1592080D01*
X1590811Y985265D01*
Y982726D01*
X1592080Y981456D01*
X1594619D01*
X1595889Y982726D01*
X1553464Y827278D02*
Y834895D01*
X1549655D01*
X1548386Y833626D01*
Y831087D01*
X1549655Y829817D01*
X1553464D01*
X1550925D02*
X1548386Y827278D01*
X1545847D02*
X1543307D01*
X1544577D01*
Y834895D01*
X1545847Y833626D01*
X1539498Y834895D02*
X1534420D01*
Y833626D01*
X1539498Y828548D01*
Y827278D01*
X1528072D02*
Y834895D01*
X1531881Y831087D01*
X1526803D01*
X1551432Y876808D02*
Y884426D01*
X1547623D01*
X1546354Y883156D01*
Y880617D01*
X1547623Y879347D01*
X1551432D01*
X1548893D02*
X1546354Y876808D01*
X1543815D02*
X1541275D01*
X1542545D01*
Y884426D01*
X1543815Y883156D01*
X1537466Y884426D02*
X1532388D01*
Y883156D01*
X1537466Y878078D01*
Y876808D01*
X1529849Y883156D02*
X1528579Y884426D01*
X1526040D01*
X1524771Y883156D01*
Y881886D01*
X1526040Y880617D01*
X1527310D01*
X1526040D01*
X1524771Y879347D01*
Y878078D01*
X1526040Y876808D01*
X1528579D01*
X1529849Y878078D01*
X1544574Y943102D02*
Y950720D01*
X1540765D01*
X1539496Y949450D01*
Y946911D01*
X1540765Y945641D01*
X1544574D01*
X1542035D02*
X1539496Y943102D01*
X1536956D02*
X1534417D01*
X1535687D01*
Y950720D01*
X1536956Y949450D01*
X1530609Y950720D02*
X1525530D01*
Y949450D01*
X1530609Y944372D01*
Y943102D01*
X1517913D02*
X1522991D01*
X1517913Y948180D01*
Y949450D01*
X1519182Y950720D01*
X1521721D01*
X1522991Y949450D01*
X1550924Y980948D02*
Y988566D01*
X1547115D01*
X1545846Y987296D01*
Y984757D01*
X1547115Y983487D01*
X1550924D01*
X1548385D02*
X1545846Y980948D01*
X1543306D02*
X1540767D01*
X1542037D01*
Y988566D01*
X1543306Y987296D01*
X1536958Y988566D02*
X1531880D01*
Y987296D01*
X1536958Y982218D01*
Y980948D01*
X1529341D02*
X1526802D01*
X1528071D01*
Y988566D01*
X1529341Y987296D01*
X1597660Y807974D02*
Y815592D01*
X1593851D01*
X1592582Y814322D01*
Y811783D01*
X1593851Y810513D01*
X1597660D01*
X1595121D02*
X1592582Y807974D01*
X1590043D02*
X1587503D01*
X1588773D01*
Y815592D01*
X1590043Y814322D01*
X1583694Y815592D02*
X1578616D01*
Y814322D01*
X1583694Y809244D01*
Y807974D01*
X1576077Y814322D02*
X1574807Y815592D01*
X1572268D01*
X1570999Y814322D01*
Y809244D01*
X1572268Y807974D01*
X1574807D01*
X1576077Y809244D01*
Y814322D01*
X1769110Y773430D02*
Y781048D01*
X1765301D01*
X1764032Y779778D01*
Y777239D01*
X1765301Y775969D01*
X1769110D01*
X1766571D02*
X1764032Y773430D01*
X1761492D02*
X1758953D01*
X1760223D01*
Y781048D01*
X1761492Y779778D01*
X1750066Y781048D02*
X1752605Y779778D01*
X1755145Y777239D01*
Y774700D01*
X1753875Y773430D01*
X1751336D01*
X1750066Y774700D01*
Y775969D01*
X1751336Y777239D01*
X1755145D01*
X1747527Y781048D02*
X1742449D01*
Y779778D01*
X1747527Y774700D01*
Y773430D01*
X1667510Y827024D02*
Y834641D01*
X1663701D01*
X1662432Y833372D01*
Y830833D01*
X1663701Y829563D01*
X1667510D01*
X1664971D02*
X1662432Y827024D01*
X1659892D02*
X1657353D01*
X1658623D01*
Y834641D01*
X1659892Y833372D01*
X1648466Y834641D02*
X1651005Y833372D01*
X1653544Y830833D01*
Y828294D01*
X1652275Y827024D01*
X1649736D01*
X1648466Y828294D01*
Y829563D01*
X1649736Y830833D01*
X1653544D01*
X1640849Y834641D02*
X1643388Y833372D01*
X1645927Y830833D01*
Y828294D01*
X1644657Y827024D01*
X1642118D01*
X1640849Y828294D01*
Y829563D01*
X1642118Y830833D01*
X1645927D01*
X1674368Y810260D02*
Y817878D01*
X1670559D01*
X1669290Y816608D01*
Y814069D01*
X1670559Y812799D01*
X1674368D01*
X1671829D02*
X1669290Y810260D01*
X1666750D02*
X1664211D01*
X1665481D01*
Y817878D01*
X1666750Y816608D01*
X1655324Y817878D02*
X1657863Y816608D01*
X1660403Y814069D01*
Y811530D01*
X1659133Y810260D01*
X1656594D01*
X1655324Y811530D01*
Y812799D01*
X1656594Y814069D01*
X1660403D01*
X1647707Y817878D02*
X1652785D01*
Y814069D01*
X1650246Y815338D01*
X1648976D01*
X1647707Y814069D01*
Y811530D01*
X1648976Y810260D01*
X1651515D01*
X1652785Y811530D01*
X1801368Y975360D02*
Y982978D01*
X1797559D01*
X1796290Y981708D01*
Y979169D01*
X1797559Y977899D01*
X1801368D01*
X1798829D02*
X1796290Y975360D01*
X1793750D02*
X1791211D01*
X1792481D01*
Y982978D01*
X1793750Y981708D01*
X1782324Y982978D02*
X1784863Y981708D01*
X1787402Y979169D01*
Y976630D01*
X1786133Y975360D01*
X1783594D01*
X1782324Y976630D01*
Y977899D01*
X1783594Y979169D01*
X1787402D01*
X1775976Y975360D02*
Y982978D01*
X1779785Y979169D01*
X1774707D01*
X1775206Y976122D02*
Y983739D01*
X1771397D01*
X1770128Y982470D01*
Y979931D01*
X1771397Y978661D01*
X1775206D01*
X1772667D02*
X1770128Y976122D01*
X1767589D02*
X1765049D01*
X1766319D01*
Y983739D01*
X1767589Y982470D01*
X1756162Y983739D02*
X1758701Y982470D01*
X1761241Y979931D01*
Y977392D01*
X1759971Y976122D01*
X1757432D01*
X1756162Y977392D01*
Y978661D01*
X1757432Y979931D01*
X1761241D01*
X1753623Y982470D02*
X1752353Y983739D01*
X1749814D01*
X1748545Y982470D01*
Y981200D01*
X1749814Y979931D01*
X1751084D01*
X1749814D01*
X1748545Y978661D01*
Y977392D01*
X1749814Y976122D01*
X1752353D01*
X1753623Y977392D01*
X1750568Y788162D02*
Y795779D01*
X1746759D01*
X1745490Y794510D01*
Y791971D01*
X1746759Y790701D01*
X1750568D01*
X1748029D02*
X1745490Y788162D01*
X1742950D02*
X1740411D01*
X1741681D01*
Y795779D01*
X1742950Y794510D01*
X1731524Y795779D02*
X1734063Y794510D01*
X1736602Y791971D01*
Y789432D01*
X1735333Y788162D01*
X1732794D01*
X1731524Y789432D01*
Y790701D01*
X1732794Y791971D01*
X1736602D01*
X1723907Y788162D02*
X1728985D01*
X1723907Y793240D01*
Y794510D01*
X1725176Y795779D01*
X1727715D01*
X1728985Y794510D01*
X1709928Y786892D02*
Y794510D01*
X1706119D01*
X1704850Y793240D01*
Y790701D01*
X1706119Y789431D01*
X1709928D01*
X1707389D02*
X1704850Y786892D01*
X1702310D02*
X1699771D01*
X1701041D01*
Y794510D01*
X1702310Y793240D01*
X1690884Y794510D02*
X1695963D01*
Y790701D01*
X1693423Y791970D01*
X1692154D01*
X1690884Y790701D01*
Y788162D01*
X1692154Y786892D01*
X1694693D01*
X1695963Y788162D01*
X1688345D02*
X1687075Y786892D01*
X1684536D01*
X1683267Y788162D01*
Y793240D01*
X1684536Y794510D01*
X1687075D01*
X1688345Y793240D01*
Y791970D01*
X1687075Y790701D01*
X1683267D01*
X1563118Y804162D02*
X1564387Y805432D01*
X1566926D01*
X1568196Y804162D01*
Y799084D01*
X1566926Y797814D01*
X1564387D01*
X1563118Y799084D01*
X1560578Y797814D02*
X1558039D01*
X1559309D01*
Y805432D01*
X1560578Y804162D01*
X1549152Y805432D02*
X1551691Y804162D01*
X1554230Y801623D01*
Y799084D01*
X1552961Y797814D01*
X1550422D01*
X1549152Y799084D01*
Y800353D01*
X1550422Y801623D01*
X1554230D01*
X1541535Y805432D02*
X1546613D01*
Y801623D01*
X1544074Y802892D01*
X1542804D01*
X1541535Y801623D01*
Y799084D01*
X1542804Y797814D01*
X1545343D01*
X1546613Y799084D01*
X1790702Y881632D02*
X1791971Y882902D01*
X1794510D01*
X1795780Y881632D01*
Y876554D01*
X1794510Y875284D01*
X1791971D01*
X1790702Y876554D01*
X1788163Y875284D02*
X1785623D01*
X1786893D01*
Y882902D01*
X1788163Y881632D01*
X1776736Y882902D02*
X1779275Y881632D01*
X1781815Y879093D01*
Y876554D01*
X1780545Y875284D01*
X1778006D01*
X1776736Y876554D01*
Y877823D01*
X1778006Y879093D01*
X1781815D01*
X1770388Y875284D02*
Y882902D01*
X1774197Y879093D01*
X1769119D01*
X1710946Y882394D02*
X1712215Y883663D01*
X1714754D01*
X1716024Y882394D01*
Y877316D01*
X1714754Y876046D01*
X1712215D01*
X1710946Y877316D01*
X1708407Y876046D02*
X1705867D01*
X1707137D01*
Y883663D01*
X1708407Y882394D01*
X1696980Y883663D02*
X1699519Y882394D01*
X1702059Y879855D01*
Y877316D01*
X1700789Y876046D01*
X1698250D01*
X1696980Y877316D01*
Y878585D01*
X1698250Y879855D01*
X1702059D01*
X1694441Y882394D02*
X1693171Y883663D01*
X1690632D01*
X1689363Y882394D01*
Y881124D01*
X1690632Y879855D01*
X1691902D01*
X1690632D01*
X1689363Y878585D01*
Y877316D01*
X1690632Y876046D01*
X1693171D01*
X1694441Y877316D01*
X1551940Y1452623D02*
Y1451354D01*
X1549401Y1448815D01*
X1546862Y1451354D01*
Y1452623D01*
X1549401Y1448815D02*
Y1445006D01*
X1544323D02*
X1541783D01*
X1543053D01*
Y1452623D01*
X1544323Y1451354D01*
X1554226Y1410206D02*
Y1403858D01*
X1552956Y1402588D01*
X1550417D01*
X1549148Y1403858D01*
Y1410206D01*
X1541530D02*
X1546608D01*
Y1406397D01*
X1544069Y1407666D01*
X1542800D01*
X1541530Y1406397D01*
Y1403858D01*
X1542800Y1402588D01*
X1545339D01*
X1546608Y1403858D01*
X1516888Y1391920D02*
Y1399538D01*
X1513079D01*
X1511810Y1398268D01*
Y1395729D01*
X1513079Y1394459D01*
X1516888D01*
X1514349D02*
X1511810Y1391920D01*
X1509270Y1398268D02*
X1508001Y1399538D01*
X1505462D01*
X1504192Y1398268D01*
Y1396998D01*
X1505462Y1395729D01*
X1504192Y1394459D01*
Y1393190D01*
X1505462Y1391920D01*
X1508001D01*
X1509270Y1393190D01*
Y1394459D01*
X1508001Y1395729D01*
X1509270Y1396998D01*
Y1398268D01*
X1508001Y1395729D02*
X1505462D01*
X1496575Y1399538D02*
X1499114Y1398268D01*
X1501653Y1395729D01*
Y1393190D01*
X1500383Y1391920D01*
X1497844D01*
X1496575Y1393190D01*
Y1394459D01*
X1497844Y1395729D01*
X1501653D01*
X1530604Y1309624D02*
Y1317242D01*
X1526795D01*
X1525526Y1315972D01*
Y1313433D01*
X1526795Y1312163D01*
X1530604D01*
X1528065D02*
X1525526Y1309624D01*
X1522986Y1315972D02*
X1521717Y1317242D01*
X1519178D01*
X1517908Y1315972D01*
Y1314702D01*
X1519178Y1313433D01*
X1517908Y1312163D01*
Y1310894D01*
X1519178Y1309624D01*
X1521717D01*
X1522986Y1310894D01*
Y1312163D01*
X1521717Y1313433D01*
X1522986Y1314702D01*
Y1315972D01*
X1521717Y1313433D02*
X1519178D01*
X1510291Y1317242D02*
X1515369D01*
Y1313433D01*
X1512830Y1314702D01*
X1511560D01*
X1510291Y1313433D01*
Y1310894D01*
X1511560Y1309624D01*
X1514099D01*
X1515369Y1310894D01*
X1538224Y1323848D02*
Y1331465D01*
X1534415D01*
X1533146Y1330196D01*
Y1327657D01*
X1534415Y1326387D01*
X1538224D01*
X1535685D02*
X1533146Y1323848D01*
X1530607Y1330196D02*
X1529337Y1331465D01*
X1526798D01*
X1525528Y1330196D01*
Y1328926D01*
X1526798Y1327657D01*
X1525528Y1326387D01*
Y1325118D01*
X1526798Y1323848D01*
X1529337D01*
X1530607Y1325118D01*
Y1326387D01*
X1529337Y1327657D01*
X1530607Y1328926D01*
Y1330196D01*
X1529337Y1327657D02*
X1526798D01*
X1522989Y1330196D02*
X1521719Y1331465D01*
X1519180D01*
X1517911Y1330196D01*
Y1328926D01*
X1519180Y1327657D01*
X1520450D01*
X1519180D01*
X1517911Y1326387D01*
Y1325118D01*
X1519180Y1323848D01*
X1521719D01*
X1522989Y1325118D01*
X1546860Y1458722D02*
Y1466340D01*
X1543051D01*
X1541782Y1465070D01*
Y1462531D01*
X1543051Y1461261D01*
X1546860D01*
X1544321D02*
X1541782Y1458722D01*
X1539243Y1465070D02*
X1537973Y1466340D01*
X1535434D01*
X1534164Y1465070D01*
Y1463800D01*
X1535434Y1462531D01*
X1534164Y1461261D01*
Y1459992D01*
X1535434Y1458722D01*
X1537973D01*
X1539243Y1459992D01*
Y1461261D01*
X1537973Y1462531D01*
X1539243Y1463800D01*
Y1465070D01*
X1537973Y1462531D02*
X1535434D01*
X1526547Y1458722D02*
X1531625D01*
X1526547Y1463800D01*
Y1465070D01*
X1527816Y1466340D01*
X1530355D01*
X1531625Y1465070D01*
X1568958Y1350264D02*
Y1357881D01*
X1565149D01*
X1563880Y1356612D01*
Y1354073D01*
X1565149Y1352803D01*
X1568958D01*
X1566419D02*
X1563880Y1350264D01*
X1561340Y1356612D02*
X1560071Y1357881D01*
X1557532D01*
X1556262Y1356612D01*
Y1355342D01*
X1557532Y1354073D01*
X1556262Y1352803D01*
Y1351534D01*
X1557532Y1350264D01*
X1560071D01*
X1561340Y1351534D01*
Y1352803D01*
X1560071Y1354073D01*
X1561340Y1355342D01*
Y1356612D01*
X1560071Y1354073D02*
X1557532D01*
X1553723Y1350264D02*
X1551184D01*
X1552453D01*
Y1357881D01*
X1553723Y1356612D01*
X1517396Y1346708D02*
Y1354326D01*
X1513587D01*
X1512318Y1353056D01*
Y1350517D01*
X1513587Y1349247D01*
X1517396D01*
X1514857D02*
X1512318Y1346708D01*
X1509778Y1354326D02*
X1504700D01*
Y1353056D01*
X1509778Y1347978D01*
Y1346708D01*
X1502161Y1353056D02*
X1500891Y1354326D01*
X1498352D01*
X1497083Y1353056D01*
Y1351786D01*
X1498352Y1350517D01*
X1497083Y1349247D01*
Y1347978D01*
X1498352Y1346708D01*
X1500891D01*
X1502161Y1347978D01*
Y1349247D01*
X1500891Y1350517D01*
X1502161Y1351786D01*
Y1353056D01*
X1500891Y1350517D02*
X1498352D01*
X1517142Y1371346D02*
Y1378963D01*
X1513333D01*
X1512064Y1377694D01*
Y1375155D01*
X1513333Y1373885D01*
X1517142D01*
X1514603D02*
X1512064Y1371346D01*
X1509525Y1378963D02*
X1504446D01*
Y1377694D01*
X1509525Y1372616D01*
Y1371346D01*
X1501907Y1378963D02*
X1496829D01*
Y1377694D01*
X1501907Y1372616D01*
Y1371346D01*
X1570990Y1385824D02*
Y1393441D01*
X1567181D01*
X1565912Y1392172D01*
Y1389633D01*
X1567181Y1388363D01*
X1570990D01*
X1568451D02*
X1565912Y1385824D01*
X1563372Y1393441D02*
X1558294D01*
Y1392172D01*
X1563372Y1387094D01*
Y1385824D01*
X1550677Y1393441D02*
X1553216Y1392172D01*
X1555755Y1389633D01*
Y1387094D01*
X1554485Y1385824D01*
X1551946D01*
X1550677Y1387094D01*
Y1388363D01*
X1551946Y1389633D01*
X1555755D01*
X1445260Y1102614D02*
Y1110231D01*
X1441451D01*
X1440182Y1108962D01*
Y1106423D01*
X1441451Y1105153D01*
X1445260D01*
X1442721D02*
X1440182Y1102614D01*
X1432564Y1110231D02*
X1435103Y1108962D01*
X1437643Y1106423D01*
Y1103884D01*
X1436373Y1102614D01*
X1433834D01*
X1432564Y1103884D01*
Y1105153D01*
X1433834Y1106423D01*
X1437643D01*
X1424947Y1102614D02*
X1430025D01*
X1424947Y1107692D01*
Y1108962D01*
X1426216Y1110231D01*
X1428755D01*
X1430025Y1108962D01*
X1359916Y1100328D02*
Y1107945D01*
X1356107D01*
X1354838Y1106676D01*
Y1104137D01*
X1356107Y1102867D01*
X1359916D01*
X1357377D02*
X1354838Y1100328D01*
X1348490D02*
Y1107945D01*
X1352298Y1104137D01*
X1347220D01*
X1344681Y1106676D02*
X1343411Y1107945D01*
X1340872D01*
X1339603Y1106676D01*
Y1101598D01*
X1340872Y1100328D01*
X1343411D01*
X1344681Y1101598D01*
Y1106676D01*
X1180592Y986536D02*
Y994154D01*
X1176783D01*
X1175514Y992884D01*
Y990345D01*
X1176783Y989075D01*
X1180592D01*
X1178053D02*
X1175514Y986536D01*
X1172974Y992884D02*
X1171705Y994154D01*
X1169166D01*
X1167896Y992884D01*
Y991614D01*
X1169166Y990345D01*
X1170435D01*
X1169166D01*
X1167896Y989075D01*
Y987806D01*
X1169166Y986536D01*
X1171705D01*
X1172974Y987806D01*
X1161548Y986536D02*
Y994154D01*
X1165357Y990345D01*
X1160279D01*
X1180592Y1003300D02*
Y1010918D01*
X1176783D01*
X1175514Y1009648D01*
Y1007109D01*
X1176783Y1005839D01*
X1180592D01*
X1178053D02*
X1175514Y1003300D01*
X1172974Y1009648D02*
X1171705Y1010918D01*
X1169166D01*
X1167896Y1009648D01*
Y1008378D01*
X1169166Y1007109D01*
X1170435D01*
X1169166D01*
X1167896Y1005839D01*
Y1004570D01*
X1169166Y1003300D01*
X1171705D01*
X1172974Y1004570D01*
X1165357Y1009648D02*
X1164087Y1010918D01*
X1161548D01*
X1160279Y1009648D01*
Y1008378D01*
X1161548Y1007109D01*
X1162818D01*
X1161548D01*
X1160279Y1005839D01*
Y1004570D01*
X1161548Y1003300D01*
X1164087D01*
X1165357Y1004570D01*
X1180592Y1020064D02*
Y1027682D01*
X1176783D01*
X1175514Y1026412D01*
Y1023873D01*
X1176783Y1022603D01*
X1180592D01*
X1178053D02*
X1175514Y1020064D01*
X1172974Y1026412D02*
X1171705Y1027682D01*
X1169166D01*
X1167896Y1026412D01*
Y1025142D01*
X1169166Y1023873D01*
X1170435D01*
X1169166D01*
X1167896Y1022603D01*
Y1021334D01*
X1169166Y1020064D01*
X1171705D01*
X1172974Y1021334D01*
X1160279Y1020064D02*
X1165357D01*
X1160279Y1025142D01*
Y1026412D01*
X1161548Y1027682D01*
X1164087D01*
X1165357Y1026412D01*
X1180592Y1036828D02*
Y1044445D01*
X1176783D01*
X1175514Y1043176D01*
Y1040637D01*
X1176783Y1039367D01*
X1180592D01*
X1178053D02*
X1175514Y1036828D01*
X1172974Y1043176D02*
X1171705Y1044445D01*
X1169166D01*
X1167896Y1043176D01*
Y1041906D01*
X1169166Y1040637D01*
X1170435D01*
X1169166D01*
X1167896Y1039367D01*
Y1038098D01*
X1169166Y1036828D01*
X1171705D01*
X1172974Y1038098D01*
X1165357Y1036828D02*
X1162818D01*
X1164087D01*
Y1044445D01*
X1165357Y1043176D01*
X1180592Y1170940D02*
Y1178558D01*
X1176783D01*
X1175514Y1177288D01*
Y1174749D01*
X1176783Y1173479D01*
X1180592D01*
X1178053D02*
X1175514Y1170940D01*
X1167896D02*
X1172974D01*
X1167896Y1176018D01*
Y1177288D01*
X1169166Y1178558D01*
X1171705D01*
X1172974Y1177288D01*
X1165357Y1172210D02*
X1164087Y1170940D01*
X1161548D01*
X1160279Y1172210D01*
Y1177288D01*
X1161548Y1178558D01*
X1164087D01*
X1165357Y1177288D01*
Y1176018D01*
X1164087Y1174749D01*
X1160279D01*
X1180592Y1154176D02*
Y1161794D01*
X1176783D01*
X1175514Y1160524D01*
Y1157985D01*
X1176783Y1156715D01*
X1180592D01*
X1178053D02*
X1175514Y1154176D01*
X1167896D02*
X1172974D01*
X1167896Y1159254D01*
Y1160524D01*
X1169166Y1161794D01*
X1171705D01*
X1172974Y1160524D01*
X1165357D02*
X1164087Y1161794D01*
X1161548D01*
X1160279Y1160524D01*
Y1159254D01*
X1161548Y1157985D01*
X1160279Y1156715D01*
Y1155446D01*
X1161548Y1154176D01*
X1164087D01*
X1165357Y1155446D01*
Y1156715D01*
X1164087Y1157985D01*
X1165357Y1159254D01*
Y1160524D01*
X1164087Y1157985D02*
X1161548D01*
X1180592Y1053592D02*
Y1061209D01*
X1176783D01*
X1175514Y1059940D01*
Y1057401D01*
X1176783Y1056131D01*
X1180592D01*
X1178053D02*
X1175514Y1053592D01*
X1167896D02*
X1172974D01*
X1167896Y1058670D01*
Y1059940D01*
X1169166Y1061209D01*
X1171705D01*
X1172974Y1059940D01*
X1160279Y1053592D02*
X1165357D01*
X1160279Y1058670D01*
Y1059940D01*
X1161548Y1061209D01*
X1164087D01*
X1165357Y1059940D01*
X1180592Y1070356D02*
Y1077973D01*
X1176783D01*
X1175514Y1076704D01*
Y1074165D01*
X1176783Y1072895D01*
X1180592D01*
X1178053D02*
X1175514Y1070356D01*
X1167896D02*
X1172974D01*
X1167896Y1075434D01*
Y1076704D01*
X1169166Y1077973D01*
X1171705D01*
X1172974Y1076704D01*
X1165357Y1070356D02*
X1162818D01*
X1164087D01*
Y1077973D01*
X1165357Y1076704D01*
X1180592Y1137412D02*
Y1145030D01*
X1176783D01*
X1175514Y1143760D01*
Y1141221D01*
X1176783Y1139951D01*
X1180592D01*
X1178053D02*
X1175514Y1137412D01*
X1172974D02*
X1170435D01*
X1171705D01*
Y1145030D01*
X1172974Y1143760D01*
X1161548Y1145030D02*
X1166627D01*
Y1141221D01*
X1164087Y1142490D01*
X1162818D01*
X1161548Y1141221D01*
Y1138682D01*
X1162818Y1137412D01*
X1165357D01*
X1166627Y1138682D01*
X1180592Y1120648D02*
Y1128266D01*
X1176783D01*
X1175514Y1126996D01*
Y1124457D01*
X1176783Y1123187D01*
X1180592D01*
X1178053D02*
X1175514Y1120648D01*
X1172974D02*
X1170435D01*
X1171705D01*
Y1128266D01*
X1172974Y1126996D01*
X1162818Y1120648D02*
Y1128266D01*
X1166627Y1124457D01*
X1161548D01*
X1180592Y1103884D02*
Y1111501D01*
X1176783D01*
X1175514Y1110232D01*
Y1107693D01*
X1176783Y1106423D01*
X1180592D01*
X1178053D02*
X1175514Y1103884D01*
X1172974D02*
X1170435D01*
X1171705D01*
Y1111501D01*
X1172974Y1110232D01*
X1166627D02*
X1165357Y1111501D01*
X1162818D01*
X1161548Y1110232D01*
Y1108962D01*
X1162818Y1107693D01*
X1164087D01*
X1162818D01*
X1161548Y1106423D01*
Y1105154D01*
X1162818Y1103884D01*
X1165357D01*
X1166627Y1105154D01*
X1180592Y1087120D02*
Y1094737D01*
X1176783D01*
X1175514Y1093468D01*
Y1090929D01*
X1176783Y1089659D01*
X1180592D01*
X1178053D02*
X1175514Y1087120D01*
X1172974D02*
X1170435D01*
X1171705D01*
Y1094737D01*
X1172974Y1093468D01*
X1161548Y1087120D02*
X1166627D01*
X1161548Y1092198D01*
Y1093468D01*
X1162818Y1094737D01*
X1165357D01*
X1166627Y1093468D01*
X1507236Y1252728D02*
Y1260346D01*
X1503427D01*
X1502158Y1259076D01*
Y1256537D01*
X1503427Y1255267D01*
X1507236D01*
X1504697D02*
X1502158Y1252728D01*
X1499619Y1259076D02*
X1498349Y1260346D01*
X1495810D01*
X1494540Y1259076D01*
Y1257806D01*
X1495810Y1256537D01*
X1494540Y1255267D01*
Y1253998D01*
X1495810Y1252728D01*
X1498349D01*
X1499619Y1253998D01*
Y1255267D01*
X1498349Y1256537D01*
X1499619Y1257806D01*
Y1259076D01*
X1498349Y1256537D02*
X1495810D01*
X1506982Y1264158D02*
Y1271776D01*
X1503173D01*
X1501904Y1270506D01*
Y1267967D01*
X1503173Y1266697D01*
X1506982D01*
X1504443D02*
X1501904Y1264158D01*
X1499364Y1271776D02*
X1494286D01*
Y1270506D01*
X1499364Y1265428D01*
Y1264158D01*
X1507236Y1176020D02*
Y1183637D01*
X1503427D01*
X1502158Y1182368D01*
Y1179829D01*
X1503427Y1178559D01*
X1507236D01*
X1504697D02*
X1502158Y1176020D01*
X1494540Y1183637D02*
X1499619D01*
Y1179829D01*
X1497079Y1181098D01*
X1495810D01*
X1494540Y1179829D01*
Y1177290D01*
X1495810Y1176020D01*
X1498349D01*
X1499619Y1177290D01*
X1507490Y1164590D02*
Y1172207D01*
X1503681D01*
X1502412Y1170938D01*
Y1168399D01*
X1503681Y1167129D01*
X1507490D01*
X1504951D02*
X1502412Y1164590D01*
X1499872Y1170938D02*
X1498603Y1172207D01*
X1496064D01*
X1494794Y1170938D01*
Y1169668D01*
X1496064Y1168399D01*
X1497333D01*
X1496064D01*
X1494794Y1167129D01*
Y1165860D01*
X1496064Y1164590D01*
X1498603D01*
X1499872Y1165860D01*
X1820928Y1457195D02*
X1823467D01*
X1822197D01*
Y1450848D01*
X1823467Y1449578D01*
X1824736D01*
X1826006Y1450848D01*
X1813310Y1449578D02*
X1818389D01*
X1813310Y1454656D01*
Y1455926D01*
X1814580Y1457195D01*
X1817119D01*
X1818389Y1455926D01*
X1110919Y1435094D02*
X1113458D01*
X1112189D01*
Y1428746D01*
X1113458Y1427476D01*
X1114728D01*
X1115997Y1428746D01*
X1108380Y1427476D02*
X1105841D01*
X1107110D01*
Y1435094D01*
X1108380Y1433824D01*
X1489712Y1427478D02*
X1490981Y1428748D01*
X1493520D01*
X1494790Y1427478D01*
Y1422400D01*
X1493520Y1421130D01*
X1490981D01*
X1489712Y1422400D01*
X1487173Y1428748D02*
X1482094D01*
Y1427478D01*
X1487173Y1422400D01*
Y1421130D01*
X1479555Y1427478D02*
X1478285Y1428748D01*
X1475746D01*
X1474477Y1427478D01*
Y1426208D01*
X1475746Y1424939D01*
X1474477Y1423669D01*
Y1422400D01*
X1475746Y1421130D01*
X1478285D01*
X1479555Y1422400D01*
Y1423669D01*
X1478285Y1424939D01*
X1479555Y1426208D01*
Y1427478D01*
X1478285Y1424939D02*
X1475746D01*
X1362966Y1026158D02*
X1364235Y1027428D01*
X1366774D01*
X1368044Y1026158D01*
Y1021080D01*
X1366774Y1019810D01*
X1364235D01*
X1362966Y1021080D01*
X1360426Y1026158D02*
X1359157Y1027428D01*
X1356618D01*
X1355348Y1026158D01*
Y1024888D01*
X1356618Y1023619D01*
X1357887D01*
X1356618D01*
X1355348Y1022349D01*
Y1021080D01*
X1356618Y1019810D01*
X1359157D01*
X1360426Y1021080D01*
X1352809Y1019810D02*
X1350270D01*
X1351539D01*
Y1027428D01*
X1352809Y1026158D01*
X1315976Y1021332D02*
X1317245Y1022601D01*
X1319784D01*
X1321054Y1021332D01*
Y1016254D01*
X1319784Y1014984D01*
X1317245D01*
X1315976Y1016254D01*
X1313436Y1021332D02*
X1312167Y1022601D01*
X1309628D01*
X1308358Y1021332D01*
Y1020062D01*
X1309628Y1018793D01*
X1310897D01*
X1309628D01*
X1308358Y1017523D01*
Y1016254D01*
X1309628Y1014984D01*
X1312167D01*
X1313436Y1016254D01*
X1305819Y1021332D02*
X1304549Y1022601D01*
X1302010D01*
X1300741Y1021332D01*
Y1016254D01*
X1302010Y1014984D01*
X1304549D01*
X1305819Y1016254D01*
Y1021332D01*
X1329946Y1109724D02*
X1331215Y1110993D01*
X1333754D01*
X1335024Y1109724D01*
Y1104646D01*
X1333754Y1103376D01*
X1331215D01*
X1329946Y1104646D01*
X1322328Y1103376D02*
X1327406D01*
X1322328Y1108454D01*
Y1109724D01*
X1323598Y1110993D01*
X1326137D01*
X1327406Y1109724D01*
X1319789Y1104646D02*
X1318519Y1103376D01*
X1315980D01*
X1314711Y1104646D01*
Y1109724D01*
X1315980Y1110993D01*
X1318519D01*
X1319789Y1109724D01*
Y1108454D01*
X1318519Y1107185D01*
X1314711D01*
X1220218Y1160524D02*
X1221487Y1161794D01*
X1224026D01*
X1225296Y1160524D01*
Y1155446D01*
X1224026Y1154176D01*
X1221487D01*
X1220218Y1155446D01*
X1212600Y1154176D02*
X1217679D01*
X1212600Y1159254D01*
Y1160524D01*
X1213870Y1161794D01*
X1216409D01*
X1217679Y1160524D01*
X1210061Y1154176D02*
X1207522D01*
X1208791D01*
Y1161794D01*
X1210061Y1160524D01*
X1220218Y1126996D02*
X1221487Y1128266D01*
X1224026D01*
X1225296Y1126996D01*
Y1121918D01*
X1224026Y1120648D01*
X1221487D01*
X1220218Y1121918D01*
X1217679Y1120648D02*
X1215139D01*
X1216409D01*
Y1128266D01*
X1217679Y1126996D01*
X1206252Y1128266D02*
X1211330D01*
Y1124457D01*
X1208791Y1125726D01*
X1207522D01*
X1206252Y1124457D01*
Y1121918D01*
X1207522Y1120648D01*
X1210061D01*
X1211330Y1121918D01*
X1220218Y1093214D02*
X1221487Y1094483D01*
X1224026D01*
X1225296Y1093214D01*
Y1088136D01*
X1224026Y1086866D01*
X1221487D01*
X1220218Y1088136D01*
X1217679Y1086866D02*
X1215139D01*
X1216409D01*
Y1094483D01*
X1217679Y1093214D01*
X1207522Y1086866D02*
Y1094483D01*
X1211330Y1090675D01*
X1206252D01*
X1220218Y1143760D02*
X1221487Y1145030D01*
X1224026D01*
X1225296Y1143760D01*
Y1138682D01*
X1224026Y1137412D01*
X1221487D01*
X1220218Y1138682D01*
X1217679Y1143760D02*
X1216409Y1145030D01*
X1213870D01*
X1212600Y1143760D01*
Y1142490D01*
X1213870Y1141221D01*
X1215139D01*
X1213870D01*
X1212600Y1139951D01*
Y1138682D01*
X1213870Y1137412D01*
X1216409D01*
X1217679Y1138682D01*
X1220218Y1110232D02*
X1221487Y1111501D01*
X1224026D01*
X1225296Y1110232D01*
Y1105154D01*
X1224026Y1103884D01*
X1221487D01*
X1220218Y1105154D01*
X1212600Y1103884D02*
X1217679D01*
X1212600Y1108962D01*
Y1110232D01*
X1213870Y1111501D01*
X1216409D01*
X1217679Y1110232D01*
X1514091Y1221741D02*
Y1229359D01*
X1510282D01*
X1509012Y1228089D01*
Y1225550D01*
X1510282Y1224280D01*
X1514091D01*
X1511552D02*
X1509012Y1221741D01*
X1501395Y1229359D02*
X1506473D01*
Y1225550D01*
X1503934Y1226820D01*
X1502664D01*
X1501395Y1225550D01*
Y1223011D01*
X1502664Y1221741D01*
X1505204D01*
X1506473Y1223011D01*
X1493777Y1229359D02*
X1498856D01*
Y1225550D01*
X1496316Y1226820D01*
X1495047D01*
X1493777Y1225550D01*
Y1223011D01*
X1495047Y1221741D01*
X1497586D01*
X1498856Y1223011D01*
X1304292Y1172970D02*
X1305561Y1174240D01*
X1308100D01*
X1309370Y1172970D01*
Y1167892D01*
X1308100Y1166622D01*
X1305561D01*
X1304292Y1167892D01*
X1296674Y1174240D02*
X1299213Y1172970D01*
X1301752Y1170431D01*
Y1167892D01*
X1300483Y1166622D01*
X1297944D01*
X1296674Y1167892D01*
Y1169161D01*
X1297944Y1170431D01*
X1301752D01*
X1294135Y1167892D02*
X1292865Y1166622D01*
X1290326D01*
X1289057Y1167892D01*
Y1172970D01*
X1290326Y1174240D01*
X1292865D01*
X1294135Y1172970D01*
Y1171700D01*
X1292865Y1170431D01*
X1289057D01*
X1295148Y1172970D02*
X1296417Y1174240D01*
X1298956D01*
X1300226Y1172970D01*
Y1167892D01*
X1298956Y1166622D01*
X1296417D01*
X1295148Y1167892D01*
X1287530Y1174240D02*
X1290069Y1172970D01*
X1292608Y1170431D01*
Y1167892D01*
X1291339Y1166622D01*
X1288800D01*
X1287530Y1167892D01*
Y1169161D01*
X1288800Y1170431D01*
X1292608D01*
X1284991Y1172970D02*
X1283721Y1174240D01*
X1281182D01*
X1279913Y1172970D01*
Y1171700D01*
X1281182Y1170431D01*
X1279913Y1169161D01*
Y1167892D01*
X1281182Y1166622D01*
X1283721D01*
X1284991Y1167892D01*
Y1169161D01*
X1283721Y1170431D01*
X1284991Y1171700D01*
Y1172970D01*
X1283721Y1170431D02*
X1281182D01*
X1313182Y1172970D02*
X1314451Y1174240D01*
X1316990D01*
X1318260Y1172970D01*
Y1167892D01*
X1316990Y1166622D01*
X1314451D01*
X1313182Y1167892D01*
X1305564Y1174240D02*
X1308103Y1172970D01*
X1310643Y1170431D01*
Y1167892D01*
X1309373Y1166622D01*
X1306834D01*
X1305564Y1167892D01*
Y1169161D01*
X1306834Y1170431D01*
X1310643D01*
X1303025Y1174240D02*
X1297947D01*
Y1172970D01*
X1303025Y1167892D01*
Y1166622D01*
X1386842Y1311908D02*
X1388111Y1313177D01*
X1390650D01*
X1391920Y1311908D01*
Y1306830D01*
X1390650Y1305560D01*
X1388111D01*
X1386842Y1306830D01*
X1379224Y1313177D02*
X1381763Y1311908D01*
X1384303Y1309369D01*
Y1306830D01*
X1383033Y1305560D01*
X1380494D01*
X1379224Y1306830D01*
Y1308099D01*
X1380494Y1309369D01*
X1384303D01*
X1372876Y1305560D02*
Y1313177D01*
X1376685Y1309369D01*
X1371607D01*
X1376682Y1311654D02*
X1377951Y1312923D01*
X1380490D01*
X1381760Y1311654D01*
Y1306576D01*
X1380490Y1305306D01*
X1377951D01*
X1376682Y1306576D01*
X1369064Y1312923D02*
X1371603Y1311654D01*
X1374142Y1309115D01*
Y1306576D01*
X1372873Y1305306D01*
X1370334D01*
X1369064Y1306576D01*
Y1307845D01*
X1370334Y1309115D01*
X1374142D01*
X1366525Y1311654D02*
X1365255Y1312923D01*
X1362716D01*
X1361447Y1311654D01*
Y1310384D01*
X1362716Y1309115D01*
X1363986D01*
X1362716D01*
X1361447Y1307845D01*
Y1306576D01*
X1362716Y1305306D01*
X1365255D01*
X1366525Y1306576D01*
X1483362Y1125980D02*
X1484631Y1127250D01*
X1487170D01*
X1488440Y1125980D01*
Y1120902D01*
X1487170Y1119632D01*
X1484631D01*
X1483362Y1120902D01*
X1475744Y1127250D02*
X1478283Y1125980D01*
X1480822Y1123441D01*
Y1120902D01*
X1479553Y1119632D01*
X1477014D01*
X1475744Y1120902D01*
Y1122171D01*
X1477014Y1123441D01*
X1480822D01*
X1473205Y1125980D02*
X1471935Y1127250D01*
X1469396D01*
X1468127Y1125980D01*
Y1120902D01*
X1469396Y1119632D01*
X1471935D01*
X1473205Y1120902D01*
Y1125980D01*
X1492506D02*
X1493775Y1127250D01*
X1496314D01*
X1497584Y1125980D01*
Y1120902D01*
X1496314Y1119632D01*
X1493775D01*
X1492506Y1120902D01*
X1484888Y1127250D02*
X1489966D01*
Y1123441D01*
X1487427Y1124710D01*
X1486158D01*
X1484888Y1123441D01*
Y1120902D01*
X1486158Y1119632D01*
X1488697D01*
X1489966Y1120902D01*
X1482349D02*
X1481079Y1119632D01*
X1478540D01*
X1477271Y1120902D01*
Y1125980D01*
X1478540Y1127250D01*
X1481079D01*
X1482349Y1125980D01*
Y1124710D01*
X1481079Y1123441D01*
X1477271D01*
X1454295Y1241714D02*
X1453025Y1240444D01*
X1450486D01*
X1449216Y1241714D01*
Y1246792D01*
X1450486Y1248062D01*
X1453025D01*
X1454295Y1246792D01*
X1461912Y1240444D02*
X1456834D01*
Y1244253D01*
X1459373Y1242984D01*
X1460643D01*
X1461912Y1244253D01*
Y1246792D01*
X1460643Y1248062D01*
X1458103D01*
X1456834Y1246792D01*
X1464451Y1240444D02*
X1469530D01*
Y1241714D01*
X1464451Y1246792D01*
Y1248062D01*
X1465836Y1289302D02*
X1467105Y1290571D01*
X1469644D01*
X1470914Y1289302D01*
Y1284224D01*
X1469644Y1282954D01*
X1467105D01*
X1465836Y1284224D01*
X1458218Y1290571D02*
X1463297D01*
Y1286763D01*
X1460757Y1288032D01*
X1459488D01*
X1458218Y1286763D01*
Y1284224D01*
X1459488Y1282954D01*
X1462027D01*
X1463297Y1284224D01*
X1450601Y1290571D02*
X1453140Y1289302D01*
X1455679Y1286763D01*
Y1284224D01*
X1454409Y1282954D01*
X1451870D01*
X1450601Y1284224D01*
Y1285493D01*
X1451870Y1286763D01*
X1455679D01*
X1501396Y1125980D02*
X1502665Y1127250D01*
X1505204D01*
X1506474Y1125980D01*
Y1120902D01*
X1505204Y1119632D01*
X1502665D01*
X1501396Y1120902D01*
X1493778Y1127250D02*
X1498857D01*
Y1123441D01*
X1496317Y1124710D01*
X1495048D01*
X1493778Y1123441D01*
Y1120902D01*
X1495048Y1119632D01*
X1497587D01*
X1498857Y1120902D01*
X1486161Y1127250D02*
X1491239D01*
Y1123441D01*
X1488700Y1124710D01*
X1487430D01*
X1486161Y1123441D01*
Y1120902D01*
X1487430Y1119632D01*
X1489969D01*
X1491239Y1120902D01*
X1369316Y1182876D02*
X1370585Y1184146D01*
X1373124D01*
X1374394Y1182876D01*
Y1177798D01*
X1373124Y1176528D01*
X1370585D01*
X1369316Y1177798D01*
X1361698Y1184146D02*
X1366776D01*
Y1180337D01*
X1364237Y1181606D01*
X1362968D01*
X1361698Y1180337D01*
Y1177798D01*
X1362968Y1176528D01*
X1365507D01*
X1366776Y1177798D01*
X1354081Y1176528D02*
X1359159D01*
X1354081Y1181606D01*
Y1182876D01*
X1355350Y1184146D01*
X1357889D01*
X1359159Y1182876D01*
X1376936Y1166112D02*
X1378205Y1167382D01*
X1380744D01*
X1382014Y1166112D01*
Y1161034D01*
X1380744Y1159764D01*
X1378205D01*
X1376936Y1161034D01*
X1369318Y1167382D02*
X1374397D01*
Y1163573D01*
X1371857Y1164842D01*
X1370588D01*
X1369318Y1163573D01*
Y1161034D01*
X1370588Y1159764D01*
X1373127D01*
X1374397Y1161034D01*
X1366779Y1159764D02*
X1364240D01*
X1365509D01*
Y1167382D01*
X1366779Y1166112D01*
X1370078Y1206498D02*
X1371347Y1207767D01*
X1373886D01*
X1375156Y1206498D01*
Y1201420D01*
X1373886Y1200150D01*
X1371347D01*
X1370078Y1201420D01*
X1362460Y1207767D02*
X1367538D01*
Y1203959D01*
X1364999Y1205228D01*
X1363730D01*
X1362460Y1203959D01*
Y1201420D01*
X1363730Y1200150D01*
X1366269D01*
X1367538Y1201420D01*
X1359921Y1206498D02*
X1358651Y1207767D01*
X1356112D01*
X1354843Y1206498D01*
Y1201420D01*
X1356112Y1200150D01*
X1358651D01*
X1359921Y1201420D01*
Y1206498D01*
X1393700Y1166112D02*
X1394969Y1167382D01*
X1397508D01*
X1398778Y1166112D01*
Y1161034D01*
X1397508Y1159764D01*
X1394969D01*
X1393700Y1161034D01*
X1387352Y1159764D02*
Y1167382D01*
X1391160Y1163573D01*
X1386082D01*
X1383543Y1161034D02*
X1382273Y1159764D01*
X1379734D01*
X1378465Y1161034D01*
Y1166112D01*
X1379734Y1167382D01*
X1382273D01*
X1383543Y1166112D01*
Y1164842D01*
X1382273Y1163573D01*
X1378465D01*
X1361442Y1190242D02*
X1362711Y1191512D01*
X1365250D01*
X1366520Y1190242D01*
Y1185164D01*
X1365250Y1183894D01*
X1362711D01*
X1361442Y1185164D01*
X1355094Y1183894D02*
Y1191512D01*
X1358902Y1187703D01*
X1353824D01*
X1351285Y1190242D02*
X1350015Y1191512D01*
X1347476D01*
X1346207Y1190242D01*
Y1188972D01*
X1347476Y1187703D01*
X1346207Y1186433D01*
Y1185164D01*
X1347476Y1183894D01*
X1350015D01*
X1351285Y1185164D01*
Y1186433D01*
X1350015Y1187703D01*
X1351285Y1188972D01*
Y1190242D01*
X1350015Y1187703D02*
X1347476D01*
X1425958Y1206244D02*
X1427227Y1207514D01*
X1429766D01*
X1431036Y1206244D01*
Y1201166D01*
X1429766Y1199896D01*
X1427227D01*
X1425958Y1201166D01*
X1419610Y1199896D02*
Y1207514D01*
X1423418Y1203705D01*
X1418340D01*
X1415801Y1207514D02*
X1410723D01*
Y1206244D01*
X1415801Y1201166D01*
Y1199896D01*
X1425958Y1223516D02*
X1427227Y1224786D01*
X1429766D01*
X1431036Y1223516D01*
Y1218438D01*
X1429766Y1217168D01*
X1427227D01*
X1425958Y1218438D01*
X1419610Y1217168D02*
Y1224786D01*
X1423418Y1220977D01*
X1418340D01*
X1410723Y1224786D02*
X1413262Y1223516D01*
X1415801Y1220977D01*
Y1218438D01*
X1414531Y1217168D01*
X1411992D01*
X1410723Y1218438D01*
Y1219707D01*
X1411992Y1220977D01*
X1415801D01*
X1386080Y1222500D02*
X1387349Y1223770D01*
X1389888D01*
X1391158Y1222500D01*
Y1217422D01*
X1389888Y1216152D01*
X1387349D01*
X1386080Y1217422D01*
X1379732Y1216152D02*
Y1223770D01*
X1383540Y1219961D01*
X1378462D01*
X1370845Y1223770D02*
X1375923D01*
Y1219961D01*
X1373384Y1221230D01*
X1372114D01*
X1370845Y1219961D01*
Y1217422D01*
X1372114Y1216152D01*
X1374653D01*
X1375923Y1217422D01*
X1417068Y1222500D02*
X1418337Y1223770D01*
X1420876D01*
X1422146Y1222500D01*
Y1217422D01*
X1420876Y1216152D01*
X1418337D01*
X1417068Y1217422D01*
X1410720Y1216152D02*
Y1223770D01*
X1414529Y1219961D01*
X1409450D01*
X1403102Y1216152D02*
Y1223770D01*
X1406911Y1219961D01*
X1401833D01*
D138*
X1570613Y1322348D02*
Y1328348D01*
X1560113Y1322348D02*
X1570613D01*
X1560113D02*
Y1328348D01*
X1570613Y1335848D02*
Y1341848D01*
X1560113Y1335848D02*
Y1341848D01*
X1570613D01*
X1520307Y1304830D02*
Y1315331D01*
Y1304830D02*
X1526307D01*
X1520307Y1315331D02*
X1526307D01*
X1533807Y1304830D02*
X1539807D01*
Y1315331D01*
X1533807D02*
X1539807D01*
X1518971Y1318618D02*
Y1324618D01*
X1508470Y1318618D02*
X1518971D01*
X1508470D02*
Y1324618D01*
X1518971Y1332119D02*
Y1338118D01*
X1508470Y1332119D02*
Y1338118D01*
X1518971D01*
X1512725Y1362829D02*
X1518725D01*
Y1352328D02*
Y1362829D01*
X1512725Y1352328D02*
X1518725D01*
X1499225Y1362829D02*
X1505225D01*
X1499225Y1352328D02*
X1505225D01*
X1499225D02*
Y1362829D01*
M02*
