G04*
G04 #@! TF.GenerationSoftware,Altium Limited,Altium Designer,26.5.0 (11)*
G04*
G04 Layer_Color=128*
G04 Board_Origin=0|0*
%FSLAX44Y44*%
%MOMM*%
G71*
G04*
G04 #@! TF.SameCoordinates,E1122185-4118-4281-A408-FBEEEAA8865F*
G04*
G04*
G04 #@! TF.FilePolarity,Positive*
G04*
G01*
G75*
%ADD23R,1.0000X0.9500*%
%ADD26R,0.6000X0.8000*%
%ADD29R,0.9500X1.0000*%
G04:AMPARAMS|DCode=31|XSize=1.3mm|YSize=0.76mm|CornerRadius=0.095mm|HoleSize=0mm|Usage=FLASHONLY|Rotation=180.000|XOffset=0mm|YOffset=0mm|HoleType=Round|Shape=RoundedRectangle|*
%AMROUNDEDRECTD31*
21,1,1.3000,0.5700,0,0,180.0*
21,1,1.1100,0.7600,0,0,180.0*
1,1,0.1900,-0.5550,0.2850*
1,1,0.1900,0.5550,0.2850*
1,1,0.1900,0.5550,-0.2850*
1,1,0.1900,-0.5550,-0.2850*
%
%ADD31ROUNDEDRECTD31*%
%ADD32R,0.5400X0.5800*%
%ADD33R,0.8000X1.0000*%
%ADD35R,0.5800X0.5400*%
%ADD39R,0.8000X0.6000*%
G04:AMPARAMS|DCode=47|XSize=1.3mm|YSize=0.76mm|CornerRadius=0.095mm|HoleSize=0mm|Usage=FLASHONLY|Rotation=270.000|XOffset=0mm|YOffset=0mm|HoleType=Round|Shape=RoundedRectangle|*
%AMROUNDEDRECTD47*
21,1,1.3000,0.5700,0,0,270.0*
21,1,1.1100,0.7600,0,0,270.0*
1,1,0.1900,-0.2850,-0.5550*
1,1,0.1900,-0.2850,0.5550*
1,1,0.1900,0.2850,0.5550*
1,1,0.1900,0.2850,-0.5550*
%
%ADD47ROUNDEDRECTD47*%
%ADD53R,1.0000X0.8000*%
%ADD119R,0.9500X0.9500*%
%ADD120R,2.0000X0.5000*%
%ADD121R,0.5000X2.0000*%
%ADD122R,1.4000X1.2000*%
%ADD123O,0.4500X1.4000*%
G04:AMPARAMS|DCode=124|XSize=0.9mm|YSize=0.8mm|CornerRadius=0.048mm|HoleSize=0mm|Usage=FLASHONLY|Rotation=270.000|XOffset=0mm|YOffset=0mm|HoleType=Round|Shape=RoundedRectangle|*
%AMROUNDEDRECTD124*
21,1,0.9000,0.7040,0,0,270.0*
21,1,0.8040,0.8000,0,0,270.0*
1,1,0.0960,-0.3520,-0.4020*
1,1,0.0960,-0.3520,0.4020*
1,1,0.0960,0.3520,0.4020*
1,1,0.0960,0.3520,-0.4020*
%
%ADD124ROUNDEDRECTD124*%
%ADD125R,1.2000X1.4000*%
%ADD126R,0.5000X0.6000*%
%ADD127R,0.6000X0.5000*%
D23*
X1219374Y971123D02*
D03*
Y987921D02*
D03*
X1219748Y1004726D02*
D03*
Y1021476D02*
D03*
Y1054975D02*
D03*
Y1071551D02*
D03*
Y1038225D02*
D03*
Y1088349D02*
D03*
Y1121973D02*
D03*
Y1105223D02*
D03*
X1313564Y1087908D02*
D03*
X1219748Y1138722D02*
D03*
Y1155472D02*
D03*
X1476758Y1330452D02*
D03*
X1158981Y1105243D02*
D03*
Y1038120D02*
D03*
Y1088462D02*
D03*
Y970991D02*
D03*
Y1138804D02*
D03*
Y1054901D02*
D03*
Y987778D02*
D03*
Y1071675D02*
D03*
Y1004559D02*
D03*
Y1122024D02*
D03*
Y1021340D02*
D03*
Y1155585D02*
D03*
X1509142Y1294130D02*
D03*
X1525142D02*
D03*
X1492758Y1330452D02*
D03*
X1174981Y1105243D02*
D03*
X1203748Y1105223D02*
D03*
Y1088349D02*
D03*
X1174981Y1088462D02*
D03*
Y987778D02*
D03*
X1203374Y987921D02*
D03*
X1174981Y1038120D02*
D03*
X1203748Y1038225D02*
D03*
X1174981Y1004559D02*
D03*
X1203748Y1004726D02*
D03*
X1174981Y1054901D02*
D03*
X1203748Y1054975D02*
D03*
Y1071551D02*
D03*
X1174981Y1071675D02*
D03*
Y1021340D02*
D03*
X1203748Y1021476D02*
D03*
Y1155472D02*
D03*
X1174981Y1155585D02*
D03*
X1203748Y1121973D02*
D03*
X1174981Y1122024D02*
D03*
Y970991D02*
D03*
X1203374Y971123D02*
D03*
X1174981Y1138804D02*
D03*
X1203748Y1138722D02*
D03*
X1329564Y1087908D02*
D03*
D26*
X1441706Y1075812D02*
D03*
X1496314Y1217580D02*
D03*
X1491234Y1394494D02*
D03*
X1513039Y1404980D02*
D03*
X1491234Y1406494D02*
D03*
X1441706Y1087812D02*
D03*
X1496314Y1205580D02*
D03*
X1513039Y1392980D02*
D03*
D29*
X1315720Y983362D02*
D03*
X1362710Y988188D02*
D03*
X1565617Y1370150D02*
D03*
Y1354151D02*
D03*
X1315720Y999362D02*
D03*
X1362710Y1004188D02*
D03*
D31*
X1611249Y949596D02*
D03*
X1545336Y845048D02*
D03*
X1547241Y795518D02*
D03*
X1591564Y776214D02*
D03*
X1703752Y755220D02*
D03*
X1538351Y911342D02*
D03*
X1703752Y773120D02*
D03*
X1547241Y813418D02*
D03*
X1538351Y929242D02*
D03*
X1591564Y794114D02*
D03*
X1611249Y967496D02*
D03*
X1545336Y862948D02*
D03*
X1744392Y774390D02*
D03*
Y756490D02*
D03*
D32*
X1298544Y1146890D02*
D03*
X1316553Y1146782D02*
D03*
X1307663D02*
D03*
X1372719Y1164613D02*
D03*
X1373481Y1188235D02*
D03*
X1380133Y1293355D02*
D03*
X1429361Y1180181D02*
D03*
Y1197453D02*
D03*
X1486772Y1099827D02*
D03*
X1504806D02*
D03*
X1495890Y1099973D02*
D03*
X1469239Y1271039D02*
D03*
X1478327Y1270923D02*
D03*
X1390293Y1293481D02*
D03*
X1478327Y1263123D02*
D03*
X1469239Y1263239D02*
D03*
X1504806Y1107627D02*
D03*
X1495890Y1107773D02*
D03*
X1486772Y1107627D02*
D03*
X1390293Y1285681D02*
D03*
X1380133Y1285555D02*
D03*
X1316553Y1154581D02*
D03*
X1307663D02*
D03*
X1298544Y1154690D02*
D03*
X1429361Y1205253D02*
D03*
Y1187981D02*
D03*
X1373481Y1180435D02*
D03*
X1372719Y1156813D02*
D03*
D33*
X1667644Y792480D02*
D03*
X1660786Y809244D02*
D03*
X1652644Y792480D02*
D03*
X1645786Y809244D02*
D03*
D35*
X1380175Y1148013D02*
D03*
X1364681Y1172143D02*
D03*
X1381519Y1204401D02*
D03*
X1389139Y1148013D02*
D03*
X1420217Y1204401D02*
D03*
X1412417D02*
D03*
X1389319D02*
D03*
X1396939Y1148013D02*
D03*
X1356881Y1172143D02*
D03*
X1372375Y1148013D02*
D03*
D39*
X1500220Y1378204D02*
D03*
X1530361Y1444994D02*
D03*
X1502671Y1238945D02*
D03*
X1502925Y1150807D02*
D03*
X1502417Y1250375D02*
D03*
X1502671Y1162237D02*
D03*
X1512220Y1378204D02*
D03*
X1542361Y1444994D02*
D03*
X1490671Y1162237D02*
D03*
Y1238945D02*
D03*
X1355363Y1086733D02*
D03*
X1490417Y1250375D02*
D03*
X1343363Y1086733D02*
D03*
X1490925Y1150807D02*
D03*
D47*
X1529324Y964692D02*
D03*
X1547224D02*
D03*
D53*
X1767433Y959145D02*
D03*
X1761410Y741634D02*
D03*
X1793595Y958383D02*
D03*
Y943383D02*
D03*
X1767433Y944145D02*
D03*
X1761410Y756634D02*
D03*
D119*
X1616204Y1407767D02*
D03*
X1615950Y1354881D02*
D03*
X1616458Y1268321D02*
D03*
X1617726Y1213050D02*
D03*
X1617220Y1131615D02*
D03*
X1616458Y1077413D02*
D03*
X1230378Y1409572D02*
D03*
X1228344Y1353466D02*
D03*
X1232156Y1273174D02*
D03*
X1231900Y1214020D02*
D03*
X1156718Y1203578D02*
D03*
X1231900Y1201520D02*
D03*
X1156464Y1258696D02*
D03*
X1156385Y1367723D02*
D03*
Y1395863D02*
D03*
X1228344Y1340966D02*
D03*
X1232156Y1285674D02*
D03*
X1230378Y1422072D02*
D03*
X1616458Y1089913D02*
D03*
X1617220Y1144115D02*
D03*
X1694180Y1088544D02*
D03*
X1693926Y1116684D02*
D03*
X1617726Y1225550D02*
D03*
X1616458Y1255821D02*
D03*
X1694180Y1228244D02*
D03*
Y1255622D02*
D03*
X1615950Y1367381D02*
D03*
X1616204Y1395267D02*
D03*
X1694688Y1367182D02*
D03*
X1694434Y1394814D02*
D03*
X1156385Y1408363D02*
D03*
Y1355223D02*
D03*
X1156718Y1216078D02*
D03*
X1156464Y1271196D02*
D03*
X1694688Y1354682D02*
D03*
X1694434Y1407314D02*
D03*
X1694180Y1215744D02*
D03*
Y1268122D02*
D03*
X1693926Y1129184D02*
D03*
X1694180Y1076044D02*
D03*
D120*
X1771906Y1094286D02*
D03*
X1039741Y1077715D02*
D03*
Y1125715D02*
D03*
X1083741Y1069715D02*
D03*
Y1117715D02*
D03*
Y1181715D02*
D03*
X1039741Y1189715D02*
D03*
X1083741Y1229715D02*
D03*
Y1301715D02*
D03*
Y1381715D02*
D03*
X1771906Y1062286D02*
D03*
Y1166286D02*
D03*
Y1238286D02*
D03*
Y1366286D02*
D03*
X1039741Y1045715D02*
D03*
Y1053715D02*
D03*
X1083741Y1061715D02*
D03*
X1039741D02*
D03*
X1083741Y1053715D02*
D03*
X1815906Y1086286D02*
D03*
X1039741Y1365715D02*
D03*
Y1213715D02*
D03*
X1815906Y1062286D02*
D03*
Y1374286D02*
D03*
Y1238286D02*
D03*
Y1094286D02*
D03*
Y1350286D02*
D03*
X1771906D02*
D03*
X1815906Y1182286D02*
D03*
Y1230286D02*
D03*
X1771906D02*
D03*
X1815906Y1222286D02*
D03*
X1771906D02*
D03*
X1815906Y1214286D02*
D03*
X1771906D02*
D03*
X1815906Y1206286D02*
D03*
X1771906D02*
D03*
X1815906Y1198286D02*
D03*
X1771906D02*
D03*
X1815906Y1190286D02*
D03*
X1771906D02*
D03*
Y1182286D02*
D03*
X1815906Y1174286D02*
D03*
X1771906D02*
D03*
X1815906Y1166286D02*
D03*
Y1358286D02*
D03*
Y1054286D02*
D03*
X1771906Y1358286D02*
D03*
X1815906Y1342286D02*
D03*
X1771906D02*
D03*
Y1326286D02*
D03*
X1815906Y1318286D02*
D03*
X1771906D02*
D03*
X1815906Y1310286D02*
D03*
X1771906D02*
D03*
X1815906Y1158286D02*
D03*
X1771906Y1086286D02*
D03*
Y1078286D02*
D03*
X1815906Y1070286D02*
D03*
X1771906D02*
D03*
X1815906Y1078286D02*
D03*
X1771906Y1254286D02*
D03*
X1815906D02*
D03*
X1771906Y1262286D02*
D03*
X1815906D02*
D03*
X1771906Y1270286D02*
D03*
X1815906Y1286286D02*
D03*
X1771906Y1294286D02*
D03*
X1815906D02*
D03*
X1771906Y1302286D02*
D03*
X1815906D02*
D03*
X1771906Y1278286D02*
D03*
X1815906D02*
D03*
Y1270286D02*
D03*
X1771906Y1286286D02*
D03*
X1815906Y1366286D02*
D03*
Y1246286D02*
D03*
Y1334286D02*
D03*
Y1406286D02*
D03*
Y1046286D02*
D03*
X1771906Y1030286D02*
D03*
Y1398286D02*
D03*
X1815906Y1014286D02*
D03*
Y1326286D02*
D03*
Y1038286D02*
D03*
X1771906Y1054286D02*
D03*
X1815906Y1398286D02*
D03*
X1771906Y1382286D02*
D03*
Y1046286D02*
D03*
Y1022286D02*
D03*
Y1374286D02*
D03*
X1815906Y1030286D02*
D03*
Y1390286D02*
D03*
Y1382286D02*
D03*
X1771906Y1014286D02*
D03*
Y1038286D02*
D03*
Y1406286D02*
D03*
X1815906Y1022286D02*
D03*
X1771906Y1134286D02*
D03*
X1815906Y1118286D02*
D03*
Y1142286D02*
D03*
X1771906Y1118286D02*
D03*
Y1390286D02*
D03*
Y1142286D02*
D03*
X1815906Y1126286D02*
D03*
Y1150286D02*
D03*
Y1134286D02*
D03*
X1771906Y1158286D02*
D03*
Y1246286D02*
D03*
Y1334286D02*
D03*
X1815906Y1102286D02*
D03*
X1771906Y1110286D02*
D03*
Y1102286D02*
D03*
X1815906Y1110286D02*
D03*
X1771906Y1150286D02*
D03*
Y1126286D02*
D03*
X1039741Y1237715D02*
D03*
Y1373715D02*
D03*
Y1261715D02*
D03*
X1083741Y1293715D02*
D03*
X1039741Y1253715D02*
D03*
Y1277715D02*
D03*
X1083741Y1285715D02*
D03*
X1039741Y1269715D02*
D03*
X1083741Y1277715D02*
D03*
Y1269715D02*
D03*
X1039741Y1357715D02*
D03*
X1083741Y1365715D02*
D03*
X1039741Y1309715D02*
D03*
X1083741Y1317715D02*
D03*
X1039741Y1349715D02*
D03*
X1083741Y1333715D02*
D03*
Y1357715D02*
D03*
X1039741Y1301715D02*
D03*
X1083741Y1309715D02*
D03*
Y1325715D02*
D03*
X1039741Y1341715D02*
D03*
X1083741Y1349715D02*
D03*
X1039741Y1293715D02*
D03*
X1083741Y1373715D02*
D03*
X1039741Y1317715D02*
D03*
Y1333715D02*
D03*
X1083741Y1213715D02*
D03*
Y1165715D02*
D03*
X1039741Y1157715D02*
D03*
X1083741Y1101715D02*
D03*
X1039741Y1093715D02*
D03*
Y1197715D02*
D03*
Y1165715D02*
D03*
X1083741Y1013715D02*
D03*
X1039741Y1109715D02*
D03*
X1083741Y1125715D02*
D03*
Y1173715D02*
D03*
X1039741Y1205715D02*
D03*
Y1325715D02*
D03*
X1083741Y1221715D02*
D03*
X1039741Y1229715D02*
D03*
X1083741Y1141715D02*
D03*
X1039741Y1133715D02*
D03*
X1083741D02*
D03*
Y1109715D02*
D03*
Y1149715D02*
D03*
X1039741Y1173715D02*
D03*
Y1149715D02*
D03*
Y1037715D02*
D03*
X1083741Y1189715D02*
D03*
Y1157715D02*
D03*
Y1205715D02*
D03*
Y1197715D02*
D03*
X1039741Y1085715D02*
D03*
Y1101715D02*
D03*
Y1117715D02*
D03*
Y1069715D02*
D03*
Y1221715D02*
D03*
X1083741Y1045715D02*
D03*
Y1085715D02*
D03*
Y1093715D02*
D03*
Y1405715D02*
D03*
X1039741D02*
D03*
Y1245715D02*
D03*
Y1285715D02*
D03*
X1083741Y1245715D02*
D03*
Y1237715D02*
D03*
X1039741Y1181715D02*
D03*
Y1141715D02*
D03*
X1083741Y1253715D02*
D03*
Y1341715D02*
D03*
Y1261715D02*
D03*
X1039741Y1013715D02*
D03*
Y1381715D02*
D03*
X1083741Y1397715D02*
D03*
Y1037715D02*
D03*
Y1021715D02*
D03*
Y1389715D02*
D03*
X1039741Y1021715D02*
D03*
Y1389715D02*
D03*
Y1397715D02*
D03*
X1083741Y1029715D02*
D03*
X1039741D02*
D03*
X1083741Y1077715D02*
D03*
D121*
X1290400Y1515716D02*
D03*
X1418400D02*
D03*
X1586400D02*
D03*
X1330400D02*
D03*
X1234400D02*
D03*
X1386400D02*
D03*
X1226400Y1559716D02*
D03*
Y1515716D02*
D03*
X1234400Y1559716D02*
D03*
X1242400D02*
D03*
Y1515716D02*
D03*
X1250400Y1559716D02*
D03*
X1258400D02*
D03*
Y1515716D02*
D03*
X1266400Y1559716D02*
D03*
Y1515716D02*
D03*
X1274400Y1559716D02*
D03*
Y1515716D02*
D03*
X1282400Y1559716D02*
D03*
Y1515716D02*
D03*
X1290400Y1559716D02*
D03*
X1298400D02*
D03*
Y1515716D02*
D03*
X1306400Y1559716D02*
D03*
Y1515716D02*
D03*
X1314400Y1559716D02*
D03*
Y1515716D02*
D03*
X1322400Y1559716D02*
D03*
Y1515716D02*
D03*
X1330400Y1559716D02*
D03*
X1338400D02*
D03*
Y1515716D02*
D03*
X1346400Y1559716D02*
D03*
Y1515716D02*
D03*
X1354400Y1559716D02*
D03*
Y1515716D02*
D03*
X1362400Y1559716D02*
D03*
Y1515716D02*
D03*
X1370400Y1559716D02*
D03*
Y1515716D02*
D03*
X1378400Y1559716D02*
D03*
Y1515716D02*
D03*
X1386400Y1559716D02*
D03*
X1394400D02*
D03*
Y1515716D02*
D03*
X1402400Y1559716D02*
D03*
Y1515716D02*
D03*
X1410400Y1559716D02*
D03*
Y1515716D02*
D03*
X1418400Y1559716D02*
D03*
X1426400D02*
D03*
Y1515716D02*
D03*
X1434400Y1559716D02*
D03*
Y1515716D02*
D03*
X1442400Y1559716D02*
D03*
Y1515716D02*
D03*
X1450400Y1559716D02*
D03*
Y1515716D02*
D03*
X1458400Y1559716D02*
D03*
X1466400D02*
D03*
Y1515716D02*
D03*
X1474400Y1559716D02*
D03*
Y1515716D02*
D03*
X1482400Y1559716D02*
D03*
Y1515716D02*
D03*
X1490400Y1559716D02*
D03*
Y1515716D02*
D03*
X1498400Y1559716D02*
D03*
Y1515716D02*
D03*
X1506400Y1559716D02*
D03*
Y1515716D02*
D03*
X1514400Y1559716D02*
D03*
Y1515716D02*
D03*
X1522400Y1559716D02*
D03*
Y1515716D02*
D03*
X1530400Y1559716D02*
D03*
Y1515716D02*
D03*
X1538400Y1559716D02*
D03*
Y1515716D02*
D03*
X1546400Y1559716D02*
D03*
Y1515716D02*
D03*
X1554400Y1559716D02*
D03*
Y1515716D02*
D03*
X1562400Y1559716D02*
D03*
Y1515716D02*
D03*
X1570400Y1559716D02*
D03*
Y1515716D02*
D03*
X1578400Y1559716D02*
D03*
Y1515716D02*
D03*
X1586400Y1559716D02*
D03*
X1594400D02*
D03*
Y1515716D02*
D03*
X1602400Y1559716D02*
D03*
Y1515716D02*
D03*
X1610400Y1559716D02*
D03*
Y1515716D02*
D03*
X1618400Y1559716D02*
D03*
Y1515716D02*
D03*
X1250400D02*
D03*
X1458400D02*
D03*
D122*
X1560957Y764422D02*
D03*
Y781422D02*
D03*
D123*
X1548189Y1385300D02*
D03*
X1541689Y1326300D02*
D03*
X1528689Y1385300D02*
D03*
X1541689D02*
D03*
X1528689Y1326300D02*
D03*
X1548189D02*
D03*
X1535189D02*
D03*
Y1385300D02*
D03*
D124*
X1543611Y1413392D02*
D03*
X1529111Y1431892D02*
D03*
Y1413392D02*
D03*
X1543611Y1431892D02*
D03*
D125*
X1789548Y858012D02*
D03*
X1692792Y858774D02*
D03*
X1772548Y858012D02*
D03*
X1709792Y858774D02*
D03*
D126*
X1503975Y1357578D02*
D03*
X1535057Y1310080D02*
D03*
X1525057D02*
D03*
X1513975Y1357578D02*
D03*
D127*
X1565363Y1327098D02*
D03*
Y1337098D02*
D03*
X1513721Y1323369D02*
D03*
Y1333369D02*
D03*
M02*
