G04*
G04 #@! TF.GenerationSoftware,Altium Limited,Altium Designer,26.5.0 (11)*
G04*
G04 Layer_Color=8388736*
G04 Board_Origin=0|0*
%FSLAX44Y44*%
%MOMM*%
G71*
G04*
G04 #@! TF.SameCoordinates,DD4D5FAA-8BF8-414C-B01C-6ACC3CF4EDD8*
G04*
G04*
G04 #@! TF.FilePolarity,Negative*
G04*
G01*
G75*
%ADD26C,0.4000*%
G04:AMPARAMS|DCode=56|XSize=0.8032mm|YSize=1.2032mm|CornerRadius=0.1526mm|HoleSize=0mm|Usage=FLASHONLY|Rotation=180.000|XOffset=0mm|YOffset=0mm|HoleType=Round|Shape=RoundedRectangle|*
%AMROUNDEDRECTD56*
21,1,0.8032,0.8980,0,0,180.0*
21,1,0.4980,1.2032,0,0,180.0*
1,1,0.3052,-0.2490,0.4490*
1,1,0.3052,0.2490,0.4490*
1,1,0.3052,0.2490,-0.4490*
1,1,0.3052,-0.2490,-0.4490*
%
%ADD56ROUNDEDRECTD56*%
%ADD57R,1.0032X0.8032*%
%ADD58R,0.8032X1.0032*%
G04:AMPARAMS|DCode=59|XSize=1.5032mm|YSize=0.9632mm|CornerRadius=0.1966mm|HoleSize=0mm|Usage=FLASHONLY|Rotation=270.000|XOffset=0mm|YOffset=0mm|HoleType=Round|Shape=RoundedRectangle|*
%AMROUNDEDRECTD59*
21,1,1.5032,0.5700,0,0,270.0*
21,1,1.1100,0.9632,0,0,270.0*
1,1,0.3932,-0.2850,-0.5550*
1,1,0.3932,-0.2850,0.5550*
1,1,0.3932,0.2850,0.5550*
1,1,0.3932,0.2850,-0.5550*
%
%ADD59ROUNDEDRECTD59*%
%ADD60R,0.7432X0.7832*%
G04:AMPARAMS|DCode=61|XSize=0.8032mm|YSize=1.2032mm|CornerRadius=0.1526mm|HoleSize=0mm|Usage=FLASHONLY|Rotation=270.000|XOffset=0mm|YOffset=0mm|HoleType=Round|Shape=RoundedRectangle|*
%AMROUNDEDRECTD61*
21,1,0.8032,0.8980,0,0,270.0*
21,1,0.4980,1.2032,0,0,270.0*
1,1,0.3052,-0.4490,-0.2490*
1,1,0.3052,-0.4490,0.2490*
1,1,0.3052,0.4490,0.2490*
1,1,0.3052,0.4490,-0.2490*
%
%ADD61ROUNDEDRECTD61*%
%ADD62R,1.1532X0.9032*%
%ADD63R,1.2032X1.1532*%
%ADD64O,0.6532X1.5532*%
%ADD65R,0.8032X0.7532*%
%ADD66R,0.8532X0.8532*%
%ADD67R,1.4332X2.4232*%
%ADD68R,1.6782X0.5032*%
%ADD69R,1.1532X1.2032*%
%ADD70R,1.1032X1.6032*%
%ADD71R,1.4032X1.0032*%
%ADD72R,2.0032X1.0032*%
%ADD73O,1.6532X0.6032*%
G04:AMPARAMS|DCode=74|XSize=0.9632mm|YSize=0.8636mm|CornerRadius=0.1842mm|HoleSize=0mm|Usage=FLASHONLY|Rotation=180.000|XOffset=0mm|YOffset=0mm|HoleType=Round|Shape=RoundedRectangle|*
%AMROUNDEDRECTD74*
21,1,0.9632,0.4953,0,0,180.0*
21,1,0.5949,0.8636,0,0,180.0*
1,1,0.3683,-0.2975,0.2477*
1,1,0.3683,0.2975,0.2477*
1,1,0.3683,0.2975,-0.2477*
1,1,0.3683,-0.2975,-0.2477*
%
%ADD74ROUNDEDRECTD74*%
G04:AMPARAMS|DCode=75|XSize=0.7532mm|YSize=0.7032mm|CornerRadius=0.1641mm|HoleSize=0mm|Usage=FLASHONLY|Rotation=0.000|XOffset=0mm|YOffset=0mm|HoleType=Round|Shape=RoundedRectangle|*
%AMROUNDEDRECTD75*
21,1,0.7532,0.3750,0,0,0.0*
21,1,0.4250,0.7032,0,0,0.0*
1,1,0.3282,0.2125,-0.1875*
1,1,0.3282,-0.2125,-0.1875*
1,1,0.3282,-0.2125,0.1875*
1,1,0.3282,0.2125,0.1875*
%
%ADD75ROUNDEDRECTD75*%
%ADD76R,0.7832X0.7432*%
%ADD77O,0.7016X0.3416*%
%ADD78R,1.7516X2.5016*%
%ADD79R,1.0032X1.2032*%
G04:AMPARAMS|DCode=80|XSize=1.5032mm|YSize=0.9632mm|CornerRadius=0.1966mm|HoleSize=0mm|Usage=FLASHONLY|Rotation=180.000|XOffset=0mm|YOffset=0mm|HoleType=Round|Shape=RoundedRectangle|*
%AMROUNDEDRECTD80*
21,1,1.5032,0.5700,0,0,180.0*
21,1,1.1100,0.9632,0,0,180.0*
1,1,0.3932,-0.5550,0.2850*
1,1,0.3932,0.5550,0.2850*
1,1,0.3932,0.5550,-0.2850*
1,1,0.3932,-0.5550,-0.2850*
%
%ADD80ROUNDEDRECTD80*%
%ADD81R,0.9032X1.1532*%
%ADD82R,0.9652X1.4732*%
%ADD83R,2.8702X2.7432*%
G04:AMPARAMS|DCode=84|XSize=0.7532mm|YSize=0.7032mm|CornerRadius=0.1641mm|HoleSize=0mm|Usage=FLASHONLY|Rotation=270.000|XOffset=0mm|YOffset=0mm|HoleType=Round|Shape=RoundedRectangle|*
%AMROUNDEDRECTD84*
21,1,0.7532,0.3750,0,0,270.0*
21,1,0.4250,0.7032,0,0,270.0*
1,1,0.3282,-0.1875,-0.2125*
1,1,0.3282,-0.1875,0.2125*
1,1,0.3282,0.1875,0.2125*
1,1,0.3282,0.1875,-0.2125*
%
%ADD84ROUNDEDRECTD84*%
%ADD85R,1.4732X0.9632*%
%ADD86R,1.2032X1.0032*%
%ADD87R,1.3032X1.4032*%
%ADD88R,1.2032X1.8032*%
%ADD89C,5.2832*%
%ADD90C,1.4732*%
%ADD91C,1.9282*%
%ADD92C,1.7112*%
%ADD93R,1.9282X1.9282*%
%ADD94C,0.6016*%
%ADD95R,1.7112X1.7112*%
%ADD96C,1.0332*%
%ADD97C,1.4332*%
G36*
X1123581Y753985D02*
Y759001D01*
X1120265D01*
Y753985D01*
X1123581D01*
D02*
G37*
G36*
X1125265Y759001D02*
Y753985D01*
X1128581D01*
Y759001D01*
X1125265D01*
D02*
G37*
G36*
X1123581Y779985D02*
Y785001D01*
X1120265D01*
Y779985D01*
X1123581D01*
D02*
G37*
G36*
X1125265Y785001D02*
Y779985D01*
X1128581D01*
Y785001D01*
X1125265D01*
D02*
G37*
D26*
X1465363Y1248525D02*
D03*
X1449363Y1216525D02*
D03*
Y1208525D02*
D03*
X1473363Y1112525D02*
D03*
X1449363Y1192525D02*
D03*
X1457363D02*
D03*
X1441363Y1152525D02*
D03*
Y1168525D02*
D03*
X1393363Y1248525D02*
D03*
X1425363Y1216525D02*
D03*
X1401363D02*
D03*
X1377363D02*
D03*
Y1208525D02*
D03*
X1425363D02*
D03*
X1401363D02*
D03*
X1433363Y1168525D02*
D03*
X1369363Y1192525D02*
D03*
Y1160525D02*
D03*
Y1200525D02*
D03*
X1361363D02*
D03*
Y1160525D02*
D03*
X1353363Y1208525D02*
D03*
X1361363Y1192525D02*
D03*
X1353363Y1200525D02*
D03*
X1329363Y1240525D02*
D03*
Y1160525D02*
D03*
X1433363Y1152525D02*
D03*
X1393363Y1144525D02*
D03*
Y1136525D02*
D03*
X1417363D02*
D03*
X1409363D02*
D03*
X1385363Y1104525D02*
D03*
X1473363Y1248525D02*
D03*
X1441363Y1216525D02*
D03*
X1457363Y1200525D02*
D03*
X1441363Y1208525D02*
D03*
X1449363Y1200525D02*
D03*
X1433363Y1216525D02*
D03*
X1417363D02*
D03*
X1401363Y1248525D02*
D03*
X1385363Y1216525D02*
D03*
X1433363Y1208525D02*
D03*
X1385363D02*
D03*
X1417363D02*
D03*
X1473363Y1192525D02*
D03*
Y1104525D02*
D03*
X1465363Y1168525D02*
D03*
Y1192525D02*
D03*
X1417363D02*
D03*
X1441363D02*
D03*
X1433363D02*
D03*
X1417363Y1184525D02*
D03*
X1409363Y1192525D02*
D03*
Y1184525D02*
D03*
X1433363Y1176525D02*
D03*
X1441363D02*
D03*
X1417363D02*
D03*
X1409363D02*
D03*
X1417363Y1168525D02*
D03*
X1409363D02*
D03*
X1401363Y1192525D02*
D03*
X1393363D02*
D03*
X1401363Y1184525D02*
D03*
X1393363D02*
D03*
X1385363Y1192525D02*
D03*
Y1184525D02*
D03*
X1401363Y1176525D02*
D03*
X1393363Y1168525D02*
D03*
X1401363D02*
D03*
X1393363Y1176525D02*
D03*
X1385363D02*
D03*
Y1168525D02*
D03*
X1441363Y1160525D02*
D03*
Y1144525D02*
D03*
X1433363D02*
D03*
Y1160525D02*
D03*
X1417363D02*
D03*
Y1144525D02*
D03*
X1441363Y1136525D02*
D03*
X1433363D02*
D03*
X1409363Y1160525D02*
D03*
X1401363D02*
D03*
X1393363D02*
D03*
X1385363D02*
D03*
X1409363Y1144525D02*
D03*
X1385363Y1136525D02*
D03*
Y1144525D02*
D03*
X1369363Y1216525D02*
D03*
X1361363D02*
D03*
X1369363Y1208525D02*
D03*
Y1184525D02*
D03*
X1361363Y1208525D02*
D03*
Y1184525D02*
D03*
X1329363Y1248525D02*
D03*
X1369363Y1152525D02*
D03*
Y1168525D02*
D03*
X1361363D02*
D03*
Y1152525D02*
D03*
X1377363Y1136525D02*
D03*
Y1144525D02*
D03*
X1361363D02*
D03*
Y1136525D02*
D03*
X1329363Y1152525D02*
D03*
X1337363Y1144525D02*
D03*
Y1136525D02*
D03*
X1329363Y1144525D02*
D03*
X1377363Y1112525D02*
D03*
X1369363D02*
D03*
X1377363Y1104525D02*
D03*
X1369363D02*
D03*
X1329363D02*
D03*
X1425363D02*
D03*
X1433363D02*
D03*
Y1112525D02*
D03*
X1441363D02*
D03*
Y1200525D02*
D03*
Y1184525D02*
D03*
X1433363Y1200525D02*
D03*
Y1184525D02*
D03*
X1393363Y1216525D02*
D03*
X1409363D02*
D03*
X1393363Y1208525D02*
D03*
X1409363D02*
D03*
X1425363Y1144525D02*
D03*
X1401363D02*
D03*
X1425363Y1136525D02*
D03*
X1401363D02*
D03*
X1369363Y1176525D02*
D03*
X1361363D02*
D03*
X1473363Y1208525D02*
D03*
X1409363Y1232525D02*
D03*
X1449363Y1104525D02*
D03*
X1473363Y1176525D02*
D03*
X1457363Y1232525D02*
D03*
X1433363Y1240525D02*
D03*
X1457363Y1152525D02*
D03*
X1465363Y1136525D02*
D03*
X1441363Y1240525D02*
D03*
X1465363Y1152525D02*
D03*
X1433363Y1248525D02*
D03*
X1473363Y1144525D02*
D03*
X1441363Y1232525D02*
D03*
X1409363Y1224525D02*
D03*
Y1104525D02*
D03*
X1441363Y1224525D02*
D03*
X1449363Y1152525D02*
D03*
X1433363Y1232525D02*
D03*
X1473363Y1136525D02*
D03*
Y1120525D02*
D03*
X1457363Y1112525D02*
D03*
X1353363Y1160525D02*
D03*
Y1168525D02*
D03*
X1401363Y1232525D02*
D03*
X1393363D02*
D03*
X1449363Y1224525D02*
D03*
X1393363Y1120525D02*
D03*
X1457363Y1216525D02*
D03*
X1473363Y1168525D02*
D03*
X1401363Y1128525D02*
D03*
X1345363Y1184525D02*
D03*
X1385363Y1120525D02*
D03*
X1353363Y1224525D02*
D03*
X1425363D02*
D03*
X1417363Y1232525D02*
D03*
X1465363Y1216525D02*
D03*
X1473363Y1152525D02*
D03*
X1457363Y1128525D02*
D03*
X1417363Y1120525D02*
D03*
Y1112525D02*
D03*
X1345363Y1160525D02*
D03*
X1361363Y1232525D02*
D03*
X1393363Y1224525D02*
D03*
X1425363Y1248525D02*
D03*
X1465363Y1224525D02*
D03*
Y1176525D02*
D03*
X1401363Y1120525D02*
D03*
X1417363Y1224525D02*
D03*
X1337363Y1152525D02*
D03*
Y1168525D02*
D03*
X1385363Y1112525D02*
D03*
X1401363Y1224525D02*
D03*
X1449363Y1248525D02*
D03*
X1465363Y1208525D02*
D03*
X1473363Y1160525D02*
D03*
X1393363Y1112525D02*
D03*
X1417363Y1128525D02*
D03*
X1361363Y1224525D02*
D03*
X1417363Y1248525D02*
D03*
X1425363Y1240525D02*
D03*
X1465363Y1112525D02*
D03*
X1449363Y1136525D02*
D03*
X1465363Y1128525D02*
D03*
X1353363Y1152525D02*
D03*
X1337363Y1160525D02*
D03*
X1385363Y1248525D02*
D03*
X1393363Y1240525D02*
D03*
X1457363Y1208525D02*
D03*
Y1224525D02*
D03*
X1401363Y1112525D02*
D03*
X1393363Y1104525D02*
D03*
X1385363Y1128525D02*
D03*
X1401363Y1240525D02*
D03*
X1417363D02*
D03*
X1465363Y1160525D02*
D03*
X1473363Y1128525D02*
D03*
X1393363D02*
D03*
X1345363Y1152525D02*
D03*
X1401363Y1104525D02*
D03*
X1353363Y1232525D02*
D03*
X1385363Y1240525D02*
D03*
X1425363Y1232525D02*
D03*
X1433363Y1224525D02*
D03*
X1465363Y1104525D02*
D03*
X1441363Y1128525D02*
D03*
X1465363Y1120525D02*
D03*
X1449363Y1184525D02*
D03*
Y1176525D02*
D03*
X1473363Y1216525D02*
D03*
X1441363Y1248525D02*
D03*
X1329363Y1192525D02*
D03*
X1409363Y1240525D02*
D03*
X1457363D02*
D03*
X1409363Y1248525D02*
D03*
X1457363Y1104525D02*
D03*
Y1136525D02*
D03*
X1361363Y1240525D02*
D03*
X1369363Y1232525D02*
D03*
X1345363Y1192525D02*
D03*
X1353363Y1248525D02*
D03*
X1345363Y1240525D02*
D03*
X1329363Y1184525D02*
D03*
X1369363Y1224525D02*
D03*
X1465363Y1232525D02*
D03*
X1353363Y1240525D02*
D03*
X1441363Y1120525D02*
D03*
X1337363Y1184525D02*
D03*
X1465363Y1200525D02*
D03*
X1337363Y1192525D02*
D03*
X1465363Y1240525D02*
D03*
X1345363Y1248525D02*
D03*
X1473363Y1224525D02*
D03*
Y1232525D02*
D03*
X1449363Y1168525D02*
D03*
X1457363Y1144525D02*
D03*
X1449363Y1128525D02*
D03*
X1433363D02*
D03*
X1457363Y1184525D02*
D03*
X1465363Y1144525D02*
D03*
X1449363D02*
D03*
Y1112525D02*
D03*
X1457363Y1160525D02*
D03*
X1449363Y1120525D02*
D03*
X1473363Y1240525D02*
D03*
X1329363Y1232525D02*
D03*
X1337363Y1200525D02*
D03*
X1377363Y1224525D02*
D03*
X1385363D02*
D03*
X1345363D02*
D03*
X1337363Y1232525D02*
D03*
X1345363Y1200525D02*
D03*
X1369363Y1248525D02*
D03*
X1377363D02*
D03*
Y1232525D02*
D03*
X1329363Y1224525D02*
D03*
X1337363Y1240525D02*
D03*
X1377363D02*
D03*
X1369363D02*
D03*
X1385363Y1232525D02*
D03*
X1337363Y1224525D02*
D03*
X1433363Y1120525D02*
D03*
X1329363Y1208525D02*
D03*
X1425363Y1120525D02*
D03*
X1329363Y1200525D02*
D03*
X1345363Y1232525D02*
D03*
X1425363Y1128525D02*
D03*
X1337363Y1248525D02*
D03*
X1473363Y1200525D02*
D03*
X1409363Y1120525D02*
D03*
X1369363Y1144525D02*
D03*
Y1136525D02*
D03*
X1409363Y1112525D02*
D03*
X1337363Y1216525D02*
D03*
X1345363Y1208525D02*
D03*
X1329363Y1176525D02*
D03*
X1409363Y1128525D02*
D03*
X1353363Y1104525D02*
D03*
Y1112525D02*
D03*
X1377363Y1120525D02*
D03*
X1337363Y1112525D02*
D03*
X1345363Y1104525D02*
D03*
X1353363Y1144525D02*
D03*
X1377363Y1128525D02*
D03*
X1353363Y1136525D02*
D03*
X1337363Y1208525D02*
D03*
X1345363Y1216525D02*
D03*
X1353363D02*
D03*
Y1184525D02*
D03*
X1329363Y1216525D02*
D03*
X1353363Y1176525D02*
D03*
X1369363Y1128525D02*
D03*
X1329363Y1120525D02*
D03*
X1441363Y1104525D02*
D03*
X1457363Y1248525D02*
D03*
X1361363Y1112525D02*
D03*
X1329363Y1136525D02*
D03*
X1449363Y1240525D02*
D03*
X1457363Y1176525D02*
D03*
Y1168525D02*
D03*
X1449363Y1232525D02*
D03*
X1457363Y1120525D02*
D03*
X1369363D02*
D03*
X1361363Y1128525D02*
D03*
X1345363Y1136525D02*
D03*
Y1144525D02*
D03*
X1337363Y1120525D02*
D03*
Y1128525D02*
D03*
X1353363D02*
D03*
Y1120525D02*
D03*
X1361363Y1104525D02*
D03*
X1329363Y1112525D02*
D03*
X1353363Y1192525D02*
D03*
X1465363Y1184525D02*
D03*
X1473363D02*
D03*
X1425363Y1112525D02*
D03*
X1417363Y1104525D02*
D03*
X1361363Y1248525D02*
D03*
X1449363Y1160525D02*
D03*
X1345363Y1128525D02*
D03*
Y1120525D02*
D03*
Y1112525D02*
D03*
X1337363Y1104525D02*
D03*
X1329363Y1128525D02*
D03*
X1337363Y1176525D02*
D03*
X1345363D02*
D03*
X1329363Y1168525D02*
D03*
X1345363D02*
D03*
X1361363Y1120525D02*
D03*
D56*
X1577370Y1419058D02*
D03*
X1567870D02*
D03*
X1539524Y1419312D02*
D03*
Y1391812D02*
D03*
X1530024Y1419312D02*
D03*
X1567870Y1391558D02*
D03*
X1530024Y1391812D02*
D03*
X1577370Y1391558D02*
D03*
X1520524Y1391812D02*
D03*
X1558370Y1391558D02*
D03*
Y1419058D02*
D03*
X1520524Y1419312D02*
D03*
D57*
X1569730Y1447266D02*
D03*
X1569298Y1433502D02*
D03*
X1535770Y1380162D02*
D03*
X1491394Y1394994D02*
D03*
X1487582Y1342898D02*
D03*
X1027272Y1406652D02*
D03*
X1071470Y1406424D02*
D03*
X1178052Y892302D02*
D03*
X1063431Y918577D02*
D03*
X1134648Y863714D02*
D03*
X1063686Y861173D02*
D03*
X1557730Y1447266D02*
D03*
X1506989Y1204147D02*
D03*
X1372888Y1362510D02*
D03*
Y1375464D02*
D03*
X1190052Y892302D02*
D03*
X1174400Y700620D02*
D03*
X1162400D02*
D03*
X1523770Y1380162D02*
D03*
X1479394Y1394994D02*
D03*
X1506888Y1192810D02*
D03*
X1475582Y1342898D02*
D03*
X1384888Y1375464D02*
D03*
Y1362510D02*
D03*
X1494886Y1180592D02*
D03*
X1506886D02*
D03*
X1083470Y1406424D02*
D03*
X1039272Y1406652D02*
D03*
X1494989Y1204147D02*
D03*
X1051685Y861173D02*
D03*
X1122647Y863714D02*
D03*
X1051432Y918577D02*
D03*
X1357982Y1088162D02*
D03*
X1494888Y1192810D02*
D03*
X1310038Y1133120D02*
D03*
X1557298Y1433502D02*
D03*
X1298038Y1133120D02*
D03*
X1369982Y1088162D02*
D03*
D58*
X1536882Y1367620D02*
D03*
X1142268Y886066D02*
D03*
X1218946Y713128D02*
D03*
X1187450Y712970D02*
D03*
X1218946Y701128D02*
D03*
X1536882Y1355620D02*
D03*
X1520626Y1445816D02*
D03*
X1521896Y1355112D02*
D03*
X1489966Y1101627D02*
D03*
X1228090Y805022D02*
D03*
X1208532Y804768D02*
D03*
X1187450Y700970D02*
D03*
X1228090Y817022D02*
D03*
X1208532Y816768D02*
D03*
X1445516Y1072256D02*
D03*
X1521896Y1367112D02*
D03*
X1489966Y1113627D02*
D03*
X1142268Y898065D02*
D03*
X1306070Y1109148D02*
D03*
X1445516Y1084256D02*
D03*
X1520626Y1433816D02*
D03*
X1306070Y1097148D02*
D03*
D59*
X1715934Y750150D02*
D03*
X1733835D02*
D03*
D60*
X1317500Y1277302D02*
D03*
X1326390D02*
D03*
X1307874Y1277194D02*
D03*
X1398940Y1088982D02*
D03*
X1390050Y1089072D02*
D03*
X1381160Y1089162D02*
D03*
X1398940Y1081182D02*
D03*
X1390050Y1081272D02*
D03*
X1326390Y1285102D02*
D03*
X1317500D02*
D03*
X1307874Y1284994D02*
D03*
X1381160Y1081362D02*
D03*
X1093181Y760513D02*
D03*
X1132551Y732991D02*
D03*
X1093181Y768313D02*
D03*
X1132551Y740791D02*
D03*
D61*
X1095197Y889648D02*
D03*
X1122697D02*
D03*
Y899148D02*
D03*
X1095197D02*
D03*
Y880148D02*
D03*
X1122697D02*
D03*
D62*
X1248912Y758698D02*
D03*
X1232412D02*
D03*
X1232666Y731266D02*
D03*
X1249166D02*
D03*
D63*
X1120903Y696556D02*
D03*
X1334376Y914120D02*
D03*
X1371728Y887476D02*
D03*
X1232408Y717550D02*
D03*
X1237552Y745236D02*
D03*
X1253552D02*
D03*
X1387728Y887476D02*
D03*
X1282830Y1146582D02*
D03*
X1219748Y1138891D02*
D03*
Y1155679D02*
D03*
X1334138Y1034060D02*
D03*
X1219748Y1105352D02*
D03*
Y1122102D02*
D03*
Y1071551D02*
D03*
Y1088349D02*
D03*
X1220009Y1054995D02*
D03*
Y1038197D02*
D03*
X1219748Y1021476D02*
D03*
X1352282Y947648D02*
D03*
X1353692Y930148D02*
D03*
X1219748Y1004678D02*
D03*
X1219748Y987977D02*
D03*
Y971226D02*
D03*
X1265136Y698754D02*
D03*
X1248408Y717550D02*
D03*
X1174876Y684872D02*
D03*
X1136903Y696556D02*
D03*
X1158876Y684872D02*
D03*
X1281136Y698754D02*
D03*
X1158981Y987778D02*
D03*
X1158721Y1155696D02*
D03*
X1158981Y1021339D02*
D03*
Y1071675D02*
D03*
X1284086Y914374D02*
D03*
X1158981Y1122024D02*
D03*
X1158721Y1138908D02*
D03*
X1159242Y1038362D02*
D03*
X1158981Y1004552D02*
D03*
Y1088462D02*
D03*
X1158981Y970998D02*
D03*
X1158981Y1105243D02*
D03*
X1159242Y1055150D02*
D03*
X1350138Y1034060D02*
D03*
X1337692Y930148D02*
D03*
X1336282Y947648D02*
D03*
X1174721Y1155696D02*
D03*
X1203748Y1155679D02*
D03*
X1174981Y1004552D02*
D03*
X1203748Y1004678D02*
D03*
X1409196Y1047776D02*
D03*
X1203748Y1138891D02*
D03*
X1174721Y1138908D02*
D03*
X1174981Y1122024D02*
D03*
X1203748Y1122102D02*
D03*
Y1071551D02*
D03*
X1174981Y1071675D02*
D03*
X1174981Y970998D02*
D03*
X1203748Y971226D02*
D03*
X1407924Y1027623D02*
D03*
X1175241Y1055150D02*
D03*
X1204009Y1054995D02*
D03*
X1203748Y1105352D02*
D03*
X1174981Y1105243D02*
D03*
X1174981Y987778D02*
D03*
X1203748Y987977D02*
D03*
X1174981Y1088462D02*
D03*
X1203748Y1088349D02*
D03*
X1175241Y1038362D02*
D03*
X1204009Y1038197D02*
D03*
X1174981Y1021339D02*
D03*
X1203748Y1021476D02*
D03*
X1281050Y1029147D02*
D03*
X1425196Y1047776D02*
D03*
X1423924Y1027623D02*
D03*
X1298830Y1146582D02*
D03*
X1297050Y1029147D02*
D03*
X1300086Y914374D02*
D03*
X1318376Y914120D02*
D03*
D64*
X1371248Y906374D02*
D03*
X1377748D02*
D03*
Y950874D02*
D03*
X1390748D02*
D03*
X1384248Y906374D02*
D03*
X1390748D02*
D03*
X1384248Y950874D02*
D03*
X1371248D02*
D03*
D65*
X1210783Y764223D02*
D03*
Y772223D02*
D03*
D66*
X1172511Y726821D02*
D03*
X1162511D02*
D03*
D67*
X1175313Y746379D02*
D03*
X1180485Y788035D02*
D03*
X1158785D02*
D03*
X1153613Y746379D02*
D03*
D68*
X1616678Y1408443D02*
D03*
X1232152Y1409507D02*
D03*
X1616678Y1353443D02*
D03*
X1232152Y1354506D02*
D03*
X1156392Y1439507D02*
D03*
Y1324506D02*
D03*
X1156897Y1302081D02*
D03*
X1616678Y1269251D02*
D03*
X1232657Y1217080D02*
D03*
X1616678Y1214251D02*
D03*
X1616898Y1074883D02*
D03*
Y1129883D02*
D03*
X1232657Y1272080D02*
D03*
X1156897Y1187080D02*
D03*
X1692438Y1393443D02*
D03*
Y1423443D02*
D03*
Y1368443D02*
D03*
Y1338443D02*
D03*
X1616678Y1423443D02*
D03*
Y1393443D02*
D03*
Y1368443D02*
D03*
Y1338443D02*
D03*
X1692438Y1284251D02*
D03*
Y1229251D02*
D03*
Y1254251D02*
D03*
X1616678Y1284251D02*
D03*
Y1254251D02*
D03*
X1692438Y1199251D02*
D03*
X1616678Y1229251D02*
D03*
Y1199251D02*
D03*
X1692658Y1144883D02*
D03*
Y1159883D02*
D03*
Y1089883D02*
D03*
Y1114883D02*
D03*
X1616898D02*
D03*
Y1144883D02*
D03*
Y1089883D02*
D03*
X1692658Y1059883D02*
D03*
Y1044883D02*
D03*
X1616898Y1059883D02*
D03*
X1232152Y1424506D02*
D03*
Y1369507D02*
D03*
X1232657Y1287080D02*
D03*
Y1202081D02*
D03*
Y1257080D02*
D03*
Y1232080D02*
D03*
X1232152Y1394506D02*
D03*
Y1339507D02*
D03*
X1156392Y1394506D02*
D03*
Y1424506D02*
D03*
Y1369507D02*
D03*
Y1339507D02*
D03*
X1156897Y1287080D02*
D03*
Y1257080D02*
D03*
Y1232080D02*
D03*
Y1202081D02*
D03*
X1156392Y1409507D02*
D03*
Y1354506D02*
D03*
X1692658Y1074883D02*
D03*
Y1129883D02*
D03*
X1692438Y1353443D02*
D03*
Y1408443D02*
D03*
X1156897Y1272080D02*
D03*
Y1217080D02*
D03*
X1692438Y1214251D02*
D03*
Y1269251D02*
D03*
Y1363443D02*
D03*
Y1343443D02*
D03*
Y1373443D02*
D03*
Y1358443D02*
D03*
X1616678Y1194251D02*
D03*
Y1219251D02*
D03*
Y1204251D02*
D03*
Y1259251D02*
D03*
X1692438Y1184251D02*
D03*
X1616678D02*
D03*
Y1299251D02*
D03*
Y1234251D02*
D03*
X1692438Y1249251D02*
D03*
Y1244251D02*
D03*
X1616678Y1279251D02*
D03*
Y1249251D02*
D03*
X1692438Y1294251D02*
D03*
Y1234251D02*
D03*
Y1194251D02*
D03*
X1616678Y1224251D02*
D03*
Y1239251D02*
D03*
Y1294251D02*
D03*
X1692438Y1224251D02*
D03*
Y1274251D02*
D03*
Y1264251D02*
D03*
Y1189251D02*
D03*
X1616678Y1274251D02*
D03*
X1692438Y1219251D02*
D03*
Y1259251D02*
D03*
Y1239251D02*
D03*
Y1204251D02*
D03*
X1616678Y1244251D02*
D03*
Y1209251D02*
D03*
Y1189251D02*
D03*
X1692438Y1209251D02*
D03*
Y1279251D02*
D03*
X1616678Y1264251D02*
D03*
Y1289251D02*
D03*
X1692438Y1299251D02*
D03*
Y1289251D02*
D03*
X1156897Y1207080D02*
D03*
X1616898Y1149883D02*
D03*
Y1119883D02*
D03*
Y1104883D02*
D03*
Y1084883D02*
D03*
Y1124883D02*
D03*
Y1064883D02*
D03*
Y1099883D02*
D03*
Y1079883D02*
D03*
Y1054883D02*
D03*
Y1049883D02*
D03*
Y1139883D02*
D03*
Y1109883D02*
D03*
Y1154883D02*
D03*
Y1069883D02*
D03*
Y1134883D02*
D03*
Y1094883D02*
D03*
Y1159883D02*
D03*
Y1044883D02*
D03*
X1692658Y1084883D02*
D03*
Y1104883D02*
D03*
Y1124883D02*
D03*
Y1064883D02*
D03*
Y1049883D02*
D03*
Y1079883D02*
D03*
Y1099883D02*
D03*
Y1119883D02*
D03*
Y1154883D02*
D03*
Y1139883D02*
D03*
Y1069883D02*
D03*
Y1094883D02*
D03*
Y1149883D02*
D03*
Y1109883D02*
D03*
Y1134883D02*
D03*
Y1054883D02*
D03*
X1616678Y1323443D02*
D03*
Y1438443D02*
D03*
X1156897Y1252081D02*
D03*
Y1297080D02*
D03*
Y1247080D02*
D03*
Y1267080D02*
D03*
Y1292080D02*
D03*
Y1262080D02*
D03*
Y1282080D02*
D03*
Y1277081D02*
D03*
X1156392Y1404506D02*
D03*
Y1429507D02*
D03*
Y1344506D02*
D03*
Y1364506D02*
D03*
Y1399507D02*
D03*
Y1379507D02*
D03*
Y1419507D02*
D03*
Y1334506D02*
D03*
Y1359507D02*
D03*
Y1374506D02*
D03*
Y1389507D02*
D03*
Y1414506D02*
D03*
Y1329507D02*
D03*
Y1434506D02*
D03*
Y1349507D02*
D03*
Y1384506D02*
D03*
X1692438Y1348443D02*
D03*
Y1433443D02*
D03*
Y1398443D02*
D03*
Y1328443D02*
D03*
Y1413443D02*
D03*
Y1418443D02*
D03*
Y1428443D02*
D03*
Y1383443D02*
D03*
Y1333443D02*
D03*
Y1403443D02*
D03*
Y1388443D02*
D03*
Y1378443D02*
D03*
X1616678Y1403443D02*
D03*
Y1363443D02*
D03*
Y1343443D02*
D03*
Y1388443D02*
D03*
Y1398443D02*
D03*
Y1418443D02*
D03*
Y1333443D02*
D03*
Y1358443D02*
D03*
Y1383443D02*
D03*
Y1413443D02*
D03*
Y1378443D02*
D03*
Y1433443D02*
D03*
Y1328443D02*
D03*
Y1348443D02*
D03*
Y1373443D02*
D03*
Y1428443D02*
D03*
X1692438Y1323443D02*
D03*
Y1438443D02*
D03*
X1232152Y1439507D02*
D03*
Y1324506D02*
D03*
X1232657Y1187080D02*
D03*
Y1302081D02*
D03*
X1232152Y1349507D02*
D03*
Y1364506D02*
D03*
Y1384506D02*
D03*
Y1344506D02*
D03*
Y1419507D02*
D03*
Y1389507D02*
D03*
Y1374506D02*
D03*
Y1329507D02*
D03*
Y1429507D02*
D03*
Y1379507D02*
D03*
Y1399507D02*
D03*
Y1334506D02*
D03*
Y1359507D02*
D03*
Y1404506D02*
D03*
Y1434506D02*
D03*
Y1414506D02*
D03*
X1156897Y1242080D02*
D03*
Y1212080D02*
D03*
Y1192080D02*
D03*
Y1237080D02*
D03*
Y1227081D02*
D03*
Y1197080D02*
D03*
Y1222080D02*
D03*
X1232657Y1207080D02*
D03*
Y1192080D02*
D03*
Y1267080D02*
D03*
Y1292080D02*
D03*
Y1222080D02*
D03*
Y1197080D02*
D03*
Y1242080D02*
D03*
Y1262080D02*
D03*
Y1282080D02*
D03*
Y1237080D02*
D03*
Y1212080D02*
D03*
Y1252081D02*
D03*
Y1277081D02*
D03*
Y1247080D02*
D03*
Y1227081D02*
D03*
Y1297080D02*
D03*
D69*
X1203706Y713700D02*
D03*
X1292608Y1112418D02*
D03*
X1367284Y1056286D02*
D03*
X1246378Y818514D02*
D03*
X1203706Y697700D02*
D03*
X1246378Y802514D02*
D03*
X1317740Y947520D02*
D03*
Y931520D02*
D03*
X1537644Y1450356D02*
D03*
X1314450Y1045021D02*
D03*
X1537644Y1434356D02*
D03*
X1367284Y1072286D02*
D03*
X1314450Y1029021D02*
D03*
X1292608Y1096418D02*
D03*
D70*
X1186790Y664552D02*
D03*
X1167790D02*
D03*
D71*
X1576165Y1358098D02*
D03*
D72*
X1559666Y1341098D02*
D03*
Y1375099D02*
D03*
D73*
X1339857Y991908D02*
D03*
X1394357D02*
D03*
X1339857Y998258D02*
D03*
Y1010958D02*
D03*
Y972858D02*
D03*
Y979208D02*
D03*
X1394357Y985558D02*
D03*
Y972858D02*
D03*
Y1010958D02*
D03*
Y1004608D02*
D03*
X1339857Y985558D02*
D03*
Y1004608D02*
D03*
X1394357Y998258D02*
D03*
Y979208D02*
D03*
X1339857Y1017308D02*
D03*
X1394357D02*
D03*
D74*
X1301242Y857234D02*
D03*
X1265936Y818784D02*
D03*
Y804784D02*
D03*
X1301242Y871234D02*
D03*
D75*
X1196340Y822888D02*
D03*
Y813888D02*
D03*
D76*
X1138483Y813689D02*
D03*
X1130683D02*
D03*
D77*
X1138423Y769493D02*
D03*
X1110423Y759493D02*
D03*
Y779493D02*
D03*
Y774493D02*
D03*
Y764493D02*
D03*
X1138423Y779493D02*
D03*
Y759493D02*
D03*
Y764493D02*
D03*
Y774493D02*
D03*
X1110423Y769493D02*
D03*
D78*
X1124423D02*
D03*
D79*
X1116429Y797433D02*
D03*
X1101429D02*
D03*
X1118207Y738505D02*
D03*
X1103207D02*
D03*
D80*
X1072099Y751857D02*
D03*
Y769757D02*
D03*
D81*
X1290320Y830838D02*
D03*
Y847338D02*
D03*
D82*
X1013425Y770509D02*
D03*
D83*
X1036793D02*
D03*
D84*
X1085307Y796417D02*
D03*
X1076307D02*
D03*
X1116223Y813181D02*
D03*
X1107223D02*
D03*
D85*
X1478710Y1374956D02*
D03*
Y1362256D02*
D03*
X1402511D02*
D03*
Y1374956D02*
D03*
D86*
X1402590Y1277258D02*
D03*
X1422402Y1292004D02*
D03*
X1402590Y1292258D02*
D03*
X1422402Y1277004D02*
D03*
D87*
X1046885Y900824D02*
D03*
X1067885D02*
D03*
X1046971Y878726D02*
D03*
X1067971D02*
D03*
D88*
X1453615Y1009293D02*
D03*
Y972293D02*
D03*
X1281202Y1009801D02*
D03*
Y972801D02*
D03*
X1418616Y972293D02*
D03*
Y1009293D02*
D03*
X1436116D02*
D03*
Y972293D02*
D03*
X1316202Y1009801D02*
D03*
Y972801D02*
D03*
X1298702D02*
D03*
Y1009801D02*
D03*
D89*
X1030224Y657860D02*
D03*
Y1563116D02*
D03*
X1830070D02*
D03*
Y657860D02*
D03*
D90*
X1105916Y674077D02*
D03*
X1020064Y717804D02*
D03*
X1411224Y834390D02*
D03*
X1771142Y1507744D02*
D03*
X1836928Y743204D02*
D03*
X1597660Y1296416D02*
D03*
X1815592Y1461262D02*
D03*
X1490726Y1470152D02*
D03*
X1406906Y1484376D02*
D03*
X1569212Y1140968D02*
D03*
X1593412Y1443736D02*
D03*
X1136650Y1248918D02*
D03*
X1135888Y1284478D02*
D03*
X1118616Y1275334D02*
D03*
X1136396Y1266190D02*
D03*
X1135888Y1302004D02*
D03*
X1118362Y1293114D02*
D03*
X1118870Y1240028D02*
D03*
X1118616Y1257554D02*
D03*
X1135634Y1319276D02*
D03*
X1135126Y1408176D02*
D03*
Y1390650D02*
D03*
X1117854Y1399286D02*
D03*
Y1434592D02*
D03*
Y1417066D02*
D03*
X1135126Y1425702D02*
D03*
Y1443482D02*
D03*
X1117600Y1381506D02*
D03*
X1117854Y1346454D02*
D03*
X1135126Y1355598D02*
D03*
Y1373124D02*
D03*
X1117854Y1328674D02*
D03*
X1118362Y1310640D02*
D03*
X1117854Y1363980D02*
D03*
X1135380Y1338072D02*
D03*
X1251712Y1181100D02*
D03*
X1253490Y1446530D02*
D03*
X1545082Y1268730D02*
D03*
X1513078Y1472692D02*
D03*
D91*
X1767941Y895765D02*
D03*
X1713230Y820166D02*
D03*
X1789430Y794766D02*
D03*
X1713230D02*
D03*
X1738630Y820166D02*
D03*
X1764030Y794766D02*
D03*
Y820166D02*
D03*
X1738630Y794766D02*
D03*
X1687830Y820166D02*
D03*
X1789430D02*
D03*
X1767941Y921165D02*
D03*
X1691741D02*
D03*
X1717141Y895765D02*
D03*
Y921165D02*
D03*
X1742541Y895765D02*
D03*
Y921165D02*
D03*
X1793341Y895765D02*
D03*
X1691741D02*
D03*
D92*
X1566037Y914400D02*
D03*
X1591437Y863600D02*
D03*
Y939800D02*
D03*
Y889000D02*
D03*
Y838200D02*
D03*
X1566037Y812800D02*
D03*
Y939800D02*
D03*
Y889000D02*
D03*
X1591437Y812800D02*
D03*
Y965200D02*
D03*
X1566037Y838200D02*
D03*
Y863600D02*
D03*
X1591437Y914400D02*
D03*
D93*
X1687830Y794766D02*
D03*
X1793341Y921165D02*
D03*
D94*
X1118673Y769493D02*
D03*
X1130173D02*
D03*
X1124423Y778993D02*
D03*
Y759993D02*
D03*
D95*
X1566037Y965200D02*
D03*
D96*
X1201400Y1537716D02*
D03*
X1793906Y1431286D02*
D03*
X1061741Y988715D02*
D03*
D97*
X1643400Y1537716D02*
D03*
X1793906Y989286D02*
D03*
X1061741Y1430715D02*
D03*
M02*
