G04*
G04 #@! TF.GenerationSoftware,Altium Limited,Altium Designer,26.5.0 (11)*
G04*
G04 Layer_Physical_Order=4*
G04 Layer_Color=6736896*
G04 Board_Origin=0|0*
%FSLAX44Y44*%
%MOMM*%
G71*
G04*
G04 #@! TF.SameCoordinates,F31A6C54-E8F1-4797-920C-164DB3DC2255*
G04*
G04*
G04 #@! TF.FilePolarity,Positive*
G04*
G01*
G75*
%ADD99C,0.1588*%
%ADD102C,0.1016*%
%ADD103C,1.5080*%
%ADD104C,1.2700*%
%ADD105C,1.7250*%
%ADD106C,5.0800*%
%ADD107R,1.7250X1.7250*%
%ADD110C,0.8300*%
%ADD111C,1.2300*%
%ADD112C,0.4572*%
%ADD113C,1.5240*%
%ADD117C,0.1205*%
%ADD118C,0.1154*%
G36*
X1213866Y1441958D02*
X1214628Y1440688D01*
Y1423825D01*
X1213612Y1423460D01*
X1212491Y1423924D01*
X1211177D01*
X1209964Y1423421D01*
X1209035Y1422492D01*
X1208532Y1421279D01*
Y1419965D01*
X1209035Y1418752D01*
X1209964Y1417823D01*
X1211177Y1417320D01*
X1212491D01*
X1213612Y1417784D01*
X1214628Y1417419D01*
Y1415882D01*
X1213612Y1415203D01*
X1213104Y1415414D01*
Y1410716D01*
Y1406018D01*
X1213612Y1406229D01*
X1214628Y1405550D01*
Y1359389D01*
X1213612Y1358710D01*
X1212850Y1359026D01*
Y1354328D01*
Y1349630D01*
X1213612Y1349946D01*
X1214628Y1349267D01*
Y1343335D01*
X1213783Y1342770D01*
X1213529Y1342876D01*
X1212215D01*
X1211002Y1342373D01*
X1210073Y1341444D01*
X1209570Y1340231D01*
Y1338917D01*
X1210073Y1337703D01*
X1211002Y1336774D01*
X1212215Y1336272D01*
X1213529D01*
X1213783Y1336377D01*
X1214628Y1335812D01*
Y1321582D01*
X1213783Y1321018D01*
X1213334Y1321204D01*
Y1316507D01*
X1212064D01*
Y1315237D01*
X1207366D01*
X1207972Y1313773D01*
X1209327Y1312418D01*
X1207997Y1311088D01*
X1207390Y1309624D01*
X1212088D01*
Y1308354D01*
X1213358D01*
Y1303656D01*
X1213783Y1303833D01*
X1214628Y1303268D01*
Y1289869D01*
X1213612Y1289449D01*
X1213220Y1289841D01*
X1212006Y1290343D01*
X1210693D01*
X1209479Y1289841D01*
X1208550Y1288912D01*
X1208047Y1287698D01*
Y1286385D01*
X1208550Y1285171D01*
X1209479Y1284242D01*
X1210693Y1283739D01*
X1212006D01*
X1213220Y1284242D01*
X1213612Y1284634D01*
X1214628Y1284213D01*
Y1279633D01*
X1213612Y1278954D01*
X1212850Y1279270D01*
Y1274572D01*
X1211580D01*
Y1273302D01*
X1206882D01*
X1207489Y1271838D01*
X1208846Y1270481D01*
X1208965Y1270432D01*
X1208532Y1269387D01*
Y1268073D01*
X1209035Y1266860D01*
X1209964Y1265931D01*
X1211177Y1265428D01*
X1212491D01*
X1213612Y1265892D01*
X1214628Y1265527D01*
Y1235757D01*
X1213783Y1235193D01*
X1213761Y1235202D01*
X1212447D01*
X1211234Y1234699D01*
X1210305Y1233771D01*
X1209118Y1233561D01*
X1208532Y1233804D01*
Y1229106D01*
Y1224408D01*
X1209996Y1225015D01*
X1211353Y1226372D01*
X1212088Y1228146D01*
Y1228358D01*
X1212447Y1228598D01*
X1213761D01*
X1213783Y1228607D01*
X1214628Y1228043D01*
Y1194308D01*
X1185926Y1165606D01*
Y1042919D01*
X1185762Y1042523D01*
Y1041209D01*
X1185926Y1040814D01*
Y1036823D01*
X1185762Y1036427D01*
Y1035113D01*
X1185926Y1034717D01*
Y1016762D01*
X1190577Y1012111D01*
X1190113Y1011138D01*
X1189159D01*
X1187946Y1010635D01*
X1187017Y1009706D01*
X1186514Y1008493D01*
Y1007179D01*
X1187017Y1005965D01*
X1187531Y1005452D01*
X1187832Y1004788D01*
X1187531Y1004124D01*
X1187017Y1003610D01*
X1186514Y1002397D01*
Y1001083D01*
X1187017Y999869D01*
X1187946Y998941D01*
X1189159Y998438D01*
X1190473D01*
X1191686Y998941D01*
X1192615Y999869D01*
X1193118Y1001083D01*
Y1002397D01*
X1192615Y1003610D01*
X1192102Y1004124D01*
X1191800Y1004788D01*
X1192102Y1005452D01*
X1192615Y1005965D01*
X1193118Y1007179D01*
Y1008133D01*
X1194091Y1008597D01*
X1202182Y1000506D01*
X1279652D01*
X1389126Y891032D01*
Y831342D01*
X1483106Y737362D01*
X1613154D01*
X1635252Y759460D01*
X1635252Y1016663D01*
X1619504Y1032411D01*
X1619504Y1367536D01*
X1635252Y1383284D01*
X1635252Y1396238D01*
X1628671Y1402819D01*
X1628659Y1402971D01*
X1628969Y1403958D01*
X1630368Y1404538D01*
X1631725Y1405895D01*
X1632332Y1407359D01*
X1627634D01*
Y1408629D01*
X1626364D01*
Y1413327D01*
X1624900Y1412720D01*
X1623543Y1411363D01*
X1623060Y1410197D01*
X1622044Y1410399D01*
Y1416304D01*
X1624450Y1418710D01*
X1624958Y1418713D01*
X1625649Y1418472D01*
X1625849Y1417990D01*
X1626778Y1417061D01*
X1627991Y1416558D01*
X1629305D01*
X1630518Y1417061D01*
X1631447Y1417990D01*
X1631950Y1419203D01*
Y1420380D01*
X1637780Y1420380D01*
X1656080Y1402080D01*
Y1152750D01*
X1655619Y1152288D01*
X1655116Y1151075D01*
Y1149761D01*
X1655619Y1148548D01*
X1656080Y1148086D01*
Y1058164D01*
X1678686Y1035558D01*
Y823290D01*
X1678189Y821435D01*
Y818897D01*
X1678686Y817042D01*
Y804407D01*
X1678189D01*
Y785125D01*
X1678686D01*
Y743204D01*
X1631188Y695706D01*
X1461262Y695706D01*
X1350365Y806603D01*
X1350365Y848096D01*
X1306068Y892392D01*
X1257136Y941324D01*
X1175512D01*
X1139952Y976884D01*
Y1171956D01*
X1188720Y1220724D01*
Y1444253D01*
X1194553Y1450086D01*
X1205738D01*
X1213866Y1441958D01*
D02*
G37*
G36*
X1571429Y1410893D02*
X1571114Y1409772D01*
X1569780Y1409219D01*
X1568423Y1407862D01*
X1567688Y1406088D01*
Y1404366D01*
X1566523D01*
X1565310Y1403863D01*
X1564381Y1402934D01*
X1564110Y1402281D01*
X1563598Y1402254D01*
X1563052Y1402383D01*
X1562652Y1403350D01*
X1562816Y1403808D01*
X1563127Y1404366D01*
X1563519D01*
X1564732Y1404869D01*
X1565661Y1405798D01*
X1566164Y1407011D01*
Y1408325D01*
X1565661Y1409538D01*
X1564732Y1410467D01*
X1563519Y1410970D01*
X1562205D01*
X1560992Y1410467D01*
X1560063Y1409538D01*
X1559560Y1408325D01*
Y1407011D01*
X1560024Y1405890D01*
X1559860Y1405432D01*
X1559549Y1404874D01*
X1559157D01*
X1557944Y1404371D01*
X1557015Y1403442D01*
X1556512Y1402229D01*
Y1400915D01*
X1557015Y1399702D01*
X1557944Y1398773D01*
X1559157Y1398270D01*
X1560471D01*
X1561684Y1398773D01*
X1562613Y1399702D01*
X1562884Y1400355D01*
X1563396Y1400382D01*
X1563942Y1400253D01*
X1564381Y1399194D01*
X1565310Y1398265D01*
X1566523Y1397762D01*
X1567837D01*
X1569050Y1398265D01*
X1569979Y1399194D01*
X1570213Y1399758D01*
X1571244Y1400269D01*
Y1405128D01*
X1573784D01*
Y1400430D01*
X1575248Y1401037D01*
X1575385Y1401174D01*
X1576324Y1400786D01*
Y1349756D01*
X1575159D01*
X1573946Y1349253D01*
X1573017Y1348324D01*
X1572514Y1347111D01*
Y1345797D01*
X1573017Y1344584D01*
X1573946Y1343655D01*
X1575159Y1343152D01*
X1576324D01*
Y1210945D01*
X1581560Y1205709D01*
X1577069Y1201219D01*
X1576473Y1201466D01*
X1575159D01*
X1573946Y1200963D01*
X1573017Y1200034D01*
X1572514Y1198820D01*
Y1197507D01*
X1573017Y1196293D01*
X1573946Y1195364D01*
X1575159Y1194862D01*
X1576473D01*
X1577686Y1195364D01*
X1578615Y1196293D01*
X1579118Y1197507D01*
Y1198048D01*
X1584169Y1203100D01*
X1593342Y1193927D01*
Y1085342D01*
X1593342Y1036828D01*
X1626616Y1003554D01*
X1626616Y760222D01*
X1608074Y741680D01*
X1549146D01*
X1536867Y753959D01*
Y860739D01*
X1557946D01*
X1558064Y860297D01*
X1559191Y858346D01*
X1560784Y856753D01*
X1562735Y855627D01*
X1564911Y855044D01*
X1567163D01*
X1569339Y855627D01*
X1571290Y856753D01*
X1572883Y858346D01*
X1574010Y860297D01*
X1574593Y862474D01*
Y864726D01*
X1574010Y866902D01*
X1572883Y868854D01*
X1571290Y870446D01*
X1569339Y871573D01*
X1567163Y872156D01*
X1564911D01*
X1562735Y871573D01*
X1560784Y870446D01*
X1559191Y868854D01*
X1558064Y866902D01*
X1557481Y864726D01*
Y864429D01*
X1536867D01*
Y1004337D01*
X1547254Y1014724D01*
X1547838Y1129671D01*
X1548730Y1130041D01*
X1549659Y1130970D01*
X1550162Y1132183D01*
Y1133497D01*
X1549659Y1134710D01*
X1548730Y1135639D01*
X1548451Y1135755D01*
Y1147350D01*
X1549467Y1147903D01*
X1550267Y1147572D01*
X1551581D01*
X1552794Y1148075D01*
X1553723Y1149004D01*
X1554226Y1150217D01*
Y1151531D01*
X1553723Y1152744D01*
X1552794Y1153673D01*
X1551581Y1154176D01*
X1550267D01*
X1549467Y1153845D01*
X1548451Y1154398D01*
Y1162050D01*
X1548311Y1162756D01*
X1548009Y1163208D01*
X1548059Y1173043D01*
X1507793Y1213309D01*
X1508511Y1214028D01*
X1509014Y1215241D01*
Y1216555D01*
X1508511Y1217768D01*
X1507582Y1218697D01*
X1506369Y1219200D01*
X1505055D01*
X1503842Y1218697D01*
X1503123Y1217979D01*
X1500124Y1220978D01*
Y1327902D01*
X1511634Y1339412D01*
X1511659Y1339401D01*
X1512973D01*
X1514186Y1339904D01*
X1515115Y1340833D01*
X1515618Y1342046D01*
Y1343360D01*
X1515115Y1344574D01*
X1514186Y1345502D01*
X1512973Y1346005D01*
X1511659D01*
X1510446Y1345502D01*
X1509517Y1344574D01*
X1509014Y1343360D01*
Y1342046D01*
X1509024Y1342021D01*
X1506464Y1339460D01*
X1505739Y1340164D01*
X1506346Y1341628D01*
X1501648D01*
Y1342898D01*
X1500378D01*
Y1347596D01*
X1498914Y1346989D01*
X1497557Y1345632D01*
X1497110Y1344554D01*
X1495912Y1344316D01*
X1491996Y1348232D01*
X1491996Y1439926D01*
X1502664Y1450594D01*
X1531728D01*
X1571429Y1410893D01*
D02*
G37*
G36*
X1417068Y1222528D02*
Y1208384D01*
X1447214D01*
X1449834Y1205764D01*
X1449834Y1188468D01*
X1446048Y1184682D01*
X1433324D01*
Y1130834D01*
X1430530Y1128040D01*
X1428822D01*
X1428540Y1127759D01*
X1427493Y1127325D01*
X1426564Y1126396D01*
X1426212Y1125547D01*
X1425563Y1125209D01*
X1424480Y1125628D01*
X1424162Y1126396D01*
X1423233Y1127325D01*
X1422020Y1127827D01*
X1420706D01*
X1419492Y1127325D01*
X1418564Y1126396D01*
X1418061Y1125182D01*
Y1123868D01*
X1418564Y1122655D01*
X1419492Y1121726D01*
X1420260Y1121408D01*
X1420679Y1120325D01*
X1420341Y1119676D01*
X1419492Y1119325D01*
X1418564Y1118396D01*
X1418061Y1117182D01*
Y1115869D01*
X1418564Y1114655D01*
X1419363Y1113856D01*
Y1111195D01*
X1418564Y1110396D01*
X1418061Y1109182D01*
Y1107868D01*
X1418564Y1106655D01*
X1419363Y1105856D01*
X1419363Y1077026D01*
X1418169Y1076532D01*
X1417240Y1075603D01*
X1416738Y1074389D01*
Y1073076D01*
X1417240Y1071862D01*
X1418169Y1070933D01*
X1419363Y1070439D01*
X1419363Y926994D01*
X1434767Y911849D01*
Y834311D01*
X1424353Y823897D01*
X1405207Y823897D01*
X1397508Y831596D01*
X1397508Y883964D01*
X1398524Y884330D01*
X1399194Y883661D01*
X1400407Y883158D01*
X1401721D01*
X1402934Y883661D01*
X1403863Y884590D01*
X1404366Y885803D01*
Y887117D01*
X1403863Y888330D01*
X1402934Y889259D01*
X1401721Y889762D01*
X1400407D01*
X1399194Y889259D01*
X1398524Y888590D01*
X1397508Y888956D01*
X1397508Y1097223D01*
X1398020D01*
X1399233Y1097726D01*
X1400162Y1098655D01*
X1400665Y1099868D01*
Y1101182D01*
X1400162Y1102396D01*
X1399233Y1103325D01*
X1398020Y1103827D01*
X1397508D01*
Y1105223D01*
X1398020D01*
X1399233Y1105726D01*
X1400162Y1106655D01*
X1400665Y1107868D01*
Y1109182D01*
X1400162Y1110396D01*
X1399233Y1111325D01*
X1398020Y1111827D01*
X1397508D01*
Y1113223D01*
X1398020D01*
X1399233Y1113726D01*
X1400162Y1114655D01*
X1400665Y1115869D01*
Y1117182D01*
X1400162Y1118396D01*
X1399233Y1119325D01*
X1398020Y1119827D01*
X1397508D01*
Y1121223D01*
X1398020D01*
X1399233Y1121726D01*
X1400162Y1122655D01*
X1400665Y1123868D01*
Y1125182D01*
X1400162Y1126396D01*
X1399233Y1127325D01*
X1398020Y1127827D01*
X1396707D01*
X1393446Y1131088D01*
Y1144606D01*
X1390039Y1148013D01*
X1379275D01*
X1373182Y1154106D01*
Y1166338D01*
X1370807Y1168713D01*
X1355821D01*
X1352806Y1171728D01*
Y1181634D01*
X1355346Y1184174D01*
X1370320D01*
X1373182Y1187036D01*
Y1200994D01*
X1376174Y1203986D01*
X1382270D01*
X1385419Y1207135D01*
Y1222375D01*
X1388112Y1225068D01*
X1414528D01*
X1417068Y1222528D01*
D02*
G37*
G36*
X1386704Y1142536D02*
X1386564Y1142396D01*
X1386061Y1141182D01*
Y1139868D01*
X1386564Y1138655D01*
X1387493Y1137726D01*
X1387858Y1137575D01*
Y1135476D01*
X1387493Y1135325D01*
X1386564Y1134396D01*
X1386061Y1133182D01*
Y1131869D01*
X1386564Y1130655D01*
X1387493Y1129726D01*
X1387858Y1129575D01*
Y1127476D01*
X1387493Y1127325D01*
X1386564Y1126396D01*
X1386061Y1125182D01*
Y1123868D01*
X1386564Y1122655D01*
X1387493Y1121726D01*
X1387858Y1121575D01*
Y1119476D01*
X1387493Y1119325D01*
X1386564Y1118396D01*
X1386061Y1117182D01*
Y1115869D01*
X1386564Y1114655D01*
X1387493Y1113726D01*
X1387858Y1113575D01*
Y1111476D01*
X1387493Y1111325D01*
X1386564Y1110396D01*
X1386061Y1109182D01*
Y1107868D01*
X1386564Y1106655D01*
X1387493Y1105726D01*
X1387858Y1105575D01*
Y1103476D01*
X1387493Y1103325D01*
X1386564Y1102396D01*
X1386061Y1101182D01*
Y1099868D01*
X1386564Y1098655D01*
X1387493Y1097726D01*
X1387858Y1097575D01*
Y1073658D01*
X1387707D01*
X1386494Y1073155D01*
X1385565Y1072226D01*
X1385062Y1071013D01*
Y1069699D01*
X1385565Y1068486D01*
X1386494Y1067557D01*
X1387707Y1067054D01*
X1387858D01*
Y1010078D01*
X1387791Y1010011D01*
Y1008085D01*
X1378180Y998474D01*
X1347981Y998474D01*
X1336548Y1009907D01*
X1336548Y1034288D01*
X1365506Y1063246D01*
Y1097223D01*
X1366020D01*
X1367233Y1097726D01*
X1368162Y1098655D01*
X1368665Y1099868D01*
Y1101182D01*
X1368162Y1102396D01*
X1367233Y1103325D01*
X1366020Y1103827D01*
X1365506D01*
Y1105223D01*
X1366020D01*
X1367233Y1105726D01*
X1368162Y1106655D01*
X1368665Y1107868D01*
Y1109182D01*
X1368162Y1110396D01*
X1367233Y1111325D01*
X1366020Y1111827D01*
X1365506D01*
Y1113223D01*
X1366020D01*
X1367233Y1113726D01*
X1368162Y1114655D01*
X1368665Y1115869D01*
Y1117182D01*
X1368162Y1118396D01*
X1367233Y1119325D01*
X1366020Y1119827D01*
X1365506D01*
Y1121223D01*
X1366020D01*
X1367233Y1121726D01*
X1368162Y1122655D01*
X1368665Y1123868D01*
Y1125182D01*
X1368162Y1126396D01*
X1367233Y1127325D01*
X1366020Y1127827D01*
X1364706D01*
X1363493Y1127325D01*
X1362564Y1126396D01*
X1362552Y1126394D01*
X1360680Y1128266D01*
X1360680Y1141756D01*
X1363982Y1145058D01*
X1384182D01*
X1386704Y1142536D01*
D02*
G37*
G36*
X1704012Y1414600D02*
X1703832Y1414167D01*
Y1413002D01*
X1702872D01*
X1701098Y1412267D01*
X1699741Y1410910D01*
X1699134Y1409446D01*
X1703832D01*
Y1408176D01*
X1705102D01*
Y1403478D01*
X1706566Y1404085D01*
X1707923Y1405442D01*
X1708404Y1406603D01*
X1709420Y1406401D01*
Y1402743D01*
X1708404Y1402080D01*
X1707791Y1402334D01*
X1706477D01*
X1705264Y1401831D01*
X1704335Y1400902D01*
X1703832Y1399689D01*
Y1398375D01*
X1704109Y1397707D01*
X1703478Y1396691D01*
X1703431D01*
X1702218Y1396188D01*
X1701289Y1395259D01*
X1700786Y1394046D01*
Y1392732D01*
X1701289Y1391519D01*
X1702218Y1390590D01*
X1703431Y1390087D01*
X1704745D01*
X1705959Y1390590D01*
X1706887Y1391519D01*
X1707390Y1392732D01*
Y1394046D01*
X1707156Y1394610D01*
X1707645Y1395509D01*
X1708584Y1395756D01*
X1709420Y1395152D01*
Y1377851D01*
X1708404Y1377188D01*
X1707791Y1377442D01*
X1706477D01*
X1705264Y1376939D01*
X1704335Y1376010D01*
X1703832Y1374797D01*
Y1373483D01*
X1704191Y1372616D01*
X1703723Y1371679D01*
X1703609Y1371569D01*
X1702470Y1371097D01*
X1701541Y1370168D01*
X1701038Y1368955D01*
Y1367641D01*
X1701541Y1366428D01*
X1702470Y1365499D01*
X1703683Y1364996D01*
X1704997D01*
X1706210Y1365499D01*
X1707139Y1366428D01*
X1707642Y1367641D01*
Y1368955D01*
X1707366Y1369620D01*
X1707828Y1370604D01*
X1708581Y1370857D01*
X1709420Y1370278D01*
Y1362611D01*
X1708404Y1361948D01*
X1707791Y1362202D01*
X1706477D01*
X1705264Y1361699D01*
X1704335Y1360770D01*
X1703832Y1359557D01*
Y1358243D01*
X1703422Y1357630D01*
X1703380D01*
X1701606Y1356895D01*
X1700249Y1355538D01*
X1699642Y1354074D01*
X1704340D01*
Y1351534D01*
X1699642D01*
X1700249Y1350070D01*
X1701606Y1348713D01*
X1702885Y1348183D01*
X1702885Y1347083D01*
X1702472Y1346912D01*
X1701543Y1345983D01*
X1701040Y1344770D01*
Y1343456D01*
X1701543Y1342242D01*
X1701956Y1341829D01*
X1702212Y1340943D01*
X1701925Y1340533D01*
X1701311Y1339918D01*
X1700808Y1338705D01*
Y1337391D01*
X1701311Y1336178D01*
X1702240Y1335249D01*
X1703453Y1334746D01*
X1704767D01*
X1705980Y1335249D01*
X1706909Y1336178D01*
X1707412Y1337391D01*
Y1338705D01*
X1706909Y1339918D01*
X1706496Y1340331D01*
X1706240Y1341218D01*
X1706527Y1341628D01*
X1707141Y1342242D01*
X1707644Y1343456D01*
Y1344770D01*
X1707141Y1345983D01*
X1706212Y1346912D01*
X1705797Y1347084D01*
X1705797Y1348184D01*
X1707074Y1348713D01*
X1708404Y1350043D01*
X1708553Y1350037D01*
X1709420Y1349802D01*
Y1331733D01*
X1708404Y1331312D01*
X1708242Y1331473D01*
X1707029Y1331976D01*
X1705715D01*
X1704502Y1331473D01*
X1703573Y1330544D01*
X1703070Y1329331D01*
Y1328017D01*
X1703324Y1327404D01*
X1703195Y1326526D01*
X1702794Y1326230D01*
X1701962Y1325885D01*
X1701033Y1324956D01*
X1700530Y1323743D01*
Y1322429D01*
X1701033Y1321216D01*
X1701962Y1320287D01*
X1703175Y1319784D01*
X1704489D01*
X1705702Y1320287D01*
X1706631Y1321216D01*
X1707134Y1322429D01*
Y1323743D01*
X1706880Y1324356D01*
X1707009Y1325234D01*
X1707410Y1325530D01*
X1708242Y1325875D01*
X1708404Y1326036D01*
X1709420Y1325615D01*
Y1293125D01*
X1708404Y1292704D01*
X1708242Y1292865D01*
X1707029Y1293368D01*
X1705715D01*
X1704502Y1292865D01*
X1703573Y1291936D01*
X1703070Y1290723D01*
Y1289409D01*
X1703426Y1288549D01*
X1703424Y1287983D01*
X1702981Y1287350D01*
X1702209Y1287030D01*
X1701280Y1286101D01*
X1700777Y1284888D01*
Y1283574D01*
X1701280Y1282360D01*
X1702209Y1281431D01*
X1703423Y1280929D01*
X1704736D01*
X1705950Y1281431D01*
X1706879Y1282360D01*
X1707381Y1283574D01*
Y1284888D01*
X1707025Y1285748D01*
X1707027Y1286313D01*
X1707470Y1286947D01*
X1708242Y1287267D01*
X1708404Y1287428D01*
X1709420Y1287007D01*
Y1277775D01*
X1708404Y1277261D01*
X1707537Y1277620D01*
X1706223D01*
X1705010Y1277117D01*
X1704081Y1276188D01*
X1703578Y1274975D01*
Y1273661D01*
X1703508Y1273556D01*
X1702872D01*
X1701098Y1272821D01*
X1699741Y1271464D01*
X1699134Y1270000D01*
X1703832D01*
Y1268730D01*
X1705102D01*
Y1264032D01*
X1706566Y1264639D01*
X1707923Y1265996D01*
X1708404Y1267157D01*
X1709420Y1266955D01*
Y1263297D01*
X1708404Y1262634D01*
X1707791Y1262888D01*
X1706477D01*
X1705264Y1262385D01*
X1704335Y1261456D01*
X1703832Y1260243D01*
Y1258929D01*
X1703981Y1258570D01*
X1703302Y1257554D01*
X1703175D01*
X1701962Y1257051D01*
X1701033Y1256122D01*
X1700530Y1254909D01*
Y1253595D01*
X1701033Y1252382D01*
X1701962Y1251453D01*
X1703175Y1250950D01*
X1704489D01*
X1705702Y1251453D01*
X1706631Y1252382D01*
X1707134Y1253595D01*
Y1254909D01*
X1706985Y1255268D01*
X1707664Y1256284D01*
X1707791D01*
X1708404Y1256538D01*
X1709420Y1255875D01*
Y1238151D01*
X1708404Y1237786D01*
X1707283Y1238250D01*
X1705969D01*
X1704756Y1237747D01*
X1703827Y1236818D01*
X1703324Y1235605D01*
Y1234291D01*
X1703578Y1233678D01*
X1703449Y1232800D01*
X1703048Y1232504D01*
X1702216Y1232159D01*
X1701287Y1231230D01*
X1700784Y1230017D01*
Y1228703D01*
X1701287Y1227490D01*
X1702216Y1226561D01*
X1703429Y1226058D01*
X1704743D01*
X1705956Y1226561D01*
X1706885Y1227490D01*
X1707388Y1228703D01*
Y1230017D01*
X1707134Y1230630D01*
X1707263Y1231508D01*
X1707664Y1231804D01*
X1708404Y1232110D01*
X1709420Y1231745D01*
Y1223673D01*
X1708404Y1223010D01*
X1707791Y1223264D01*
X1706477D01*
X1705264Y1222761D01*
X1704335Y1221832D01*
X1703832Y1220619D01*
Y1219305D01*
X1703848Y1219266D01*
X1703634Y1218946D01*
X1701860Y1218211D01*
X1700503Y1216854D01*
X1699896Y1215390D01*
X1704594D01*
Y1214120D01*
X1705864D01*
Y1209422D01*
X1707328Y1210029D01*
X1708404Y1211105D01*
X1709420Y1210707D01*
Y1208179D01*
X1708404Y1207516D01*
X1707791Y1207770D01*
X1706477D01*
X1705264Y1207267D01*
X1704335Y1206338D01*
X1703832Y1205125D01*
Y1203811D01*
X1703876Y1203706D01*
X1703197Y1202690D01*
X1702921D01*
X1701708Y1202187D01*
X1700779Y1201258D01*
X1700276Y1200045D01*
Y1198731D01*
X1700779Y1197518D01*
X1701708Y1196589D01*
X1702921Y1196086D01*
X1704235D01*
X1705448Y1196589D01*
X1706377Y1197518D01*
X1706880Y1198731D01*
Y1200045D01*
X1706836Y1200150D01*
X1707515Y1201166D01*
X1707791D01*
X1708404Y1201420D01*
X1709420Y1200757D01*
Y1192287D01*
X1708404Y1191866D01*
X1708242Y1192027D01*
X1707029Y1192530D01*
X1705715D01*
X1704502Y1192027D01*
X1703573Y1191098D01*
X1703070Y1189885D01*
Y1188571D01*
X1703344Y1187910D01*
X1702709Y1186894D01*
X1702667D01*
X1701454Y1186391D01*
X1700525Y1185462D01*
X1700022Y1184249D01*
Y1182935D01*
X1700525Y1181721D01*
X1701454Y1180792D01*
X1702667Y1180290D01*
X1703981D01*
X1705194Y1180792D01*
X1706123Y1181721D01*
X1706626Y1182935D01*
Y1184249D01*
X1706613Y1184279D01*
X1707195Y1185340D01*
X1708150Y1184564D01*
Y1184507D01*
X1708653Y1183294D01*
X1709420Y1182526D01*
Y1153414D01*
X1708545Y1153193D01*
X1708509Y1153185D01*
X1708509D01*
X1707296Y1152682D01*
X1706367Y1151754D01*
X1705864Y1150540D01*
Y1149226D01*
X1706206Y1148402D01*
X1705394Y1147705D01*
X1704489Y1148080D01*
X1703175D01*
X1701962Y1147577D01*
X1701033Y1146648D01*
X1700530Y1145435D01*
Y1144121D01*
X1701033Y1142908D01*
X1701962Y1141979D01*
X1703175Y1141476D01*
X1704489D01*
X1705702Y1141979D01*
X1706631Y1142908D01*
X1707134Y1144121D01*
Y1145435D01*
X1706792Y1146260D01*
X1707603Y1146956D01*
X1708509Y1146581D01*
X1709823D01*
X1711036Y1147084D01*
X1711965Y1148013D01*
X1712381Y1149016D01*
X1713407Y1149427D01*
X1778254Y1084580D01*
Y923851D01*
X1777238Y923718D01*
X1776925Y924887D01*
X1775656Y927085D01*
X1773860Y928880D01*
X1771662Y930149D01*
X1769210Y930806D01*
X1766672D01*
X1764220Y930149D01*
X1762021Y928880D01*
X1760226Y927085D01*
X1758957Y924887D01*
X1758300Y922435D01*
Y919896D01*
X1758957Y917444D01*
X1760226Y915246D01*
X1762021Y913451D01*
X1764220Y912181D01*
X1766672Y911524D01*
X1769210D01*
X1771662Y912181D01*
X1773860Y913451D01*
X1775656Y915246D01*
X1776925Y917444D01*
X1777238Y918613D01*
X1778254Y918479D01*
Y898452D01*
X1777238Y898318D01*
X1776925Y899487D01*
X1775656Y901685D01*
X1773860Y903480D01*
X1771662Y904749D01*
X1769210Y905406D01*
X1766672D01*
X1764220Y904749D01*
X1762021Y903480D01*
X1760226Y901685D01*
X1758957Y899487D01*
X1758300Y897035D01*
Y894496D01*
X1758957Y892044D01*
X1760226Y889846D01*
X1762021Y888051D01*
X1764220Y886781D01*
X1766672Y886124D01*
X1769210D01*
X1771662Y886781D01*
X1773860Y888051D01*
X1775656Y889846D01*
X1776925Y892044D01*
X1777238Y893213D01*
X1778254Y893079D01*
Y753110D01*
X1761080Y735936D01*
X1760753D01*
X1759540Y735433D01*
X1758611Y734504D01*
X1758108Y733291D01*
Y732964D01*
X1659890Y634746D01*
X1434592D01*
X1300988Y768350D01*
Y815340D01*
X1260348Y855980D01*
X1145286D01*
X1075436Y925830D01*
Y1190244D01*
X1116076Y1230884D01*
Y1232316D01*
X1116882Y1232935D01*
X1117900Y1232662D01*
X1119840D01*
X1121713Y1233164D01*
X1123393Y1234134D01*
X1124764Y1235505D01*
X1125734Y1237185D01*
X1126236Y1239058D01*
Y1240998D01*
X1125734Y1242871D01*
X1124764Y1244551D01*
X1123393Y1245922D01*
X1121713Y1246892D01*
X1119840Y1247394D01*
X1117900D01*
X1116882Y1247121D01*
X1116076Y1247740D01*
Y1249774D01*
X1116882Y1250393D01*
X1117646Y1250188D01*
X1119586D01*
X1121459Y1250690D01*
X1123139Y1251660D01*
X1124510Y1253031D01*
X1125480Y1254711D01*
X1125982Y1256584D01*
Y1258524D01*
X1125480Y1260397D01*
X1124510Y1262077D01*
X1123139Y1263448D01*
X1121459Y1264418D01*
X1119586Y1264920D01*
X1117646D01*
X1116882Y1264715D01*
X1116076Y1265334D01*
Y1267554D01*
X1116882Y1268173D01*
X1117646Y1267968D01*
X1119586D01*
X1121459Y1268470D01*
X1123139Y1269440D01*
X1124510Y1270811D01*
X1125480Y1272491D01*
X1125982Y1274364D01*
Y1276304D01*
X1125480Y1278177D01*
X1124510Y1279857D01*
X1123139Y1281228D01*
X1121459Y1282198D01*
X1119586Y1282700D01*
X1117646D01*
X1116882Y1282495D01*
X1116076Y1283114D01*
Y1285266D01*
X1116882Y1285885D01*
X1117392Y1285748D01*
X1119332D01*
X1121205Y1286250D01*
X1122885Y1287220D01*
X1124256Y1288591D01*
X1125226Y1290271D01*
X1125728Y1292144D01*
Y1294084D01*
X1125226Y1295957D01*
X1124256Y1297637D01*
X1122885Y1299008D01*
X1121205Y1299978D01*
X1119332Y1300480D01*
X1117392D01*
X1116882Y1300343D01*
X1116076Y1300962D01*
Y1302792D01*
X1116882Y1303411D01*
X1117392Y1303274D01*
X1119332D01*
X1121205Y1303776D01*
X1122885Y1304746D01*
X1124256Y1306117D01*
X1125226Y1307797D01*
X1125728Y1309670D01*
Y1311610D01*
X1125226Y1313483D01*
X1124256Y1315163D01*
X1122885Y1316534D01*
X1121205Y1317504D01*
X1119332Y1318006D01*
X1117392D01*
X1116882Y1317869D01*
X1116076Y1318488D01*
Y1320690D01*
X1116882Y1321309D01*
X1116884Y1321308D01*
X1118824D01*
X1120697Y1321810D01*
X1122377Y1322780D01*
X1123748Y1324151D01*
X1124718Y1325831D01*
X1125220Y1327704D01*
Y1329644D01*
X1124718Y1331517D01*
X1123748Y1333197D01*
X1122377Y1334568D01*
X1120697Y1335538D01*
X1118824Y1336040D01*
X1116884D01*
X1116882Y1336039D01*
X1116076Y1336658D01*
Y1338470D01*
X1116882Y1339089D01*
X1116884Y1339088D01*
X1118824D01*
X1120697Y1339590D01*
X1122377Y1340560D01*
X1123748Y1341931D01*
X1124718Y1343611D01*
X1125220Y1345484D01*
Y1347424D01*
X1124718Y1349297D01*
X1123748Y1350977D01*
X1122377Y1352348D01*
X1120697Y1353318D01*
X1118824Y1353820D01*
X1116884D01*
X1116882Y1353819D01*
X1116076Y1354438D01*
Y1355996D01*
X1116882Y1356615D01*
X1116884Y1356614D01*
X1118824D01*
X1120697Y1357116D01*
X1122377Y1358086D01*
X1123748Y1359457D01*
X1124718Y1361137D01*
X1125220Y1363010D01*
Y1364950D01*
X1124718Y1366823D01*
X1123748Y1368503D01*
X1122377Y1369874D01*
X1120697Y1370844D01*
X1118824Y1371346D01*
X1116884D01*
X1116882Y1371345D01*
X1116076Y1371964D01*
Y1373715D01*
X1116630Y1374140D01*
X1118570D01*
X1120443Y1374642D01*
X1122123Y1375612D01*
X1123494Y1376983D01*
X1124464Y1378663D01*
X1124966Y1380536D01*
Y1382476D01*
X1124464Y1384349D01*
X1123494Y1386029D01*
X1123444Y1386080D01*
X1126779Y1389415D01*
X1127912Y1389111D01*
X1128262Y1387807D01*
X1129232Y1386127D01*
X1130603Y1384756D01*
X1132283Y1383786D01*
X1134156Y1383284D01*
X1136096D01*
X1137969Y1383786D01*
X1139649Y1384756D01*
X1141020Y1386127D01*
X1141990Y1387807D01*
X1142492Y1389680D01*
Y1391620D01*
X1141990Y1393493D01*
X1141020Y1395173D01*
X1139649Y1396544D01*
X1137969Y1397514D01*
X1136665Y1397864D01*
X1136361Y1398997D01*
X1139642Y1402278D01*
X1139649Y1402282D01*
X1141020Y1403653D01*
X1141024Y1403660D01*
X1156462Y1419098D01*
X1173480D01*
X1181862Y1410716D01*
Y1224534D01*
X1133602Y1176274D01*
Y968502D01*
X1135126D01*
X1171448Y932180D01*
X1254760D01*
X1343152Y843788D01*
Y805688D01*
X1458468Y690372D01*
X1639062D01*
X1701292Y752602D01*
X1701292Y894161D01*
X1701382Y894496D01*
Y897035D01*
X1701292Y897370D01*
Y919561D01*
X1701382Y919896D01*
Y922435D01*
X1701292Y922770D01*
Y1020826D01*
X1661160Y1060958D01*
Y1148490D01*
X1661217Y1148548D01*
X1661720Y1149761D01*
Y1151075D01*
X1661217Y1152288D01*
X1661160Y1152346D01*
Y1295908D01*
X1661817D01*
X1663030Y1296411D01*
X1663959Y1297340D01*
X1664462Y1298553D01*
Y1299867D01*
X1663959Y1301080D01*
X1663030Y1302009D01*
X1661817Y1302512D01*
X1661160D01*
Y1405890D01*
X1675130Y1419860D01*
X1698752D01*
X1704012Y1414600D01*
D02*
G37*
G36*
X1248446Y831034D02*
X1271052Y808428D01*
Y630428D01*
X1005622D01*
Y645721D01*
X1006638Y645965D01*
X1007631Y644015D01*
X1010075Y640651D01*
X1013015Y637711D01*
X1016379Y635267D01*
X1020084Y633379D01*
X1024038Y632094D01*
X1028145Y631444D01*
X1032303D01*
X1036410Y632094D01*
X1040364Y633379D01*
X1044069Y635267D01*
X1047433Y637711D01*
X1050373Y640651D01*
X1052817Y644015D01*
X1054705Y647720D01*
X1055990Y651674D01*
X1056640Y655781D01*
Y659939D01*
X1055990Y664046D01*
X1054705Y668000D01*
X1052817Y671705D01*
X1050373Y675069D01*
X1047433Y678009D01*
X1044069Y680453D01*
X1040364Y682341D01*
X1036410Y683626D01*
X1032303Y684276D01*
X1028145D01*
X1024038Y683626D01*
X1020084Y682341D01*
X1016379Y680453D01*
X1013015Y678009D01*
X1010075Y675069D01*
X1007631Y671705D01*
X1006638Y669755D01*
X1005622Y669999D01*
Y830569D01*
X1006340Y831287D01*
X1248446Y831034D01*
D02*
G37*
%LPC*%
G36*
X1204722Y1437512D02*
Y1434084D01*
X1208150D01*
X1207543Y1435548D01*
X1206186Y1436905D01*
X1204722Y1437512D01*
D02*
G37*
G36*
X1202182D02*
X1200718Y1436905D01*
X1199361Y1435548D01*
X1198754Y1434084D01*
X1202182D01*
Y1437512D01*
D02*
G37*
G36*
X1208150Y1431544D02*
X1204722D01*
Y1428116D01*
X1206186Y1428723D01*
X1207543Y1430080D01*
X1208150Y1431544D01*
D02*
G37*
G36*
X1202182D02*
X1198754D01*
X1199361Y1430080D01*
X1200718Y1428723D01*
X1202182Y1428116D01*
Y1431544D01*
D02*
G37*
G36*
X1210564Y1415414D02*
X1209100Y1414807D01*
X1207743Y1413450D01*
X1207136Y1411986D01*
X1210564D01*
Y1415414D01*
D02*
G37*
G36*
X1628904Y1413327D02*
Y1409899D01*
X1632332D01*
X1631725Y1411363D01*
X1630368Y1412720D01*
X1628904Y1413327D01*
D02*
G37*
G36*
X1210564Y1409446D02*
X1207136D01*
X1207743Y1407982D01*
X1209100Y1406625D01*
X1210564Y1406018D01*
Y1409446D01*
D02*
G37*
G36*
X1629561Y1371372D02*
X1628247D01*
X1627034Y1370869D01*
X1626105Y1369940D01*
X1625602Y1368727D01*
Y1367413D01*
X1626105Y1366199D01*
X1627034Y1365271D01*
X1628247Y1364768D01*
X1629561D01*
X1630775Y1365271D01*
X1631703Y1366199D01*
X1632206Y1367413D01*
Y1368727D01*
X1631703Y1369940D01*
X1630775Y1370869D01*
X1629561Y1371372D01*
D02*
G37*
G36*
X1629666Y1359559D02*
Y1356132D01*
X1633094D01*
X1632487Y1357596D01*
X1631130Y1358953D01*
X1629666Y1359559D01*
D02*
G37*
G36*
X1627126D02*
X1625662Y1358953D01*
X1624305Y1357596D01*
X1623698Y1356132D01*
X1627126D01*
Y1359559D01*
D02*
G37*
G36*
X1210310Y1359026D02*
X1208846Y1358419D01*
X1207489Y1357062D01*
X1206882Y1355598D01*
X1210310D01*
Y1359026D01*
D02*
G37*
G36*
X1633094Y1353592D02*
X1629666D01*
Y1350164D01*
X1631130Y1350771D01*
X1632487Y1352128D01*
X1633094Y1353592D01*
D02*
G37*
G36*
X1627126D02*
X1623698D01*
X1624305Y1352128D01*
X1625662Y1350771D01*
X1627126Y1350164D01*
Y1353592D01*
D02*
G37*
G36*
X1210310Y1353058D02*
X1206882D01*
X1207489Y1351594D01*
X1208846Y1350237D01*
X1210310Y1349630D01*
Y1353058D01*
D02*
G37*
G36*
X1629051Y1344930D02*
X1627737D01*
X1626524Y1344427D01*
X1625595Y1343498D01*
X1625092Y1342285D01*
Y1340971D01*
X1625595Y1339758D01*
X1626524Y1338829D01*
X1627457Y1338442D01*
X1627562Y1337410D01*
X1627558Y1337384D01*
X1626778Y1337061D01*
X1625849Y1336132D01*
X1625346Y1334919D01*
Y1333605D01*
X1625849Y1332392D01*
X1626778Y1331463D01*
X1627991Y1330960D01*
X1629305D01*
X1630518Y1331463D01*
X1631447Y1332392D01*
X1631950Y1333605D01*
Y1334919D01*
X1631447Y1336132D01*
X1630518Y1337061D01*
X1629586Y1337448D01*
X1629480Y1338480D01*
X1629484Y1338506D01*
X1630264Y1338829D01*
X1631193Y1339758D01*
X1631696Y1340971D01*
Y1342285D01*
X1631193Y1343498D01*
X1630264Y1344427D01*
X1629051Y1344930D01*
D02*
G37*
G36*
X1210794Y1321204D02*
X1209330Y1320598D01*
X1207972Y1319240D01*
X1207366Y1317776D01*
X1210794D01*
Y1321204D01*
D02*
G37*
G36*
X1210818Y1307084D02*
X1207390D01*
X1207997Y1305620D01*
X1209354Y1304263D01*
X1210818Y1303656D01*
Y1307084D01*
D02*
G37*
G36*
X1628545Y1288233D02*
X1627231D01*
X1626018Y1287730D01*
X1625089Y1286801D01*
X1624586Y1285588D01*
Y1284274D01*
X1625089Y1283060D01*
X1626018Y1282132D01*
X1627231Y1281629D01*
X1628545D01*
X1629758Y1282132D01*
X1630687Y1283060D01*
X1631190Y1284274D01*
Y1285588D01*
X1630687Y1286801D01*
X1629758Y1287730D01*
X1628545Y1288233D01*
D02*
G37*
G36*
X1210310Y1279270D02*
X1208846Y1278663D01*
X1207489Y1277306D01*
X1206882Y1275842D01*
X1210310D01*
Y1279270D01*
D02*
G37*
G36*
X1628902Y1272158D02*
Y1268730D01*
X1632330D01*
X1631723Y1270194D01*
X1630366Y1271551D01*
X1628902Y1272158D01*
D02*
G37*
G36*
X1626362D02*
X1624898Y1271551D01*
X1623541Y1270194D01*
X1622934Y1268730D01*
X1626362D01*
Y1272158D01*
D02*
G37*
G36*
X1632330Y1266190D02*
X1628902D01*
Y1262762D01*
X1630366Y1263369D01*
X1631723Y1264726D01*
X1632330Y1266190D01*
D02*
G37*
G36*
X1626362D02*
X1622934D01*
X1623541Y1264726D01*
X1624898Y1263369D01*
X1626362Y1262762D01*
Y1266190D01*
D02*
G37*
G36*
X1629051Y1260602D02*
X1627737D01*
X1626524Y1260099D01*
X1625595Y1259170D01*
X1625092Y1257957D01*
Y1256643D01*
X1625595Y1255430D01*
X1626524Y1254501D01*
X1627737Y1253998D01*
X1629051D01*
X1630264Y1254501D01*
X1631193Y1255430D01*
X1631696Y1256643D01*
Y1257957D01*
X1631193Y1259170D01*
X1630264Y1260099D01*
X1629051Y1260602D01*
D02*
G37*
G36*
X1205992Y1233804D02*
X1204528Y1233197D01*
X1203171Y1231840D01*
X1202564Y1230376D01*
X1205992D01*
Y1233804D01*
D02*
G37*
G36*
X1628799Y1231164D02*
X1627485D01*
X1626272Y1230661D01*
X1625343Y1229732D01*
X1624840Y1228519D01*
Y1227205D01*
X1625343Y1225992D01*
X1626272Y1225063D01*
X1627485Y1224560D01*
X1628799D01*
X1630013Y1225063D01*
X1630941Y1225992D01*
X1631444Y1227205D01*
Y1228519D01*
X1630941Y1229732D01*
X1630013Y1230661D01*
X1628799Y1231164D01*
D02*
G37*
G36*
X1205992Y1227836D02*
X1202564D01*
X1203171Y1226372D01*
X1204528Y1225015D01*
X1205992Y1224408D01*
Y1227836D01*
D02*
G37*
G36*
X1207157Y1222502D02*
X1205843D01*
X1204630Y1221999D01*
X1203701Y1221070D01*
X1203198Y1219857D01*
Y1218543D01*
X1203701Y1217330D01*
X1204630Y1216401D01*
X1205843Y1215898D01*
X1207157D01*
X1208370Y1216401D01*
X1209299Y1217330D01*
X1209802Y1218543D01*
Y1219857D01*
X1209299Y1221070D01*
X1208370Y1221999D01*
X1207157Y1222502D01*
D02*
G37*
G36*
X1628902Y1218818D02*
Y1215390D01*
X1632330D01*
X1631723Y1216854D01*
X1630366Y1218211D01*
X1628902Y1218818D01*
D02*
G37*
G36*
X1626362D02*
X1624898Y1218211D01*
X1623541Y1216854D01*
X1622934Y1215390D01*
X1626362D01*
Y1218818D01*
D02*
G37*
G36*
X1632330Y1212850D02*
X1628902D01*
Y1209422D01*
X1630366Y1210029D01*
X1631723Y1211386D01*
X1632330Y1212850D01*
D02*
G37*
G36*
X1626362D02*
X1622934D01*
X1623541Y1211386D01*
X1624898Y1210029D01*
X1626362Y1209422D01*
Y1212850D01*
D02*
G37*
G36*
X1628797Y1206246D02*
X1627483D01*
X1626270Y1205743D01*
X1625341Y1204814D01*
X1624838Y1203601D01*
Y1202287D01*
X1625341Y1201074D01*
X1626270Y1200145D01*
X1627483Y1199642D01*
X1628797D01*
X1630010Y1200145D01*
X1630439Y1200573D01*
X1631341Y1200796D01*
X1631725Y1200531D01*
X1632366Y1199891D01*
X1633579Y1199388D01*
X1634893D01*
X1636106Y1199891D01*
X1637035Y1200820D01*
X1637538Y1202033D01*
Y1203347D01*
X1637035Y1204560D01*
X1636106Y1205489D01*
X1634893Y1205992D01*
X1633579D01*
X1632366Y1205489D01*
X1631937Y1205061D01*
X1631035Y1204838D01*
X1630651Y1205102D01*
X1630010Y1205743D01*
X1628797Y1206246D01*
D02*
G37*
G36*
X1642462Y1200099D02*
X1641149D01*
X1639935Y1199597D01*
X1639006Y1198668D01*
X1638504Y1197454D01*
Y1196141D01*
X1639006Y1194927D01*
X1639935Y1193998D01*
X1641149Y1193495D01*
X1642462D01*
X1643676Y1193998D01*
X1644605Y1194927D01*
X1645108Y1196141D01*
Y1197454D01*
X1644605Y1198668D01*
X1643676Y1199597D01*
X1642462Y1200099D01*
D02*
G37*
G36*
X1169672Y1188110D02*
Y1184682D01*
X1173100D01*
X1172493Y1186146D01*
X1171136Y1187503D01*
X1169672Y1188110D01*
D02*
G37*
G36*
X1167132D02*
X1165668Y1187503D01*
X1164311Y1186146D01*
X1163705Y1184682D01*
X1167132D01*
Y1188110D01*
D02*
G37*
G36*
X1173100Y1182142D02*
X1169672D01*
Y1178714D01*
X1171136Y1179321D01*
X1172493Y1180678D01*
X1173100Y1182142D01*
D02*
G37*
G36*
X1167132D02*
X1163705D01*
X1164311Y1180678D01*
X1165668Y1179321D01*
X1167132Y1178714D01*
Y1182142D01*
D02*
G37*
G36*
X1628543Y1148588D02*
X1627229D01*
X1626016Y1148085D01*
X1625087Y1147156D01*
X1624584Y1145943D01*
Y1144629D01*
X1625087Y1143416D01*
X1626016Y1142487D01*
X1627229Y1141984D01*
X1628543D01*
X1629756Y1142487D01*
X1630685Y1143416D01*
X1631188Y1144629D01*
Y1145943D01*
X1630685Y1147156D01*
X1629756Y1148085D01*
X1628543Y1148588D01*
D02*
G37*
G36*
X1627380Y1134770D02*
X1625916Y1134163D01*
X1624559Y1132806D01*
X1623952Y1131342D01*
X1627380D01*
Y1134770D01*
D02*
G37*
G36*
X1629920D02*
Y1130072D01*
Y1125374D01*
X1631384Y1125981D01*
X1632641Y1127238D01*
X1633833Y1126744D01*
X1635147D01*
X1636360Y1127247D01*
X1637289Y1128176D01*
X1637792Y1129389D01*
Y1130703D01*
X1637289Y1131916D01*
X1636360Y1132845D01*
X1635147Y1133348D01*
X1633833D01*
X1632678Y1132869D01*
X1631384Y1134163D01*
X1629920Y1134770D01*
D02*
G37*
G36*
X1627380Y1128802D02*
X1623952D01*
X1624559Y1127338D01*
X1625916Y1125981D01*
X1627380Y1125374D01*
Y1128802D01*
D02*
G37*
G36*
X1649371Y1092708D02*
X1648057D01*
X1646844Y1092205D01*
X1645915Y1091276D01*
X1645412Y1090063D01*
Y1088749D01*
X1645915Y1087536D01*
X1646844Y1086607D01*
X1648057Y1086104D01*
X1649371D01*
X1650584Y1086607D01*
X1651513Y1087536D01*
X1652016Y1088749D01*
Y1090063D01*
X1651513Y1091276D01*
X1650584Y1092205D01*
X1649371Y1092708D01*
D02*
G37*
G36*
X1632607Y1086358D02*
X1631293D01*
X1630080Y1085855D01*
X1629151Y1084926D01*
X1628648Y1083713D01*
Y1082399D01*
X1629151Y1081186D01*
X1630080Y1080257D01*
X1631293Y1079754D01*
X1632607D01*
X1633820Y1080257D01*
X1634749Y1081186D01*
X1635252Y1082399D01*
Y1083713D01*
X1634749Y1084926D01*
X1633820Y1085855D01*
X1632607Y1086358D01*
D02*
G37*
G36*
X1626870Y1078864D02*
X1625406Y1078257D01*
X1624049Y1076900D01*
X1623442Y1075436D01*
X1626870D01*
Y1078864D01*
D02*
G37*
G36*
X1629410D02*
Y1074166D01*
Y1069468D01*
X1630874Y1070075D01*
X1632231Y1071432D01*
X1632500Y1071486D01*
X1632620Y1071367D01*
X1633833Y1070864D01*
X1635147D01*
X1636360Y1071367D01*
X1637289Y1072296D01*
X1637792Y1073509D01*
Y1074823D01*
X1637289Y1076036D01*
X1636360Y1076965D01*
X1635147Y1077468D01*
X1633833D01*
X1632620Y1076965D01*
X1632500Y1076846D01*
X1632231Y1076900D01*
X1630874Y1078257D01*
X1629410Y1078864D01*
D02*
G37*
G36*
X1626870Y1072896D02*
X1623442D01*
X1624049Y1071432D01*
X1625406Y1070075D01*
X1626870Y1069468D01*
Y1072896D01*
D02*
G37*
G36*
X1640227Y1046226D02*
X1638913D01*
X1637700Y1045723D01*
X1636771Y1044794D01*
X1636268Y1043581D01*
Y1042267D01*
X1636771Y1041054D01*
X1637700Y1040125D01*
X1638913Y1039622D01*
X1640227D01*
X1641440Y1040125D01*
X1642369Y1041054D01*
X1642523Y1041426D01*
X1643623D01*
X1643883Y1040800D01*
X1644812Y1039871D01*
X1646025Y1039368D01*
X1647339D01*
X1648552Y1039871D01*
X1649481Y1040800D01*
X1649984Y1042013D01*
Y1043327D01*
X1649481Y1044540D01*
X1648552Y1045469D01*
X1647339Y1045972D01*
X1646025D01*
X1644812Y1045469D01*
X1643883Y1044540D01*
X1643728Y1044168D01*
X1642629D01*
X1642369Y1044794D01*
X1641440Y1045723D01*
X1640227Y1046226D01*
D02*
G37*
G36*
X1671828Y1033906D02*
Y1030478D01*
X1675256D01*
X1674649Y1031942D01*
X1673292Y1033299D01*
X1671828Y1033906D01*
D02*
G37*
G36*
X1669288D02*
X1667824Y1033299D01*
X1666467Y1031942D01*
X1665860Y1030478D01*
X1669288D01*
Y1033906D01*
D02*
G37*
G36*
X1675256Y1027938D02*
X1671828D01*
Y1024510D01*
X1673292Y1025117D01*
X1674649Y1026474D01*
X1675256Y1027938D01*
D02*
G37*
G36*
X1669288D02*
X1665860D01*
X1666467Y1026474D01*
X1667824Y1025117D01*
X1669288Y1024510D01*
Y1027938D01*
D02*
G37*
G36*
X1222517Y999229D02*
X1221203D01*
X1219990Y998727D01*
X1219603Y998340D01*
X1218939Y997882D01*
X1218275Y998340D01*
X1217889Y998727D01*
X1216675Y999229D01*
X1215361D01*
X1214148Y998727D01*
X1213219Y997798D01*
X1212716Y996584D01*
Y995270D01*
X1213219Y994057D01*
X1214148Y993128D01*
X1215361Y992625D01*
X1216675D01*
X1217889Y993128D01*
X1218275Y993515D01*
X1218939Y993973D01*
X1219603Y993515D01*
X1219990Y993128D01*
X1221203Y992625D01*
X1222517D01*
X1223731Y993128D01*
X1224660Y994057D01*
X1225162Y995270D01*
Y996584D01*
X1224660Y997798D01*
X1223731Y998727D01*
X1222517Y999229D01*
D02*
G37*
G36*
X1284375Y990118D02*
X1283061D01*
X1281848Y989615D01*
X1280919Y988686D01*
X1280416Y987473D01*
Y986159D01*
X1280919Y984946D01*
X1281848Y984017D01*
X1283061Y983514D01*
X1284375D01*
X1285589Y984017D01*
X1286517Y984946D01*
X1287020Y986159D01*
Y987473D01*
X1286517Y988686D01*
X1285589Y989615D01*
X1284375Y990118D01*
D02*
G37*
G36*
X1222517Y982465D02*
X1221203D01*
X1219990Y981963D01*
X1219603Y981576D01*
X1218939Y981118D01*
X1218275Y981576D01*
X1217889Y981963D01*
X1216675Y982465D01*
X1215361D01*
X1214148Y981963D01*
X1213219Y981034D01*
X1212716Y979820D01*
Y978506D01*
X1213219Y977293D01*
X1214148Y976364D01*
X1215361Y975861D01*
X1216675D01*
X1217889Y976364D01*
X1218275Y976751D01*
X1218939Y977209D01*
X1219603Y976751D01*
X1219990Y976364D01*
X1221203Y975861D01*
X1222517D01*
X1223731Y976364D01*
X1224660Y977293D01*
X1225162Y978506D01*
Y979820D01*
X1224660Y981034D01*
X1223731Y981963D01*
X1222517Y982465D01*
D02*
G37*
G36*
X1190501Y993983D02*
X1189188D01*
X1187974Y993481D01*
X1187045Y992552D01*
X1186543Y991338D01*
Y990024D01*
X1187045Y988811D01*
X1187618Y988238D01*
X1187682Y987309D01*
X1187526Y987003D01*
X1186763Y986240D01*
X1186260Y985026D01*
Y983712D01*
X1186763Y982499D01*
X1187692Y981570D01*
X1188905Y981067D01*
X1190219D01*
X1191432Y981570D01*
X1192361Y982499D01*
X1192864Y983712D01*
Y985026D01*
X1192361Y986240D01*
X1191788Y986813D01*
X1191725Y987741D01*
X1191881Y988048D01*
X1192644Y988811D01*
X1193147Y990024D01*
Y991338D01*
X1192644Y992552D01*
X1191715Y993481D01*
X1190501Y993983D01*
D02*
G37*
G36*
X1190473Y977356D02*
X1189159D01*
X1187946Y976853D01*
X1187017Y975924D01*
X1186514Y974711D01*
Y973397D01*
X1187017Y972183D01*
X1187531Y971670D01*
X1187832Y971006D01*
X1187531Y970342D01*
X1187017Y969828D01*
X1186514Y968615D01*
Y967301D01*
X1187017Y966087D01*
X1187946Y965158D01*
X1189159Y964656D01*
X1190473D01*
X1191686Y965158D01*
X1192615Y966087D01*
X1193118Y967301D01*
Y968615D01*
X1192615Y969828D01*
X1192102Y970342D01*
X1191800Y971006D01*
X1192102Y971670D01*
X1192615Y972183D01*
X1193118Y973397D01*
Y974711D01*
X1192615Y975924D01*
X1191686Y976853D01*
X1190473Y977356D01*
D02*
G37*
G36*
X1404874Y798956D02*
Y795528D01*
X1408302D01*
X1407695Y796992D01*
X1406338Y798349D01*
X1404874Y798956D01*
D02*
G37*
G36*
X1402334D02*
X1400870Y798349D01*
X1399513Y796992D01*
X1398906Y795528D01*
X1402334D01*
Y798956D01*
D02*
G37*
G36*
X1408302Y792988D02*
X1404874D01*
Y789560D01*
X1406338Y790167D01*
X1407695Y791524D01*
X1408302Y792988D01*
D02*
G37*
G36*
X1402334D02*
X1398906D01*
X1399513Y791524D01*
X1400870Y790167D01*
X1402334Y789560D01*
Y792988D01*
D02*
G37*
G36*
X1509268Y1449196D02*
Y1445768D01*
X1512696D01*
X1512089Y1447232D01*
X1510732Y1448589D01*
X1509268Y1449196D01*
D02*
G37*
G36*
X1506728D02*
X1505264Y1448589D01*
X1503907Y1447232D01*
X1503300Y1445768D01*
X1506728D01*
Y1449196D01*
D02*
G37*
G36*
X1512696Y1443228D02*
X1509268D01*
Y1439800D01*
X1510732Y1440407D01*
X1512089Y1441764D01*
X1512696Y1443228D01*
D02*
G37*
G36*
X1506728D02*
X1503300D01*
X1503907Y1441764D01*
X1505264Y1440407D01*
X1506728Y1439800D01*
Y1443228D01*
D02*
G37*
G36*
X1504442Y1411858D02*
X1502978Y1411251D01*
X1501621Y1409894D01*
X1501454Y1409861D01*
X1501080Y1410235D01*
X1499616Y1410842D01*
Y1406144D01*
Y1401446D01*
X1499912Y1401569D01*
X1500886Y1400873D01*
Y1400153D01*
X1501389Y1398940D01*
X1502318Y1398011D01*
X1503531Y1397508D01*
X1504845D01*
X1506058Y1398011D01*
X1506987Y1398940D01*
X1507490Y1400153D01*
Y1401467D01*
X1507064Y1402496D01*
X1508446Y1403069D01*
X1509803Y1404426D01*
X1510410Y1405890D01*
X1505712D01*
Y1407160D01*
X1504442D01*
Y1411858D01*
D02*
G37*
G36*
X1506982D02*
Y1408430D01*
X1510410D01*
X1509803Y1409894D01*
X1508446Y1411251D01*
X1506982Y1411858D01*
D02*
G37*
G36*
X1497076Y1410842D02*
X1495612Y1410235D01*
X1494255Y1408878D01*
X1493648Y1407414D01*
X1497076D01*
Y1410842D01*
D02*
G37*
G36*
X1522476Y1410334D02*
Y1406906D01*
X1525904D01*
X1525297Y1408370D01*
X1523940Y1409727D01*
X1522476Y1410334D01*
D02*
G37*
G36*
X1519936D02*
X1518472Y1409727D01*
X1517115Y1408370D01*
X1516508Y1406906D01*
X1519936D01*
Y1410334D01*
D02*
G37*
G36*
X1545336Y1405254D02*
X1543872Y1404647D01*
X1543050Y1403825D01*
X1542228Y1404647D01*
X1540764Y1405254D01*
Y1400556D01*
Y1395858D01*
X1542228Y1396465D01*
X1543050Y1397287D01*
X1543872Y1396465D01*
X1545336Y1395858D01*
Y1400556D01*
Y1405254D01*
D02*
G37*
G36*
X1538224D02*
X1536760Y1404647D01*
X1535403Y1403290D01*
X1534307Y1403300D01*
X1533998Y1403609D01*
X1532785Y1404112D01*
X1531471D01*
X1530258Y1403609D01*
X1529329Y1402680D01*
X1528826Y1401467D01*
Y1400153D01*
X1529329Y1398940D01*
X1530258Y1398011D01*
X1531471Y1397508D01*
X1532785D01*
X1533998Y1398011D01*
X1534159Y1398171D01*
X1535357Y1397932D01*
X1535403Y1397822D01*
X1536760Y1396465D01*
X1538224Y1395858D01*
Y1400556D01*
Y1405254D01*
D02*
G37*
G36*
X1547876D02*
Y1401826D01*
X1551304D01*
X1550697Y1403290D01*
X1549340Y1404647D01*
X1547876Y1405254D01*
D02*
G37*
G36*
X1497076Y1404874D02*
X1493648D01*
X1494255Y1403410D01*
X1495612Y1402053D01*
X1497076Y1401446D01*
Y1404874D01*
D02*
G37*
G36*
X1525904Y1404366D02*
X1522476D01*
Y1400938D01*
X1523940Y1401545D01*
X1525297Y1402902D01*
X1525904Y1404366D01*
D02*
G37*
G36*
X1519936D02*
X1516508D01*
X1517115Y1402902D01*
X1518472Y1401545D01*
X1519936Y1400938D01*
Y1404366D01*
D02*
G37*
G36*
X1551304Y1399286D02*
X1547876D01*
Y1395858D01*
X1549340Y1396465D01*
X1550697Y1397822D01*
X1551304Y1399286D01*
D02*
G37*
G36*
X1537970Y1347596D02*
X1536506Y1346989D01*
X1535149Y1345632D01*
X1534901Y1345034D01*
X1534514Y1344930D01*
X1533756Y1344924D01*
X1532982Y1345697D01*
X1531769Y1346200D01*
X1530455D01*
X1529242Y1345697D01*
X1528313Y1344768D01*
X1527810Y1343555D01*
Y1342241D01*
X1528313Y1341028D01*
X1529242Y1340099D01*
X1530455Y1339596D01*
X1531769D01*
X1532982Y1340099D01*
X1533756Y1340872D01*
X1534514Y1340866D01*
X1534901Y1340762D01*
X1535149Y1340164D01*
X1536506Y1338807D01*
X1537970Y1338200D01*
Y1342898D01*
Y1347596D01*
D02*
G37*
G36*
X1540510D02*
Y1344168D01*
X1543938D01*
X1543331Y1345632D01*
X1541974Y1346989D01*
X1540510Y1347596D01*
D02*
G37*
G36*
X1502918D02*
Y1344168D01*
X1506346D01*
X1505739Y1345632D01*
X1504382Y1346989D01*
X1502918Y1347596D01*
D02*
G37*
G36*
X1522627Y1346480D02*
X1521313D01*
X1520100Y1345977D01*
X1519171Y1345048D01*
X1518668Y1343835D01*
Y1342521D01*
X1519171Y1341308D01*
X1520100Y1340379D01*
X1521313Y1339876D01*
X1522627D01*
X1523840Y1340379D01*
X1524769Y1341308D01*
X1525272Y1342521D01*
Y1343835D01*
X1524769Y1345048D01*
X1523840Y1345977D01*
X1522627Y1346480D01*
D02*
G37*
G36*
X1543938Y1341628D02*
X1540510D01*
Y1338200D01*
X1541974Y1338807D01*
X1543331Y1340164D01*
X1543938Y1341628D01*
D02*
G37*
G36*
X1546052Y1276096D02*
X1544112D01*
X1542239Y1275594D01*
X1540559Y1274624D01*
X1539188Y1273253D01*
X1538218Y1271573D01*
X1537716Y1269700D01*
Y1267760D01*
X1538218Y1265887D01*
X1539188Y1264207D01*
X1540559Y1262836D01*
X1542239Y1261866D01*
X1544112Y1261364D01*
X1546052D01*
X1547925Y1261866D01*
X1549605Y1262836D01*
X1550976Y1264207D01*
X1551946Y1265887D01*
X1552448Y1267760D01*
Y1269700D01*
X1551946Y1271573D01*
X1550976Y1273253D01*
X1549605Y1274624D01*
X1547925Y1275594D01*
X1546052Y1276096D01*
D02*
G37*
G36*
X1523895Y1271778D02*
X1522581D01*
X1521368Y1271275D01*
X1520439Y1270346D01*
X1519936Y1269133D01*
Y1267819D01*
X1520439Y1266606D01*
X1521368Y1265677D01*
X1522581Y1265174D01*
X1523895D01*
X1524254Y1265323D01*
X1525270Y1264644D01*
Y1264009D01*
X1525773Y1262796D01*
X1526702Y1261867D01*
X1527915Y1261364D01*
X1529229D01*
X1530442Y1261867D01*
X1531371Y1262796D01*
X1531874Y1264009D01*
Y1265323D01*
X1531371Y1266536D01*
X1530442Y1267465D01*
X1529229Y1267968D01*
X1527915D01*
X1527556Y1267819D01*
X1526540Y1268498D01*
Y1269133D01*
X1526037Y1270346D01*
X1525108Y1271275D01*
X1523895Y1271778D01*
D02*
G37*
G36*
X1513227Y1248410D02*
X1511913D01*
X1510700Y1247907D01*
X1509771Y1246978D01*
X1509268Y1245765D01*
Y1244451D01*
X1509771Y1243238D01*
X1510700Y1242309D01*
X1511913Y1241806D01*
X1513227D01*
X1514440Y1242309D01*
X1515369Y1243238D01*
X1515872Y1244451D01*
Y1245765D01*
X1515369Y1246978D01*
X1514440Y1247907D01*
X1513227Y1248410D01*
D02*
G37*
G36*
X1520847Y1216660D02*
X1519533D01*
X1518320Y1216157D01*
X1517391Y1215228D01*
X1516888Y1214015D01*
Y1212701D01*
X1517391Y1211488D01*
X1518320Y1210559D01*
X1519533Y1210056D01*
X1520847D01*
X1522060Y1210559D01*
X1522989Y1211488D01*
X1523492Y1212701D01*
Y1214015D01*
X1522989Y1215228D01*
X1522060Y1216157D01*
X1520847Y1216660D01*
D02*
G37*
G36*
X1543050Y1203832D02*
X1541586Y1203225D01*
X1540229Y1201868D01*
X1539737Y1200681D01*
X1538638D01*
X1538251Y1201614D01*
X1536894Y1202971D01*
X1535430Y1203578D01*
Y1198880D01*
Y1194182D01*
X1536894Y1194789D01*
X1538251Y1196146D01*
X1538743Y1197333D01*
X1539843D01*
X1540229Y1196400D01*
X1540924Y1195705D01*
X1540229Y1195010D01*
X1539622Y1193546D01*
X1549018D01*
X1548411Y1195010D01*
X1547716Y1195705D01*
X1548411Y1196400D01*
X1549018Y1197864D01*
X1544320D01*
Y1199134D01*
X1543050D01*
Y1203832D01*
D02*
G37*
G36*
X1545590D02*
Y1200404D01*
X1549018D01*
X1548411Y1201868D01*
X1547054Y1203225D01*
X1545590Y1203832D01*
D02*
G37*
G36*
X1532890Y1203578D02*
X1531426Y1202971D01*
X1530069Y1201614D01*
X1529462Y1200150D01*
X1532890D01*
Y1203578D01*
D02*
G37*
G36*
X1557423Y1201293D02*
X1556109D01*
X1554896Y1200790D01*
X1553967Y1199861D01*
X1553464Y1198648D01*
Y1197334D01*
X1553967Y1196121D01*
X1554896Y1195192D01*
X1556109Y1194689D01*
X1557423D01*
X1558636Y1195192D01*
X1559565Y1196121D01*
X1560068Y1197334D01*
Y1198648D01*
X1559565Y1199861D01*
X1558636Y1200790D01*
X1557423Y1201293D01*
D02*
G37*
G36*
X1532890Y1197610D02*
X1529462D01*
X1530069Y1196146D01*
X1531426Y1194789D01*
X1532890Y1194182D01*
Y1197610D01*
D02*
G37*
G36*
X1549018Y1191006D02*
X1545590D01*
Y1187578D01*
X1547054Y1188185D01*
X1548411Y1189542D01*
X1549018Y1191006D01*
D02*
G37*
G36*
X1543050D02*
X1539622D01*
X1540229Y1189542D01*
X1541586Y1188185D01*
X1543050Y1187578D01*
Y1191006D01*
D02*
G37*
G36*
X1587649Y1153922D02*
X1586335D01*
X1585122Y1153419D01*
X1584193Y1152490D01*
X1583690Y1151277D01*
Y1149963D01*
X1584193Y1148750D01*
X1585122Y1147821D01*
X1586335Y1147318D01*
X1587649D01*
X1588862Y1147821D01*
X1589791Y1148750D01*
X1590294Y1149963D01*
Y1151277D01*
X1589791Y1152490D01*
X1588862Y1153419D01*
X1587649Y1153922D01*
D02*
G37*
G36*
X1583077Y1143762D02*
X1581763D01*
X1580550Y1143259D01*
X1579621Y1142330D01*
X1579118Y1141117D01*
Y1139803D01*
X1579621Y1138590D01*
X1580550Y1137661D01*
X1581763Y1137158D01*
X1583077D01*
X1584290Y1137661D01*
X1585219Y1138590D01*
X1585722Y1139803D01*
Y1141117D01*
X1585219Y1142330D01*
X1584290Y1143259D01*
X1583077Y1143762D01*
D02*
G37*
G36*
X1570182Y1148334D02*
X1568242D01*
X1566369Y1147832D01*
X1564689Y1146862D01*
X1563318Y1145491D01*
X1562348Y1143811D01*
X1561846Y1141938D01*
Y1139998D01*
X1562348Y1138125D01*
X1563318Y1136445D01*
X1564689Y1135074D01*
X1566369Y1134104D01*
X1568242Y1133602D01*
X1570182D01*
X1572055Y1134104D01*
X1573735Y1135074D01*
X1575106Y1136445D01*
X1576076Y1138125D01*
X1576578Y1139998D01*
Y1141938D01*
X1576076Y1143811D01*
X1575106Y1145491D01*
X1573735Y1146862D01*
X1572055Y1147832D01*
X1570182Y1148334D01*
D02*
G37*
G36*
X1544320Y982090D02*
Y978662D01*
X1547748D01*
X1547141Y980126D01*
X1545784Y981483D01*
X1544320Y982090D01*
D02*
G37*
G36*
X1541780D02*
X1540316Y981483D01*
X1538959Y980126D01*
X1538352Y978662D01*
X1541780D01*
Y982090D01*
D02*
G37*
G36*
X1547748Y976122D02*
X1544320D01*
Y972694D01*
X1545784Y973301D01*
X1547141Y974658D01*
X1547748Y976122D01*
D02*
G37*
G36*
X1541780D02*
X1538352D01*
X1538959Y974658D01*
X1540316Y973301D01*
X1541780Y972694D01*
Y976122D01*
D02*
G37*
G36*
X1592563Y973756D02*
X1590311D01*
X1588134Y973173D01*
X1586183Y972047D01*
X1584590Y970453D01*
X1583464Y968503D01*
X1582881Y966326D01*
Y964074D01*
X1583464Y961898D01*
X1584590Y959947D01*
X1586183Y958354D01*
X1588134Y957227D01*
X1590311Y956644D01*
X1592563D01*
X1594740Y957227D01*
X1596691Y958354D01*
X1598284Y959947D01*
X1599410Y961898D01*
X1599993Y964074D01*
Y966326D01*
X1599410Y968503D01*
X1598284Y970453D01*
X1596691Y972047D01*
X1594740Y973173D01*
X1592563Y973756D01*
D02*
G37*
G36*
X1567163D02*
X1564911D01*
X1562735Y973173D01*
X1560784Y972047D01*
X1559191Y970453D01*
X1558064Y968503D01*
X1557481Y966326D01*
Y964074D01*
X1558064Y961898D01*
X1559191Y959947D01*
X1560784Y958354D01*
X1562735Y957227D01*
X1564911Y956644D01*
X1567163D01*
X1569339Y957227D01*
X1571290Y958354D01*
X1572883Y959947D01*
X1574010Y961898D01*
X1574593Y964074D01*
Y966326D01*
X1574010Y968503D01*
X1572883Y970453D01*
X1571290Y972047D01*
X1569339Y973173D01*
X1567163Y973756D01*
D02*
G37*
G36*
X1591840Y955548D02*
X1590526D01*
X1589313Y955045D01*
X1588384Y954116D01*
X1587881Y952903D01*
Y951589D01*
X1588384Y950376D01*
X1589313Y949447D01*
X1589762Y949261D01*
X1589691Y948190D01*
X1588134Y947773D01*
X1586183Y946646D01*
X1584590Y945053D01*
X1583464Y943102D01*
X1582881Y940926D01*
Y938674D01*
X1583464Y936497D01*
X1584590Y934547D01*
X1586183Y932953D01*
X1588134Y931827D01*
X1590311Y931244D01*
X1592563D01*
X1594740Y931827D01*
X1596691Y932953D01*
X1598284Y934547D01*
X1599410Y936497D01*
X1599993Y938674D01*
Y940926D01*
X1599410Y943102D01*
X1598284Y945053D01*
X1596691Y946646D01*
X1594740Y947773D01*
X1592874Y948273D01*
X1592772Y949330D01*
X1593053Y949447D01*
X1593982Y950376D01*
X1594485Y951589D01*
Y952903D01*
X1593982Y954116D01*
X1593053Y955045D01*
X1591840Y955548D01*
D02*
G37*
G36*
X1567163Y948356D02*
X1564911D01*
X1562735Y947773D01*
X1560784Y946646D01*
X1559191Y945053D01*
X1558064Y943102D01*
X1557481Y940926D01*
Y938674D01*
X1558064Y936497D01*
X1559191Y934547D01*
X1560784Y932953D01*
X1562735Y931827D01*
X1564911Y931244D01*
X1567163D01*
X1569339Y931827D01*
X1571290Y932953D01*
X1572883Y934547D01*
X1574010Y936497D01*
X1574593Y938674D01*
Y940926D01*
X1574010Y943102D01*
X1572883Y945053D01*
X1571290Y946646D01*
X1569339Y947773D01*
X1567163Y948356D01*
D02*
G37*
G36*
X1567364Y924480D02*
X1567307D01*
Y915670D01*
X1576117D01*
Y915727D01*
X1575430Y918291D01*
X1574103Y920589D01*
X1572226Y922466D01*
X1569928Y923793D01*
X1567364Y924480D01*
D02*
G37*
G36*
X1564767D02*
X1564710D01*
X1562146Y923793D01*
X1559848Y922466D01*
X1557971Y920589D01*
X1556644Y918291D01*
X1555957Y915727D01*
Y915670D01*
X1564767D01*
Y924480D01*
D02*
G37*
G36*
X1549144Y916047D02*
X1547680Y915441D01*
X1546322Y914083D01*
X1545716Y912619D01*
X1549144D01*
Y916047D01*
D02*
G37*
G36*
Y910079D02*
X1545716D01*
X1546322Y908616D01*
X1547680Y907258D01*
X1549144Y906652D01*
Y910079D01*
D02*
G37*
G36*
X1592563Y922956D02*
X1590311D01*
X1588134Y922373D01*
X1586183Y921246D01*
X1584590Y919653D01*
X1583464Y917702D01*
X1582881Y915526D01*
Y913274D01*
X1583464Y911097D01*
X1584590Y909146D01*
X1586183Y907553D01*
X1588134Y906427D01*
X1590311Y905844D01*
X1592563D01*
X1594740Y906427D01*
X1596691Y907553D01*
X1598284Y909146D01*
X1599410Y911097D01*
X1599993Y913274D01*
Y915526D01*
X1599410Y917702D01*
X1598284Y919653D01*
X1596691Y921246D01*
X1594740Y922373D01*
X1592563Y922956D01*
D02*
G37*
G36*
X1576117Y913130D02*
X1567307D01*
Y904320D01*
X1567364D01*
X1569928Y905007D01*
X1572226Y906334D01*
X1574103Y908211D01*
X1575430Y910509D01*
X1576117Y913073D01*
Y913130D01*
D02*
G37*
G36*
X1551684Y916047D02*
Y911349D01*
Y906652D01*
X1553147Y907258D01*
X1554505Y908616D01*
X1555240Y910389D01*
Y911825D01*
X1556255Y911959D01*
X1556644Y910509D01*
X1557971Y908211D01*
X1559848Y906334D01*
X1562146Y905007D01*
X1564710Y904320D01*
X1564767D01*
Y913130D01*
X1555957D01*
Y913073D01*
X1554989Y912914D01*
X1554505Y914083D01*
X1553147Y915441D01*
X1551684Y916047D01*
D02*
G37*
G36*
X1591840Y903986D02*
X1590526D01*
X1589313Y903483D01*
X1588384Y902554D01*
X1587881Y901341D01*
Y900027D01*
X1588384Y898814D01*
X1588953Y898244D01*
X1588697Y897124D01*
X1588134Y896973D01*
X1586183Y895846D01*
X1584590Y894253D01*
X1583464Y892302D01*
X1582881Y890126D01*
Y887874D01*
X1583464Y885697D01*
X1584590Y883746D01*
X1586183Y882153D01*
X1588134Y881027D01*
X1590311Y880444D01*
X1592563D01*
X1594740Y881027D01*
X1596691Y882153D01*
X1598284Y883746D01*
X1599410Y885697D01*
X1599993Y887874D01*
Y890126D01*
X1599410Y892302D01*
X1598284Y894253D01*
X1596691Y895846D01*
X1594740Y896973D01*
X1593824Y897218D01*
X1593520Y898352D01*
X1593982Y898814D01*
X1594485Y900027D01*
Y901341D01*
X1593982Y902554D01*
X1593053Y903483D01*
X1591840Y903986D01*
D02*
G37*
G36*
X1567163Y897556D02*
X1564911D01*
X1562735Y896973D01*
X1560784Y895846D01*
X1559191Y894253D01*
X1558064Y892302D01*
X1557481Y890126D01*
Y887874D01*
X1558064Y885697D01*
X1559191Y883746D01*
X1560784Y882153D01*
X1562735Y881027D01*
X1564911Y880444D01*
X1567163D01*
X1569339Y881027D01*
X1571290Y882153D01*
X1572883Y883746D01*
X1574010Y885697D01*
X1574593Y887874D01*
Y890126D01*
X1574010Y892302D01*
X1572883Y894253D01*
X1571290Y895846D01*
X1569339Y896973D01*
X1567163Y897556D01*
D02*
G37*
G36*
X1592563Y872156D02*
X1590311D01*
X1588134Y871573D01*
X1586183Y870446D01*
X1584590Y868854D01*
X1583464Y866902D01*
X1583196Y865901D01*
X1582961Y865788D01*
X1582086Y865683D01*
X1581369Y866399D01*
X1580156Y866902D01*
X1578842D01*
X1577629Y866399D01*
X1576700Y865470D01*
X1576197Y864257D01*
Y862943D01*
X1576700Y861730D01*
X1577629Y860801D01*
X1578842Y860298D01*
X1580156D01*
X1581369Y860801D01*
X1582086Y861517D01*
X1582961Y861412D01*
X1583196Y861299D01*
X1583464Y860297D01*
X1584590Y858346D01*
X1586183Y856753D01*
X1588134Y855627D01*
X1590311Y855044D01*
X1592563D01*
X1594740Y855627D01*
X1596691Y856753D01*
X1598284Y858346D01*
X1599410Y860297D01*
X1599993Y862474D01*
Y864726D01*
X1599410Y866902D01*
X1598284Y868854D01*
X1596691Y870446D01*
X1594740Y871573D01*
X1592563Y872156D01*
D02*
G37*
G36*
Y846756D02*
X1590311D01*
X1588134Y846173D01*
X1586183Y845046D01*
X1584590Y843454D01*
X1583464Y841503D01*
X1583147Y840318D01*
X1582076Y840248D01*
X1582044Y840324D01*
X1581115Y841253D01*
X1579902Y841756D01*
X1578588D01*
X1577375Y841253D01*
X1576446Y840324D01*
X1575943Y839111D01*
Y837797D01*
X1576446Y836584D01*
X1577375Y835655D01*
X1578588Y835152D01*
X1579902D01*
X1581115Y835655D01*
X1581978Y836517D01*
X1582403Y836516D01*
X1583064Y836391D01*
X1583464Y834898D01*
X1584590Y832946D01*
X1586183Y831354D01*
X1588134Y830227D01*
X1590311Y829644D01*
X1592563D01*
X1594740Y830227D01*
X1596691Y831354D01*
X1598284Y832946D01*
X1599410Y834898D01*
X1599993Y837074D01*
Y839326D01*
X1599410Y841503D01*
X1598284Y843454D01*
X1596691Y845046D01*
X1594740Y846173D01*
X1592563Y846756D01*
D02*
G37*
G36*
X1546606Y841120D02*
Y837692D01*
X1550034D01*
X1549427Y839156D01*
X1548070Y840513D01*
X1546606Y841120D01*
D02*
G37*
G36*
X1544066D02*
X1542602Y840513D01*
X1541245Y839156D01*
X1540638Y837692D01*
X1544066D01*
Y841120D01*
D02*
G37*
G36*
X1550034Y835152D02*
X1546606D01*
Y831724D01*
X1548070Y832331D01*
X1549427Y833688D01*
X1550034Y835152D01*
D02*
G37*
G36*
X1544066D02*
X1540638D01*
X1541245Y833688D01*
X1542602Y832331D01*
X1544066Y831724D01*
Y835152D01*
D02*
G37*
G36*
X1567163Y846756D02*
X1564911D01*
X1562735Y846173D01*
X1560784Y845046D01*
X1559191Y843454D01*
X1558064Y841503D01*
X1557481Y839326D01*
Y837074D01*
X1558064Y834898D01*
X1559191Y832946D01*
X1560784Y831354D01*
X1562735Y830227D01*
X1564911Y829644D01*
X1567163D01*
X1569339Y830227D01*
X1571290Y831354D01*
X1572883Y832946D01*
X1574010Y834898D01*
X1574593Y837074D01*
Y839326D01*
X1574010Y841503D01*
X1572883Y843454D01*
X1571290Y845046D01*
X1569339Y846173D01*
X1567163Y846756D01*
D02*
G37*
G36*
X1592563Y821356D02*
X1590311D01*
X1588134Y820773D01*
X1586183Y819647D01*
X1584590Y818054D01*
X1583464Y816103D01*
X1582881Y813926D01*
Y811674D01*
X1583464Y809498D01*
X1584590Y807546D01*
X1586183Y805954D01*
X1588134Y804827D01*
X1590311Y804244D01*
X1592563D01*
X1594740Y804827D01*
X1596691Y805954D01*
X1598284Y807546D01*
X1599410Y809498D01*
X1599993Y811674D01*
Y813926D01*
X1599410Y816103D01*
X1598284Y818054D01*
X1596691Y819647D01*
X1594740Y820773D01*
X1592563Y821356D01*
D02*
G37*
G36*
X1567163D02*
X1564911D01*
X1562735Y820773D01*
X1560784Y819647D01*
X1559191Y818054D01*
X1558064Y816103D01*
X1557481Y813926D01*
Y811674D01*
X1558064Y809498D01*
X1559191Y807546D01*
X1560784Y805954D01*
X1562735Y804827D01*
X1564911Y804244D01*
X1567163D01*
X1569339Y804827D01*
X1571290Y805954D01*
X1572883Y807546D01*
X1574010Y809498D01*
X1574593Y811674D01*
Y813926D01*
X1574010Y816103D01*
X1572883Y818054D01*
X1571290Y819647D01*
X1569339Y820773D01*
X1567163Y821356D01*
D02*
G37*
G36*
X1562227Y799464D02*
Y796036D01*
X1565655D01*
X1565048Y797500D01*
X1563691Y798857D01*
X1562227Y799464D01*
D02*
G37*
G36*
X1559687D02*
X1558223Y798857D01*
X1556866Y797500D01*
X1556259Y796036D01*
X1559687D01*
Y799464D01*
D02*
G37*
G36*
X1565655Y793496D02*
X1562227D01*
Y790068D01*
X1563691Y790675D01*
X1565048Y792032D01*
X1565655Y793496D01*
D02*
G37*
G36*
X1559687D02*
X1556259D01*
X1556866Y792032D01*
X1558223Y790675D01*
X1559687Y790068D01*
Y793496D01*
D02*
G37*
G36*
X1592834Y771524D02*
Y768096D01*
X1596262D01*
X1595655Y769560D01*
X1594298Y770917D01*
X1592834Y771524D01*
D02*
G37*
G36*
X1590294D02*
X1588830Y770917D01*
X1587473Y769560D01*
X1586866Y768096D01*
X1590294D01*
Y771524D01*
D02*
G37*
G36*
X1596262Y765556D02*
X1592834D01*
Y762128D01*
X1594298Y762735D01*
X1595655Y764092D01*
X1596262Y765556D01*
D02*
G37*
G36*
X1590294D02*
X1586866D01*
X1587473Y764092D01*
X1588830Y762735D01*
X1590294Y762128D01*
Y765556D01*
D02*
G37*
G36*
X1612392Y762380D02*
Y758952D01*
X1615820D01*
X1615213Y760416D01*
X1613856Y761773D01*
X1612392Y762380D01*
D02*
G37*
G36*
X1609852D02*
X1608388Y761773D01*
X1607031Y760416D01*
X1606424Y758952D01*
X1609852D01*
Y762380D01*
D02*
G37*
G36*
X1550162Y760602D02*
Y757174D01*
X1553590D01*
X1552983Y758638D01*
X1551626Y759995D01*
X1550162Y760602D01*
D02*
G37*
G36*
X1547622D02*
X1546158Y759995D01*
X1544801Y758638D01*
X1544194Y757174D01*
X1547622D01*
Y760602D01*
D02*
G37*
G36*
X1615820Y756412D02*
X1612392D01*
Y752984D01*
X1613856Y753591D01*
X1615213Y754948D01*
X1615820Y756412D01*
D02*
G37*
G36*
X1609852D02*
X1606424D01*
X1607031Y754948D01*
X1608388Y753591D01*
X1609852Y752984D01*
Y756412D01*
D02*
G37*
G36*
X1553590Y754634D02*
X1550162D01*
Y751206D01*
X1551626Y751813D01*
X1552983Y753170D01*
X1553590Y754634D01*
D02*
G37*
G36*
X1547622D02*
X1544194D01*
X1544801Y753170D01*
X1546158Y751813D01*
X1547622Y751206D01*
Y754634D01*
D02*
G37*
G36*
X1561741Y756920D02*
X1560427D01*
X1559214Y756417D01*
X1558285Y755488D01*
X1557782Y754275D01*
Y752961D01*
X1558285Y751748D01*
X1559214Y750819D01*
X1560427Y750316D01*
X1561741D01*
X1562954Y750819D01*
X1563883Y751748D01*
X1564386Y752961D01*
Y754275D01*
X1563883Y755488D01*
X1562954Y756417D01*
X1561741Y756920D01*
D02*
G37*
G36*
X1398020Y1223827D02*
X1396706D01*
X1395493Y1223324D01*
X1394564Y1222395D01*
X1394061Y1221182D01*
Y1219868D01*
X1394564Y1218655D01*
X1395493Y1217726D01*
X1396706Y1217223D01*
X1398020D01*
X1399233Y1217726D01*
X1400162Y1218655D01*
X1400665Y1219868D01*
Y1221182D01*
X1400162Y1222395D01*
X1399233Y1223324D01*
X1398020Y1223827D01*
D02*
G37*
G36*
Y1215827D02*
X1396706D01*
X1395493Y1215324D01*
X1394564Y1214396D01*
X1394061Y1213182D01*
Y1211868D01*
X1394564Y1210655D01*
X1395493Y1209726D01*
X1396706Y1209223D01*
X1398020D01*
X1399233Y1209726D01*
X1400162Y1210655D01*
X1400665Y1211868D01*
Y1213182D01*
X1400162Y1214396D01*
X1399233Y1215324D01*
X1398020Y1215827D01*
D02*
G37*
G36*
X1446020Y1199827D02*
X1444706D01*
X1443492Y1199324D01*
X1442564Y1198396D01*
X1442061Y1197182D01*
Y1195868D01*
X1442564Y1194655D01*
X1443492Y1193726D01*
X1444706Y1193223D01*
X1446020D01*
X1447233Y1193726D01*
X1448162Y1194655D01*
X1448665Y1195868D01*
Y1197182D01*
X1448162Y1198396D01*
X1447233Y1199324D01*
X1446020Y1199827D01*
D02*
G37*
G36*
X1438020D02*
X1436706D01*
X1435493Y1199324D01*
X1434564Y1198396D01*
X1434061Y1197182D01*
Y1195868D01*
X1434564Y1194655D01*
X1435493Y1193726D01*
X1436706Y1193223D01*
X1438020D01*
X1439233Y1193726D01*
X1440162Y1194655D01*
X1440665Y1195868D01*
Y1197182D01*
X1440162Y1198396D01*
X1439233Y1199324D01*
X1438020Y1199827D01*
D02*
G37*
G36*
X1414020D02*
X1412706D01*
X1411492Y1199324D01*
X1410564Y1198396D01*
X1410061Y1197182D01*
Y1195868D01*
X1410564Y1194655D01*
X1411492Y1193726D01*
X1412706Y1193223D01*
X1414020D01*
X1415233Y1193726D01*
X1416162Y1194655D01*
X1416665Y1195868D01*
Y1197182D01*
X1416162Y1198396D01*
X1415233Y1199324D01*
X1414020Y1199827D01*
D02*
G37*
G36*
X1406020D02*
X1404706D01*
X1403492Y1199324D01*
X1402564Y1198396D01*
X1402061Y1197182D01*
Y1195868D01*
X1402564Y1194655D01*
X1403492Y1193726D01*
X1404706Y1193223D01*
X1406020D01*
X1407233Y1193726D01*
X1408162Y1194655D01*
X1408665Y1195868D01*
Y1197182D01*
X1408162Y1198396D01*
X1407233Y1199324D01*
X1406020Y1199827D01*
D02*
G37*
G36*
X1398020D02*
X1396706D01*
X1395493Y1199324D01*
X1394564Y1198396D01*
X1394061Y1197182D01*
Y1195868D01*
X1394564Y1194655D01*
X1395493Y1193726D01*
X1396706Y1193223D01*
X1398020D01*
X1399233Y1193726D01*
X1400162Y1194655D01*
X1400665Y1195868D01*
Y1197182D01*
X1400162Y1198396D01*
X1399233Y1199324D01*
X1398020Y1199827D01*
D02*
G37*
G36*
X1390020D02*
X1388706D01*
X1387493Y1199324D01*
X1386564Y1198396D01*
X1386061Y1197182D01*
Y1195868D01*
X1386564Y1194655D01*
X1387493Y1193726D01*
X1388706Y1193223D01*
X1390020D01*
X1391233Y1193726D01*
X1392162Y1194655D01*
X1392665Y1195868D01*
Y1197182D01*
X1392162Y1198396D01*
X1391233Y1199324D01*
X1390020Y1199827D01*
D02*
G37*
G36*
X1382020D02*
X1380706D01*
X1379493Y1199324D01*
X1378564Y1198396D01*
X1378061Y1197182D01*
Y1195868D01*
X1378564Y1194655D01*
X1379493Y1193726D01*
X1380706Y1193223D01*
X1382020D01*
X1383233Y1193726D01*
X1384162Y1194655D01*
X1384665Y1195868D01*
Y1197182D01*
X1384162Y1198396D01*
X1383233Y1199324D01*
X1382020Y1199827D01*
D02*
G37*
G36*
X1414020Y1191827D02*
X1412706D01*
X1411492Y1191324D01*
X1410564Y1190396D01*
X1410061Y1189182D01*
Y1187868D01*
X1410564Y1186655D01*
X1411492Y1185726D01*
X1412706Y1185223D01*
X1414020D01*
X1415233Y1185726D01*
X1416162Y1186655D01*
X1416665Y1187868D01*
Y1189182D01*
X1416162Y1190396D01*
X1415233Y1191324D01*
X1414020Y1191827D01*
D02*
G37*
G36*
X1406020D02*
X1404706D01*
X1403492Y1191324D01*
X1402564Y1190396D01*
X1402061Y1189182D01*
Y1187868D01*
X1402564Y1186655D01*
X1403492Y1185726D01*
X1404706Y1185223D01*
X1406020D01*
X1407233Y1185726D01*
X1408162Y1186655D01*
X1408665Y1187868D01*
Y1189182D01*
X1408162Y1190396D01*
X1407233Y1191324D01*
X1406020Y1191827D01*
D02*
G37*
G36*
X1398020D02*
X1396706D01*
X1395493Y1191324D01*
X1394564Y1190396D01*
X1394061Y1189182D01*
Y1187868D01*
X1394564Y1186655D01*
X1395493Y1185726D01*
X1396706Y1185223D01*
X1398020D01*
X1399233Y1185726D01*
X1400162Y1186655D01*
X1400665Y1187868D01*
Y1189182D01*
X1400162Y1190396D01*
X1399233Y1191324D01*
X1398020Y1191827D01*
D02*
G37*
G36*
X1390020D02*
X1388706D01*
X1387493Y1191324D01*
X1386564Y1190396D01*
X1386061Y1189182D01*
Y1187868D01*
X1386564Y1186655D01*
X1387493Y1185726D01*
X1388706Y1185223D01*
X1390020D01*
X1391233Y1185726D01*
X1392162Y1186655D01*
X1392665Y1187868D01*
Y1189182D01*
X1392162Y1190396D01*
X1391233Y1191324D01*
X1390020Y1191827D01*
D02*
G37*
G36*
X1382020D02*
X1380706D01*
X1379493Y1191324D01*
X1378564Y1190396D01*
X1378061Y1189182D01*
Y1187868D01*
X1378564Y1186655D01*
X1379493Y1185726D01*
X1380706Y1185223D01*
X1382020D01*
X1383233Y1185726D01*
X1384162Y1186655D01*
X1384665Y1187868D01*
Y1189182D01*
X1384162Y1190396D01*
X1383233Y1191324D01*
X1382020Y1191827D01*
D02*
G37*
G36*
X1414020Y1183827D02*
X1412706D01*
X1411492Y1183325D01*
X1410564Y1182396D01*
X1410061Y1181182D01*
Y1179868D01*
X1410564Y1178655D01*
X1411492Y1177726D01*
X1412706Y1177223D01*
X1414020D01*
X1415233Y1177726D01*
X1416162Y1178655D01*
X1416665Y1179868D01*
Y1181182D01*
X1416162Y1182396D01*
X1415233Y1183325D01*
X1414020Y1183827D01*
D02*
G37*
G36*
X1406020D02*
X1404706D01*
X1403492Y1183325D01*
X1402564Y1182396D01*
X1402061Y1181182D01*
Y1179868D01*
X1402564Y1178655D01*
X1403492Y1177726D01*
X1404706Y1177223D01*
X1406020D01*
X1407233Y1177726D01*
X1408162Y1178655D01*
X1408665Y1179868D01*
Y1181182D01*
X1408162Y1182396D01*
X1407233Y1183325D01*
X1406020Y1183827D01*
D02*
G37*
G36*
X1398020D02*
X1396706D01*
X1395493Y1183325D01*
X1394564Y1182396D01*
X1394061Y1181182D01*
Y1179868D01*
X1394564Y1178655D01*
X1395493Y1177726D01*
X1396706Y1177223D01*
X1398020D01*
X1399233Y1177726D01*
X1400162Y1178655D01*
X1400665Y1179868D01*
Y1181182D01*
X1400162Y1182396D01*
X1399233Y1183325D01*
X1398020Y1183827D01*
D02*
G37*
G36*
X1390020D02*
X1388706D01*
X1387493Y1183325D01*
X1386564Y1182396D01*
X1386061Y1181182D01*
Y1179868D01*
X1386564Y1178655D01*
X1387493Y1177726D01*
X1388706Y1177223D01*
X1390020D01*
X1391233Y1177726D01*
X1392162Y1178655D01*
X1392665Y1179868D01*
Y1181182D01*
X1392162Y1182396D01*
X1391233Y1183325D01*
X1390020Y1183827D01*
D02*
G37*
G36*
X1382020D02*
X1380706D01*
X1379493Y1183325D01*
X1378564Y1182396D01*
X1378061Y1181182D01*
Y1179868D01*
X1378564Y1178655D01*
X1379493Y1177726D01*
X1380706Y1177223D01*
X1382020D01*
X1383233Y1177726D01*
X1384162Y1178655D01*
X1384665Y1179868D01*
Y1181182D01*
X1384162Y1182396D01*
X1383233Y1183325D01*
X1382020Y1183827D01*
D02*
G37*
G36*
X1414020Y1167827D02*
X1412706D01*
X1411492Y1167325D01*
X1410564Y1166396D01*
X1410061Y1165182D01*
Y1163868D01*
X1410564Y1162655D01*
X1411492Y1161726D01*
X1412706Y1161223D01*
X1414020D01*
X1415233Y1161726D01*
X1416162Y1162655D01*
X1416665Y1163868D01*
Y1165182D01*
X1416162Y1166396D01*
X1415233Y1167325D01*
X1414020Y1167827D01*
D02*
G37*
G36*
X1406020D02*
X1404706D01*
X1403492Y1167325D01*
X1402564Y1166396D01*
X1402061Y1165182D01*
Y1163868D01*
X1402564Y1162655D01*
X1403492Y1161726D01*
X1404706Y1161223D01*
X1406020D01*
X1407233Y1161726D01*
X1408162Y1162655D01*
X1408665Y1163868D01*
Y1165182D01*
X1408162Y1166396D01*
X1407233Y1167325D01*
X1406020Y1167827D01*
D02*
G37*
G36*
X1398020D02*
X1396706D01*
X1395493Y1167325D01*
X1394564Y1166396D01*
X1394061Y1165182D01*
Y1163868D01*
X1394564Y1162655D01*
X1395493Y1161726D01*
X1396706Y1161223D01*
X1398020D01*
X1399233Y1161726D01*
X1400162Y1162655D01*
X1400665Y1163868D01*
Y1165182D01*
X1400162Y1166396D01*
X1399233Y1167325D01*
X1398020Y1167827D01*
D02*
G37*
G36*
X1390020D02*
X1388706D01*
X1387493Y1167325D01*
X1386564Y1166396D01*
X1386061Y1165182D01*
Y1163868D01*
X1386564Y1162655D01*
X1387493Y1161726D01*
X1388706Y1161223D01*
X1390020D01*
X1391233Y1161726D01*
X1392162Y1162655D01*
X1392665Y1163868D01*
Y1165182D01*
X1392162Y1166396D01*
X1391233Y1167325D01*
X1390020Y1167827D01*
D02*
G37*
G36*
X1382020D02*
X1380706D01*
X1379493Y1167325D01*
X1378564Y1166396D01*
X1378061Y1165182D01*
Y1163868D01*
X1378564Y1162655D01*
X1379493Y1161726D01*
X1380706Y1161223D01*
X1382020D01*
X1383233Y1161726D01*
X1384162Y1162655D01*
X1384665Y1163868D01*
Y1165182D01*
X1384162Y1166396D01*
X1383233Y1167325D01*
X1382020Y1167827D01*
D02*
G37*
G36*
X1414020Y1159827D02*
X1412706D01*
X1411492Y1159325D01*
X1410564Y1158396D01*
X1410061Y1157182D01*
Y1155868D01*
X1410564Y1154655D01*
X1411492Y1153726D01*
X1412706Y1153223D01*
X1414020D01*
X1415233Y1153726D01*
X1416162Y1154655D01*
X1416665Y1155868D01*
Y1157182D01*
X1416162Y1158396D01*
X1415233Y1159325D01*
X1414020Y1159827D01*
D02*
G37*
G36*
X1406020D02*
X1404706D01*
X1403492Y1159325D01*
X1402564Y1158396D01*
X1402061Y1157182D01*
Y1155868D01*
X1402564Y1154655D01*
X1403492Y1153726D01*
X1404706Y1153223D01*
X1406020D01*
X1407233Y1153726D01*
X1408162Y1154655D01*
X1408665Y1155868D01*
Y1157182D01*
X1408162Y1158396D01*
X1407233Y1159325D01*
X1406020Y1159827D01*
D02*
G37*
G36*
X1398020D02*
X1396706D01*
X1395493Y1159325D01*
X1394564Y1158396D01*
X1394061Y1157182D01*
Y1155868D01*
X1394564Y1154655D01*
X1395493Y1153726D01*
X1396706Y1153223D01*
X1398020D01*
X1399233Y1153726D01*
X1400162Y1154655D01*
X1400665Y1155868D01*
Y1157182D01*
X1400162Y1158396D01*
X1399233Y1159325D01*
X1398020Y1159827D01*
D02*
G37*
G36*
X1390020D02*
X1388706D01*
X1387493Y1159325D01*
X1386564Y1158396D01*
X1386061Y1157182D01*
Y1155868D01*
X1386564Y1154655D01*
X1387493Y1153726D01*
X1388706Y1153223D01*
X1390020D01*
X1391233Y1153726D01*
X1392162Y1154655D01*
X1392665Y1155868D01*
Y1157182D01*
X1392162Y1158396D01*
X1391233Y1159325D01*
X1390020Y1159827D01*
D02*
G37*
G36*
X1382020D02*
X1380706D01*
X1379493Y1159325D01*
X1378564Y1158396D01*
X1378061Y1157182D01*
Y1155868D01*
X1378564Y1154655D01*
X1379493Y1153726D01*
X1380706Y1153223D01*
X1382020D01*
X1383233Y1153726D01*
X1384162Y1154655D01*
X1384665Y1155868D01*
Y1157182D01*
X1384162Y1158396D01*
X1383233Y1159325D01*
X1382020Y1159827D01*
D02*
G37*
G36*
X1422020Y1143827D02*
X1420706D01*
X1419492Y1143325D01*
X1418564Y1142396D01*
X1418061Y1141182D01*
Y1139868D01*
X1418564Y1138655D01*
X1419492Y1137726D01*
X1420706Y1137223D01*
X1422020D01*
X1423233Y1137726D01*
X1424162Y1138655D01*
X1424665Y1139868D01*
Y1141182D01*
X1424162Y1142396D01*
X1423233Y1143325D01*
X1422020Y1143827D01*
D02*
G37*
G36*
X1414020D02*
X1412706D01*
X1411492Y1143325D01*
X1410564Y1142396D01*
X1410061Y1141182D01*
Y1139868D01*
X1410564Y1138655D01*
X1411492Y1137726D01*
X1412706Y1137223D01*
X1414020D01*
X1415233Y1137726D01*
X1416162Y1138655D01*
X1416665Y1139868D01*
Y1141182D01*
X1416162Y1142396D01*
X1415233Y1143325D01*
X1414020Y1143827D01*
D02*
G37*
G36*
X1422020Y1135827D02*
X1420706D01*
X1419492Y1135325D01*
X1418564Y1134396D01*
X1418061Y1133182D01*
Y1131869D01*
X1418564Y1130655D01*
X1419492Y1129726D01*
X1420706Y1129223D01*
X1422020D01*
X1423233Y1129726D01*
X1424162Y1130655D01*
X1424665Y1131869D01*
Y1133182D01*
X1424162Y1134396D01*
X1423233Y1135325D01*
X1422020Y1135827D01*
D02*
G37*
G36*
X1414020D02*
X1412706D01*
X1411492Y1135325D01*
X1410564Y1134396D01*
X1410061Y1133182D01*
Y1131869D01*
X1410564Y1130655D01*
X1411492Y1129726D01*
X1412706Y1129223D01*
X1414020D01*
X1415233Y1129726D01*
X1416162Y1130655D01*
X1416665Y1131869D01*
Y1133182D01*
X1416162Y1134396D01*
X1415233Y1135325D01*
X1414020Y1135827D01*
D02*
G37*
G36*
Y1127827D02*
X1412706D01*
X1411492Y1127325D01*
X1410564Y1126396D01*
X1410061Y1125182D01*
Y1123868D01*
X1410564Y1122655D01*
X1411492Y1121726D01*
X1412706Y1121223D01*
X1414020D01*
X1415233Y1121726D01*
X1416162Y1122655D01*
X1416665Y1123868D01*
Y1125182D01*
X1416162Y1126396D01*
X1415233Y1127325D01*
X1414020Y1127827D01*
D02*
G37*
G36*
Y1119827D02*
X1412706D01*
X1411492Y1119325D01*
X1410564Y1118396D01*
X1410061Y1117182D01*
Y1115869D01*
X1410564Y1114655D01*
X1411492Y1113726D01*
X1412706Y1113223D01*
X1414020D01*
X1415233Y1113726D01*
X1416162Y1114655D01*
X1416665Y1115869D01*
Y1117182D01*
X1416162Y1118396D01*
X1415233Y1119325D01*
X1414020Y1119827D01*
D02*
G37*
G36*
Y1111827D02*
X1412706D01*
X1411492Y1111325D01*
X1410564Y1110396D01*
X1410061Y1109182D01*
Y1107868D01*
X1410564Y1106655D01*
X1411492Y1105726D01*
X1412706Y1105223D01*
X1414020D01*
X1415233Y1105726D01*
X1416162Y1106655D01*
X1416665Y1107868D01*
Y1109182D01*
X1416162Y1110396D01*
X1415233Y1111325D01*
X1414020Y1111827D01*
D02*
G37*
G36*
Y1103827D02*
X1412706D01*
X1411492Y1103325D01*
X1410564Y1102396D01*
X1410061Y1101182D01*
Y1099868D01*
X1410564Y1098655D01*
X1411492Y1097726D01*
X1412706Y1097223D01*
X1414020D01*
X1415233Y1097726D01*
X1416162Y1098655D01*
X1416665Y1099868D01*
Y1101182D01*
X1416162Y1102396D01*
X1415233Y1103325D01*
X1414020Y1103827D01*
D02*
G37*
G36*
X1408325Y1065598D02*
X1407011D01*
X1405798Y1065095D01*
X1404869Y1064166D01*
X1404366Y1062953D01*
Y1061639D01*
X1404869Y1060426D01*
X1405798Y1059497D01*
X1407011Y1058994D01*
X1408325D01*
X1409538Y1059497D01*
X1410467Y1060426D01*
X1410970Y1061639D01*
Y1062953D01*
X1410467Y1064166D01*
X1409538Y1065095D01*
X1408325Y1065598D01*
D02*
G37*
G36*
X1405277Y995172D02*
X1403963D01*
X1402750Y994669D01*
X1401821Y993740D01*
X1401318Y992527D01*
Y991213D01*
X1401821Y990000D01*
X1402750Y989071D01*
X1403963Y988568D01*
X1405277D01*
X1406490Y989071D01*
X1407419Y990000D01*
X1407922Y991213D01*
Y992527D01*
X1407419Y993740D01*
X1406490Y994669D01*
X1405277Y995172D01*
D02*
G37*
G36*
X1382020Y1143827D02*
X1380706D01*
X1379493Y1143325D01*
X1378564Y1142396D01*
X1378061Y1141182D01*
Y1139868D01*
X1378564Y1138655D01*
X1379493Y1137726D01*
X1380706Y1137223D01*
X1382020D01*
X1383233Y1137726D01*
X1384162Y1138655D01*
X1384665Y1139868D01*
Y1141182D01*
X1384162Y1142396D01*
X1383233Y1143325D01*
X1382020Y1143827D01*
D02*
G37*
G36*
X1374020D02*
X1372706D01*
X1371493Y1143325D01*
X1370564Y1142396D01*
X1370061Y1141182D01*
Y1139868D01*
X1370564Y1138655D01*
X1371493Y1137726D01*
X1372706Y1137223D01*
X1374020D01*
X1375233Y1137726D01*
X1376162Y1138655D01*
X1376665Y1139868D01*
Y1141182D01*
X1376162Y1142396D01*
X1375233Y1143325D01*
X1374020Y1143827D01*
D02*
G37*
G36*
X1382020Y1135827D02*
X1380706D01*
X1379493Y1135325D01*
X1378564Y1134396D01*
X1378061Y1133182D01*
Y1131869D01*
X1378564Y1130655D01*
X1379493Y1129726D01*
X1380706Y1129223D01*
X1382020D01*
X1383233Y1129726D01*
X1384162Y1130655D01*
X1384665Y1131869D01*
Y1133182D01*
X1384162Y1134396D01*
X1383233Y1135325D01*
X1382020Y1135827D01*
D02*
G37*
G36*
X1374020D02*
X1372706D01*
X1371493Y1135325D01*
X1370564Y1134396D01*
X1370061Y1133182D01*
Y1131869D01*
X1370564Y1130655D01*
X1371493Y1129726D01*
X1372706Y1129223D01*
X1374020D01*
X1375233Y1129726D01*
X1376162Y1130655D01*
X1376665Y1131869D01*
Y1133182D01*
X1376162Y1134396D01*
X1375233Y1135325D01*
X1374020Y1135827D01*
D02*
G37*
G36*
X1382020Y1127827D02*
X1380706D01*
X1379493Y1127325D01*
X1378564Y1126396D01*
X1378061Y1125182D01*
Y1123868D01*
X1378564Y1122655D01*
X1379493Y1121726D01*
X1380706Y1121223D01*
X1382020D01*
X1383233Y1121726D01*
X1384162Y1122655D01*
X1384665Y1123868D01*
Y1125182D01*
X1384162Y1126396D01*
X1383233Y1127325D01*
X1382020Y1127827D01*
D02*
G37*
G36*
X1374020D02*
X1372706D01*
X1371493Y1127325D01*
X1370564Y1126396D01*
X1370061Y1125182D01*
Y1123868D01*
X1370564Y1122655D01*
X1371493Y1121726D01*
X1372706Y1121223D01*
X1374020D01*
X1375233Y1121726D01*
X1376162Y1122655D01*
X1376665Y1123868D01*
Y1125182D01*
X1376162Y1126396D01*
X1375233Y1127325D01*
X1374020Y1127827D01*
D02*
G37*
G36*
X1382020Y1119827D02*
X1380706D01*
X1379493Y1119325D01*
X1378564Y1118396D01*
X1378061Y1117182D01*
Y1115869D01*
X1378564Y1114655D01*
X1379493Y1113726D01*
X1380706Y1113223D01*
X1382020D01*
X1383233Y1113726D01*
X1384162Y1114655D01*
X1384665Y1115869D01*
Y1117182D01*
X1384162Y1118396D01*
X1383233Y1119325D01*
X1382020Y1119827D01*
D02*
G37*
G36*
X1374020D02*
X1372706D01*
X1371493Y1119325D01*
X1370564Y1118396D01*
X1370061Y1117182D01*
Y1115869D01*
X1370564Y1114655D01*
X1371493Y1113726D01*
X1372706Y1113223D01*
X1374020D01*
X1375233Y1113726D01*
X1376162Y1114655D01*
X1376665Y1115869D01*
Y1117182D01*
X1376162Y1118396D01*
X1375233Y1119325D01*
X1374020Y1119827D01*
D02*
G37*
G36*
X1382020Y1111827D02*
X1380706D01*
X1379493Y1111325D01*
X1378564Y1110396D01*
X1378061Y1109182D01*
Y1107868D01*
X1378564Y1106655D01*
X1379493Y1105726D01*
X1380706Y1105223D01*
X1382020D01*
X1383233Y1105726D01*
X1384162Y1106655D01*
X1384665Y1107868D01*
Y1109182D01*
X1384162Y1110396D01*
X1383233Y1111325D01*
X1382020Y1111827D01*
D02*
G37*
G36*
X1374020D02*
X1372706D01*
X1371493Y1111325D01*
X1370564Y1110396D01*
X1370061Y1109182D01*
Y1107868D01*
X1370564Y1106655D01*
X1371493Y1105726D01*
X1372706Y1105223D01*
X1374020D01*
X1375233Y1105726D01*
X1376162Y1106655D01*
X1376665Y1107868D01*
Y1109182D01*
X1376162Y1110396D01*
X1375233Y1111325D01*
X1374020Y1111827D01*
D02*
G37*
G36*
X1382020Y1103827D02*
X1380706D01*
X1379493Y1103325D01*
X1378564Y1102396D01*
X1378061Y1101182D01*
Y1099868D01*
X1378564Y1098655D01*
X1379493Y1097726D01*
X1380706Y1097223D01*
X1382020D01*
X1383233Y1097726D01*
X1384162Y1098655D01*
X1384665Y1099868D01*
Y1101182D01*
X1384162Y1102396D01*
X1383233Y1103325D01*
X1382020Y1103827D01*
D02*
G37*
G36*
X1374020D02*
X1372706D01*
X1371493Y1103325D01*
X1370564Y1102396D01*
X1370061Y1101182D01*
Y1099868D01*
X1370564Y1098655D01*
X1371493Y1097726D01*
X1372706Y1097223D01*
X1374020D01*
X1375233Y1097726D01*
X1376162Y1098655D01*
X1376665Y1099868D01*
Y1101182D01*
X1376162Y1102396D01*
X1375233Y1103325D01*
X1374020Y1103827D01*
D02*
G37*
G36*
X1377591Y1062736D02*
X1376277D01*
X1375064Y1062233D01*
X1374135Y1061304D01*
X1373632Y1060091D01*
Y1058777D01*
X1374135Y1057564D01*
X1375064Y1056635D01*
X1376277Y1056132D01*
X1377591D01*
X1378804Y1056635D01*
X1379733Y1057564D01*
X1380236Y1058777D01*
Y1060091D01*
X1379733Y1061304D01*
X1378804Y1062233D01*
X1377591Y1062736D01*
D02*
G37*
G36*
X1351000Y1007783D02*
X1349686D01*
X1348473Y1007280D01*
X1347544Y1006351D01*
X1347041Y1005138D01*
Y1003824D01*
X1347544Y1002611D01*
X1348473Y1001682D01*
X1349686Y1001179D01*
X1351000D01*
X1352214Y1001682D01*
X1353143Y1002611D01*
X1353645Y1003824D01*
Y1005138D01*
X1353143Y1006351D01*
X1352214Y1007280D01*
X1351000Y1007783D01*
D02*
G37*
G36*
X1169339Y1414177D02*
Y1410749D01*
X1172767D01*
X1172160Y1412213D01*
X1170803Y1413571D01*
X1169339Y1414177D01*
D02*
G37*
G36*
X1166799D02*
X1165335Y1413571D01*
X1163978Y1412213D01*
X1163372Y1410749D01*
X1166799D01*
Y1414177D01*
D02*
G37*
G36*
X1172767Y1408209D02*
X1169339D01*
Y1404782D01*
X1170803Y1405388D01*
X1172160Y1406746D01*
X1172767Y1408209D01*
D02*
G37*
G36*
X1166799D02*
X1163372D01*
X1163978Y1406746D01*
X1165335Y1405388D01*
X1166799Y1404782D01*
Y1408209D01*
D02*
G37*
G36*
X1702562Y1406906D02*
X1699134D01*
X1699741Y1405442D01*
X1701098Y1404085D01*
X1702562Y1403478D01*
Y1406906D01*
D02*
G37*
G36*
X1168164Y1397341D02*
X1166850D01*
X1165637Y1396839D01*
X1164708Y1395910D01*
X1164205Y1394696D01*
Y1393382D01*
X1164708Y1392169D01*
X1165637Y1391240D01*
X1166850Y1390737D01*
X1168164D01*
X1169378Y1391240D01*
X1170306Y1392169D01*
X1170809Y1393382D01*
Y1394696D01*
X1170306Y1395910D01*
X1169378Y1396839D01*
X1168164Y1397341D01*
D02*
G37*
G36*
X1704958Y1386816D02*
X1703644D01*
X1702431Y1386313D01*
X1701502Y1385384D01*
X1700999Y1384170D01*
Y1382857D01*
X1701502Y1381643D01*
X1702431Y1380714D01*
X1703644Y1380212D01*
X1704958D01*
X1706172Y1380714D01*
X1707100Y1381643D01*
X1707603Y1382857D01*
Y1384170D01*
X1707100Y1385384D01*
X1706172Y1386313D01*
X1704958Y1386816D01*
D02*
G37*
G36*
X1168295Y1372616D02*
X1166981D01*
X1165768Y1372113D01*
X1164839Y1371184D01*
X1164336Y1369971D01*
Y1368657D01*
X1164839Y1367444D01*
X1165768Y1366515D01*
X1166981Y1366012D01*
X1168295D01*
X1169508Y1366515D01*
X1170437Y1367444D01*
X1170940Y1368657D01*
Y1369971D01*
X1170437Y1371184D01*
X1169508Y1372113D01*
X1168295Y1372616D01*
D02*
G37*
G36*
X1136096Y1380490D02*
X1134156D01*
X1132283Y1379988D01*
X1130603Y1379018D01*
X1129232Y1377647D01*
X1128262Y1375967D01*
X1127760Y1374094D01*
Y1372154D01*
X1128262Y1370281D01*
X1129232Y1368601D01*
X1130603Y1367230D01*
X1132283Y1366260D01*
X1134156Y1365758D01*
X1136096D01*
X1137969Y1366260D01*
X1139649Y1367230D01*
X1141020Y1368601D01*
X1141990Y1370281D01*
X1142492Y1372154D01*
Y1374094D01*
X1141990Y1375967D01*
X1141020Y1377647D01*
X1139649Y1379018D01*
X1137969Y1379988D01*
X1136096Y1380490D01*
D02*
G37*
G36*
X1168831Y1358805D02*
Y1355377D01*
X1172259D01*
X1171652Y1356841D01*
X1170295Y1358199D01*
X1168831Y1358805D01*
D02*
G37*
G36*
X1166291D02*
X1164827Y1358199D01*
X1163470Y1356841D01*
X1162863Y1355377D01*
X1166291D01*
Y1358805D01*
D02*
G37*
G36*
X1172259Y1352837D02*
X1168831D01*
Y1349410D01*
X1170295Y1350016D01*
X1171652Y1351374D01*
X1172259Y1352837D01*
D02*
G37*
G36*
X1166291D02*
X1162863D01*
X1163470Y1351374D01*
X1164827Y1350016D01*
X1166291Y1349410D01*
Y1352837D01*
D02*
G37*
G36*
X1136096Y1362964D02*
X1134156D01*
X1132283Y1362462D01*
X1130603Y1361492D01*
X1129232Y1360121D01*
X1128262Y1358441D01*
X1127760Y1356568D01*
Y1354628D01*
X1128262Y1352755D01*
X1129232Y1351075D01*
X1130603Y1349704D01*
X1132283Y1348734D01*
X1134156Y1348232D01*
X1136096D01*
X1137969Y1348734D01*
X1139649Y1349704D01*
X1141020Y1351075D01*
X1141990Y1352755D01*
X1142492Y1354628D01*
Y1356568D01*
X1141990Y1358441D01*
X1141020Y1360121D01*
X1139649Y1361492D01*
X1137969Y1362462D01*
X1136096Y1362964D01*
D02*
G37*
G36*
X1168218Y1342423D02*
X1166904D01*
X1165691Y1341921D01*
X1164762Y1340992D01*
X1164259Y1339778D01*
Y1338465D01*
X1164762Y1337251D01*
X1165691Y1336322D01*
X1166904Y1335819D01*
X1168218D01*
X1169432Y1336322D01*
X1170360Y1337251D01*
X1170863Y1338465D01*
Y1339778D01*
X1170360Y1340992D01*
X1169432Y1341921D01*
X1168218Y1342423D01*
D02*
G37*
G36*
X1136350Y1345438D02*
X1134410D01*
X1132537Y1344936D01*
X1130857Y1343966D01*
X1129486Y1342595D01*
X1128516Y1340915D01*
X1128014Y1339042D01*
Y1337102D01*
X1128516Y1335229D01*
X1129486Y1333549D01*
X1130857Y1332178D01*
X1132537Y1331208D01*
X1134410Y1330706D01*
X1136350D01*
X1138223Y1331208D01*
X1139903Y1332178D01*
X1141274Y1333549D01*
X1142244Y1335229D01*
X1142746Y1337102D01*
Y1339042D01*
X1142244Y1340915D01*
X1141274Y1342595D01*
X1139903Y1343966D01*
X1138223Y1344936D01*
X1136350Y1345438D01*
D02*
G37*
G36*
X1136604Y1326642D02*
X1134664D01*
X1132791Y1326140D01*
X1131111Y1325170D01*
X1129740Y1323799D01*
X1128770Y1322119D01*
X1128268Y1320246D01*
Y1318306D01*
X1128770Y1316433D01*
X1129740Y1314753D01*
X1131111Y1313382D01*
X1132791Y1312412D01*
X1134664Y1311910D01*
X1136604D01*
X1138477Y1312412D01*
X1140157Y1313382D01*
X1141528Y1314753D01*
X1142498Y1316433D01*
X1143000Y1318306D01*
Y1320246D01*
X1142498Y1322119D01*
X1141528Y1323799D01*
X1140157Y1325170D01*
X1138477Y1326140D01*
X1136604Y1326642D01*
D02*
G37*
G36*
X1136858Y1309370D02*
X1134918D01*
X1133045Y1308868D01*
X1131365Y1307898D01*
X1129994Y1306527D01*
X1129024Y1304847D01*
X1128522Y1302974D01*
Y1301034D01*
X1129024Y1299161D01*
X1129994Y1297481D01*
X1131365Y1296110D01*
X1133045Y1295140D01*
X1134918Y1294638D01*
X1136858D01*
X1138731Y1295140D01*
X1140411Y1296110D01*
X1141782Y1297481D01*
X1142752Y1299161D01*
X1143254Y1301034D01*
Y1302974D01*
X1142752Y1304847D01*
X1141782Y1306527D01*
X1140411Y1307898D01*
X1138731Y1308868D01*
X1136858Y1309370D01*
D02*
G37*
G36*
X1168551Y1290346D02*
X1167237D01*
X1166024Y1289843D01*
X1165095Y1288914D01*
X1164592Y1287701D01*
Y1286387D01*
X1165095Y1285173D01*
X1166024Y1284245D01*
X1167237Y1283742D01*
X1168551D01*
X1169764Y1284245D01*
X1170693Y1285173D01*
X1171196Y1286387D01*
Y1287701D01*
X1170693Y1288914D01*
X1169764Y1289843D01*
X1168551Y1290346D01*
D02*
G37*
G36*
X1136858Y1291844D02*
X1134918D01*
X1133045Y1291342D01*
X1131365Y1290372D01*
X1129994Y1289001D01*
X1129024Y1287321D01*
X1128522Y1285448D01*
Y1283508D01*
X1129024Y1281635D01*
X1129994Y1279955D01*
X1131365Y1278584D01*
X1133045Y1277614D01*
X1134918Y1277112D01*
X1136858D01*
X1138731Y1277614D01*
X1140411Y1278584D01*
X1141782Y1279955D01*
X1142752Y1281635D01*
X1143254Y1283508D01*
Y1285448D01*
X1142752Y1287321D01*
X1141782Y1289001D01*
X1140411Y1290372D01*
X1138731Y1291342D01*
X1136858Y1291844D01*
D02*
G37*
G36*
X1169416Y1280032D02*
Y1276604D01*
X1172844D01*
X1172237Y1278068D01*
X1170880Y1279425D01*
X1169416Y1280032D01*
D02*
G37*
G36*
X1166876D02*
X1165412Y1279425D01*
X1164055Y1278068D01*
X1163448Y1276604D01*
X1166876D01*
Y1280032D01*
D02*
G37*
G36*
X1172844Y1274064D02*
X1169416D01*
Y1270636D01*
X1170880Y1271243D01*
X1172237Y1272600D01*
X1172844Y1274064D01*
D02*
G37*
G36*
X1166876D02*
X1163448D01*
X1164055Y1272600D01*
X1165412Y1271243D01*
X1166876Y1270636D01*
Y1274064D01*
D02*
G37*
G36*
X1702562Y1267460D02*
X1699134D01*
X1699741Y1265996D01*
X1701098Y1264639D01*
X1702562Y1264032D01*
Y1267460D01*
D02*
G37*
G36*
X1137366Y1273556D02*
X1135426D01*
X1133553Y1273054D01*
X1131873Y1272084D01*
X1130502Y1270713D01*
X1129532Y1269033D01*
X1129030Y1267160D01*
Y1265220D01*
X1129532Y1263347D01*
X1130502Y1261667D01*
X1131873Y1260296D01*
X1133553Y1259326D01*
X1135426Y1258824D01*
X1137366D01*
X1139239Y1259326D01*
X1140919Y1260296D01*
X1142290Y1261667D01*
X1143260Y1263347D01*
X1143762Y1265220D01*
Y1267160D01*
X1143260Y1269033D01*
X1142290Y1270713D01*
X1140919Y1272084D01*
X1139239Y1273054D01*
X1137366Y1273556D01*
D02*
G37*
G36*
X1168803Y1263142D02*
X1167489D01*
X1166276Y1262639D01*
X1165347Y1261710D01*
X1164844Y1260497D01*
Y1259183D01*
X1165347Y1257970D01*
X1166276Y1257041D01*
X1167489Y1256538D01*
X1168803D01*
X1170016Y1257041D01*
X1170945Y1257970D01*
X1171448Y1259183D01*
Y1260497D01*
X1170945Y1261710D01*
X1170016Y1262639D01*
X1168803Y1263142D01*
D02*
G37*
G36*
X1137620Y1256284D02*
X1135680D01*
X1133807Y1255782D01*
X1132127Y1254812D01*
X1130756Y1253441D01*
X1129786Y1251761D01*
X1129284Y1249888D01*
Y1247948D01*
X1129786Y1246075D01*
X1130756Y1244395D01*
X1132127Y1243024D01*
X1133807Y1242054D01*
X1135680Y1241552D01*
X1137620D01*
X1139493Y1242054D01*
X1141173Y1243024D01*
X1142544Y1244395D01*
X1143514Y1246075D01*
X1144016Y1247948D01*
Y1249888D01*
X1143514Y1251761D01*
X1142544Y1253441D01*
X1141173Y1254812D01*
X1139493Y1255782D01*
X1137620Y1256284D01*
D02*
G37*
G36*
X1705212Y1247878D02*
X1703898D01*
X1702685Y1247375D01*
X1701756Y1246446D01*
X1701253Y1245232D01*
Y1243919D01*
X1701756Y1242705D01*
X1702685Y1241776D01*
X1703898Y1241274D01*
X1705212D01*
X1706426Y1241776D01*
X1707354Y1242705D01*
X1707857Y1243919D01*
Y1245232D01*
X1707354Y1246446D01*
X1706426Y1247375D01*
X1705212Y1247878D01*
D02*
G37*
G36*
X1169311Y1235456D02*
X1167997D01*
X1166784Y1234953D01*
X1165855Y1234024D01*
X1165352Y1232811D01*
Y1231497D01*
X1165855Y1230284D01*
X1166784Y1229355D01*
X1167997Y1228852D01*
X1169311D01*
X1170524Y1229355D01*
X1171453Y1230284D01*
X1171956Y1231497D01*
Y1232811D01*
X1171453Y1234024D01*
X1170524Y1234953D01*
X1169311Y1235456D01*
D02*
G37*
G36*
X1145796Y1221637D02*
Y1218210D01*
X1149224D01*
X1148617Y1219674D01*
X1147260Y1221031D01*
X1145796Y1221637D01*
D02*
G37*
G36*
X1149224Y1215670D02*
X1145796D01*
Y1212242D01*
X1147260Y1212849D01*
X1148617Y1214206D01*
X1149224Y1215670D01*
D02*
G37*
G36*
X1125623Y1233170D02*
X1124309D01*
X1123096Y1232667D01*
X1122167Y1231738D01*
X1121664Y1230525D01*
Y1229211D01*
X1122167Y1227998D01*
X1123096Y1227069D01*
X1124309Y1226566D01*
X1125551D01*
X1125681Y1226516D01*
X1126490Y1225826D01*
Y1224893D01*
X1126993Y1223680D01*
X1127922Y1222751D01*
X1129135Y1222248D01*
X1129869D01*
X1130548Y1221988D01*
X1130808Y1221309D01*
Y1220575D01*
X1131311Y1219362D01*
X1132240Y1218433D01*
X1133453Y1217930D01*
X1134280D01*
X1134954Y1217442D01*
X1135126Y1216991D01*
Y1216003D01*
X1135629Y1214790D01*
X1136558Y1213861D01*
X1137771Y1213358D01*
X1139085D01*
X1140298Y1213861D01*
X1140539Y1214102D01*
X1141792Y1212849D01*
X1143256Y1212242D01*
Y1216940D01*
Y1221637D01*
X1141792Y1221031D01*
X1140435Y1219674D01*
X1140350Y1219470D01*
X1140298Y1219459D01*
X1139085Y1219962D01*
X1138258D01*
X1137584Y1220450D01*
X1137412Y1220901D01*
Y1221889D01*
X1136909Y1223102D01*
X1135980Y1224031D01*
X1134767Y1224534D01*
X1134033D01*
X1133354Y1224794D01*
X1133094Y1225473D01*
Y1226207D01*
X1132591Y1227420D01*
X1131662Y1228349D01*
X1130449Y1228852D01*
X1129207D01*
X1129077Y1228902D01*
X1128268Y1229593D01*
Y1230525D01*
X1127765Y1231738D01*
X1126836Y1232667D01*
X1125623Y1233170D01*
D02*
G37*
G36*
X1703324Y1212850D02*
X1699896D01*
X1700503Y1211386D01*
X1701860Y1210029D01*
X1703324Y1209422D01*
Y1212850D01*
D02*
G37*
G36*
X1145437Y1205002D02*
X1144123D01*
X1142910Y1204499D01*
X1141981Y1203570D01*
X1141478Y1202357D01*
Y1201043D01*
X1141981Y1199829D01*
X1142910Y1198901D01*
X1144123Y1198398D01*
X1145437D01*
X1146650Y1198901D01*
X1147579Y1199829D01*
X1148082Y1201043D01*
Y1202357D01*
X1147579Y1203570D01*
X1146650Y1204499D01*
X1145437Y1205002D01*
D02*
G37*
G36*
X1098699Y1185164D02*
X1097385D01*
X1096172Y1184661D01*
X1095243Y1183732D01*
X1094740Y1182519D01*
Y1181205D01*
X1095243Y1179992D01*
X1096172Y1179063D01*
X1097385Y1178560D01*
X1098699D01*
X1099912Y1179063D01*
X1100841Y1179992D01*
X1101344Y1181205D01*
Y1182519D01*
X1100841Y1183732D01*
X1099912Y1184661D01*
X1098699Y1185164D01*
D02*
G37*
G36*
X1702517Y1134535D02*
X1701053Y1133929D01*
X1699695Y1132571D01*
X1699089Y1131107D01*
X1702517D01*
Y1134535D01*
D02*
G37*
G36*
X1705057D02*
Y1129837D01*
X1703787D01*
Y1129792D01*
X1705102D01*
Y1125094D01*
X1706566Y1125701D01*
X1707923Y1127058D01*
X1708171Y1127656D01*
X1708558Y1127760D01*
X1709316Y1127766D01*
X1710090Y1126993D01*
X1711303Y1126490D01*
X1712617D01*
X1713830Y1126993D01*
X1714759Y1127922D01*
X1715262Y1129135D01*
Y1130449D01*
X1714759Y1131662D01*
X1713830Y1132591D01*
X1712617Y1133094D01*
X1711303D01*
X1710090Y1132591D01*
X1709316Y1131818D01*
X1708558Y1131824D01*
X1708171Y1131928D01*
X1707923Y1132526D01*
X1706520Y1133929D01*
X1705057Y1134535D01*
D02*
G37*
G36*
X1702562Y1128567D02*
X1699089D01*
X1699695Y1127104D01*
X1701098Y1125701D01*
X1702562Y1125094D01*
Y1128567D01*
D02*
G37*
G36*
X1711855Y1118108D02*
X1710541D01*
X1709328Y1117605D01*
X1708399Y1116676D01*
X1707896Y1115463D01*
Y1114149D01*
X1708399Y1112936D01*
X1709328Y1112007D01*
X1710541Y1111504D01*
X1711855D01*
X1713068Y1112007D01*
X1713997Y1112936D01*
X1714500Y1114149D01*
Y1115463D01*
X1713997Y1116676D01*
X1713068Y1117605D01*
X1711855Y1118108D01*
D02*
G37*
G36*
X1704235D02*
X1702921D01*
X1701708Y1117605D01*
X1700779Y1116676D01*
X1700276Y1115463D01*
Y1114149D01*
X1700779Y1112936D01*
X1701708Y1112007D01*
X1702921Y1111504D01*
X1704235D01*
X1705448Y1112007D01*
X1706377Y1112936D01*
X1706880Y1114149D01*
Y1115463D01*
X1706377Y1116676D01*
X1705448Y1117605D01*
X1704235Y1118108D01*
D02*
G37*
G36*
X1711093Y1107948D02*
X1709779D01*
X1708566Y1107445D01*
X1707637Y1106516D01*
X1707134Y1105303D01*
Y1103989D01*
X1707637Y1102776D01*
X1708566Y1101847D01*
X1709779Y1101344D01*
X1711093D01*
X1712306Y1101847D01*
X1713235Y1102776D01*
X1713738Y1103989D01*
Y1105303D01*
X1713235Y1106516D01*
X1712306Y1107445D01*
X1711093Y1107948D01*
D02*
G37*
G36*
X1704489Y1098296D02*
X1703175D01*
X1701962Y1097793D01*
X1701033Y1096864D01*
X1700530Y1095651D01*
Y1094337D01*
X1701033Y1093124D01*
X1701962Y1092195D01*
X1703175Y1091692D01*
X1703516D01*
X1704197Y1090682D01*
Y1089369D01*
X1704700Y1088155D01*
X1705629Y1087226D01*
X1706843Y1086723D01*
X1708156D01*
X1709370Y1087226D01*
X1710299Y1088155D01*
X1710801Y1089369D01*
Y1090682D01*
X1710299Y1091896D01*
X1709370Y1092825D01*
X1708156Y1093327D01*
X1707816D01*
X1707134Y1094337D01*
Y1095651D01*
X1706631Y1096864D01*
X1705702Y1097793D01*
X1704489Y1098296D01*
D02*
G37*
G36*
Y1083310D02*
X1703175D01*
X1701962Y1082807D01*
X1701033Y1081878D01*
X1700530Y1080665D01*
Y1079351D01*
X1701033Y1078138D01*
X1701962Y1077209D01*
X1703175Y1076706D01*
X1704489D01*
X1705702Y1077209D01*
X1706631Y1078138D01*
X1707134Y1079351D01*
Y1080665D01*
X1706631Y1081878D01*
X1705702Y1082807D01*
X1704489Y1083310D01*
D02*
G37*
G36*
X1681988Y1075308D02*
Y1071880D01*
X1685416D01*
X1684809Y1073344D01*
X1683452Y1074701D01*
X1681988Y1075308D01*
D02*
G37*
G36*
X1679448D02*
X1677984Y1074701D01*
X1676627Y1073344D01*
X1676020Y1071880D01*
X1679448D01*
Y1075308D01*
D02*
G37*
G36*
X1705187Y1067879D02*
X1703874D01*
X1702660Y1067377D01*
X1701731Y1066448D01*
X1701228Y1065234D01*
Y1063921D01*
X1701731Y1062707D01*
X1702660Y1061778D01*
X1703874Y1061275D01*
X1705187D01*
X1706401Y1061778D01*
X1707330Y1062707D01*
X1707832Y1063921D01*
Y1065234D01*
X1707330Y1066448D01*
X1706401Y1067377D01*
X1705187Y1067879D01*
D02*
G37*
G36*
X1685416Y1069340D02*
X1676020D01*
X1676627Y1067876D01*
X1677557Y1066946D01*
X1676649Y1066037D01*
X1676146Y1064824D01*
Y1063510D01*
X1676649Y1062296D01*
X1677578Y1061367D01*
X1678791Y1060865D01*
X1680105D01*
X1681318Y1061367D01*
X1682247Y1062296D01*
X1682750Y1063510D01*
Y1064824D01*
X1682254Y1066022D01*
X1683452Y1066519D01*
X1684809Y1067876D01*
X1685416Y1069340D01*
D02*
G37*
G36*
X1748431Y1060704D02*
X1747117D01*
X1745904Y1060201D01*
X1744975Y1059272D01*
X1744472Y1058059D01*
Y1056745D01*
X1744975Y1055532D01*
X1745904Y1054603D01*
X1747117Y1054100D01*
X1748431D01*
X1749644Y1054603D01*
X1750573Y1055532D01*
X1751076Y1056745D01*
Y1058059D01*
X1750573Y1059272D01*
X1749644Y1060201D01*
X1748431Y1060704D01*
D02*
G37*
G36*
X1704958Y1053060D02*
X1703644D01*
X1702431Y1052557D01*
X1701502Y1051628D01*
X1700999Y1050414D01*
Y1049101D01*
X1701502Y1047887D01*
X1702431Y1046958D01*
X1703644Y1046456D01*
X1704958D01*
X1706172Y1046958D01*
X1707100Y1047887D01*
X1707603Y1049101D01*
Y1050414D01*
X1707100Y1051628D01*
X1706172Y1052557D01*
X1704958Y1053060D01*
D02*
G37*
G36*
X1715919Y1049020D02*
X1714605D01*
X1713392Y1048517D01*
X1712463Y1047588D01*
X1711960Y1046375D01*
Y1045061D01*
X1712463Y1043848D01*
X1713392Y1042919D01*
X1714605Y1042416D01*
X1715919D01*
X1717132Y1042919D01*
X1718061Y1043848D01*
X1718564Y1045061D01*
Y1046375D01*
X1718061Y1047588D01*
X1717132Y1048517D01*
X1715919Y1049020D01*
D02*
G37*
G36*
X1755797Y1046734D02*
X1754483D01*
X1753270Y1046231D01*
X1752341Y1045302D01*
X1751838Y1044089D01*
Y1042775D01*
X1752341Y1041562D01*
X1753270Y1040633D01*
X1754483Y1040130D01*
X1755797D01*
X1757010Y1040633D01*
X1757939Y1041562D01*
X1758442Y1042775D01*
Y1044089D01*
X1757939Y1045302D01*
X1757010Y1046231D01*
X1755797Y1046734D01*
D02*
G37*
G36*
X1098193Y1033044D02*
X1096879D01*
X1095666Y1032541D01*
X1094737Y1031612D01*
X1094234Y1030399D01*
Y1029085D01*
X1094737Y1027871D01*
X1095666Y1026943D01*
X1096879Y1026440D01*
X1098193D01*
X1099407Y1026943D01*
X1100335Y1027871D01*
X1100838Y1029085D01*
Y1030399D01*
X1100335Y1031612D01*
X1099407Y1032541D01*
X1098193Y1033044D01*
D02*
G37*
G36*
X1757115Y1025470D02*
X1755801D01*
X1754588Y1024967D01*
X1753659Y1024039D01*
X1753156Y1022825D01*
Y1021511D01*
X1753659Y1020298D01*
X1754588Y1019369D01*
X1755801Y1018866D01*
X1757115D01*
X1758329Y1019369D01*
X1759258Y1020298D01*
X1759760Y1021511D01*
Y1022825D01*
X1759258Y1024039D01*
X1758329Y1024967D01*
X1757115Y1025470D01*
D02*
G37*
G36*
X1111907Y942340D02*
X1110593D01*
X1109380Y941837D01*
X1108451Y940908D01*
X1107948Y939695D01*
Y938381D01*
X1108451Y937168D01*
X1109380Y936239D01*
X1110593Y935736D01*
X1111907D01*
X1113120Y936239D01*
X1114049Y937168D01*
X1114552Y938381D01*
Y939695D01*
X1114049Y940908D01*
X1113120Y941837D01*
X1111907Y942340D01*
D02*
G37*
G36*
X1149372Y934339D02*
X1148058D01*
X1146845Y933836D01*
X1145916Y932907D01*
X1145413Y931694D01*
Y930380D01*
X1145916Y929167D01*
X1146845Y928238D01*
X1148058Y927735D01*
X1149372D01*
X1150585Y928238D01*
X1151514Y929167D01*
X1152017Y930380D01*
Y931694D01*
X1151514Y932907D01*
X1150585Y933836D01*
X1149372Y934339D01*
D02*
G37*
G36*
X1743810Y930806D02*
X1741272D01*
X1738820Y930149D01*
X1736621Y928880D01*
X1734826Y927085D01*
X1733557Y924887D01*
X1732900Y922435D01*
Y919896D01*
X1733557Y917444D01*
X1734826Y915246D01*
X1736621Y913451D01*
X1738820Y912181D01*
X1741272Y911524D01*
X1743810D01*
X1746262Y912181D01*
X1748461Y913451D01*
X1750256Y915246D01*
X1751525Y917444D01*
X1752182Y919896D01*
Y922435D01*
X1751525Y924887D01*
X1750256Y927085D01*
X1748461Y928880D01*
X1746262Y930149D01*
X1743810Y930806D01*
D02*
G37*
G36*
X1718410D02*
X1715872D01*
X1713420Y930149D01*
X1711221Y928880D01*
X1709426Y927085D01*
X1708157Y924887D01*
X1707500Y922435D01*
Y919896D01*
X1708157Y917444D01*
X1709426Y915246D01*
X1711221Y913451D01*
X1713420Y912181D01*
X1715872Y911524D01*
X1718410D01*
X1720862Y912181D01*
X1723060Y913451D01*
X1724856Y915246D01*
X1726125Y917444D01*
X1726782Y919896D01*
Y922435D01*
X1726125Y924887D01*
X1724856Y927085D01*
X1723060Y928880D01*
X1720862Y930149D01*
X1718410Y930806D01*
D02*
G37*
G36*
X1166771Y895858D02*
X1165457D01*
X1164244Y895355D01*
X1163315Y894426D01*
X1162812Y893213D01*
Y891899D01*
X1163315Y890686D01*
X1164244Y889757D01*
X1165457Y889254D01*
X1166771D01*
X1167984Y889757D01*
X1168913Y890686D01*
X1169416Y891899D01*
Y893213D01*
X1168913Y894426D01*
X1167984Y895355D01*
X1166771Y895858D01*
D02*
G37*
G36*
X1131702Y892950D02*
X1130388D01*
X1129175Y892447D01*
X1128246Y891518D01*
X1127743Y890304D01*
Y888991D01*
X1128246Y887777D01*
X1129175Y886848D01*
X1130388Y886346D01*
X1131702D01*
X1132916Y886848D01*
X1133845Y887777D01*
X1134347Y888991D01*
Y890304D01*
X1133845Y891518D01*
X1132916Y892447D01*
X1131702Y892950D01*
D02*
G37*
G36*
X1743810Y905406D02*
X1741272D01*
X1738820Y904749D01*
X1736621Y903480D01*
X1734826Y901685D01*
X1733557Y899487D01*
X1732900Y897035D01*
Y894496D01*
X1733557Y892044D01*
X1734826Y889846D01*
X1736621Y888051D01*
X1738820Y886781D01*
X1741272Y886124D01*
X1743810D01*
X1746262Y886781D01*
X1748461Y888051D01*
X1750256Y889846D01*
X1751525Y892044D01*
X1752182Y894496D01*
Y897035D01*
X1751525Y899487D01*
X1750256Y901685D01*
X1748461Y903480D01*
X1746262Y904749D01*
X1743810Y905406D01*
D02*
G37*
G36*
X1718410D02*
X1715872D01*
X1713420Y904749D01*
X1711221Y903480D01*
X1709426Y901685D01*
X1708157Y899487D01*
X1707500Y897035D01*
Y894496D01*
X1708157Y892044D01*
X1709426Y889846D01*
X1711221Y888051D01*
X1713420Y886781D01*
X1715872Y886124D01*
X1718410D01*
X1720862Y886781D01*
X1723060Y888051D01*
X1724856Y889846D01*
X1726125Y892044D01*
X1726782Y894496D01*
Y897035D01*
X1726125Y899487D01*
X1724856Y901685D01*
X1723060Y903480D01*
X1720862Y904749D01*
X1718410Y905406D01*
D02*
G37*
G36*
X1190647Y887222D02*
X1189333D01*
X1188120Y886719D01*
X1187191Y885790D01*
X1186688Y884577D01*
Y883263D01*
X1187191Y882050D01*
X1188120Y881121D01*
X1189333Y880618D01*
X1190647D01*
X1191860Y881121D01*
X1192789Y882050D01*
X1193292Y883263D01*
Y884577D01*
X1192789Y885790D01*
X1191860Y886719D01*
X1190647Y887222D01*
D02*
G37*
G36*
X1152801D02*
X1151487D01*
X1150274Y886719D01*
X1149345Y885790D01*
X1148842Y884577D01*
Y883263D01*
X1149345Y882050D01*
X1150274Y881121D01*
X1151487Y880618D01*
X1152801D01*
X1154014Y881121D01*
X1154943Y882050D01*
X1155446Y883263D01*
Y884577D01*
X1154943Y885790D01*
X1154014Y886719D01*
X1152801Y887222D01*
D02*
G37*
G36*
X1188974Y869060D02*
Y865632D01*
X1192402D01*
X1191795Y867096D01*
X1190438Y868453D01*
X1188974Y869060D01*
D02*
G37*
G36*
X1186434D02*
X1184970Y868453D01*
X1183613Y867096D01*
X1183006Y865632D01*
X1186434D01*
Y869060D01*
D02*
G37*
G36*
X1145814Y867016D02*
X1144501D01*
X1143287Y866513D01*
X1142358Y865584D01*
X1141855Y864370D01*
Y863057D01*
X1142358Y861843D01*
X1143287Y860914D01*
X1144501Y860412D01*
X1145814D01*
X1147028Y860914D01*
X1147957Y861843D01*
X1148459Y863057D01*
Y864370D01*
X1147957Y865584D01*
X1147028Y866513D01*
X1145814Y867016D01*
D02*
G37*
G36*
X1192402Y863092D02*
X1188974D01*
Y859664D01*
X1190438Y860271D01*
X1191795Y861628D01*
X1192402Y863092D01*
D02*
G37*
G36*
X1186434D02*
X1183006D01*
X1183613Y861628D01*
X1184970Y860271D01*
X1186434Y859664D01*
Y863092D01*
D02*
G37*
G36*
X1302026Y852423D02*
X1300712D01*
X1299499Y851920D01*
X1298570Y850991D01*
X1298067Y849778D01*
Y848464D01*
X1298570Y847251D01*
X1299499Y846322D01*
X1300712Y845819D01*
X1302026D01*
X1303239Y846322D01*
X1304168Y847251D01*
X1304671Y848464D01*
Y849778D01*
X1304168Y850991D01*
X1303239Y851920D01*
X1302026Y852423D01*
D02*
G37*
G36*
X1277515Y850900D02*
X1276201D01*
X1274988Y850397D01*
X1274059Y849468D01*
X1273556Y848255D01*
Y846941D01*
X1274059Y845728D01*
X1274988Y844799D01*
X1276201Y844296D01*
X1277515D01*
X1278728Y844799D01*
X1279657Y845728D01*
X1280160Y846941D01*
Y848255D01*
X1279657Y849468D01*
X1278728Y850397D01*
X1277515Y850900D01*
D02*
G37*
G36*
X1765299Y829807D02*
X1762761D01*
X1760309Y829150D01*
X1758110Y827881D01*
X1756315Y826086D01*
X1755046Y823887D01*
X1754389Y821435D01*
Y818897D01*
X1755046Y816445D01*
X1756315Y814246D01*
X1758110Y812451D01*
X1760309Y811182D01*
X1762761Y810525D01*
X1765299D01*
X1767751Y811182D01*
X1769950Y812451D01*
X1771745Y814246D01*
X1773014Y816445D01*
X1773671Y818897D01*
Y821435D01*
X1773014Y823887D01*
X1771745Y826086D01*
X1769950Y827881D01*
X1767751Y829150D01*
X1765299Y829807D01*
D02*
G37*
G36*
X1739899D02*
X1737361D01*
X1734909Y829150D01*
X1732710Y827881D01*
X1730915Y826086D01*
X1729646Y823887D01*
X1728989Y821435D01*
Y818897D01*
X1729646Y816445D01*
X1730915Y814246D01*
X1732710Y812451D01*
X1734909Y811182D01*
X1737361Y810525D01*
X1739899D01*
X1742351Y811182D01*
X1744550Y812451D01*
X1746345Y814246D01*
X1747614Y816445D01*
X1748271Y818897D01*
Y821435D01*
X1747614Y823887D01*
X1746345Y826086D01*
X1744550Y827881D01*
X1742351Y829150D01*
X1739899Y829807D01*
D02*
G37*
G36*
X1714499D02*
X1711961D01*
X1709509Y829150D01*
X1707310Y827881D01*
X1705515Y826086D01*
X1704246Y823887D01*
X1703589Y821435D01*
Y818897D01*
X1704246Y816445D01*
X1705515Y814246D01*
X1707310Y812451D01*
X1709509Y811182D01*
X1711961Y810525D01*
X1714499D01*
X1716951Y811182D01*
X1719150Y812451D01*
X1720945Y814246D01*
X1722214Y816445D01*
X1722871Y818897D01*
Y821435D01*
X1722214Y823887D01*
X1720945Y826086D01*
X1719150Y827881D01*
X1716951Y829150D01*
X1714499Y829807D01*
D02*
G37*
G36*
X1765299Y804407D02*
X1762761D01*
X1760309Y803750D01*
X1758110Y802481D01*
X1756315Y800686D01*
X1755046Y798487D01*
X1754389Y796035D01*
Y793497D01*
X1755046Y791045D01*
X1756315Y788846D01*
X1758110Y787051D01*
X1760309Y785782D01*
X1762761Y785125D01*
X1765299D01*
X1767751Y785782D01*
X1769950Y787051D01*
X1771745Y788846D01*
X1773014Y791045D01*
X1773671Y793497D01*
Y796035D01*
X1773014Y798487D01*
X1771745Y800686D01*
X1769950Y802481D01*
X1767751Y803750D01*
X1765299Y804407D01*
D02*
G37*
G36*
X1739899D02*
X1737361D01*
X1734909Y803750D01*
X1732710Y802481D01*
X1730915Y800686D01*
X1729646Y798487D01*
X1728989Y796035D01*
Y793497D01*
X1729646Y791045D01*
X1730915Y788846D01*
X1732710Y787051D01*
X1734909Y785782D01*
X1737361Y785125D01*
X1739899D01*
X1742351Y785782D01*
X1744550Y787051D01*
X1746345Y788846D01*
X1747614Y791045D01*
X1748271Y793497D01*
Y796035D01*
X1747614Y798487D01*
X1746345Y800686D01*
X1744550Y802481D01*
X1742351Y803750D01*
X1739899Y804407D01*
D02*
G37*
G36*
X1714499D02*
X1711961D01*
X1709509Y803750D01*
X1707310Y802481D01*
X1705515Y800686D01*
X1704246Y798487D01*
X1703589Y796035D01*
Y793497D01*
X1704246Y791045D01*
X1705515Y788846D01*
X1707310Y787051D01*
X1709509Y785782D01*
X1711961Y785125D01*
X1714499D01*
X1716951Y785782D01*
X1719150Y787051D01*
X1720945Y788846D01*
X1722214Y791045D01*
X1722871Y793497D01*
Y796035D01*
X1722214Y798487D01*
X1720945Y800686D01*
X1719150Y802481D01*
X1716951Y803750D01*
X1714499Y804407D01*
D02*
G37*
G36*
X1745049Y753692D02*
X1743735D01*
X1742522Y753189D01*
X1741593Y752260D01*
X1741090Y751047D01*
Y749733D01*
X1741593Y748519D01*
X1742522Y747590D01*
X1743735Y747088D01*
X1745049D01*
X1746263Y747590D01*
X1747192Y748519D01*
X1747694Y749733D01*
Y751047D01*
X1747192Y752260D01*
X1746263Y753189D01*
X1745049Y753692D01*
D02*
G37*
G36*
X1247035Y829316D02*
X1245721D01*
X1244508Y828813D01*
X1243579Y827885D01*
X1243076Y826671D01*
Y825357D01*
X1243579Y824144D01*
X1244508Y823215D01*
X1245721Y822712D01*
X1247035D01*
X1248248Y823215D01*
X1249177Y824144D01*
X1249680Y825357D01*
Y826671D01*
X1249177Y827885D01*
X1248248Y828813D01*
X1247035Y829316D01*
D02*
G37*
G36*
X1188615Y825754D02*
X1187301D01*
X1186088Y825251D01*
X1185159Y824322D01*
X1184656Y823109D01*
Y821795D01*
X1185159Y820582D01*
X1186088Y819653D01*
X1187301Y819150D01*
X1188615D01*
X1189828Y819653D01*
X1190757Y820582D01*
X1191260Y821795D01*
Y823109D01*
X1190757Y824322D01*
X1189828Y825251D01*
X1188615Y825754D01*
D02*
G37*
G36*
X1139304Y823595D02*
X1137990D01*
X1136777Y823092D01*
X1135848Y822163D01*
X1135345Y820950D01*
Y819636D01*
X1135848Y818423D01*
X1136777Y817494D01*
X1137990Y816991D01*
X1139304D01*
X1140517Y817494D01*
X1141446Y818423D01*
X1141949Y819636D01*
Y820950D01*
X1141446Y822163D01*
X1140517Y823092D01*
X1139304Y823595D01*
D02*
G37*
G36*
X1074061Y817372D02*
X1072747D01*
X1071534Y816869D01*
X1070605Y815940D01*
X1070102Y814727D01*
Y813413D01*
X1070605Y812200D01*
X1071534Y811271D01*
X1072747Y810768D01*
X1074061D01*
X1075274Y811271D01*
X1076203Y812200D01*
X1076706Y813413D01*
Y814727D01*
X1076203Y815940D01*
X1075274Y816869D01*
X1074061Y817372D01*
D02*
G37*
G36*
X1131340Y810223D02*
X1130026D01*
X1128813Y809720D01*
X1127884Y808791D01*
X1127381Y807578D01*
Y806264D01*
X1127884Y805051D01*
X1128813Y804122D01*
X1130026Y803619D01*
X1131340D01*
X1132553Y804122D01*
X1133482Y805051D01*
X1133985Y806264D01*
Y807578D01*
X1133482Y808791D01*
X1132553Y809720D01*
X1131340Y810223D01*
D02*
G37*
G36*
X1126086Y800735D02*
X1124772D01*
X1123558Y800232D01*
X1122629Y799303D01*
X1122127Y798090D01*
Y796776D01*
X1122629Y795563D01*
X1123558Y794634D01*
X1124772Y794131D01*
X1126086D01*
X1127299Y794634D01*
X1128228Y795563D01*
X1128731Y796776D01*
Y798090D01*
X1128228Y799303D01*
X1127299Y800232D01*
X1126086Y800735D01*
D02*
G37*
G36*
X1059583Y800354D02*
X1058269D01*
X1057056Y799851D01*
X1056127Y798922D01*
X1055624Y797709D01*
Y796395D01*
X1056127Y795182D01*
X1057056Y794253D01*
X1058269Y793750D01*
X1059583D01*
X1060796Y794253D01*
X1061725Y795182D01*
X1062228Y796395D01*
Y797709D01*
X1061725Y798922D01*
X1060796Y799851D01*
X1059583Y800354D01*
D02*
G37*
G36*
X1111755Y789795D02*
X1110441D01*
X1109227Y789292D01*
X1108298Y788363D01*
X1107796Y787150D01*
Y785836D01*
X1108298Y784622D01*
X1109227Y783693D01*
X1110441Y783191D01*
X1111755D01*
X1112968Y783693D01*
X1113897Y784622D01*
X1114400Y785836D01*
Y787150D01*
X1113897Y788363D01*
X1112968Y789292D01*
X1111755Y789795D01*
D02*
G37*
G36*
X1144863Y773112D02*
X1143550D01*
X1142336Y772610D01*
X1141407Y771681D01*
X1140904Y770467D01*
Y769154D01*
X1141407Y767940D01*
X1142336Y767011D01*
X1143550Y766508D01*
X1144863D01*
X1146077Y767011D01*
X1147006Y767940D01*
X1147508Y769154D01*
Y770467D01*
X1147006Y771681D01*
X1146077Y772610D01*
X1144863Y773112D01*
D02*
G37*
G36*
X1104252Y766191D02*
X1102938D01*
X1101724Y765688D01*
X1100796Y764759D01*
X1100293Y763546D01*
Y762232D01*
X1100796Y761019D01*
X1101724Y760090D01*
X1102938Y759587D01*
X1104252D01*
X1105465Y760090D01*
X1106394Y761019D01*
X1106897Y762232D01*
Y763546D01*
X1106394Y764759D01*
X1105465Y765688D01*
X1104252Y766191D01*
D02*
G37*
G36*
X1153020Y772033D02*
X1151706D01*
X1150492Y771530D01*
X1149564Y770601D01*
X1149061Y769388D01*
Y768074D01*
X1149564Y766861D01*
X1149959Y766465D01*
X1149591Y765739D01*
X1149431Y765556D01*
X1148185D01*
X1146972Y765053D01*
X1146043Y764124D01*
X1145540Y762911D01*
Y761597D01*
X1146043Y760384D01*
X1146972Y759455D01*
X1148185Y758952D01*
X1149499D01*
X1150712Y759455D01*
X1151641Y760384D01*
X1152144Y761597D01*
Y762911D01*
X1151641Y764124D01*
X1151246Y764520D01*
X1151614Y765246D01*
X1151774Y765429D01*
X1153020D01*
X1154233Y765932D01*
X1155162Y766861D01*
X1155665Y768074D01*
Y769388D01*
X1155162Y770601D01*
X1154233Y771530D01*
X1153020Y772033D01*
D02*
G37*
G36*
X1125560Y787629D02*
X1123286D01*
X1121090Y787041D01*
X1119120Y785904D01*
X1117512Y784296D01*
X1116376Y782327D01*
X1115787Y780130D01*
Y777856D01*
X1115836Y777673D01*
X1115340Y777541D01*
X1113370Y776404D01*
X1111762Y774796D01*
X1110625Y772826D01*
X1110037Y770630D01*
Y768356D01*
X1110625Y766160D01*
X1111762Y764190D01*
X1113370Y762582D01*
X1115340Y761445D01*
X1115836Y761312D01*
X1115787Y761130D01*
Y758856D01*
X1116376Y756659D01*
X1117512Y754690D01*
X1119120Y753082D01*
X1121090Y751945D01*
X1123286Y751357D01*
X1125560D01*
X1127756Y751945D01*
X1129726Y753082D01*
X1131333Y754690D01*
X1132470Y756659D01*
X1133059Y758856D01*
Y761130D01*
X1133010Y761312D01*
X1133506Y761445D01*
X1135476Y762582D01*
X1137084Y764190D01*
X1138221Y766160D01*
X1138809Y768356D01*
Y770630D01*
X1138221Y772826D01*
X1137084Y774796D01*
X1135476Y776404D01*
X1133506Y777541D01*
X1133010Y777673D01*
X1133059Y777856D01*
Y780130D01*
X1132470Y782327D01*
X1131333Y784296D01*
X1129726Y785904D01*
X1127756Y787041D01*
X1125560Y787629D01*
D02*
G37*
G36*
X1093744Y757047D02*
X1092430D01*
X1091217Y756544D01*
X1090288Y755615D01*
X1089785Y754402D01*
Y753088D01*
X1090288Y751875D01*
X1091217Y750946D01*
X1092430Y750443D01*
X1093744D01*
X1094957Y750946D01*
X1095886Y751875D01*
X1096389Y753088D01*
Y754402D01*
X1095886Y755615D01*
X1094957Y756544D01*
X1093744Y757047D01*
D02*
G37*
G36*
X1111618Y756031D02*
X1110304D01*
X1109090Y755528D01*
X1108162Y754599D01*
X1107659Y753386D01*
Y752072D01*
X1108162Y750859D01*
X1109090Y749930D01*
X1110304Y749427D01*
X1111618D01*
X1112831Y749930D01*
X1113760Y750859D01*
X1114263Y752072D01*
Y753386D01*
X1113760Y754599D01*
X1112831Y755528D01*
X1111618Y756031D01*
D02*
G37*
G36*
X1199388Y752728D02*
Y749300D01*
X1202816D01*
X1202209Y750764D01*
X1200852Y752121D01*
X1199388Y752728D01*
D02*
G37*
G36*
X1196848D02*
X1195384Y752121D01*
X1194027Y750764D01*
X1193420Y749300D01*
X1196848D01*
Y752728D01*
D02*
G37*
G36*
X1218438Y752220D02*
Y748792D01*
X1221866D01*
X1221259Y750256D01*
X1219902Y751613D01*
X1218438Y752220D01*
D02*
G37*
G36*
X1215898D02*
X1214434Y751613D01*
X1213077Y750256D01*
X1212470Y748792D01*
X1215898D01*
Y752220D01*
D02*
G37*
G36*
X1084948Y755269D02*
X1083634D01*
X1082421Y754766D01*
X1081492Y753837D01*
X1080989Y752624D01*
Y751310D01*
X1081492Y750097D01*
X1082421Y749168D01*
X1083634Y748665D01*
X1084948D01*
X1086161Y749168D01*
X1087090Y750097D01*
X1087593Y751310D01*
Y752624D01*
X1087090Y753837D01*
X1086161Y754766D01*
X1084948Y755269D01*
D02*
G37*
G36*
X1014117Y753618D02*
X1012803D01*
X1011590Y753115D01*
X1010661Y752186D01*
X1010158Y750973D01*
Y749659D01*
X1010661Y748446D01*
X1011590Y747517D01*
X1012803Y747014D01*
X1014117D01*
X1015330Y747517D01*
X1016259Y748446D01*
X1016762Y749659D01*
Y750973D01*
X1016259Y752186D01*
X1015330Y753115D01*
X1014117Y753618D01*
D02*
G37*
G36*
X1202816Y746760D02*
X1199388D01*
Y743332D01*
X1200852Y743939D01*
X1202209Y745296D01*
X1202816Y746760D01*
D02*
G37*
G36*
X1196848D02*
X1193420D01*
X1194027Y745296D01*
X1195384Y743939D01*
X1196848Y743332D01*
Y746760D01*
D02*
G37*
G36*
X1048153Y749554D02*
X1046839D01*
X1045626Y749051D01*
X1044697Y748122D01*
X1044194Y746909D01*
Y745595D01*
X1044697Y744382D01*
X1045626Y743453D01*
X1046839Y742950D01*
X1048153D01*
X1049366Y743453D01*
X1050295Y744382D01*
X1050798Y745595D01*
Y746909D01*
X1050295Y748122D01*
X1049366Y749051D01*
X1048153Y749554D01*
D02*
G37*
G36*
X1221866Y746252D02*
X1218438D01*
Y742824D01*
X1219902Y743431D01*
X1221259Y744788D01*
X1221866Y746252D01*
D02*
G37*
G36*
X1215898D02*
X1212470D01*
X1213077Y744788D01*
X1214434Y743431D01*
X1215898Y742824D01*
Y746252D01*
D02*
G37*
G36*
X1263989Y749046D02*
X1262675D01*
X1261462Y748543D01*
X1260533Y747615D01*
X1260030Y746401D01*
Y745087D01*
X1260533Y743874D01*
X1261462Y742945D01*
X1262675Y742442D01*
X1263989D01*
X1265202Y742945D01*
X1266131Y743874D01*
X1266634Y745087D01*
Y746401D01*
X1266131Y747615D01*
X1265202Y748543D01*
X1263989Y749046D01*
D02*
G37*
G36*
X1141590Y744093D02*
X1140276D01*
X1139062Y743590D01*
X1138134Y742661D01*
X1137631Y741448D01*
Y740134D01*
X1138134Y738921D01*
X1139062Y737992D01*
X1140276Y737489D01*
X1141590D01*
X1142803Y737992D01*
X1143732Y738921D01*
X1144235Y740134D01*
Y741448D01*
X1143732Y742661D01*
X1142803Y743590D01*
X1141590Y744093D01*
D02*
G37*
G36*
X1089809Y741172D02*
X1088495D01*
X1087282Y740669D01*
X1086353Y739740D01*
X1085850Y738527D01*
Y737213D01*
X1086353Y736000D01*
X1087282Y735071D01*
X1088495Y734568D01*
X1089809D01*
X1091022Y735071D01*
X1091951Y736000D01*
X1092454Y737213D01*
Y738527D01*
X1091951Y739740D01*
X1091022Y740669D01*
X1089809Y741172D01*
D02*
G37*
G36*
X1069743D02*
X1068429D01*
X1067216Y740669D01*
X1066287Y739740D01*
X1065784Y738527D01*
Y737213D01*
X1066287Y736000D01*
X1067216Y735071D01*
X1068429Y734568D01*
X1069743D01*
X1070956Y735071D01*
X1071885Y736000D01*
X1072388Y737213D01*
Y738527D01*
X1071885Y739740D01*
X1070956Y740669D01*
X1069743Y741172D01*
D02*
G37*
G36*
X1217930Y736980D02*
Y733552D01*
X1221358D01*
X1220751Y735016D01*
X1219394Y736373D01*
X1217930Y736980D01*
D02*
G37*
G36*
X1215390D02*
X1213926Y736373D01*
X1212569Y735016D01*
X1211962Y733552D01*
X1215390D01*
Y736980D01*
D02*
G37*
G36*
X1199642Y736472D02*
Y733044D01*
X1203070D01*
X1202463Y734508D01*
X1201106Y735865D01*
X1199642Y736472D01*
D02*
G37*
G36*
X1197102D02*
X1195638Y735865D01*
X1194281Y734508D01*
X1193674Y733044D01*
X1197102D01*
Y736472D01*
D02*
G37*
G36*
X1074674Y732916D02*
Y729488D01*
X1078102D01*
X1077495Y730952D01*
X1076138Y732309D01*
X1074674Y732916D01*
D02*
G37*
G36*
X1072134D02*
X1070670Y732309D01*
X1069313Y730952D01*
X1068706Y729488D01*
X1072134D01*
Y732916D01*
D02*
G37*
G36*
X1221358Y731012D02*
X1217930D01*
Y727584D01*
X1219394Y728191D01*
X1220751Y729548D01*
X1221358Y731012D01*
D02*
G37*
G36*
X1215390D02*
X1211962D01*
X1212569Y729548D01*
X1213926Y728191D01*
X1215390Y727584D01*
Y731012D01*
D02*
G37*
G36*
X1203070Y730504D02*
X1199642D01*
Y727076D01*
X1201106Y727683D01*
X1202463Y729040D01*
X1203070Y730504D01*
D02*
G37*
G36*
X1197102D02*
X1193674D01*
X1194281Y729040D01*
X1195638Y727683D01*
X1197102Y727076D01*
Y730504D01*
D02*
G37*
G36*
X1078102Y726948D02*
X1074674D01*
Y723520D01*
X1076138Y724127D01*
X1077495Y725484D01*
X1078102Y726948D01*
D02*
G37*
G36*
X1072134D02*
X1068706D01*
X1069313Y725484D01*
X1070670Y724127D01*
X1072134Y723520D01*
Y726948D01*
D02*
G37*
G36*
X1154960Y729869D02*
X1153646D01*
X1152433Y729366D01*
X1151504Y728437D01*
X1151001Y727224D01*
Y725910D01*
X1151504Y724697D01*
X1152433Y723768D01*
X1153646Y723265D01*
X1154960D01*
X1156173Y723768D01*
X1157102Y724697D01*
X1157605Y725910D01*
Y727224D01*
X1157102Y728437D01*
X1156173Y729366D01*
X1154960Y729869D01*
D02*
G37*
G36*
X1133497Y724408D02*
X1132183D01*
X1130970Y723905D01*
X1130041Y722976D01*
X1129538Y721763D01*
Y720449D01*
X1130041Y719236D01*
X1130970Y718307D01*
X1132183Y717804D01*
X1133497D01*
X1134710Y718307D01*
X1135639Y719236D01*
X1136142Y720449D01*
Y721763D01*
X1135639Y722976D01*
X1134710Y723905D01*
X1133497Y724408D01*
D02*
G37*
G36*
X1260877Y721106D02*
X1259563D01*
X1258350Y720603D01*
X1257421Y719675D01*
X1256918Y718461D01*
Y717147D01*
X1257421Y715934D01*
X1258350Y715005D01*
X1259563Y714502D01*
X1260877D01*
X1262090Y715005D01*
X1263019Y715934D01*
X1263522Y717147D01*
Y718461D01*
X1263019Y719675D01*
X1262090Y720603D01*
X1260877Y721106D01*
D02*
G37*
G36*
X1021034Y725170D02*
X1019094D01*
X1017221Y724668D01*
X1015541Y723698D01*
X1014170Y722327D01*
X1013200Y720647D01*
X1012698Y718774D01*
Y716834D01*
X1013200Y714961D01*
X1014170Y713281D01*
X1015541Y711910D01*
X1017221Y710940D01*
X1019094Y710438D01*
X1021034D01*
X1022907Y710940D01*
X1024587Y711910D01*
X1025958Y713281D01*
X1026928Y714961D01*
X1027430Y716834D01*
Y718774D01*
X1026928Y720647D01*
X1025958Y722327D01*
X1024587Y723698D01*
X1022907Y724668D01*
X1021034Y725170D01*
D02*
G37*
G36*
X1163088Y713447D02*
X1161774D01*
X1160560Y712944D01*
X1159631Y712015D01*
X1159129Y710802D01*
Y709488D01*
X1159631Y708275D01*
X1160560Y707346D01*
X1161774Y706843D01*
X1163088D01*
X1164301Y707346D01*
X1165230Y708275D01*
X1165733Y709488D01*
Y710802D01*
X1165230Y712015D01*
X1164301Y712944D01*
X1163088Y713447D01*
D02*
G37*
G36*
X1138196Y712050D02*
X1136882D01*
X1135669Y711547D01*
X1134740Y710618D01*
X1134237Y709405D01*
Y708091D01*
X1134740Y706878D01*
X1135669Y705949D01*
X1136882Y705446D01*
X1138196D01*
X1139409Y705949D01*
X1140338Y706878D01*
X1140841Y708091D01*
Y709405D01*
X1140338Y710618D01*
X1139409Y711547D01*
X1138196Y712050D01*
D02*
G37*
G36*
X1108732Y699858D02*
X1107418D01*
X1106205Y699355D01*
X1105276Y698426D01*
X1104773Y697213D01*
Y695899D01*
X1105276Y694686D01*
X1106205Y693757D01*
X1107418Y693254D01*
X1108732D01*
X1109946Y693757D01*
X1110874Y694686D01*
X1111377Y695899D01*
Y697213D01*
X1110874Y698426D01*
X1109946Y699355D01*
X1108732Y699858D01*
D02*
G37*
G36*
X1198267Y691222D02*
X1196953D01*
X1195739Y690719D01*
X1194810Y689790D01*
X1194308Y688577D01*
Y687263D01*
X1194810Y686049D01*
X1195739Y685121D01*
X1196953Y684618D01*
X1198267D01*
X1199480Y685121D01*
X1200409Y686049D01*
X1200912Y687263D01*
Y688577D01*
X1200409Y689790D01*
X1199480Y690719D01*
X1198267Y691222D01*
D02*
G37*
G36*
X1263647Y689922D02*
X1262333D01*
X1261119Y689419D01*
X1260191Y688490D01*
X1259688Y687277D01*
Y685963D01*
X1260191Y684750D01*
X1261119Y683821D01*
X1262333Y683318D01*
X1263647D01*
X1264860Y683821D01*
X1265789Y684750D01*
X1266292Y685963D01*
Y687277D01*
X1265789Y688490D01*
X1264860Y689419D01*
X1263647Y689922D01*
D02*
G37*
G36*
X1183033Y688174D02*
X1181719D01*
X1180505Y687671D01*
X1179576Y686742D01*
X1179074Y685529D01*
Y684215D01*
X1179576Y683001D01*
X1180505Y682073D01*
X1181719Y681570D01*
X1183033D01*
X1184246Y682073D01*
X1185175Y683001D01*
X1185678Y684215D01*
Y685529D01*
X1185175Y686742D01*
X1184246Y687671D01*
X1183033Y688174D01*
D02*
G37*
G36*
X1141625Y680681D02*
X1140311D01*
X1139098Y680178D01*
X1138169Y679249D01*
X1137666Y678036D01*
Y676722D01*
X1138169Y675508D01*
X1139098Y674580D01*
X1140311Y674077D01*
X1141625D01*
X1142839Y674580D01*
X1143767Y675508D01*
X1144270Y676722D01*
Y678036D01*
X1143767Y679249D01*
X1142839Y680178D01*
X1141625Y680681D01*
D02*
G37*
G36*
X1106886Y681443D02*
X1104946D01*
X1103073Y680941D01*
X1101393Y679971D01*
X1100022Y678600D01*
X1099052Y676920D01*
X1098550Y675047D01*
Y673107D01*
X1099052Y671234D01*
X1100022Y669554D01*
X1101393Y668183D01*
X1103073Y667213D01*
X1104946Y666711D01*
X1106886D01*
X1108759Y667213D01*
X1110439Y668183D01*
X1111810Y669554D01*
X1112780Y671234D01*
X1113282Y673107D01*
Y675047D01*
X1112780Y676920D01*
X1111810Y678600D01*
X1110439Y679971D01*
X1108759Y680941D01*
X1106886Y681443D01*
D02*
G37*
G36*
X1131719Y668997D02*
X1130405D01*
X1129192Y668494D01*
X1128263Y667565D01*
X1127760Y666352D01*
Y665038D01*
X1128263Y663824D01*
X1129192Y662896D01*
X1130405Y662393D01*
X1131719D01*
X1132933Y662896D01*
X1133861Y663824D01*
X1134364Y665038D01*
Y666352D01*
X1133861Y667565D01*
X1132933Y668494D01*
X1131719Y668997D01*
D02*
G37*
G36*
X1148737Y668235D02*
X1147423D01*
X1146210Y667732D01*
X1145281Y666803D01*
X1144778Y665590D01*
Y664276D01*
X1145281Y663063D01*
X1146210Y662134D01*
X1147423Y661631D01*
X1148737D01*
X1149950Y662134D01*
X1150879Y663063D01*
X1151382Y664276D01*
Y665590D01*
X1150879Y666803D01*
X1149950Y667732D01*
X1148737Y668235D01*
D02*
G37*
G36*
X1158262Y663409D02*
X1156948D01*
X1155734Y662906D01*
X1154805Y661977D01*
X1154303Y660764D01*
Y659450D01*
X1154805Y658236D01*
X1155734Y657308D01*
X1156948Y656805D01*
X1158262D01*
X1159475Y657308D01*
X1160404Y658236D01*
X1160907Y659450D01*
Y660764D01*
X1160404Y661977D01*
X1159475Y662906D01*
X1158262Y663409D01*
D02*
G37*
G36*
X1136545Y656805D02*
X1135231D01*
X1134018Y656302D01*
X1133089Y655373D01*
X1132586Y654160D01*
Y652846D01*
X1133089Y651633D01*
X1134018Y650704D01*
X1135231Y650201D01*
X1136545D01*
X1137758Y650704D01*
X1138687Y651633D01*
X1139190Y652846D01*
Y654160D01*
X1138687Y655373D01*
X1137758Y656302D01*
X1136545Y656805D01*
D02*
G37*
G36*
X1121051D02*
X1119737D01*
X1118524Y656302D01*
X1117595Y655373D01*
X1117092Y654160D01*
Y652846D01*
X1117595Y651633D01*
X1118524Y650704D01*
X1119737Y650201D01*
X1121051D01*
X1122264Y650704D01*
X1123193Y651633D01*
X1123696Y652846D01*
Y654160D01*
X1123193Y655373D01*
X1122264Y656302D01*
X1121051Y656805D01*
D02*
G37*
%LPD*%
D99*
X1438150Y1093223D02*
X1441452Y1096525D01*
X1441794Y943429D02*
X1442602D01*
X1438150Y947073D02*
Y1093223D01*
Y947073D02*
X1441794Y943429D01*
X1565021Y862584D02*
X1566037Y863600D01*
X1529588Y862584D02*
X1565021D01*
X1449578Y942594D02*
Y958596D01*
Y942594D02*
X1529588Y862584D01*
X1490980Y1321367D02*
X1512316Y1342703D01*
X1809242Y814578D02*
Y1086866D01*
X1789430Y794766D02*
X1809242Y814578D01*
X1477363Y1212525D02*
X1490980Y1226142D01*
X1801622Y1094486D02*
X1809242Y1086866D01*
X1490980Y1226142D02*
Y1321367D01*
X1478702Y1175934D02*
X1485138Y1182370D01*
X1576624Y1198164D02*
X1591659Y1213199D01*
X1575816Y1198164D02*
X1576624D01*
X1591659Y1213199D02*
Y1227233D01*
X1694180Y1516126D02*
X1753108Y1457198D01*
X1645412Y1516126D02*
X1694180D01*
X1617980Y1543558D02*
X1645412Y1516126D01*
X1487932Y935736D02*
Y1036828D01*
X1467420Y1057340D02*
X1487932Y1036828D01*
X1465134Y1057340D02*
X1467420D01*
X1464564Y1057910D02*
X1465134Y1057340D01*
X1236472Y1234186D02*
Y1513840D01*
Y1234186D02*
X1310106Y1160552D01*
X1319532D01*
X1231900Y1231900D02*
X1311197Y1152603D01*
X1231900Y1231900D02*
Y1517396D01*
X1311197Y1152603D02*
X1322506D01*
X1227402Y1228919D02*
Y1521534D01*
Y1228919D02*
X1311864Y1144457D01*
X1321217D01*
X1217676Y1192022D02*
X1281150Y1128548D01*
X1321056D01*
X1217676Y1192022D02*
Y1527302D01*
X1280388Y1139216D02*
X1318823D01*
X1222502Y1197102D02*
Y1524254D01*
Y1197102D02*
X1280388Y1139216D01*
X1241298Y1236980D02*
Y1511046D01*
Y1236980D02*
X1309691Y1168587D01*
X1321363D01*
X1393293Y1256525D02*
Y1534771D01*
X1402334Y1543812D01*
X1384046Y1261034D02*
Y1533144D01*
X1394460Y1543558D01*
X1379220Y1536700D02*
X1386586Y1544066D01*
X1379220Y1260602D02*
Y1536700D01*
X1503493Y1172397D02*
X1521714Y1154176D01*
Y1139952D02*
Y1154176D01*
X1807718Y1383284D02*
X1830832Y1406398D01*
X1807718Y1367536D02*
Y1383284D01*
X1792224Y1352042D02*
X1807718Y1367536D01*
X1792224Y1061720D02*
Y1352042D01*
X1757426Y1329436D02*
X1794243Y1366254D01*
X1757426Y1169924D02*
Y1329436D01*
X1796796Y1040892D02*
Y1241298D01*
X1786128Y1030224D02*
X1796796Y1040892D01*
X1581658Y1218438D02*
Y1307338D01*
Y1218438D02*
X1586639Y1213457D01*
X1546606Y1133094D02*
Y1162050D01*
Y1133094D02*
X1546860Y1132840D01*
X1454406Y1264160D02*
Y1295906D01*
X1449326Y1259080D02*
X1454406Y1264160D01*
X1453896Y1296416D02*
X1454406Y1295906D01*
X1481363Y1152585D02*
X1509589D01*
X1513078Y1149096D01*
X1444246Y1265454D02*
Y1271268D01*
X1437363Y1252525D02*
Y1258571D01*
X1444244Y1271270D02*
X1444246Y1271268D01*
X1437363Y1258571D02*
X1444246Y1265454D01*
X1412813Y1326453D02*
X1413002Y1326642D01*
X1398090Y1314778D02*
X1409765Y1326453D01*
X1398090Y1258016D02*
Y1314778D01*
X1409765Y1326453D02*
X1412813D01*
X1604518Y1271524D02*
X1610106Y1265936D01*
Y1047496D02*
Y1265936D01*
X1604010Y1041400D02*
X1610106Y1047496D01*
X1468122Y1257704D02*
Y1304316D01*
X1465483Y1255064D02*
X1468122Y1257704D01*
X1484828Y1172397D02*
X1503493D01*
X1463296Y1260858D02*
Y1314476D01*
X1457556Y1255118D02*
X1463296Y1260858D01*
X1587754Y1231138D02*
X1591659Y1227233D01*
X1605788Y1135126D02*
Y1208786D01*
X1601216Y1213358D02*
X1605788Y1208786D01*
X1613408Y1037082D02*
Y1037890D01*
X1614932Y1039414D02*
Y1451356D01*
X1522222Y1544066D02*
X1614932Y1451356D01*
X1613408Y1037890D02*
X1614932Y1039414D01*
X1188664Y1041866D02*
X1189235Y1041295D01*
X1369417Y1256818D02*
Y1331087D01*
X1318158Y1187730D02*
X1325363D01*
X1217676Y1527302D02*
X1234694Y1544320D01*
X1594358Y1544066D02*
X1638300Y1500124D01*
X1594025Y1544399D02*
X1594358Y1544066D01*
X1425829Y1542923D02*
X1437134Y1531618D01*
X1433225Y1543401D02*
X1449070Y1527556D01*
X1063752Y1246886D02*
Y1383538D01*
X1069340Y1389126D01*
X1104646Y1324102D02*
Y1449578D01*
X1199979Y1544911D02*
X1226483D01*
X1104646Y1449578D02*
X1199979Y1544911D01*
X1465328Y1065786D02*
Y1096525D01*
X1468882Y1041146D02*
X1475994D01*
X1457200Y1059432D02*
X1470660Y1045972D01*
X1457200Y1059432D02*
Y1096793D01*
X1449326Y1060702D02*
Y1097306D01*
Y1060702D02*
X1468882Y1041146D01*
X1473456Y1079348D02*
Y1097788D01*
Y1079348D02*
X1485392Y1067412D01*
X1610106Y1543304D02*
X1642618Y1510792D01*
X1691894D01*
X1748790Y1453896D01*
X1602232Y1543812D02*
X1640332Y1505712D01*
X1638300Y1500124D02*
X1687068D01*
X1586484Y1544066D02*
X1636522Y1494028D01*
X1686306D01*
X1578356Y1544066D02*
X1632712Y1489710D01*
X1640332Y1505712D02*
X1689354D01*
X1632712Y1489710D02*
X1683258D01*
X1554480Y1543558D02*
X1612900Y1485138D01*
X1546606Y1543304D02*
X1610614Y1479296D01*
X1676400D01*
X1538732Y1543812D02*
X1608328Y1474216D01*
X1674368D01*
X1605788Y1469136D02*
X1672082D01*
X1530858Y1544066D02*
X1605788Y1469136D01*
X1541018Y1446276D02*
Y1460754D01*
X1458468Y1543304D02*
X1541018Y1460754D01*
X1450340Y1543558D02*
X1450340D01*
X1473363Y1520535D01*
Y1256525D02*
Y1520535D01*
X1442212Y1543304D02*
X1442212D01*
X1458722Y1526794D01*
Y1261872D02*
Y1526794D01*
X1449070Y1264143D02*
Y1527556D01*
X1437134Y1462280D02*
Y1531618D01*
X1419476Y1542418D02*
X1425450Y1536444D01*
Y1256525D02*
Y1536444D01*
X1410462Y1543558D02*
X1410462D01*
X1417363Y1256525D02*
Y1536657D01*
X1410462Y1543558D02*
X1417363Y1536657D01*
X1374650Y1540258D02*
X1378712Y1544320D01*
X1374650Y1258850D02*
Y1540258D01*
X1236472Y1513840D02*
X1266190Y1543558D01*
X1231900Y1517396D02*
X1258316Y1543812D01*
X1227402Y1521534D02*
X1250188Y1544320D01*
X1330198Y1543050D02*
X1334264Y1538984D01*
Y1258596D02*
Y1538984D01*
X1314450Y1239601D02*
Y1541012D01*
Y1239601D02*
X1321363Y1232688D01*
X1306576Y1543558D02*
X1309372Y1540762D01*
Y1540762D02*
X1309372Y1540762D01*
Y1236157D02*
Y1540762D01*
X1309372Y1540762D02*
Y1540762D01*
X1319276Y1539240D02*
X1321816Y1541780D01*
X1319276Y1245108D02*
Y1539240D01*
X1281938Y1535176D02*
X1290320Y1543558D01*
X1281938Y1217196D02*
Y1535176D01*
X1272794Y1534414D02*
X1282446Y1544066D01*
X1272794Y1212088D02*
Y1534414D01*
X1241298Y1511046D02*
X1274318Y1544066D01*
X1312739Y1172143D02*
X1321363D01*
X1272794Y1212088D02*
X1312739Y1172143D01*
X1281938Y1217196D02*
X1314452Y1184682D01*
X1320802D01*
X1672082Y1469136D02*
X1711452Y1429766D01*
Y1185164D02*
Y1429766D01*
X1309372Y1236157D02*
X1321062Y1224467D01*
X1612900Y1485138D02*
X1679194D01*
X1726438Y1437894D01*
Y1170686D02*
Y1437894D01*
X1748790Y1169162D02*
Y1453896D01*
X1334264Y1258596D02*
X1336335Y1256525D01*
X1453934Y1257084D02*
X1458722Y1261872D01*
X1453934Y1253096D02*
Y1257084D01*
X1453363Y1252525D02*
X1453934Y1253096D01*
X1676400Y1479296D02*
X1722120Y1433576D01*
Y1180338D02*
Y1433576D01*
X1437134Y1267486D02*
Y1462280D01*
X1437134Y1462280D02*
X1437134Y1462280D01*
X1433324Y1263676D02*
X1437134Y1267486D01*
X1730756Y1184910D02*
Y1442212D01*
X1683258Y1489710D02*
X1730756Y1442212D01*
X1687068Y1500124D02*
X1739900Y1447292D01*
Y1178052D02*
Y1447292D01*
X1379220Y1260602D02*
X1381506Y1258316D01*
Y1252474D02*
Y1258316D01*
X1384046Y1261034D02*
X1385419Y1259661D01*
Y1256525D02*
Y1259661D01*
X1541018Y1446276D02*
X1589786Y1397508D01*
Y1315466D02*
Y1397508D01*
X1581658Y1307338D02*
X1589786Y1315466D01*
X1674368Y1474216D02*
X1717548Y1431036D01*
Y1183640D02*
Y1431036D01*
X1744218Y1173734D02*
Y1450848D01*
X1689354Y1505712D02*
X1744218Y1450848D01*
X1222502Y1524254D02*
X1242314Y1544066D01*
X1318823Y1139216D02*
X1321363Y1136676D01*
X1319276Y1245108D02*
X1321308Y1243076D01*
X1374650Y1258850D02*
X1377190Y1256310D01*
X1441452Y1256525D02*
X1449070Y1264143D01*
X1735582Y1181862D02*
Y1444752D01*
X1686306Y1494028D02*
X1735582Y1444752D01*
X1516380Y1199388D02*
X1529842Y1185926D01*
Y1178814D02*
Y1185926D01*
Y1178814D02*
X1546606Y1162050D01*
X1536836Y1100700D02*
Y1159374D01*
X1494063Y1202147D02*
X1536836Y1159374D01*
Y1100700D02*
X1536840Y1100696D01*
X1482563Y1202147D02*
X1494063D01*
X1481100Y1200684D02*
X1482563Y1202147D01*
X1531874Y1103884D02*
X1532128Y1104138D01*
X1495445Y1192637D02*
X1532128Y1155954D01*
Y1104138D02*
Y1155954D01*
X1480672Y1192637D02*
X1495445D01*
X1516380Y1185926D02*
X1542288Y1160018D01*
X1516380Y1185926D02*
Y1192276D01*
X1542288Y1090930D02*
Y1160018D01*
X1587754Y1231138D02*
Y1306576D01*
X1493266Y1021334D02*
Y1106960D01*
X1059434Y1207770D02*
Y1376454D01*
X1053848Y1382040D02*
X1059434Y1376454D01*
X1476552Y924356D02*
X1487932Y935736D01*
X1479806Y1120420D02*
X1493266Y1106960D01*
X1433324Y939290D02*
Y1097052D01*
Y939290D02*
X1458722Y913892D01*
X1277366Y1214374D02*
X1315948Y1175792D01*
X1277366Y1214374D02*
Y1456182D01*
X1487170Y1238332D02*
Y1435862D01*
X1477363Y1228525D02*
X1487170Y1238332D01*
X1296416Y1225472D02*
Y1410970D01*
Y1225472D02*
X1325363Y1196525D01*
X1361363Y1255469D02*
X1361948Y1256054D01*
Y1338834D01*
X1595628Y1314450D02*
Y1371346D01*
X1587754Y1306576D02*
X1595628Y1314450D01*
Y1371346D02*
X1602994Y1378712D01*
X1605176Y1067158D02*
Y1067158D01*
X1604772Y1067562D02*
X1605176Y1067158D01*
X1596390Y1075944D02*
X1604772Y1067562D01*
X1596390Y1075944D02*
Y1238504D01*
X1592326Y1242568D02*
X1596390Y1238504D01*
X1592072Y1242568D02*
X1592326D01*
X1604908Y1066540D02*
Y1066891D01*
X1407162Y1258150D02*
Y1316230D01*
Y1258150D02*
X1408787Y1256525D01*
X1407162Y1316230D02*
X1411986Y1321054D01*
X1413363Y1252525D02*
Y1253333D01*
X1353314Y1256525D02*
Y1349758D01*
X1353820Y1350264D01*
X1305054Y1232995D02*
X1321363Y1216686D01*
X1305054Y1232995D02*
Y1400582D01*
X1349363Y1252525D02*
Y1358531D01*
X1349248Y1358646D02*
X1349363Y1358531D01*
X1329184Y1256525D02*
Y1395502D01*
X1329438Y1395756D01*
X1286510Y1219378D02*
X1318158Y1187730D01*
X1286510Y1219378D02*
Y1421384D01*
X1369417Y1331087D02*
X1369824Y1331494D01*
X1343916Y1384326D02*
X1344424Y1384834D01*
X1343916Y1259108D02*
Y1384326D01*
Y1259108D02*
X1345541Y1257483D01*
X1291590Y1222329D02*
Y1416304D01*
Y1222329D02*
X1321363Y1192556D01*
X1300958Y1406622D02*
X1300988Y1406652D01*
X1300958Y1227874D02*
Y1406622D01*
Y1227874D02*
X1320367Y1208465D01*
X1341168Y1252720D02*
X1341363Y1252525D01*
X1338836Y1390168D02*
X1339090Y1390422D01*
X1338836Y1258857D02*
X1341168Y1256525D01*
Y1252720D02*
Y1256525D01*
X1338836Y1258857D02*
Y1390168D01*
X1515110Y1098296D02*
X1515364D01*
X1504806Y1108600D02*
X1515110Y1098296D01*
X1504806Y1108600D02*
Y1121081D01*
X1481363Y1144524D02*
X1504806Y1121081D01*
X1527048Y1096518D02*
Y1155192D01*
X1517396Y1107948D02*
Y1150874D01*
X1513078Y1155192D02*
X1517396Y1150874D01*
X1493715Y1188525D02*
X1527048Y1155192D01*
X1477363Y1236525D02*
X1482371Y1241534D01*
Y1448780D01*
X1753108Y1166622D02*
Y1457198D01*
Y1166622D02*
X1756664Y1163066D01*
X1477494Y1188525D02*
X1493715D01*
X1453363Y1164525D02*
X1453520Y1164682D01*
X1425196Y1098068D02*
X1428496Y1094768D01*
Y954024D02*
Y1094768D01*
Y952500D02*
Y954024D01*
X1324792Y1203954D02*
X1325363Y1204525D01*
X1323106Y1203954D02*
X1324792D01*
X1322941Y1203789D02*
X1323106Y1203954D01*
X1424178Y985026D02*
X1424400Y984803D01*
Y949738D02*
Y984803D01*
Y949738D02*
X1424432Y949706D01*
X1424178Y985026D02*
Y1094795D01*
X1421363Y1097610D02*
X1424178Y1094795D01*
X1477363Y1204525D02*
X1496568Y1223730D01*
Y1293876D01*
X1357126Y1343410D02*
X1357630Y1343914D01*
X1357126Y1253096D02*
Y1343410D01*
X1315948Y1175792D02*
X1324497D01*
X1189845Y1092281D02*
X1304302D01*
X1321267Y1110222D02*
X1323591Y1112546D01*
X1321267Y1109247D02*
Y1110222D01*
X1304302Y1092281D02*
X1321267Y1109247D01*
X1332880Y1124042D02*
X1333363Y1124525D01*
X1189816Y1051933D02*
X1190624D01*
X1191716Y1053025D01*
X1341363Y1087387D02*
Y1100525D01*
X1191716Y1053025D02*
X1307002D01*
X1341363Y1087387D01*
X1189270Y1019063D02*
X1189611Y1018722D01*
X1302430Y1019243D02*
X1304847Y1021661D01*
X1189611Y1018722D02*
X1190941D01*
X1355073Y1071887D02*
X1357491Y1074304D01*
Y1092981D02*
X1358421Y1093911D01*
X1190941Y1018722D02*
X1191462Y1019243D01*
X1358749Y1093911D02*
X1361289Y1096451D01*
X1304847Y1021661D02*
X1355073Y1071887D01*
X1357491Y1074304D02*
Y1092981D01*
X1304847Y1021661D02*
Y1021661D01*
X1191462Y1019243D02*
X1302430D01*
X1355073Y1071887D02*
X1355073D01*
X1358421Y1093911D02*
X1358749D01*
X1337236Y1090117D02*
Y1099192D01*
X1190098Y1058245D02*
X1190906D01*
X1191998Y1057153D01*
X1304271D02*
X1337236Y1090117D01*
X1191998Y1057153D02*
X1304271D01*
X1189800Y1085969D02*
X1191984Y1088154D01*
X1323635Y1104462D02*
X1323667Y1104430D01*
X1189562Y1085969D02*
X1189800D01*
X1306012Y1088154D02*
X1322319Y1104462D01*
X1191984Y1088154D02*
X1306012D01*
X1322319Y1104462D02*
X1323635D01*
X1322941Y1122589D02*
X1324877Y1124525D01*
X1190324Y1108420D02*
X1190895Y1107849D01*
X1299565Y1107436D02*
X1314719Y1122589D01*
X1192746Y1107436D02*
X1299565D01*
X1324877Y1124525D02*
X1325363D01*
X1192333Y1107849D02*
X1192746Y1107436D01*
X1190895Y1107849D02*
X1192333D01*
X1314719Y1122589D02*
X1322941D01*
X1191825Y1070129D02*
X1192238Y1070542D01*
X1310294D02*
X1333329Y1093577D01*
X1192238Y1070542D02*
X1310294D01*
X1333329Y1093577D02*
Y1100492D01*
X1189816Y1069558D02*
X1190387Y1070129D01*
X1333329Y1100492D02*
X1333363Y1100525D01*
X1190387Y1070129D02*
X1191825D01*
X1189845Y1024463D02*
X1190652D01*
X1191744Y1023371D02*
X1300720D01*
X1353363Y1076014D02*
Y1096525D01*
X1300720Y1023371D02*
Y1023371D01*
X1353363Y1076014D01*
X1190652Y1024463D02*
X1191744Y1023371D01*
X1353363Y1076014D02*
X1353363D01*
X1191486Y1040882D02*
X1302986D01*
Y1040882D02*
X1345235Y1083131D01*
X1189235Y1041295D02*
X1191073D01*
X1302986Y1040882D02*
Y1040882D01*
X1345235Y1083131D02*
X1345236D01*
X1191073Y1041295D02*
X1191486Y1040882D01*
X1192333Y1102895D02*
X1192746Y1103308D01*
X1316428Y1118462D02*
X1322941D01*
X1324877Y1116525D02*
X1325363D01*
X1190324Y1102324D02*
X1190895Y1102895D01*
X1192333D01*
X1322941Y1118462D02*
X1324877Y1116525D01*
X1192746Y1103308D02*
X1301275D01*
X1316428Y1118462D01*
X1189816Y1075654D02*
X1190387Y1075083D01*
X1191825D01*
X1329285Y1094867D02*
Y1096525D01*
X1309088Y1074670D02*
X1329285Y1094867D01*
X1191825Y1075083D02*
X1192238Y1074670D01*
X1309088D01*
X1304696Y1036754D02*
X1307113Y1039172D01*
Y1039172D01*
X1346945Y1079004D02*
X1346945D01*
X1191073Y1036341D02*
X1191486Y1036754D01*
X1304696D01*
X1346945Y1079004D02*
X1349363Y1081422D01*
X1189635Y1036341D02*
X1191073D01*
X1307113Y1039172D02*
X1346945Y1079004D01*
X1189064Y1035770D02*
X1189635Y1036341D01*
X1349363Y1081422D02*
Y1100525D01*
D102*
X1437363Y1105967D02*
X1441452Y1101878D01*
X1437363Y1105967D02*
Y1108525D01*
X1441452Y1096525D02*
Y1101878D01*
X1461660Y1175934D02*
X1478702D01*
X1453520Y1167794D02*
X1461660Y1175934D01*
X1439827Y1244525D02*
X1443738Y1248436D01*
X1449326Y1250976D02*
Y1259080D01*
X1443738Y1248436D02*
X1446786D01*
X1437363Y1244525D02*
X1439827D01*
X1446786Y1248436D02*
X1449326Y1250976D01*
X1471843Y1148525D02*
X1475903Y1152585D01*
X1481363D01*
X1469363Y1148525D02*
X1471843D01*
X1401675Y1240213D02*
X1413363Y1228525D01*
X1401675Y1240213D02*
Y1254431D01*
X1398090Y1258016D02*
X1401675Y1254431D01*
X1451358Y1240562D02*
X1463550D01*
X1445363Y1228525D02*
X1449363Y1232525D01*
Y1238567D02*
X1451358Y1240562D01*
X1465483Y1242495D02*
Y1255064D01*
X1449363Y1232525D02*
Y1238567D01*
X1463550Y1240562D02*
X1465483Y1242495D01*
X1457301Y1166301D02*
X1463397Y1172397D01*
X1484828D01*
X1453363Y1148525D02*
X1457301Y1152463D01*
Y1166301D01*
X1447040Y1240562D02*
X1449363Y1242885D01*
X1441400Y1240562D02*
X1447040D01*
X1437363Y1236525D02*
X1441400Y1240562D01*
X1451612Y1248436D02*
X1454914D01*
X1457452Y1250974D02*
Y1255118D01*
X1449363Y1246187D02*
X1451612Y1248436D01*
X1449363Y1242885D02*
Y1246187D01*
X1454914Y1248436D02*
X1457452Y1250974D01*
X1369417Y1256525D02*
Y1256818D01*
Y1234627D02*
Y1256525D01*
X1465328Y1096525D02*
Y1104560D01*
X1461363Y1108525D02*
X1465328Y1104560D01*
X1473456Y1097788D02*
Y1109978D01*
X1470914Y1112520D02*
X1473456Y1109978D01*
X1339702Y1160448D02*
X1345440D01*
X1337312Y1162838D02*
Y1167664D01*
Y1162838D02*
X1339702Y1160448D01*
X1345440D02*
X1349363Y1156525D01*
X1321363Y1172143D02*
X1332833D01*
X1337312Y1167664D01*
X1345186Y1176046D02*
X1349363Y1171869D01*
X1320802Y1184682D02*
X1342900D01*
X1349363Y1164525D02*
Y1171869D01*
X1345186Y1176046D02*
Y1182396D01*
X1342900Y1184682D02*
X1345186Y1182396D01*
X1345305Y1224467D02*
X1349363Y1228525D01*
X1321062Y1224467D02*
X1345305D01*
X1417363Y1240525D02*
X1421363Y1236525D01*
X1417363Y1240525D02*
Y1256525D01*
X1469363Y1220525D02*
X1473363Y1224525D01*
Y1256525D01*
X1461363Y1124525D02*
X1461837Y1124051D01*
X1319532Y1160552D02*
X1334772D01*
X1338799Y1156525D02*
X1341363D01*
X1334772Y1160552D02*
X1338799Y1156525D01*
X1345186Y1242594D02*
X1347218Y1240562D01*
X1353326D01*
X1342900Y1248690D02*
X1345186Y1246404D01*
Y1242594D02*
Y1246404D01*
X1353326Y1240562D02*
X1357363Y1236525D01*
X1337312Y1250468D02*
X1339090Y1248690D01*
X1342900D01*
X1336335Y1256525D02*
X1337312Y1255548D01*
Y1250468D02*
Y1255548D01*
X1393293Y1232455D02*
Y1256525D01*
X1389363Y1228525D02*
X1393293Y1232455D01*
X1331127Y1148525D02*
X1333363D01*
X1327059Y1144457D02*
X1331127Y1148525D01*
X1321217Y1144457D02*
X1327059D01*
X1329301Y1168587D02*
X1333363Y1164525D01*
X1321363Y1168587D02*
X1329301D01*
X1353200Y1232688D02*
X1357363Y1228525D01*
X1321363Y1232688D02*
X1353200D01*
X1433324Y1250976D02*
Y1263676D01*
X1429796Y1247448D02*
X1433324Y1250976D01*
X1429796Y1244958D02*
Y1247448D01*
X1429363Y1244525D02*
X1429796Y1244958D01*
X1345295Y1144457D02*
X1349363Y1148525D01*
X1339852Y1144457D02*
X1345295D01*
X1337312Y1141917D02*
X1339852Y1144457D01*
X1335026Y1128548D02*
X1337312Y1130834D01*
Y1141917D01*
X1321056Y1128548D02*
X1335026D01*
X1329423Y1152585D02*
X1333363Y1156525D01*
X1322506Y1152585D02*
X1329423D01*
X1385419Y1248469D02*
X1389363Y1244525D01*
X1385419Y1248469D02*
Y1256525D01*
X1421363Y1244525D02*
X1425450Y1248612D01*
Y1256525D01*
X1339001Y1148525D02*
X1341363D01*
X1331631Y1144457D02*
X1334933D01*
X1339001Y1148525D01*
X1329184Y1142010D02*
X1331631Y1144457D01*
X1327406Y1136676D02*
X1329184Y1138454D01*
Y1142010D01*
X1321363Y1136676D02*
X1327406D01*
X1346483Y1237206D02*
X1348683D01*
X1349363Y1236525D01*
X1343163Y1240525D02*
X1345949Y1237739D01*
X1346483Y1237206D01*
X1323859Y1240525D02*
X1343163D01*
X1321308Y1243076D02*
X1323859Y1240525D01*
X1377190Y1248698D02*
Y1256310D01*
Y1248698D02*
X1381363Y1244525D01*
X1439166Y1248436D02*
X1441452Y1250722D01*
Y1256525D01*
X1435102Y1248436D02*
X1439166D01*
X1433324Y1246658D02*
X1435102Y1248436D01*
X1429363Y1236601D02*
X1433324Y1240562D01*
Y1246658D01*
X1429363Y1236525D02*
Y1236601D01*
X1481074Y1200658D02*
X1481100Y1200684D01*
X1459992Y1200658D02*
X1481074D01*
X1457452Y1198118D02*
X1459992Y1200658D01*
X1457452Y1195070D02*
Y1198118D01*
X1454043Y1191661D02*
X1457452Y1195070D01*
X1453363Y1188525D02*
X1454043Y1189206D01*
Y1191661D01*
X1453363Y1180525D02*
X1457198Y1184360D01*
X1459845Y1192637D02*
X1480672D01*
X1457198Y1189990D02*
X1459845Y1192637D01*
X1457198Y1184360D02*
Y1189990D01*
X1445363Y1116525D02*
X1449368Y1112520D01*
X1470914D01*
X1329332Y1192556D02*
X1333363Y1188525D01*
X1329332Y1192556D02*
X1329345D01*
X1321363D02*
X1329332D01*
X1361363Y1240525D02*
Y1255469D01*
Y1240525D02*
X1365363Y1236525D01*
X1408787Y1249101D02*
X1413363Y1244525D01*
X1408787Y1249101D02*
Y1256525D01*
X1463928Y1132525D02*
X1467905Y1128548D01*
X1461363Y1132525D02*
X1463928D01*
X1470916Y1128548D02*
X1473202Y1126262D01*
X1467905Y1128548D02*
X1470916D01*
X1473202Y1122706D02*
X1475488Y1120420D01*
X1473202Y1122706D02*
Y1126262D01*
X1475488Y1120420D02*
X1479806D01*
X1353314Y1248574D02*
X1357363Y1244525D01*
X1353314Y1248574D02*
Y1256525D01*
X1337413Y1200475D02*
X1341363Y1196525D01*
X1334772Y1216686D02*
X1337413Y1214045D01*
X1321363Y1216686D02*
X1334772D01*
X1337413Y1200475D02*
Y1214045D01*
X1331724Y1248690D02*
X1335026D01*
X1329184Y1251230D02*
X1331724Y1248690D01*
X1329184Y1251230D02*
Y1256525D01*
X1335026Y1248690D02*
X1339191Y1244525D01*
X1341363D01*
X1365363Y1230573D02*
X1369417Y1234627D01*
X1365363Y1228525D02*
Y1230573D01*
X1345541Y1250875D02*
X1349363Y1247053D01*
Y1244525D02*
Y1247053D01*
X1345541Y1250875D02*
Y1257483D01*
X1329345Y1192556D02*
X1330281Y1191621D01*
X1329184Y1200704D02*
Y1207034D01*
X1327753Y1208465D02*
X1329184Y1207034D01*
X1320367Y1208465D02*
X1327753D01*
X1329184Y1200704D02*
X1333363Y1196525D01*
X1467635Y1144524D02*
X1481363D01*
X1465326Y1146833D02*
X1467635Y1144524D01*
X1465326Y1146833D02*
Y1152562D01*
X1461363Y1156525D02*
X1465326Y1152562D01*
X1453520Y1164682D02*
Y1167794D01*
X1461363Y1188525D02*
X1477494D01*
X1441198Y1107212D02*
Y1118642D01*
X1437363Y1122477D02*
X1441198Y1118642D01*
X1443992Y1104418D02*
X1447040D01*
X1449326Y1102132D01*
Y1097306D02*
Y1102132D01*
X1437363Y1122477D02*
Y1124525D01*
X1441198Y1107212D02*
X1443992Y1104418D01*
X1453363Y1108525D02*
X1457428Y1104460D01*
Y1096525D02*
Y1104460D01*
X1433324Y1097052D02*
Y1112486D01*
X1437363Y1116525D01*
X1429363Y1106198D02*
Y1116525D01*
X1425297Y1102132D02*
X1429363Y1106198D01*
X1425297Y1098169D02*
Y1102132D01*
X1425196Y1098068D02*
X1425297Y1098169D01*
X1425196Y1120358D02*
X1429363Y1124525D01*
X1421363Y1097610D02*
Y1102109D01*
X1425196Y1105942D01*
Y1120358D01*
X1329173Y1114947D02*
Y1118128D01*
X1323591Y1112546D02*
X1323761Y1112715D01*
X1329173Y1118128D02*
X1332789Y1121743D01*
Y1123951D02*
X1332880Y1124042D01*
X1323761Y1112715D02*
X1326941D01*
X1332789Y1121743D02*
Y1123951D01*
X1326941Y1112715D02*
X1329173Y1114947D01*
X1361289Y1096451D02*
Y1112599D01*
X1357363Y1116525D02*
X1361289Y1112599D01*
X1324497Y1175792D02*
X1334518D01*
X1341363Y1164525D02*
Y1168947D01*
X1334518Y1175792D02*
X1341363Y1168947D01*
X1337236Y1099192D02*
Y1104398D01*
X1341363Y1108525D01*
X1326866Y1104640D02*
X1329459Y1107233D01*
X1353363Y1096525D02*
Y1120525D01*
X1357363Y1124525D01*
X1345236Y1104398D02*
X1349363Y1108525D01*
X1345236Y1083131D02*
Y1104398D01*
X1332792Y1105740D02*
Y1107954D01*
X1333363Y1108525D01*
X1329285Y1096525D02*
Y1102233D01*
X1332792Y1105740D01*
D103*
X1591437Y838200D02*
D03*
Y889000D02*
D03*
Y939800D02*
D03*
Y863600D02*
D03*
X1566037Y914400D02*
D03*
Y812800D02*
D03*
Y939800D02*
D03*
Y889000D02*
D03*
X1591437Y812800D02*
D03*
X1566037Y965200D02*
D03*
X1591437D02*
D03*
X1566037Y838200D02*
D03*
Y863600D02*
D03*
X1591437Y914400D02*
D03*
D104*
X1771142Y1507744D02*
D03*
X1105916Y674077D02*
D03*
X1020064Y717804D02*
D03*
X1411224Y834390D02*
D03*
X1836928Y743204D02*
D03*
X1597660Y1296416D02*
D03*
X1815592Y1461262D02*
D03*
X1490726Y1470152D02*
D03*
X1406906Y1484376D02*
D03*
X1569212Y1140968D02*
D03*
X1593412Y1443736D02*
D03*
X1136650Y1248918D02*
D03*
X1135888Y1284478D02*
D03*
X1118616Y1275334D02*
D03*
X1136396Y1266190D02*
D03*
X1135888Y1302004D02*
D03*
X1118362Y1293114D02*
D03*
X1118870Y1240028D02*
D03*
X1118616Y1257554D02*
D03*
X1135634Y1319276D02*
D03*
X1135126Y1408176D02*
D03*
Y1390650D02*
D03*
X1117854Y1399286D02*
D03*
Y1434592D02*
D03*
Y1417066D02*
D03*
X1135126Y1425702D02*
D03*
Y1443482D02*
D03*
X1117600Y1381506D02*
D03*
X1117854Y1346454D02*
D03*
X1135126Y1355598D02*
D03*
Y1373124D02*
D03*
X1117854Y1328674D02*
D03*
X1118362Y1310640D02*
D03*
X1117854Y1363980D02*
D03*
X1135380Y1338072D02*
D03*
X1251712Y1181100D02*
D03*
X1253490Y1446530D02*
D03*
X1545082Y1268730D02*
D03*
X1513078Y1472692D02*
D03*
D105*
X1691741Y895765D02*
D03*
X1793341D02*
D03*
X1789430Y820166D02*
D03*
X1687830D02*
D03*
X1767941Y895765D02*
D03*
X1713230Y820166D02*
D03*
X1789430Y794766D02*
D03*
X1713230D02*
D03*
X1738630Y820166D02*
D03*
X1764030Y794766D02*
D03*
Y820166D02*
D03*
X1738630Y794766D02*
D03*
X1767941Y921165D02*
D03*
X1691741D02*
D03*
X1717141Y895765D02*
D03*
Y921165D02*
D03*
X1742541Y895765D02*
D03*
Y921165D02*
D03*
D106*
X1030224Y657860D02*
D03*
Y1563116D02*
D03*
X1830070D02*
D03*
Y657860D02*
D03*
D107*
X1687830Y794766D02*
D03*
X1793341Y921165D02*
D03*
D110*
X1201400Y1537716D02*
D03*
X1793906Y1431286D02*
D03*
X1061741Y988715D02*
D03*
D111*
X1643400Y1537716D02*
D03*
X1793906Y989286D02*
D03*
X1061741Y1430715D02*
D03*
D112*
X1260220Y717804D02*
D03*
X1627634Y1408629D02*
D03*
X1628396Y1354862D02*
D03*
X1627632Y1267460D02*
D03*
X1628650Y1130072D02*
D03*
X1627632Y1214120D02*
D03*
X1670558Y1029208D02*
D03*
X1628140Y1074166D02*
D03*
X1403604Y794258D02*
D03*
X1211834Y1410716D02*
D03*
X1212064Y1316507D02*
D03*
X1212088Y1308354D02*
D03*
X1203452Y1432814D02*
D03*
X1211580Y1354328D02*
D03*
Y1274572D02*
D03*
X1207262Y1229106D02*
D03*
X1168402Y1183412D02*
D03*
X1217168Y747522D02*
D03*
X1216660Y732282D02*
D03*
X1198372Y731774D02*
D03*
X1198118Y748030D02*
D03*
X1073404Y728218D02*
D03*
X1084291Y751967D02*
D03*
X1131045Y889648D02*
D03*
X1182376Y684872D02*
D03*
X1197610Y687920D02*
D03*
X1187958Y822452D02*
D03*
X1189990Y883920D02*
D03*
X1216018Y995927D02*
D03*
Y1012945D02*
D03*
Y979163D02*
D03*
Y1046219D02*
D03*
Y1062729D02*
D03*
Y1029201D02*
D03*
X1064006Y1067054D02*
D03*
X1053839Y1077715D02*
D03*
X1066292Y1114044D02*
D03*
X1216018Y1079747D02*
D03*
Y1096765D02*
D03*
Y1113529D02*
D03*
X1246378Y826014D02*
D03*
X1265936Y826262D02*
D03*
X1221860Y1012945D02*
D03*
Y979163D02*
D03*
Y995927D02*
D03*
X1301369Y849121D02*
D03*
X1355852Y938276D02*
D03*
X1374902D02*
D03*
X1363980Y938784D02*
D03*
X1325702Y983362D02*
D03*
X1328928Y992124D02*
D03*
X1374648Y992632D02*
D03*
X1221860Y1062729D02*
D03*
Y1029201D02*
D03*
Y1046219D02*
D03*
Y1113529D02*
D03*
Y1079747D02*
D03*
Y1096765D02*
D03*
X1296647Y1083287D02*
D03*
X1326638Y1034060D02*
D03*
X1325363Y1100525D02*
D03*
X1376934Y1059434D02*
D03*
X1365363Y1100525D02*
D03*
X1373363D02*
D03*
X1283208Y1112266D02*
D03*
X1365363Y1108525D02*
D03*
X1373363D02*
D03*
X1053592Y1125474D02*
D03*
X1053084Y1188974D02*
D03*
X1098042Y1181862D02*
D03*
X1144780Y1201700D02*
D03*
X1068324Y1239520D02*
D03*
X1216018Y1130039D02*
D03*
Y1147311D02*
D03*
X1221860Y1130039D02*
D03*
Y1147311D02*
D03*
X1168654Y1232154D02*
D03*
X1206500Y1219200D02*
D03*
X1213104Y1231900D02*
D03*
X1069594Y1301496D02*
D03*
X1167894Y1287044D02*
D03*
X1167561Y1339121D02*
D03*
X1069848Y1381252D02*
D03*
X1167638Y1369314D02*
D03*
X1167507Y1394039D02*
D03*
X1168146Y1259840D02*
D03*
X1211834Y1268730D02*
D03*
X1211349Y1287041D02*
D03*
X1212872Y1339574D02*
D03*
X1168069Y1424465D02*
D03*
X1211834Y1420622D02*
D03*
X1282702Y1133120D02*
D03*
X1325363Y1140525D02*
D03*
X1333363Y1132525D02*
D03*
X1357363D02*
D03*
X1333363Y1140525D02*
D03*
X1357363D02*
D03*
X1325363Y1148525D02*
D03*
X1357363D02*
D03*
Y1164525D02*
D03*
X1373363Y1140525D02*
D03*
X1365363Y1148525D02*
D03*
X1373363Y1132525D02*
D03*
X1381363D02*
D03*
Y1140525D02*
D03*
X1365363Y1164525D02*
D03*
X1381363Y1156525D02*
D03*
Y1164525D02*
D03*
Y1180525D02*
D03*
X1325363Y1252525D02*
D03*
X1357363Y1212525D02*
D03*
Y1220525D02*
D03*
Y1188525D02*
D03*
X1246124Y1394206D02*
D03*
X1324610Y1293622D02*
D03*
X1246886Y1368806D02*
D03*
X1290320Y1529334D02*
D03*
X1354076Y1369848D02*
D03*
X1365363Y1188525D02*
D03*
Y1212525D02*
D03*
X1381363Y1188525D02*
D03*
Y1196525D02*
D03*
Y1212525D02*
D03*
X1362712Y1377976D02*
D03*
X1365363Y1220525D02*
D03*
X1381363D02*
D03*
X1388364Y1070356D02*
D03*
X1397363Y1156525D02*
D03*
X1389363D02*
D03*
X1405363D02*
D03*
X1420040Y1073732D02*
D03*
X1421363Y1140525D02*
D03*
X1437363D02*
D03*
Y1132525D02*
D03*
X1413363Y1140525D02*
D03*
Y1156525D02*
D03*
Y1164525D02*
D03*
X1437363Y1156525D02*
D03*
X1389363Y1164525D02*
D03*
Y1180525D02*
D03*
X1397363Y1164525D02*
D03*
X1405363D02*
D03*
X1397363Y1180525D02*
D03*
X1405363D02*
D03*
X1389363Y1188525D02*
D03*
Y1196525D02*
D03*
X1397363Y1188525D02*
D03*
Y1196525D02*
D03*
X1413363Y1180525D02*
D03*
X1437363D02*
D03*
X1405363Y1188525D02*
D03*
X1413363D02*
D03*
Y1196525D02*
D03*
X1437363D02*
D03*
X1579245Y838454D02*
D03*
X1579499Y863600D02*
D03*
X1591183Y900684D02*
D03*
Y952246D02*
D03*
X1715262Y1045718D02*
D03*
X1747774Y1057402D02*
D03*
X1679448Y1064167D02*
D03*
X1634490Y1074166D02*
D03*
X1631950Y1083056D02*
D03*
X1485138Y1092200D02*
D03*
X1477363Y1100525D02*
D03*
X1445363Y1156525D02*
D03*
Y1132525D02*
D03*
Y1140525D02*
D03*
Y1180525D02*
D03*
X1469363Y1164525D02*
D03*
X1477363Y1196525D02*
D03*
X1634490Y1130046D02*
D03*
X1707499Y1090025D02*
D03*
X1703578Y1114806D02*
D03*
X1627886Y1145286D02*
D03*
X1658418Y1150418D02*
D03*
X1703832Y1144778D02*
D03*
X1786128Y1165860D02*
D03*
X1405363Y1196525D02*
D03*
X1421363Y1212525D02*
D03*
X1437363D02*
D03*
X1397363Y1252525D02*
D03*
X1421363Y1220525D02*
D03*
X1437363D02*
D03*
X1445363Y1196525D02*
D03*
X1453363Y1204525D02*
D03*
X1445363Y1212525D02*
D03*
X1469363Y1196525D02*
D03*
X1461363Y1204525D02*
D03*
X1445363Y1220525D02*
D03*
X1477363Y1252525D02*
D03*
X1505712Y1215898D02*
D03*
X1477542Y1293345D02*
D03*
X1388618Y1301496D02*
D03*
X1521970Y1343178D02*
D03*
X1477518Y1407668D02*
D03*
X1412494Y1529588D02*
D03*
X1504188Y1400810D02*
D03*
X1521206Y1462532D02*
D03*
X1531112Y1342898D02*
D03*
X1579628Y1339876D02*
D03*
X1575816Y1346454D02*
D03*
X1532128Y1400810D02*
D03*
X1529975Y1461891D02*
D03*
X1559814Y1401572D02*
D03*
X1562862Y1407668D02*
D03*
X1567180Y1401064D02*
D03*
X1556004Y1462532D02*
D03*
X1628140Y1202944D02*
D03*
X1628142Y1227862D02*
D03*
X1628394Y1257300D02*
D03*
X1703578Y1199388D02*
D03*
X1704086Y1229360D02*
D03*
X1787906Y1251966D02*
D03*
X1703832Y1254252D02*
D03*
X1704079Y1284231D02*
D03*
X1627888Y1284931D02*
D03*
X1628394Y1341628D02*
D03*
X1628904Y1368070D02*
D03*
X1628394Y1394206D02*
D03*
X1583436Y1530096D02*
D03*
X1628648Y1419860D02*
D03*
X1704110Y1338048D02*
D03*
X1704340Y1368298D02*
D03*
X1785600Y1366286D02*
D03*
X1704088Y1393389D02*
D03*
X1703400Y1423033D02*
D03*
X1263332Y745744D02*
D03*
X1262990Y686620D02*
D03*
X1561084Y753618D02*
D03*
X1401064Y886460D02*
D03*
X1157605Y660107D02*
D03*
X1144206Y769810D02*
D03*
X1138647Y820293D02*
D03*
X1137539Y708748D02*
D03*
X1132840Y721106D02*
D03*
X1125429Y797433D02*
D03*
X1093087Y753745D02*
D03*
X1611122Y757682D02*
D03*
X1548892Y755904D02*
D03*
X1591564Y766826D02*
D03*
X1110961Y752729D02*
D03*
X1111098Y786493D02*
D03*
X1108075Y696556D02*
D03*
X1103595Y762889D02*
D03*
X1089152Y737870D02*
D03*
X1131062Y665695D02*
D03*
X1120394Y653503D02*
D03*
X1130683Y806921D02*
D03*
X1135888Y653503D02*
D03*
X1140933Y740791D02*
D03*
X1140968Y677379D02*
D03*
X1148842Y762254D02*
D03*
X1148080Y664933D02*
D03*
X1154303Y726567D02*
D03*
X1152363Y768731D02*
D03*
X1162431Y710145D02*
D03*
X1166114Y892556D02*
D03*
X1570482Y1462278D02*
D03*
X1572514Y1405128D02*
D03*
X1546606Y1400556D02*
D03*
X1544320Y1199134D02*
D03*
X1539494Y1400556D02*
D03*
X1539240Y1342898D02*
D03*
X1521206Y1405636D02*
D03*
X1507998Y1444498D02*
D03*
X1505712Y1407160D02*
D03*
X1498346Y1406144D02*
D03*
X1501648Y1342898D02*
D03*
X1534160Y1198880D02*
D03*
X1469363Y1252525D02*
D03*
X1453363Y1220525D02*
D03*
Y1212525D02*
D03*
X1550414Y911349D02*
D03*
X1560957Y794766D02*
D03*
X1461363Y1196525D02*
D03*
X1453363D02*
D03*
X1544320Y1192276D02*
D03*
X1445363Y1164525D02*
D03*
X1437363D02*
D03*
X1445363Y1148525D02*
D03*
X1437363D02*
D03*
X1543050Y977392D02*
D03*
X1545336Y836422D02*
D03*
X1477363Y1108525D02*
D03*
X1429363Y1220525D02*
D03*
X1397363D02*
D03*
X1389363Y1252525D02*
D03*
X1373363Y1212525D02*
D03*
Y1220525D02*
D03*
X1429363Y1212525D02*
D03*
X1397363D02*
D03*
X1365363Y1204525D02*
D03*
Y1196525D02*
D03*
X1325363Y1244525D02*
D03*
X1059180Y1405890D02*
D03*
X1021842Y1398778D02*
D03*
X1357363Y1204525D02*
D03*
Y1196525D02*
D03*
X1349363Y1212525D02*
D03*
Y1204525D02*
D03*
X1365363Y1156525D02*
D03*
X1357363D02*
D03*
X1325363D02*
D03*
X1389363Y1140525D02*
D03*
Y1132525D02*
D03*
X1421363D02*
D03*
X1413363D02*
D03*
X1381363Y1100525D02*
D03*
X1152144Y883920D02*
D03*
X1084101Y907148D02*
D03*
X1085628Y889647D02*
D03*
X1145157Y863714D02*
D03*
X1083339Y869556D02*
D03*
X1276858Y847598D02*
D03*
X1410716Y871474D02*
D03*
X1761410Y732634D02*
D03*
X1187704Y864362D02*
D03*
X1293074Y698754D02*
D03*
X1285620Y731266D02*
D03*
X1058926Y797052D02*
D03*
X1073404Y814070D02*
D03*
X1013460Y750316D02*
D03*
X1744392Y750390D02*
D03*
X1069086Y737870D02*
D03*
X1047496Y746252D02*
D03*
X1703832Y1408176D02*
D03*
X1144526Y1216940D02*
D03*
X1704340Y1352804D02*
D03*
X1703832Y1129792D02*
D03*
X1680718Y1070610D02*
D03*
X1703832Y1268730D02*
D03*
X1704594Y1214120D02*
D03*
X1168146Y1275334D02*
D03*
X1168069Y1409479D02*
D03*
X1167561Y1354107D02*
D03*
X1703787Y1129837D02*
D03*
X1429363Y1100525D02*
D03*
X1053846Y1044956D02*
D03*
X1481582Y938276D02*
D03*
X1478280Y962406D02*
D03*
X1053846Y1053338D02*
D03*
X1070211Y1062000D02*
D03*
X1472438Y957834D02*
D03*
X1437363Y1100525D02*
D03*
X1054100Y1060704D02*
D03*
X1437363Y1108525D02*
D03*
X1442602Y943429D02*
D03*
X1069957Y1053618D02*
D03*
X1445363Y1108525D02*
D03*
X1449578Y958596D02*
D03*
X1520190Y1213358D02*
D03*
X1445363Y1204525D02*
D03*
X1437363D02*
D03*
X1801622Y1086104D02*
D03*
X1445363Y1188525D02*
D03*
X1437363D02*
D03*
X1413363Y1212525D02*
D03*
Y1220525D02*
D03*
X1389363D02*
D03*
Y1212525D02*
D03*
X1429363Y1140525D02*
D03*
Y1132525D02*
D03*
X1397363D02*
D03*
X1365363Y1180525D02*
D03*
X1357363D02*
D03*
X1397363Y1140525D02*
D03*
X1477363Y1212525D02*
D03*
X1801622Y1094486D02*
D03*
X1512316Y1342703D02*
D03*
X1476552Y924356D02*
D03*
X1148715Y931037D02*
D03*
X1485138Y1182370D02*
D03*
X1556766Y1197991D02*
D03*
X1575816Y1198164D02*
D03*
X1831594Y1390142D02*
D03*
X1830832Y1406398D02*
D03*
X1801622Y1398016D02*
D03*
X1757504Y1398270D02*
D03*
X1757935Y1406145D02*
D03*
X1801663Y1294384D02*
D03*
X1801651Y1302512D02*
D03*
X1801293Y1310386D02*
D03*
X1801051Y1318514D02*
D03*
X1801368Y1326134D02*
D03*
X1801104Y1334516D02*
D03*
X1800606Y1342136D02*
D03*
X1800352Y1350264D02*
D03*
X1794243Y1366254D02*
D03*
X1786066Y1030286D02*
D03*
X1413363Y1236525D02*
D03*
X1796796Y1241298D02*
D03*
X1704342Y1344113D02*
D03*
X1707134Y1374140D02*
D03*
Y1358900D02*
D03*
X1521714Y1139952D02*
D03*
X1586242Y1213600D02*
D03*
X1641806Y1196797D02*
D03*
X1661160Y1299210D02*
D03*
X1648714Y1089406D02*
D03*
X1546860Y1132840D02*
D03*
X1550924Y1150874D02*
D03*
X1453363Y1100525D02*
D03*
X1477363Y1180525D02*
D03*
X1600962Y1204722D02*
D03*
X1461363Y1236525D02*
D03*
X1453896Y1296416D02*
D03*
X1604264Y1258570D02*
D03*
X1437363Y1244525D02*
D03*
X1461363Y1148525D02*
D03*
X1703324Y1183592D02*
D03*
X1469363Y1132525D02*
D03*
X1604518Y1233678D02*
D03*
X1445363Y1244525D02*
D03*
X1802108Y1206042D02*
D03*
X1704555Y1244576D02*
D03*
X1469363Y1148525D02*
D03*
X1513078Y1149096D02*
D03*
X1444244Y1271270D02*
D03*
X1595628Y1252220D02*
D03*
X1437363Y1252525D02*
D03*
X1801854Y1230426D02*
D03*
X1706626Y1234948D02*
D03*
X1802132Y1174014D02*
D03*
X1477363Y1140525D02*
D03*
X1499108Y1140206D02*
D03*
X1592072Y1235964D02*
D03*
X1445363Y1236525D02*
D03*
X1413363Y1228525D02*
D03*
X1597914Y1284478D02*
D03*
X1413002Y1326642D02*
D03*
X1802132Y1189762D02*
D03*
X1706880Y1274318D02*
D03*
X1802132Y1213892D02*
D03*
X1706372Y1189228D02*
D03*
X1413363Y1100525D02*
D03*
X1604010Y1041400D02*
D03*
X1604518Y1271524D02*
D03*
X1707134Y1219962D02*
D03*
Y1259586D02*
D03*
X1802132Y1198144D02*
D03*
X1707134Y1204468D02*
D03*
X1602994Y1245870D02*
D03*
X1468122Y1304316D02*
D03*
X1445363Y1228525D02*
D03*
X1453363Y1148525D02*
D03*
X1787144Y1182116D02*
D03*
X1512570Y1245108D02*
D03*
X1634236Y1202690D02*
D03*
X1802108Y1181912D02*
D03*
X1801878Y1222528D02*
D03*
X1604225Y1264629D02*
D03*
X1463296Y1314476D02*
D03*
X1437363Y1236525D02*
D03*
X1477363Y1132525D02*
D03*
X1706372Y1290066D02*
D03*
X1582420Y1140460D02*
D03*
X1601216Y1149604D02*
D03*
X1605788Y1135126D02*
D03*
X1588262Y1405128D02*
D03*
X1506474Y1531366D02*
D03*
X1490400Y1531648D02*
D03*
X1801622Y1041908D02*
D03*
X1477363Y1116525D02*
D03*
X1757426Y1169924D02*
D03*
X1792224Y1061720D02*
D03*
X1461363Y1108525D02*
D03*
X1465328Y1065786D02*
D03*
X1755140Y1043432D02*
D03*
X1646682Y1042670D02*
D03*
X1639570Y1042924D02*
D03*
X1475994Y1041146D02*
D03*
X1470660Y1045972D02*
D03*
X1464564Y1057910D02*
D03*
X1578356Y1544066D02*
D03*
X1290320Y1543558D02*
D03*
X1282446Y1544066D02*
D03*
X1274318D02*
D03*
X1458468Y1543304D02*
D03*
X1450340Y1543558D02*
D03*
X1442212Y1543304D02*
D03*
X1522222Y1544066D02*
D03*
X1586484D02*
D03*
X1610106Y1543304D02*
D03*
X1602232Y1543812D02*
D03*
X1617980Y1543558D02*
D03*
X1594358Y1544066D02*
D03*
X1546606Y1543304D02*
D03*
X1538732Y1543812D02*
D03*
X1554480Y1543558D02*
D03*
X1530858Y1544066D02*
D03*
X1426210Y1542796D02*
D03*
X1418336Y1543304D02*
D03*
X1434084Y1543050D02*
D03*
X1410462Y1543558D02*
D03*
X1394460D02*
D03*
X1386586Y1544066D02*
D03*
X1402334Y1543812D02*
D03*
X1378712Y1544320D02*
D03*
X1322324Y1542796D02*
D03*
X1314450Y1543304D02*
D03*
X1330198Y1543050D02*
D03*
X1306576Y1543558D02*
D03*
X1266190D02*
D03*
X1258316Y1543812D02*
D03*
X1349363Y1156525D02*
D03*
Y1164525D02*
D03*
X1397363Y1236525D02*
D03*
X1389380Y1236726D02*
D03*
X1453363Y1228525D02*
D03*
X1613408Y1037082D02*
D03*
X1389363Y1116525D02*
D03*
X1461363Y1220525D02*
D03*
X1711452Y1185164D02*
D03*
X1477363Y1164525D02*
D03*
X1397363Y1124525D02*
D03*
X1226566Y1544828D02*
D03*
X1341363Y1188525D02*
D03*
X1104646Y1324102D02*
D03*
X1381363Y1116525D02*
D03*
X1349363Y1228525D02*
D03*
X1429363D02*
D03*
X1421363Y1236525D02*
D03*
X1469363Y1220525D02*
D03*
X1477363Y1148525D02*
D03*
X1726438Y1170686D02*
D03*
X1461363Y1124525D02*
D03*
X1748790Y1169162D02*
D03*
X1421363Y1116525D02*
D03*
Y1108525D02*
D03*
X1341363Y1156525D02*
D03*
X1357363Y1236525D02*
D03*
X1389363Y1228525D02*
D03*
X1429363Y1252525D02*
D03*
X1469363Y1228525D02*
D03*
Y1180525D02*
D03*
X1397363Y1116525D02*
D03*
X1421363Y1228525D02*
D03*
X1250188Y1544320D02*
D03*
X1333363Y1148525D02*
D03*
Y1164525D02*
D03*
X1381363Y1108525D02*
D03*
X1397363Y1228525D02*
D03*
X1453363Y1252525D02*
D03*
X1469363Y1212525D02*
D03*
X1477363Y1156525D02*
D03*
X1722120Y1180338D02*
D03*
X1389363Y1108525D02*
D03*
X1053340Y1237768D02*
D03*
X1421363Y1124525D02*
D03*
X1357363Y1228525D02*
D03*
X1421363Y1252525D02*
D03*
X1429363Y1244525D02*
D03*
X1469363Y1108525D02*
D03*
X1453363Y1132525D02*
D03*
X1730756Y1184910D02*
D03*
X1469363Y1124525D02*
D03*
X1739900Y1178052D02*
D03*
X1234440Y1544574D02*
D03*
X1349363Y1148525D02*
D03*
X1333363Y1156525D02*
D03*
X1381506Y1252474D02*
D03*
X1389363Y1244525D02*
D03*
X1461363Y1212525D02*
D03*
Y1228525D02*
D03*
X1397363Y1108525D02*
D03*
X1389363Y1100525D02*
D03*
X1381363Y1124525D02*
D03*
X1397363Y1244525D02*
D03*
X1421363D02*
D03*
X1717548Y1183640D02*
D03*
X1469363Y1156525D02*
D03*
X1477363Y1124525D02*
D03*
X1744218Y1173734D02*
D03*
X1389363Y1124525D02*
D03*
X1242314Y1544066D02*
D03*
X1341363Y1148525D02*
D03*
X1397363Y1100525D02*
D03*
X1349363Y1236525D02*
D03*
X1381363Y1244525D02*
D03*
X1429363Y1236525D02*
D03*
X1437363Y1228525D02*
D03*
X1469363Y1100525D02*
D03*
X1445363Y1124525D02*
D03*
X1735582Y1181862D02*
D03*
X1469363Y1116525D02*
D03*
X1604518Y1443990D02*
D03*
X1547622Y1452880D02*
D03*
X1053592Y1373632D02*
D03*
X1411986Y1321054D02*
D03*
X1249172Y1251712D02*
D03*
X1250696Y1262888D02*
D03*
X1268476Y1301750D02*
D03*
X1703832Y1094994D02*
D03*
X1516380Y1199388D02*
D03*
X1536840Y1100696D02*
D03*
X1453363Y1188525D02*
D03*
X1711960Y1129792D02*
D03*
X1802412Y1109980D02*
D03*
X1704301Y1049758D02*
D03*
X1704530Y1064577D02*
D03*
X1531874Y1103884D02*
D03*
X1453363Y1180525D02*
D03*
X1802158Y1102360D02*
D03*
X1477363Y1220525D02*
D03*
X1706372Y1328674D02*
D03*
X1707134Y1399032D02*
D03*
Y1413510D02*
D03*
X1705102Y1428750D02*
D03*
X1703832Y1323086D02*
D03*
X1601620Y1108075D02*
D03*
X1516380Y1192276D02*
D03*
X1523238Y1268476D02*
D03*
X1528572Y1264666D02*
D03*
X1256792Y1236726D02*
D03*
X1407668Y1062296D02*
D03*
X1513078Y1155192D02*
D03*
X1267460Y1264666D02*
D03*
X1259078Y1266698D02*
D03*
X1256030Y1274064D02*
D03*
X1277366Y1456182D02*
D03*
X1493266Y1021334D02*
D03*
X1059434Y1207770D02*
D03*
X1063752Y1246886D02*
D03*
X1245616Y1276604D02*
D03*
Y1246124D02*
D03*
X1302512Y1078992D02*
D03*
X1485138Y1197102D02*
D03*
X1542288Y1090930D02*
D03*
X1246091Y1379507D02*
D03*
X1252855Y1396111D02*
D03*
X1252220Y1404366D02*
D03*
X1485392Y1067412D02*
D03*
X1445363Y1116525D02*
D03*
X1487170Y1435862D02*
D03*
X1244346Y1191260D02*
D03*
X1244094Y1196874D02*
D03*
X1244346Y1202944D02*
D03*
X1262888Y1186434D02*
D03*
X1598930Y1431290D02*
D03*
X1605026Y1434338D02*
D03*
X1365363Y1236525D02*
D03*
X1361948Y1338834D02*
D03*
X1628648Y1334262D02*
D03*
X1296416Y1410970D02*
D03*
X1325363Y1196525D02*
D03*
X1586992Y1150620D02*
D03*
X1592072Y1242568D02*
D03*
X1601216Y1213358D02*
D03*
X1445363Y1252525D02*
D03*
X1604772Y1067562D02*
D03*
X1053848Y1261644D02*
D03*
X1053594Y1253262D02*
D03*
Y1277900D02*
D03*
X1053340Y1269518D02*
D03*
X1124966Y1229868D02*
D03*
X1129792Y1225550D02*
D03*
X1134110Y1221232D02*
D03*
X1138428Y1216660D02*
D03*
X1069340Y1389126D02*
D03*
X1053340Y1357910D02*
D03*
Y1309650D02*
D03*
X1053086Y1349528D02*
D03*
X1053848Y1301776D02*
D03*
X1053594Y1341654D02*
D03*
Y1293394D02*
D03*
Y1318032D02*
D03*
X1053340Y1333272D02*
D03*
X1245743Y1306195D02*
D03*
X1249934Y1301750D02*
D03*
X1259332Y1301496D02*
D03*
X1058418Y1389126D02*
D03*
X1458722Y913892D02*
D03*
X1413363Y1244525D02*
D03*
X1802386Y1134136D02*
D03*
X1709166Y1149883D02*
D03*
X1444752Y1336802D02*
D03*
X1704301Y1383514D02*
D03*
X1461363Y1244525D02*
D03*
X1802386Y1149884D02*
D03*
X1802488Y1158390D02*
D03*
X1711198Y1114806D02*
D03*
X1802461Y1125829D02*
D03*
X1703832Y1080008D02*
D03*
X1430530Y1332103D02*
D03*
X1464818Y1342898D02*
D03*
X1413363Y1252525D02*
D03*
X1461363Y1100525D02*
D03*
X1802362Y1142034D02*
D03*
X1756458Y1022168D02*
D03*
X1461363Y1132525D02*
D03*
X1710436Y1104646D02*
D03*
X1802362Y1117904D02*
D03*
X1357363Y1244525D02*
D03*
X1353820Y1350264D02*
D03*
X1602486D02*
D03*
X1305054Y1400582D02*
D03*
X1341363Y1196525D02*
D03*
X1588008Y1412240D02*
D03*
X1349363Y1252525D02*
D03*
X1349248Y1358646D02*
D03*
X1602486Y1357630D02*
D03*
X1603250Y1404565D02*
D03*
X1341363Y1244525D02*
D03*
X1329438Y1395756D02*
D03*
X1325363Y1188525D02*
D03*
X1286510Y1421384D02*
D03*
X1369824Y1331494D02*
D03*
X1603504Y1334796D02*
D03*
X1365363Y1228525D02*
D03*
X1469363Y1236525D02*
D03*
X1602996Y1365022D02*
D03*
X1349363Y1244525D02*
D03*
X1344424Y1384834D02*
D03*
X1333363Y1188525D02*
D03*
X1291590Y1416304D02*
D03*
X1469363Y1204525D02*
D03*
X1602994Y1378712D02*
D03*
X1333363Y1196525D02*
D03*
X1300988Y1406652D02*
D03*
X1603392Y1413874D02*
D03*
X1469363Y1244525D02*
D03*
X1341363Y1252525D02*
D03*
X1602996Y1371880D02*
D03*
X1339090Y1390422D02*
D03*
X1515364Y1098296D02*
D03*
X1527048Y1096518D02*
D03*
X1604772Y1073658D02*
D03*
X1604264Y1080008D02*
D03*
X1517396Y1107948D02*
D03*
X1477363Y1228525D02*
D03*
Y1236525D02*
D03*
X1482371Y1448780D02*
D03*
X1453363Y1164525D02*
D03*
X1461363Y1140525D02*
D03*
X1453363Y1124525D02*
D03*
X1437363D02*
D03*
X1461363Y1188525D02*
D03*
X1469363Y1140525D02*
D03*
X1453363D02*
D03*
Y1108525D02*
D03*
X1461363Y1156525D02*
D03*
X1453363Y1116525D02*
D03*
X1477363Y1244525D02*
D03*
X1756664Y1163066D02*
D03*
X1325363Y1236525D02*
D03*
X1333363Y1204525D02*
D03*
X1373363Y1228525D02*
D03*
X1258572Y1430046D02*
D03*
X1381363Y1228525D02*
D03*
X1341363D02*
D03*
X1333363Y1236525D02*
D03*
X1341363Y1204525D02*
D03*
X1249428Y1374506D02*
D03*
X1365363Y1252525D02*
D03*
X1373363D02*
D03*
Y1236525D02*
D03*
X1325363Y1228525D02*
D03*
X1333363Y1244525D02*
D03*
X1247825Y1414559D02*
D03*
X1373363Y1244525D02*
D03*
X1259289Y1384371D02*
D03*
X1365363Y1244525D02*
D03*
X1247394Y1435100D02*
D03*
X1381363Y1236525D02*
D03*
X1333363Y1228525D02*
D03*
X1437363Y1116525D02*
D03*
X1053340Y1029234D02*
D03*
X1053742Y1094004D02*
D03*
X1053594Y1246150D02*
D03*
Y1221512D02*
D03*
X1325363Y1212525D02*
D03*
X1083137Y1417123D02*
D03*
X1053996Y1205764D02*
D03*
X1053487Y1117626D02*
D03*
X1053594Y1149630D02*
D03*
X1058418Y1071626D02*
D03*
X1429363Y1116525D02*
D03*
X1428496Y954024D02*
D03*
X1070465Y1038124D02*
D03*
X1325363Y1204525D02*
D03*
X1053848Y1382040D02*
D03*
X1053086Y1182396D02*
D03*
X1053742Y1197382D02*
D03*
X1341363Y1236525D02*
D03*
X1070231Y1396899D02*
D03*
X1053848Y1132612D02*
D03*
X1053233Y1109244D02*
D03*
X1053848Y1158012D02*
D03*
X1053487Y1085622D02*
D03*
X1052832Y1174014D02*
D03*
X1053848Y1229894D02*
D03*
X1424432Y949706D02*
D03*
X1097536Y1029742D02*
D03*
X1429363Y1124525D02*
D03*
X1333363Y1252525D02*
D03*
X1054102Y1140994D02*
D03*
X1039116Y1416584D02*
D03*
X1602486Y1343660D02*
D03*
X1477363Y1204525D02*
D03*
X1496568Y1293876D02*
D03*
X1357630Y1343914D02*
D03*
X1442466Y994664D02*
D03*
Y987044D02*
D03*
X1111250Y939038D02*
D03*
X1413363Y1116525D02*
D03*
X1372870Y977900D02*
D03*
X1326896Y1000506D02*
D03*
X1404620Y991870D02*
D03*
X1375664Y1015238D02*
D03*
X1375156Y1003554D02*
D03*
X1369568Y1022858D02*
D03*
X1365363Y1132525D02*
D03*
Y1140525D02*
D03*
X1360424Y1014984D02*
D03*
X1354074Y1023112D02*
D03*
X1292354Y993420D02*
D03*
X1283718Y986816D02*
D03*
X1384125Y998385D02*
D03*
X1384379Y979203D02*
D03*
X1350343Y1004481D02*
D03*
X1349835Y985553D02*
D03*
X1190070Y1118735D02*
D03*
X1341363Y1116525D02*
D03*
Y1140525D02*
D03*
X1190324Y1141948D02*
D03*
X1461363Y1164525D02*
D03*
X1453363Y1244525D02*
D03*
X1333363Y1212525D02*
D03*
Y1220525D02*
D03*
X1325363Y1164525D02*
D03*
X1189816Y1001740D02*
D03*
X1349363Y1124525D02*
D03*
X1189845Y1092281D02*
D03*
X1333363Y1124525D02*
D03*
X1365363D02*
D03*
X1189845Y990681D02*
D03*
X1341363Y1100525D02*
D03*
X1189816Y1051933D02*
D03*
X1413363Y1124525D02*
D03*
X1189562Y1018151D02*
D03*
X1357363Y1116525D02*
D03*
X1341363Y1164525D02*
D03*
X1249682Y1241324D02*
D03*
X1341363Y1180525D02*
D03*
X1357363Y1100525D02*
D03*
X1341363Y1132525D02*
D03*
X1190324Y1135852D02*
D03*
X1341363Y1212525D02*
D03*
X1190098Y1058245D02*
D03*
X1341363Y1108525D02*
D03*
X1333363Y1116525D02*
D03*
X1189562Y1085969D02*
D03*
X1461363Y1180525D02*
D03*
X1341363Y1220525D02*
D03*
X1333363Y1180525D02*
D03*
X1325363Y1124525D02*
D03*
X1190324Y1108420D02*
D03*
X1189816Y1069558D02*
D03*
X1333363Y1100525D02*
D03*
X1189845Y1024463D02*
D03*
X1357363Y1124525D02*
D03*
X1453363Y1236525D02*
D03*
X1357363Y1108525D02*
D03*
X1189816Y967958D02*
D03*
X1373363Y1116525D02*
D03*
X1413363Y1108525D02*
D03*
X1325363D02*
D03*
X1461363Y1252525D02*
D03*
X1349363Y1188525D02*
D03*
Y1220525D02*
D03*
X1190352Y1158575D02*
D03*
X1349363Y1140525D02*
D03*
Y1108525D02*
D03*
X1189064Y1041866D02*
D03*
X1341363Y1124525D02*
D03*
X1190352Y1125047D02*
D03*
X1445363Y1100525D02*
D03*
X1190324Y1102324D02*
D03*
X1325363Y1116525D02*
D03*
X1189816Y974054D02*
D03*
X1373363Y1124525D02*
D03*
X1189816Y1075654D02*
D03*
X1333363Y1108525D02*
D03*
X1189064Y1035770D02*
D03*
X1349363Y1100525D02*
D03*
X1357363Y1252525D02*
D03*
X1349363Y1116525D02*
D03*
X1189816Y1007836D02*
D03*
X1189562Y984369D02*
D03*
X1365363Y1116525D02*
D03*
X1325363Y1132525D02*
D03*
X1349363Y1180525D02*
D03*
X1190070Y1152263D02*
D03*
X1349363Y1132525D02*
D03*
X1325363Y1180525D02*
D03*
X1453363Y1156525D02*
D03*
X1325363Y1220525D02*
D03*
X1461363Y1116525D02*
D03*
D113*
X1118673Y769493D02*
D03*
X1130173D02*
D03*
X1124423Y778993D02*
D03*
Y759993D02*
D03*
D117*
X1326655Y1104430D02*
X1326866Y1104640D01*
X1323667Y1104430D02*
X1326655D01*
D118*
X1329459Y1107233D02*
Y1110107D01*
X1333363Y1114011D01*
Y1116525D01*
M02*
