G04*
G04 #@! TF.GenerationSoftware,Altium Limited,Altium Designer,26.5.0 (11)*
G04*
G04 Layer_Color=65535*
G04 Board_Origin=0|0*
%FSLAX44Y44*%
%MOMM*%
G71*
G04*
G04 #@! TF.SameCoordinates,F31A6C54-E8F1-4797-920C-164DB3DC2255*
G04*
G04*
G04 #@! TF.FilePolarity,Positive*
G04*
G01*
G75*
%ADD10C,0.1000*%
%ADD11C,0.3000*%
%ADD12C,0.2500*%
%ADD13C,0.1778*%
%ADD14C,0.2000*%
%ADD15C,0.1500*%
%ADD16C,0.1270*%
%ADD17C,0.0762*%
%ADD18C,0.2540*%
%ADD19R,0.5080X3.2004*%
%ADD20R,0.5000X0.2350*%
%ADD21R,0.4000X2.2000*%
%ADD22R,0.2000X0.4000*%
D10*
X1210783Y756223D02*
G03*
X1210783Y757223I0J500D01*
G01*
D02*
G03*
X1210783Y756223I0J-500D01*
G01*
D11*
X1525737Y967000D02*
G03*
X1525737Y967000I-1000J0D01*
G01*
D12*
X1317613Y1248525D02*
G03*
X1317613Y1248525I-1250J0D01*
G01*
X1560916Y1385098D02*
G03*
X1560916Y1385098I-1250J0D01*
G01*
D13*
X1251076Y724476D02*
X1257675D01*
Y710641D02*
Y724476D01*
X1251076Y710641D02*
X1257675D01*
X1227205D02*
X1233804D01*
X1227205D02*
Y724476D01*
X1233804D01*
X1213739Y713478D02*
Y719320D01*
X1224153D01*
Y713478D02*
Y719320D01*
X1213739Y694936D02*
Y700778D01*
Y694936D02*
X1224153D01*
Y700778D01*
X1230317Y752162D02*
X1236916D01*
X1230317Y738327D02*
Y752162D01*
Y738327D02*
X1236916D01*
X1254188D02*
X1260788D01*
Y752162D01*
X1254188D02*
X1260788D01*
X1137539Y703481D02*
X1144138D01*
Y689647D02*
Y703481D01*
X1137539Y689647D02*
X1144138D01*
X1113668D02*
X1120267D01*
X1113668D02*
Y703481D01*
X1120267D01*
X1151640Y677946D02*
X1158240D01*
X1151640D02*
Y691781D01*
X1158240D01*
X1175512D02*
X1182111D01*
Y677946D02*
Y691781D01*
X1175512Y677946D02*
X1182111D01*
X1210631Y690464D02*
Y697064D01*
X1196797Y690464D02*
X1210631D01*
X1196797D02*
Y697064D01*
Y714336D02*
Y720935D01*
X1210631D01*
Y714336D02*
Y720935D01*
X1192657Y694778D02*
Y700620D01*
X1182243Y694778D02*
X1192657D01*
X1182243D02*
Y700620D01*
X1192657Y713320D02*
Y719162D01*
X1182243D02*
X1192657D01*
X1182243Y713320D02*
Y719162D01*
X1156208Y695413D02*
X1162050D01*
X1156208D02*
Y705827D01*
X1162050D01*
X1174750Y695413D02*
X1180592D01*
Y705827D01*
X1174750D02*
X1180592D01*
X1239452Y819150D02*
Y825749D01*
X1253287D01*
Y819150D02*
Y825749D01*
Y795279D02*
Y801878D01*
X1239452Y795279D02*
X1253287D01*
X1239452D02*
Y801878D01*
X1233297Y798830D02*
Y804672D01*
X1222883Y798830D02*
X1233297D01*
X1222883D02*
Y804672D01*
X1233297Y817372D02*
Y823214D01*
X1222883D02*
X1233297D01*
X1222883Y817372D02*
Y823214D01*
X1020537Y779653D02*
Y785622D01*
X1029935D01*
X1052973D01*
X1009615Y779653D02*
X1020537D01*
X1009615Y761365D02*
X1020537D01*
Y755396D02*
Y761365D01*
Y755396D02*
X1029935D01*
X1052973D01*
X1257900Y691829D02*
X1264500D01*
X1257900D02*
Y705663D01*
X1264500D01*
X1281772D02*
X1288371D01*
Y691829D02*
Y705663D01*
X1281772Y691829D02*
X1288371D01*
X1213739Y798576D02*
Y804418D01*
X1203325Y798576D02*
X1213739D01*
X1203325D02*
Y804418D01*
X1213739Y817118D02*
Y822960D01*
X1203325D02*
X1213739D01*
X1203325Y817118D02*
Y822960D01*
X1507236Y1185799D02*
X1513078D01*
Y1175385D02*
Y1185799D01*
X1507236Y1175385D02*
X1513078D01*
X1488694Y1185799D02*
X1494536D01*
X1488694Y1175385D02*
Y1185799D01*
Y1175385D02*
X1494536D01*
X1488797Y1198940D02*
X1494639D01*
X1488797D02*
Y1209354D01*
X1494639D01*
X1507339Y1198940D02*
X1513181D01*
Y1209354D01*
X1507339D02*
X1513181D01*
X1064035Y866380D02*
X1069877D01*
Y855966D02*
Y866380D01*
X1064035Y855966D02*
X1069877D01*
X1045493Y866380D02*
X1051336D01*
X1045493Y855966D02*
Y866380D01*
Y855966D02*
X1051336D01*
X1116456Y858506D02*
X1122298D01*
X1116456D02*
Y868921D01*
X1122298D01*
X1134997Y858506D02*
X1140839D01*
Y868921D01*
X1134997D02*
X1140839D01*
X1137060Y898416D02*
Y904258D01*
X1147475D01*
Y898416D02*
Y904258D01*
X1137060Y879874D02*
Y885715D01*
Y879874D02*
X1147475D01*
Y885715D01*
X1063782Y923784D02*
X1069623D01*
Y913371D02*
Y923784D01*
X1063782Y913371D02*
X1069623D01*
X1045239Y923784D02*
X1051081D01*
X1045239Y913371D02*
Y923784D01*
Y913371D02*
X1051081D01*
X1171860Y887095D02*
X1177702D01*
X1171860D02*
Y897509D01*
X1177702D01*
X1190402Y887095D02*
X1196244D01*
Y897509D01*
X1190402D02*
X1196244D01*
X1330457Y937074D02*
X1337056D01*
X1330457Y923239D02*
Y937074D01*
Y923239D02*
X1337056D01*
X1354328D02*
X1360927D01*
Y937074D01*
X1354328D02*
X1360927D01*
X1310815Y948156D02*
Y954755D01*
X1324649D01*
Y948156D02*
Y954755D01*
Y924285D02*
Y930884D01*
X1310815Y924285D02*
X1324649D01*
X1310815D02*
Y930884D01*
X1469390Y1337691D02*
X1475232D01*
X1469390D02*
Y1348105D01*
X1475232D01*
X1487932Y1337691D02*
X1493774D01*
Y1348105D01*
X1487932D02*
X1493774D01*
X1570080Y1452473D02*
X1575922D01*
Y1442059D02*
Y1452473D01*
X1570080Y1442059D02*
X1575922D01*
X1551538Y1452473D02*
X1557380D01*
X1551538Y1442059D02*
Y1452473D01*
Y1442059D02*
X1557380D01*
X1551106Y1428295D02*
X1556948D01*
X1551106D02*
Y1438709D01*
X1556948D01*
X1569648Y1428295D02*
X1575490D01*
Y1438709D01*
X1569648D02*
X1575490D01*
X1531675Y1367970D02*
Y1373812D01*
X1542089D01*
Y1367970D02*
Y1373812D01*
X1531675Y1349428D02*
Y1355270D01*
Y1349428D02*
X1542089D01*
Y1355270D01*
X1525833Y1427624D02*
Y1433466D01*
X1515419Y1427624D02*
X1525833D01*
X1515419D02*
Y1433466D01*
X1525833Y1446166D02*
Y1452008D01*
X1515419D02*
X1525833D01*
X1515419Y1446166D02*
Y1452008D01*
X1517578Y1374955D02*
X1523420D01*
X1517578D02*
Y1385369D01*
X1523420D01*
X1536120Y1374955D02*
X1541962D01*
Y1385369D01*
X1536120D02*
X1541962D01*
X1530718Y1450992D02*
Y1457591D01*
X1544553D01*
Y1450992D02*
Y1457591D01*
Y1427121D02*
Y1433720D01*
X1530718Y1427121D02*
X1544553D01*
X1530718D02*
Y1433720D01*
X1516689Y1367462D02*
Y1373304D01*
X1527103D01*
Y1367462D02*
Y1373304D01*
X1516689Y1348920D02*
Y1354762D01*
Y1348920D02*
X1527103D01*
Y1354762D01*
X1366696Y1357303D02*
X1372538D01*
X1366696D02*
Y1367717D01*
X1372538D01*
X1385238Y1357303D02*
X1391080D01*
Y1367717D01*
X1385238D02*
X1391080D01*
X1385238Y1380671D02*
X1391080D01*
Y1370257D02*
Y1380671D01*
X1385238Y1370257D02*
X1391080D01*
X1366696Y1380671D02*
X1372538D01*
X1366696Y1370257D02*
Y1380671D01*
Y1370257D02*
X1372538D01*
X1021080Y1401445D02*
X1026922D01*
X1021080D02*
Y1411859D01*
X1026922D01*
X1039622Y1401445D02*
X1045464D01*
Y1411859D01*
X1039622D02*
X1045464D01*
X1440309Y1084606D02*
Y1090448D01*
X1450723D01*
Y1084606D02*
Y1090448D01*
X1440309Y1066064D02*
Y1071906D01*
Y1066064D02*
X1450723D01*
Y1071906D01*
X1310388Y1138327D02*
X1316230D01*
Y1127913D02*
Y1138327D01*
X1310388Y1127913D02*
X1316230D01*
X1291846Y1138327D02*
X1297688D01*
X1291846Y1127913D02*
Y1138327D01*
Y1127913D02*
X1297688D01*
X1311277Y1090956D02*
Y1096798D01*
X1300863Y1090956D02*
X1311277D01*
X1300863D02*
Y1096798D01*
X1311277Y1109498D02*
Y1115340D01*
X1300863D02*
X1311277D01*
X1300863Y1109498D02*
Y1115340D01*
X1507238Y1198017D02*
X1513080D01*
Y1187603D02*
Y1198017D01*
X1507238Y1187603D02*
X1513080D01*
X1488696Y1198017D02*
X1494538D01*
X1488696Y1187603D02*
Y1198017D01*
Y1187603D02*
X1494538D01*
X1151746Y1098317D02*
X1158345D01*
X1151746D02*
Y1112152D01*
X1158345D01*
X1175617D02*
X1182216D01*
Y1098317D02*
Y1112152D01*
X1175617Y1098317D02*
X1182216D01*
X1220384Y1112277D02*
X1226984D01*
Y1098443D02*
Y1112277D01*
X1220384Y1098443D02*
X1226984D01*
X1196513D02*
X1203112D01*
X1196513D02*
Y1112277D01*
X1203112D01*
X1220384Y1129027D02*
X1226984D01*
Y1115193D02*
Y1129027D01*
X1220384Y1115193D02*
X1226984D01*
X1196513D02*
X1203112D01*
X1196513D02*
Y1129027D01*
X1203112D01*
X1151746Y1115098D02*
X1158345D01*
X1151746D02*
Y1128932D01*
X1158345D01*
X1175617D02*
X1182216D01*
Y1115098D02*
Y1128932D01*
X1175617Y1115098D02*
X1182216D01*
X1473202Y1389787D02*
X1479044D01*
X1473202D02*
Y1400201D01*
X1479044D01*
X1491744Y1389787D02*
X1497586D01*
Y1400201D01*
X1491744D02*
X1497586D01*
X1220645Y1045122D02*
X1227244D01*
Y1031288D02*
Y1045122D01*
X1220645Y1031288D02*
X1227244D01*
X1196773D02*
X1203373D01*
X1196773D02*
Y1045122D01*
X1203373D01*
X1220645Y1061920D02*
X1227244D01*
Y1048086D02*
Y1061920D01*
X1220645Y1048086D02*
X1227244D01*
X1196773D02*
X1203373D01*
X1196773D02*
Y1061920D01*
X1203373D01*
X1220384Y978152D02*
X1226983D01*
Y964318D02*
Y978152D01*
X1220384Y964318D02*
X1226983D01*
X1196513D02*
X1203112D01*
X1196513D02*
Y978152D01*
X1203112D01*
X1220384Y994902D02*
X1226983D01*
Y981068D02*
Y994902D01*
X1220384Y981068D02*
X1226983D01*
X1196513D02*
X1203112D01*
X1196513D02*
Y994902D01*
X1203112D01*
X1175617Y964072D02*
X1182216D01*
Y977906D01*
X1175617D02*
X1182216D01*
X1151745D02*
X1158345D01*
X1151745Y964072D02*
Y977906D01*
Y964072D02*
X1158345D01*
X1175617Y980853D02*
X1182216D01*
Y994687D01*
X1175617D02*
X1182216D01*
X1151745D02*
X1158345D01*
X1151745Y980853D02*
Y994687D01*
Y980853D02*
X1158345D01*
X1196513Y1095275D02*
X1203112D01*
X1196513Y1081440D02*
Y1095275D01*
Y1081440D02*
X1203112D01*
X1220384D02*
X1226984D01*
Y1095275D01*
X1220384D02*
X1226984D01*
X1196513Y1162605D02*
X1203112D01*
X1196513Y1148770D02*
Y1162605D01*
Y1148770D02*
X1203112D01*
X1220384D02*
X1226984D01*
Y1162605D01*
X1220384D02*
X1226984D01*
X1175357Y1131982D02*
X1181957D01*
Y1145817D01*
X1175357D02*
X1181957D01*
X1151486D02*
X1158085D01*
X1151486Y1131982D02*
Y1145817D01*
Y1131982D02*
X1158085D01*
X1175357Y1148770D02*
X1181957D01*
Y1162605D01*
X1175357D02*
X1181957D01*
X1151486D02*
X1158085D01*
X1151486Y1148770D02*
Y1162605D01*
Y1148770D02*
X1158085D01*
X1196513Y1145817D02*
X1203112D01*
X1196513Y1131982D02*
Y1145817D01*
Y1131982D02*
X1203112D01*
X1220384D02*
X1226984D01*
Y1145817D01*
X1220384D02*
X1226984D01*
X1175617Y997627D02*
X1182216D01*
Y1011461D01*
X1175617D02*
X1182216D01*
X1151746D02*
X1158345D01*
X1151746Y997627D02*
Y1011461D01*
Y997627D02*
X1158345D01*
X1175617Y1014414D02*
X1182216D01*
Y1028248D01*
X1175617D02*
X1182216D01*
X1151746D02*
X1158345D01*
X1151746Y1014414D02*
Y1028248D01*
Y1014414D02*
X1158345D01*
X1196513Y1028401D02*
X1203112D01*
X1196513Y1014567D02*
Y1028401D01*
Y1014567D02*
X1203112D01*
X1220384D02*
X1226984D01*
Y1028401D01*
X1220384D02*
X1226984D01*
X1196513Y1011604D02*
X1203112D01*
X1196513Y997769D02*
Y1011604D01*
Y997769D02*
X1203112D01*
X1220384D02*
X1226984D01*
Y1011604D01*
X1220384D02*
X1226984D01*
X1175878Y1031437D02*
X1182477D01*
Y1045271D01*
X1175878D02*
X1182477D01*
X1152006D02*
X1158606D01*
X1152006Y1031437D02*
Y1045271D01*
Y1031437D02*
X1158606D01*
X1151746Y1081536D02*
X1158345D01*
X1151746D02*
Y1095371D01*
X1158345D01*
X1175617D02*
X1182216D01*
Y1081536D02*
Y1095371D01*
X1175617Y1081536D02*
X1182216D01*
X1175617Y1064749D02*
X1182216D01*
Y1078584D01*
X1175617D02*
X1182216D01*
X1151746D02*
X1158345D01*
X1151746Y1064749D02*
Y1078584D01*
Y1064749D02*
X1158345D01*
X1175878Y1048224D02*
X1182477D01*
Y1062058D01*
X1175878D02*
X1182477D01*
X1152006D02*
X1158606D01*
X1152006Y1048224D02*
Y1062058D01*
Y1048224D02*
X1158606D01*
X1196513Y1078477D02*
X1203112D01*
X1196513Y1064642D02*
Y1078477D01*
Y1064642D02*
X1203112D01*
X1220384D02*
X1226984D01*
Y1078477D01*
X1220384D02*
X1226984D01*
X1374210Y1072922D02*
Y1079521D01*
X1360375D02*
X1374210D01*
X1360375Y1072922D02*
Y1079521D01*
Y1049051D02*
Y1055650D01*
Y1049051D02*
X1374210D01*
Y1055650D01*
X1401961Y1040850D02*
X1408560D01*
X1401961D02*
Y1054685D01*
X1408560D01*
X1425832D02*
X1432431D01*
Y1040850D02*
Y1054685D01*
X1425832Y1040850D02*
X1432431D01*
X1370332Y1093369D02*
X1376174D01*
Y1082955D02*
Y1093369D01*
X1370332Y1082955D02*
X1376174D01*
X1351790Y1093369D02*
X1357632D01*
X1351790Y1082955D02*
Y1093369D01*
Y1082955D02*
X1357632D01*
X1350774Y1040985D02*
X1357374D01*
Y1027151D02*
Y1040985D01*
X1350774Y1027151D02*
X1357374D01*
X1326903D02*
X1333502D01*
X1326903D02*
Y1040985D01*
X1333502D01*
X1307524Y1045657D02*
Y1052256D01*
X1321358D01*
Y1045657D02*
Y1052256D01*
Y1021786D02*
Y1028385D01*
X1307524Y1021786D02*
X1321358D01*
X1307524D02*
Y1028385D01*
X1400688Y1020697D02*
X1407288D01*
X1400688D02*
Y1034532D01*
X1407288D01*
X1424560D02*
X1431159D01*
Y1020697D02*
Y1034532D01*
X1424560Y1020697D02*
X1431159D01*
X1299466Y1139656D02*
X1306066D01*
Y1153491D01*
X1299466D02*
X1306066D01*
X1275595D02*
X1282194D01*
X1275595Y1139656D02*
Y1153491D01*
Y1139656D02*
X1282194D01*
X1273814Y1022221D02*
X1280414D01*
X1273814D02*
Y1036056D01*
X1280414D01*
X1297686D02*
X1304285D01*
Y1022221D02*
Y1036056D01*
X1297686Y1022221D02*
X1304285D01*
X1285683Y1113054D02*
Y1119653D01*
X1299517D01*
Y1113054D02*
Y1119653D01*
Y1089183D02*
Y1095782D01*
X1285683Y1089183D02*
X1299517D01*
X1285683D02*
Y1095782D01*
X1495173Y1095435D02*
Y1101277D01*
X1484759Y1095435D02*
X1495173D01*
X1484759D02*
Y1101277D01*
X1495173Y1113977D02*
Y1119819D01*
X1484759D02*
X1495173D01*
X1484759Y1113977D02*
Y1119819D01*
X1065278Y1401217D02*
X1071120D01*
X1065278D02*
Y1411631D01*
X1071120D01*
X1083820Y1401217D02*
X1089662D01*
Y1411631D01*
X1083820D02*
X1089662D01*
X1276851Y921300D02*
X1283450D01*
X1276851Y907465D02*
Y921300D01*
Y907465D02*
X1283450D01*
X1300722D02*
X1307322D01*
Y921300D01*
X1300722D02*
X1307322D01*
X1352918Y954574D02*
X1359518D01*
Y940739D02*
Y954574D01*
X1352918Y940739D02*
X1359518D01*
X1329047D02*
X1335646D01*
X1329047D02*
Y954574D01*
X1335646D01*
X1388364Y894401D02*
X1394964D01*
Y880567D02*
Y894401D01*
X1388364Y880567D02*
X1394964D01*
X1364493D02*
X1371092D01*
X1364493D02*
Y894401D01*
X1371092D01*
X1335012Y921046D02*
X1341612D01*
Y907211D02*
Y921046D01*
X1335012Y907211D02*
X1341612D01*
X1311141D02*
X1317740D01*
X1311141D02*
Y921046D01*
X1317740D01*
D14*
X1396498Y919124D02*
Y956124D01*
X1365498Y919124D02*
Y938124D01*
X1687830Y763466D02*
X1843130D01*
Y853966D01*
X1637130D02*
X1843130D01*
X1637130Y794766D02*
Y853966D01*
X1844041Y861965D02*
Y921165D01*
X1638041Y861965D02*
X1844041D01*
X1638041D02*
Y952465D01*
X1793341D01*
X1262936Y811784D02*
X1268936D01*
X1298242Y864234D02*
X1304242D01*
X1159790Y654052D02*
X1186790D01*
X1159790D02*
Y675052D01*
X1186790D01*
X1107423Y752493D02*
X1109423D01*
X1107423D02*
Y754493D01*
X1139423Y752493D02*
X1141423D01*
Y754493D01*
Y784493D02*
Y786493D01*
X1139423D02*
X1141423D01*
X1107423Y783393D02*
Y786493D01*
X1114773D01*
X1168635Y798135D02*
X1170635D01*
X1168635Y777935D02*
X1170635D01*
X1163463Y736279D02*
X1165463D01*
X1163463Y756479D02*
X1165463D01*
X1627778Y1039883D02*
X1681778D01*
X1627778D02*
Y1164883D01*
X1681778D01*
Y1039883D02*
Y1164883D01*
X1685278Y1039883D02*
X1700028D01*
X1685058Y1179251D02*
X1699808D01*
X1681558D02*
Y1304251D01*
X1627558D02*
X1681558D01*
X1627558Y1179251D02*
Y1304251D01*
Y1179251D02*
X1681558D01*
X1627558Y1318443D02*
X1681558D01*
X1627558D02*
Y1443443D01*
X1681558D01*
Y1318443D02*
Y1443443D01*
X1685058Y1318443D02*
X1699808D01*
X1411610Y1350056D02*
Y1355506D01*
Y1381706D02*
Y1387156D01*
Y1350056D02*
X1469611D01*
Y1355506D01*
Y1381706D02*
Y1387156D01*
X1411610D02*
X1469611D01*
X1149022Y1444507D02*
X1163772D01*
X1167272Y1319507D02*
Y1444507D01*
Y1319507D02*
X1221272D01*
Y1444507D01*
X1167272D02*
X1221272D01*
X1042385Y890824D02*
X1077385D01*
X1042385Y910824D02*
X1077385D01*
Y890824D02*
Y910824D01*
X1042471Y868726D02*
X1077471D01*
X1042471Y888726D02*
X1077471D01*
Y868726D02*
Y888726D01*
X1103947Y874148D02*
X1125697D01*
X1103947Y905148D02*
X1113697D01*
X1356107Y1020083D02*
X1378107D01*
X1356357Y968333D02*
X1400607D01*
X1321363Y1096525D02*
Y1256525D01*
Y1096525D02*
X1481363D01*
Y1256525D01*
X1321363D02*
X1481363D01*
X1572166Y1343098D02*
Y1350598D01*
X1547166Y1343098D02*
Y1373099D01*
X1572166Y1365598D02*
Y1373098D01*
X1552620Y1387808D02*
Y1410809D01*
X1583110Y1398308D02*
Y1412309D01*
X1545264Y1398562D02*
Y1412563D01*
X1514774Y1388062D02*
Y1411062D01*
X1167777Y1307080D02*
X1221777D01*
Y1182080D02*
Y1307080D01*
X1167777Y1182080D02*
X1221777D01*
X1167777D02*
Y1307080D01*
X1149527D02*
X1164277D01*
X1409115Y971293D02*
X1410616D01*
X1409115D02*
Y1005293D01*
Y1010293D01*
X1410616D01*
X1461616Y971293D02*
X1463115D01*
Y976293D01*
Y1010293D01*
X1461616D02*
X1463115D01*
X1271702Y971801D02*
X1273202D01*
X1271702D02*
Y1005801D01*
Y1010801D01*
X1273202D01*
X1324202Y971801D02*
X1325702D01*
Y976801D01*
Y1010801D01*
X1324202D02*
X1325702D01*
D15*
X1721834Y744650D02*
X1727834D01*
X1721834Y755650D02*
X1727834D01*
X1194340Y818388D02*
X1198340D01*
X1080807Y794417D02*
Y798417D01*
X1111723Y811181D02*
Y815181D01*
X1077599Y757857D02*
Y763857D01*
X1066599Y757857D02*
Y763857D01*
D16*
X1625737Y762600D02*
Y1015400D01*
X1534737D02*
X1625737D01*
X1534737Y762600D02*
Y1015400D01*
Y762600D02*
X1625737D01*
D17*
X1105373Y763143D02*
Y770760D01*
X1109182D01*
X1110451Y769491D01*
Y766952D01*
X1109182Y765682D01*
X1105373D01*
X1107912D02*
X1110451Y763143D01*
X1116799D02*
X1114260D01*
X1112990Y764413D01*
Y766952D01*
X1114260Y768221D01*
X1116799D01*
X1118069Y766952D01*
Y765682D01*
X1112990D01*
X1121878Y763143D02*
Y769491D01*
Y766952D01*
X1120608D01*
X1123147D01*
X1121878D01*
Y769491D01*
X1123147Y770760D01*
X1126956D02*
Y763143D01*
X1130765D01*
X1132034Y764413D01*
Y769491D01*
X1130765Y770760D01*
X1126956D01*
X1138382Y763143D02*
X1135843D01*
X1134574Y764413D01*
Y766952D01*
X1135843Y768221D01*
X1138382D01*
X1139652Y766952D01*
Y765682D01*
X1134574D01*
X1142191Y763143D02*
X1146000D01*
X1147269Y764413D01*
X1146000Y765682D01*
X1143461D01*
X1142191Y766952D01*
X1143461Y768221D01*
X1147269D01*
X1314243Y1271683D02*
Y1264065D01*
X1318052D01*
X1319321Y1265335D01*
Y1270413D01*
X1318052Y1271683D01*
X1314243D01*
X1325669Y1264065D02*
X1323130D01*
X1321861Y1265335D01*
Y1267874D01*
X1323130Y1269144D01*
X1325669D01*
X1326939Y1267874D01*
Y1266604D01*
X1321861D01*
X1329478Y1264065D02*
X1333287D01*
X1334556Y1265335D01*
X1333287Y1266604D01*
X1330748D01*
X1329478Y1267874D01*
X1330748Y1269144D01*
X1334556D01*
X1337096Y1264065D02*
X1339635D01*
X1338365D01*
Y1269144D01*
X1337096D01*
X1345983Y1261526D02*
X1347252D01*
X1348522Y1262796D01*
Y1269144D01*
X1344713D01*
X1343444Y1267874D01*
Y1265335D01*
X1344713Y1264065D01*
X1348522D01*
X1351061D02*
Y1269144D01*
X1354870D01*
X1356140Y1267874D01*
Y1264065D01*
X1359948Y1269144D02*
X1362487D01*
X1363757Y1267874D01*
Y1264065D01*
X1359948D01*
X1358679Y1265335D01*
X1359948Y1266604D01*
X1363757D01*
X1367566Y1270413D02*
Y1269144D01*
X1366296D01*
X1368835D01*
X1367566D01*
Y1265335D01*
X1368835Y1264065D01*
X1373914D02*
X1376453D01*
X1377722Y1265335D01*
Y1267874D01*
X1376453Y1269144D01*
X1373914D01*
X1372644Y1267874D01*
Y1265335D01*
X1373914Y1264065D01*
X1380262Y1269144D02*
Y1264065D01*
Y1266604D01*
X1381531Y1267874D01*
X1382801Y1269144D01*
X1384070D01*
X1387879Y1264065D02*
X1390418D01*
X1389149D01*
Y1271683D01*
X1387879Y1270413D01*
X1394227Y1265335D02*
X1395497Y1264065D01*
X1398036D01*
X1399306Y1265335D01*
Y1270413D01*
X1398036Y1271683D01*
X1395497D01*
X1394227Y1270413D01*
Y1269144D01*
X1395497Y1267874D01*
X1399306D01*
X1406923Y1271683D02*
X1401845D01*
Y1267874D01*
X1404384Y1269144D01*
X1405654D01*
X1406923Y1267874D01*
Y1265335D01*
X1405654Y1264065D01*
X1403114D01*
X1401845Y1265335D01*
X1382313Y1170175D02*
Y1177793D01*
X1386122D01*
X1387391Y1176523D01*
Y1173984D01*
X1386122Y1172714D01*
X1382313D01*
X1384852D02*
X1387391Y1170175D01*
X1393739D02*
X1391200D01*
X1389931Y1171445D01*
Y1173984D01*
X1391200Y1175254D01*
X1393739D01*
X1395009Y1173984D01*
Y1172714D01*
X1389931D01*
X1398818Y1170175D02*
Y1176523D01*
Y1173984D01*
X1397548D01*
X1400087D01*
X1398818D01*
Y1176523D01*
X1400087Y1177793D01*
X1403896D02*
Y1170175D01*
X1407705D01*
X1408974Y1171445D01*
Y1176523D01*
X1407705Y1177793D01*
X1403896D01*
X1415322Y1170175D02*
X1412783D01*
X1411514Y1171445D01*
Y1173984D01*
X1412783Y1175254D01*
X1415322D01*
X1416592Y1173984D01*
Y1172714D01*
X1411514D01*
X1419131Y1170175D02*
X1422940D01*
X1424209Y1171445D01*
X1422940Y1172714D01*
X1420401D01*
X1419131Y1173984D01*
X1420401Y1175254D01*
X1424209D01*
D18*
X1406398Y864611D02*
X1416555D01*
X1411476D01*
Y849376D01*
X1421633D02*
Y864611D01*
X1429251D01*
X1431790Y862072D01*
Y856993D01*
X1429251Y854454D01*
X1421633D01*
X1436868Y862072D02*
X1439407Y864611D01*
X1444486D01*
X1447025Y862072D01*
Y859533D01*
X1444486Y856993D01*
X1441947D01*
X1444486D01*
X1447025Y854454D01*
Y851915D01*
X1444486Y849376D01*
X1439407D01*
X1436868Y851915D01*
X1712214Y766572D02*
Y774190D01*
X1716023D01*
X1717292Y772920D01*
Y770381D01*
X1716023Y769111D01*
X1712214D01*
X1714753D02*
X1717292Y766572D01*
X1719832D02*
X1722371D01*
X1721101D01*
Y774190D01*
X1719832Y772920D01*
X1731258Y774190D02*
X1726180D01*
Y770381D01*
X1728719Y771650D01*
X1729988D01*
X1731258Y770381D01*
Y767842D01*
X1729988Y766572D01*
X1727449D01*
X1726180Y767842D01*
X1733797Y772920D02*
X1735067Y774190D01*
X1737606D01*
X1738875Y772920D01*
Y771650D01*
X1737606Y770381D01*
X1738875Y769111D01*
Y767842D01*
X1737606Y766572D01*
X1735067D01*
X1733797Y767842D01*
Y769111D01*
X1735067Y770381D01*
X1733797Y771650D01*
Y772920D01*
X1735067Y770381D02*
X1737606D01*
X1609090Y1322829D02*
Y1316482D01*
X1610360Y1315212D01*
X1612899D01*
X1614168Y1316482D01*
Y1322829D01*
X1621786Y1315212D02*
X1616707D01*
X1621786Y1320290D01*
Y1321560D01*
X1620516Y1322829D01*
X1617977D01*
X1616707Y1321560D01*
X1624325D02*
X1625595Y1322829D01*
X1628134D01*
X1629403Y1321560D01*
Y1320290D01*
X1628134Y1319021D01*
X1629403Y1317751D01*
Y1316482D01*
X1628134Y1315212D01*
X1625595D01*
X1624325Y1316482D01*
Y1317751D01*
X1625595Y1319021D01*
X1624325Y1320290D01*
Y1321560D01*
X1625595Y1319021D02*
X1628134D01*
X1588516Y1466340D02*
X1593594D01*
X1591055D01*
Y1458722D01*
X1596134D02*
Y1466340D01*
X1599942D01*
X1601212Y1465070D01*
Y1462531D01*
X1599942Y1461261D01*
X1596134D01*
X1607560Y1458722D02*
Y1466340D01*
X1603751Y1462531D01*
X1608829D01*
X1611369Y1465070D02*
X1612638Y1466340D01*
X1615177D01*
X1616447Y1465070D01*
Y1463800D01*
X1615177Y1462531D01*
X1613908D01*
X1615177D01*
X1616447Y1461261D01*
Y1459992D01*
X1615177Y1458722D01*
X1612638D01*
X1611369Y1459992D01*
X1592834Y1319019D02*
X1597912D01*
X1595373D01*
Y1311402D01*
X1600452D02*
Y1319019D01*
X1604260D01*
X1605530Y1317750D01*
Y1315211D01*
X1604260Y1313941D01*
X1600452D01*
X1611878Y1311402D02*
Y1319019D01*
X1608069Y1315211D01*
X1613147D01*
X1620765Y1311402D02*
X1615687D01*
X1620765Y1316480D01*
Y1317750D01*
X1619495Y1319019D01*
X1616956D01*
X1615687Y1317750D01*
X1564386Y1163571D02*
X1569464D01*
X1566925D01*
Y1155954D01*
X1572003D02*
Y1163571D01*
X1575812D01*
X1577082Y1162302D01*
Y1159763D01*
X1575812Y1158493D01*
X1572003D01*
X1583430Y1155954D02*
Y1163571D01*
X1579621Y1159763D01*
X1584699D01*
X1587239Y1155954D02*
X1589778D01*
X1588508D01*
Y1163571D01*
X1587239Y1162302D01*
X1246886Y1203704D02*
X1251964D01*
X1249425D01*
Y1196086D01*
X1254503D02*
Y1203704D01*
X1258312D01*
X1259582Y1202434D01*
Y1199895D01*
X1258312Y1198625D01*
X1254503D01*
X1265930Y1196086D02*
Y1203704D01*
X1262121Y1199895D01*
X1267199D01*
X1269739Y1202434D02*
X1271008Y1203704D01*
X1273547D01*
X1274817Y1202434D01*
Y1197356D01*
X1273547Y1196086D01*
X1271008D01*
X1269739Y1197356D01*
Y1202434D01*
X1248664Y1469133D02*
X1253742D01*
X1251203D01*
Y1461516D01*
X1256282D02*
Y1469133D01*
X1260090D01*
X1261360Y1467864D01*
Y1465325D01*
X1260090Y1464055D01*
X1256282D01*
X1263899Y1467864D02*
X1265169Y1469133D01*
X1267708D01*
X1268977Y1467864D01*
Y1466594D01*
X1267708Y1465325D01*
X1266438D01*
X1267708D01*
X1268977Y1464055D01*
Y1462786D01*
X1267708Y1461516D01*
X1265169D01*
X1263899Y1462786D01*
X1271517D02*
X1272786Y1461516D01*
X1275325D01*
X1276595Y1462786D01*
Y1467864D01*
X1275325Y1469133D01*
X1272786D01*
X1271517Y1467864D01*
Y1466594D01*
X1272786Y1465325D01*
X1276595D01*
X1114044Y1262632D02*
X1119122D01*
X1116583D01*
Y1255014D01*
X1121662D02*
Y1262632D01*
X1125470D01*
X1126740Y1261362D01*
Y1258823D01*
X1125470Y1257553D01*
X1121662D01*
X1129279Y1261362D02*
X1130549Y1262632D01*
X1133088D01*
X1134357Y1261362D01*
Y1260092D01*
X1133088Y1258823D01*
X1131818D01*
X1133088D01*
X1134357Y1257553D01*
Y1256284D01*
X1133088Y1255014D01*
X1130549D01*
X1129279Y1256284D01*
X1136897Y1261362D02*
X1138166Y1262632D01*
X1140705D01*
X1141975Y1261362D01*
Y1260092D01*
X1140705Y1258823D01*
X1141975Y1257553D01*
Y1256284D01*
X1140705Y1255014D01*
X1138166D01*
X1136897Y1256284D01*
Y1257553D01*
X1138166Y1258823D01*
X1136897Y1260092D01*
Y1261362D01*
X1138166Y1258823D02*
X1140705D01*
X1131824Y1271522D02*
X1136902D01*
X1134363D01*
Y1263904D01*
X1139442D02*
Y1271522D01*
X1143250D01*
X1144520Y1270252D01*
Y1267713D01*
X1143250Y1266443D01*
X1139442D01*
X1147059Y1270252D02*
X1148329Y1271522D01*
X1150868D01*
X1152137Y1270252D01*
Y1268982D01*
X1150868Y1267713D01*
X1149598D01*
X1150868D01*
X1152137Y1266443D01*
Y1265174D01*
X1150868Y1263904D01*
X1148329D01*
X1147059Y1265174D01*
X1154677Y1271522D02*
X1159755D01*
Y1270252D01*
X1154677Y1265174D01*
Y1263904D01*
X1113790Y1280157D02*
X1118868D01*
X1116329D01*
Y1272540D01*
X1121407D02*
Y1280157D01*
X1125216D01*
X1126486Y1278888D01*
Y1276349D01*
X1125216Y1275079D01*
X1121407D01*
X1129025Y1278888D02*
X1130295Y1280157D01*
X1132834D01*
X1134103Y1278888D01*
Y1277618D01*
X1132834Y1276349D01*
X1131564D01*
X1132834D01*
X1134103Y1275079D01*
Y1273810D01*
X1132834Y1272540D01*
X1130295D01*
X1129025Y1273810D01*
X1141721Y1280157D02*
X1139182Y1278888D01*
X1136643Y1276349D01*
Y1273810D01*
X1137912Y1272540D01*
X1140451D01*
X1141721Y1273810D01*
Y1275079D01*
X1140451Y1276349D01*
X1136643D01*
X1113790Y1297937D02*
X1118868D01*
X1116329D01*
Y1290320D01*
X1121407D02*
Y1297937D01*
X1125216D01*
X1126486Y1296668D01*
Y1294129D01*
X1125216Y1292859D01*
X1121407D01*
X1129025Y1296668D02*
X1130295Y1297937D01*
X1132834D01*
X1134103Y1296668D01*
Y1295398D01*
X1132834Y1294129D01*
X1131564D01*
X1132834D01*
X1134103Y1292859D01*
Y1291590D01*
X1132834Y1290320D01*
X1130295D01*
X1129025Y1291590D01*
X1141721Y1297937D02*
X1136643D01*
Y1294129D01*
X1139182Y1295398D01*
X1140451D01*
X1141721Y1294129D01*
Y1291590D01*
X1140451Y1290320D01*
X1137912D01*
X1136643Y1291590D01*
X1131570Y1288793D02*
X1136648D01*
X1134109D01*
Y1281176D01*
X1139187D02*
Y1288793D01*
X1142996D01*
X1144266Y1287524D01*
Y1284985D01*
X1142996Y1283715D01*
X1139187D01*
X1146805Y1287524D02*
X1148075Y1288793D01*
X1150614D01*
X1151883Y1287524D01*
Y1286254D01*
X1150614Y1284985D01*
X1149344D01*
X1150614D01*
X1151883Y1283715D01*
Y1282446D01*
X1150614Y1281176D01*
X1148075D01*
X1146805Y1282446D01*
X1158231Y1281176D02*
Y1288793D01*
X1154423Y1284985D01*
X1159501D01*
X1131062Y1307081D02*
X1136140D01*
X1133601D01*
Y1299464D01*
X1138680D02*
Y1307081D01*
X1142488D01*
X1143758Y1305812D01*
Y1303273D01*
X1142488Y1302003D01*
X1138680D01*
X1146297Y1305812D02*
X1147567Y1307081D01*
X1150106D01*
X1151375Y1305812D01*
Y1304542D01*
X1150106Y1303273D01*
X1148836D01*
X1150106D01*
X1151375Y1302003D01*
Y1300734D01*
X1150106Y1299464D01*
X1147567D01*
X1146297Y1300734D01*
X1153915Y1305812D02*
X1155184Y1307081D01*
X1157723D01*
X1158993Y1305812D01*
Y1304542D01*
X1157723Y1303273D01*
X1156454D01*
X1157723D01*
X1158993Y1302003D01*
Y1300734D01*
X1157723Y1299464D01*
X1155184D01*
X1153915Y1300734D01*
X1113536Y1315717D02*
X1118614D01*
X1116075D01*
Y1308100D01*
X1121153D02*
Y1315717D01*
X1124962D01*
X1126232Y1314448D01*
Y1311909D01*
X1124962Y1310639D01*
X1121153D01*
X1128771Y1314448D02*
X1130041Y1315717D01*
X1132580D01*
X1133849Y1314448D01*
Y1313178D01*
X1132580Y1311909D01*
X1131310D01*
X1132580D01*
X1133849Y1310639D01*
Y1309370D01*
X1132580Y1308100D01*
X1130041D01*
X1128771Y1309370D01*
X1141467Y1308100D02*
X1136389D01*
X1141467Y1313178D01*
Y1314448D01*
X1140197Y1315717D01*
X1137658D01*
X1136389Y1314448D01*
X1113536Y1333244D02*
X1118614D01*
X1116075D01*
Y1325626D01*
X1121153D02*
Y1333244D01*
X1124962D01*
X1126232Y1331974D01*
Y1329435D01*
X1124962Y1328165D01*
X1121153D01*
X1128771Y1331974D02*
X1130041Y1333244D01*
X1132580D01*
X1133849Y1331974D01*
Y1330704D01*
X1132580Y1329435D01*
X1131310D01*
X1132580D01*
X1133849Y1328165D01*
Y1326896D01*
X1132580Y1325626D01*
X1130041D01*
X1128771Y1326896D01*
X1136389Y1325626D02*
X1138928D01*
X1137658D01*
Y1333244D01*
X1136389Y1331974D01*
X1131062Y1324608D02*
X1136140D01*
X1133601D01*
Y1316990D01*
X1138680D02*
Y1324608D01*
X1142488D01*
X1143758Y1323338D01*
Y1320799D01*
X1142488Y1319529D01*
X1138680D01*
X1146297Y1323338D02*
X1147567Y1324608D01*
X1150106D01*
X1151375Y1323338D01*
Y1322068D01*
X1150106Y1320799D01*
X1148836D01*
X1150106D01*
X1151375Y1319529D01*
Y1318260D01*
X1150106Y1316990D01*
X1147567D01*
X1146297Y1318260D01*
X1153915Y1323338D02*
X1155184Y1324608D01*
X1157723D01*
X1158993Y1323338D01*
Y1318260D01*
X1157723Y1316990D01*
X1155184D01*
X1153915Y1318260D01*
Y1323338D01*
X1130808Y1341879D02*
X1135886D01*
X1133347D01*
Y1334262D01*
X1138426D02*
Y1341879D01*
X1142234D01*
X1143504Y1340610D01*
Y1338071D01*
X1142234Y1336801D01*
X1138426D01*
X1151121Y1334262D02*
X1146043D01*
X1151121Y1339340D01*
Y1340610D01*
X1149852Y1341879D01*
X1147313D01*
X1146043Y1340610D01*
X1153661Y1335532D02*
X1154930Y1334262D01*
X1157469D01*
X1158739Y1335532D01*
Y1340610D01*
X1157469Y1341879D01*
X1154930D01*
X1153661Y1340610D01*
Y1339340D01*
X1154930Y1338071D01*
X1158739D01*
X1113028Y1351277D02*
X1118106D01*
X1115567D01*
Y1343660D01*
X1120646D02*
Y1351277D01*
X1124454D01*
X1125724Y1350008D01*
Y1347469D01*
X1124454Y1346199D01*
X1120646D01*
X1133341Y1343660D02*
X1128263D01*
X1133341Y1348738D01*
Y1350008D01*
X1132072Y1351277D01*
X1129533D01*
X1128263Y1350008D01*
X1135881D02*
X1137150Y1351277D01*
X1139689D01*
X1140959Y1350008D01*
Y1348738D01*
X1139689Y1347469D01*
X1140959Y1346199D01*
Y1344930D01*
X1139689Y1343660D01*
X1137150D01*
X1135881Y1344930D01*
Y1346199D01*
X1137150Y1347469D01*
X1135881Y1348738D01*
Y1350008D01*
X1137150Y1347469D02*
X1139689D01*
X1113028Y1369057D02*
X1118106D01*
X1115567D01*
Y1361440D01*
X1120646D02*
Y1369057D01*
X1124454D01*
X1125724Y1367788D01*
Y1365249D01*
X1124454Y1363979D01*
X1120646D01*
X1133341Y1361440D02*
X1128263D01*
X1133341Y1366518D01*
Y1367788D01*
X1132072Y1369057D01*
X1129533D01*
X1128263Y1367788D01*
X1135881Y1369057D02*
X1140959D01*
Y1367788D01*
X1135881Y1362710D01*
Y1361440D01*
X1130554Y1360676D02*
X1135632D01*
X1133093D01*
Y1353058D01*
X1138171D02*
Y1360676D01*
X1141980D01*
X1143250Y1359406D01*
Y1356867D01*
X1141980Y1355597D01*
X1138171D01*
X1150867Y1353058D02*
X1145789D01*
X1150867Y1358136D01*
Y1359406D01*
X1149598Y1360676D01*
X1147059D01*
X1145789Y1359406D01*
X1158485Y1360676D02*
X1155946Y1359406D01*
X1153407Y1356867D01*
Y1354328D01*
X1154676Y1353058D01*
X1157215D01*
X1158485Y1354328D01*
Y1355597D01*
X1157215Y1356867D01*
X1153407D01*
X1130300Y1378201D02*
X1135378D01*
X1132839D01*
Y1370584D01*
X1137917D02*
Y1378201D01*
X1141726D01*
X1142996Y1376932D01*
Y1374393D01*
X1141726Y1373123D01*
X1137917D01*
X1150613Y1370584D02*
X1145535D01*
X1150613Y1375662D01*
Y1376932D01*
X1149344Y1378201D01*
X1146805D01*
X1145535Y1376932D01*
X1158231Y1378201D02*
X1153153D01*
Y1374393D01*
X1155692Y1375662D01*
X1156961D01*
X1158231Y1374393D01*
Y1371854D01*
X1156961Y1370584D01*
X1154422D01*
X1153153Y1371854D01*
X1113028Y1386584D02*
X1118106D01*
X1115567D01*
Y1378966D01*
X1120646D02*
Y1386584D01*
X1124454D01*
X1125724Y1385314D01*
Y1382775D01*
X1124454Y1381505D01*
X1120646D01*
X1133341Y1378966D02*
X1128263D01*
X1133341Y1384044D01*
Y1385314D01*
X1132072Y1386584D01*
X1129533D01*
X1128263Y1385314D01*
X1139689Y1378966D02*
Y1386584D01*
X1135881Y1382775D01*
X1140959D01*
X1112774Y1404109D02*
X1117852D01*
X1115313D01*
Y1396492D01*
X1120391D02*
Y1404109D01*
X1124200D01*
X1125470Y1402840D01*
Y1400301D01*
X1124200Y1399031D01*
X1120391D01*
X1133087Y1396492D02*
X1128009D01*
X1133087Y1401570D01*
Y1402840D01*
X1131818Y1404109D01*
X1129279D01*
X1128009Y1402840D01*
X1135627D02*
X1136896Y1404109D01*
X1139435D01*
X1140705Y1402840D01*
Y1401570D01*
X1139435Y1400301D01*
X1138166D01*
X1139435D01*
X1140705Y1399031D01*
Y1397762D01*
X1139435Y1396492D01*
X1136896D01*
X1135627Y1397762D01*
X1130300Y1395728D02*
X1135378D01*
X1132839D01*
Y1388110D01*
X1137917D02*
Y1395728D01*
X1141726D01*
X1142996Y1394458D01*
Y1391919D01*
X1141726Y1390649D01*
X1137917D01*
X1150613Y1388110D02*
X1145535D01*
X1150613Y1393188D01*
Y1394458D01*
X1149344Y1395728D01*
X1146805D01*
X1145535Y1394458D01*
X1158231Y1388110D02*
X1153153D01*
X1158231Y1393188D01*
Y1394458D01*
X1156961Y1395728D01*
X1154422D01*
X1153153Y1394458D01*
X1130300Y1413253D02*
X1135378D01*
X1132839D01*
Y1405636D01*
X1137917D02*
Y1413253D01*
X1141726D01*
X1142996Y1411984D01*
Y1409445D01*
X1141726Y1408175D01*
X1137917D01*
X1150613Y1405636D02*
X1145535D01*
X1150613Y1410714D01*
Y1411984D01*
X1149344Y1413253D01*
X1146805D01*
X1145535Y1411984D01*
X1153153Y1405636D02*
X1155692D01*
X1154422D01*
Y1413253D01*
X1153153Y1411984D01*
X1113028Y1421889D02*
X1118106D01*
X1115567D01*
Y1414272D01*
X1120646D02*
Y1421889D01*
X1124454D01*
X1125724Y1420620D01*
Y1418081D01*
X1124454Y1416811D01*
X1120646D01*
X1133341Y1414272D02*
X1128263D01*
X1133341Y1419350D01*
Y1420620D01*
X1132072Y1421889D01*
X1129533D01*
X1128263Y1420620D01*
X1135881D02*
X1137150Y1421889D01*
X1139689D01*
X1140959Y1420620D01*
Y1415542D01*
X1139689Y1414272D01*
X1137150D01*
X1135881Y1415542D01*
Y1420620D01*
X1113028Y1439669D02*
X1118106D01*
X1115567D01*
Y1432052D01*
X1120646D02*
Y1439669D01*
X1124454D01*
X1125724Y1438400D01*
Y1435861D01*
X1124454Y1434591D01*
X1120646D01*
X1128263Y1432052D02*
X1130802D01*
X1129533D01*
Y1439669D01*
X1128263Y1438400D01*
X1134611Y1433322D02*
X1135881Y1432052D01*
X1138420D01*
X1139689Y1433322D01*
Y1438400D01*
X1138420Y1439669D01*
X1135881D01*
X1134611Y1438400D01*
Y1437130D01*
X1135881Y1435861D01*
X1139689D01*
X1130300Y1430780D02*
X1135378D01*
X1132839D01*
Y1423162D01*
X1137917D02*
Y1430780D01*
X1141726D01*
X1142996Y1429510D01*
Y1426971D01*
X1141726Y1425701D01*
X1137917D01*
X1145535Y1423162D02*
X1148074D01*
X1146805D01*
Y1430780D01*
X1145535Y1429510D01*
X1151883D02*
X1153153Y1430780D01*
X1155692D01*
X1156961Y1429510D01*
Y1428240D01*
X1155692Y1426971D01*
X1156961Y1425701D01*
Y1424432D01*
X1155692Y1423162D01*
X1153153D01*
X1151883Y1424432D01*
Y1425701D01*
X1153153Y1426971D01*
X1151883Y1428240D01*
Y1429510D01*
X1153153Y1426971D02*
X1155692D01*
X1130300Y1448306D02*
X1135378D01*
X1132839D01*
Y1440688D01*
X1137917D02*
Y1448306D01*
X1141726D01*
X1142996Y1447036D01*
Y1444497D01*
X1141726Y1443227D01*
X1137917D01*
X1145535Y1440688D02*
X1148074D01*
X1146805D01*
Y1448306D01*
X1145535Y1447036D01*
X1151883Y1448306D02*
X1156961D01*
Y1447036D01*
X1151883Y1441958D01*
Y1440688D01*
X1113028Y1457195D02*
X1118106D01*
X1115567D01*
Y1449578D01*
X1120646D02*
Y1457195D01*
X1124454D01*
X1125724Y1455926D01*
Y1453387D01*
X1124454Y1452117D01*
X1120646D01*
X1128263Y1449578D02*
X1130802D01*
X1129533D01*
Y1457195D01*
X1128263Y1455926D01*
X1139689Y1457195D02*
X1137150Y1455926D01*
X1134611Y1453387D01*
Y1450848D01*
X1135881Y1449578D01*
X1138420D01*
X1139689Y1450848D01*
Y1452117D01*
X1138420Y1453387D01*
X1134611D01*
X1130300Y1466086D02*
X1135378D01*
X1132839D01*
Y1458468D01*
X1137917D02*
Y1466086D01*
X1141726D01*
X1142996Y1464816D01*
Y1462277D01*
X1141726Y1461007D01*
X1137917D01*
X1145535Y1458468D02*
X1148074D01*
X1146805D01*
Y1466086D01*
X1145535Y1464816D01*
X1156961Y1466086D02*
X1151883D01*
Y1462277D01*
X1154422Y1463546D01*
X1155692D01*
X1156961Y1462277D01*
Y1459738D01*
X1155692Y1458468D01*
X1153153D01*
X1151883Y1459738D01*
X1101090Y696720D02*
X1106168D01*
X1103629D01*
Y689102D01*
X1108708D02*
Y696720D01*
X1112516D01*
X1113786Y695450D01*
Y692911D01*
X1112516Y691641D01*
X1108708D01*
X1121403Y689102D02*
X1116325D01*
X1121403Y694180D01*
Y695450D01*
X1120134Y696720D01*
X1117595D01*
X1116325Y695450D01*
X1015238Y740407D02*
X1020316D01*
X1017777D01*
Y732790D01*
X1022856D02*
Y740407D01*
X1026664D01*
X1027934Y739138D01*
Y736599D01*
X1026664Y735329D01*
X1022856D01*
X1030473Y732790D02*
X1033012D01*
X1031743D01*
Y740407D01*
X1030473Y739138D01*
X1149350Y1325623D02*
Y1319276D01*
X1150620Y1318006D01*
X1153159D01*
X1154428Y1319276D01*
Y1325623D01*
X1162046Y1318006D02*
X1156967D01*
X1162046Y1323084D01*
Y1324354D01*
X1160776Y1325623D01*
X1158237D01*
X1156967Y1324354D01*
X1164585Y1325623D02*
X1169663D01*
Y1324354D01*
X1164585Y1319276D01*
Y1318006D01*
X1278382Y929894D02*
Y937512D01*
X1282191D01*
X1283460Y936242D01*
Y933703D01*
X1282191Y932433D01*
X1278382D01*
X1280921D02*
X1283460Y929894D01*
X1289808D02*
Y937512D01*
X1285999Y933703D01*
X1291078D01*
X1293617Y929894D02*
X1296156D01*
X1294887D01*
Y937512D01*
X1293617Y936242D01*
X1203196Y1009648D02*
X1201927Y1010918D01*
X1199388D01*
X1198118Y1009648D01*
Y1004570D01*
X1199388Y1003300D01*
X1201927D01*
X1203196Y1004570D01*
X1210814Y1003300D02*
X1205735D01*
X1210814Y1008378D01*
Y1009648D01*
X1209544Y1010918D01*
X1207005D01*
X1205735Y1009648D01*
X1217162Y1003300D02*
Y1010918D01*
X1213353Y1007109D01*
X1218431D01*
X1203450Y1076704D02*
X1202181Y1077973D01*
X1199642D01*
X1198372Y1076704D01*
Y1071626D01*
X1199642Y1070356D01*
X1202181D01*
X1203450Y1071626D01*
X1205990Y1070356D02*
X1208529D01*
X1207259D01*
Y1077973D01*
X1205990Y1076704D01*
X1212337Y1071626D02*
X1213607Y1070356D01*
X1216146D01*
X1217416Y1071626D01*
Y1076704D01*
X1216146Y1077973D01*
X1213607D01*
X1212337Y1076704D01*
Y1075434D01*
X1213607Y1074165D01*
X1217416D01*
X1203196Y1110232D02*
X1201927Y1111501D01*
X1199388D01*
X1198118Y1110232D01*
Y1105154D01*
X1199388Y1103884D01*
X1201927D01*
X1203196Y1105154D01*
X1205735Y1103884D02*
X1208275D01*
X1207005D01*
Y1111501D01*
X1205735Y1110232D01*
X1212084Y1111501D02*
X1217162D01*
Y1110232D01*
X1212084Y1105154D01*
Y1103884D01*
X1203196Y992884D02*
X1201927Y994154D01*
X1199388D01*
X1198118Y992884D01*
Y987806D01*
X1199388Y986536D01*
X1201927D01*
X1203196Y987806D01*
X1205735Y986536D02*
X1208275D01*
X1207005D01*
Y994154D01*
X1205735Y992884D01*
X1217162Y986536D02*
X1212084D01*
X1217162Y991614D01*
Y992884D01*
X1215892Y994154D01*
X1213353D01*
X1212084Y992884D01*
X1203450Y1059940D02*
X1202181Y1061209D01*
X1199642D01*
X1198372Y1059940D01*
Y1054862D01*
X1199642Y1053592D01*
X1202181D01*
X1203450Y1054862D01*
X1205990Y1061209D02*
X1211068D01*
Y1059940D01*
X1205990Y1054862D01*
Y1053592D01*
X1203196Y1093214D02*
X1201927Y1094483D01*
X1199388D01*
X1198118Y1093214D01*
Y1088136D01*
X1199388Y1086866D01*
X1201927D01*
X1203196Y1088136D01*
X1210814Y1094483D02*
X1205735D01*
Y1090675D01*
X1208275Y1091944D01*
X1209544D01*
X1210814Y1090675D01*
Y1088136D01*
X1209544Y1086866D01*
X1207005D01*
X1205735Y1088136D01*
X1094740Y815340D02*
Y822958D01*
X1098549D01*
X1099818Y821688D01*
Y819149D01*
X1098549Y817879D01*
X1094740D01*
X1097279D02*
X1099818Y815340D01*
X1107436Y822958D02*
X1102357D01*
Y819149D01*
X1104897Y820418D01*
X1106166D01*
X1107436Y819149D01*
Y816610D01*
X1106166Y815340D01*
X1103627D01*
X1102357Y816610D01*
X1115053Y815340D02*
X1109975D01*
X1115053Y820418D01*
Y821688D01*
X1113784Y822958D01*
X1111245D01*
X1109975Y821688D01*
X1101126Y797690D02*
X1093508D01*
Y801499D01*
X1094778Y802768D01*
X1097317D01*
X1098587Y801499D01*
Y797690D01*
Y800229D02*
X1101126Y802768D01*
X1093508Y810386D02*
Y805307D01*
X1097317D01*
X1096048Y807847D01*
Y809116D01*
X1097317Y810386D01*
X1099856D01*
X1101126Y809116D01*
Y806577D01*
X1099856Y805307D01*
X1101126Y812925D02*
Y815464D01*
Y814195D01*
X1093508D01*
X1094778Y812925D01*
X1229232Y764411D02*
X1221614D01*
Y760602D01*
X1222884Y759333D01*
X1227962D01*
X1229232Y760602D01*
Y764411D01*
X1221614Y751715D02*
Y756794D01*
X1226693Y751715D01*
X1227962D01*
X1229232Y752985D01*
Y755524D01*
X1227962Y756794D01*
X1609090Y1462021D02*
Y1455674D01*
X1610360Y1454404D01*
X1612899D01*
X1614168Y1455674D01*
Y1462021D01*
X1621786Y1454404D02*
X1616707D01*
X1621786Y1459482D01*
Y1460752D01*
X1620516Y1462021D01*
X1617977D01*
X1616707Y1460752D01*
X1629403Y1462021D02*
X1626864Y1460752D01*
X1624325Y1458213D01*
Y1455674D01*
X1625595Y1454404D01*
X1628134D01*
X1629403Y1455674D01*
Y1456943D01*
X1628134Y1458213D01*
X1624325D01*
X1609344Y1183383D02*
Y1177036D01*
X1610614Y1175766D01*
X1613153D01*
X1614422Y1177036D01*
Y1183383D01*
X1622040Y1175766D02*
X1616962D01*
X1622040Y1180844D01*
Y1182114D01*
X1620770Y1183383D01*
X1618231D01*
X1616962Y1182114D01*
X1629657Y1183383D02*
X1624579D01*
Y1179575D01*
X1627118Y1180844D01*
X1628388D01*
X1629657Y1179575D01*
Y1177036D01*
X1628388Y1175766D01*
X1625849D01*
X1624579Y1177036D01*
X1148842Y1463038D02*
Y1456690D01*
X1150112Y1455420D01*
X1152651D01*
X1153920Y1456690D01*
Y1463038D01*
X1161538Y1455420D02*
X1156460D01*
X1161538Y1460498D01*
Y1461768D01*
X1160268Y1463038D01*
X1157729D01*
X1156460Y1461768D01*
X1167886Y1455420D02*
Y1463038D01*
X1164077Y1459229D01*
X1169155D01*
X1022604Y1420368D02*
Y1427986D01*
X1026413D01*
X1027682Y1426716D01*
Y1424177D01*
X1026413Y1422907D01*
X1022604D01*
X1025143D02*
X1027682Y1420368D01*
X1030221D02*
X1032761D01*
X1031491D01*
Y1427986D01*
X1030221Y1426716D01*
X1036570Y1427986D02*
X1041648D01*
Y1426716D01*
X1036570Y1421638D01*
Y1420368D01*
X1044187Y1427986D02*
X1049265D01*
Y1426716D01*
X1044187Y1421638D01*
Y1420368D01*
X1067054Y1420114D02*
Y1427731D01*
X1070863D01*
X1072132Y1426462D01*
Y1423923D01*
X1070863Y1422653D01*
X1067054D01*
X1069593D02*
X1072132Y1420114D01*
X1074671D02*
X1077211D01*
X1075941D01*
Y1427731D01*
X1074671Y1426462D01*
X1081020Y1427731D02*
X1086098D01*
Y1426462D01*
X1081020Y1421384D01*
Y1420114D01*
X1093715Y1427731D02*
X1091176Y1426462D01*
X1088637Y1423923D01*
Y1421384D01*
X1089907Y1420114D01*
X1092446D01*
X1093715Y1421384D01*
Y1422653D01*
X1092446Y1423923D01*
X1088637D01*
X1394968Y1309116D02*
Y1316734D01*
X1398777D01*
X1400046Y1315464D01*
Y1312925D01*
X1398777Y1311655D01*
X1394968D01*
X1397507D02*
X1400046Y1309116D01*
X1402585D02*
X1405125D01*
X1403855D01*
Y1316734D01*
X1402585Y1315464D01*
X1414012Y1316734D02*
X1411473Y1315464D01*
X1408934Y1312925D01*
Y1310386D01*
X1410203Y1309116D01*
X1412742D01*
X1414012Y1310386D01*
Y1311655D01*
X1412742Y1312925D01*
X1408934D01*
X1416551Y1310386D02*
X1417821Y1309116D01*
X1420360D01*
X1421629Y1310386D01*
Y1315464D01*
X1420360Y1316734D01*
X1417821D01*
X1416551Y1315464D01*
Y1314194D01*
X1417821Y1312925D01*
X1421629D01*
X1414780Y1308862D02*
Y1316479D01*
X1418589D01*
X1419858Y1315210D01*
Y1312671D01*
X1418589Y1311401D01*
X1414780D01*
X1417319D02*
X1419858Y1308862D01*
X1422397D02*
X1424937D01*
X1423667D01*
Y1316479D01*
X1422397Y1315210D01*
X1433824Y1316479D02*
X1431285Y1315210D01*
X1428746Y1312671D01*
Y1310132D01*
X1430015Y1308862D01*
X1432554D01*
X1433824Y1310132D01*
Y1311401D01*
X1432554Y1312671D01*
X1428746D01*
X1436363Y1315210D02*
X1437633Y1316479D01*
X1440172D01*
X1441441Y1315210D01*
Y1313940D01*
X1440172Y1312671D01*
X1441441Y1311401D01*
Y1310132D01*
X1440172Y1308862D01*
X1437633D01*
X1436363Y1310132D01*
Y1311401D01*
X1437633Y1312671D01*
X1436363Y1313940D01*
Y1315210D01*
X1437633Y1312671D02*
X1440172D01*
X1529840Y1033270D02*
X1527301D01*
X1528571D01*
Y1026922D01*
X1527301Y1025652D01*
X1526032D01*
X1524762Y1026922D01*
X1532379Y1025652D02*
X1534919D01*
X1533649D01*
Y1033270D01*
X1532379Y1032000D01*
X1538728Y1025652D02*
X1541267D01*
X1539997D01*
Y1033270D01*
X1538728Y1032000D01*
X1544066Y1441956D02*
Y1435608D01*
X1545336Y1434338D01*
X1547875D01*
X1549144Y1435608D01*
Y1441956D01*
X1551684D02*
X1556762D01*
Y1440686D01*
X1551684Y1435608D01*
Y1434338D01*
X1506220Y1442209D02*
Y1435862D01*
X1507490Y1434592D01*
X1510029D01*
X1511298Y1435862D01*
Y1442209D01*
X1518916D02*
X1516377Y1440940D01*
X1513837Y1438401D01*
Y1435862D01*
X1515107Y1434592D01*
X1517646D01*
X1518916Y1435862D01*
Y1437131D01*
X1517646Y1438401D01*
X1513837D01*
X1365250Y975611D02*
Y969264D01*
X1366520Y967994D01*
X1369059D01*
X1370328Y969264D01*
Y975611D01*
X1376676Y967994D02*
Y975611D01*
X1372867Y971803D01*
X1377946D01*
X1332484Y1038604D02*
Y1032256D01*
X1333754Y1030986D01*
X1336293D01*
X1337562Y1032256D01*
Y1038604D01*
X1340101Y1037334D02*
X1341371Y1038604D01*
X1343910D01*
X1345180Y1037334D01*
Y1036064D01*
X1343910Y1034795D01*
X1342641D01*
X1343910D01*
X1345180Y1033525D01*
Y1032256D01*
X1343910Y1030986D01*
X1341371D01*
X1340101Y1032256D01*
X1090168Y923034D02*
Y916686D01*
X1091438Y915416D01*
X1093977D01*
X1095246Y916686D01*
Y923034D01*
X1102864Y915416D02*
X1097785D01*
X1102864Y920494D01*
Y921764D01*
X1101594Y923034D01*
X1099055D01*
X1097785Y921764D01*
X1540256Y1291333D02*
X1545334D01*
X1542795D01*
Y1283716D01*
X1547874D02*
Y1291333D01*
X1551682D01*
X1552952Y1290064D01*
Y1287525D01*
X1551682Y1286255D01*
X1547874D01*
X1555491Y1283716D02*
X1558030D01*
X1556761D01*
Y1291333D01*
X1555491Y1290064D01*
X1561839D02*
X1563109Y1291333D01*
X1565648D01*
X1566917Y1290064D01*
Y1284986D01*
X1565648Y1283716D01*
X1563109D01*
X1561839Y1284986D01*
Y1290064D01*
X1485900Y1492755D02*
X1490978D01*
X1488439D01*
Y1485138D01*
X1493517D02*
Y1492755D01*
X1497326D01*
X1498596Y1491486D01*
Y1488947D01*
X1497326Y1487677D01*
X1493517D01*
X1501135Y1486408D02*
X1502405Y1485138D01*
X1504944D01*
X1506213Y1486408D01*
Y1491486D01*
X1504944Y1492755D01*
X1502405D01*
X1501135Y1491486D01*
Y1490216D01*
X1502405Y1488947D01*
X1506213D01*
X1402080Y1506980D02*
X1407158D01*
X1404619D01*
Y1499362D01*
X1409698D02*
Y1506980D01*
X1413506D01*
X1414776Y1505710D01*
Y1503171D01*
X1413506Y1501901D01*
X1409698D01*
X1417315Y1505710D02*
X1418585Y1506980D01*
X1421124D01*
X1422393Y1505710D01*
Y1504440D01*
X1421124Y1503171D01*
X1422393Y1501901D01*
Y1500632D01*
X1421124Y1499362D01*
X1418585D01*
X1417315Y1500632D01*
Y1501901D01*
X1418585Y1503171D01*
X1417315Y1504440D01*
Y1505710D01*
X1418585Y1503171D02*
X1421124D01*
X1508252Y1495296D02*
X1513330D01*
X1510791D01*
Y1487678D01*
X1515869D02*
Y1495296D01*
X1519678D01*
X1520948Y1494026D01*
Y1491487D01*
X1519678Y1490217D01*
X1515869D01*
X1523487Y1495296D02*
X1528565D01*
Y1494026D01*
X1523487Y1488948D01*
Y1487678D01*
X1832102Y765807D02*
X1837180D01*
X1834641D01*
Y758190D01*
X1839720D02*
Y765807D01*
X1843528D01*
X1844798Y764538D01*
Y761999D01*
X1843528Y760729D01*
X1839720D01*
X1852415Y765807D02*
X1849876Y764538D01*
X1847337Y761999D01*
Y759460D01*
X1848607Y758190D01*
X1851146D01*
X1852415Y759460D01*
Y760729D01*
X1851146Y761999D01*
X1847337D01*
X1810766Y1483866D02*
X1815844D01*
X1813305D01*
Y1476248D01*
X1818383D02*
Y1483866D01*
X1822192D01*
X1823462Y1482596D01*
Y1480057D01*
X1822192Y1478787D01*
X1818383D01*
X1831079Y1483866D02*
X1826001D01*
Y1480057D01*
X1828540Y1481326D01*
X1829810D01*
X1831079Y1480057D01*
Y1477518D01*
X1829810Y1476248D01*
X1827271D01*
X1826001Y1477518D01*
X1402840Y1402078D02*
X1401571Y1403347D01*
X1399032D01*
X1397762Y1402078D01*
Y1400808D01*
X1399032Y1399539D01*
X1401571D01*
X1402840Y1398269D01*
Y1397000D01*
X1401571Y1395730D01*
X1399032D01*
X1397762Y1397000D01*
X1409188Y1395730D02*
Y1403347D01*
X1405379Y1399539D01*
X1410458D01*
X1553716Y1401570D02*
X1552447Y1402840D01*
X1549908D01*
X1548638Y1401570D01*
Y1400300D01*
X1549908Y1399031D01*
X1552447D01*
X1553716Y1397761D01*
Y1396492D01*
X1552447Y1395222D01*
X1549908D01*
X1548638Y1396492D01*
X1556255Y1401570D02*
X1557525Y1402840D01*
X1560064D01*
X1561334Y1401570D01*
Y1400300D01*
X1560064Y1399031D01*
X1558795D01*
X1560064D01*
X1561334Y1397761D01*
Y1396492D01*
X1560064Y1395222D01*
X1557525D01*
X1556255Y1396492D01*
X1284732Y1031940D02*
X1283463Y1033210D01*
X1280923D01*
X1279654Y1031940D01*
Y1030671D01*
X1280923Y1029401D01*
X1283463D01*
X1284732Y1028131D01*
Y1026862D01*
X1283463Y1025592D01*
X1280923D01*
X1279654Y1026862D01*
X1292350Y1025592D02*
X1287271D01*
X1292350Y1030671D01*
Y1031940D01*
X1291080Y1033210D01*
X1288541D01*
X1287271Y1031940D01*
X1415794Y1032254D02*
X1414525Y1033523D01*
X1411986D01*
X1410716Y1032254D01*
Y1030984D01*
X1411986Y1029715D01*
X1414525D01*
X1415794Y1028445D01*
Y1027176D01*
X1414525Y1025906D01*
X1411986D01*
X1410716Y1027176D01*
X1418333Y1025906D02*
X1420873D01*
X1419603D01*
Y1033523D01*
X1418333Y1032254D01*
X1368298Y1376172D02*
Y1383790D01*
X1372107D01*
X1373376Y1382520D01*
Y1379981D01*
X1372107Y1378711D01*
X1368298D01*
X1370837D02*
X1373376Y1376172D01*
X1375916Y1382520D02*
X1377185Y1383790D01*
X1379724D01*
X1380994Y1382520D01*
Y1381250D01*
X1379724Y1379981D01*
X1380994Y1378711D01*
Y1377442D01*
X1379724Y1376172D01*
X1377185D01*
X1375916Y1377442D01*
Y1378711D01*
X1377185Y1379981D01*
X1375916Y1381250D01*
Y1382520D01*
X1377185Y1379981D02*
X1379724D01*
X1383533Y1382520D02*
X1384803Y1383790D01*
X1387342D01*
X1388611Y1382520D01*
Y1377442D01*
X1387342Y1376172D01*
X1384803D01*
X1383533Y1377442D01*
Y1382520D01*
X1368298Y1389126D02*
Y1396743D01*
X1372107D01*
X1373376Y1395474D01*
Y1392935D01*
X1372107Y1391665D01*
X1368298D01*
X1370837D02*
X1373376Y1389126D01*
X1375916Y1396743D02*
X1380994D01*
Y1395474D01*
X1375916Y1390396D01*
Y1389126D01*
X1383533Y1390396D02*
X1384803Y1389126D01*
X1387342D01*
X1388611Y1390396D01*
Y1395474D01*
X1387342Y1396743D01*
X1384803D01*
X1383533Y1395474D01*
Y1394204D01*
X1384803Y1392935D01*
X1388611D01*
X1471168Y1356614D02*
Y1364232D01*
X1474977D01*
X1476246Y1362962D01*
Y1360423D01*
X1474977Y1359153D01*
X1471168D01*
X1473707D02*
X1476246Y1356614D01*
X1478786Y1364232D02*
X1483864D01*
Y1362962D01*
X1478786Y1357884D01*
Y1356614D01*
X1491481Y1364232D02*
X1486403D01*
Y1360423D01*
X1488942Y1361692D01*
X1490212D01*
X1491481Y1360423D01*
Y1357884D01*
X1490212Y1356614D01*
X1487673D01*
X1486403Y1357884D01*
X1474978Y1408684D02*
Y1416302D01*
X1478787D01*
X1480056Y1415032D01*
Y1412493D01*
X1478787Y1411223D01*
X1474978D01*
X1477517D02*
X1480056Y1408684D01*
X1482596Y1416302D02*
X1487674D01*
Y1415032D01*
X1482596Y1409954D01*
Y1408684D01*
X1494022D02*
Y1416302D01*
X1490213Y1412493D01*
X1495291D01*
X1532382Y1466088D02*
Y1473705D01*
X1536191D01*
X1537460Y1472436D01*
Y1469897D01*
X1536191Y1468627D01*
X1532382D01*
X1534921D02*
X1537460Y1466088D01*
X1540000Y1473705D02*
X1545078D01*
Y1472436D01*
X1540000Y1467358D01*
Y1466088D01*
X1552695D02*
X1547617D01*
X1552695Y1471166D01*
Y1472436D01*
X1551426Y1473705D01*
X1548887D01*
X1547617Y1472436D01*
X1552702Y1447292D02*
Y1454910D01*
X1556511D01*
X1557780Y1453640D01*
Y1451101D01*
X1556511Y1449831D01*
X1552702D01*
X1555241D02*
X1557780Y1447292D01*
X1560320Y1454910D02*
X1565398D01*
Y1453640D01*
X1560320Y1448562D01*
Y1447292D01*
X1567937D02*
X1570476D01*
X1569207D01*
Y1454910D01*
X1567937Y1453640D01*
X1138682Y912876D02*
Y920493D01*
X1142491D01*
X1143760Y919224D01*
Y916685D01*
X1142491Y915415D01*
X1138682D01*
X1141221D02*
X1143760Y912876D01*
X1146300Y920493D02*
X1151378D01*
Y919224D01*
X1146300Y914146D01*
Y912876D01*
X1153917Y919224D02*
X1155187Y920493D01*
X1157726D01*
X1158995Y919224D01*
Y914146D01*
X1157726Y912876D01*
X1155187D01*
X1153917Y914146D01*
Y919224D01*
X1118108Y877316D02*
Y884933D01*
X1121917D01*
X1123186Y883664D01*
Y881125D01*
X1121917Y879855D01*
X1118108D01*
X1120647D02*
X1123186Y877316D01*
X1130804Y884933D02*
X1128265Y883664D01*
X1125725Y881125D01*
Y878586D01*
X1126995Y877316D01*
X1129534D01*
X1130804Y878586D01*
Y879855D01*
X1129534Y881125D01*
X1125725D01*
X1133343Y878586D02*
X1134613Y877316D01*
X1137152D01*
X1138421Y878586D01*
Y883664D01*
X1137152Y884933D01*
X1134613D01*
X1133343Y883664D01*
Y882394D01*
X1134613Y881125D01*
X1138421D01*
X1519174Y1393952D02*
Y1401570D01*
X1522983D01*
X1524252Y1400300D01*
Y1397761D01*
X1522983Y1396491D01*
X1519174D01*
X1521713D02*
X1524252Y1393952D01*
X1531870Y1401570D02*
X1529331Y1400300D01*
X1526792Y1397761D01*
Y1395222D01*
X1528061Y1393952D01*
X1530600D01*
X1531870Y1395222D01*
Y1396491D01*
X1530600Y1397761D01*
X1526792D01*
X1534409Y1400300D02*
X1535679Y1401570D01*
X1538218D01*
X1539487Y1400300D01*
Y1399030D01*
X1538218Y1397761D01*
X1539487Y1396491D01*
Y1395222D01*
X1538218Y1393952D01*
X1535679D01*
X1534409Y1395222D01*
Y1396491D01*
X1535679Y1397761D01*
X1534409Y1399030D01*
Y1400300D01*
X1535679Y1397761D02*
X1538218D01*
X1046988Y932180D02*
Y939798D01*
X1050797D01*
X1052066Y938528D01*
Y935989D01*
X1050797Y934719D01*
X1046988D01*
X1049527D02*
X1052066Y932180D01*
X1059684Y939798D02*
X1057145Y938528D01*
X1054605Y935989D01*
Y933450D01*
X1055875Y932180D01*
X1058414D01*
X1059684Y933450D01*
Y934719D01*
X1058414Y935989D01*
X1054605D01*
X1062223Y939798D02*
X1067301D01*
Y938528D01*
X1062223Y933450D01*
Y932180D01*
X1047242Y874776D02*
Y882393D01*
X1051051D01*
X1052320Y881124D01*
Y878585D01*
X1051051Y877315D01*
X1047242D01*
X1049781D02*
X1052320Y874776D01*
X1059938Y882393D02*
X1057399Y881124D01*
X1054859Y878585D01*
Y876046D01*
X1056129Y874776D01*
X1058668D01*
X1059938Y876046D01*
Y877315D01*
X1058668Y878585D01*
X1054859D01*
X1067555Y882393D02*
X1065016Y881124D01*
X1062477Y878585D01*
Y876046D01*
X1063747Y874776D01*
X1066286D01*
X1067555Y876046D01*
Y877315D01*
X1066286Y878585D01*
X1062477D01*
X1486408Y1128268D02*
Y1135885D01*
X1490217D01*
X1491486Y1134616D01*
Y1132077D01*
X1490217Y1130807D01*
X1486408D01*
X1488947D02*
X1491486Y1128268D01*
X1499104Y1135885D02*
X1496565Y1134616D01*
X1494026Y1132077D01*
Y1129538D01*
X1495295Y1128268D01*
X1497834D01*
X1499104Y1129538D01*
Y1130807D01*
X1497834Y1132077D01*
X1494026D01*
X1505452Y1128268D02*
Y1135885D01*
X1501643Y1132077D01*
X1506721D01*
X1490472Y1217930D02*
Y1225547D01*
X1494281D01*
X1495550Y1224278D01*
Y1221739D01*
X1494281Y1220469D01*
X1490472D01*
X1493011D02*
X1495550Y1217930D01*
X1503168Y1225547D02*
X1500629Y1224278D01*
X1498089Y1221739D01*
Y1219200D01*
X1499359Y1217930D01*
X1501898D01*
X1503168Y1219200D01*
Y1220469D01*
X1501898Y1221739D01*
X1498089D01*
X1505707Y1224278D02*
X1506977Y1225547D01*
X1509516D01*
X1510785Y1224278D01*
Y1223008D01*
X1509516Y1221739D01*
X1508246D01*
X1509516D01*
X1510785Y1220469D01*
Y1219200D01*
X1509516Y1217930D01*
X1506977D01*
X1505707Y1219200D01*
X1441958Y1099058D02*
Y1106675D01*
X1445767D01*
X1447036Y1105406D01*
Y1102867D01*
X1445767Y1101597D01*
X1441958D01*
X1444497D02*
X1447036Y1099058D01*
X1454654Y1106675D02*
X1449576D01*
Y1102867D01*
X1452115Y1104136D01*
X1453384D01*
X1454654Y1102867D01*
Y1100328D01*
X1453384Y1099058D01*
X1450845D01*
X1449576Y1100328D01*
X1457193D02*
X1458463Y1099058D01*
X1461002D01*
X1462271Y1100328D01*
Y1105406D01*
X1461002Y1106675D01*
X1458463D01*
X1457193Y1105406D01*
Y1104136D01*
X1458463Y1102867D01*
X1462271D01*
X1312418Y963168D02*
Y970786D01*
X1316227D01*
X1317496Y969516D01*
Y966977D01*
X1316227Y965707D01*
X1312418D01*
X1314957D02*
X1317496Y963168D01*
X1323844D02*
Y970786D01*
X1320036Y966977D01*
X1325114D01*
X1327653Y969516D02*
X1328923Y970786D01*
X1331462D01*
X1332731Y969516D01*
Y968246D01*
X1331462Y966977D01*
X1330192D01*
X1331462D01*
X1332731Y965707D01*
Y964438D01*
X1331462Y963168D01*
X1328923D01*
X1327653Y964438D01*
X1312672Y929640D02*
Y937258D01*
X1316481D01*
X1317750Y935988D01*
Y933449D01*
X1316481Y932179D01*
X1312672D01*
X1315211D02*
X1317750Y929640D01*
X1324098D02*
Y937258D01*
X1320289Y933449D01*
X1325368D01*
X1332985Y929640D02*
X1327907D01*
X1332985Y934718D01*
Y935988D01*
X1331716Y937258D01*
X1329177D01*
X1327907Y935988D01*
X1293622Y1146810D02*
Y1154427D01*
X1297431D01*
X1298700Y1153158D01*
Y1150619D01*
X1297431Y1149349D01*
X1293622D01*
X1296161D02*
X1298700Y1146810D01*
X1301239Y1153158D02*
X1302509Y1154427D01*
X1305048D01*
X1306318Y1153158D01*
Y1151888D01*
X1305048Y1150619D01*
X1303779D01*
X1305048D01*
X1306318Y1149349D01*
Y1148080D01*
X1305048Y1146810D01*
X1302509D01*
X1301239Y1148080D01*
X1308857D02*
X1310127Y1146810D01*
X1312666D01*
X1313935Y1148080D01*
Y1153158D01*
X1312666Y1154427D01*
X1310127D01*
X1308857Y1153158D01*
Y1151888D01*
X1310127Y1150619D01*
X1313935D01*
X1353566Y1101852D02*
Y1109470D01*
X1357375D01*
X1358644Y1108200D01*
Y1105661D01*
X1357375Y1104391D01*
X1353566D01*
X1356105D02*
X1358644Y1101852D01*
X1361183Y1108200D02*
X1362453Y1109470D01*
X1364992D01*
X1366262Y1108200D01*
Y1106930D01*
X1364992Y1105661D01*
X1363723D01*
X1364992D01*
X1366262Y1104391D01*
Y1103122D01*
X1364992Y1101852D01*
X1362453D01*
X1361183Y1103122D01*
X1368801Y1108200D02*
X1370071Y1109470D01*
X1372610D01*
X1373879Y1108200D01*
Y1106930D01*
X1372610Y1105661D01*
X1373879Y1104391D01*
Y1103122D01*
X1372610Y1101852D01*
X1370071D01*
X1368801Y1103122D01*
Y1104391D01*
X1370071Y1105661D01*
X1368801Y1106930D01*
Y1108200D01*
X1370071Y1105661D02*
X1372610D01*
X1302512Y1123950D02*
Y1131568D01*
X1306321D01*
X1307590Y1130298D01*
Y1127759D01*
X1306321Y1126489D01*
X1302512D01*
X1305051D02*
X1307590Y1123950D01*
X1310130Y1130298D02*
X1311399Y1131568D01*
X1313938D01*
X1315208Y1130298D01*
Y1129028D01*
X1313938Y1127759D01*
X1312669D01*
X1313938D01*
X1315208Y1126489D01*
Y1125220D01*
X1313938Y1123950D01*
X1311399D01*
X1310130Y1125220D01*
X1317747Y1131568D02*
X1322825D01*
Y1130298D01*
X1317747Y1125220D01*
Y1123950D01*
X1153414Y986536D02*
Y994154D01*
X1157223D01*
X1158492Y992884D01*
Y990345D01*
X1157223Y989075D01*
X1153414D01*
X1155953D02*
X1158492Y986536D01*
X1161031Y992884D02*
X1162301Y994154D01*
X1164840D01*
X1166110Y992884D01*
Y991614D01*
X1164840Y990345D01*
X1163571D01*
X1164840D01*
X1166110Y989075D01*
Y987806D01*
X1164840Y986536D01*
X1162301D01*
X1161031Y987806D01*
X1173727Y994154D02*
X1171188Y992884D01*
X1168649Y990345D01*
Y987806D01*
X1169919Y986536D01*
X1172458D01*
X1173727Y987806D01*
Y989075D01*
X1172458Y990345D01*
X1168649D01*
X1153414Y1003300D02*
Y1010918D01*
X1157223D01*
X1158492Y1009648D01*
Y1007109D01*
X1157223Y1005839D01*
X1153414D01*
X1155953D02*
X1158492Y1003300D01*
X1161031Y1009648D02*
X1162301Y1010918D01*
X1164840D01*
X1166110Y1009648D01*
Y1008378D01*
X1164840Y1007109D01*
X1163571D01*
X1164840D01*
X1166110Y1005839D01*
Y1004570D01*
X1164840Y1003300D01*
X1162301D01*
X1161031Y1004570D01*
X1173727Y1010918D02*
X1168649D01*
Y1007109D01*
X1171188Y1008378D01*
X1172458D01*
X1173727Y1007109D01*
Y1004570D01*
X1172458Y1003300D01*
X1169919D01*
X1168649Y1004570D01*
X1309116Y1060704D02*
Y1068322D01*
X1312925D01*
X1314194Y1067052D01*
Y1064513D01*
X1312925Y1063243D01*
X1309116D01*
X1311655D02*
X1314194Y1060704D01*
X1316734Y1067052D02*
X1318003Y1068322D01*
X1320542D01*
X1321812Y1067052D01*
Y1065782D01*
X1320542Y1064513D01*
X1319273D01*
X1320542D01*
X1321812Y1063243D01*
Y1061974D01*
X1320542Y1060704D01*
X1318003D01*
X1316734Y1061974D01*
X1324351Y1067052D02*
X1325621Y1068322D01*
X1328160D01*
X1329429Y1067052D01*
Y1061974D01*
X1328160Y1060704D01*
X1325621D01*
X1324351Y1061974D01*
Y1067052D01*
X1153160Y1171194D02*
Y1178811D01*
X1156969D01*
X1158238Y1177542D01*
Y1175003D01*
X1156969Y1173733D01*
X1153160D01*
X1155699D02*
X1158238Y1171194D01*
X1165856D02*
X1160778D01*
X1165856Y1176272D01*
Y1177542D01*
X1164586Y1178811D01*
X1162047D01*
X1160778Y1177542D01*
X1168395Y1178811D02*
X1173473D01*
Y1177542D01*
X1168395Y1172464D01*
Y1171194D01*
X1153160Y1154430D02*
Y1162048D01*
X1156969D01*
X1158238Y1160778D01*
Y1158239D01*
X1156969Y1156969D01*
X1153160D01*
X1155699D02*
X1158238Y1154430D01*
X1165856D02*
X1160778D01*
X1165856Y1159508D01*
Y1160778D01*
X1164586Y1162048D01*
X1162047D01*
X1160778Y1160778D01*
X1173473Y1162048D02*
X1170934Y1160778D01*
X1168395Y1158239D01*
Y1155700D01*
X1169665Y1154430D01*
X1172204D01*
X1173473Y1155700D01*
Y1156969D01*
X1172204Y1158239D01*
X1168395D01*
X1275588Y1044448D02*
Y1052066D01*
X1279397D01*
X1280666Y1050796D01*
Y1048257D01*
X1279397Y1046987D01*
X1275588D01*
X1278127D02*
X1280666Y1044448D01*
X1288284D02*
X1283206D01*
X1288284Y1049526D01*
Y1050796D01*
X1287014Y1052066D01*
X1284475D01*
X1283206Y1050796D01*
X1295901Y1052066D02*
X1290823D01*
Y1048257D01*
X1293362Y1049526D01*
X1294632D01*
X1295901Y1048257D01*
Y1045718D01*
X1294632Y1044448D01*
X1292093D01*
X1290823Y1045718D01*
X1153668Y1053846D02*
Y1061463D01*
X1157477D01*
X1158746Y1060194D01*
Y1057655D01*
X1157477Y1056385D01*
X1153668D01*
X1156207D02*
X1158746Y1053846D01*
X1166364D02*
X1161285D01*
X1166364Y1058924D01*
Y1060194D01*
X1165094Y1061463D01*
X1162555D01*
X1161285Y1060194D01*
X1172712Y1053846D02*
Y1061463D01*
X1168903Y1057655D01*
X1173981D01*
X1153668Y1070610D02*
Y1078227D01*
X1157477D01*
X1158746Y1076958D01*
Y1074419D01*
X1157477Y1073149D01*
X1153668D01*
X1156207D02*
X1158746Y1070610D01*
X1166364D02*
X1161285D01*
X1166364Y1075688D01*
Y1076958D01*
X1165094Y1078227D01*
X1162555D01*
X1161285Y1076958D01*
X1168903D02*
X1170173Y1078227D01*
X1172712D01*
X1173981Y1076958D01*
Y1075688D01*
X1172712Y1074419D01*
X1171442D01*
X1172712D01*
X1173981Y1073149D01*
Y1071880D01*
X1172712Y1070610D01*
X1170173D01*
X1168903Y1071880D01*
X1153414Y1087120D02*
Y1094737D01*
X1157223D01*
X1158492Y1093468D01*
Y1090929D01*
X1157223Y1089659D01*
X1153414D01*
X1155953D02*
X1158492Y1087120D01*
X1166110D02*
X1161031D01*
X1166110Y1092198D01*
Y1093468D01*
X1164840Y1094737D01*
X1162301D01*
X1161031Y1093468D01*
X1168649D02*
X1169919Y1094737D01*
X1172458D01*
X1173727Y1093468D01*
Y1088390D01*
X1172458Y1087120D01*
X1169919D01*
X1168649Y1088390D01*
Y1093468D01*
X1153414Y1103884D02*
Y1111501D01*
X1157223D01*
X1158492Y1110232D01*
Y1107693D01*
X1157223Y1106423D01*
X1153414D01*
X1155953D02*
X1158492Y1103884D01*
X1161031D02*
X1163571D01*
X1162301D01*
Y1111501D01*
X1161031Y1110232D01*
X1167380Y1105154D02*
X1168649Y1103884D01*
X1171188D01*
X1172458Y1105154D01*
Y1110232D01*
X1171188Y1111501D01*
X1168649D01*
X1167380Y1110232D01*
Y1108962D01*
X1168649Y1107693D01*
X1172458D01*
X1153414Y1036828D02*
Y1044445D01*
X1157223D01*
X1158492Y1043176D01*
Y1040637D01*
X1157223Y1039367D01*
X1153414D01*
X1155953D02*
X1158492Y1036828D01*
X1161031D02*
X1163571D01*
X1162301D01*
Y1044445D01*
X1161031Y1043176D01*
X1167380D02*
X1168649Y1044445D01*
X1171188D01*
X1172458Y1043176D01*
Y1041906D01*
X1171188Y1040637D01*
X1172458Y1039367D01*
Y1038098D01*
X1171188Y1036828D01*
X1168649D01*
X1167380Y1038098D01*
Y1039367D01*
X1168649Y1040637D01*
X1167380Y1041906D01*
Y1043176D01*
X1168649Y1040637D02*
X1171188D01*
X1153414Y1020064D02*
Y1027682D01*
X1157223D01*
X1158492Y1026412D01*
Y1023873D01*
X1157223Y1022603D01*
X1153414D01*
X1155953D02*
X1158492Y1020064D01*
X1161031D02*
X1163571D01*
X1162301D01*
Y1027682D01*
X1161031Y1026412D01*
X1167380Y1027682D02*
X1172458D01*
Y1026412D01*
X1167380Y1021334D01*
Y1020064D01*
X1403604Y1063244D02*
Y1070862D01*
X1407413D01*
X1408682Y1069592D01*
Y1067053D01*
X1407413Y1065783D01*
X1403604D01*
X1406143D02*
X1408682Y1063244D01*
X1411221D02*
X1413761D01*
X1412491D01*
Y1070862D01*
X1411221Y1069592D01*
X1422648Y1070862D02*
X1420109Y1069592D01*
X1417569Y1067053D01*
Y1064514D01*
X1418839Y1063244D01*
X1421378D01*
X1422648Y1064514D01*
Y1065783D01*
X1421378Y1067053D01*
X1417569D01*
X1153414Y1137412D02*
Y1145030D01*
X1157223D01*
X1158492Y1143760D01*
Y1141221D01*
X1157223Y1139951D01*
X1153414D01*
X1155953D02*
X1158492Y1137412D01*
X1161031D02*
X1163571D01*
X1162301D01*
Y1145030D01*
X1161031Y1143760D01*
X1167380Y1137412D02*
X1169919D01*
X1168649D01*
Y1145030D01*
X1167380Y1143760D01*
X1153414Y1120648D02*
Y1128266D01*
X1157223D01*
X1158492Y1126996D01*
Y1124457D01*
X1157223Y1123187D01*
X1153414D01*
X1155953D02*
X1158492Y1120648D01*
X1161031D02*
X1163571D01*
X1162301D01*
Y1128266D01*
X1161031Y1126996D01*
X1167380D02*
X1168649Y1128266D01*
X1171188D01*
X1172458Y1126996D01*
Y1121918D01*
X1171188Y1120648D01*
X1168649D01*
X1167380Y1121918D01*
Y1126996D01*
X1402334Y1042924D02*
Y1050542D01*
X1406143D01*
X1407412Y1049272D01*
Y1046733D01*
X1406143Y1045463D01*
X1402334D01*
X1404873D02*
X1407412Y1042924D01*
X1409951Y1044194D02*
X1411221Y1042924D01*
X1413760D01*
X1415030Y1044194D01*
Y1049272D01*
X1413760Y1050542D01*
X1411221D01*
X1409951Y1049272D01*
Y1048002D01*
X1411221Y1046733D01*
X1415030D01*
X1490472Y1206500D02*
Y1214118D01*
X1494281D01*
X1495550Y1212848D01*
Y1210309D01*
X1494281Y1209039D01*
X1490472D01*
X1493011D02*
X1495550Y1206500D01*
X1503168Y1214118D02*
X1500629Y1212848D01*
X1498089Y1210309D01*
Y1207770D01*
X1499359Y1206500D01*
X1501898D01*
X1503168Y1207770D01*
Y1209039D01*
X1501898Y1210309D01*
X1498089D01*
X1490472Y1194308D02*
Y1201926D01*
X1494281D01*
X1495550Y1200656D01*
Y1198117D01*
X1494281Y1196847D01*
X1490472D01*
X1493011D02*
X1495550Y1194308D01*
X1501898D02*
Y1201926D01*
X1498089Y1198117D01*
X1503168D01*
X1642870Y970531D02*
X1640331D01*
X1641601D01*
Y964184D01*
X1640331Y962914D01*
X1639062D01*
X1637792Y964184D01*
X1645410Y962914D02*
X1647949D01*
X1646679D01*
Y970531D01*
X1645410Y969262D01*
X1651758D02*
X1653027Y970531D01*
X1655566D01*
X1656836Y969262D01*
Y964184D01*
X1655566Y962914D01*
X1653027D01*
X1651758Y964184D01*
Y969262D01*
X1642108Y871980D02*
X1639569D01*
X1640839D01*
Y865632D01*
X1639569Y864362D01*
X1638300D01*
X1637030Y865632D01*
X1644648D02*
X1645917Y864362D01*
X1648456D01*
X1649726Y865632D01*
Y870710D01*
X1648456Y871980D01*
X1645917D01*
X1644648Y870710D01*
Y869440D01*
X1645917Y868171D01*
X1649726D01*
X1042924Y927097D02*
Y919480D01*
X1046733D01*
X1048002Y920750D01*
Y925828D01*
X1046733Y927097D01*
X1042924D01*
X1054350Y919480D02*
Y927097D01*
X1050542Y923289D01*
X1055620D01*
X1042924Y904999D02*
Y897382D01*
X1046733D01*
X1048002Y898652D01*
Y903730D01*
X1046733Y904999D01*
X1042924D01*
X1050542Y903730D02*
X1051811Y904999D01*
X1054350D01*
X1055620Y903730D01*
Y902460D01*
X1054350Y901191D01*
X1053081D01*
X1054350D01*
X1055620Y899921D01*
Y898652D01*
X1054350Y897382D01*
X1051811D01*
X1050542Y898652D01*
X1558288Y1467356D02*
X1557019Y1468625D01*
X1554480D01*
X1553210Y1467356D01*
Y1462278D01*
X1554480Y1461008D01*
X1557019D01*
X1558288Y1462278D01*
X1560827Y1468625D02*
X1565906D01*
Y1467356D01*
X1560827Y1462278D01*
Y1461008D01*
X1568445Y1468625D02*
X1573523D01*
Y1467356D01*
X1568445Y1462278D01*
Y1461008D01*
X1522220Y1466848D02*
X1520951Y1468118D01*
X1518412D01*
X1517142Y1466848D01*
Y1461770D01*
X1518412Y1460500D01*
X1520951D01*
X1522220Y1461770D01*
X1524760Y1468118D02*
X1529838D01*
Y1466848D01*
X1524760Y1461770D01*
Y1460500D01*
X1537455Y1468118D02*
X1534916Y1466848D01*
X1532377Y1464309D01*
Y1461770D01*
X1533647Y1460500D01*
X1536186D01*
X1537455Y1461770D01*
Y1463039D01*
X1536186Y1464309D01*
X1532377D01*
X1538476Y1388616D02*
X1537207Y1389886D01*
X1534668D01*
X1533398Y1388616D01*
Y1383538D01*
X1534668Y1382268D01*
X1537207D01*
X1538476Y1383538D01*
X1541015Y1389886D02*
X1546094D01*
Y1388616D01*
X1541015Y1383538D01*
Y1382268D01*
X1553711Y1389886D02*
X1548633D01*
Y1386077D01*
X1551172Y1387346D01*
X1552442D01*
X1553711Y1386077D01*
Y1383538D01*
X1552442Y1382268D01*
X1549903D01*
X1548633Y1383538D01*
X1523490Y1388108D02*
X1522221Y1389377D01*
X1519682D01*
X1518412Y1388108D01*
Y1383030D01*
X1519682Y1381760D01*
X1522221D01*
X1523490Y1383030D01*
X1526030Y1389377D02*
X1531108D01*
Y1388108D01*
X1526030Y1383030D01*
Y1381760D01*
X1537456D02*
Y1389377D01*
X1533647Y1385569D01*
X1538725D01*
X1178558Y912366D02*
X1177289Y913635D01*
X1174750D01*
X1173480Y912366D01*
Y907288D01*
X1174750Y906018D01*
X1177289D01*
X1178558Y907288D01*
X1181097Y913635D02*
X1186176D01*
Y912366D01*
X1181097Y907288D01*
Y906018D01*
X1188715Y912366D02*
X1189985Y913635D01*
X1192524D01*
X1193793Y912366D01*
Y911096D01*
X1192524Y909827D01*
X1191254D01*
X1192524D01*
X1193793Y908557D01*
Y907288D01*
X1192524Y906018D01*
X1189985D01*
X1188715Y907288D01*
X1371344Y909318D02*
X1370075Y910587D01*
X1367536D01*
X1366266Y909318D01*
Y904240D01*
X1367536Y902970D01*
X1370075D01*
X1371344Y904240D01*
X1373884Y909318D02*
X1375153Y910587D01*
X1377692D01*
X1378962Y909318D01*
Y908048D01*
X1377692Y906779D01*
X1376423D01*
X1377692D01*
X1378962Y905509D01*
Y904240D01*
X1377692Y902970D01*
X1375153D01*
X1373884Y904240D01*
X1385310Y902970D02*
Y910587D01*
X1381501Y906779D01*
X1386579D01*
X1335784Y969516D02*
X1334515Y970786D01*
X1331976D01*
X1330706Y969516D01*
Y964438D01*
X1331976Y963168D01*
X1334515D01*
X1335784Y964438D01*
X1338324Y969516D02*
X1339593Y970786D01*
X1342132D01*
X1343402Y969516D01*
Y968246D01*
X1342132Y966977D01*
X1340863D01*
X1342132D01*
X1343402Y965707D01*
Y964438D01*
X1342132Y963168D01*
X1339593D01*
X1338324Y964438D01*
X1345941Y969516D02*
X1347211Y970786D01*
X1349750D01*
X1351019Y969516D01*
Y968246D01*
X1349750Y966977D01*
X1348480D01*
X1349750D01*
X1351019Y965707D01*
Y964438D01*
X1349750Y963168D01*
X1347211D01*
X1345941Y964438D01*
X1337308Y951990D02*
X1336039Y953260D01*
X1333500D01*
X1332230Y951990D01*
Y946912D01*
X1333500Y945642D01*
X1336039D01*
X1337308Y946912D01*
X1339848Y951990D02*
X1341117Y953260D01*
X1343656D01*
X1344926Y951990D01*
Y950720D01*
X1343656Y949451D01*
X1342387D01*
X1343656D01*
X1344926Y948181D01*
Y946912D01*
X1343656Y945642D01*
X1341117D01*
X1339848Y946912D01*
X1352543Y945642D02*
X1347465D01*
X1352543Y950720D01*
Y951990D01*
X1351274Y953260D01*
X1348735D01*
X1347465Y951990D01*
X1282444Y1168398D02*
X1281175Y1169668D01*
X1278636D01*
X1277366Y1168398D01*
Y1163320D01*
X1278636Y1162050D01*
X1281175D01*
X1282444Y1163320D01*
X1290062Y1162050D02*
X1284984D01*
X1290062Y1167128D01*
Y1168398D01*
X1288792Y1169668D01*
X1286253D01*
X1284984Y1168398D01*
X1292601D02*
X1293871Y1169668D01*
X1296410D01*
X1297679Y1168398D01*
Y1167128D01*
X1296410Y1165859D01*
X1297679Y1164589D01*
Y1163320D01*
X1296410Y1162050D01*
X1293871D01*
X1292601Y1163320D01*
Y1164589D01*
X1293871Y1165859D01*
X1292601Y1167128D01*
Y1168398D01*
X1293871Y1165859D02*
X1296410D01*
X1367026Y1094484D02*
X1365757Y1095753D01*
X1363218D01*
X1361948Y1094484D01*
Y1089406D01*
X1363218Y1088136D01*
X1365757D01*
X1367026Y1089406D01*
X1374644Y1088136D02*
X1369565D01*
X1374644Y1093214D01*
Y1094484D01*
X1373374Y1095753D01*
X1370835D01*
X1369565Y1094484D01*
X1377183Y1095753D02*
X1382261D01*
Y1094484D01*
X1377183Y1089406D01*
Y1088136D01*
X1292350Y1134616D02*
X1291081Y1135885D01*
X1288542D01*
X1287272Y1134616D01*
Y1129538D01*
X1288542Y1128268D01*
X1291081D01*
X1292350Y1129538D01*
X1299968Y1128268D02*
X1294890D01*
X1299968Y1133346D01*
Y1134616D01*
X1298698Y1135885D01*
X1296159D01*
X1294890Y1134616D01*
X1307585Y1135885D02*
X1305046Y1134616D01*
X1302507Y1132077D01*
Y1129538D01*
X1303777Y1128268D01*
X1306316D01*
X1307585Y1129538D01*
Y1130807D01*
X1306316Y1132077D01*
X1302507D01*
X1333752Y1055876D02*
X1332483Y1057145D01*
X1329944D01*
X1328674Y1055876D01*
Y1050798D01*
X1329944Y1049528D01*
X1332483D01*
X1333752Y1050798D01*
X1341370Y1049528D02*
X1336292D01*
X1341370Y1054606D01*
Y1055876D01*
X1340100Y1057145D01*
X1337561D01*
X1336292Y1055876D01*
X1348987Y1057145D02*
X1343909D01*
Y1053337D01*
X1346448Y1054606D01*
X1347718D01*
X1348987Y1053337D01*
Y1050798D01*
X1347718Y1049528D01*
X1345179D01*
X1343909Y1050798D01*
X1203196Y1160778D02*
X1201927Y1162048D01*
X1199388D01*
X1198118Y1160778D01*
Y1155700D01*
X1199388Y1154430D01*
X1201927D01*
X1203196Y1155700D01*
X1210814Y1154430D02*
X1205735D01*
X1210814Y1159508D01*
Y1160778D01*
X1209544Y1162048D01*
X1207005D01*
X1205735Y1160778D01*
X1213353D02*
X1214623Y1162048D01*
X1217162D01*
X1218431Y1160778D01*
Y1155700D01*
X1217162Y1154430D01*
X1214623D01*
X1213353Y1155700D01*
Y1160778D01*
X1203196Y1026412D02*
X1201927Y1027682D01*
X1199388D01*
X1198118Y1026412D01*
Y1021334D01*
X1199388Y1020064D01*
X1201927D01*
X1203196Y1021334D01*
X1205735Y1020064D02*
X1208275D01*
X1207005D01*
Y1027682D01*
X1205735Y1026412D01*
X1217162Y1027682D02*
X1214623Y1026412D01*
X1212084Y1023873D01*
Y1021334D01*
X1213353Y1020064D01*
X1215892D01*
X1217162Y1021334D01*
Y1022603D01*
X1215892Y1023873D01*
X1212084D01*
X1203196Y1127250D02*
X1201927Y1128520D01*
X1199388D01*
X1198118Y1127250D01*
Y1122172D01*
X1199388Y1120902D01*
X1201927D01*
X1203196Y1122172D01*
X1205735Y1120902D02*
X1208275D01*
X1207005D01*
Y1128520D01*
X1205735Y1127250D01*
X1212084D02*
X1213353Y1128520D01*
X1215892D01*
X1217162Y1127250D01*
Y1125980D01*
X1215892Y1124711D01*
X1214623D01*
X1215892D01*
X1217162Y1123441D01*
Y1122172D01*
X1215892Y1120902D01*
X1213353D01*
X1212084Y1122172D01*
X1203196Y1177542D02*
X1201927Y1178811D01*
X1199388D01*
X1198118Y1177542D01*
Y1172464D01*
X1199388Y1171194D01*
X1201927D01*
X1203196Y1172464D01*
X1205735Y1177542D02*
X1207005Y1178811D01*
X1209544D01*
X1210814Y1177542D01*
Y1176272D01*
X1209544Y1175003D01*
X1210814Y1173733D01*
Y1172464D01*
X1209544Y1171194D01*
X1207005D01*
X1205735Y1172464D01*
Y1173733D01*
X1207005Y1175003D01*
X1205735Y1176272D01*
Y1177542D01*
X1207005Y1175003D02*
X1209544D01*
X1203196Y1043176D02*
X1201927Y1044445D01*
X1199388D01*
X1198118Y1043176D01*
Y1038098D01*
X1199388Y1036828D01*
X1201927D01*
X1203196Y1038098D01*
X1209544Y1036828D02*
Y1044445D01*
X1205735Y1040637D01*
X1210814D01*
X1203196Y1143760D02*
X1201927Y1145030D01*
X1199388D01*
X1198118Y1143760D01*
Y1138682D01*
X1199388Y1137412D01*
X1201927D01*
X1203196Y1138682D01*
X1205735Y1137412D02*
X1208275D01*
X1207005D01*
Y1145030D01*
X1205735Y1143760D01*
X1107186Y802637D02*
Y796290D01*
X1108456Y795020D01*
X1110995D01*
X1112264Y796290D01*
Y802637D01*
X1114803Y801368D02*
X1116073Y802637D01*
X1118612D01*
X1119882Y801368D01*
Y800098D01*
X1118612Y798829D01*
X1119882Y797559D01*
Y796290D01*
X1118612Y795020D01*
X1116073D01*
X1114803Y796290D01*
Y797559D01*
X1116073Y798829D01*
X1114803Y800098D01*
Y801368D01*
X1116073Y798829D02*
X1118612D01*
X1315974Y1287778D02*
Y1281430D01*
X1317244Y1280160D01*
X1319783D01*
X1321052Y1281430D01*
Y1287778D01*
X1323591Y1280160D02*
X1326131D01*
X1324861D01*
Y1287778D01*
X1323591Y1286508D01*
X1766316Y1530347D02*
X1771394D01*
X1768855D01*
Y1522730D01*
X1773934D02*
Y1530347D01*
X1777742D01*
X1779012Y1529078D01*
Y1526539D01*
X1777742Y1525269D01*
X1773934D01*
X1785360Y1522730D02*
Y1530347D01*
X1781551Y1526539D01*
X1786629D01*
X1153414Y700278D02*
Y707896D01*
X1157223D01*
X1158492Y706626D01*
Y704087D01*
X1157223Y702817D01*
X1153414D01*
X1155953D02*
X1158492Y700278D01*
X1166110Y707896D02*
X1161031D01*
Y704087D01*
X1163571Y705356D01*
X1164840D01*
X1166110Y704087D01*
Y701548D01*
X1164840Y700278D01*
X1162301D01*
X1161031Y701548D01*
X1172458Y700278D02*
Y707896D01*
X1168649Y704087D01*
X1173727D01*
X1194054Y834644D02*
Y842262D01*
X1197863D01*
X1199132Y840992D01*
Y838453D01*
X1197863Y837183D01*
X1194054D01*
X1196593D02*
X1199132Y834644D01*
X1206750Y842262D02*
X1201672D01*
Y838453D01*
X1204211Y839722D01*
X1205480D01*
X1206750Y838453D01*
Y835914D01*
X1205480Y834644D01*
X1202941D01*
X1201672Y835914D01*
X1209289Y840992D02*
X1210559Y842262D01*
X1213098D01*
X1214367Y840992D01*
Y839722D01*
X1213098Y838453D01*
X1211828D01*
X1213098D01*
X1214367Y837183D01*
Y835914D01*
X1213098Y834644D01*
X1210559D01*
X1209289Y835914D01*
X1204976Y831596D02*
Y839213D01*
X1208785D01*
X1210054Y837944D01*
Y835405D01*
X1208785Y834135D01*
X1204976D01*
X1207515D02*
X1210054Y831596D01*
X1217672Y839213D02*
X1212594D01*
Y835405D01*
X1215133Y836674D01*
X1216402D01*
X1217672Y835405D01*
Y832866D01*
X1216402Y831596D01*
X1213863D01*
X1212594Y832866D01*
X1220211Y837944D02*
X1221481Y839213D01*
X1224020D01*
X1225289Y837944D01*
Y832866D01*
X1224020Y831596D01*
X1221481D01*
X1220211Y832866D01*
Y837944D01*
X1149353Y709511D02*
Y717129D01*
X1153162D01*
X1154431Y715859D01*
Y713320D01*
X1153162Y712050D01*
X1149353D01*
X1151892D02*
X1154431Y709511D01*
X1160779D02*
Y717129D01*
X1156971Y713320D01*
X1162049D01*
X1164588Y710781D02*
X1165858Y709511D01*
X1168397D01*
X1169667Y710781D01*
Y715859D01*
X1168397Y717129D01*
X1165858D01*
X1164588Y715859D01*
Y714589D01*
X1165858Y713320D01*
X1169667D01*
X1197606Y690459D02*
Y682841D01*
X1193798D01*
X1192528Y684111D01*
Y686650D01*
X1193798Y687919D01*
X1197606D01*
X1195067D02*
X1192528Y690459D01*
X1186180D02*
Y682841D01*
X1189989Y686650D01*
X1184911D01*
X1182371Y684111D02*
X1181102Y682841D01*
X1178563D01*
X1177293Y684111D01*
Y685380D01*
X1178563Y686650D01*
X1177293Y687919D01*
Y689189D01*
X1178563Y690459D01*
X1181102D01*
X1182371Y689189D01*
Y687919D01*
X1181102Y686650D01*
X1182371Y685380D01*
Y684111D01*
X1181102Y686650D02*
X1178563D01*
X1222523Y694815D02*
Y687197D01*
X1218715D01*
X1217445Y688467D01*
Y691006D01*
X1218715Y692275D01*
X1222523D01*
X1219984D02*
X1217445Y694815D01*
X1211097D02*
Y687197D01*
X1214906Y691006D01*
X1209828D01*
X1207288Y687197D02*
X1202210D01*
Y688467D01*
X1207288Y693545D01*
Y694815D01*
X1087846Y741048D02*
X1080228D01*
Y744857D01*
X1081498Y746127D01*
X1084037D01*
X1085306Y744857D01*
Y741048D01*
Y743587D02*
X1087846Y746127D01*
Y752475D02*
X1080228D01*
X1084037Y748666D01*
Y753744D01*
X1080228Y761362D02*
X1081498Y758823D01*
X1084037Y756283D01*
X1086576D01*
X1087846Y757553D01*
Y760092D01*
X1086576Y761362D01*
X1085306D01*
X1084037Y760092D01*
Y756283D01*
X1105408Y825500D02*
Y833118D01*
X1109217D01*
X1110486Y831848D01*
Y829309D01*
X1109217Y828039D01*
X1105408D01*
X1107947D02*
X1110486Y825500D01*
X1116834D02*
Y833118D01*
X1113026Y829309D01*
X1118104D01*
X1125721Y833118D02*
X1120643D01*
Y829309D01*
X1123182Y830578D01*
X1124452D01*
X1125721Y829309D01*
Y826770D01*
X1124452Y825500D01*
X1121913D01*
X1120643Y826770D01*
X1175128Y719870D02*
Y712252D01*
X1171319D01*
X1170049Y713522D01*
Y716061D01*
X1171319Y717331D01*
X1175128D01*
X1172588D02*
X1170049Y719870D01*
X1163701D02*
Y712252D01*
X1167510Y716061D01*
X1162432D01*
X1156084Y719870D02*
Y712252D01*
X1159893Y716061D01*
X1154814D01*
X1215388Y660738D02*
X1207771D01*
Y655659D01*
X1215388Y648042D02*
Y653120D01*
X1207771D01*
Y648042D01*
X1211580Y653120D02*
Y650581D01*
X1215388Y645503D02*
X1207771D01*
Y641694D01*
X1209041Y640424D01*
X1214119D01*
X1215388Y641694D01*
Y645503D01*
X1207771Y637885D02*
Y635346D01*
Y636616D01*
X1215388D01*
X1214119Y637885D01*
X1287526Y868678D02*
Y861060D01*
X1292604D01*
X1300222Y868678D02*
X1295143D01*
Y864869D01*
X1297683Y866138D01*
X1298952D01*
X1300222Y864869D01*
Y862330D01*
X1298952Y861060D01*
X1296413D01*
X1295143Y862330D01*
X1229106Y751837D02*
Y744220D01*
X1234184D01*
X1240532D02*
Y751837D01*
X1236723Y748029D01*
X1241802D01*
X1248230Y739396D02*
Y747013D01*
X1243151D01*
X1240612Y740665D02*
X1239342Y739396D01*
X1236803D01*
X1235534Y740665D01*
Y741935D01*
X1236803Y743204D01*
X1238073D01*
X1236803D01*
X1235534Y744474D01*
Y745743D01*
X1236803Y747013D01*
X1239342D01*
X1240612Y745743D01*
X1191227Y724534D02*
Y716916D01*
X1196305D01*
X1203923D02*
X1198845D01*
X1203923Y721995D01*
Y723264D01*
X1202653Y724534D01*
X1200114D01*
X1198845Y723264D01*
X1146085Y769238D02*
Y761620D01*
X1151163D01*
X1153702D02*
X1156241D01*
X1154972D01*
Y769238D01*
X1153702Y767968D01*
X1011174Y801621D02*
Y794004D01*
X1014983D01*
X1016252Y795274D01*
Y800352D01*
X1014983Y801621D01*
X1011174D01*
X1018792Y794004D02*
X1021331D01*
X1020061D01*
Y801621D01*
X1018792Y800352D01*
X1312804Y902803D02*
X1311534Y904073D01*
X1308995D01*
X1307725Y902803D01*
Y897725D01*
X1308995Y896455D01*
X1311534D01*
X1312804Y897725D01*
X1315343Y904073D02*
X1320421D01*
Y902803D01*
X1315343Y897725D01*
Y896455D01*
X1328039D02*
X1322960D01*
X1328039Y901534D01*
Y902803D01*
X1326769Y904073D01*
X1324230D01*
X1322960Y902803D01*
X1267204Y837944D02*
X1265935Y839213D01*
X1263396D01*
X1262126Y837944D01*
Y832866D01*
X1263396Y831596D01*
X1265935D01*
X1267204Y832866D01*
X1269743Y839213D02*
X1274822D01*
Y837944D01*
X1269743Y832866D01*
Y831596D01*
X1277361D02*
X1279900D01*
X1278631D01*
Y839213D01*
X1277361Y837944D01*
X1329688Y1303526D02*
X1328419Y1304796D01*
X1325880D01*
X1324610Y1303526D01*
Y1298448D01*
X1325880Y1297178D01*
X1328419D01*
X1329688Y1298448D01*
X1332227Y1304796D02*
X1337306D01*
Y1303526D01*
X1332227Y1298448D01*
Y1297178D01*
X1339845Y1303526D02*
X1341115Y1304796D01*
X1343654D01*
X1344923Y1303526D01*
Y1298448D01*
X1343654Y1297178D01*
X1341115D01*
X1339845Y1298448D01*
Y1303526D01*
X1311146Y1303272D02*
X1309877Y1304541D01*
X1307338D01*
X1306068Y1303272D01*
Y1298194D01*
X1307338Y1296924D01*
X1309877D01*
X1311146Y1298194D01*
X1318764Y1304541D02*
X1316225Y1303272D01*
X1313685Y1300733D01*
Y1298194D01*
X1314955Y1296924D01*
X1317494D01*
X1318764Y1298194D01*
Y1299463D01*
X1317494Y1300733D01*
X1313685D01*
X1326381Y1304541D02*
X1323842Y1303272D01*
X1321303Y1300733D01*
Y1298194D01*
X1322573Y1296924D01*
X1325112D01*
X1326381Y1298194D01*
Y1299463D01*
X1325112Y1300733D01*
X1321303D01*
X1320798Y1303526D02*
X1319529Y1304796D01*
X1316990D01*
X1315720Y1303526D01*
Y1298448D01*
X1316990Y1297178D01*
X1319529D01*
X1320798Y1298448D01*
X1328416Y1304796D02*
X1325877Y1303526D01*
X1323338Y1300987D01*
Y1298448D01*
X1324607Y1297178D01*
X1327146D01*
X1328416Y1298448D01*
Y1299717D01*
X1327146Y1300987D01*
X1323338D01*
X1336033Y1304796D02*
X1330955D01*
Y1300987D01*
X1333494Y1302256D01*
X1334764D01*
X1336033Y1300987D01*
Y1298448D01*
X1334764Y1297178D01*
X1332225D01*
X1330955Y1298448D01*
X1402332Y1107184D02*
X1401063Y1108454D01*
X1398524D01*
X1397254Y1107184D01*
Y1102106D01*
X1398524Y1100836D01*
X1401063D01*
X1402332Y1102106D01*
X1409950Y1108454D02*
X1407411Y1107184D01*
X1404872Y1104645D01*
Y1102106D01*
X1406141Y1100836D01*
X1408680D01*
X1409950Y1102106D01*
Y1103375D01*
X1408680Y1104645D01*
X1404872D01*
X1417567Y1100836D02*
X1412489D01*
X1417567Y1105914D01*
Y1107184D01*
X1416298Y1108454D01*
X1413759D01*
X1412489Y1107184D01*
X1393442Y1107438D02*
X1392173Y1108708D01*
X1389634D01*
X1388364Y1107438D01*
Y1102360D01*
X1389634Y1101090D01*
X1392173D01*
X1393442Y1102360D01*
X1401060Y1108708D02*
X1398521Y1107438D01*
X1395981Y1104899D01*
Y1102360D01*
X1397251Y1101090D01*
X1399790D01*
X1401060Y1102360D01*
Y1103629D01*
X1399790Y1104899D01*
X1395981D01*
X1403599Y1101090D02*
X1406138D01*
X1404869D01*
Y1108708D01*
X1403599Y1107438D01*
X1384552D02*
X1383283Y1108708D01*
X1380744D01*
X1379474Y1107438D01*
Y1102360D01*
X1380744Y1101090D01*
X1383283D01*
X1384552Y1102360D01*
X1392170Y1108708D02*
X1387092D01*
Y1104899D01*
X1389631Y1106168D01*
X1390900D01*
X1392170Y1104899D01*
Y1102360D01*
X1390900Y1101090D01*
X1388361D01*
X1387092Y1102360D01*
X1394709Y1107438D02*
X1395979Y1108708D01*
X1398518D01*
X1399787Y1107438D01*
Y1106168D01*
X1398518Y1104899D01*
X1399787Y1103629D01*
Y1102360D01*
X1398518Y1101090D01*
X1395979D01*
X1394709Y1102360D01*
Y1103629D01*
X1395979Y1104899D01*
X1394709Y1106168D01*
Y1107438D01*
X1395979Y1104899D02*
X1398518D01*
X1264664Y720596D02*
X1263395Y721865D01*
X1260856D01*
X1259586Y720596D01*
Y715518D01*
X1260856Y714248D01*
X1263395D01*
X1264664Y715518D01*
X1272282Y721865D02*
X1267204D01*
Y718057D01*
X1269743Y719326D01*
X1271012D01*
X1272282Y718057D01*
Y715518D01*
X1271012Y714248D01*
X1268473D01*
X1267204Y715518D01*
X1278630Y714248D02*
Y721865D01*
X1274821Y718057D01*
X1279899D01*
X1233930Y739392D02*
X1232661Y740661D01*
X1230122D01*
X1228852Y739392D01*
Y734314D01*
X1230122Y733044D01*
X1232661D01*
X1233930Y734314D01*
X1241548Y740661D02*
X1236469D01*
Y736853D01*
X1239009Y738122D01*
X1240278D01*
X1241548Y736853D01*
Y734314D01*
X1240278Y733044D01*
X1237739D01*
X1236469Y734314D01*
X1244087Y739392D02*
X1245357Y740661D01*
X1247896D01*
X1249165Y739392D01*
Y738122D01*
X1247896Y736853D01*
X1246626D01*
X1247896D01*
X1249165Y735583D01*
Y734314D01*
X1247896Y733044D01*
X1245357D01*
X1244087Y734314D01*
X1120392Y718310D02*
X1119123Y719579D01*
X1116584D01*
X1115314Y718310D01*
Y713232D01*
X1116584Y711962D01*
X1119123D01*
X1120392Y713232D01*
X1126740Y711962D02*
Y719579D01*
X1122932Y715771D01*
X1128010D01*
X1130549Y718310D02*
X1131819Y719579D01*
X1134358D01*
X1135627Y718310D01*
Y717040D01*
X1134358Y715771D01*
X1133088D01*
X1134358D01*
X1135627Y714501D01*
Y713232D01*
X1134358Y711962D01*
X1131819D01*
X1130549Y713232D01*
X1236978Y767078D02*
X1235709Y768347D01*
X1233170D01*
X1231900Y767078D01*
Y762000D01*
X1233170Y760730D01*
X1235709D01*
X1236978Y762000D01*
X1243326Y760730D02*
Y768347D01*
X1239518Y764539D01*
X1244596D01*
X1252213Y760730D02*
X1247135D01*
X1252213Y765808D01*
Y767078D01*
X1250944Y768347D01*
X1248405D01*
X1247135Y767078D01*
X1135886Y759204D02*
X1134617Y760473D01*
X1132078D01*
X1130808Y759204D01*
Y754126D01*
X1132078Y752856D01*
X1134617D01*
X1135886Y754126D01*
X1142234Y752856D02*
Y760473D01*
X1138426Y756665D01*
X1143504D01*
X1146043Y752856D02*
X1148582D01*
X1147313D01*
Y760473D01*
X1146043Y759204D01*
X1133854Y831848D02*
X1132585Y833118D01*
X1130046D01*
X1128776Y831848D01*
Y826770D01*
X1130046Y825500D01*
X1132585D01*
X1133854Y826770D01*
X1140202Y825500D02*
Y833118D01*
X1136394Y829309D01*
X1141472D01*
X1144011Y831848D02*
X1145281Y833118D01*
X1147820D01*
X1149089Y831848D01*
Y826770D01*
X1147820Y825500D01*
X1145281D01*
X1144011Y826770D01*
Y831848D01*
X1068291Y784996D02*
X1067021Y786266D01*
X1064482D01*
X1063212Y784996D01*
Y779918D01*
X1064482Y778648D01*
X1067021D01*
X1068291Y779918D01*
X1070830Y784996D02*
X1072099Y786266D01*
X1074639D01*
X1075908Y784996D01*
Y783727D01*
X1074639Y782457D01*
X1073369D01*
X1074639D01*
X1075908Y781187D01*
Y779918D01*
X1074639Y778648D01*
X1072099D01*
X1070830Y779918D01*
X1078447D02*
X1079717Y778648D01*
X1082256D01*
X1083526Y779918D01*
Y784996D01*
X1082256Y786266D01*
X1079717D01*
X1078447Y784996D01*
Y783727D01*
X1079717Y782457D01*
X1083526D01*
X1076672Y761875D02*
X1075402Y760605D01*
Y758066D01*
X1076672Y756796D01*
X1081750D01*
X1083020Y758066D01*
Y760605D01*
X1081750Y761875D01*
X1076672Y764414D02*
X1075402Y765683D01*
Y768223D01*
X1076672Y769492D01*
X1077941D01*
X1079211Y768223D01*
Y766953D01*
Y768223D01*
X1080480Y769492D01*
X1081750D01*
X1083020Y768223D01*
Y765683D01*
X1081750Y764414D01*
X1076672Y772031D02*
X1075402Y773301D01*
Y775840D01*
X1076672Y777110D01*
X1077941D01*
X1079211Y775840D01*
X1080480Y777110D01*
X1081750D01*
X1083020Y775840D01*
Y773301D01*
X1081750Y772031D01*
X1080480D01*
X1079211Y773301D01*
X1077941Y772031D01*
X1076672D01*
X1079211Y773301D02*
Y775840D01*
X1246122Y840484D02*
X1244853Y841753D01*
X1242314D01*
X1241044Y840484D01*
Y835406D01*
X1242314Y834136D01*
X1244853D01*
X1246122Y835406D01*
X1248661Y840484D02*
X1249931Y841753D01*
X1252470D01*
X1253740Y840484D01*
Y839214D01*
X1252470Y837945D01*
X1251201D01*
X1252470D01*
X1253740Y836675D01*
Y835406D01*
X1252470Y834136D01*
X1249931D01*
X1248661Y835406D01*
X1256279Y841753D02*
X1261357D01*
Y840484D01*
X1256279Y835406D01*
Y834136D01*
X1229612Y837944D02*
X1228343Y839213D01*
X1225804D01*
X1224534Y837944D01*
Y832866D01*
X1225804Y831596D01*
X1228343D01*
X1229612Y832866D01*
X1232151Y837944D02*
X1233421Y839213D01*
X1235960D01*
X1237230Y837944D01*
Y836674D01*
X1235960Y835405D01*
X1234691D01*
X1235960D01*
X1237230Y834135D01*
Y832866D01*
X1235960Y831596D01*
X1233421D01*
X1232151Y832866D01*
X1244847Y839213D02*
X1242308Y837944D01*
X1239769Y835405D01*
Y832866D01*
X1241039Y831596D01*
X1243578D01*
X1244847Y832866D01*
Y834135D01*
X1243578Y835405D01*
X1239769D01*
X1191005Y708238D02*
X1192274Y709508D01*
Y712047D01*
X1191005Y713317D01*
X1185927D01*
X1184657Y712047D01*
Y709508D01*
X1185927Y708238D01*
X1191005Y705699D02*
X1192274Y704429D01*
Y701890D01*
X1191005Y700621D01*
X1189735D01*
X1188466Y701890D01*
Y703160D01*
Y701890D01*
X1187196Y700621D01*
X1185927D01*
X1184657Y701890D01*
Y704429D01*
X1185927Y705699D01*
X1192274Y693003D02*
Y698082D01*
X1188466D01*
X1189735Y695542D01*
Y694273D01*
X1188466Y693003D01*
X1185927D01*
X1184657Y694273D01*
Y696812D01*
X1185927Y698082D01*
D19*
X1054067Y770509D02*
D03*
D20*
X1467112Y1348881D02*
D03*
D21*
X1079383Y900824D02*
D03*
X1079469Y878726D02*
D03*
D22*
X1464117Y1006793D02*
D03*
X1270701Y975302D02*
D03*
M02*
