G04*
G04 #@! TF.GenerationSoftware,Altium Limited,Altium Designer,26.5.0 (11)*
G04*
G04 Layer_Physical_Order=1*
G04 Layer_Color=255*
G04 Board_Origin=0|0*
%FSLAX44Y44*%
%MOMM*%
G71*
G04*
G04 #@! TF.SameCoordinates,F31A6C54-E8F1-4797-920C-164DB3DC2255*
G04*
G04*
G04 #@! TF.FilePolarity,Positive*
G04*
G01*
G75*
%ADD18C,0.2540*%
%ADD23R,1.0000X0.9500*%
%ADD24R,1.4750X0.3000*%
%ADD25R,0.9500X0.7000*%
%ADD26R,0.6000X0.8000*%
%ADD27R,0.6000X0.5500*%
%ADD28R,1.2300X2.2200*%
%ADD29R,0.9500X1.0000*%
%ADD30R,0.6500X0.6500*%
G04:AMPARAMS|DCode=31|XSize=1.3mm|YSize=0.76mm|CornerRadius=0.095mm|HoleSize=0mm|Usage=FLASHONLY|Rotation=180.000|XOffset=0mm|YOffset=0mm|HoleType=Round|Shape=RoundedRectangle|*
%AMROUNDEDRECTD31*
21,1,1.3000,0.5700,0,0,180.0*
21,1,1.1100,0.7600,0,0,180.0*
1,1,0.1900,-0.5550,0.2850*
1,1,0.1900,0.5550,0.2850*
1,1,0.1900,0.5550,-0.2850*
1,1,0.1900,-0.5550,-0.2850*
%
%ADD31ROUNDEDRECTD31*%
%ADD32R,0.5400X0.5800*%
%ADD33R,0.8000X1.0000*%
%ADD34O,0.6000X0.2400*%
%ADD35R,0.5800X0.5400*%
%ADD36R,0.9000X1.4000*%
G04:AMPARAMS|DCode=37|XSize=0.55mm|YSize=0.5mm|CornerRadius=0.0625mm|HoleSize=0mm|Usage=FLASHONLY|Rotation=0.000|XOffset=0mm|YOffset=0mm|HoleType=Round|Shape=RoundedRectangle|*
%AMROUNDEDRECTD37*
21,1,0.5500,0.3750,0,0,0.0*
21,1,0.4250,0.5000,0,0,0.0*
1,1,0.1250,0.2125,-0.1875*
1,1,0.1250,-0.2125,-0.1875*
1,1,0.1250,-0.2125,0.1875*
1,1,0.1250,0.2125,0.1875*
%
%ADD37ROUNDEDRECTD37*%
G04:AMPARAMS|DCode=38|XSize=0.6mm|YSize=1mm|CornerRadius=0.051mm|HoleSize=0mm|Usage=FLASHONLY|Rotation=270.000|XOffset=0mm|YOffset=0mm|HoleType=Round|Shape=RoundedRectangle|*
%AMROUNDEDRECTD38*
21,1,0.6000,0.8980,0,0,270.0*
21,1,0.4980,1.0000,0,0,270.0*
1,1,0.1020,-0.4490,-0.2490*
1,1,0.1020,-0.4490,0.2490*
1,1,0.1020,0.4490,0.2490*
1,1,0.1020,0.4490,-0.2490*
%
%ADD38ROUNDEDRECTD38*%
%ADD39R,0.8000X0.6000*%
G04:AMPARAMS|DCode=40|XSize=0.76mm|YSize=0.6604mm|CornerRadius=0.0825mm|HoleSize=0mm|Usage=FLASHONLY|Rotation=0.000|XOffset=0mm|YOffset=0mm|HoleType=Round|Shape=RoundedRectangle|*
%AMROUNDEDRECTD40*
21,1,0.7600,0.4953,0,0,0.0*
21,1,0.5949,0.6604,0,0,0.0*
1,1,0.1651,0.2975,-0.2477*
1,1,0.1651,-0.2975,-0.2477*
1,1,0.1651,-0.2975,0.2477*
1,1,0.1651,0.2975,0.2477*
%
%ADD40ROUNDEDRECTD40*%
%ADD41O,1.4500X0.4000*%
%ADD42C,0.4000*%
G04:AMPARAMS|DCode=43|XSize=0.6mm|YSize=1mm|CornerRadius=0.051mm|HoleSize=0mm|Usage=FLASHONLY|Rotation=180.000|XOffset=0mm|YOffset=0mm|HoleType=Round|Shape=RoundedRectangle|*
%AMROUNDEDRECTD43*
21,1,0.6000,0.8980,0,0,180.0*
21,1,0.4980,1.0000,0,0,180.0*
1,1,0.1020,-0.2490,0.4490*
1,1,0.1020,0.2490,0.4490*
1,1,0.1020,0.2490,-0.4490*
1,1,0.1020,-0.2490,-0.4490*
%
%ADD43ROUNDEDRECTD43*%
%ADD44R,1.8000X0.8000*%
%ADD45R,1.2000X0.8000*%
%ADD46O,0.4500X1.3500*%
G04:AMPARAMS|DCode=47|XSize=1.3mm|YSize=0.76mm|CornerRadius=0.095mm|HoleSize=0mm|Usage=FLASHONLY|Rotation=270.000|XOffset=0mm|YOffset=0mm|HoleType=Round|Shape=RoundedRectangle|*
%AMROUNDEDRECTD47*
21,1,1.3000,0.5700,0,0,270.0*
21,1,1.1100,0.7600,0,0,270.0*
1,1,0.1900,-0.2850,-0.5550*
1,1,0.1900,-0.2850,0.5550*
1,1,0.1900,0.2850,0.5550*
1,1,0.1900,0.2850,-0.5550*
%
%ADD47ROUNDEDRECTD47*%
%ADD48R,0.7000X0.9500*%
%ADD49R,0.7620X1.2700*%
%ADD50R,2.6670X2.5400*%
G04:AMPARAMS|DCode=51|XSize=0.55mm|YSize=0.5mm|CornerRadius=0.0625mm|HoleSize=0mm|Usage=FLASHONLY|Rotation=270.000|XOffset=0mm|YOffset=0mm|HoleType=Round|Shape=RoundedRectangle|*
%AMROUNDEDRECTD51*
21,1,0.5500,0.3750,0,0,270.0*
21,1,0.4250,0.5000,0,0,270.0*
1,1,0.1250,-0.1875,-0.2125*
1,1,0.1250,-0.1875,0.2125*
1,1,0.1250,0.1875,0.2125*
1,1,0.1250,0.1875,-0.2125*
%
%ADD51ROUNDEDRECTD51*%
%ADD52R,1.2700X0.7600*%
%ADD53R,1.0000X0.8000*%
%ADD54R,1.1000X1.2000*%
%ADD55R,1.0000X1.6000*%
%ADD98R,1.6500X2.4000*%
%ADD99C,0.1588*%
%ADD100C,0.3048*%
%ADD101C,0.1524*%
%ADD102C,0.1016*%
%ADD103C,1.5080*%
%ADD104C,1.2700*%
%ADD105C,1.7250*%
%ADD106C,5.0800*%
%ADD107R,1.7250X1.7250*%
%ADD108C,0.5000*%
%ADD109R,1.5080X1.5080*%
%ADD110C,0.8300*%
%ADD111C,1.2300*%
%ADD112C,0.4572*%
G36*
X1313763Y874701D02*
X1313511Y873685D01*
X1307648D01*
Y873710D01*
X1307387Y875023D01*
X1306643Y876137D01*
X1305530Y876880D01*
X1304216Y877142D01*
X1302512D01*
Y871234D01*
Y865326D01*
X1304216D01*
X1305530Y865587D01*
X1306643Y866331D01*
X1307387Y867444D01*
X1307648Y868757D01*
Y869023D01*
X1313942D01*
Y849122D01*
X1308608Y842518D01*
X1296360D01*
Y846068D01*
X1290320D01*
Y847338D01*
X1289050D01*
Y854628D01*
X1284280D01*
Y849929D01*
X1281116D01*
X1280949Y850332D01*
X1279592Y851689D01*
X1278128Y852296D01*
Y847598D01*
X1275588D01*
Y852296D01*
X1274124Y851689D01*
X1272767Y850332D01*
X1272032Y848558D01*
Y847981D01*
X1271016Y847517D01*
X1270508Y847909D01*
Y874522D01*
X1276096Y880110D01*
X1308354D01*
X1313763Y874701D01*
D02*
G37*
G36*
X1111977Y819693D02*
Y818383D01*
X1110961Y817867D01*
X1110332Y818287D01*
X1109098Y818533D01*
X1108493D01*
Y813181D01*
X1107223D01*
Y811911D01*
X1102121D01*
Y811056D01*
X1102304Y810133D01*
X1101708Y809117D01*
X1085307Y809117D01*
X1080227Y804037D01*
Y802111D01*
X1079211Y801564D01*
X1078182Y801769D01*
X1077577D01*
Y796417D01*
Y791065D01*
X1078182D01*
X1079211Y791270D01*
X1080227Y790723D01*
Y789467D01*
X1084961Y784733D01*
X1091819D01*
X1096229Y780323D01*
Y773753D01*
X1094451D01*
Y768313D01*
X1093181D01*
Y767043D01*
X1087941D01*
Y765429D01*
X1081949D01*
X1081115Y766445D01*
X1081207Y766907D01*
Y768487D01*
X1072099D01*
X1062991D01*
Y766907D01*
X1063261Y765545D01*
X1064033Y764391D01*
X1064085Y763857D01*
X1060415Y760187D01*
Y747395D01*
X1063463Y744347D01*
X1096667Y744347D01*
Y739775D01*
X1103207D01*
Y737235D01*
X1096667D01*
Y730965D01*
X1095842Y730504D01*
X1075788D01*
X1075274Y731017D01*
X1074061Y731520D01*
X1072747D01*
X1071534Y731017D01*
X1071020Y730504D01*
X1048004D01*
X1024255Y754253D01*
X1024676Y755269D01*
X1035523D01*
Y770509D01*
Y785749D01*
X1023585D01*
Y791683D01*
X1027303Y795401D01*
X1035177Y795401D01*
X1060415Y820639D01*
X1064641Y824865D01*
X1080262D01*
X1080651Y823926D01*
X1075253Y818528D01*
X1074674Y818768D01*
Y815340D01*
X1078102D01*
X1077862Y815919D01*
X1086808Y824865D01*
X1106805D01*
X1111977Y819693D01*
D02*
G37*
G36*
X1284280Y836003D02*
Y832108D01*
X1290320D01*
X1296360D01*
Y836003D01*
X1302423D01*
X1307431Y830995D01*
X1307431Y793589D01*
X1284224Y770382D01*
X1216323Y770382D01*
Y770953D01*
X1210783D01*
X1205243D01*
Y770382D01*
X1177544D01*
X1174547Y773379D01*
X1174968Y774395D01*
X1179215D01*
Y788035D01*
Y801675D01*
X1175620D01*
X1175232Y802614D01*
X1181100Y808482D01*
X1202992D01*
Y806038D01*
X1214072D01*
Y808482D01*
X1222550D01*
Y806292D01*
X1228090D01*
X1233630D01*
Y808482D01*
X1239088D01*
Y803784D01*
X1246378D01*
X1253668D01*
Y808482D01*
X1258972D01*
X1259617Y807697D01*
X1259530Y807260D01*
Y806054D01*
X1272342D01*
Y807260D01*
X1272081Y808573D01*
X1271337Y809687D01*
X1270551Y810212D01*
X1270279Y811377D01*
X1272966Y814063D01*
X1272966Y831260D01*
X1277709Y836003D01*
X1284280D01*
D02*
G37*
G36*
X1128073Y780493D02*
X1125773D01*
Y784493D01*
X1128073D01*
Y780493D01*
D02*
G37*
G36*
X1123073D02*
X1120773D01*
Y784493D01*
X1123073D01*
Y780493D01*
D02*
G37*
G36*
X1233591Y765754D02*
X1233093Y764738D01*
X1225122D01*
Y759968D01*
X1232412D01*
Y757428D01*
X1225122D01*
Y752658D01*
X1229051D01*
X1230012Y752526D01*
Y746506D01*
X1237552D01*
Y743966D01*
X1230012D01*
Y737946D01*
X1229261Y737306D01*
X1225376D01*
Y732536D01*
X1232666D01*
Y729996D01*
X1225376D01*
Y725226D01*
X1226044D01*
X1226900Y724840D01*
Y718820D01*
X1234440D01*
Y716280D01*
X1226900D01*
Y710260D01*
X1235220D01*
X1235609Y709321D01*
X1234694Y708406D01*
X1224486D01*
Y711858D01*
X1218946D01*
X1213406D01*
Y708406D01*
X1210996D01*
Y712430D01*
X1196416D01*
Y708406D01*
X1192990D01*
Y711700D01*
X1187450D01*
X1181910D01*
Y708406D01*
X1178560D01*
X1168781Y718185D01*
Y721031D01*
X1171241D01*
Y726821D01*
X1172511D01*
Y728091D01*
X1178301D01*
Y732611D01*
X1179264Y732739D01*
X1184003D01*
Y745109D01*
X1175313D01*
Y746379D01*
X1174043D01*
Y760019D01*
X1172827D01*
X1172438Y760958D01*
X1177671Y766191D01*
X1205243D01*
Y765493D01*
X1210783D01*
X1216323D01*
Y766191D01*
X1233252D01*
X1233591Y765754D01*
D02*
G37*
G36*
X1128073Y754493D02*
X1125773D01*
Y758493D01*
X1128073D01*
Y754493D01*
D02*
G37*
G36*
X1123073D02*
X1120773D01*
Y758493D01*
X1123073D01*
Y754493D01*
D02*
G37*
G36*
X1241622Y761933D02*
Y759968D01*
X1248912D01*
Y758698D01*
X1250182D01*
Y752658D01*
X1256202D01*
Y756050D01*
X1275972D01*
Y733597D01*
X1254932D01*
Y735782D01*
X1243400D01*
Y726750D01*
X1254932D01*
Y728935D01*
X1275972D01*
Y704520D01*
X1275120D01*
Y692988D01*
X1275972D01*
Y658876D01*
X1266066Y648970D01*
X1139617Y648970D01*
X1139196Y649986D01*
X1139979Y650769D01*
X1140586Y652233D01*
X1131190D01*
X1131797Y650769D01*
X1132580Y649986D01*
X1132159Y648970D01*
X1124123D01*
X1123702Y649986D01*
X1124485Y650769D01*
X1125092Y652233D01*
X1115696D01*
X1116303Y650769D01*
X1117086Y649986D01*
X1116665Y648970D01*
X1101430D01*
X1082548Y667852D01*
X1082548Y680590D01*
X1090552Y688594D01*
X1142622Y688594D01*
X1154052Y677164D01*
Y676656D01*
X1203957Y676656D01*
X1204345Y675717D01*
X1194009Y665381D01*
X1192306D01*
Y672568D01*
X1181274D01*
Y656536D01*
X1192306D01*
Y661691D01*
X1194774D01*
X1195480Y661831D01*
X1196078Y662231D01*
X1210503Y676656D01*
X1240531D01*
X1240426Y711753D01*
X1240456Y711784D01*
X1240456D01*
Y723316D01*
X1240391D01*
X1240344Y738751D01*
X1241062Y739470D01*
X1243568D01*
Y751002D01*
X1240307D01*
X1240274Y762192D01*
X1240606Y762441D01*
X1241622Y761933D01*
D02*
G37*
%LPC*%
G36*
X1299972Y877142D02*
X1298268D01*
X1296954Y876880D01*
X1295841Y876137D01*
X1295097Y875023D01*
X1294836Y873710D01*
Y872504D01*
X1299972D01*
Y877142D01*
D02*
G37*
G36*
Y869964D02*
X1294836D01*
Y868757D01*
X1295097Y867444D01*
X1295841Y866331D01*
X1296954Y865587D01*
X1298268Y865326D01*
X1299972D01*
Y869964D01*
D02*
G37*
G36*
X1304216Y861588D02*
X1298268D01*
X1297549Y861445D01*
X1296940Y861038D01*
X1296533Y860429D01*
X1296390Y859710D01*
Y855631D01*
X1296364Y854754D01*
X1295407Y854628D01*
X1291590D01*
Y848608D01*
X1296360D01*
Y852608D01*
X1297376Y853138D01*
X1297549Y853023D01*
X1298268Y852880D01*
X1298911D01*
Y851333D01*
X1298570Y850991D01*
X1298067Y849778D01*
Y848464D01*
X1298570Y847251D01*
X1299499Y846322D01*
X1300712Y845819D01*
X1302026D01*
X1303239Y846322D01*
X1304168Y847251D01*
X1304671Y848464D01*
Y849778D01*
X1304168Y850991D01*
X1303573Y851587D01*
Y852880D01*
X1304216D01*
X1304935Y853023D01*
X1305544Y853430D01*
X1305951Y854039D01*
X1306094Y854757D01*
Y859710D01*
X1305951Y860429D01*
X1305544Y861038D01*
X1304935Y861445D01*
X1304216Y861588D01*
D02*
G37*
G36*
X1072134Y818768D02*
X1070670Y818161D01*
X1069313Y816804D01*
X1068706Y815340D01*
X1072134D01*
Y818768D01*
D02*
G37*
G36*
X1105953Y818533D02*
X1105348D01*
X1104113Y818287D01*
X1103066Y817588D01*
X1102366Y816541D01*
X1102121Y815306D01*
Y814451D01*
X1105953D01*
Y818533D01*
D02*
G37*
G36*
X1078102Y812800D02*
X1074674D01*
Y809372D01*
X1076138Y809979D01*
X1077495Y811336D01*
X1078102Y812800D01*
D02*
G37*
G36*
X1072134D02*
X1068706D01*
X1069313Y811336D01*
X1070670Y809979D01*
X1072134Y809372D01*
Y812800D01*
D02*
G37*
G36*
X1060196Y801750D02*
Y798322D01*
X1063624D01*
X1063017Y799786D01*
X1061660Y801143D01*
X1060196Y801750D01*
D02*
G37*
G36*
X1057656D02*
X1056192Y801143D01*
X1054835Y799786D01*
X1054228Y798322D01*
X1057656D01*
Y801750D01*
D02*
G37*
G36*
X1075037Y801769D02*
X1074432D01*
X1073197Y801523D01*
X1072150Y800824D01*
X1071451Y799777D01*
X1071205Y798542D01*
Y797687D01*
X1075037D01*
Y801769D01*
D02*
G37*
G36*
X1063624Y795782D02*
X1060196D01*
Y792354D01*
X1061660Y792961D01*
X1063017Y794318D01*
X1063624Y795782D01*
D02*
G37*
G36*
X1057656D02*
X1054228D01*
X1054835Y794318D01*
X1056192Y792961D01*
X1057656Y792354D01*
Y795782D01*
D02*
G37*
G36*
X1075037Y795147D02*
X1071205D01*
Y794292D01*
X1071451Y793057D01*
X1072150Y792010D01*
X1073197Y791311D01*
X1074432Y791065D01*
X1075037D01*
Y795147D01*
D02*
G37*
G36*
X1052668Y785749D02*
X1038063D01*
Y771779D01*
X1052668D01*
Y785749D01*
D02*
G37*
G36*
X1077649Y776165D02*
X1073369D01*
Y771027D01*
X1081207D01*
Y772607D01*
X1080936Y773969D01*
X1080165Y775123D01*
X1079011Y775895D01*
X1077649Y776165D01*
D02*
G37*
G36*
X1070829D02*
X1066549D01*
X1065187Y775895D01*
X1064033Y775123D01*
X1063261Y773969D01*
X1062991Y772607D01*
Y771027D01*
X1070829D01*
Y776165D01*
D02*
G37*
G36*
X1091911Y773753D02*
X1087941D01*
Y769583D01*
X1091911D01*
Y773753D01*
D02*
G37*
G36*
X1052668Y769239D02*
X1038063D01*
Y755269D01*
X1052668D01*
Y769239D01*
D02*
G37*
G36*
X1048766Y750950D02*
Y747522D01*
X1052194D01*
X1051587Y748986D01*
X1050230Y750343D01*
X1048766Y750950D01*
D02*
G37*
G36*
X1046226D02*
X1044762Y750343D01*
X1043405Y748986D01*
X1042798Y747522D01*
X1046226D01*
Y750950D01*
D02*
G37*
G36*
X1052194Y744982D02*
X1048766D01*
Y741554D01*
X1050230Y742161D01*
X1051587Y743518D01*
X1052194Y744982D01*
D02*
G37*
G36*
X1046226D02*
X1042798D01*
X1043405Y743518D01*
X1044762Y742161D01*
X1046226Y741554D01*
Y744982D01*
D02*
G37*
G36*
X1090422Y742568D02*
Y739140D01*
X1093850D01*
X1093243Y740604D01*
X1091886Y741961D01*
X1090422Y742568D01*
D02*
G37*
G36*
X1087882D02*
X1086418Y741961D01*
X1085061Y740604D01*
X1084454Y739140D01*
X1087882D01*
Y742568D01*
D02*
G37*
G36*
X1070356D02*
Y739140D01*
X1073784D01*
X1073177Y740604D01*
X1071820Y741961D01*
X1070356Y742568D01*
D02*
G37*
G36*
X1067816D02*
X1066352Y741961D01*
X1064995Y740604D01*
X1064388Y739140D01*
X1067816D01*
Y742568D01*
D02*
G37*
G36*
X1093850Y736600D02*
X1090422D01*
Y733172D01*
X1091886Y733779D01*
X1093243Y735136D01*
X1093850Y736600D01*
D02*
G37*
G36*
X1087882D02*
X1084454D01*
X1085061Y735136D01*
X1086418Y733779D01*
X1087882Y733172D01*
Y736600D01*
D02*
G37*
G36*
X1073784D02*
X1070356D01*
Y733172D01*
X1071820Y733779D01*
X1073177Y735136D01*
X1073784Y736600D01*
D02*
G37*
G36*
X1067816D02*
X1064388D01*
X1064995Y735136D01*
X1066352Y733779D01*
X1067816Y733172D01*
Y736600D01*
D02*
G37*
G36*
X1296360Y829568D02*
X1291590D01*
Y823548D01*
X1296360D01*
Y829568D01*
D02*
G37*
G36*
X1289050D02*
X1284280D01*
Y823548D01*
X1289050D01*
Y829568D01*
D02*
G37*
G36*
X1272342Y803514D02*
X1267206D01*
Y798876D01*
X1268911D01*
X1270224Y799137D01*
X1271337Y799881D01*
X1272081Y800994D01*
X1272342Y802307D01*
Y803514D01*
D02*
G37*
G36*
X1264666D02*
X1259530D01*
Y802307D01*
X1259791Y800994D01*
X1260535Y799881D01*
X1261648Y799137D01*
X1262962Y798876D01*
X1264666D01*
Y803514D01*
D02*
G37*
G36*
X1233630Y803752D02*
X1229360D01*
Y798482D01*
X1233630D01*
Y803752D01*
D02*
G37*
G36*
X1226820D02*
X1222550D01*
Y798482D01*
X1226820D01*
Y803752D01*
D02*
G37*
G36*
X1214072Y803498D02*
X1209802D01*
Y798228D01*
X1214072D01*
Y803498D01*
D02*
G37*
G36*
X1207262D02*
X1202992D01*
Y798228D01*
X1207262D01*
Y803498D01*
D02*
G37*
G36*
X1253668Y801244D02*
X1247648D01*
Y794974D01*
X1253668D01*
Y801244D01*
D02*
G37*
G36*
X1245108D02*
X1239088D01*
Y794974D01*
X1245108D01*
Y801244D01*
D02*
G37*
G36*
X1189175Y801675D02*
X1181755D01*
Y789305D01*
X1189175D01*
Y801675D01*
D02*
G37*
G36*
Y786765D02*
X1181755D01*
Y774395D01*
X1189175D01*
Y786765D01*
D02*
G37*
G36*
X1216323Y777513D02*
X1212053D01*
Y773493D01*
X1216323D01*
Y777513D01*
D02*
G37*
G36*
X1209513D02*
X1205243D01*
Y773493D01*
X1209513D01*
Y777513D01*
D02*
G37*
G36*
X1216323Y762953D02*
X1212053D01*
Y758933D01*
X1216323D01*
Y762953D01*
D02*
G37*
G36*
X1209513D02*
X1205243D01*
Y758933D01*
X1209513D01*
Y762953D01*
D02*
G37*
G36*
X1199388Y752728D02*
Y749300D01*
X1202816D01*
X1202209Y750764D01*
X1200852Y752121D01*
X1199388Y752728D01*
D02*
G37*
G36*
X1196848D02*
X1195384Y752121D01*
X1194027Y750764D01*
X1193420Y749300D01*
X1196848D01*
Y752728D01*
D02*
G37*
G36*
X1218438Y752220D02*
Y748792D01*
X1221866D01*
X1221259Y750256D01*
X1219902Y751613D01*
X1218438Y752220D01*
D02*
G37*
G36*
X1215898D02*
X1214434Y751613D01*
X1213077Y750256D01*
X1212470Y748792D01*
X1215898D01*
Y752220D01*
D02*
G37*
G36*
X1184003Y760019D02*
X1176583D01*
Y747649D01*
X1184003D01*
Y760019D01*
D02*
G37*
G36*
X1202816Y746760D02*
X1199388D01*
Y743332D01*
X1200852Y743939D01*
X1202209Y745296D01*
X1202816Y746760D01*
D02*
G37*
G36*
X1196848D02*
X1193420D01*
X1194027Y745296D01*
X1195384Y743939D01*
X1196848Y743332D01*
Y746760D01*
D02*
G37*
G36*
X1221866Y746252D02*
X1218438D01*
Y742824D01*
X1219902Y743431D01*
X1221259Y744788D01*
X1221866Y746252D01*
D02*
G37*
G36*
X1215898D02*
X1212470D01*
X1213077Y744788D01*
X1214434Y743431D01*
X1215898Y742824D01*
Y746252D01*
D02*
G37*
G36*
X1217930Y736980D02*
Y733552D01*
X1221358D01*
X1220751Y735016D01*
X1219394Y736373D01*
X1217930Y736980D01*
D02*
G37*
G36*
X1215390D02*
X1213926Y736373D01*
X1212569Y735016D01*
X1211962Y733552D01*
X1215390D01*
Y736980D01*
D02*
G37*
G36*
X1199642Y736472D02*
Y733044D01*
X1203070D01*
X1202463Y734508D01*
X1201106Y735865D01*
X1199642Y736472D01*
D02*
G37*
G36*
X1197102D02*
X1195638Y735865D01*
X1194281Y734508D01*
X1193674Y733044D01*
X1197102D01*
Y736472D01*
D02*
G37*
G36*
X1221358Y731012D02*
X1217930D01*
Y727584D01*
X1219394Y728191D01*
X1220751Y729548D01*
X1221358Y731012D01*
D02*
G37*
G36*
X1215390D02*
X1211962D01*
X1212569Y729548D01*
X1213926Y728191D01*
X1215390Y727584D01*
Y731012D01*
D02*
G37*
G36*
X1203070Y730504D02*
X1199642D01*
Y727076D01*
X1201106Y727683D01*
X1202463Y729040D01*
X1203070Y730504D01*
D02*
G37*
G36*
X1197102D02*
X1193674D01*
X1194281Y729040D01*
X1195638Y727683D01*
X1197102Y727076D01*
Y730504D01*
D02*
G37*
G36*
X1178301Y725551D02*
X1173781D01*
Y721031D01*
X1178301D01*
Y725551D01*
D02*
G37*
G36*
X1210996Y721240D02*
X1204976D01*
Y714970D01*
X1210996D01*
Y721240D01*
D02*
G37*
G36*
X1202436D02*
X1196416D01*
Y714970D01*
X1202436D01*
Y721240D01*
D02*
G37*
G36*
X1224486Y719668D02*
X1220216D01*
Y714398D01*
X1224486D01*
Y719668D01*
D02*
G37*
G36*
X1217676D02*
X1213406D01*
Y714398D01*
X1217676D01*
Y719668D01*
D02*
G37*
G36*
X1192990Y719510D02*
X1188720D01*
Y714240D01*
X1192990D01*
Y719510D01*
D02*
G37*
G36*
X1186180D02*
X1181910D01*
Y714240D01*
X1186180D01*
Y719510D01*
D02*
G37*
G36*
X1247642Y757428D02*
X1241622D01*
Y752658D01*
X1247642D01*
Y757428D01*
D02*
G37*
G36*
X1259568Y751002D02*
X1247536D01*
Y739470D01*
X1259568D01*
Y743413D01*
X1260993D01*
X1261462Y742945D01*
X1262675Y742442D01*
X1263989D01*
X1265202Y742945D01*
X1266131Y743874D01*
X1266634Y745087D01*
Y746401D01*
X1266131Y747615D01*
X1265202Y748543D01*
X1263989Y749046D01*
X1262675D01*
X1261462Y748543D01*
X1260993Y748075D01*
X1259568D01*
Y751002D01*
D02*
G37*
G36*
X1256456Y723316D02*
X1244424D01*
Y711784D01*
X1256456D01*
Y715219D01*
X1258135D01*
X1258350Y715005D01*
X1259563Y714502D01*
X1260877D01*
X1262090Y715005D01*
X1263019Y715934D01*
X1263522Y717147D01*
Y718461D01*
X1263019Y719675D01*
X1262090Y720603D01*
X1260877Y721106D01*
X1259563D01*
X1258350Y720603D01*
X1257627Y719881D01*
X1256456D01*
Y723316D01*
D02*
G37*
G36*
X1271152Y704520D02*
X1259120D01*
Y692988D01*
X1260659D01*
Y688959D01*
X1260191Y688490D01*
X1259688Y687277D01*
Y685963D01*
X1260191Y684750D01*
X1261119Y683821D01*
X1262333Y683318D01*
X1263647D01*
X1264860Y683821D01*
X1265789Y684750D01*
X1266292Y685963D01*
Y687277D01*
X1265789Y688490D01*
X1265321Y688959D01*
Y692988D01*
X1271152D01*
Y704520D01*
D02*
G37*
G36*
X1142238Y682076D02*
Y678649D01*
X1145666D01*
X1145059Y680113D01*
X1143702Y681470D01*
X1142238Y682076D01*
D02*
G37*
G36*
X1139698D02*
X1138234Y681470D01*
X1136877Y680113D01*
X1136271Y678649D01*
X1139698D01*
Y682076D01*
D02*
G37*
G36*
X1107186Y682940D02*
Y675347D01*
X1114779D01*
X1114200Y677508D01*
X1113030Y679536D01*
X1111375Y681191D01*
X1109348Y682361D01*
X1107186Y682940D01*
D02*
G37*
G36*
X1104646Y682940D02*
X1102485Y682361D01*
X1100458Y681191D01*
X1098802Y679536D01*
X1097632Y677508D01*
X1097053Y675347D01*
X1104646D01*
Y682940D01*
D02*
G37*
G36*
X1145666Y676109D02*
X1142238D01*
Y672681D01*
X1143702Y673288D01*
X1145059Y674645D01*
X1145666Y676109D01*
D02*
G37*
G36*
X1139698D02*
X1136271D01*
X1136877Y674645D01*
X1138234Y673288D01*
X1139698Y672681D01*
Y676109D01*
D02*
G37*
G36*
X1132332Y670393D02*
Y666965D01*
X1135760D01*
X1135153Y668429D01*
X1133796Y669786D01*
X1132332Y670393D01*
D02*
G37*
G36*
X1129792D02*
X1128328Y669786D01*
X1126971Y668429D01*
X1126365Y666965D01*
X1129792D01*
Y670393D01*
D02*
G37*
G36*
X1149350Y669631D02*
Y666203D01*
X1152778D01*
X1152171Y667667D01*
X1150814Y669024D01*
X1149350Y669631D01*
D02*
G37*
G36*
X1146810D02*
X1145346Y669024D01*
X1143989Y667667D01*
X1143382Y666203D01*
X1146810D01*
Y669631D01*
D02*
G37*
G36*
X1104646Y672807D02*
X1097053D01*
X1097632Y670646D01*
X1098802Y668618D01*
X1100458Y666963D01*
X1102485Y665793D01*
X1104646Y665214D01*
Y672807D01*
D02*
G37*
G36*
X1114779D02*
X1107186D01*
Y665214D01*
X1109348Y665793D01*
X1111375Y666963D01*
X1113030Y668618D01*
X1114200Y670646D01*
X1114779Y672807D01*
D02*
G37*
G36*
X1173306Y672568D02*
X1162274D01*
Y662438D01*
X1159944D01*
X1159475Y662906D01*
X1158262Y663409D01*
X1156948D01*
X1155734Y662906D01*
X1154805Y661977D01*
X1154303Y660764D01*
Y659450D01*
X1154805Y658236D01*
X1155734Y657308D01*
X1156948Y656805D01*
X1158262D01*
X1159475Y657308D01*
X1159944Y657776D01*
X1162274D01*
Y656536D01*
X1173306D01*
Y672568D01*
D02*
G37*
G36*
X1135760Y664425D02*
X1132332D01*
Y660997D01*
X1133796Y661604D01*
X1135153Y662961D01*
X1135760Y664425D01*
D02*
G37*
G36*
X1129792D02*
X1126365D01*
X1126971Y662961D01*
X1128328Y661604D01*
X1129792Y660997D01*
Y664425D01*
D02*
G37*
G36*
X1152778Y663663D02*
X1149350D01*
Y660235D01*
X1150814Y660842D01*
X1152171Y662199D01*
X1152778Y663663D01*
D02*
G37*
G36*
X1146810D02*
X1143382D01*
X1143989Y662199D01*
X1145346Y660842D01*
X1146810Y660235D01*
Y663663D01*
D02*
G37*
G36*
X1137158Y658201D02*
Y654773D01*
X1140586D01*
X1139979Y656237D01*
X1138622Y657594D01*
X1137158Y658201D01*
D02*
G37*
G36*
X1134618D02*
X1133154Y657594D01*
X1131797Y656237D01*
X1131190Y654773D01*
X1134618D01*
Y658201D01*
D02*
G37*
G36*
X1121664D02*
Y654773D01*
X1125092D01*
X1124485Y656237D01*
X1123128Y657594D01*
X1121664Y658201D01*
D02*
G37*
G36*
X1119124D02*
X1117660Y657594D01*
X1116303Y656237D01*
X1115696Y654773D01*
X1119124D01*
Y658201D01*
D02*
G37*
%LPD*%
D18*
X1259966Y717550D02*
X1260220Y717804D01*
X1250440Y717550D02*
X1259966D01*
X1627846Y1354862D02*
X1628396D01*
X1627541Y1408536D02*
X1627634Y1408629D01*
X1626657Y1353673D02*
X1627846Y1354862D01*
X1616771Y1408536D02*
X1627541D01*
X1617058Y1353673D02*
X1626657D01*
X1627082Y1267460D02*
X1627632D01*
X1627567Y1214185D02*
X1627632Y1214120D01*
X1625521Y1269021D02*
X1627082Y1267460D01*
X1616743Y1214185D02*
X1627567D01*
X1616678Y1408443D02*
X1616771Y1408536D01*
X1231623Y1409507D02*
X1231640Y1409489D01*
X1231961Y1354417D02*
X1232050Y1354506D01*
X1616828Y1353443D02*
X1617058Y1353673D01*
X1616563Y1269173D02*
X1616715Y1269021D01*
X1625521D01*
X1616678Y1214251D02*
X1616743Y1214185D01*
X1232427Y1272310D02*
X1232657Y1272080D01*
X1628555Y1129977D02*
X1628650Y1130072D01*
X1616993Y1129977D02*
X1628555D01*
X1627590Y1074166D02*
X1628140D01*
X1617128Y1074653D02*
X1627103D01*
X1627590Y1074166D01*
X1616898Y1074883D02*
X1617128Y1074653D01*
X1213593Y1409507D02*
X1231623D01*
X1212384Y1410716D02*
X1213593Y1409507D01*
X1211669Y1354417D02*
X1231961D01*
X1211580Y1274572D02*
X1222502D01*
X1211834Y1410716D02*
X1212384D01*
X1211580Y1354328D02*
X1211669Y1354417D01*
X1156436Y1439462D02*
X1196804D01*
X1203452Y1432814D01*
X1212064Y1316507D02*
X1212088Y1316482D01*
X1204139Y1324431D02*
X1212064Y1316507D01*
X1205815Y1302081D02*
X1212088Y1308354D01*
X1156467Y1324431D02*
X1204139D01*
X1156392Y1324506D02*
X1156467Y1324431D01*
X1156897Y1302081D02*
X1205815D01*
X1224764Y1272310D02*
X1232427D01*
X1222502Y1274572D02*
X1224764Y1272310D01*
X1207262Y1229106D02*
X1219288Y1217080D01*
X1232657D01*
X1168402Y1183412D02*
X1168402D01*
X1157127Y1186850D02*
X1164964D01*
X1156897Y1187080D02*
X1157127Y1186850D01*
X1164964D02*
X1168402Y1183412D01*
X1072099Y751857D02*
X1084181D01*
X1084291Y751967D01*
X1122697Y889648D02*
X1131045D01*
X1167790Y663337D02*
Y664552D01*
X1164560Y660107D02*
X1167790Y663337D01*
X1174876Y684872D02*
X1182376D01*
X1197610Y687920D02*
X1197999Y688309D01*
Y691743D01*
X1203706Y697450D01*
X1187958Y822452D02*
X1188394Y822888D01*
X1196340D01*
X1203706Y697450D02*
Y697700D01*
X1190052Y883982D02*
Y892302D01*
X1189990Y883920D02*
X1190052Y883982D01*
X1216018Y974144D02*
Y979163D01*
Y1007739D02*
Y1012945D01*
Y1024455D02*
Y1029201D01*
Y1007739D02*
X1219330Y1004427D01*
X1216018Y1041334D02*
Y1046219D01*
X1216060Y990889D02*
Y995885D01*
X1219651Y1037701D02*
X1219790D01*
X1216018Y1074930D02*
Y1079747D01*
X1216060Y1057691D02*
Y1062688D01*
Y1091727D02*
Y1096723D01*
Y1108491D02*
Y1113487D01*
Y1091727D02*
X1219540Y1088247D01*
X1246378Y818514D02*
Y826014D01*
X1301242Y849248D02*
X1301369Y849121D01*
X1301242Y849248D02*
Y857234D01*
X1265936Y818784D02*
Y826262D01*
X1355852Y932308D02*
Y938276D01*
X1353692Y930148D02*
X1355852Y932308D01*
X1358596Y944168D02*
X1363980Y938784D01*
X1371248Y941930D02*
Y950874D01*
Y941930D02*
X1374902Y938276D01*
X1339749Y992016D02*
X1339857Y991908D01*
X1328928Y992124D02*
X1329036Y992016D01*
X1339749D01*
X1355762Y944168D02*
X1358596D01*
X1352282Y947648D02*
X1355762Y944168D01*
X1219540Y1054211D02*
X1219790D01*
X1326638Y1034060D02*
X1334138D01*
X1367284Y1056286D02*
X1370432Y1059434D01*
X1376934D01*
X1381160Y1081362D02*
X1381250Y1081272D01*
X1325363Y1100525D02*
X1329363Y1104525D01*
X1365363Y1099976D02*
Y1100525D01*
X1283208Y1112266D02*
X1292456D01*
X1292608Y1112418D01*
X1365363Y1100525D02*
X1369363Y1104525D01*
X1373363Y1100525D02*
X1377363Y1104525D01*
X1365363Y1108525D02*
X1369363Y1112525D01*
X1373363Y1108525D02*
X1377363Y1112525D01*
X1144970Y1201890D02*
X1156707D01*
X1144780Y1201700D02*
X1144970Y1201890D01*
X1156707D02*
X1156897Y1202081D01*
Y1232080D02*
X1156934Y1232117D01*
X1168617D01*
X1157127Y1257310D02*
X1165067D01*
X1156897Y1257080D02*
X1157127Y1257310D01*
X1165067D02*
X1167596Y1259840D01*
X1168146D01*
X1216060Y1125001D02*
Y1129997D01*
Y1142273D02*
Y1147270D01*
Y1142273D02*
X1219540Y1138793D01*
X1206889Y1218193D02*
Y1218811D01*
X1206500Y1219200D02*
X1206889Y1218811D01*
X1168617Y1232117D02*
X1168654Y1232154D01*
X1213104Y1231900D02*
X1213194Y1231990D01*
X1206889Y1218193D02*
X1223001Y1202081D01*
X1232657D01*
X1213194Y1231990D02*
X1232567D01*
X1232657Y1232080D01*
X1223254Y1257310D02*
X1232427D01*
X1232657Y1257080D01*
X1156897Y1287080D02*
X1156915Y1287062D01*
X1156392Y1339507D02*
X1156585Y1339314D01*
X1156915Y1287062D02*
X1167876D01*
X1156585Y1339314D02*
X1167368D01*
X1156392Y1369507D02*
X1156488Y1369410D01*
X1167542D01*
X1156392Y1394506D02*
X1166490D01*
X1166957Y1394039D01*
X1157072Y1424252D02*
X1167856D01*
X1211834Y1268730D02*
X1223254Y1257310D01*
X1211349Y1287041D02*
X1211357Y1287049D01*
X1167876Y1287062D02*
X1167894Y1287044D01*
X1167368Y1339314D02*
X1167561Y1339121D01*
X1211357Y1287049D02*
X1232626D01*
X1232657Y1287080D01*
X1212895Y1339551D02*
X1232107D01*
X1232152Y1339507D01*
X1167542Y1369410D02*
X1167638Y1369314D01*
X1166957Y1394039D02*
X1167507D01*
X1212872Y1339574D02*
X1212895Y1339551D01*
X1167856Y1424252D02*
X1168069Y1424465D01*
X1211834Y1420622D02*
X1212384D01*
X1216231Y1424469D01*
X1232499Y1369427D02*
X1232578Y1369507D01*
X1232708Y1394610D02*
X1232962Y1394356D01*
X1216231Y1424469D02*
X1231909D01*
X1282702Y1133120D02*
X1282830Y1133248D01*
Y1146582D01*
X1325363Y1140525D02*
X1329363Y1144525D01*
X1333363Y1132525D02*
X1337363Y1136525D01*
X1357363Y1132525D02*
X1361363Y1136525D01*
X1333363Y1140525D02*
X1337363Y1144525D01*
X1357363Y1140525D02*
X1361363Y1144525D01*
X1325363Y1148525D02*
X1329363Y1152525D01*
X1357363Y1148525D02*
X1361363Y1152525D01*
X1357363Y1164525D02*
X1361363Y1168525D01*
X1365363Y1148525D02*
X1369363Y1152525D01*
X1373363Y1132525D02*
X1377363Y1136525D01*
X1373363Y1140525D02*
X1377363Y1144525D01*
X1365363Y1164525D02*
X1369363Y1168525D01*
X1307874Y1284994D02*
X1307928Y1285048D01*
X1357363Y1212525D02*
X1361363Y1208525D01*
X1325363Y1252525D02*
X1329363Y1248525D01*
X1326390Y1285102D02*
Y1291842D01*
X1326336Y1285048D02*
X1326390Y1285102D01*
X1232578Y1369507D02*
X1245636D01*
X1246336Y1368806D02*
X1246886D01*
X1245636Y1369507D02*
X1246336Y1368806D01*
X1232962Y1394356D02*
X1245974D01*
X1246124Y1394206D01*
X1324610Y1293622D02*
X1326390Y1291842D01*
X1354076Y1369848D02*
X1361414Y1362510D01*
X1365363Y1188525D02*
X1369363Y1184525D01*
X1357363Y1188525D02*
X1361363Y1184525D01*
X1365363Y1212525D02*
X1369363Y1208525D01*
X1357363Y1220525D02*
X1361363Y1216525D01*
X1365363Y1220525D02*
X1369363Y1216525D01*
X1362712Y1377976D02*
X1365224Y1375464D01*
X1361414Y1362510D02*
X1372888D01*
X1365224Y1375464D02*
X1372888D01*
X1388364Y1070906D02*
X1389988Y1072530D01*
X1388364Y1070356D02*
Y1070906D01*
X1389988Y1072530D02*
Y1081210D01*
X1381250Y1081272D02*
X1390050D01*
X1381363Y1140525D02*
X1385363Y1144525D01*
X1381363Y1132525D02*
X1385363Y1136525D01*
X1389988Y1081210D02*
X1390050Y1081272D01*
X1398850D02*
X1398940Y1081182D01*
X1390050Y1081272D02*
X1398850D01*
X1409363Y1144525D02*
X1413363Y1140525D01*
X1381363Y1156525D02*
X1385363Y1160525D01*
X1405363Y1156525D02*
X1409363Y1160525D01*
X1389363Y1156525D02*
X1393363Y1160525D01*
X1397363Y1156525D02*
X1401363Y1160525D01*
X1433363Y1136525D02*
X1437363Y1132525D01*
X1441363Y1136525D02*
X1445363Y1132525D01*
X1417363Y1144525D02*
X1421363Y1140525D01*
X1413363Y1156525D02*
X1417363Y1160525D01*
X1433363Y1144525D02*
X1437363Y1140525D01*
X1433363Y1160525D02*
X1437363Y1156525D01*
X1441363Y1160525D02*
X1445363Y1156525D01*
X1381363Y1164525D02*
X1385363Y1168525D01*
X1389363Y1164525D02*
X1393363Y1168525D01*
X1381363Y1180525D02*
X1385363Y1176525D01*
X1389363Y1180525D02*
X1393363Y1176525D01*
X1397363Y1164525D02*
X1401363Y1168525D01*
X1397363Y1180525D02*
X1401363Y1176525D01*
X1381363Y1188525D02*
X1385363Y1184525D01*
X1389363Y1188525D02*
X1393363Y1184525D01*
X1381363Y1196525D02*
X1385363Y1192525D01*
X1389363Y1196525D02*
X1393363Y1192525D01*
X1397363Y1188525D02*
X1401363Y1184525D01*
X1397363Y1196525D02*
X1401363Y1192525D01*
X1405363Y1164525D02*
X1409363Y1168525D01*
X1413363Y1164525D02*
X1417363Y1168525D01*
X1405363Y1180525D02*
X1409363Y1176525D01*
X1413363Y1180525D02*
X1417363Y1176525D01*
X1441363D02*
X1445363Y1180525D01*
X1433363Y1176525D02*
X1437363Y1180525D01*
X1405363Y1188525D02*
X1409363Y1184525D01*
X1405363Y1196525D02*
X1409363Y1192525D01*
X1413363Y1196525D02*
X1417363Y1192525D01*
X1413363Y1188525D02*
X1417363Y1184525D01*
X1441363Y1192525D02*
X1445363Y1196525D01*
X1433363Y1192525D02*
X1437363Y1196525D01*
X1616898Y1059883D02*
X1626195D01*
X1625353Y1089653D02*
X1631950Y1083056D01*
X1617128Y1089653D02*
X1625353D01*
X1713877Y1044883D02*
X1714712Y1045718D01*
X1715262D01*
X1626195Y1059883D02*
X1634490Y1068178D01*
Y1074166D01*
X1679448Y1064091D02*
X1683566Y1059974D01*
X1692567D01*
X1692658Y1059883D01*
Y1089883D02*
X1707357D01*
X1707499Y1090025D01*
X1485138Y1092200D02*
X1485527Y1092589D01*
Y1096188D01*
X1473363Y1104525D02*
X1477363Y1100525D01*
X1485527Y1096188D02*
X1489966Y1100627D01*
Y1101627D01*
X1441363Y1144525D02*
X1445363Y1140525D01*
X1465363Y1168525D02*
X1469363Y1164525D01*
X1465363Y1192525D02*
X1469363Y1196525D01*
X1616898Y1114883D02*
X1626135D01*
X1473363Y1192525D02*
X1477363Y1196525D01*
X1692658Y1114883D02*
X1692697Y1114845D01*
X1626135Y1114883D02*
X1634490Y1123238D01*
Y1130046D01*
X1707499Y1090025D02*
X1707642Y1090168D01*
X1692697Y1114845D02*
X1703539D01*
X1703578Y1114806D01*
X1617156Y1145085D02*
X1627684D01*
X1627886Y1145286D01*
X1658418Y1150418D02*
X1667883Y1159883D01*
X1692658D01*
Y1144883D02*
X1703727D01*
X1381363Y1212525D02*
X1385363Y1208525D01*
X1417363D02*
X1421363Y1212525D01*
X1433363Y1208525D02*
X1437363Y1212525D01*
X1381363Y1220525D02*
X1385363Y1216525D01*
X1397363Y1252525D02*
X1401363Y1248525D01*
X1417363Y1216525D02*
X1421363Y1220525D01*
X1433363Y1216525D02*
X1437363Y1220525D01*
X1449363Y1200525D02*
X1453363Y1204525D01*
X1441363Y1208525D02*
X1445363Y1212525D01*
X1457363Y1200525D02*
X1461363Y1204525D01*
X1505712Y1205424D02*
Y1215898D01*
Y1205424D02*
X1506989Y1204147D01*
X1441363Y1216525D02*
X1445363Y1220525D01*
X1473363Y1248525D02*
X1477363Y1252525D01*
X1521896Y1355112D02*
X1521933Y1355075D01*
Y1343215D02*
X1521970Y1343178D01*
X1521933Y1343215D02*
Y1355075D01*
X1520626Y1445816D02*
X1520916Y1446106D01*
Y1462242D01*
X1521206Y1462532D01*
X1531112Y1342898D02*
X1537005Y1348791D01*
Y1355497D01*
X1536882Y1355620D02*
X1537005Y1355497D01*
X1559666Y1341098D02*
X1560888Y1339876D01*
X1579628D01*
X1567525Y1391903D02*
X1567870Y1391558D01*
X1575816Y1346454D02*
Y1357749D01*
X1576165Y1358098D01*
X1530024Y1391812D02*
X1531739Y1393528D01*
Y1400421D01*
X1532128Y1400810D01*
X1556004Y1448992D02*
Y1462532D01*
X1567525Y1391903D02*
Y1400719D01*
X1567180Y1401064D02*
X1567525Y1400719D01*
X1556004Y1448992D02*
X1557730Y1447266D01*
X1616678Y1199251D02*
X1616908Y1199481D01*
X1624127D01*
X1616715Y1229021D02*
X1626433D01*
X1624127Y1199481D02*
X1627590Y1202944D01*
X1628140D01*
X1626433Y1229021D02*
X1627592Y1227862D01*
X1628142D01*
X1616682Y1254264D02*
X1616899Y1254481D01*
X1625025D01*
X1627844Y1257300D01*
X1628394D01*
X1616871Y1284481D02*
X1626888D01*
X1627338Y1284931D01*
X1627888D01*
X1692067Y1199307D02*
X1692079Y1199320D01*
X1692042Y1229278D02*
X1692070Y1229305D01*
X1703510Y1199320D02*
X1703578Y1199388D01*
X1704032Y1229305D02*
X1704086Y1229360D01*
X1692147Y1254252D02*
X1692148Y1254251D01*
X1692163Y1284237D02*
X1692166Y1284241D01*
X1703831Y1254251D02*
X1703832Y1254252D01*
X1704069Y1284241D02*
X1704079Y1284231D01*
X1616828Y1338443D02*
X1617058Y1338673D01*
X1624889D01*
X1616828Y1368443D02*
X1617014Y1368257D01*
X1624889Y1338673D02*
X1627844Y1341628D01*
X1628394D01*
X1617014Y1368257D02*
X1628717D01*
X1616678Y1393443D02*
X1616908Y1393673D01*
X1616828Y1423443D02*
X1617058Y1423213D01*
X1627311Y1393673D02*
X1627844Y1394206D01*
X1616908Y1393673D02*
X1627311D01*
X1627844Y1394206D02*
X1628394D01*
X1617058Y1423213D02*
X1624745D01*
X1628098Y1419860D01*
X1628717Y1368257D02*
X1628904Y1368070D01*
X1692438Y1338443D02*
X1703715D01*
X1704110Y1338048D01*
X1704267Y1368371D02*
X1704340Y1368298D01*
X1692438Y1368443D02*
X1692511Y1368371D01*
X1692438Y1393443D02*
X1692465Y1393416D01*
X1628098Y1419860D02*
X1628648D01*
X1692438Y1423443D02*
X1692643Y1423238D01*
X1692511Y1368371D02*
X1704267D01*
X1692465Y1393416D02*
X1704061D01*
X1704088Y1393389D01*
X1692643Y1423238D02*
X1703195D01*
X1703400Y1423033D01*
X1692166Y1284241D02*
X1704069D01*
X1692148Y1254251D02*
X1703831D01*
X1692070Y1229305D02*
X1704032D01*
X1692079Y1199320D02*
X1703510D01*
X1616563Y1284172D02*
X1616871Y1284481D01*
X1616563Y1229173D02*
X1616715Y1229021D01*
X1617128Y1145113D02*
X1617156Y1145085D01*
X1686783Y1044883D02*
X1713877D01*
X1307928Y1285048D02*
X1326336D01*
X1231909Y1424469D02*
X1232049Y1424609D01*
X1219540Y1138793D02*
X1219790D01*
X1219540Y1105011D02*
X1219790D01*
X1219540Y1088247D02*
X1219790D01*
X1219540Y1121521D02*
X1219790D01*
X1219719Y1071229D02*
X1219790D01*
X1216060Y1057691D02*
X1219540Y1054211D01*
X1216018Y1041334D02*
X1219651Y1037701D01*
X1216060Y1108491D02*
X1219540Y1105011D01*
X1216060Y1125001D02*
X1219540Y1121521D01*
X1219330Y1004427D02*
X1219790D01*
X1216060Y990889D02*
X1219540Y987409D01*
X1216018Y1024455D02*
X1219790Y1020683D01*
X1219540Y987409D02*
X1219790D01*
X1216018Y974144D02*
X1219517Y970645D01*
X1219790D01*
X1216018Y1074930D02*
X1219719Y1071229D01*
X1253552Y745236D02*
X1254060Y745744D01*
X1263332D01*
X1262990Y686620D02*
Y698558D01*
X1392330Y886616D02*
X1400908D01*
X1401064Y886460D01*
X1157605Y660107D02*
X1164560D01*
X1136903Y696556D02*
X1137539Y697192D01*
Y708748D01*
X1138483Y813689D02*
Y820129D01*
X1138647Y820293D01*
X1132551Y721395D02*
Y732991D01*
Y721395D02*
X1132840Y721106D01*
X1116429Y797433D02*
X1125429D01*
X1093181Y753839D02*
Y760513D01*
X1093087Y753745D02*
X1093181Y753839D01*
X1713268Y747484D02*
X1714718Y746034D01*
X1317500Y1277248D02*
X1326336D01*
X1307928D02*
X1317500D01*
X1639824Y728980D02*
X1709420D01*
X1611122Y757682D02*
X1639824Y728980D01*
X1548892Y740918D02*
Y755904D01*
X1530858Y722884D02*
X1548892Y740918D01*
X1382268Y722884D02*
X1530858D01*
X1108075Y696556D02*
X1120903D01*
X1166368Y892302D02*
X1178052D01*
X1166114Y892556D02*
X1166368Y892302D01*
X1346771Y758381D02*
X1382268Y722884D01*
X1249230Y758381D02*
X1346771D01*
X1705568Y747522D02*
X1713230D01*
X1714718Y734278D02*
Y746034D01*
X1248912Y758698D02*
X1249230Y758381D01*
X1700784Y756141D02*
Y809752D01*
X1709420Y728980D02*
X1714718Y734278D01*
X1713268Y747484D02*
X1715934Y750150D01*
X1700869Y752222D02*
X1705568Y747522D01*
X1570482Y1448019D02*
Y1462278D01*
X1569730Y1447266D02*
X1570482Y1448019D01*
X1570298Y1433502D02*
X1572028Y1431772D01*
X1575742Y1420686D02*
Y1427058D01*
Y1420686D02*
X1577370Y1419058D01*
X1572028Y1430772D02*
Y1431772D01*
Y1430772D02*
X1575742Y1427058D01*
X1530024Y1419312D02*
X1539524D01*
X1567870Y1419058D02*
X1567912Y1419017D01*
X1577328D01*
X1569600Y1414900D02*
Y1417328D01*
X1567912Y1419017D02*
X1569600Y1417328D01*
X1572514Y1405128D02*
Y1411986D01*
X1569600Y1414900D02*
X1572514Y1411986D01*
X1539524Y1391812D02*
Y1400526D01*
Y1389812D02*
Y1391812D01*
X1546606Y1384982D02*
Y1400556D01*
X1542092Y1380468D02*
X1546606Y1384982D01*
X1537075Y1380468D02*
X1542092D01*
X1539494Y1400556D02*
X1539524Y1400526D01*
X1536770Y1380162D02*
X1537075Y1380468D01*
X1535770Y1380162D02*
X1536882Y1379050D01*
Y1367620D02*
Y1379050D01*
X1521595Y1408883D02*
X1530024Y1417312D01*
Y1419312D01*
X1521595Y1406025D02*
Y1408883D01*
X1521206Y1405636D02*
X1521595Y1406025D01*
X1497957Y1405755D02*
X1498346Y1406144D01*
X1497957Y1400557D02*
Y1405755D01*
X1492394Y1394994D02*
X1497957Y1400557D01*
X1487582Y1342898D02*
X1501648D01*
X1491394Y1394994D02*
X1492394D01*
X1465363Y1248525D02*
X1469363Y1252525D01*
X1449363Y1216525D02*
X1453363Y1220525D01*
X1449363Y1208525D02*
X1453363Y1212525D01*
X1700784Y809752D02*
X1713230Y820166D01*
X1700869Y752222D02*
Y756056D01*
X1700784Y756141D02*
X1700869Y756056D01*
X1449363Y1192525D02*
X1453363Y1196525D01*
X1457363Y1192525D02*
X1461363Y1196525D01*
X1441363Y1168525D02*
X1445363Y1164525D01*
X1433363Y1168525D02*
X1437363Y1164525D01*
X1441363Y1152525D02*
X1445363Y1148525D01*
X1433363Y1152525D02*
X1437363Y1148525D01*
X1473363Y1112525D02*
X1477363Y1108525D01*
X1425363Y1216525D02*
X1429363Y1220525D01*
X1397363D02*
X1401363Y1216525D01*
X1389363Y1252525D02*
X1393363Y1248525D01*
X1373363Y1220525D02*
X1377363Y1216525D01*
X1397363Y1212525D02*
X1401363Y1208525D01*
X1425363D02*
X1429363Y1212525D01*
X1373363D02*
X1377363Y1208525D01*
X1365363Y1204525D02*
X1369363Y1200525D01*
X1365363Y1196525D02*
X1369363Y1192525D01*
X1365363Y1156525D02*
X1369363Y1160525D01*
X1326336Y1277248D02*
X1326390Y1277302D01*
X1317500Y1277248D02*
Y1277302D01*
X1307874Y1277194D02*
X1307928Y1277248D01*
X1317500Y1252388D02*
X1325363Y1244525D01*
X1317500Y1252388D02*
Y1277248D01*
X1071203Y1406157D02*
X1071470Y1406424D01*
X1059447Y1406157D02*
X1071203D01*
X1026272Y1406652D02*
X1027272D01*
X1059180Y1405890D02*
X1059447Y1406157D01*
X1022231Y1402611D02*
X1026272Y1406652D01*
X1022231Y1399167D02*
Y1402611D01*
X1021842Y1398778D02*
X1022231Y1399167D01*
X1357363Y1204525D02*
X1361363Y1200525D01*
X1349363Y1204525D02*
X1353363Y1200525D01*
X1357363Y1196525D02*
X1361363Y1192525D01*
X1357363Y1156525D02*
X1361363Y1160525D01*
X1325363Y1244525D02*
X1329363Y1240525D01*
X1325363Y1156525D02*
X1329363Y1160525D01*
X1324813Y1156525D02*
X1324951Y1156663D01*
X1324813Y1156525D02*
X1325363D01*
X1389363Y1140525D02*
X1393363Y1144525D01*
X1417363Y1136525D02*
X1421363Y1132525D01*
X1409363Y1136525D02*
X1413363Y1132525D01*
X1389363D02*
X1393363Y1136525D01*
X1398841Y1089081D02*
X1398850Y1089072D01*
X1390050D02*
X1398850D01*
X1381363Y1100525D02*
X1385363Y1104525D01*
X1381160Y1100322D02*
X1381363Y1100525D01*
X1381160Y1089162D02*
X1389960D01*
X1381160D02*
Y1100322D01*
X1143997Y883920D02*
X1152144D01*
X1142268Y885650D02*
Y886066D01*
Y885650D02*
X1143997Y883920D01*
X1095197Y889648D02*
X1095197Y889648D01*
X1085628Y889648D02*
X1095197D01*
X1063431Y918577D02*
X1072672D01*
X1084101Y907148D01*
X1085628Y889647D02*
X1085628Y889648D01*
X1134648Y863714D02*
X1145157D01*
X1074958Y861173D02*
X1083339Y869556D01*
X1063686Y861173D02*
X1074958D01*
X1276858Y847598D02*
X1290060D01*
X1290320Y847338D01*
X1301242Y871234D02*
X1301362Y871354D01*
X1410596D02*
X1410716Y871474D01*
X1301362Y871354D02*
X1410596D01*
X1734276Y751876D02*
X1735762Y750390D01*
X1734276Y749844D02*
Y751876D01*
X1735762Y750390D02*
X1744392D01*
X1692285Y1269021D02*
X1703541D01*
X1692089Y1269217D02*
X1692285Y1269021D01*
X1692409Y1214185D02*
X1704529D01*
X1281136Y698754D02*
X1293074D01*
X1249166Y731266D02*
X1249166Y731266D01*
X1285620D01*
X1285620Y731266D01*
X1096984Y769493D02*
X1110423D01*
X1013425Y750351D02*
X1013460Y750316D01*
X1013425Y750351D02*
Y770509D01*
X1680718Y1070610D02*
X1684761Y1074653D01*
X1692658Y1129883D02*
X1703741D01*
X1156827Y1217010D02*
X1156897Y1217080D01*
X1703381Y1353213D02*
X1703790Y1352804D01*
X1703741Y1129883D02*
X1703787Y1129837D01*
X1703790Y1352804D02*
X1704340D01*
X1164573Y1272310D02*
X1167596Y1275334D01*
X1156392Y1409507D02*
X1168042D01*
X1692344Y1214120D02*
X1692409Y1214185D01*
X1157127Y1272310D02*
X1164573D01*
X1692668Y1353213D02*
X1703381D01*
X1144596Y1217010D02*
X1156827D01*
X1166612Y1354506D02*
X1167011Y1354107D01*
X1704529Y1214185D02*
X1704594Y1214120D01*
X1167596Y1275334D02*
X1168146D01*
X1156392Y1354506D02*
X1166612D01*
X1692428Y1074653D02*
X1692658Y1074883D01*
X1692572Y1408309D02*
X1703698D01*
X1703787Y1129837D02*
X1703832Y1129792D01*
X1692438Y1353443D02*
X1692668Y1353213D01*
X1703541Y1269021D02*
X1703832Y1268730D01*
X1703698Y1408309D02*
X1703832Y1408176D01*
X1684761Y1074653D02*
X1692428D01*
X1144526Y1216940D02*
X1144596Y1217010D01*
X1167011Y1354107D02*
X1167561D01*
X1692438Y1408443D02*
X1692572Y1408309D01*
X1156897Y1272080D02*
X1157127Y1272310D01*
X1433363Y1200525D02*
X1437363Y1204525D01*
X1441363Y1200525D02*
X1445363Y1204525D01*
X1441363Y1184525D02*
X1445363Y1188525D01*
X1433363Y1184525D02*
X1437363Y1188525D01*
X1409363Y1208525D02*
X1413363Y1212525D01*
X1409363Y1216525D02*
X1413363Y1220525D01*
X1389363D02*
X1393363Y1216525D01*
X1389363Y1212525D02*
X1393363Y1208525D01*
X1425363Y1144525D02*
X1429363Y1140525D01*
X1397363D02*
X1401363Y1144525D01*
X1425363Y1136525D02*
X1429363Y1132525D01*
X1397363D02*
X1401363Y1136525D01*
X1365363Y1180525D02*
X1369363Y1176525D01*
X1357363Y1180525D02*
X1361363Y1176525D01*
X1836928Y743204D02*
Y745236D01*
X1789430Y792734D02*
Y794766D01*
Y792734D02*
X1836928Y745236D01*
X1297100Y1133120D02*
X1298830Y1134850D01*
X1372870Y977900D02*
X1384248Y966522D01*
Y950874D02*
Y966522D01*
X1616793Y1323558D02*
X1616908Y1323673D01*
X1616678Y1323443D02*
X1616793Y1323558D01*
X1240440Y1206850D02*
X1244346Y1202944D01*
X1232887Y1206850D02*
X1240440D01*
X1232657Y1207080D02*
X1232887Y1206850D01*
X1442466Y995144D02*
X1449885Y1002563D01*
X1442466Y994664D02*
Y995144D01*
X1442855Y986054D02*
Y986655D01*
Y986054D02*
X1450046Y978863D01*
X1442466Y987044D02*
X1442855Y986655D01*
X1336532Y947648D02*
X1349835Y960951D01*
Y985553D01*
X1378029D02*
X1384379Y979203D01*
X1349835Y985553D02*
X1378029D01*
X1336282Y947648D02*
X1336532D01*
X1449885Y1005563D02*
X1453615Y1009293D01*
X1449885Y1002563D02*
Y1005563D01*
X1404601Y991889D02*
X1404620Y991870D01*
X1394357Y991908D02*
X1394376Y991889D01*
X1404601D01*
X1450046Y975863D02*
X1453615Y972293D01*
X1450046Y975863D02*
Y978863D01*
X1365363Y1140525D02*
X1369363Y1144525D01*
X1365363Y1132525D02*
X1369363Y1136525D01*
X1350388Y1034060D02*
X1353868Y1030580D01*
X1350138Y1034060D02*
X1350388D01*
X1353868Y1023318D02*
X1354074Y1023112D01*
X1353868Y1023318D02*
Y1030580D01*
X1284932Y1000842D02*
X1292354Y993420D01*
X1284932Y1000842D02*
Y1006071D01*
X1281202Y1009801D02*
X1284932Y1006071D01*
X1283718Y975318D02*
Y986816D01*
X1281202Y972801D02*
X1283718Y975318D01*
X1336154Y947520D02*
X1336282Y947648D01*
X1317740Y947520D02*
X1336154D01*
X1335266Y931520D02*
X1335902Y930884D01*
X1317740Y931520D02*
X1335266D01*
X1297038Y1133120D02*
X1297100D01*
X1298830Y1134850D02*
Y1146582D01*
X1367284Y1072286D02*
Y1087515D01*
X1367863Y1088094D01*
D23*
X1250440Y717550D02*
D03*
X1234440D02*
D03*
X1237552Y745236D02*
D03*
X1136903Y696556D02*
D03*
X1174876Y684872D02*
D03*
X1265136Y698754D02*
D03*
X1219748Y971226D02*
D03*
Y987977D02*
D03*
X1219748Y1004678D02*
D03*
X1353692Y930148D02*
D03*
X1352282Y947648D02*
D03*
X1219748Y1021476D02*
D03*
X1220009Y1038197D02*
D03*
Y1054995D02*
D03*
X1219748Y1088349D02*
D03*
Y1071551D02*
D03*
Y1122102D02*
D03*
Y1105352D02*
D03*
X1334138Y1034060D02*
D03*
X1219748Y1155679D02*
D03*
Y1138891D02*
D03*
X1282830Y1146582D02*
D03*
X1387728Y887476D02*
D03*
X1253552Y745236D02*
D03*
X1120903Y696556D02*
D03*
X1334376Y914120D02*
D03*
X1371728Y887476D02*
D03*
X1158876Y684872D02*
D03*
X1281136Y698754D02*
D03*
X1158981Y987778D02*
D03*
X1158721Y1155696D02*
D03*
X1158981Y1021339D02*
D03*
Y1071675D02*
D03*
X1284086Y914374D02*
D03*
X1158981Y1122024D02*
D03*
X1158721Y1138908D02*
D03*
X1159242Y1038362D02*
D03*
X1158981Y1004552D02*
D03*
Y1088462D02*
D03*
X1158981Y970998D02*
D03*
X1158981Y1105243D02*
D03*
X1159242Y1055150D02*
D03*
X1350138Y1034060D02*
D03*
X1337692Y930148D02*
D03*
X1336282Y947648D02*
D03*
X1174721Y1155696D02*
D03*
X1203748Y1155679D02*
D03*
X1174981Y1004552D02*
D03*
X1203748Y1004678D02*
D03*
X1409196Y1047776D02*
D03*
X1203748Y1138891D02*
D03*
X1174721Y1138908D02*
D03*
X1174981Y1122024D02*
D03*
X1203748Y1122102D02*
D03*
Y1071551D02*
D03*
X1174981Y1071675D02*
D03*
X1174981Y970998D02*
D03*
X1203748Y971226D02*
D03*
X1407924Y1027623D02*
D03*
X1175241Y1055150D02*
D03*
X1204009Y1054995D02*
D03*
X1203748Y1105352D02*
D03*
X1174981Y1105243D02*
D03*
X1174981Y987778D02*
D03*
X1203748Y987977D02*
D03*
X1174981Y1088462D02*
D03*
X1203748Y1088349D02*
D03*
X1175241Y1038362D02*
D03*
X1204009Y1038197D02*
D03*
X1174981Y1021339D02*
D03*
X1203748Y1021476D02*
D03*
X1281050Y1029147D02*
D03*
X1425196Y1047776D02*
D03*
X1423924Y1027623D02*
D03*
X1298830Y1146582D02*
D03*
X1297050Y1029147D02*
D03*
X1300086Y914374D02*
D03*
X1318376Y914120D02*
D03*
D24*
X1616678Y1408443D02*
D03*
Y1353443D02*
D03*
Y1269251D02*
D03*
X1616898Y1129883D02*
D03*
X1616678Y1214251D02*
D03*
X1616898Y1074883D02*
D03*
X1232152Y1409507D02*
D03*
Y1354506D02*
D03*
X1156392Y1439507D02*
D03*
Y1324506D02*
D03*
X1156897Y1302081D02*
D03*
X1232657Y1272080D02*
D03*
Y1217080D02*
D03*
X1156897Y1187080D02*
D03*
Y1202081D02*
D03*
Y1232080D02*
D03*
Y1257080D02*
D03*
Y1287080D02*
D03*
X1156392Y1339507D02*
D03*
Y1369507D02*
D03*
Y1424506D02*
D03*
Y1394506D02*
D03*
X1232152Y1339507D02*
D03*
Y1394506D02*
D03*
X1232657Y1232080D02*
D03*
Y1257080D02*
D03*
Y1202081D02*
D03*
Y1287080D02*
D03*
X1232152Y1369507D02*
D03*
Y1424506D02*
D03*
X1616898Y1059883D02*
D03*
X1692658Y1044883D02*
D03*
Y1059883D02*
D03*
X1616898Y1089883D02*
D03*
Y1144883D02*
D03*
Y1114883D02*
D03*
X1692658D02*
D03*
Y1089883D02*
D03*
Y1159883D02*
D03*
Y1144883D02*
D03*
X1616678Y1199251D02*
D03*
Y1229251D02*
D03*
X1692438Y1199251D02*
D03*
X1616678Y1254251D02*
D03*
Y1284251D02*
D03*
X1692438Y1254251D02*
D03*
Y1229251D02*
D03*
Y1284251D02*
D03*
X1616678Y1338443D02*
D03*
Y1368443D02*
D03*
Y1393443D02*
D03*
Y1423443D02*
D03*
X1692438Y1338443D02*
D03*
Y1368443D02*
D03*
Y1423443D02*
D03*
Y1393443D02*
D03*
X1156392Y1409507D02*
D03*
Y1354506D02*
D03*
X1692658Y1074883D02*
D03*
Y1129883D02*
D03*
X1692438Y1353443D02*
D03*
Y1408443D02*
D03*
X1156897Y1272080D02*
D03*
Y1217080D02*
D03*
X1692438Y1214251D02*
D03*
Y1269251D02*
D03*
Y1363443D02*
D03*
Y1343443D02*
D03*
Y1373443D02*
D03*
Y1358443D02*
D03*
X1616678Y1194251D02*
D03*
Y1219251D02*
D03*
Y1204251D02*
D03*
Y1259251D02*
D03*
X1692438Y1184251D02*
D03*
X1616678D02*
D03*
Y1299251D02*
D03*
Y1234251D02*
D03*
X1692438Y1249251D02*
D03*
Y1244251D02*
D03*
X1616678Y1279251D02*
D03*
Y1249251D02*
D03*
X1692438Y1294251D02*
D03*
Y1234251D02*
D03*
Y1194251D02*
D03*
X1616678Y1224251D02*
D03*
Y1239251D02*
D03*
Y1294251D02*
D03*
X1692438Y1224251D02*
D03*
Y1274251D02*
D03*
Y1264251D02*
D03*
Y1189251D02*
D03*
X1616678Y1274251D02*
D03*
X1692438Y1219251D02*
D03*
Y1259251D02*
D03*
Y1239251D02*
D03*
Y1204251D02*
D03*
X1616678Y1244251D02*
D03*
Y1209251D02*
D03*
Y1189251D02*
D03*
X1692438Y1209251D02*
D03*
Y1279251D02*
D03*
X1616678Y1264251D02*
D03*
Y1289251D02*
D03*
X1692438Y1299251D02*
D03*
Y1289251D02*
D03*
X1156897Y1207080D02*
D03*
X1616898Y1149883D02*
D03*
Y1119883D02*
D03*
Y1104883D02*
D03*
Y1084883D02*
D03*
Y1124883D02*
D03*
Y1064883D02*
D03*
Y1099883D02*
D03*
Y1079883D02*
D03*
Y1054883D02*
D03*
Y1049883D02*
D03*
Y1139883D02*
D03*
Y1109883D02*
D03*
Y1154883D02*
D03*
Y1069883D02*
D03*
Y1134883D02*
D03*
Y1094883D02*
D03*
Y1159883D02*
D03*
Y1044883D02*
D03*
X1692658Y1084883D02*
D03*
Y1104883D02*
D03*
Y1124883D02*
D03*
Y1064883D02*
D03*
Y1049883D02*
D03*
Y1079883D02*
D03*
Y1099883D02*
D03*
Y1119883D02*
D03*
Y1154883D02*
D03*
Y1139883D02*
D03*
Y1069883D02*
D03*
Y1094883D02*
D03*
Y1149883D02*
D03*
Y1109883D02*
D03*
Y1134883D02*
D03*
Y1054883D02*
D03*
X1616678Y1323443D02*
D03*
Y1438443D02*
D03*
X1156897Y1252081D02*
D03*
Y1297080D02*
D03*
Y1247080D02*
D03*
Y1267080D02*
D03*
Y1292080D02*
D03*
Y1262080D02*
D03*
Y1282080D02*
D03*
Y1277081D02*
D03*
X1156392Y1404506D02*
D03*
Y1429507D02*
D03*
Y1344506D02*
D03*
Y1364506D02*
D03*
Y1399507D02*
D03*
Y1379507D02*
D03*
Y1419507D02*
D03*
Y1334506D02*
D03*
Y1359507D02*
D03*
Y1374506D02*
D03*
Y1389507D02*
D03*
Y1414506D02*
D03*
Y1329507D02*
D03*
Y1434506D02*
D03*
Y1349507D02*
D03*
Y1384506D02*
D03*
X1692438Y1348443D02*
D03*
Y1433443D02*
D03*
Y1398443D02*
D03*
Y1328443D02*
D03*
Y1413443D02*
D03*
Y1418443D02*
D03*
Y1428443D02*
D03*
Y1383443D02*
D03*
Y1333443D02*
D03*
Y1403443D02*
D03*
Y1388443D02*
D03*
Y1378443D02*
D03*
X1616678Y1403443D02*
D03*
Y1363443D02*
D03*
Y1343443D02*
D03*
Y1388443D02*
D03*
Y1398443D02*
D03*
Y1418443D02*
D03*
Y1333443D02*
D03*
Y1358443D02*
D03*
Y1383443D02*
D03*
Y1413443D02*
D03*
Y1378443D02*
D03*
Y1433443D02*
D03*
Y1328443D02*
D03*
Y1348443D02*
D03*
Y1373443D02*
D03*
Y1428443D02*
D03*
X1692438Y1323443D02*
D03*
Y1438443D02*
D03*
X1232152Y1439507D02*
D03*
Y1324506D02*
D03*
X1232657Y1187080D02*
D03*
Y1302081D02*
D03*
X1232152Y1349507D02*
D03*
Y1364506D02*
D03*
Y1384506D02*
D03*
Y1344506D02*
D03*
Y1419507D02*
D03*
Y1389507D02*
D03*
Y1374506D02*
D03*
Y1329507D02*
D03*
Y1429507D02*
D03*
Y1379507D02*
D03*
Y1399507D02*
D03*
Y1334506D02*
D03*
Y1359507D02*
D03*
Y1404506D02*
D03*
Y1434506D02*
D03*
Y1414506D02*
D03*
X1156897Y1242080D02*
D03*
Y1212080D02*
D03*
Y1192080D02*
D03*
Y1237080D02*
D03*
Y1227081D02*
D03*
Y1197080D02*
D03*
Y1222080D02*
D03*
X1232657Y1207080D02*
D03*
Y1192080D02*
D03*
Y1267080D02*
D03*
Y1292080D02*
D03*
Y1222080D02*
D03*
Y1197080D02*
D03*
Y1242080D02*
D03*
Y1262080D02*
D03*
Y1282080D02*
D03*
Y1237080D02*
D03*
Y1212080D02*
D03*
Y1252081D02*
D03*
Y1277081D02*
D03*
Y1247080D02*
D03*
Y1227081D02*
D03*
Y1297080D02*
D03*
D25*
X1232666Y731266D02*
D03*
X1232412Y758698D02*
D03*
X1248912D02*
D03*
X1249166Y731266D02*
D03*
D26*
X1218946Y713128D02*
D03*
X1187450Y712970D02*
D03*
X1489966Y1101627D02*
D03*
X1521896Y1355112D02*
D03*
X1520626Y1445816D02*
D03*
X1536882Y1355620D02*
D03*
Y1367620D02*
D03*
X1142268Y886066D02*
D03*
X1218946Y701128D02*
D03*
X1228090Y805022D02*
D03*
X1208532Y804768D02*
D03*
X1187450Y700970D02*
D03*
X1228090Y817022D02*
D03*
X1208532Y816768D02*
D03*
X1445516Y1072256D02*
D03*
X1521896Y1367112D02*
D03*
X1489966Y1113627D02*
D03*
X1142268Y898065D02*
D03*
X1306070Y1109148D02*
D03*
X1445516Y1084256D02*
D03*
X1520626Y1433816D02*
D03*
X1306070Y1097148D02*
D03*
D27*
X1210783Y764223D02*
D03*
Y772223D02*
D03*
D28*
X1175313Y746379D02*
D03*
X1180485Y788035D02*
D03*
X1158785D02*
D03*
X1153613Y746379D02*
D03*
D29*
X1203706Y713700D02*
D03*
Y697700D02*
D03*
X1246378Y818514D02*
D03*
X1367284Y1056286D02*
D03*
X1292608Y1112418D02*
D03*
X1246378Y802514D02*
D03*
X1317740Y947520D02*
D03*
Y931520D02*
D03*
X1537644Y1450356D02*
D03*
X1314450Y1045021D02*
D03*
X1537644Y1434356D02*
D03*
X1367284Y1072286D02*
D03*
X1314450Y1029021D02*
D03*
X1292608Y1096418D02*
D03*
D30*
X1172511Y726821D02*
D03*
X1162511D02*
D03*
D31*
X1072099Y751857D02*
D03*
Y769757D02*
D03*
D32*
X1132551Y732991D02*
D03*
X1093181Y760513D02*
D03*
X1381160Y1081362D02*
D03*
X1307874Y1284994D02*
D03*
X1317500Y1285102D02*
D03*
X1326390D02*
D03*
X1390050Y1081272D02*
D03*
X1398940Y1081182D02*
D03*
X1317500Y1277302D02*
D03*
X1326390D02*
D03*
X1307874Y1277194D02*
D03*
X1398940Y1088982D02*
D03*
X1390050Y1089072D02*
D03*
X1381160Y1089162D02*
D03*
X1093181Y768313D02*
D03*
X1132551Y740791D02*
D03*
D33*
X1116429Y797433D02*
D03*
X1101429D02*
D03*
X1118207Y738505D02*
D03*
X1103207D02*
D03*
D34*
X1138423Y769493D02*
D03*
X1110423Y759493D02*
D03*
Y779493D02*
D03*
Y774493D02*
D03*
Y764493D02*
D03*
X1138423Y779493D02*
D03*
Y759493D02*
D03*
Y764493D02*
D03*
Y774493D02*
D03*
X1110423Y769493D02*
D03*
D35*
X1138483Y813689D02*
D03*
X1130683D02*
D03*
D36*
X1167790Y664552D02*
D03*
X1186790D02*
D03*
D37*
X1196340Y822888D02*
D03*
Y813888D02*
D03*
D38*
X1122697Y889648D02*
D03*
X1095197D02*
D03*
X1122697Y899148D02*
D03*
X1095197D02*
D03*
Y880148D02*
D03*
X1122697D02*
D03*
D39*
X1190052Y892302D02*
D03*
X1372888Y1375464D02*
D03*
Y1362510D02*
D03*
X1506989Y1204147D02*
D03*
X1557730Y1447266D02*
D03*
X1569730D02*
D03*
X1569298Y1433502D02*
D03*
X1535770Y1380162D02*
D03*
X1491394Y1394994D02*
D03*
X1487582Y1342898D02*
D03*
X1027272Y1406652D02*
D03*
X1071470Y1406424D02*
D03*
X1178052Y892302D02*
D03*
X1063431Y918577D02*
D03*
X1134648Y863714D02*
D03*
X1063686Y861173D02*
D03*
X1174400Y700620D02*
D03*
X1162400D02*
D03*
X1523770Y1380162D02*
D03*
X1479394Y1394994D02*
D03*
X1506888Y1192810D02*
D03*
X1475582Y1342898D02*
D03*
X1384888Y1375464D02*
D03*
Y1362510D02*
D03*
X1494886Y1180592D02*
D03*
X1506886D02*
D03*
X1083470Y1406424D02*
D03*
X1039272Y1406652D02*
D03*
X1494989Y1204147D02*
D03*
X1051685Y861173D02*
D03*
X1122647Y863714D02*
D03*
X1051432Y918577D02*
D03*
X1357982Y1088162D02*
D03*
X1494888Y1192810D02*
D03*
X1310038Y1133120D02*
D03*
X1557298Y1433502D02*
D03*
X1298038Y1133120D02*
D03*
X1369982Y1088162D02*
D03*
D40*
X1265936Y818784D02*
D03*
X1301242Y857234D02*
D03*
X1265936Y804784D02*
D03*
X1301242Y871234D02*
D03*
D41*
X1339857Y991908D02*
D03*
X1394357D02*
D03*
X1339857Y998258D02*
D03*
Y1010958D02*
D03*
Y972858D02*
D03*
Y979208D02*
D03*
X1394357Y985558D02*
D03*
Y972858D02*
D03*
Y1010958D02*
D03*
Y1004608D02*
D03*
X1339857Y985558D02*
D03*
Y1004608D02*
D03*
X1394357Y998258D02*
D03*
Y979208D02*
D03*
X1339857Y1017308D02*
D03*
X1394357D02*
D03*
D42*
X1329363Y1104525D02*
D03*
X1369363D02*
D03*
X1377363D02*
D03*
X1369363Y1112525D02*
D03*
X1377363D02*
D03*
X1329363Y1144525D02*
D03*
X1337363Y1136525D02*
D03*
Y1144525D02*
D03*
X1329363Y1152525D02*
D03*
X1361363Y1136525D02*
D03*
Y1144525D02*
D03*
X1377363D02*
D03*
Y1136525D02*
D03*
X1361363Y1152525D02*
D03*
Y1168525D02*
D03*
X1369363D02*
D03*
Y1152525D02*
D03*
X1329363Y1248525D02*
D03*
X1361363Y1184525D02*
D03*
Y1208525D02*
D03*
X1369363Y1184525D02*
D03*
Y1208525D02*
D03*
X1361363Y1216525D02*
D03*
X1369363D02*
D03*
X1385363Y1144525D02*
D03*
Y1136525D02*
D03*
X1409363Y1144525D02*
D03*
X1385363Y1160525D02*
D03*
X1393363D02*
D03*
X1401363D02*
D03*
X1409363D02*
D03*
X1433363Y1136525D02*
D03*
X1441363D02*
D03*
X1417363Y1144525D02*
D03*
Y1160525D02*
D03*
X1433363D02*
D03*
Y1144525D02*
D03*
X1441363D02*
D03*
Y1160525D02*
D03*
X1385363Y1168525D02*
D03*
Y1176525D02*
D03*
X1393363D02*
D03*
X1401363Y1168525D02*
D03*
X1393363D02*
D03*
X1401363Y1176525D02*
D03*
X1385363Y1184525D02*
D03*
Y1192525D02*
D03*
X1393363Y1184525D02*
D03*
X1401363D02*
D03*
X1393363Y1192525D02*
D03*
X1401363D02*
D03*
X1409363Y1168525D02*
D03*
X1417363D02*
D03*
X1409363Y1176525D02*
D03*
X1417363D02*
D03*
X1441363D02*
D03*
X1433363D02*
D03*
X1409363Y1184525D02*
D03*
Y1192525D02*
D03*
X1417363Y1184525D02*
D03*
X1433363Y1192525D02*
D03*
X1441363D02*
D03*
X1417363D02*
D03*
X1465363D02*
D03*
Y1168525D02*
D03*
X1473363Y1104525D02*
D03*
Y1192525D02*
D03*
X1417363Y1208525D02*
D03*
X1385363D02*
D03*
X1433363D02*
D03*
X1385363Y1216525D02*
D03*
X1401363Y1248525D02*
D03*
X1417363Y1216525D02*
D03*
X1433363D02*
D03*
X1449363Y1200525D02*
D03*
X1441363Y1208525D02*
D03*
X1457363Y1200525D02*
D03*
X1441363Y1216525D02*
D03*
X1473363Y1248525D02*
D03*
X1465363D02*
D03*
X1449363Y1216525D02*
D03*
Y1208525D02*
D03*
X1473363Y1112525D02*
D03*
X1449363Y1192525D02*
D03*
X1457363D02*
D03*
X1441363Y1152525D02*
D03*
Y1168525D02*
D03*
X1393363Y1248525D02*
D03*
X1425363Y1216525D02*
D03*
X1401363D02*
D03*
X1377363D02*
D03*
Y1208525D02*
D03*
X1425363D02*
D03*
X1401363D02*
D03*
X1433363Y1168525D02*
D03*
X1369363Y1192525D02*
D03*
Y1160525D02*
D03*
Y1200525D02*
D03*
X1361363D02*
D03*
Y1160525D02*
D03*
X1353363Y1208525D02*
D03*
X1361363Y1192525D02*
D03*
X1353363Y1200525D02*
D03*
X1329363Y1240525D02*
D03*
Y1160525D02*
D03*
X1433363Y1152525D02*
D03*
X1393363Y1144525D02*
D03*
Y1136525D02*
D03*
X1417363D02*
D03*
X1409363D02*
D03*
X1385363Y1104525D02*
D03*
X1425363D02*
D03*
X1433363D02*
D03*
Y1112525D02*
D03*
X1441363D02*
D03*
Y1200525D02*
D03*
Y1184525D02*
D03*
X1433363Y1200525D02*
D03*
Y1184525D02*
D03*
X1393363Y1216525D02*
D03*
X1409363D02*
D03*
X1393363Y1208525D02*
D03*
X1409363D02*
D03*
X1425363Y1144525D02*
D03*
X1401363D02*
D03*
X1425363Y1136525D02*
D03*
X1401363D02*
D03*
X1369363Y1176525D02*
D03*
X1361363D02*
D03*
X1473363Y1208525D02*
D03*
X1409363Y1232525D02*
D03*
X1449363Y1104525D02*
D03*
X1473363Y1176525D02*
D03*
X1457363Y1232525D02*
D03*
X1433363Y1240525D02*
D03*
X1457363Y1152525D02*
D03*
X1465363Y1136525D02*
D03*
X1441363Y1240525D02*
D03*
X1465363Y1152525D02*
D03*
X1433363Y1248525D02*
D03*
X1473363Y1144525D02*
D03*
X1441363Y1232525D02*
D03*
X1409363Y1224525D02*
D03*
Y1104525D02*
D03*
X1441363Y1224525D02*
D03*
X1449363Y1152525D02*
D03*
X1433363Y1232525D02*
D03*
X1473363Y1136525D02*
D03*
Y1120525D02*
D03*
X1457363Y1112525D02*
D03*
X1353363Y1160525D02*
D03*
Y1168525D02*
D03*
X1401363Y1232525D02*
D03*
X1393363D02*
D03*
X1449363Y1224525D02*
D03*
X1393363Y1120525D02*
D03*
X1457363Y1216525D02*
D03*
X1473363Y1168525D02*
D03*
X1401363Y1128525D02*
D03*
X1345363Y1184525D02*
D03*
X1385363Y1120525D02*
D03*
X1353363Y1224525D02*
D03*
X1425363D02*
D03*
X1417363Y1232525D02*
D03*
X1465363Y1216525D02*
D03*
X1473363Y1152525D02*
D03*
X1457363Y1128525D02*
D03*
X1417363Y1120525D02*
D03*
Y1112525D02*
D03*
X1345363Y1160525D02*
D03*
X1361363Y1232525D02*
D03*
X1393363Y1224525D02*
D03*
X1425363Y1248525D02*
D03*
X1465363Y1224525D02*
D03*
Y1176525D02*
D03*
X1401363Y1120525D02*
D03*
X1417363Y1224525D02*
D03*
X1337363Y1152525D02*
D03*
Y1168525D02*
D03*
X1385363Y1112525D02*
D03*
X1401363Y1224525D02*
D03*
X1449363Y1248525D02*
D03*
X1465363Y1208525D02*
D03*
X1473363Y1160525D02*
D03*
X1393363Y1112525D02*
D03*
X1417363Y1128525D02*
D03*
X1361363Y1224525D02*
D03*
X1417363Y1248525D02*
D03*
X1425363Y1240525D02*
D03*
X1465363Y1112525D02*
D03*
X1449363Y1136525D02*
D03*
X1465363Y1128525D02*
D03*
X1353363Y1152525D02*
D03*
X1337363Y1160525D02*
D03*
X1385363Y1248525D02*
D03*
X1393363Y1240525D02*
D03*
X1457363Y1208525D02*
D03*
Y1224525D02*
D03*
X1401363Y1112525D02*
D03*
X1393363Y1104525D02*
D03*
X1385363Y1128525D02*
D03*
X1401363Y1240525D02*
D03*
X1417363D02*
D03*
X1465363Y1160525D02*
D03*
X1473363Y1128525D02*
D03*
X1393363D02*
D03*
X1345363Y1152525D02*
D03*
X1401363Y1104525D02*
D03*
X1353363Y1232525D02*
D03*
X1385363Y1240525D02*
D03*
X1425363Y1232525D02*
D03*
X1433363Y1224525D02*
D03*
X1465363Y1104525D02*
D03*
X1441363Y1128525D02*
D03*
X1465363Y1120525D02*
D03*
X1449363Y1184525D02*
D03*
Y1176525D02*
D03*
X1473363Y1216525D02*
D03*
X1441363Y1248525D02*
D03*
X1329363Y1192525D02*
D03*
X1409363Y1240525D02*
D03*
X1457363D02*
D03*
X1409363Y1248525D02*
D03*
X1457363Y1104525D02*
D03*
Y1136525D02*
D03*
X1361363Y1240525D02*
D03*
X1369363Y1232525D02*
D03*
X1345363Y1192525D02*
D03*
X1353363Y1248525D02*
D03*
X1345363Y1240525D02*
D03*
X1329363Y1184525D02*
D03*
X1369363Y1224525D02*
D03*
X1465363Y1232525D02*
D03*
X1353363Y1240525D02*
D03*
X1441363Y1120525D02*
D03*
X1337363Y1184525D02*
D03*
X1465363Y1200525D02*
D03*
X1337363Y1192525D02*
D03*
X1465363Y1240525D02*
D03*
X1345363Y1248525D02*
D03*
X1473363Y1224525D02*
D03*
Y1232525D02*
D03*
X1449363Y1168525D02*
D03*
X1457363Y1144525D02*
D03*
X1449363Y1128525D02*
D03*
X1433363D02*
D03*
X1457363Y1184525D02*
D03*
X1465363Y1144525D02*
D03*
X1449363D02*
D03*
Y1112525D02*
D03*
X1457363Y1160525D02*
D03*
X1449363Y1120525D02*
D03*
X1473363Y1240525D02*
D03*
X1329363Y1232525D02*
D03*
X1337363Y1200525D02*
D03*
X1377363Y1224525D02*
D03*
X1385363D02*
D03*
X1345363D02*
D03*
X1337363Y1232525D02*
D03*
X1345363Y1200525D02*
D03*
X1369363Y1248525D02*
D03*
X1377363D02*
D03*
Y1232525D02*
D03*
X1329363Y1224525D02*
D03*
X1337363Y1240525D02*
D03*
X1377363D02*
D03*
X1369363D02*
D03*
X1385363Y1232525D02*
D03*
X1337363Y1224525D02*
D03*
X1433363Y1120525D02*
D03*
X1329363Y1208525D02*
D03*
X1425363Y1120525D02*
D03*
X1329363Y1200525D02*
D03*
X1345363Y1232525D02*
D03*
X1425363Y1128525D02*
D03*
X1337363Y1248525D02*
D03*
X1473363Y1200525D02*
D03*
X1409363Y1120525D02*
D03*
X1369363Y1144525D02*
D03*
Y1136525D02*
D03*
X1409363Y1112525D02*
D03*
X1337363Y1216525D02*
D03*
X1345363Y1208525D02*
D03*
X1329363Y1176525D02*
D03*
X1409363Y1128525D02*
D03*
X1353363Y1104525D02*
D03*
Y1112525D02*
D03*
X1377363Y1120525D02*
D03*
X1337363Y1112525D02*
D03*
X1345363Y1104525D02*
D03*
X1353363Y1144525D02*
D03*
X1377363Y1128525D02*
D03*
X1353363Y1136525D02*
D03*
X1337363Y1208525D02*
D03*
X1345363Y1216525D02*
D03*
X1353363D02*
D03*
Y1184525D02*
D03*
X1329363Y1216525D02*
D03*
X1353363Y1176525D02*
D03*
X1369363Y1128525D02*
D03*
X1329363Y1120525D02*
D03*
X1441363Y1104525D02*
D03*
X1457363Y1248525D02*
D03*
X1361363Y1112525D02*
D03*
X1329363Y1136525D02*
D03*
X1449363Y1240525D02*
D03*
X1457363Y1176525D02*
D03*
Y1168525D02*
D03*
X1449363Y1232525D02*
D03*
X1457363Y1120525D02*
D03*
X1369363D02*
D03*
X1361363Y1128525D02*
D03*
X1345363Y1136525D02*
D03*
Y1144525D02*
D03*
X1337363Y1120525D02*
D03*
Y1128525D02*
D03*
X1353363D02*
D03*
Y1120525D02*
D03*
X1361363Y1104525D02*
D03*
X1329363Y1112525D02*
D03*
X1353363Y1192525D02*
D03*
X1465363Y1184525D02*
D03*
X1473363D02*
D03*
X1425363Y1112525D02*
D03*
X1417363Y1104525D02*
D03*
X1361363Y1248525D02*
D03*
X1449363Y1160525D02*
D03*
X1345363Y1128525D02*
D03*
Y1120525D02*
D03*
Y1112525D02*
D03*
X1337363Y1104525D02*
D03*
X1329363Y1128525D02*
D03*
X1337363Y1176525D02*
D03*
X1345363D02*
D03*
X1329363Y1168525D02*
D03*
X1345363D02*
D03*
X1361363Y1120525D02*
D03*
D43*
X1530024Y1391812D02*
D03*
X1567870Y1391558D02*
D03*
X1577370Y1419058D02*
D03*
X1567870D02*
D03*
X1539524Y1419312D02*
D03*
Y1391812D02*
D03*
X1530024Y1419312D02*
D03*
X1577370Y1391558D02*
D03*
X1520524Y1391812D02*
D03*
X1558370Y1391558D02*
D03*
Y1419058D02*
D03*
X1520524Y1419312D02*
D03*
D44*
X1559666Y1341098D02*
D03*
Y1375099D02*
D03*
D45*
X1576165Y1358098D02*
D03*
D46*
X1371248Y950874D02*
D03*
Y906374D02*
D03*
X1377748D02*
D03*
Y950874D02*
D03*
X1390748D02*
D03*
X1384248Y906374D02*
D03*
X1390748D02*
D03*
X1384248Y950874D02*
D03*
D47*
X1715934Y750150D02*
D03*
X1733835D02*
D03*
D48*
X1290320Y830838D02*
D03*
Y847338D02*
D03*
D49*
X1013425Y770509D02*
D03*
D50*
X1036793D02*
D03*
D51*
X1085307Y796417D02*
D03*
X1076307D02*
D03*
X1116223Y813181D02*
D03*
X1107223D02*
D03*
D52*
X1478710Y1374956D02*
D03*
Y1362256D02*
D03*
X1402511D02*
D03*
Y1374956D02*
D03*
D53*
X1402590Y1277258D02*
D03*
X1422402Y1292004D02*
D03*
X1402590Y1292258D02*
D03*
X1422402Y1277004D02*
D03*
D54*
X1046885Y900824D02*
D03*
X1067885D02*
D03*
X1046971Y878726D02*
D03*
X1067971D02*
D03*
D55*
X1453615Y1009293D02*
D03*
Y972293D02*
D03*
X1281202Y1009801D02*
D03*
Y972801D02*
D03*
X1418616Y972293D02*
D03*
Y1009293D02*
D03*
X1436116D02*
D03*
Y972293D02*
D03*
X1316202Y1009801D02*
D03*
Y972801D02*
D03*
X1298702D02*
D03*
Y1009801D02*
D03*
D98*
X1124423Y769493D02*
D03*
D99*
X1236360Y713470D02*
Y713720D01*
X1232154Y717677D02*
X1232404D01*
X1236360Y713720D01*
X1269222Y794258D02*
X1403604D01*
X1233662Y758698D02*
X1269222Y794258D01*
X1232412Y758698D02*
X1233662D01*
X1072099Y751857D02*
X1072378Y751578D01*
X1130173Y769493D02*
X1138423D01*
X1232049Y1424609D02*
X1232152Y1424506D01*
X1144206Y769810D02*
X1144524Y770128D01*
X1138423Y769493D02*
X1143889D01*
X1144206Y769810D01*
X1570482Y1462278D02*
X1580896Y1451864D01*
Y1436116D02*
Y1451864D01*
X1578282Y1433502D02*
X1580896Y1436116D01*
X1569298Y1433502D02*
X1578282D01*
X1110423Y753267D02*
Y759493D01*
Y753267D02*
X1110961Y752729D01*
X1110423Y785818D02*
X1111098Y786493D01*
X1113529Y788924D01*
X1110423Y779493D02*
Y785818D01*
X1105199Y764493D02*
X1110423D01*
X1103595Y762889D02*
X1105199Y764493D01*
X1130683Y806921D02*
Y813689D01*
X1120493Y740791D02*
X1132551D01*
X1140933D01*
X1118073Y738639D02*
X1118207Y738505D01*
X1148034Y762254D02*
X1148842D01*
X1145796Y764493D02*
X1148034Y762254D01*
X1138423Y764493D02*
X1145796D01*
X1146601Y774493D02*
X1152363Y768731D01*
X1154557Y726821D02*
X1162511D01*
X1154303Y726567D02*
X1154557Y726821D01*
X1162431Y700651D02*
Y710145D01*
X1162400Y700620D02*
X1162431Y700651D01*
X1349363Y1212525D02*
X1353363Y1208525D01*
X1334376Y914120D02*
X1338212Y917956D01*
X1373367D01*
X1377411Y913912D01*
Y904410D02*
X1377719Y904102D01*
X1377411Y904410D02*
Y913912D01*
X1371248Y887956D02*
Y906374D01*
X1165098Y864362D02*
X1187704D01*
X1129284Y828548D02*
X1165098Y864362D01*
X1073404Y814070D02*
X1087882Y828548D01*
X1129284D01*
X1218946Y687708D02*
Y701128D01*
X1194774Y663536D02*
X1218946Y687708D01*
X1185774Y663536D02*
X1194774D01*
X1252564Y945896D02*
X1284086Y914374D01*
X1152906Y945896D02*
X1252564D01*
X1130429Y813435D02*
X1130683Y813689D01*
X1116859Y813435D02*
X1130429D01*
X1187100Y700620D02*
X1187450Y700970D01*
X1158876Y684872D02*
X1162400Y688396D01*
Y700620D01*
X1174400D02*
X1187100D01*
X1085307Y796417D02*
X1100413D01*
X1104350Y776351D02*
Y795507D01*
X1113529Y788924D02*
X1135126D01*
X1118207Y738505D02*
X1120493Y740791D01*
X1104350Y776351D02*
X1106053Y774648D01*
X1110423D01*
X1076307Y796167D02*
X1078014Y794461D01*
X1076307Y796167D02*
Y796417D01*
X1102260Y798048D02*
X1103544Y796313D01*
X1101775Y798703D02*
X1102260Y798048D01*
X1103544Y796313D02*
X1104350Y795507D01*
X1103086Y794931D02*
Y795776D01*
X1101429Y797433D02*
X1103086Y795776D01*
X1100413Y796417D02*
X1101429Y797433D01*
X1138423Y774493D02*
X1146601D01*
X1135126Y788924D02*
X1160090Y813888D01*
X1152667Y779493D02*
X1158023Y784849D01*
X1138423Y779493D02*
X1152667D01*
X1158023Y784849D02*
Y786257D01*
X1227932Y816864D02*
X1228090Y817022D01*
X1196086Y812364D02*
X1200586Y816864D01*
X1227932D01*
X1160090Y813888D02*
X1196340D01*
X1158531Y745871D02*
Y750821D01*
X1142393Y755523D02*
X1155861D01*
X1156369Y752983D02*
X1158531Y750821D01*
X1138423Y759493D02*
X1142393Y755523D01*
X1429363Y1065707D02*
X1467358Y1027712D01*
X1481582Y938276D02*
X1482390D01*
X1429363Y1065707D02*
Y1100525D01*
X1467358Y952500D02*
Y1027712D01*
X1425363Y1104525D02*
X1429363Y1100525D01*
X1482390Y938276D02*
X1483787Y939673D01*
X1565910D02*
X1566037Y939800D01*
X1467358Y952500D02*
X1481582Y938276D01*
X1483787Y939673D02*
X1565910D01*
X1445516Y1064286D02*
X1478280Y1031522D01*
Y962406D02*
Y1031522D01*
X1445516Y1064286D02*
Y1072256D01*
X1551559Y950722D02*
X1566037Y965200D01*
X1433363Y1104525D02*
X1437363Y1100525D01*
X1472438Y957834D02*
Y1029998D01*
Y957834D02*
X1479550Y950722D01*
X1437363Y1065073D02*
X1472438Y1029998D01*
X1437363Y1065073D02*
Y1100525D01*
X1479550Y950722D02*
X1551559D01*
X1433363Y1112525D02*
X1437363Y1108525D01*
X1441363Y1112525D02*
X1445363Y1108525D01*
X1577370Y1389558D02*
Y1391558D01*
X1588262Y1341628D02*
Y1378666D01*
X1577370Y1389558D02*
X1588262Y1378666D01*
X1517650Y1271016D02*
X1588262Y1341628D01*
X1517650Y1215898D02*
Y1271016D01*
Y1215898D02*
X1520190Y1213358D01*
X1521896Y1378288D02*
X1523770Y1380162D01*
X1529082Y1406678D02*
X1547088D01*
X1551942Y1372323D02*
X1554718Y1375099D01*
X1519690Y1363906D02*
X1521896Y1366112D01*
X1520524Y1391812D02*
X1521673Y1392961D01*
X1556163Y1393764D02*
X1558370Y1391558D01*
X1512316Y1357532D02*
X1518690Y1363906D01*
X1520524Y1383409D02*
Y1391812D01*
X1547088Y1406678D02*
X1556163Y1397603D01*
X1521673Y1392961D02*
Y1399269D01*
X1529082Y1406678D01*
X1554718Y1375099D02*
X1559666D01*
X1518690Y1363906D02*
X1519690D01*
X1558370Y1376395D02*
Y1391558D01*
Y1376395D02*
X1559666Y1375099D01*
X1512316Y1342703D02*
Y1357532D01*
X1521896Y1366112D02*
Y1367112D01*
X1556163Y1393764D02*
Y1397603D01*
X1473363Y1208525D02*
X1477363Y1212525D01*
X1521896Y1367112D02*
Y1378288D01*
X1122697Y899148D02*
X1142588D01*
X1122697Y905019D02*
X1148715Y931037D01*
X1122697Y899148D02*
Y905019D01*
X1485138Y1182370D02*
X1493108D01*
X1494886Y1180592D01*
X1566830Y1208055D02*
Y1208055D01*
X1577467Y1218692D02*
X1616119D01*
X1566830Y1208055D02*
X1577467Y1218692D01*
X1556766Y1197991D02*
X1566830Y1208055D01*
X1714557Y1333443D02*
X1753616Y1294384D01*
X1801663D01*
X1754152Y1302512D02*
X1801651D01*
X1708221Y1348443D02*
X1754152Y1302512D01*
X1711227Y1363443D02*
X1764284Y1310386D01*
X1801293D01*
X1771650Y1318514D02*
X1801051D01*
X1711721Y1378443D02*
X1771650Y1318514D01*
X1692438Y1363443D02*
X1711227D01*
X1692438Y1378443D02*
X1711721D01*
X1772948Y1326134D02*
X1801368D01*
X1736090Y1362992D02*
Y1362992D01*
Y1362992D02*
X1772948Y1326134D01*
X1710639Y1388443D02*
X1736090Y1362992D01*
X1780540Y1334516D02*
X1801104D01*
X1711613Y1403443D02*
X1780540Y1334516D01*
X1786636Y1342136D02*
X1800606D01*
X1792478Y1350264D02*
X1800352D01*
X1692438Y1433443D02*
X1709299D01*
X1792478Y1350264D01*
X1710329Y1418443D02*
X1786636Y1342136D01*
X1794367Y1366123D02*
X1815592Y1387348D01*
Y1461262D01*
X1409363Y1232525D02*
X1413363Y1236525D01*
X1692438Y1343443D02*
X1692773Y1343778D01*
X1704007D02*
X1704342Y1344113D01*
X1692773Y1343778D02*
X1704007D01*
X1692438Y1373443D02*
X1692787Y1373791D01*
X1706785D02*
X1707134Y1374140D01*
X1692787Y1373791D02*
X1706785D01*
X1692666Y1358672D02*
X1706906D01*
X1692639Y1358644D02*
X1692666Y1358672D01*
X1706906D02*
X1707134Y1358900D01*
X1155686Y1378800D02*
X1156105Y1379220D01*
X1147406Y1378800D02*
X1155686D01*
X1143856Y1375250D02*
X1147406Y1378800D01*
X1137252Y1375250D02*
X1143856D01*
X1135126Y1373124D02*
X1137252Y1375250D01*
X1521714Y1139952D02*
X1561338Y1179576D01*
Y1194816D01*
X1583379Y1194251D02*
X1616678D01*
X1502156Y1113028D02*
X1583379Y1194251D01*
X1502156Y1100328D02*
Y1113028D01*
X1616898Y1171890D02*
X1641806Y1196797D01*
X1616898Y1159883D02*
Y1171890D01*
X1661180Y1299230D02*
X1692418D01*
X1661160Y1299210D02*
X1661180Y1299230D01*
X1692418D02*
X1692438Y1299251D01*
X1648714Y1089406D02*
Y1405599D01*
X1546860Y1132840D02*
X1554817Y1124883D01*
X1623869Y1184957D02*
X1639824Y1200912D01*
X1614114Y1184957D02*
X1623869D01*
X1639824Y1200912D02*
Y1284478D01*
X1449363Y1104525D02*
X1453363Y1100525D01*
X1487424Y1085596D02*
X1502156Y1100328D01*
X1468292Y1085596D02*
X1487424D01*
X1453363Y1100525D02*
X1468292Y1085596D01*
X1473363Y1176525D02*
X1477363Y1180525D01*
X1616119Y1218692D02*
X1616678Y1219251D01*
X1616315Y1204613D02*
X1616678Y1204251D01*
X1600708Y1204613D02*
X1616315D01*
X1457363Y1232525D02*
X1461363Y1236525D01*
X1604264Y1258570D02*
X1604604Y1258911D01*
X1433363Y1240525D02*
X1437363Y1244525D01*
X1604604Y1258911D02*
X1614876D01*
X1615217Y1259251D01*
X1702994Y1183921D02*
X1703324Y1183592D01*
X1692768Y1183921D02*
X1702994D01*
X1457363Y1152525D02*
X1461363Y1148525D01*
X1692438Y1184251D02*
X1692768Y1183921D01*
X1625757Y1298545D02*
X1639824Y1284478D01*
X1550924Y1151128D02*
X1584047Y1184251D01*
X1616530Y1299103D02*
X1616678Y1299251D01*
X1550924Y1150874D02*
Y1151128D01*
X1597152Y1298956D02*
X1597660D01*
X1616678Y1299251D02*
X1617384Y1298545D01*
X1613408Y1184251D02*
X1614114Y1184957D01*
X1597660Y1298956D02*
X1597807Y1299103D01*
X1616530D01*
X1465363Y1136525D02*
X1469363Y1132525D01*
X1584047Y1184251D02*
X1613408D01*
X1617384Y1298545D02*
X1625757D01*
X1648714Y1405599D02*
X1681558Y1438443D01*
X1441363Y1240525D02*
X1445363Y1244525D01*
X1604518Y1233678D02*
X1604804Y1233964D01*
X1615755D02*
X1616136Y1234345D01*
X1604804Y1233964D02*
X1615755D01*
X1692438Y1249251D02*
X1758899D01*
X1802108Y1206042D01*
X1704393Y1244413D02*
X1704555Y1244576D01*
X1692622Y1244398D02*
X1692637Y1244413D01*
X1704393D01*
X1539748Y1175766D02*
Y1212774D01*
X1465363Y1152525D02*
X1469363Y1148525D01*
X1606225Y1279251D02*
X1616678D01*
X1539748Y1212774D02*
X1606225Y1279251D01*
X1513078Y1149096D02*
X1539748Y1175766D01*
X1433363Y1248525D02*
X1437363Y1252525D01*
X1595628Y1252220D02*
X1603575D01*
X1606571Y1249224D02*
X1617168D01*
X1603575Y1252220D02*
X1606571Y1249224D01*
X1692438Y1294410D02*
X1737870D01*
X1801854Y1230426D01*
X1692706Y1234206D02*
X1693100Y1234599D01*
X1706277D01*
X1706626Y1234948D01*
X1692438Y1194080D02*
X1782066D01*
X1802132Y1174014D01*
X1550670Y1199642D02*
X1575446Y1224418D01*
X1550670Y1178052D02*
Y1199642D01*
X1512824Y1140206D02*
X1550670Y1178052D01*
X1473363Y1144525D02*
X1477363Y1140525D01*
X1499108Y1140206D02*
X1512824D01*
X1575446Y1224418D02*
X1616678D01*
X1595385Y1239251D02*
X1616678D01*
X1592072Y1235964D02*
X1592098D01*
X1595385Y1239251D01*
X1441363Y1232525D02*
X1445363Y1236525D01*
X1597914Y1284478D02*
X1606980Y1293544D01*
X1615935D02*
X1616563Y1294172D01*
X1409363Y1224525D02*
X1413363Y1228525D01*
X1606980Y1293544D02*
X1615935D01*
X1802132Y1189762D02*
X1802386D01*
X1767897Y1224251D02*
X1802386Y1189762D01*
X1692438Y1224251D02*
X1767897D01*
X1692254Y1274284D02*
X1706846D01*
X1692227Y1274257D02*
X1692254Y1274284D01*
X1706846D02*
X1706880Y1274318D01*
X1692438Y1264251D02*
X1751773D01*
X1802132Y1213892D01*
X1692463Y1189240D02*
X1706360D01*
X1706372Y1189228D01*
X1692451Y1189227D02*
X1692463Y1189240D01*
X1604518Y1271524D02*
X1607245Y1274251D01*
X1616678D01*
X1409363Y1104525D02*
X1413363Y1100525D01*
X1692830Y1219606D02*
X1706779D01*
X1707134Y1219962D01*
X1692437Y1219213D02*
X1692830Y1219606D01*
X1692690Y1259279D02*
X1692829Y1259418D01*
X1706967D01*
X1707134Y1259586D01*
X1761025Y1239251D02*
X1802132Y1198144D01*
X1692438Y1239251D02*
X1761025D01*
X1707025Y1204359D02*
X1707134Y1204468D01*
X1692444Y1204220D02*
X1692583Y1204359D01*
X1707025D01*
X1603802Y1245870D02*
X1605421Y1244251D01*
X1602994Y1245870D02*
X1603802D01*
X1605421Y1244251D02*
X1616642D01*
X1441363Y1224525D02*
X1445363Y1228525D01*
X1561338Y1194816D02*
X1575773Y1209251D01*
X1616678D01*
X1449363Y1152525D02*
X1453363Y1148525D01*
X1633681Y1202135D02*
X1634236Y1202690D01*
X1633681Y1199819D02*
Y1202135D01*
X1506220Y1251458D02*
X1512570Y1245108D01*
X1478710Y1394310D02*
X1479394Y1394994D01*
X1478710Y1374956D02*
Y1394310D01*
X1487116Y1374956D02*
X1506220Y1355852D01*
Y1251458D02*
Y1355852D01*
X1478710Y1374956D02*
X1487116D01*
X1631532Y1197671D02*
X1633681Y1199819D01*
X1631532Y1197671D02*
Y1197671D01*
X1623819Y1189957D02*
X1631532Y1197671D01*
X1617384Y1189957D02*
X1623819D01*
X1616678Y1189251D02*
X1617384Y1189957D01*
X1774769Y1209251D02*
X1802108Y1181912D01*
X1692438Y1209251D02*
X1774769D01*
X1692438Y1279251D02*
X1745155D01*
X1801878Y1222528D01*
X1433363Y1232525D02*
X1437363Y1236525D01*
X1604225Y1264629D02*
X1604414Y1264440D01*
X1616296D02*
X1616485Y1264251D01*
X1604414Y1264440D02*
X1616296D01*
X1529842Y1179576D02*
Y1209548D01*
X1482791Y1132525D02*
X1529842Y1179576D01*
X1608839Y1288545D02*
X1615972D01*
X1477363Y1132525D02*
X1482791D01*
X1473363Y1136525D02*
X1477363Y1132525D01*
X1615972Y1288545D02*
X1616678Y1289251D01*
X1529842Y1209548D02*
X1608839Y1288545D01*
X1692712Y1289265D02*
X1693105Y1289659D01*
X1705965D02*
X1706372Y1290066D01*
X1693105Y1289659D02*
X1705965D01*
X1601216Y1149604D02*
X1601356Y1149744D01*
X1616758D02*
X1616898Y1149883D01*
X1601356Y1149744D02*
X1616758D01*
X1605909Y1135005D02*
X1616776D01*
X1605788Y1135126D02*
X1605909Y1135005D01*
X1616776D02*
X1616898Y1134883D01*
X1588262Y1405128D02*
X1594947Y1398443D01*
X1174797Y1005413D02*
X1178470Y1001740D01*
X1200410D02*
X1204174Y1005503D01*
X1200918Y1102324D02*
X1204681Y1106087D01*
X1175305Y1105997D02*
X1178978Y1102324D01*
X1158804Y1105170D02*
X1159038D01*
X1200410Y1069558D02*
X1204174Y1073321D01*
X1174797Y1073231D02*
X1178470Y1069558D01*
X1200912Y1035770D02*
X1204427Y1039285D01*
X1175051Y1039195D02*
X1178476Y1035770D01*
X1200918Y1135852D02*
X1204681Y1139615D01*
X1175305Y1139525D02*
X1178978Y1135852D01*
X1200410Y967958D02*
X1204174Y971721D01*
X1174797Y971631D02*
X1178470Y967958D01*
X1039116Y1407028D02*
X1039466Y1406678D01*
X1482193Y1116517D02*
X1490925D01*
X1232111Y1389039D02*
X1267066D01*
X1232111Y1359039D02*
X1243726D01*
X1232111Y1344039D02*
X1247269D01*
X1122697Y865412D02*
X1124903Y863205D01*
X1253490Y1446530D02*
X1476502D01*
X1244854D02*
X1253490D01*
X1589855Y1443482D02*
X1593604D01*
X1405231Y1254595D02*
Y1280601D01*
X1602595Y1343551D02*
X1616719D01*
X1616828Y1343443D01*
X1616421Y1358036D02*
X1616828Y1358443D01*
X1317740Y914756D02*
X1318122Y914374D01*
X1519260Y1433502D02*
Y1436182D01*
Y1433502D02*
X1557298D01*
X1427990Y1044982D02*
X1436116Y1036856D01*
X1425946Y1047026D02*
X1427990Y1044982D01*
X1425196Y1047776D02*
X1425946Y1047026D01*
X1407911Y1044963D02*
X1411867Y1048919D01*
X1298702Y1027241D02*
X1298830Y1027369D01*
X1312529Y1024429D02*
X1316486Y1028385D01*
X1314361Y1043861D02*
Y1067143D01*
X1315541Y1008359D02*
X1318140Y1010958D01*
X1135126Y1389507D02*
X1136269D01*
X1155234Y1374140D02*
X1155996Y1374902D01*
X1150112Y1374102D02*
Y1375156D01*
X1135634Y1337818D02*
X1137920Y1340104D01*
X1073380Y1337818D02*
X1135634D01*
X1114298Y1329182D02*
X1118362D01*
Y1310640D02*
X1138936D01*
X1070840D02*
X1118362D01*
X1156641Y1276855D02*
X1156866Y1276630D01*
X1157111D01*
X1155485Y1237080D02*
X1156191Y1236374D01*
X1692347Y1049954D02*
X1704104D01*
X1692658Y1069883D02*
X1705137D01*
X1686503D02*
X1692658D01*
X1709166Y1149883D02*
X1709191D01*
X1692658D02*
X1709166D01*
X1586992Y1150620D02*
X1591255Y1154883D01*
X1586687Y1150315D02*
X1586992Y1150620D01*
X1506474Y1485900D02*
Y1531366D01*
X1490726Y1470152D02*
X1506474Y1485900D01*
X1454178Y1531648D02*
X1490400D01*
X1473363Y1120525D02*
X1477363Y1116525D01*
X1490925Y1116517D02*
X1490933Y1116525D01*
X1457363Y1112525D02*
X1461363Y1108525D01*
X1475994Y1041146D02*
X1597660D01*
X1470660Y1045972D02*
X1595882D01*
X1604793Y1054883D01*
X1597660Y1041146D02*
X1606397Y1049883D01*
X1349363Y1156525D02*
X1353363Y1160525D01*
X1349363Y1164525D02*
X1353363Y1168525D01*
X1397363Y1236525D02*
X1401363Y1232525D01*
X1393363D02*
Y1232743D01*
X1389380Y1236726D02*
X1393363Y1232743D01*
X1449363Y1224525D02*
X1453363Y1228525D01*
X1389363Y1116525D02*
X1393363Y1120525D01*
X1457363Y1216525D02*
X1461363Y1220525D01*
X1473363Y1168525D02*
X1477363Y1164525D01*
X1397363Y1124525D02*
X1401363Y1128525D01*
X1341363Y1188525D02*
X1345363Y1184525D01*
X1381363Y1116525D02*
X1385363Y1120525D01*
X1349363Y1228525D02*
X1353363Y1224525D01*
X1425363D02*
X1429363Y1228525D01*
X1417363Y1232525D02*
X1421363Y1236525D01*
X1465363Y1216525D02*
X1469363Y1220525D01*
X1473363Y1152525D02*
X1477363Y1148525D01*
X1457363Y1128525D02*
X1461363Y1124525D01*
X1417363Y1120525D02*
X1421363Y1116525D01*
X1417363Y1112525D02*
X1421363Y1108525D01*
X1341363Y1156525D02*
X1345363Y1160525D01*
X1357363Y1236525D02*
X1361363Y1232525D01*
X1389363Y1228525D02*
X1393363Y1224525D01*
X1425363Y1248525D02*
X1429363Y1252525D01*
X1465363Y1224525D02*
X1469363Y1228525D01*
X1465363Y1176525D02*
X1469363Y1180525D01*
X1397363Y1116525D02*
X1401363Y1120525D01*
X1417363Y1224525D02*
X1421363Y1228525D01*
X1333363Y1148525D02*
X1337363Y1152525D01*
X1333363Y1164525D02*
X1337363Y1168525D01*
X1381363Y1108525D02*
X1385363Y1112525D01*
X1397363Y1228525D02*
X1401363Y1224525D01*
X1449363Y1248525D02*
X1453363Y1252525D01*
X1465363Y1208525D02*
X1469363Y1212525D01*
X1473363Y1160525D02*
X1477363Y1156525D01*
X1389363Y1108525D02*
X1393363Y1112525D01*
X1084027Y1207080D02*
X1156897D01*
X1053340Y1237768D02*
X1084027Y1207080D01*
X1417363Y1128525D02*
X1421363Y1124525D01*
X1357363Y1228525D02*
X1361363Y1224525D01*
X1417363Y1248525D02*
X1421363Y1252525D01*
X1425363Y1240525D02*
X1429363Y1244525D01*
X1465363Y1112525D02*
X1469363Y1108525D01*
X1449363Y1136525D02*
X1453363Y1132525D01*
X1465363Y1128525D02*
X1469363Y1124525D01*
X1349363Y1148525D02*
X1353363Y1152525D01*
X1333363Y1156525D02*
X1337363Y1160525D01*
X1381506Y1252382D02*
X1385363Y1248525D01*
X1381506Y1252382D02*
Y1252474D01*
X1389363Y1244525D02*
X1393363Y1240525D01*
X1457363Y1208525D02*
X1461363Y1212525D01*
X1457363Y1224525D02*
X1461363Y1228525D01*
X1397363Y1108525D02*
X1401363Y1112525D01*
X1389363Y1100525D02*
X1393363Y1104525D01*
X1381363Y1124525D02*
X1385363Y1128525D01*
X1397363Y1244525D02*
X1401363Y1240525D01*
X1417363D02*
X1421363Y1244525D01*
X1465363Y1160525D02*
X1469363Y1156525D01*
X1473363Y1128525D02*
X1477363Y1124525D01*
X1389363D02*
X1393363Y1128525D01*
X1341363Y1148525D02*
X1345363Y1152525D01*
X1397363Y1100525D02*
X1401363Y1104525D01*
X1349363Y1236525D02*
X1353363Y1232525D01*
X1381363Y1244525D02*
X1385363Y1240525D01*
X1425363Y1232525D02*
X1429363Y1236525D01*
X1433363Y1224525D02*
X1437363Y1228525D01*
X1406906Y1484376D02*
X1454178Y1531648D01*
X1465363Y1104525D02*
X1469363Y1100525D01*
X1441363Y1128525D02*
X1445363Y1124525D01*
X1465363Y1120525D02*
X1469363Y1116525D01*
X1605089Y1443419D02*
X1607215D01*
X1610097Y1440537D01*
X1604518Y1443990D02*
X1605089Y1443419D01*
X1610097Y1439149D02*
Y1440537D01*
Y1439149D02*
X1610803Y1438443D01*
X1593412Y1443736D02*
X1593858D01*
X1599151Y1438443D01*
X1610097D01*
X1610803D02*
X1616678D01*
X1232657Y1252081D02*
X1232841Y1251896D01*
X1248988D02*
X1249172Y1251712D01*
X1232841Y1251896D02*
X1248988D01*
X1250292Y1262484D02*
X1250696Y1262888D01*
X1232657Y1262080D02*
X1233061Y1262484D01*
X1250292D01*
X1268476Y1301750D02*
Y1341656D01*
X1703721Y1094883D02*
X1703832Y1094994D01*
X1692658Y1094883D02*
X1703721D01*
X1513895Y1198817D02*
X1515809D01*
X1507888Y1192810D02*
X1513895Y1198817D01*
X1515809D02*
X1516380Y1199388D01*
X1506888Y1192810D02*
X1507888D01*
X1554817Y1124883D02*
X1616898D01*
X1536840Y1100696D02*
X1601080D01*
X1605267Y1104883D02*
X1616898D01*
X1601080Y1100696D02*
X1605267Y1104883D01*
X1449363Y1184525D02*
X1453363Y1188525D01*
X1706869Y1134883D02*
X1711960Y1129792D01*
X1692658Y1134883D02*
X1706869D01*
X1745260Y1110006D02*
X1802386D01*
X1705137Y1069883D02*
X1745260Y1110006D01*
X1704104Y1049954D02*
X1704301Y1049758D01*
X1692150Y1050151D02*
X1692347Y1049954D01*
X1692658Y1064883D02*
X1704225D01*
X1704530Y1064577D01*
X1531874Y1103884D02*
X1547873Y1119883D01*
X1449363Y1176525D02*
X1453363Y1180525D01*
X1547873Y1119883D02*
X1616898D01*
X1692658Y1054883D02*
X1703345D01*
X1750848Y1102386D01*
X1802132D01*
X1616898Y1159883D02*
X1627778D01*
X1640586Y1058418D02*
Y1147075D01*
X1627778Y1159883D02*
X1640586Y1147075D01*
X1627051Y1044883D02*
X1640586Y1058418D01*
X1616898Y1044883D02*
X1627051D01*
X1473363Y1216525D02*
X1477363Y1220525D01*
X1588127Y1159883D02*
X1616898D01*
X1569212Y1140968D02*
X1588127Y1159883D01*
X1706257Y1328559D02*
X1706372Y1328674D01*
X1692874Y1328546D02*
X1692886Y1328559D01*
X1706257D01*
X1706839Y1398737D02*
X1707134Y1399032D01*
X1692733Y1398737D02*
X1706839D01*
X1692438Y1398443D02*
X1692733Y1398737D01*
X1707100Y1413476D02*
X1707134Y1413510D01*
X1692438Y1413443D02*
X1692472Y1413476D01*
X1707100D01*
X1692438Y1403443D02*
X1711613D01*
X1692438Y1418443D02*
X1710329D01*
X1692592Y1428596D02*
X1704948D01*
X1705102Y1428750D01*
X1692438Y1428443D02*
X1692592Y1428596D01*
X1703654Y1323264D02*
X1703832Y1323086D01*
X1692616Y1323264D02*
X1703654D01*
X1692438Y1323443D02*
X1692616Y1323264D01*
X1601620Y1108075D02*
X1602024D01*
X1506886Y1180592D02*
X1507886D01*
X1510092Y1182798D02*
Y1183798D01*
X1515809Y1189515D01*
X1507886Y1180592D02*
X1510092Y1182798D01*
X1515809Y1189515D02*
Y1191705D01*
X1516380Y1192276D01*
X1593342Y1338580D02*
Y1382014D01*
X1523238Y1268476D02*
X1593342Y1338580D01*
X1597914Y1334008D02*
Y1380490D01*
X1528572Y1264666D02*
X1597914Y1334008D01*
X1593342Y1382014D02*
X1599771Y1388443D01*
X1616678D01*
X1597914Y1380490D02*
X1600867Y1383443D01*
X1616678D01*
X1267066Y1389039D02*
X1365363Y1290743D01*
Y1252525D02*
Y1290743D01*
X1251517Y1419039D02*
X1373363Y1297193D01*
Y1252525D02*
Y1297193D01*
X1232889Y1291848D02*
X1246324D01*
X1267537Y1270635D01*
X1248313Y1282080D02*
X1256030Y1274363D01*
X1232657Y1282080D02*
X1248313D01*
X1233363Y1221374D02*
X1268514D01*
X1325363Y1164525D01*
X1278808Y1227081D02*
X1325363Y1180525D01*
X1232657Y1227081D02*
X1278808D01*
X1256615Y1236903D02*
X1256792Y1236726D01*
X1232834Y1236903D02*
X1256615D01*
X1232657Y1237080D02*
X1232834Y1236903D01*
X1355852Y1052604D02*
X1363728Y1044728D01*
X1355852Y1086032D02*
X1357982Y1088162D01*
X1355852Y1052604D02*
Y1086032D01*
X1407668Y1062296D02*
Y1094740D01*
X1405382Y1097026D02*
X1407668Y1094740D01*
X1267537Y1264743D02*
Y1270635D01*
X1267460Y1264666D02*
X1267537Y1264743D01*
X1232657Y1267080D02*
X1232754Y1266984D01*
X1258792D02*
X1259078Y1266698D01*
X1232754Y1266984D02*
X1258792D01*
X1256030Y1274064D02*
Y1274363D01*
X1245378Y1276842D02*
X1245616Y1276604D01*
X1232895Y1276842D02*
X1245378D01*
X1232657Y1277081D02*
X1232895Y1276842D01*
X1233135Y1246602D02*
X1245138D01*
X1232657Y1247080D02*
X1233135Y1246602D01*
X1245138D02*
X1245616Y1246124D01*
X1302512Y1078992D02*
X1314361Y1067143D01*
X1515364Y1098296D02*
X1528777Y1084883D01*
X1616898D01*
X1542288Y1090930D02*
X1601216D01*
X1605169Y1094883D01*
X1616898D01*
X1527048Y1096518D02*
X1601724D01*
X1605089Y1099883D01*
X1616898D01*
X1603831Y1109883D02*
X1616898D01*
X1602024Y1108075D02*
X1603831Y1109883D01*
X1246091Y1379507D02*
X1246124Y1379474D01*
X1232152Y1379507D02*
X1246091D01*
X1249460Y1399507D02*
X1252855Y1396111D01*
X1232152Y1399507D02*
X1249460D01*
X1252150Y1404436D02*
X1252220Y1404366D01*
X1232542Y1404436D02*
X1252150D01*
X1232472Y1404506D02*
X1232542Y1404436D01*
X1201674Y1210056D02*
Y1289050D01*
Y1210056D02*
X1223943Y1187787D01*
X1201674Y1289050D02*
X1214705Y1302081D01*
X1229706Y1302787D02*
Y1308008D01*
X1197864Y1339850D02*
X1229706Y1308008D01*
X1214705Y1302081D02*
X1229706D01*
X1197864Y1339850D02*
Y1419860D01*
X1202436Y1342136D02*
X1220066Y1324506D01*
X1232152D01*
X1202436Y1342136D02*
Y1418590D01*
X1223943Y1187787D02*
X1231951D01*
X1232657Y1187080D01*
X1230412Y1302081D02*
X1232657D01*
X1229706Y1302787D02*
X1230412Y1302081D01*
X1441363Y1120525D02*
X1445363Y1116525D01*
X1681558Y1438443D02*
X1692438D01*
X1238733Y1440213D02*
Y1440409D01*
X1232152Y1439507D02*
X1238027D01*
X1238733Y1440213D01*
Y1440409D02*
X1244854Y1446530D01*
X1231446Y1438800D02*
X1232152Y1439507D01*
X1476502Y1446530D02*
X1487170Y1435862D01*
X1251325Y1181100D02*
X1251712D01*
X1245345Y1187080D02*
X1251325Y1181100D01*
X1232657Y1187080D02*
X1245345D01*
X1232657Y1192080D02*
X1233067Y1191670D01*
X1243936D02*
X1244346Y1191260D01*
X1233067Y1191670D02*
X1243936D01*
X1232657Y1197080D02*
X1232760Y1196977D01*
X1243991D02*
X1244094Y1196874D01*
X1232760Y1196977D02*
X1243991D01*
X1262888Y1186434D02*
Y1196114D01*
X1246921Y1212080D02*
X1262888Y1196114D01*
X1239774Y1461770D02*
X1469382D01*
X1197864Y1419860D02*
X1239774Y1461770D01*
X1469382D02*
X1482371Y1448780D01*
X1602585Y1428443D02*
X1616678D01*
X1598930Y1431290D02*
X1599738D01*
X1602585Y1428443D01*
X1605474Y1433890D02*
X1616230D01*
X1605026Y1434338D02*
X1605474Y1433890D01*
X1616230D02*
X1616678Y1433443D01*
X1616793Y1323558D02*
X1625564D01*
X1634998Y1332992D02*
Y1431036D01*
X1625564Y1323558D02*
X1634998Y1332992D01*
X1628077Y1333691D02*
X1628648Y1334262D01*
X1616678Y1438443D02*
X1616711Y1438476D01*
X1628077Y1333183D02*
Y1333691D01*
X1365363Y1236525D02*
X1369363Y1232525D01*
X1616711Y1438476D02*
X1627558D01*
X1634998Y1431036D01*
X1623568Y1328674D02*
X1628077Y1333183D01*
X1325363Y1196525D02*
X1329363Y1192525D01*
X1591255Y1154883D02*
X1616898D01*
X1584561Y1139889D02*
X1584567Y1139883D01*
X1582991Y1139889D02*
X1584561D01*
X1582420Y1140460D02*
X1582991Y1139889D01*
X1584567Y1139883D02*
X1616898D01*
X1441363Y1248525D02*
X1445363Y1252525D01*
X1604772Y1067562D02*
X1607451Y1064883D01*
X1616898D01*
X1077976Y1240028D02*
X1118870D01*
X1064742Y1253262D02*
X1077976Y1240028D01*
X1053594Y1253262D02*
X1064742D01*
X1077976Y1248918D02*
X1136650D01*
X1053848Y1261644D02*
X1065250D01*
X1077976Y1248918D01*
X1077468Y1257554D02*
X1118616D01*
X1065504Y1269518D02*
X1077468Y1257554D01*
X1053340Y1269518D02*
X1065504D01*
X1076706Y1266190D02*
X1136396D01*
X1053594Y1277900D02*
X1064996D01*
X1076706Y1266190D01*
X1118870Y1240028D02*
X1140460D01*
X1147512Y1247080D01*
X1156897D01*
X1136900Y1249168D02*
X1144451D01*
X1136650Y1248918D02*
X1136900Y1249168D01*
X1144451D02*
X1147364Y1252081D01*
X1156897D01*
X1118616Y1257554D02*
X1141730D01*
X1146256Y1262080D01*
X1156897D01*
X1156769Y1266952D02*
X1156897Y1267080D01*
X1146048Y1266952D02*
X1156769D01*
X1145286Y1266190D02*
X1146048Y1266952D01*
X1136396Y1266190D02*
X1145286D01*
X1118616Y1275334D02*
X1145032D01*
X1146553Y1276855D01*
X1118362Y1293114D02*
X1146373D01*
X1147406Y1292080D01*
X1156897D01*
X1135888Y1302004D02*
X1144524D01*
X1148741Y1297787D01*
X1156191D01*
X1156897Y1297080D01*
X1144343Y1284478D02*
X1146799Y1282022D01*
X1156839D01*
X1135888Y1284478D02*
X1144343D01*
X1156839Y1282022D02*
X1156897Y1282080D01*
X1146553Y1276855D02*
X1156641D01*
X1157111Y1276630D02*
X1157367Y1276374D01*
X1136396Y1229868D02*
X1148217Y1241689D01*
X1156506D01*
X1124966Y1229868D02*
X1136396D01*
X1154928Y1236524D02*
X1155485Y1237080D01*
X1137412Y1225550D02*
X1148386Y1236524D01*
X1129792Y1225550D02*
X1137412D01*
X1148386Y1236524D02*
X1154928D01*
X1138174Y1221232D02*
X1144016Y1227074D01*
X1156891D01*
X1134110Y1221232D02*
X1138174D01*
X1156506Y1241689D02*
X1156897Y1242080D01*
X1156191Y1236374D02*
X1156897Y1237080D01*
X1156891Y1227074D02*
X1156897Y1227081D01*
X1143848Y1222080D02*
X1156897D01*
X1138428Y1216660D02*
X1143848Y1222080D01*
X1053594Y1293394D02*
X1070840Y1310640D01*
X1135126Y1355598D02*
X1137412D01*
X1146048Y1364234D02*
X1150450D01*
X1137412Y1355598D02*
X1146048Y1364234D01*
X1072364Y1328674D02*
X1117854D01*
X1071348Y1319276D02*
X1135634D01*
X1053340Y1333272D02*
X1101574Y1381506D01*
X1117600D01*
X1102590Y1390650D02*
X1135126D01*
X1102844Y1399286D02*
X1117854D01*
X1103606Y1408176D02*
X1135126D01*
X1143395Y1435213D02*
X1155686D01*
X1135126Y1443482D02*
X1143395Y1435213D01*
X1144276Y1429507D02*
X1156392D01*
X1139190Y1434592D02*
X1144276Y1429507D01*
X1117854Y1434592D02*
X1139190D01*
X1143857Y1425099D02*
X1148743Y1420213D01*
X1135729Y1425099D02*
X1143857D01*
X1135126Y1425702D02*
X1135729Y1425099D01*
X1156158Y1414272D02*
X1156392Y1414506D01*
X1142746Y1414272D02*
X1156158D01*
X1139952Y1417066D02*
X1142746Y1414272D01*
X1117854Y1417066D02*
X1139952D01*
X1136629Y1408176D02*
X1140299Y1404506D01*
X1156392D01*
X1136269Y1389507D02*
X1156392D01*
X1136269D02*
X1137252Y1388524D01*
X1135126Y1390650D02*
X1136269Y1389507D01*
X1146762Y1384506D02*
X1156392D01*
X1143762Y1381506D02*
X1146762Y1384506D01*
X1148756Y1373800D02*
X1149811D01*
X1138936Y1363980D02*
X1148756Y1373800D01*
X1117854Y1363980D02*
X1138936D01*
X1149811Y1373800D02*
X1150112Y1374102D01*
X1156385Y1359500D02*
X1156392Y1359507D01*
X1156287Y1359402D02*
X1156385Y1359500D01*
X1149696D02*
X1156385D01*
X1145286Y1355090D02*
X1149696Y1359500D01*
X1117854Y1346454D02*
X1138936D01*
X1145286Y1352804D02*
Y1355090D01*
X1138936Y1346454D02*
X1145286Y1352804D01*
X1148474Y1343800D02*
X1155686D01*
X1145032Y1340358D02*
X1148474Y1343800D01*
X1145032Y1335532D02*
Y1340358D01*
X1137920Y1340104D02*
X1147323Y1349507D01*
X1137412Y1340104D02*
X1137920D01*
X1138682Y1329182D02*
X1145032Y1335532D01*
X1138774Y1323432D02*
X1149142Y1333800D01*
X1155686D01*
X1156392Y1334506D01*
X1145032Y1324610D02*
X1149604Y1329182D01*
X1138936Y1310640D02*
X1145032Y1316736D01*
Y1324610D01*
X1135634Y1319276D02*
X1137812D01*
X1147323Y1349507D02*
X1156392D01*
X1135380Y1338072D02*
X1137412Y1340104D01*
X1118362Y1329182D02*
X1118616Y1329436D01*
X1117854Y1328674D02*
X1118362Y1329182D01*
X1138682D01*
X1155686Y1343800D02*
X1156392Y1344506D01*
X1135126Y1408176D02*
X1136629D01*
X1117854Y1399286D02*
X1156385D01*
X1155686Y1420213D02*
X1156392Y1419507D01*
X1148743Y1420213D02*
X1155686D01*
X1117600Y1381506D02*
X1143762D01*
X1156209Y1329690D02*
X1156392Y1329507D01*
X1155686Y1400213D02*
X1156392Y1399507D01*
X1053340Y1357910D02*
X1103606Y1408176D01*
X1155686Y1435213D02*
X1156392Y1434506D01*
X1053340Y1309650D02*
X1072364Y1328674D01*
X1053086Y1349528D02*
X1102844Y1399286D01*
X1053848Y1301776D02*
X1071348Y1319276D01*
X1053594Y1341654D02*
X1102590Y1390650D01*
X1053594Y1318032D02*
X1073380Y1337818D01*
X1245743Y1306195D02*
X1245870Y1306322D01*
Y1322223D01*
X1249934Y1301750D02*
X1250188Y1302004D01*
Y1326134D01*
X1259332Y1301496D02*
Y1338072D01*
X1241816Y1334506D02*
X1250188Y1326134D01*
X1240277Y1327816D02*
X1245870Y1322223D01*
X1692438Y1333443D02*
X1714557D01*
X1692438Y1348443D02*
X1708221D01*
X1409363Y1240525D02*
X1413363Y1244525D01*
X1692658Y1109883D02*
X1724563D01*
X1748816Y1134136D01*
X1802386D01*
X1709191Y1149883D02*
X1709420Y1150112D01*
X1426608Y1295210D02*
Y1303473D01*
X1445008Y1321873D02*
Y1336546D01*
X1422402Y1292004D02*
X1423402D01*
X1444752Y1336802D02*
X1445008Y1336546D01*
X1426608Y1303473D02*
X1445008Y1321873D01*
X1423402Y1292004D02*
X1426608Y1295210D01*
X1692438Y1383443D02*
X1704230D01*
X1704301Y1383514D01*
X1457363Y1240525D02*
X1461363Y1244525D01*
X1720368Y1149884D02*
X1802386D01*
X1710367Y1139883D02*
X1720368Y1149884D01*
X1692658Y1139883D02*
X1710367D01*
X1692658Y1154883D02*
X1798981D01*
X1802488Y1158390D01*
X1706121Y1119883D02*
X1711198Y1114806D01*
X1692658Y1119883D02*
X1706121D01*
X1692658Y1099883D02*
X1721421D01*
X1747292Y1125754D01*
X1802386D01*
X1703707Y1079883D02*
X1703832Y1080008D01*
X1692658Y1079883D02*
X1703707D01*
X1406796Y1304434D02*
X1429959Y1327597D01*
Y1331532D01*
X1403590Y1292258D02*
X1406796Y1295464D01*
Y1304434D01*
X1402590Y1292258D02*
X1403590D01*
X1429959Y1331532D02*
X1430530Y1332103D01*
X1692438Y1388443D02*
X1710639D01*
X1413363Y1252525D02*
Y1301777D01*
X1437134Y1325548D02*
Y1339344D01*
X1478710Y1343317D02*
Y1362256D01*
X1422402Y1277004D02*
Y1277678D01*
X1464818Y1342898D02*
X1475582D01*
X1422402Y1261564D02*
Y1277004D01*
X1460046Y1362256D02*
X1478710D01*
X1413363Y1252525D02*
X1422402Y1261564D01*
X1437134Y1339344D02*
X1460046Y1362256D01*
X1409363Y1248525D02*
X1413363Y1252525D01*
Y1301777D02*
X1437134Y1325548D01*
X1457363Y1104525D02*
X1461363Y1100525D01*
X1715687Y1124883D02*
X1736090Y1145286D01*
X1799110D02*
X1802362Y1142034D01*
X1736090Y1145286D02*
X1799110D01*
X1692658Y1124883D02*
X1715687D01*
X1457363Y1136525D02*
X1461363Y1132525D01*
X1692658Y1104883D02*
X1692776Y1104764D01*
X1710318D02*
X1710436Y1104646D01*
X1692776Y1104764D02*
X1710318D01*
X1712517Y1084883D02*
X1745538Y1117904D01*
X1802362D01*
X1692658Y1084883D02*
X1712517D01*
X1604793Y1054883D02*
X1616898D01*
X1606397Y1049883D02*
X1616898D01*
X1357363Y1244525D02*
X1361363Y1240525D01*
X1603294Y1350264D02*
X1605114Y1348443D01*
X1602486Y1350264D02*
X1603294D01*
X1605114Y1348443D02*
X1616678D01*
X1341363Y1196525D02*
X1345363Y1192525D01*
X1598505Y1418443D02*
X1616678D01*
X1592675Y1412613D02*
X1598505Y1418443D01*
X1588008Y1412240D02*
X1588381Y1412613D01*
X1592675D01*
X1594947Y1398443D02*
X1616678D01*
X1349363Y1252525D02*
X1353363Y1248525D01*
X1602892Y1358036D02*
X1616421D01*
X1602486Y1357630D02*
X1602892Y1358036D01*
X1341363Y1244525D02*
X1345363Y1240525D01*
X1605180Y1403443D02*
X1616678D01*
X1603250Y1404565D02*
X1604058D01*
X1616678Y1403443D02*
X1616828D01*
X1604058Y1404565D02*
X1605180Y1403443D01*
X1325363Y1188525D02*
X1329363Y1184525D01*
X1603504Y1334796D02*
X1604312D01*
X1616678Y1333443D02*
X1616828D01*
X1604312Y1334796D02*
X1605665Y1333443D01*
X1365363Y1228525D02*
X1369363Y1224525D01*
X1605665Y1333443D02*
X1616678D01*
X1465363Y1232525D02*
X1469363Y1236525D01*
X1603804Y1365022D02*
X1605383Y1363443D01*
X1349363Y1244525D02*
X1353363Y1240525D01*
X1602996Y1365022D02*
X1603804D01*
X1616678Y1363443D02*
X1616828D01*
X1605383D02*
X1616678D01*
X1333363Y1188525D02*
X1337363Y1184525D01*
X1465363Y1200525D02*
X1469363Y1204525D01*
X1616543Y1378578D02*
X1616678Y1378443D01*
X1602994Y1378712D02*
X1603129Y1378578D01*
X1616543D01*
X1333363Y1196525D02*
X1337363Y1192525D01*
X1616462Y1413658D02*
X1616678Y1413443D01*
X1603608Y1413658D02*
X1616462D01*
X1603392Y1413874D02*
X1603608Y1413658D01*
X1465363Y1240525D02*
X1469363Y1244525D01*
X1616678Y1373443D02*
X1616828D01*
X1603804Y1371880D02*
X1605367Y1373443D01*
X1341363Y1252525D02*
X1345363Y1248525D01*
X1602996Y1371880D02*
X1603804D01*
X1605367Y1373443D02*
X1616678D01*
X1541600Y1452880D02*
X1547622D01*
X1541600D02*
Y1454562D01*
X1537644Y1450356D02*
Y1450606D01*
X1541600Y1454562D01*
X1384888Y1375464D02*
X1402003D01*
X1402511Y1374956D01*
X1402256Y1362510D02*
X1402511Y1362256D01*
X1384888Y1362510D02*
X1402256D01*
X1616192Y1070589D02*
X1616898Y1069883D01*
X1604772Y1073658D02*
X1605235D01*
X1608304Y1070589D02*
X1616192D01*
X1605235Y1073658D02*
X1608304Y1070589D01*
X1616835Y1079945D02*
X1616898Y1079883D01*
X1604327Y1079945D02*
X1616835D01*
X1604264Y1080008D02*
X1604327Y1079945D01*
X1222646Y1438800D02*
X1231446D01*
X1473363Y1224525D02*
X1477363Y1228525D01*
X1202436Y1418590D02*
X1222646Y1438800D01*
X1473363Y1232525D02*
X1477363Y1236525D01*
X1449363Y1168525D02*
X1453363Y1164525D01*
X1457363Y1144525D02*
X1461363Y1140525D01*
X1449363Y1128525D02*
X1453363Y1124525D01*
X1433363Y1128525D02*
X1437363Y1124525D01*
X1457363Y1184525D02*
X1461363Y1188525D01*
X1465363Y1144525D02*
X1469363Y1140525D01*
X1449363Y1144525D02*
X1453363Y1140525D01*
X1449363Y1112525D02*
X1453363Y1108525D01*
X1457363Y1160525D02*
X1461363Y1156525D01*
X1449363Y1120525D02*
X1453363Y1116525D01*
X1473363Y1240525D02*
X1477363Y1244525D01*
X1325363Y1236525D02*
X1329363Y1232525D01*
X1243726Y1359039D02*
X1263650Y1339116D01*
Y1298238D02*
X1325363Y1236525D01*
X1263650Y1298238D02*
Y1339116D01*
X1333363Y1204525D02*
X1337363Y1200525D01*
X1373363Y1228525D02*
X1377363Y1224525D01*
X1258302Y1429776D02*
X1258572Y1430046D01*
X1232617Y1429545D02*
X1232848Y1429776D01*
X1381363Y1228525D02*
X1385363Y1224525D01*
X1232848Y1429776D02*
X1258302D01*
X1238240Y1329294D02*
X1239717Y1327816D01*
X1240277D01*
X1341363Y1228525D02*
X1345363Y1224525D01*
X1232365Y1329294D02*
X1238240D01*
X1247883Y1349521D02*
X1259332Y1338072D01*
X1232621Y1349521D02*
X1247883D01*
X1333363Y1236525D02*
X1337363Y1232525D01*
X1341363Y1204525D02*
X1345363Y1200525D01*
X1232152Y1374506D02*
X1249428D01*
X1365363Y1252525D02*
X1369363Y1248525D01*
X1373363Y1252525D02*
X1377363Y1248525D01*
X1232365Y1419293D02*
X1232619Y1419039D01*
X1251517D01*
X1373363Y1236525D02*
X1377363Y1232525D01*
X1254760Y1299128D02*
Y1336548D01*
Y1299128D02*
X1325363Y1228525D01*
X1329363Y1224525D01*
X1247269Y1344039D02*
X1254760Y1336548D01*
X1245626Y1364506D02*
X1268476Y1341656D01*
X1233116Y1364506D02*
X1245626D01*
X1333363Y1244525D02*
X1337363Y1240525D01*
X1232152Y1414506D02*
X1232178Y1414533D01*
X1247798D01*
X1247825Y1414559D01*
X1373363Y1244525D02*
X1377363Y1240525D01*
X1232689Y1384543D02*
X1232793Y1384439D01*
X1365363Y1244525D02*
X1369363Y1240525D01*
X1232793Y1384439D02*
X1259221D01*
X1259289Y1384371D01*
X1381363Y1236525D02*
X1385363Y1232525D01*
X1233502Y1434803D02*
X1247097D01*
X1233265Y1434566D02*
X1233502Y1434803D01*
X1247097D02*
X1247394Y1435100D01*
X1232322Y1334506D02*
X1241816D01*
X1333363Y1228525D02*
X1337363Y1224525D01*
X1433363Y1120525D02*
X1437363Y1116525D01*
X1142588Y899148D02*
X1143222Y899781D01*
X1107696Y1029310D02*
Y1040049D01*
X1152530Y984477D02*
X1155679D01*
X1053742Y1094004D02*
X1107696Y1040049D01*
X1155679Y984477D02*
X1158981Y987778D01*
X1107696Y1029310D02*
X1152530Y984477D01*
X1087663Y1212080D02*
X1156897D01*
X1053594Y1246150D02*
X1087663Y1212080D01*
X1053594Y1221512D02*
X1083026Y1192080D01*
X1156897D01*
X1325363Y1212525D02*
X1329363Y1208525D01*
X1083137Y1406757D02*
X1083470Y1406424D01*
X1083137Y1406757D02*
Y1417123D01*
X1053996Y1205764D02*
X1088127Y1171633D01*
X1131584D01*
X1150411Y1152805D01*
X1155831D01*
X1158721Y1155696D01*
X1053487Y1117076D02*
Y1117626D01*
X1152530Y1018034D02*
X1155676D01*
X1053487Y1117076D02*
X1078633Y1091931D01*
X1155676Y1018034D02*
X1158981Y1021339D01*
X1078633Y1091931D02*
Y1091931D01*
Y1091931D02*
X1152530Y1018034D01*
X1154775Y1075631D02*
X1158731Y1071675D01*
X1083471Y1119753D02*
X1112096D01*
X1150572Y1081277D02*
Y1081277D01*
X1158731Y1071675D02*
X1158981D01*
X1053594Y1149630D02*
X1083471Y1119753D01*
X1150572Y1081277D02*
X1154775Y1077075D01*
X1112096Y1119753D02*
X1150572Y1081277D01*
X1154775Y1075631D02*
Y1077075D01*
X1058418Y1040384D02*
Y1071626D01*
Y1040384D02*
X1152906Y945896D01*
X1425363Y1120525D02*
X1429363Y1116525D01*
X1325363Y1204525D02*
X1329363Y1200525D01*
X1053086Y1182396D02*
X1087480Y1148002D01*
X1152530Y1118258D02*
X1155216D01*
X1087480Y1148002D02*
X1122786D01*
X1155216Y1118258D02*
X1158981Y1122024D01*
X1122786Y1148002D02*
X1152530Y1118258D01*
X1158471Y1138908D02*
X1158721D01*
X1129874Y1167505D02*
X1158471Y1138908D01*
X1083618Y1167505D02*
X1129874D01*
X1053742Y1197382D02*
X1083618Y1167505D01*
X1341363Y1236525D02*
X1345363Y1232525D01*
X1083217Y1103243D02*
X1095554D01*
X1158992Y1038362D02*
X1159242D01*
X1150908Y1047890D02*
X1154105Y1044692D01*
X1053848Y1132612D02*
X1083217Y1103243D01*
X1150908Y1047890D02*
Y1047890D01*
X1095554Y1103243D02*
X1150908Y1047890D01*
X1154105Y1044692D02*
X1154105D01*
X1155035Y1042319D02*
X1158992Y1038362D01*
X1155035Y1042319D02*
Y1043762D01*
X1154105Y1044692D02*
X1155035Y1043762D01*
X1053233Y1109244D02*
X1053804Y1108673D01*
X1153845Y1010882D02*
X1153845D01*
X1154775Y1008508D02*
X1158731Y1004552D01*
X1053804Y1108673D02*
X1056054D01*
X1150820Y1013907D02*
X1150820D01*
X1158731Y1004552D02*
X1158981D01*
X1056054Y1108673D02*
X1074506Y1090221D01*
Y1090221D02*
X1150820Y1013907D01*
X1150820D02*
X1153845Y1010882D01*
X1153845D02*
X1154775Y1009952D01*
X1074506Y1090221D02*
Y1090221D01*
X1154775Y1008508D02*
Y1009952D01*
X1113806Y1123881D02*
X1152530Y1085157D01*
X1155676D02*
X1158981Y1088462D01*
X1087979Y1123881D02*
X1113806D01*
X1152530Y1085157D02*
X1155676D01*
X1053848Y1158012D02*
X1087979Y1123881D01*
X1103568Y1027600D02*
Y1035541D01*
X1150572Y980597D02*
Y980597D01*
X1154775Y974954D02*
Y976394D01*
X1103568Y1027600D02*
X1150572Y980597D01*
X1154775Y974954D02*
X1158731Y970998D01*
X1053487Y1085622D02*
X1103568Y1035541D01*
X1158731Y970998D02*
X1158981D01*
X1150572Y980597D02*
X1154775Y976394D01*
X1120334Y1143875D02*
X1154775Y1109434D01*
X1052832Y1174014D02*
X1082971Y1143875D01*
X1154775Y1109199D02*
Y1109434D01*
X1082971Y1143875D02*
X1120334D01*
X1154775Y1109199D02*
X1158804Y1105170D01*
X1053848Y1229894D02*
X1086662Y1197080D01*
X1156897D01*
X1425363Y1128525D02*
X1429363Y1124525D01*
X1333363Y1252525D02*
X1337363Y1248525D01*
X1152790Y1051844D02*
X1155937D01*
X1097264Y1107371D02*
X1152790Y1051844D01*
X1054102Y1140994D02*
X1087725Y1107371D01*
X1097264D01*
X1155937Y1051844D02*
X1159242Y1055150D01*
X1039116Y1407028D02*
Y1416584D01*
X1602486Y1343660D02*
X1602595Y1343551D01*
X1493989Y1204147D02*
X1494989D01*
X1491783Y1206353D02*
X1493611Y1204525D01*
X1493989Y1204147D01*
X1493611Y1204525D02*
X1494639D01*
X1473363Y1200525D02*
X1477363Y1204525D01*
X1493611D01*
X1513078Y1442364D02*
X1519260Y1436182D01*
X1513078Y1442364D02*
Y1472692D01*
X1485138Y1197102D02*
X1489430Y1192810D01*
X1494888D01*
X1476522Y924326D02*
X1476552Y924356D01*
X1111250Y889000D02*
Y939038D01*
X1120491Y882354D02*
X1122697Y880148D01*
X1111250Y889000D02*
X1117896Y882354D01*
X1120491D01*
X1069561Y899148D02*
X1095197D01*
X1051432Y905370D02*
Y918577D01*
X1051685Y861173D02*
Y873512D01*
X1067885Y900824D02*
X1069561Y899148D01*
X1046971Y878226D02*
X1051685Y873512D01*
X1046885Y900824D02*
X1051432Y905370D01*
X1046971Y878226D02*
Y878726D01*
X1067971D02*
X1069393Y880148D01*
X1095197D01*
X1124903Y863205D02*
X1125249D01*
X1122697Y865412D02*
Y880148D01*
X1409363Y1120525D02*
X1413363Y1116525D01*
X1232657Y1222080D02*
X1233363Y1221374D01*
X1404874Y976922D02*
Y982472D01*
X1394819Y985097D02*
X1402250D01*
X1404874Y982472D01*
X1400810Y972858D02*
X1404874Y976922D01*
X1394357Y972858D02*
X1400810D01*
X1394357Y985558D02*
X1394819Y985097D01*
X1400810Y972858D02*
X1418051D01*
X1384252Y998258D02*
X1394357D01*
X1384125Y998385D02*
X1384252Y998258D01*
X1350216Y1004608D02*
X1350343Y1004481D01*
X1394352Y979203D02*
X1394357Y979208D01*
X1384379Y979203D02*
X1394352D01*
X1339857Y1004608D02*
X1350216D01*
X1339862Y985553D02*
X1349835D01*
X1339857Y985558D02*
X1339862Y985553D01*
X1318122Y914374D02*
X1318376Y914120D01*
X1300086Y914374D02*
X1318122D01*
X1317740Y914756D02*
Y931520D01*
X1352973Y1010497D02*
X1357122Y1006348D01*
Y1001673D02*
Y1006348D01*
X1340319Y1010497D02*
X1352973D01*
X1315076Y1086494D02*
Y1100142D01*
Y1086494D02*
X1373947Y1027623D01*
X1407924D01*
X1341363Y1116525D02*
X1345363Y1120525D01*
X1341363Y1140525D02*
X1345363Y1144525D01*
X1457363Y1168525D02*
X1461363Y1164525D01*
X1449363Y1240525D02*
X1453363Y1244525D01*
X1333363Y1212525D02*
X1337363Y1208525D01*
X1333363Y1220525D02*
X1337363Y1216525D01*
X1232657Y1292080D02*
X1232889Y1291848D01*
X1325363Y1164525D02*
X1329363Y1168525D01*
X1349363Y1124525D02*
X1353363Y1128525D01*
X1189816Y1001740D02*
X1200410D01*
X1178470D02*
X1189816D01*
X1333363Y1124525D02*
X1337363Y1128525D01*
X1365363Y1124525D02*
X1369363Y1128525D01*
X1341363Y1100525D02*
X1345363Y1104525D01*
X1409363Y1128525D02*
X1413363Y1124525D01*
X1357363Y1116525D02*
X1361363Y1120525D01*
X1341363Y1164525D02*
X1345363Y1168525D01*
X1249304Y1241702D02*
X1249682Y1241324D01*
X1232657Y1242080D02*
X1233035Y1241702D01*
X1341363Y1180525D02*
X1345363Y1176525D01*
X1233035Y1241702D02*
X1249304D01*
X1363728Y1044728D02*
X1406981D01*
X1407216Y1044963D01*
X1361188Y1090368D02*
Y1096700D01*
X1407216Y1044963D02*
X1407911D01*
X1411867Y1048919D02*
X1412117D01*
X1357363Y1100525D02*
X1361188Y1096700D01*
X1358108Y1088094D02*
X1358914D01*
X1357363Y1100525D02*
X1361363Y1104525D01*
X1358914Y1088094D02*
X1361188Y1090368D01*
X1190324Y1135852D02*
X1200918D01*
X1178978D02*
X1190324D01*
X1341363Y1132525D02*
X1345363Y1136525D01*
X1341363Y1212525D02*
X1345363Y1208525D01*
X1341363Y1108525D02*
X1345363Y1112525D01*
X1333363Y1116525D02*
X1337363Y1120525D01*
X1457363Y1176525D02*
X1461363Y1180525D01*
X1341363Y1220525D02*
X1345363Y1216525D01*
X1333363Y1180525D02*
X1337363Y1176525D01*
X1325363Y1124525D02*
X1329363Y1128525D01*
X1333363Y1100525D02*
X1337363Y1104525D01*
X1189816Y1069558D02*
X1200410D01*
X1178470D02*
X1189816D01*
X1357363Y1124525D02*
X1361363Y1128525D01*
X1449363Y1232525D02*
X1453363Y1236525D01*
X1357363Y1108525D02*
X1361363Y1112525D01*
X1189816Y967958D02*
X1200410D01*
X1373363Y1116525D02*
X1377363Y1120525D01*
X1178470Y967958D02*
X1189816D01*
X1409363Y1112525D02*
X1413363Y1108525D01*
X1232657Y1212080D02*
X1246921D01*
X1306070Y1108148D02*
X1308276Y1105942D01*
X1309276D02*
X1315076Y1100142D01*
X1308276Y1105942D02*
X1309276D01*
X1308276Y1112354D02*
X1321534D01*
X1306070Y1108148D02*
Y1109148D01*
X1321534Y1112354D02*
X1325363Y1108525D01*
X1306070Y1110148D02*
X1308276Y1112354D01*
X1325363Y1108525D02*
X1329363Y1112525D01*
X1457363Y1248525D02*
X1461363Y1252525D01*
X1349363Y1188525D02*
X1353363Y1184525D01*
X1349363Y1220525D02*
X1353363Y1216525D01*
X1349363Y1140525D02*
X1353363Y1144525D01*
X1349363Y1108525D02*
X1353363Y1112525D01*
X1341363Y1124525D02*
X1345363Y1128525D01*
X1441363Y1104525D02*
X1445363Y1100525D01*
Y1085876D02*
Y1100525D01*
X1325363Y1116525D02*
X1329363Y1120525D01*
X1190324Y1102324D02*
X1200918D01*
X1178978D02*
X1190324D01*
X1373363Y1124525D02*
X1377363Y1128525D01*
X1333363Y1108525D02*
X1337363Y1112525D01*
X1349363Y1100525D02*
X1353363Y1104525D01*
X1189064Y1035770D02*
X1200912D01*
X1178476D02*
X1189064D01*
X1357363Y1252525D02*
X1361363Y1248525D01*
X1349363Y1116525D02*
X1353363Y1120525D01*
X1365363Y1116525D02*
X1369363Y1120525D01*
X1274066Y1036131D02*
X1276843Y1033353D01*
X1304038Y1123976D02*
X1308731Y1128669D01*
X1310633Y1132525D02*
X1325363D01*
X1280800Y1029147D02*
X1281050D01*
X1276843Y1033103D02*
X1280800Y1029147D01*
X1308731Y1128669D02*
Y1131813D01*
X1310038Y1133120D02*
X1310633Y1132525D01*
X1276843Y1033103D02*
Y1033353D01*
X1274066Y1036131D02*
Y1112038D01*
X1286004Y1123976D02*
X1304038D01*
X1274066Y1112038D02*
X1286004Y1123976D01*
X1308731Y1131813D02*
X1310038Y1133120D01*
X1325363Y1132525D02*
X1329363Y1136525D01*
X1349363Y1180525D02*
X1353363Y1176525D01*
X1349363Y1132525D02*
X1353363Y1136525D01*
X1325363Y1180525D02*
X1329363Y1176525D01*
X1520524Y1419312D02*
Y1432238D01*
X1557298Y1433502D02*
X1558370Y1432431D01*
Y1419058D02*
Y1432431D01*
X1353707Y998258D02*
X1357122Y1001673D01*
X1293338Y1097148D02*
X1306070D01*
X1292608Y1096418D02*
X1293338Y1097148D01*
X1298702Y972801D02*
Y975801D01*
X1307084Y984183D01*
Y1018733D01*
X1312529Y1024179D01*
Y1024429D01*
X1316486Y1028385D02*
X1316736D01*
X1298702Y1009801D02*
Y1027241D01*
X1436116Y1009293D02*
Y1036856D01*
Y972293D02*
Y975293D01*
X1427480Y983929D02*
X1436116Y975293D01*
X1427480Y983929D02*
Y1024067D01*
X1423924Y1027623D02*
X1427480Y1024067D01*
X1291338Y1093370D02*
Y1093620D01*
X1316259Y972858D02*
X1339857D01*
X1416951Y1010958D02*
X1418616Y1009293D01*
X1394357Y1010958D02*
X1416951D01*
X1418051Y972858D02*
X1418616Y972293D01*
X1318140Y1010958D02*
X1339857D01*
X1232657Y1297080D02*
X1248808D01*
X1325363Y1220525D01*
X1394357Y1004608D02*
Y1010958D01*
X1339857Y998258D02*
X1345107D01*
X1340619Y998004D02*
X1345266D01*
Y998258D02*
X1353707D01*
X1339857Y1010958D02*
X1340319Y1010497D01*
X1339857Y972858D02*
Y979208D01*
X1449363Y1160525D02*
X1453363Y1156525D01*
X1457363Y1120525D02*
X1461363Y1116525D01*
X1325363Y1220525D02*
X1329363Y1216525D01*
D100*
X1085628Y889648D02*
X1085628Y889648D01*
D101*
X1174773Y1021254D02*
X1175023D01*
X1190324Y1108846D02*
X1204363Y1122885D01*
X1175555Y1122643D02*
X1189778Y1108420D01*
X1189816Y1076080D02*
X1203855Y1090119D01*
X1175047Y1089877D02*
X1189270Y1075654D01*
X1190324Y1142374D02*
X1204363Y1156413D01*
X1174773Y987680D02*
X1175023D01*
X1189778Y1141948D02*
X1190324D01*
Y1142374D01*
X1204363Y1156413D02*
X1204432D01*
X1175555Y1156171D02*
Y1156312D01*
Y1156171D02*
X1189778Y1141948D01*
Y1108420D02*
X1190324D01*
Y1108846D01*
X1204363Y1122885D02*
X1204432D01*
X1175555Y1122643D02*
Y1122784D01*
X1189647Y1042449D02*
X1191087D01*
X1188481D02*
X1189064Y1041866D01*
X1203290Y1054652D02*
X1203540D01*
X1175023Y1054828D02*
X1187402Y1042449D01*
X1174773Y1054828D02*
X1175023D01*
X1191087Y1042449D02*
X1203290Y1054652D01*
X1189064Y1041866D02*
X1189647Y1042449D01*
X1187402D02*
X1188481D01*
X1179011Y983692D02*
Y983692D01*
X1199236Y983473D02*
X1199552D01*
X1189233Y974637D02*
X1189816Y974054D01*
X1199552Y983473D02*
X1203540Y987461D01*
X1189816Y974054D02*
X1199236Y983473D01*
X1175023Y987680D02*
X1179011Y983692D01*
X1188065Y974637D02*
X1189233D01*
X1179011Y983692D02*
X1188065Y974637D01*
X1203855Y1090119D02*
X1203923D01*
X1189270Y1075654D02*
X1189816D01*
Y1076080D01*
X1175047Y1089877D02*
Y1090018D01*
X1175023Y1021254D02*
X1187858Y1008419D01*
X1189816Y1007836D02*
X1199049Y1017069D01*
X1199552D02*
X1203540Y1021057D01*
X1199049Y1017069D02*
X1199552D01*
X1189233Y1008419D02*
X1189816Y1007836D01*
X1187858Y1008419D02*
X1189233D01*
D102*
X1477363Y1116525D02*
X1482185D01*
X1482193Y1116517D01*
X1405231Y1244657D02*
Y1254595D01*
Y1244657D02*
X1409363Y1240525D01*
X1405280Y1097129D02*
X1405382Y1097026D01*
X1405280Y1097129D02*
Y1116442D01*
X1409363Y1120525D01*
Y1120525D01*
D103*
X1591437Y838200D02*
D03*
Y889000D02*
D03*
Y939800D02*
D03*
Y863600D02*
D03*
X1566037Y914400D02*
D03*
Y812800D02*
D03*
Y939800D02*
D03*
Y889000D02*
D03*
X1591437Y812800D02*
D03*
Y965200D02*
D03*
X1566037Y838200D02*
D03*
Y863600D02*
D03*
X1591437Y914400D02*
D03*
D104*
X1771142Y1507744D02*
D03*
X1105916Y674077D02*
D03*
X1020064Y717804D02*
D03*
X1411224Y834390D02*
D03*
X1836928Y743204D02*
D03*
X1597660Y1296416D02*
D03*
X1815592Y1461262D02*
D03*
X1490726Y1470152D02*
D03*
X1406906Y1484376D02*
D03*
X1569212Y1140968D02*
D03*
X1593412Y1443736D02*
D03*
X1136650Y1248918D02*
D03*
X1135888Y1284478D02*
D03*
X1118616Y1275334D02*
D03*
X1136396Y1266190D02*
D03*
X1135888Y1302004D02*
D03*
X1118362Y1293114D02*
D03*
X1118870Y1240028D02*
D03*
X1118616Y1257554D02*
D03*
X1135634Y1319276D02*
D03*
X1135126Y1408176D02*
D03*
Y1390650D02*
D03*
X1117854Y1399286D02*
D03*
Y1434592D02*
D03*
Y1417066D02*
D03*
X1135126Y1425702D02*
D03*
Y1443482D02*
D03*
X1117600Y1381506D02*
D03*
X1117854Y1346454D02*
D03*
X1135126Y1355598D02*
D03*
Y1373124D02*
D03*
X1117854Y1328674D02*
D03*
X1118362Y1310640D02*
D03*
X1117854Y1363980D02*
D03*
X1135380Y1338072D02*
D03*
X1251712Y1181100D02*
D03*
X1253490Y1446530D02*
D03*
X1545082Y1268730D02*
D03*
X1513078Y1472692D02*
D03*
D105*
X1691741Y895765D02*
D03*
X1793341D02*
D03*
X1789430Y820166D02*
D03*
X1687830D02*
D03*
X1767941Y895765D02*
D03*
X1713230Y820166D02*
D03*
X1789430Y794766D02*
D03*
X1713230D02*
D03*
X1738630Y820166D02*
D03*
X1764030Y794766D02*
D03*
Y820166D02*
D03*
X1738630Y794766D02*
D03*
X1767941Y921165D02*
D03*
X1691741D02*
D03*
X1717141Y895765D02*
D03*
Y921165D02*
D03*
X1742541Y895765D02*
D03*
Y921165D02*
D03*
D106*
X1030224Y657860D02*
D03*
Y1563116D02*
D03*
X1830070D02*
D03*
Y657860D02*
D03*
D107*
X1687830Y794766D02*
D03*
X1793341Y921165D02*
D03*
D108*
X1118673Y769493D02*
D03*
X1130173D02*
D03*
X1124423Y778993D02*
D03*
Y759993D02*
D03*
D109*
X1566037Y965200D02*
D03*
D110*
X1201400Y1537716D02*
D03*
X1793906Y1431286D02*
D03*
X1061741Y988715D02*
D03*
D111*
X1643400Y1537716D02*
D03*
X1793906Y989286D02*
D03*
X1061741Y1430715D02*
D03*
D112*
X1260220Y717804D02*
D03*
X1627634Y1408629D02*
D03*
X1628396Y1354862D02*
D03*
X1627632Y1267460D02*
D03*
X1628650Y1130072D02*
D03*
X1627632Y1214120D02*
D03*
X1670558Y1029208D02*
D03*
X1628140Y1074166D02*
D03*
X1403604Y794258D02*
D03*
X1211834Y1410716D02*
D03*
X1212064Y1316507D02*
D03*
X1212088Y1308354D02*
D03*
X1203452Y1432814D02*
D03*
X1211580Y1354328D02*
D03*
Y1274572D02*
D03*
X1207262Y1229106D02*
D03*
X1168402Y1183412D02*
D03*
X1217168Y747522D02*
D03*
X1216660Y732282D02*
D03*
X1198372Y731774D02*
D03*
X1198118Y748030D02*
D03*
X1073404Y728218D02*
D03*
X1084291Y751967D02*
D03*
X1131045Y889648D02*
D03*
X1182376Y684872D02*
D03*
X1197610Y687920D02*
D03*
X1187958Y822452D02*
D03*
X1189990Y883920D02*
D03*
X1216018Y995927D02*
D03*
Y1012945D02*
D03*
Y979163D02*
D03*
Y1046219D02*
D03*
Y1062729D02*
D03*
Y1029201D02*
D03*
X1064006Y1067054D02*
D03*
X1053839Y1077715D02*
D03*
X1066292Y1114044D02*
D03*
X1216018Y1079747D02*
D03*
Y1096765D02*
D03*
Y1113529D02*
D03*
X1246378Y826014D02*
D03*
X1265936Y826262D02*
D03*
X1221860Y1012945D02*
D03*
Y979163D02*
D03*
Y995927D02*
D03*
X1301369Y849121D02*
D03*
X1355852Y938276D02*
D03*
X1374902D02*
D03*
X1363980Y938784D02*
D03*
X1325702Y983362D02*
D03*
X1328928Y992124D02*
D03*
X1374648Y992632D02*
D03*
X1221860Y1062729D02*
D03*
Y1029201D02*
D03*
Y1046219D02*
D03*
Y1113529D02*
D03*
Y1079747D02*
D03*
Y1096765D02*
D03*
X1296647Y1083287D02*
D03*
X1326638Y1034060D02*
D03*
X1325363Y1100525D02*
D03*
X1376934Y1059434D02*
D03*
X1365363Y1100525D02*
D03*
X1373363D02*
D03*
X1283208Y1112266D02*
D03*
X1365363Y1108525D02*
D03*
X1373363D02*
D03*
X1053592Y1125474D02*
D03*
X1053084Y1188974D02*
D03*
X1098042Y1181862D02*
D03*
X1144780Y1201700D02*
D03*
X1068324Y1239520D02*
D03*
X1216018Y1130039D02*
D03*
Y1147311D02*
D03*
X1221860Y1130039D02*
D03*
Y1147311D02*
D03*
X1168654Y1232154D02*
D03*
X1206500Y1219200D02*
D03*
X1213104Y1231900D02*
D03*
X1069594Y1301496D02*
D03*
X1167894Y1287044D02*
D03*
X1167561Y1339121D02*
D03*
X1069848Y1381252D02*
D03*
X1167638Y1369314D02*
D03*
X1167507Y1394039D02*
D03*
X1168146Y1259840D02*
D03*
X1211834Y1268730D02*
D03*
X1211349Y1287041D02*
D03*
X1212872Y1339574D02*
D03*
X1168069Y1424465D02*
D03*
X1211834Y1420622D02*
D03*
X1282702Y1133120D02*
D03*
X1325363Y1140525D02*
D03*
X1333363Y1132525D02*
D03*
X1357363D02*
D03*
X1333363Y1140525D02*
D03*
X1357363D02*
D03*
X1325363Y1148525D02*
D03*
X1357363D02*
D03*
Y1164525D02*
D03*
X1373363Y1140525D02*
D03*
X1365363Y1148525D02*
D03*
X1373363Y1132525D02*
D03*
X1381363D02*
D03*
Y1140525D02*
D03*
X1365363Y1164525D02*
D03*
X1381363Y1156525D02*
D03*
Y1164525D02*
D03*
Y1180525D02*
D03*
X1325363Y1252525D02*
D03*
X1357363Y1212525D02*
D03*
Y1220525D02*
D03*
Y1188525D02*
D03*
X1246124Y1394206D02*
D03*
X1324610Y1293622D02*
D03*
X1246886Y1368806D02*
D03*
X1290320Y1529334D02*
D03*
X1354076Y1369848D02*
D03*
X1365363Y1188525D02*
D03*
Y1212525D02*
D03*
X1381363Y1188525D02*
D03*
Y1196525D02*
D03*
Y1212525D02*
D03*
X1362712Y1377976D02*
D03*
X1365363Y1220525D02*
D03*
X1381363D02*
D03*
X1388364Y1070356D02*
D03*
X1397363Y1156525D02*
D03*
X1389363D02*
D03*
X1405363D02*
D03*
X1420040Y1073732D02*
D03*
X1421363Y1140525D02*
D03*
X1437363D02*
D03*
Y1132525D02*
D03*
X1413363Y1140525D02*
D03*
Y1156525D02*
D03*
Y1164525D02*
D03*
X1437363Y1156525D02*
D03*
X1389363Y1164525D02*
D03*
Y1180525D02*
D03*
X1397363Y1164525D02*
D03*
X1405363D02*
D03*
X1397363Y1180525D02*
D03*
X1405363D02*
D03*
X1389363Y1188525D02*
D03*
Y1196525D02*
D03*
X1397363Y1188525D02*
D03*
Y1196525D02*
D03*
X1413363Y1180525D02*
D03*
X1437363D02*
D03*
X1405363Y1188525D02*
D03*
X1413363D02*
D03*
Y1196525D02*
D03*
X1437363D02*
D03*
X1579245Y838454D02*
D03*
X1579499Y863600D02*
D03*
X1591183Y900684D02*
D03*
Y952246D02*
D03*
X1715262Y1045718D02*
D03*
X1747774Y1057402D02*
D03*
X1679448Y1064167D02*
D03*
X1634490Y1074166D02*
D03*
X1631950Y1083056D02*
D03*
X1485138Y1092200D02*
D03*
X1477363Y1100525D02*
D03*
X1445363Y1156525D02*
D03*
Y1132525D02*
D03*
Y1140525D02*
D03*
Y1180525D02*
D03*
X1469363Y1164525D02*
D03*
X1477363Y1196525D02*
D03*
X1634490Y1130046D02*
D03*
X1707499Y1090025D02*
D03*
X1703578Y1114806D02*
D03*
X1627886Y1145286D02*
D03*
X1658418Y1150418D02*
D03*
X1703832Y1144778D02*
D03*
X1786128Y1165860D02*
D03*
X1405363Y1196525D02*
D03*
X1421363Y1212525D02*
D03*
X1437363D02*
D03*
X1397363Y1252525D02*
D03*
X1421363Y1220525D02*
D03*
X1437363D02*
D03*
X1445363Y1196525D02*
D03*
X1453363Y1204525D02*
D03*
X1445363Y1212525D02*
D03*
X1469363Y1196525D02*
D03*
X1461363Y1204525D02*
D03*
X1445363Y1220525D02*
D03*
X1477363Y1252525D02*
D03*
X1505712Y1215898D02*
D03*
X1477542Y1293345D02*
D03*
X1388618Y1301496D02*
D03*
X1521970Y1343178D02*
D03*
X1477518Y1407668D02*
D03*
X1412494Y1529588D02*
D03*
X1504188Y1400810D02*
D03*
X1521206Y1462532D02*
D03*
X1531112Y1342898D02*
D03*
X1579628Y1339876D02*
D03*
X1575816Y1346454D02*
D03*
X1532128Y1400810D02*
D03*
X1529975Y1461891D02*
D03*
X1559814Y1401572D02*
D03*
X1562862Y1407668D02*
D03*
X1567180Y1401064D02*
D03*
X1556004Y1462532D02*
D03*
X1628140Y1202944D02*
D03*
X1628142Y1227862D02*
D03*
X1628394Y1257300D02*
D03*
X1703578Y1199388D02*
D03*
X1704086Y1229360D02*
D03*
X1787906Y1251966D02*
D03*
X1703832Y1254252D02*
D03*
X1704079Y1284231D02*
D03*
X1627888Y1284931D02*
D03*
X1628394Y1341628D02*
D03*
X1628904Y1368070D02*
D03*
X1628394Y1394206D02*
D03*
X1583436Y1530096D02*
D03*
X1628648Y1419860D02*
D03*
X1704110Y1338048D02*
D03*
X1704340Y1368298D02*
D03*
X1785600Y1366286D02*
D03*
X1704088Y1393389D02*
D03*
X1703400Y1423033D02*
D03*
X1263332Y745744D02*
D03*
X1262990Y686620D02*
D03*
X1561084Y753618D02*
D03*
X1401064Y886460D02*
D03*
X1157605Y660107D02*
D03*
X1144206Y769810D02*
D03*
X1138647Y820293D02*
D03*
X1137539Y708748D02*
D03*
X1132840Y721106D02*
D03*
X1125429Y797433D02*
D03*
X1093087Y753745D02*
D03*
X1611122Y757682D02*
D03*
X1548892Y755904D02*
D03*
X1591564Y766826D02*
D03*
X1110961Y752729D02*
D03*
X1111098Y786493D02*
D03*
X1108075Y696556D02*
D03*
X1103595Y762889D02*
D03*
X1089152Y737870D02*
D03*
X1131062Y665695D02*
D03*
X1120394Y653503D02*
D03*
X1130683Y806921D02*
D03*
X1135888Y653503D02*
D03*
X1140933Y740791D02*
D03*
X1140968Y677379D02*
D03*
X1148842Y762254D02*
D03*
X1148080Y664933D02*
D03*
X1154303Y726567D02*
D03*
X1152363Y768731D02*
D03*
X1162431Y710145D02*
D03*
X1166114Y892556D02*
D03*
X1570482Y1462278D02*
D03*
X1572514Y1405128D02*
D03*
X1546606Y1400556D02*
D03*
X1544320Y1199134D02*
D03*
X1539494Y1400556D02*
D03*
X1539240Y1342898D02*
D03*
X1521206Y1405636D02*
D03*
X1507998Y1444498D02*
D03*
X1505712Y1407160D02*
D03*
X1498346Y1406144D02*
D03*
X1501648Y1342898D02*
D03*
X1534160Y1198880D02*
D03*
X1469363Y1252525D02*
D03*
X1453363Y1220525D02*
D03*
Y1212525D02*
D03*
X1550414Y911349D02*
D03*
X1560957Y794766D02*
D03*
X1461363Y1196525D02*
D03*
X1453363D02*
D03*
X1544320Y1192276D02*
D03*
X1445363Y1164525D02*
D03*
X1437363D02*
D03*
X1445363Y1148525D02*
D03*
X1437363D02*
D03*
X1543050Y977392D02*
D03*
X1545336Y836422D02*
D03*
X1477363Y1108525D02*
D03*
X1429363Y1220525D02*
D03*
X1397363D02*
D03*
X1389363Y1252525D02*
D03*
X1373363Y1212525D02*
D03*
Y1220525D02*
D03*
X1429363Y1212525D02*
D03*
X1397363D02*
D03*
X1365363Y1204525D02*
D03*
Y1196525D02*
D03*
X1325363Y1244525D02*
D03*
X1059180Y1405890D02*
D03*
X1021842Y1398778D02*
D03*
X1357363Y1204525D02*
D03*
Y1196525D02*
D03*
X1349363Y1212525D02*
D03*
Y1204525D02*
D03*
X1365363Y1156525D02*
D03*
X1357363D02*
D03*
X1325363D02*
D03*
X1389363Y1140525D02*
D03*
Y1132525D02*
D03*
X1421363D02*
D03*
X1413363D02*
D03*
X1381363Y1100525D02*
D03*
X1152144Y883920D02*
D03*
X1084101Y907148D02*
D03*
X1085628Y889647D02*
D03*
X1145157Y863714D02*
D03*
X1083339Y869556D02*
D03*
X1276858Y847598D02*
D03*
X1410716Y871474D02*
D03*
X1761410Y732634D02*
D03*
X1187704Y864362D02*
D03*
X1293074Y698754D02*
D03*
X1285620Y731266D02*
D03*
X1058926Y797052D02*
D03*
X1073404Y814070D02*
D03*
X1013460Y750316D02*
D03*
X1744392Y750390D02*
D03*
X1069086Y737870D02*
D03*
X1047496Y746252D02*
D03*
X1703832Y1408176D02*
D03*
X1144526Y1216940D02*
D03*
X1704340Y1352804D02*
D03*
X1703832Y1129792D02*
D03*
X1680718Y1070610D02*
D03*
X1703832Y1268730D02*
D03*
X1704594Y1214120D02*
D03*
X1168146Y1275334D02*
D03*
X1168069Y1409479D02*
D03*
X1167561Y1354107D02*
D03*
X1703787Y1129837D02*
D03*
X1429363Y1100525D02*
D03*
X1053846Y1044956D02*
D03*
X1481582Y938276D02*
D03*
X1478280Y962406D02*
D03*
X1053846Y1053338D02*
D03*
X1070211Y1062000D02*
D03*
X1472438Y957834D02*
D03*
X1437363Y1100525D02*
D03*
X1054100Y1060704D02*
D03*
X1437363Y1108525D02*
D03*
X1442602Y943429D02*
D03*
X1069957Y1053618D02*
D03*
X1445363Y1108525D02*
D03*
X1449578Y958596D02*
D03*
X1520190Y1213358D02*
D03*
X1445363Y1204525D02*
D03*
X1437363D02*
D03*
X1801622Y1086104D02*
D03*
X1445363Y1188525D02*
D03*
X1437363D02*
D03*
X1413363Y1212525D02*
D03*
Y1220525D02*
D03*
X1389363D02*
D03*
Y1212525D02*
D03*
X1429363Y1140525D02*
D03*
Y1132525D02*
D03*
X1397363D02*
D03*
X1365363Y1180525D02*
D03*
X1357363D02*
D03*
X1397363Y1140525D02*
D03*
X1477363Y1212525D02*
D03*
X1801622Y1094486D02*
D03*
X1512316Y1342703D02*
D03*
X1476552Y924356D02*
D03*
X1148715Y931037D02*
D03*
X1485138Y1182370D02*
D03*
X1556766Y1197991D02*
D03*
X1575816Y1198164D02*
D03*
X1831594Y1390142D02*
D03*
X1830832Y1406398D02*
D03*
X1801622Y1398016D02*
D03*
X1757504Y1398270D02*
D03*
X1757935Y1406145D02*
D03*
X1801663Y1294384D02*
D03*
X1801651Y1302512D02*
D03*
X1801293Y1310386D02*
D03*
X1801051Y1318514D02*
D03*
X1801368Y1326134D02*
D03*
X1801104Y1334516D02*
D03*
X1800606Y1342136D02*
D03*
X1800352Y1350264D02*
D03*
X1794243Y1366254D02*
D03*
X1786066Y1030286D02*
D03*
X1413363Y1236525D02*
D03*
X1796796Y1241298D02*
D03*
X1704342Y1344113D02*
D03*
X1707134Y1374140D02*
D03*
Y1358900D02*
D03*
X1521714Y1139952D02*
D03*
X1586242Y1213600D02*
D03*
X1641806Y1196797D02*
D03*
X1661160Y1299210D02*
D03*
X1648714Y1089406D02*
D03*
X1546860Y1132840D02*
D03*
X1550924Y1150874D02*
D03*
X1453363Y1100525D02*
D03*
X1477363Y1180525D02*
D03*
X1600962Y1204722D02*
D03*
X1461363Y1236525D02*
D03*
X1453896Y1296416D02*
D03*
X1604264Y1258570D02*
D03*
X1437363Y1244525D02*
D03*
X1461363Y1148525D02*
D03*
X1703324Y1183592D02*
D03*
X1469363Y1132525D02*
D03*
X1604518Y1233678D02*
D03*
X1445363Y1244525D02*
D03*
X1802108Y1206042D02*
D03*
X1704555Y1244576D02*
D03*
X1469363Y1148525D02*
D03*
X1513078Y1149096D02*
D03*
X1444244Y1271270D02*
D03*
X1595628Y1252220D02*
D03*
X1437363Y1252525D02*
D03*
X1801854Y1230426D02*
D03*
X1706626Y1234948D02*
D03*
X1802132Y1174014D02*
D03*
X1477363Y1140525D02*
D03*
X1499108Y1140206D02*
D03*
X1592072Y1235964D02*
D03*
X1445363Y1236525D02*
D03*
X1413363Y1228525D02*
D03*
X1597914Y1284478D02*
D03*
X1413002Y1326642D02*
D03*
X1802132Y1189762D02*
D03*
X1706880Y1274318D02*
D03*
X1802132Y1213892D02*
D03*
X1706372Y1189228D02*
D03*
X1413363Y1100525D02*
D03*
X1604010Y1041400D02*
D03*
X1604518Y1271524D02*
D03*
X1707134Y1219962D02*
D03*
Y1259586D02*
D03*
X1802132Y1198144D02*
D03*
X1707134Y1204468D02*
D03*
X1602994Y1245870D02*
D03*
X1468122Y1304316D02*
D03*
X1445363Y1228525D02*
D03*
X1453363Y1148525D02*
D03*
X1787144Y1182116D02*
D03*
X1512570Y1245108D02*
D03*
X1634236Y1202690D02*
D03*
X1802108Y1181912D02*
D03*
X1801878Y1222528D02*
D03*
X1604225Y1264629D02*
D03*
X1463296Y1314476D02*
D03*
X1437363Y1236525D02*
D03*
X1477363Y1132525D02*
D03*
X1706372Y1290066D02*
D03*
X1582420Y1140460D02*
D03*
X1601216Y1149604D02*
D03*
X1605788Y1135126D02*
D03*
X1588262Y1405128D02*
D03*
X1506474Y1531366D02*
D03*
X1490400Y1531648D02*
D03*
X1801622Y1041908D02*
D03*
X1477363Y1116525D02*
D03*
X1757426Y1169924D02*
D03*
X1792224Y1061720D02*
D03*
X1461363Y1108525D02*
D03*
X1465328Y1065786D02*
D03*
X1755140Y1043432D02*
D03*
X1646682Y1042670D02*
D03*
X1639570Y1042924D02*
D03*
X1475994Y1041146D02*
D03*
X1470660Y1045972D02*
D03*
X1464564Y1057910D02*
D03*
X1578356Y1544066D02*
D03*
X1290320Y1543558D02*
D03*
X1282446Y1544066D02*
D03*
X1274318D02*
D03*
X1458468Y1543304D02*
D03*
X1450340Y1543558D02*
D03*
X1442212Y1543304D02*
D03*
X1522222Y1544066D02*
D03*
X1586484D02*
D03*
X1610106Y1543304D02*
D03*
X1602232Y1543812D02*
D03*
X1617980Y1543558D02*
D03*
X1594358Y1544066D02*
D03*
X1546606Y1543304D02*
D03*
X1538732Y1543812D02*
D03*
X1554480Y1543558D02*
D03*
X1530858Y1544066D02*
D03*
X1426210Y1542796D02*
D03*
X1418336Y1543304D02*
D03*
X1434084Y1543050D02*
D03*
X1410462Y1543558D02*
D03*
X1394460D02*
D03*
X1386586Y1544066D02*
D03*
X1402334Y1543812D02*
D03*
X1378712Y1544320D02*
D03*
X1322324Y1542796D02*
D03*
X1314450Y1543304D02*
D03*
X1330198Y1543050D02*
D03*
X1306576Y1543558D02*
D03*
X1266190D02*
D03*
X1258316Y1543812D02*
D03*
X1349363Y1156525D02*
D03*
Y1164525D02*
D03*
X1397363Y1236525D02*
D03*
X1389380Y1236726D02*
D03*
X1453363Y1228525D02*
D03*
X1613408Y1037082D02*
D03*
X1389363Y1116525D02*
D03*
X1461363Y1220525D02*
D03*
X1711452Y1185164D02*
D03*
X1477363Y1164525D02*
D03*
X1397363Y1124525D02*
D03*
X1226566Y1544828D02*
D03*
X1341363Y1188525D02*
D03*
X1104646Y1324102D02*
D03*
X1381363Y1116525D02*
D03*
X1349363Y1228525D02*
D03*
X1429363D02*
D03*
X1421363Y1236525D02*
D03*
X1469363Y1220525D02*
D03*
X1477363Y1148525D02*
D03*
X1726438Y1170686D02*
D03*
X1461363Y1124525D02*
D03*
X1748790Y1169162D02*
D03*
X1421363Y1116525D02*
D03*
Y1108525D02*
D03*
X1341363Y1156525D02*
D03*
X1357363Y1236525D02*
D03*
X1389363Y1228525D02*
D03*
X1429363Y1252525D02*
D03*
X1469363Y1228525D02*
D03*
Y1180525D02*
D03*
X1397363Y1116525D02*
D03*
X1421363Y1228525D02*
D03*
X1250188Y1544320D02*
D03*
X1333363Y1148525D02*
D03*
Y1164525D02*
D03*
X1381363Y1108525D02*
D03*
X1397363Y1228525D02*
D03*
X1453363Y1252525D02*
D03*
X1469363Y1212525D02*
D03*
X1477363Y1156525D02*
D03*
X1722120Y1180338D02*
D03*
X1389363Y1108525D02*
D03*
X1053340Y1237768D02*
D03*
X1421363Y1124525D02*
D03*
X1357363Y1228525D02*
D03*
X1421363Y1252525D02*
D03*
X1429363Y1244525D02*
D03*
X1469363Y1108525D02*
D03*
X1453363Y1132525D02*
D03*
X1730756Y1184910D02*
D03*
X1469363Y1124525D02*
D03*
X1739900Y1178052D02*
D03*
X1234440Y1544574D02*
D03*
X1349363Y1148525D02*
D03*
X1333363Y1156525D02*
D03*
X1381506Y1252474D02*
D03*
X1389363Y1244525D02*
D03*
X1461363Y1212525D02*
D03*
Y1228525D02*
D03*
X1397363Y1108525D02*
D03*
X1389363Y1100525D02*
D03*
X1381363Y1124525D02*
D03*
X1397363Y1244525D02*
D03*
X1421363D02*
D03*
X1717548Y1183640D02*
D03*
X1469363Y1156525D02*
D03*
X1477363Y1124525D02*
D03*
X1744218Y1173734D02*
D03*
X1389363Y1124525D02*
D03*
X1242314Y1544066D02*
D03*
X1341363Y1148525D02*
D03*
X1397363Y1100525D02*
D03*
X1349363Y1236525D02*
D03*
X1381363Y1244525D02*
D03*
X1429363Y1236525D02*
D03*
X1437363Y1228525D02*
D03*
X1469363Y1100525D02*
D03*
X1445363Y1124525D02*
D03*
X1735582Y1181862D02*
D03*
X1469363Y1116525D02*
D03*
X1604518Y1443990D02*
D03*
X1547622Y1452880D02*
D03*
X1053592Y1373632D02*
D03*
X1411986Y1321054D02*
D03*
X1249172Y1251712D02*
D03*
X1250696Y1262888D02*
D03*
X1268476Y1301750D02*
D03*
X1703832Y1094994D02*
D03*
X1516380Y1199388D02*
D03*
X1536840Y1100696D02*
D03*
X1453363Y1188525D02*
D03*
X1711960Y1129792D02*
D03*
X1802412Y1109980D02*
D03*
X1704301Y1049758D02*
D03*
X1704530Y1064577D02*
D03*
X1531874Y1103884D02*
D03*
X1453363Y1180525D02*
D03*
X1802158Y1102360D02*
D03*
X1477363Y1220525D02*
D03*
X1706372Y1328674D02*
D03*
X1707134Y1399032D02*
D03*
Y1413510D02*
D03*
X1705102Y1428750D02*
D03*
X1703832Y1323086D02*
D03*
X1601620Y1108075D02*
D03*
X1516380Y1192276D02*
D03*
X1523238Y1268476D02*
D03*
X1528572Y1264666D02*
D03*
X1256792Y1236726D02*
D03*
X1407668Y1062296D02*
D03*
X1513078Y1155192D02*
D03*
X1267460Y1264666D02*
D03*
X1259078Y1266698D02*
D03*
X1256030Y1274064D02*
D03*
X1277366Y1456182D02*
D03*
X1493266Y1021334D02*
D03*
X1059434Y1207770D02*
D03*
X1063752Y1246886D02*
D03*
X1245616Y1276604D02*
D03*
Y1246124D02*
D03*
X1302512Y1078992D02*
D03*
X1485138Y1197102D02*
D03*
X1542288Y1090930D02*
D03*
X1246091Y1379507D02*
D03*
X1252855Y1396111D02*
D03*
X1252220Y1404366D02*
D03*
X1485392Y1067412D02*
D03*
X1445363Y1116525D02*
D03*
X1487170Y1435862D02*
D03*
X1244346Y1191260D02*
D03*
X1244094Y1196874D02*
D03*
X1244346Y1202944D02*
D03*
X1262888Y1186434D02*
D03*
X1598930Y1431290D02*
D03*
X1605026Y1434338D02*
D03*
X1365363Y1236525D02*
D03*
X1361948Y1338834D02*
D03*
X1628648Y1334262D02*
D03*
X1296416Y1410970D02*
D03*
X1325363Y1196525D02*
D03*
X1586992Y1150620D02*
D03*
X1592072Y1242568D02*
D03*
X1601216Y1213358D02*
D03*
X1445363Y1252525D02*
D03*
X1604772Y1067562D02*
D03*
X1053848Y1261644D02*
D03*
X1053594Y1253262D02*
D03*
Y1277900D02*
D03*
X1053340Y1269518D02*
D03*
X1124966Y1229868D02*
D03*
X1129792Y1225550D02*
D03*
X1134110Y1221232D02*
D03*
X1138428Y1216660D02*
D03*
X1069340Y1389126D02*
D03*
X1053340Y1357910D02*
D03*
Y1309650D02*
D03*
X1053086Y1349528D02*
D03*
X1053848Y1301776D02*
D03*
X1053594Y1341654D02*
D03*
Y1293394D02*
D03*
Y1318032D02*
D03*
X1053340Y1333272D02*
D03*
X1245743Y1306195D02*
D03*
X1249934Y1301750D02*
D03*
X1259332Y1301496D02*
D03*
X1058418Y1389126D02*
D03*
X1458722Y913892D02*
D03*
X1413363Y1244525D02*
D03*
X1802386Y1134136D02*
D03*
X1709166Y1149883D02*
D03*
X1444752Y1336802D02*
D03*
X1704301Y1383514D02*
D03*
X1461363Y1244525D02*
D03*
X1802386Y1149884D02*
D03*
X1802488Y1158390D02*
D03*
X1711198Y1114806D02*
D03*
X1802461Y1125829D02*
D03*
X1703832Y1080008D02*
D03*
X1430530Y1332103D02*
D03*
X1464818Y1342898D02*
D03*
X1413363Y1252525D02*
D03*
X1461363Y1100525D02*
D03*
X1802362Y1142034D02*
D03*
X1756458Y1022168D02*
D03*
X1461363Y1132525D02*
D03*
X1710436Y1104646D02*
D03*
X1802362Y1117904D02*
D03*
X1357363Y1244525D02*
D03*
X1353820Y1350264D02*
D03*
X1602486D02*
D03*
X1305054Y1400582D02*
D03*
X1341363Y1196525D02*
D03*
X1588008Y1412240D02*
D03*
X1349363Y1252525D02*
D03*
X1349248Y1358646D02*
D03*
X1602486Y1357630D02*
D03*
X1603250Y1404565D02*
D03*
X1341363Y1244525D02*
D03*
X1329438Y1395756D02*
D03*
X1325363Y1188525D02*
D03*
X1286510Y1421384D02*
D03*
X1369824Y1331494D02*
D03*
X1603504Y1334796D02*
D03*
X1365363Y1228525D02*
D03*
X1469363Y1236525D02*
D03*
X1602996Y1365022D02*
D03*
X1349363Y1244525D02*
D03*
X1344424Y1384834D02*
D03*
X1333363Y1188525D02*
D03*
X1291590Y1416304D02*
D03*
X1469363Y1204525D02*
D03*
X1602994Y1378712D02*
D03*
X1333363Y1196525D02*
D03*
X1300988Y1406652D02*
D03*
X1603392Y1413874D02*
D03*
X1469363Y1244525D02*
D03*
X1341363Y1252525D02*
D03*
X1602996Y1371880D02*
D03*
X1339090Y1390422D02*
D03*
X1515364Y1098296D02*
D03*
X1527048Y1096518D02*
D03*
X1604772Y1073658D02*
D03*
X1604264Y1080008D02*
D03*
X1517396Y1107948D02*
D03*
X1477363Y1228525D02*
D03*
Y1236525D02*
D03*
X1482371Y1448780D02*
D03*
X1453363Y1164525D02*
D03*
X1461363Y1140525D02*
D03*
X1453363Y1124525D02*
D03*
X1437363D02*
D03*
X1461363Y1188525D02*
D03*
X1469363Y1140525D02*
D03*
X1453363D02*
D03*
Y1108525D02*
D03*
X1461363Y1156525D02*
D03*
X1453363Y1116525D02*
D03*
X1477363Y1244525D02*
D03*
X1756664Y1163066D02*
D03*
X1325363Y1236525D02*
D03*
X1333363Y1204525D02*
D03*
X1373363Y1228525D02*
D03*
X1258572Y1430046D02*
D03*
X1381363Y1228525D02*
D03*
X1341363D02*
D03*
X1333363Y1236525D02*
D03*
X1341363Y1204525D02*
D03*
X1249428Y1374506D02*
D03*
X1365363Y1252525D02*
D03*
X1373363D02*
D03*
Y1236525D02*
D03*
X1325363Y1228525D02*
D03*
X1333363Y1244525D02*
D03*
X1247825Y1414559D02*
D03*
X1373363Y1244525D02*
D03*
X1259289Y1384371D02*
D03*
X1365363Y1244525D02*
D03*
X1247394Y1435100D02*
D03*
X1381363Y1236525D02*
D03*
X1333363Y1228525D02*
D03*
X1437363Y1116525D02*
D03*
X1053340Y1029234D02*
D03*
X1053742Y1094004D02*
D03*
X1053594Y1246150D02*
D03*
Y1221512D02*
D03*
X1325363Y1212525D02*
D03*
X1083137Y1417123D02*
D03*
X1053996Y1205764D02*
D03*
X1053487Y1117626D02*
D03*
X1053594Y1149630D02*
D03*
X1058418Y1071626D02*
D03*
X1429363Y1116525D02*
D03*
X1428496Y954024D02*
D03*
X1070465Y1038124D02*
D03*
X1325363Y1204525D02*
D03*
X1053848Y1382040D02*
D03*
X1053086Y1182396D02*
D03*
X1053742Y1197382D02*
D03*
X1341363Y1236525D02*
D03*
X1070231Y1396899D02*
D03*
X1053848Y1132612D02*
D03*
X1053233Y1109244D02*
D03*
X1053848Y1158012D02*
D03*
X1053487Y1085622D02*
D03*
X1052832Y1174014D02*
D03*
X1053848Y1229894D02*
D03*
X1424432Y949706D02*
D03*
X1097536Y1029742D02*
D03*
X1429363Y1124525D02*
D03*
X1333363Y1252525D02*
D03*
X1054102Y1140994D02*
D03*
X1039116Y1416584D02*
D03*
X1602486Y1343660D02*
D03*
X1477363Y1204525D02*
D03*
X1496568Y1293876D02*
D03*
X1357630Y1343914D02*
D03*
X1442466Y994664D02*
D03*
Y987044D02*
D03*
X1111250Y939038D02*
D03*
X1413363Y1116525D02*
D03*
X1372870Y977900D02*
D03*
X1326896Y1000506D02*
D03*
X1404620Y991870D02*
D03*
X1375664Y1015238D02*
D03*
X1375156Y1003554D02*
D03*
X1369568Y1022858D02*
D03*
X1365363Y1132525D02*
D03*
Y1140525D02*
D03*
X1360424Y1014984D02*
D03*
X1354074Y1023112D02*
D03*
X1292354Y993420D02*
D03*
X1283718Y986816D02*
D03*
X1384125Y998385D02*
D03*
X1384379Y979203D02*
D03*
X1350343Y1004481D02*
D03*
X1349835Y985553D02*
D03*
X1190070Y1118735D02*
D03*
X1341363Y1116525D02*
D03*
Y1140525D02*
D03*
X1190324Y1141948D02*
D03*
X1461363Y1164525D02*
D03*
X1453363Y1244525D02*
D03*
X1333363Y1212525D02*
D03*
Y1220525D02*
D03*
X1325363Y1164525D02*
D03*
X1189816Y1001740D02*
D03*
X1349363Y1124525D02*
D03*
X1189845Y1092281D02*
D03*
X1333363Y1124525D02*
D03*
X1365363D02*
D03*
X1189845Y990681D02*
D03*
X1341363Y1100525D02*
D03*
X1189816Y1051933D02*
D03*
X1413363Y1124525D02*
D03*
X1189562Y1018151D02*
D03*
X1357363Y1116525D02*
D03*
X1341363Y1164525D02*
D03*
X1249682Y1241324D02*
D03*
X1341363Y1180525D02*
D03*
X1357363Y1100525D02*
D03*
X1341363Y1132525D02*
D03*
X1190324Y1135852D02*
D03*
X1341363Y1212525D02*
D03*
X1190098Y1058245D02*
D03*
X1341363Y1108525D02*
D03*
X1333363Y1116525D02*
D03*
X1189562Y1085969D02*
D03*
X1461363Y1180525D02*
D03*
X1341363Y1220525D02*
D03*
X1333363Y1180525D02*
D03*
X1325363Y1124525D02*
D03*
X1190324Y1108420D02*
D03*
X1189816Y1069558D02*
D03*
X1333363Y1100525D02*
D03*
X1189845Y1024463D02*
D03*
X1357363Y1124525D02*
D03*
X1453363Y1236525D02*
D03*
X1357363Y1108525D02*
D03*
X1189816Y967958D02*
D03*
X1373363Y1116525D02*
D03*
X1413363Y1108525D02*
D03*
X1325363D02*
D03*
X1461363Y1252525D02*
D03*
X1349363Y1188525D02*
D03*
Y1220525D02*
D03*
X1190352Y1158575D02*
D03*
X1349363Y1140525D02*
D03*
Y1108525D02*
D03*
X1189064Y1041866D02*
D03*
X1341363Y1124525D02*
D03*
X1190352Y1125047D02*
D03*
X1445363Y1100525D02*
D03*
X1190324Y1102324D02*
D03*
X1325363Y1116525D02*
D03*
X1189816Y974054D02*
D03*
X1373363Y1124525D02*
D03*
X1189816Y1075654D02*
D03*
X1333363Y1108525D02*
D03*
X1189064Y1035770D02*
D03*
X1349363Y1100525D02*
D03*
X1357363Y1252525D02*
D03*
X1349363Y1116525D02*
D03*
X1189816Y1007836D02*
D03*
X1189562Y984369D02*
D03*
X1365363Y1116525D02*
D03*
X1325363Y1132525D02*
D03*
X1349363Y1180525D02*
D03*
X1190070Y1152263D02*
D03*
X1349363Y1132525D02*
D03*
X1325363Y1180525D02*
D03*
X1453363Y1156525D02*
D03*
X1325363Y1220525D02*
D03*
X1461363Y1116525D02*
D03*
M02*
