G04*
G04 #@! TF.GenerationSoftware,Altium Limited,Altium Designer,26.5.0 (11)*
G04*
G04 Layer_Physical_Order=6*
G04 Layer_Color=16711680*
G04 Board_Origin=0|0*
%FSLAX44Y44*%
%MOMM*%
G71*
G04*
G04 #@! TF.SameCoordinates,E1122185-4118-4281-A408-FBEEEAA8865F*
G04*
G04*
G04 #@! TF.FilePolarity,Positive*
G04*
G01*
G75*
%ADD18C,0.2540*%
%ADD23R,1.0000X0.9500*%
%ADD26R,0.6000X0.8000*%
%ADD29R,0.9500X1.0000*%
G04:AMPARAMS|DCode=31|XSize=1.3mm|YSize=0.76mm|CornerRadius=0.095mm|HoleSize=0mm|Usage=FLASHONLY|Rotation=180.000|XOffset=0mm|YOffset=0mm|HoleType=Round|Shape=RoundedRectangle|*
%AMROUNDEDRECTD31*
21,1,1.3000,0.5700,0,0,180.0*
21,1,1.1100,0.7600,0,0,180.0*
1,1,0.1900,-0.5550,0.2850*
1,1,0.1900,0.5550,0.2850*
1,1,0.1900,0.5550,-0.2850*
1,1,0.1900,-0.5550,-0.2850*
%
%ADD31ROUNDEDRECTD31*%
%ADD32R,0.5400X0.5800*%
%ADD33R,0.8000X1.0000*%
%ADD35R,0.5800X0.5400*%
%ADD39R,0.8000X0.6000*%
G04:AMPARAMS|DCode=47|XSize=1.3mm|YSize=0.76mm|CornerRadius=0.095mm|HoleSize=0mm|Usage=FLASHONLY|Rotation=270.000|XOffset=0mm|YOffset=0mm|HoleType=Round|Shape=RoundedRectangle|*
%AMROUNDEDRECTD47*
21,1,1.3000,0.5700,0,0,270.0*
21,1,1.1100,0.7600,0,0,270.0*
1,1,0.1900,-0.2850,-0.5550*
1,1,0.1900,-0.2850,0.5550*
1,1,0.1900,0.2850,0.5550*
1,1,0.1900,0.2850,-0.5550*
%
%ADD47ROUNDEDRECTD47*%
%ADD53R,1.0000X0.8000*%
%ADD99C,0.1588*%
%ADD101C,0.1524*%
%ADD102C,0.1016*%
%ADD103C,1.5080*%
%ADD104C,1.2700*%
%ADD105C,1.7250*%
%ADD106C,5.0800*%
%ADD107R,1.7250X1.7250*%
%ADD108C,0.5000*%
%ADD109R,1.5080X1.5080*%
%ADD110C,0.8300*%
%ADD111C,1.2300*%
%ADD112C,0.4572*%
%ADD119R,0.9500X0.9500*%
%ADD120R,2.0000X0.5000*%
%ADD121R,0.5000X2.0000*%
%ADD122R,1.4000X1.2000*%
%ADD123O,0.4500X1.4000*%
G04:AMPARAMS|DCode=124|XSize=0.9mm|YSize=0.8mm|CornerRadius=0.048mm|HoleSize=0mm|Usage=FLASHONLY|Rotation=270.000|XOffset=0mm|YOffset=0mm|HoleType=Round|Shape=RoundedRectangle|*
%AMROUNDEDRECTD124*
21,1,0.9000,0.7040,0,0,270.0*
21,1,0.8040,0.8000,0,0,270.0*
1,1,0.0960,-0.3520,-0.4020*
1,1,0.0960,-0.3520,0.4020*
1,1,0.0960,0.3520,0.4020*
1,1,0.0960,0.3520,-0.4020*
%
%ADD124ROUNDEDRECTD124*%
%ADD125R,1.2000X1.4000*%
%ADD126R,0.5000X0.6000*%
%ADD127R,0.6000X0.5000*%
G36*
X1844294Y1376680D02*
X1849628Y1371346D01*
Y719328D01*
X1765046Y634746D01*
X1432560Y634746D01*
X1361606Y705700D01*
X1140598D01*
X1140177Y706716D01*
X1140338Y706878D01*
X1140841Y708091D01*
Y709405D01*
X1140338Y710618D01*
X1139409Y711547D01*
X1138196Y712050D01*
X1136882D01*
X1135669Y711547D01*
X1134740Y710618D01*
X1134237Y709405D01*
Y708091D01*
X1134740Y706878D01*
X1134901Y706716D01*
X1134481Y705700D01*
X1016166D01*
X1008634Y713232D01*
Y746903D01*
X1009650Y747301D01*
X1010726Y746225D01*
X1012190Y745618D01*
Y750316D01*
Y755014D01*
X1010726Y754407D01*
X1009650Y753331D01*
X1008634Y753729D01*
X1008634Y1360424D01*
X1016508Y1368298D01*
X1027201D01*
Y1366985D01*
X1039741D01*
Y1364445D01*
X1027201D01*
Y1360957D01*
X1025398Y1359154D01*
Y1220216D01*
X1027201Y1218519D01*
Y1214985D01*
X1039741D01*
Y1212445D01*
X1027201D01*
Y1208675D01*
X1027201Y1208675D01*
X1027201D01*
X1026592Y1207948D01*
X1025398Y1206754D01*
Y899922D01*
X1110742Y814578D01*
X1365758D01*
X1408430Y771906D01*
X1458468Y721868D01*
X1760474D01*
X1812798Y774192D01*
Y961644D01*
X1832864Y981710D01*
Y1052830D01*
X1828446Y1057248D01*
Y1061016D01*
X1815906D01*
Y1063556D01*
X1828446D01*
Y1067208D01*
X1831086Y1069848D01*
Y1230630D01*
X1828446Y1233270D01*
Y1237016D01*
X1815906D01*
Y1239556D01*
X1828446D01*
Y1242976D01*
X1831086Y1245616D01*
Y1366774D01*
X1828446Y1369414D01*
Y1373016D01*
X1815906D01*
Y1375556D01*
X1828446D01*
Y1376680D01*
X1844294Y1376680D01*
D02*
G37*
%LPC*%
G36*
X1074061Y817372D02*
X1072747D01*
X1071534Y816869D01*
X1070605Y815940D01*
X1070102Y814727D01*
Y813413D01*
X1070605Y812200D01*
X1071534Y811271D01*
X1072747Y810768D01*
X1074061D01*
X1075274Y811271D01*
X1076203Y812200D01*
X1076706Y813413D01*
Y814727D01*
X1076203Y815940D01*
X1075274Y816869D01*
X1074061Y817372D01*
D02*
G37*
G36*
X1131340Y810223D02*
X1130026D01*
X1128813Y809720D01*
X1127884Y808791D01*
X1127381Y807578D01*
Y806264D01*
X1127884Y805051D01*
X1128813Y804122D01*
X1130026Y803619D01*
X1131340D01*
X1132553Y804122D01*
X1133482Y805051D01*
X1133985Y806264D01*
Y807578D01*
X1133482Y808791D01*
X1132553Y809720D01*
X1131340Y810223D01*
D02*
G37*
G36*
X1126086Y800735D02*
X1124772D01*
X1123558Y800232D01*
X1122629Y799303D01*
X1122127Y798090D01*
Y796776D01*
X1122629Y795563D01*
X1123558Y794634D01*
X1124772Y794131D01*
X1126086D01*
X1127299Y794634D01*
X1128228Y795563D01*
X1128731Y796776D01*
Y798090D01*
X1128228Y799303D01*
X1127299Y800232D01*
X1126086Y800735D01*
D02*
G37*
G36*
X1059583Y800354D02*
X1058269D01*
X1057056Y799851D01*
X1056127Y798922D01*
X1055624Y797709D01*
Y796395D01*
X1056127Y795182D01*
X1057056Y794253D01*
X1058269Y793750D01*
X1059583D01*
X1060796Y794253D01*
X1061725Y795182D01*
X1062228Y796395D01*
Y797709D01*
X1061725Y798922D01*
X1060796Y799851D01*
X1059583Y800354D01*
D02*
G37*
G36*
X1111755Y789795D02*
X1110441D01*
X1109227Y789292D01*
X1108298Y788363D01*
X1107796Y787150D01*
Y785836D01*
X1108298Y784622D01*
X1109227Y783693D01*
X1110441Y783191D01*
X1111755D01*
X1112968Y783693D01*
X1113897Y784622D01*
X1114400Y785836D01*
Y787150D01*
X1113897Y788363D01*
X1112968Y789292D01*
X1111755Y789795D01*
D02*
G37*
G36*
X1125122Y782509D02*
X1123724D01*
X1122431Y781974D01*
X1121442Y780985D01*
X1120907Y779693D01*
Y778294D01*
X1121442Y777001D01*
X1122431Y776012D01*
X1123724Y775477D01*
X1125122D01*
X1126415Y776012D01*
X1127404Y777001D01*
X1127939Y778294D01*
Y779693D01*
X1127404Y780985D01*
X1126415Y781974D01*
X1125122Y782509D01*
D02*
G37*
G36*
X1144863Y773112D02*
X1143550D01*
X1142336Y772610D01*
X1141407Y771681D01*
X1140904Y770467D01*
Y769154D01*
X1141407Y767940D01*
X1142336Y767011D01*
X1143550Y766508D01*
X1144863D01*
X1146077Y767011D01*
X1147006Y767940D01*
X1147508Y769154D01*
Y770467D01*
X1147006Y771681D01*
X1146077Y772610D01*
X1144863Y773112D01*
D02*
G37*
G36*
X1130872Y773009D02*
X1129474D01*
X1128181Y772474D01*
X1127192Y771485D01*
X1126657Y770192D01*
Y768794D01*
X1127192Y767501D01*
X1128181Y766512D01*
X1129474Y765977D01*
X1130872D01*
X1132165Y766512D01*
X1133154Y767501D01*
X1133689Y768794D01*
Y770192D01*
X1133154Y771485D01*
X1132165Y772474D01*
X1130872Y773009D01*
D02*
G37*
G36*
X1119372D02*
X1117973D01*
X1116681Y772474D01*
X1115692Y771485D01*
X1115157Y770192D01*
Y768794D01*
X1115692Y767501D01*
X1116681Y766512D01*
X1117973Y765977D01*
X1119372D01*
X1120665Y766512D01*
X1121654Y767501D01*
X1122189Y768794D01*
Y770192D01*
X1121654Y771485D01*
X1120665Y772474D01*
X1119372Y773009D01*
D02*
G37*
G36*
X1104252Y766191D02*
X1102938D01*
X1101724Y765688D01*
X1100796Y764759D01*
X1100293Y763546D01*
Y762232D01*
X1100796Y761019D01*
X1101724Y760090D01*
X1102938Y759587D01*
X1104252D01*
X1105465Y760090D01*
X1106394Y761019D01*
X1106897Y762232D01*
Y763546D01*
X1106394Y764759D01*
X1105465Y765688D01*
X1104252Y766191D01*
D02*
G37*
G36*
X1153020Y772033D02*
X1151706D01*
X1150492Y771530D01*
X1149564Y770601D01*
X1149061Y769388D01*
Y768074D01*
X1149564Y766861D01*
X1149959Y766465D01*
X1149591Y765739D01*
X1149431Y765556D01*
X1148185D01*
X1146972Y765053D01*
X1146043Y764124D01*
X1145540Y762911D01*
Y761597D01*
X1146043Y760384D01*
X1146972Y759455D01*
X1148185Y758952D01*
X1149499D01*
X1150712Y759455D01*
X1151641Y760384D01*
X1152144Y761597D01*
Y762911D01*
X1151641Y764124D01*
X1151246Y764520D01*
X1151614Y765246D01*
X1151774Y765429D01*
X1153020D01*
X1154233Y765932D01*
X1155162Y766861D01*
X1155665Y768074D01*
Y769388D01*
X1155162Y770601D01*
X1154233Y771530D01*
X1153020Y772033D01*
D02*
G37*
G36*
X1125122Y763509D02*
X1123724D01*
X1122431Y762974D01*
X1121442Y761985D01*
X1120907Y760692D01*
Y759294D01*
X1121442Y758001D01*
X1122431Y757012D01*
X1123724Y756477D01*
X1125122D01*
X1126415Y757012D01*
X1127404Y758001D01*
X1127939Y759294D01*
Y760692D01*
X1127404Y761985D01*
X1126415Y762974D01*
X1125122Y763509D01*
D02*
G37*
G36*
X1014730Y755014D02*
Y751586D01*
X1018158D01*
X1017551Y753050D01*
X1016194Y754407D01*
X1014730Y755014D01*
D02*
G37*
G36*
X1093744Y757047D02*
X1092430D01*
X1091217Y756544D01*
X1090288Y755615D01*
X1089785Y754402D01*
Y753088D01*
X1090288Y751875D01*
X1091217Y750946D01*
X1092430Y750443D01*
X1093744D01*
X1094957Y750946D01*
X1095886Y751875D01*
X1096389Y753088D01*
Y754402D01*
X1095886Y755615D01*
X1094957Y756544D01*
X1093744Y757047D01*
D02*
G37*
G36*
X1111618Y756031D02*
X1110304D01*
X1109090Y755528D01*
X1108162Y754599D01*
X1107659Y753386D01*
Y752072D01*
X1108162Y750859D01*
X1109090Y749930D01*
X1110304Y749427D01*
X1111618D01*
X1112831Y749930D01*
X1113760Y750859D01*
X1114263Y752072D01*
Y753386D01*
X1113760Y754599D01*
X1112831Y755528D01*
X1111618Y756031D01*
D02*
G37*
G36*
X1084948Y755269D02*
X1083634D01*
X1082421Y754766D01*
X1081492Y753837D01*
X1080989Y752624D01*
Y751310D01*
X1081492Y750097D01*
X1082421Y749168D01*
X1083634Y748665D01*
X1084948D01*
X1086161Y749168D01*
X1087090Y750097D01*
X1087593Y751310D01*
Y752624D01*
X1087090Y753837D01*
X1086161Y754766D01*
X1084948Y755269D01*
D02*
G37*
G36*
X1018158Y749046D02*
X1014730D01*
Y745618D01*
X1016194Y746225D01*
X1017551Y747582D01*
X1018158Y749046D01*
D02*
G37*
G36*
X1198775Y751332D02*
X1197461D01*
X1196248Y750829D01*
X1195319Y749900D01*
X1194816Y748687D01*
Y747373D01*
X1195319Y746160D01*
X1196248Y745231D01*
X1197461Y744728D01*
X1198775D01*
X1199988Y745231D01*
X1200917Y746160D01*
X1201420Y747373D01*
Y748687D01*
X1200917Y749900D01*
X1199988Y750829D01*
X1198775Y751332D01*
D02*
G37*
G36*
X1217825Y750824D02*
X1216511D01*
X1215298Y750321D01*
X1214369Y749392D01*
X1213866Y748179D01*
Y746865D01*
X1214369Y745652D01*
X1215298Y744723D01*
X1216511Y744220D01*
X1217825D01*
X1219038Y744723D01*
X1219967Y745652D01*
X1220470Y746865D01*
Y748179D01*
X1219967Y749392D01*
X1219038Y750321D01*
X1217825Y750824D01*
D02*
G37*
G36*
X1048153Y749554D02*
X1046839D01*
X1045626Y749051D01*
X1044697Y748122D01*
X1044194Y746909D01*
Y745595D01*
X1044697Y744382D01*
X1045626Y743453D01*
X1046839Y742950D01*
X1048153D01*
X1049366Y743453D01*
X1050295Y744382D01*
X1050798Y745595D01*
Y746909D01*
X1050295Y748122D01*
X1049366Y749051D01*
X1048153Y749554D01*
D02*
G37*
G36*
X1263989Y749046D02*
X1262675D01*
X1261462Y748543D01*
X1260533Y747615D01*
X1260030Y746401D01*
Y745087D01*
X1260533Y743874D01*
X1261462Y742945D01*
X1262675Y742442D01*
X1263989D01*
X1265202Y742945D01*
X1266131Y743874D01*
X1266634Y745087D01*
Y746401D01*
X1266131Y747615D01*
X1265202Y748543D01*
X1263989Y749046D01*
D02*
G37*
G36*
X1141590Y744093D02*
X1140276D01*
X1139062Y743590D01*
X1138134Y742661D01*
X1137631Y741448D01*
Y740134D01*
X1138134Y738921D01*
X1139062Y737992D01*
X1140276Y737489D01*
X1141590D01*
X1142803Y737992D01*
X1143732Y738921D01*
X1144235Y740134D01*
Y741448D01*
X1143732Y742661D01*
X1142803Y743590D01*
X1141590Y744093D01*
D02*
G37*
G36*
X1837898Y750570D02*
X1835958D01*
X1834085Y750068D01*
X1832405Y749098D01*
X1831034Y747727D01*
X1830064Y746047D01*
X1829562Y744174D01*
Y742234D01*
X1830064Y740361D01*
X1831034Y738681D01*
X1832405Y737310D01*
X1834085Y736340D01*
X1835958Y735838D01*
X1837898D01*
X1839771Y736340D01*
X1841451Y737310D01*
X1842822Y738681D01*
X1843792Y740361D01*
X1844294Y742234D01*
Y744174D01*
X1843792Y746047D01*
X1842822Y747727D01*
X1841451Y749098D01*
X1839771Y750068D01*
X1837898Y750570D01*
D02*
G37*
G36*
X1089809Y741172D02*
X1088495D01*
X1087282Y740669D01*
X1086353Y739740D01*
X1085850Y738527D01*
Y737213D01*
X1086353Y736000D01*
X1087282Y735071D01*
X1088495Y734568D01*
X1089809D01*
X1091022Y735071D01*
X1091951Y736000D01*
X1092454Y737213D01*
Y738527D01*
X1091951Y739740D01*
X1091022Y740669D01*
X1089809Y741172D01*
D02*
G37*
G36*
X1069743D02*
X1068429D01*
X1067216Y740669D01*
X1066287Y739740D01*
X1065784Y738527D01*
Y737213D01*
X1066287Y736000D01*
X1067216Y735071D01*
X1068429Y734568D01*
X1069743D01*
X1070956Y735071D01*
X1071885Y736000D01*
X1072388Y737213D01*
Y738527D01*
X1071885Y739740D01*
X1070956Y740669D01*
X1069743Y741172D01*
D02*
G37*
G36*
X1217317Y735584D02*
X1216003D01*
X1214790Y735081D01*
X1213861Y734152D01*
X1213358Y732939D01*
Y731625D01*
X1213861Y730412D01*
X1214790Y729483D01*
X1216003Y728980D01*
X1217317D01*
X1218530Y729483D01*
X1219459Y730412D01*
X1219962Y731625D01*
Y732939D01*
X1219459Y734152D01*
X1218530Y735081D01*
X1217317Y735584D01*
D02*
G37*
G36*
X1199029Y735076D02*
X1197715D01*
X1196502Y734573D01*
X1195573Y733644D01*
X1195070Y732431D01*
Y731117D01*
X1195573Y729904D01*
X1196502Y728975D01*
X1197715Y728472D01*
X1199029D01*
X1200242Y728975D01*
X1201171Y729904D01*
X1201674Y731117D01*
Y732431D01*
X1201171Y733644D01*
X1200242Y734573D01*
X1199029Y735076D01*
D02*
G37*
G36*
X1286277Y734568D02*
X1284963D01*
X1283750Y734065D01*
X1282821Y733137D01*
X1282318Y731923D01*
Y730609D01*
X1282821Y729396D01*
X1283750Y728467D01*
X1284963Y727964D01*
X1286277D01*
X1287490Y728467D01*
X1288419Y729396D01*
X1288922Y730609D01*
Y731923D01*
X1288419Y733137D01*
X1287490Y734065D01*
X1286277Y734568D01*
D02*
G37*
G36*
X1074061Y731520D02*
X1072747D01*
X1071534Y731017D01*
X1070605Y730088D01*
X1070102Y728875D01*
Y727561D01*
X1070605Y726348D01*
X1071534Y725419D01*
X1072747Y724916D01*
X1074061D01*
X1075274Y725419D01*
X1076203Y726348D01*
X1076706Y727561D01*
Y728875D01*
X1076203Y730088D01*
X1075274Y731017D01*
X1074061Y731520D01*
D02*
G37*
G36*
X1154960Y729869D02*
X1153646D01*
X1152433Y729366D01*
X1151504Y728437D01*
X1151001Y727224D01*
Y725910D01*
X1151504Y724697D01*
X1152433Y723768D01*
X1153646Y723265D01*
X1154960D01*
X1156173Y723768D01*
X1157102Y724697D01*
X1157605Y725910D01*
Y727224D01*
X1157102Y728437D01*
X1156173Y729366D01*
X1154960Y729869D01*
D02*
G37*
G36*
X1021334Y726667D02*
Y719074D01*
X1028927D01*
X1028348Y721235D01*
X1027178Y723263D01*
X1025523Y724918D01*
X1023495Y726088D01*
X1021334Y726667D01*
D02*
G37*
G36*
X1018794D02*
X1016633Y726088D01*
X1014605Y724918D01*
X1012950Y723263D01*
X1011780Y721235D01*
X1011201Y719074D01*
X1018794D01*
Y726667D01*
D02*
G37*
G36*
X1133497Y724408D02*
X1132183D01*
X1130970Y723905D01*
X1130041Y722976D01*
X1129538Y721763D01*
Y720449D01*
X1130041Y719236D01*
X1130970Y718307D01*
X1132183Y717804D01*
X1133497D01*
X1134710Y718307D01*
X1135639Y719236D01*
X1136142Y720449D01*
Y721763D01*
X1135639Y722976D01*
X1134710Y723905D01*
X1133497Y724408D01*
D02*
G37*
G36*
X1260877Y721106D02*
X1259563D01*
X1258350Y720603D01*
X1257421Y719675D01*
X1256918Y718461D01*
Y717147D01*
X1257421Y715934D01*
X1258350Y715005D01*
X1259563Y714502D01*
X1260877D01*
X1262090Y715005D01*
X1263019Y715934D01*
X1263522Y717147D01*
Y718461D01*
X1263019Y719675D01*
X1262090Y720603D01*
X1260877Y721106D01*
D02*
G37*
G36*
X1028927Y716534D02*
X1021334D01*
Y708941D01*
X1023495Y709520D01*
X1025523Y710690D01*
X1027178Y712345D01*
X1028348Y714373D01*
X1028927Y716534D01*
D02*
G37*
G36*
X1018794D02*
X1011201D01*
X1011780Y714373D01*
X1012950Y712345D01*
X1014605Y710690D01*
X1016633Y709520D01*
X1018794Y708941D01*
Y716534D01*
D02*
G37*
G36*
X1163088Y713447D02*
X1161774D01*
X1160560Y712944D01*
X1159631Y712015D01*
X1159129Y710802D01*
Y709488D01*
X1159631Y708275D01*
X1160560Y707346D01*
X1161774Y706843D01*
X1163088D01*
X1164301Y707346D01*
X1165230Y708275D01*
X1165733Y709488D01*
Y710802D01*
X1165230Y712015D01*
X1164301Y712944D01*
X1163088Y713447D01*
D02*
G37*
%LPD*%
D18*
X1692404Y1354627D02*
X1701967D01*
X1617066Y1408629D02*
X1627634D01*
X1615969Y1354862D02*
X1628396D01*
X1627082Y1267460D02*
X1627632D01*
X1626221Y1268321D02*
X1627082Y1267460D01*
X1616458Y1268321D02*
X1626221D01*
X1618789Y1214120D02*
X1627632D01*
X1616204Y1407767D02*
X1617066Y1408629D01*
X1615950Y1354881D02*
X1615969Y1354862D01*
X1628100Y1130072D02*
X1628650D01*
X1617493Y1131342D02*
X1626830D01*
X1628100Y1130072D01*
X1619705Y1074166D02*
X1628140D01*
X1617220Y1131615D02*
X1617493Y1131342D01*
X1616458Y1077413D02*
X1619705Y1074166D01*
X1229996Y1409954D02*
X1230378Y1409572D01*
X1213146Y1409954D02*
X1229996D01*
X1212384Y1410716D02*
X1213146Y1409954D01*
X1211580Y1354328D02*
X1230050D01*
X1211580Y1274572D02*
X1230758D01*
X1211834Y1410716D02*
X1212384D01*
X1230758Y1274572D02*
X1232156Y1273174D01*
X1207262Y1229106D02*
X1222348Y1214020D01*
X1231900D01*
X1216018Y979163D02*
X1216060Y979121D01*
X1216018Y1046219D02*
X1216060Y1046178D01*
X1216018Y1062729D02*
X1216060Y1062688D01*
X1216018Y1029201D02*
X1216060Y1029159D01*
X1053839Y1077715D02*
X1053846Y1077722D01*
X1039741Y1077715D02*
X1053839D01*
X1064006Y1067054D02*
X1066667Y1069715D01*
X1066292Y1114044D02*
X1069963Y1117715D01*
X1066667Y1069715D02*
X1083741D01*
X1216018Y1096765D02*
X1216060Y1096723D01*
X1069963Y1117715D02*
X1083741D01*
X1216018Y1113529D02*
X1216060Y1113487D01*
X1216018Y1012945D02*
X1216060Y1012904D01*
X1216018Y995927D02*
X1216060Y995885D01*
X1216018Y1079747D02*
X1216060Y1079706D01*
X1219790Y987443D02*
X1221860Y985373D01*
Y979163D02*
Y985373D01*
Y995927D02*
Y1002137D01*
X1219790Y1004207D02*
X1221860Y1002137D01*
Y1012945D02*
Y1019155D01*
X1315720Y983362D02*
X1325702D01*
X1325752D02*
X1325880Y983234D01*
X1325702Y983362D02*
X1325752D01*
X1362710Y988188D02*
X1371270D01*
X1374259Y991177D01*
Y992243D01*
X1374648Y992632D01*
X1219790Y1021225D02*
X1221860Y1019155D01*
X1219790Y1037481D02*
X1222004Y1035267D01*
X1221860Y1029201D02*
X1222004Y1029345D01*
Y1035267D01*
X1219790Y1054499D02*
X1221860Y1052429D01*
Y1046219D02*
Y1052429D01*
Y1062729D02*
X1222071Y1062941D01*
X1219790Y1071009D02*
X1222071Y1068727D01*
X1219790Y1088027D02*
X1221860Y1085957D01*
Y1079747D02*
Y1085957D01*
Y1096765D02*
Y1102975D01*
X1219790Y1121809D02*
X1221860Y1119739D01*
X1219790Y1105045D02*
X1221860Y1102975D01*
Y1113529D02*
Y1119739D01*
X1222071Y1062941D02*
Y1068727D01*
X1296647Y1083287D02*
X1300658Y1087298D01*
X1312954D01*
X1313564Y1087908D01*
X1039741Y1125715D02*
X1053351D01*
X1053592Y1125474D01*
X1039741Y1189715D02*
X1040112Y1189344D01*
X1052713D01*
X1053084Y1188974D01*
X1083741Y1181715D02*
X1097895D01*
X1098042Y1181862D01*
X1082511Y1230945D02*
X1083741Y1229715D01*
X1068324Y1234694D02*
Y1239520D01*
Y1234694D02*
X1072073Y1230945D01*
X1082511D01*
X1157608Y1259840D02*
X1168146D01*
X1216018Y1130039D02*
X1216060Y1129997D01*
X1216018Y1147311D02*
X1216060Y1147270D01*
X1219790Y1138319D02*
X1221860Y1136249D01*
Y1130039D02*
Y1136249D01*
Y1147311D02*
Y1153521D01*
X1224180Y1201520D02*
X1231900D01*
X1206500Y1219200D02*
X1224180Y1201520D01*
X1069594Y1301496D02*
X1069704Y1301606D01*
X1083631D01*
X1156464Y1258696D02*
X1157608Y1259840D01*
X1083631Y1301606D02*
X1083741Y1301715D01*
X1156385Y1367723D02*
X1157976Y1369314D01*
X1069848Y1381252D02*
X1070079Y1381483D01*
X1083510D01*
X1083741Y1381715D01*
X1156385Y1395863D02*
X1158209Y1394039D01*
X1157976Y1369314D02*
X1167638D01*
X1158209Y1394039D02*
X1167507D01*
X1224749Y1339574D02*
X1224772Y1339551D01*
X1211349Y1287041D02*
X1230788D01*
X1232156Y1285674D01*
X1212872Y1339574D02*
X1224749D01*
X1211834Y1420622D02*
X1228928D01*
X1227682Y1341628D02*
X1228344Y1340966D01*
X1228928Y1420622D02*
X1230378Y1422072D01*
X1316553Y1146782D02*
X1323069D01*
X1316498Y1146836D02*
X1316553Y1146782D01*
X1298544Y1146890D02*
X1298598Y1146836D01*
X1323069Y1146782D02*
X1324813Y1148525D01*
X1325363D01*
X1365363Y1164525D02*
Y1165075D01*
X1364681Y1165757D02*
X1365363Y1165075D01*
X1364681Y1165757D02*
Y1172143D01*
X1373671Y1163461D02*
Y1164218D01*
X1290320Y1529334D02*
X1290400Y1529254D01*
Y1515716D02*
Y1529254D01*
X1365363Y1188525D02*
X1365508Y1188380D01*
X1373336D01*
X1373481Y1188235D01*
X1380133Y1293355D02*
X1380195Y1293418D01*
X1390230D01*
X1389632Y1147774D02*
X1389901Y1147505D01*
X1381355Y1156517D02*
X1381363Y1156525D01*
X1389363D02*
X1389632Y1156256D01*
X1420040Y1073732D02*
X1439976D01*
X1441706Y1075462D01*
Y1075812D01*
X1420974Y1140914D02*
X1421363Y1140525D01*
X1428853Y1178911D02*
Y1179095D01*
X1430283Y1180525D02*
X1437363D01*
X1579245Y838454D02*
X1579372Y838327D01*
X1591183Y900684D02*
X1591310Y900557D01*
Y889127D02*
Y900557D01*
X1579372Y838327D02*
X1591310D01*
X1579499Y863600D02*
X1591437D01*
X1591310Y838327D02*
X1591437Y838200D01*
X1591310Y889127D02*
X1591437Y889000D01*
X1591310Y943229D02*
Y952119D01*
X1591183Y952246D02*
X1591310Y952119D01*
X1604009Y952126D02*
X1610751D01*
X1591183Y952246D02*
X1603889D01*
X1604009Y952126D01*
X1616500Y1089871D02*
X1626151D01*
X1616458Y1089913D02*
X1616500Y1089871D01*
X1626151D02*
X1627969Y1088053D01*
X1688258Y820762D02*
Y856780D01*
X1691014Y859536D01*
X1789548Y858012D02*
X1793341Y861805D01*
Y895765D01*
X1747774Y1057402D02*
X1752658Y1062286D01*
X1627969Y1087587D02*
X1631950Y1083606D01*
X1627969Y1087587D02*
Y1088053D01*
X1631950Y1083056D02*
Y1083606D01*
X1752658Y1062286D02*
X1771906D01*
X1694646Y1090025D02*
X1707499D01*
X1486423Y1100176D02*
X1486772Y1099827D01*
X1477363Y1100525D02*
X1477712Y1100176D01*
X1486423D01*
X1625584Y1143534D02*
X1627336Y1145286D01*
X1703030Y1114806D02*
X1703578D01*
X1701151Y1116684D02*
X1703030Y1114806D01*
X1617801Y1143534D02*
X1625584D01*
X1617220Y1144115D02*
X1617801Y1143534D01*
X1627336Y1145286D02*
X1627886D01*
X1771906Y1166286D02*
X1772119Y1166073D01*
X1785915D01*
X1786128Y1165860D01*
X1381441Y1204479D02*
X1381519Y1204401D01*
X1420217D02*
X1420974Y1205159D01*
X1381441Y1204479D02*
Y1212447D01*
X1420974Y1205159D02*
Y1212137D01*
X1421363Y1212525D01*
X1430537Y1196453D02*
X1430737D01*
X1430809Y1196525D01*
X1437363D01*
X1381363Y1212525D02*
X1381441Y1212447D01*
X1390230Y1293418D02*
X1390293Y1293481D01*
X1389923Y1293851D02*
X1390293Y1293481D01*
X1469239Y1271039D02*
X1469297Y1270981D01*
X1476756Y1294130D02*
X1477542Y1293345D01*
X1496314Y1217580D02*
X1504030D01*
X1505712Y1215898D01*
X1469297Y1270981D02*
X1478269D01*
X1478327Y1270923D02*
Y1292559D01*
X1477542Y1293345D02*
X1478327Y1292559D01*
X1478269Y1270981D02*
X1478327Y1270923D01*
X1388618Y1301496D02*
X1389923Y1300191D01*
Y1293851D02*
Y1300191D01*
X1491234Y1394494D02*
Y1395494D01*
X1488504Y1397224D02*
X1489504D01*
X1491234Y1395494D01*
X1500220Y1378204D02*
X1501220D01*
X1502950Y1379934D02*
Y1399022D01*
X1501220Y1378204D02*
X1502950Y1379934D01*
X1417170Y1516946D02*
X1418400Y1515716D01*
X1478060Y1407668D02*
X1488504Y1397224D01*
X1412494Y1529588D02*
X1412883Y1529199D01*
X1417170Y1516946D02*
Y1526174D01*
X1412883Y1529199D02*
X1414145D01*
X1417170Y1526174D01*
X1502950Y1399022D02*
X1504188Y1400260D01*
Y1400810D01*
X1548189Y1385300D02*
Y1389947D01*
X1559814Y1401572D01*
X1529975Y1461891D02*
X1530361Y1461505D01*
Y1444994D02*
Y1461505D01*
X1543611Y1413392D02*
X1557646D01*
X1562989Y1408049D01*
X1626503Y1228951D02*
X1627592Y1227862D01*
X1628142D01*
X1616458Y1255821D02*
X1626365D01*
X1627844Y1257300D02*
X1628394D01*
X1626365Y1255821D02*
X1627844Y1257300D01*
X1693574Y1229051D02*
X1693883Y1229360D01*
X1771906Y1238286D02*
X1773136Y1239516D01*
X1783584D02*
X1787906Y1243838D01*
X1701967Y1255567D02*
X1703282Y1254252D01*
X1773136Y1239516D02*
X1783584D01*
X1787906Y1243838D02*
Y1251966D01*
X1703282Y1254252D02*
X1703832D01*
X1615950Y1367381D02*
X1627665D01*
X1628354Y1368070D01*
X1616204Y1395267D02*
X1616503Y1394968D01*
X1583436Y1530096D02*
X1585170Y1528362D01*
Y1516946D02*
Y1528362D01*
Y1516946D02*
X1586400Y1515716D01*
X1627844Y1394206D02*
X1628394D01*
X1616503Y1394968D02*
X1627082D01*
X1627844Y1394206D01*
X1628354Y1368070D02*
X1628904D01*
X1693573Y1393389D02*
X1704088D01*
X1692148Y1394814D02*
X1693573Y1393389D01*
X1693575Y1368298D02*
X1704340D01*
X1692404Y1367127D02*
X1693575Y1368298D01*
X1692658Y1255567D02*
X1701967D01*
X1693883Y1229360D02*
X1704086D01*
X1616458Y1228951D02*
X1626503D01*
X1692910Y1116684D02*
X1701151D01*
X1486772Y1099827D02*
X1504806D01*
X1693164Y1088544D02*
X1694646Y1090025D01*
X1610751Y952126D02*
X1612275Y950602D01*
X1591310Y943229D02*
X1594231Y940308D01*
X1428853Y1179095D02*
X1430283Y1180525D01*
X1389632Y1147774D02*
Y1156256D01*
X1381355Y1147759D02*
Y1156517D01*
X1372607Y1164525D02*
X1373671Y1163461D01*
X1372607Y1164525D02*
X1381363D01*
X1298598Y1146836D02*
X1316498D01*
X1219790Y1155591D02*
X1221860Y1153521D01*
X1560957Y753745D02*
Y764422D01*
Y753745D02*
X1561084Y753618D01*
X1771786Y858774D02*
X1772548D01*
X1477444Y1108445D02*
X1486772D01*
X1495890Y1107627D02*
X1504806D01*
X1299814Y1154636D02*
X1307663D01*
X1316498D01*
X1591564Y766826D02*
Y776214D01*
X1541689Y1326300D02*
Y1340449D01*
X1539240Y1342898D02*
X1541689Y1340449D01*
X1520604Y1431892D02*
X1529111D01*
X1511309Y1406906D02*
Y1407160D01*
Y1406906D02*
X1513039Y1405176D01*
Y1404980D02*
Y1405176D01*
X1507998Y1444498D02*
X1520604Y1431892D01*
X1505712Y1407160D02*
X1511309D01*
X1491234Y1406494D02*
X1491584Y1406144D01*
X1498346D01*
X1469239Y1263239D02*
X1478211D01*
X1469363Y1252525D02*
Y1263115D01*
X1771786Y858774D02*
X1772548Y858012D01*
X1767941Y862619D02*
X1771786Y858774D01*
X1767941Y862619D02*
Y895765D01*
X1709792Y858774D02*
X1771786D01*
X1772548Y858012D02*
Y858774D01*
X1709792D02*
X1713230Y855336D01*
Y820166D02*
Y855336D01*
X1550414Y911349D02*
X1550416Y911352D01*
X1559655Y795518D02*
X1560407Y794766D01*
X1547241Y795518D02*
X1559655D01*
X1560407Y794766D02*
X1560957D01*
Y781422D02*
Y794766D01*
X1542661Y977003D02*
X1543050Y977392D01*
X1538356Y911347D02*
X1550411D01*
X1538935Y977003D02*
X1542661D01*
X1529324Y967392D02*
X1538935Y977003D01*
X1529324Y964692D02*
Y967392D01*
X1550411Y911347D02*
X1550414Y911349D01*
X1545336Y836422D02*
Y845048D01*
X1538351Y911342D02*
X1538356Y911347D01*
X1486772Y1107627D02*
X1495744D01*
X1477363Y1108525D02*
X1477444Y1108445D01*
X1380133Y1285555D02*
X1390167D01*
X1324974Y1156136D02*
X1325363Y1156525D01*
X1317983Y1156136D02*
X1324974D01*
X1316553Y1154706D02*
X1317983Y1156136D01*
X1299975Y1156320D02*
X1300175D01*
X1298544Y1154890D02*
X1299975Y1156320D01*
X1316553Y1154581D02*
Y1154706D01*
X1307663Y1154581D02*
Y1154636D01*
X1299814Y1154436D02*
Y1154636D01*
X1298598D02*
X1299814D01*
Y1154436D02*
X1299868Y1154382D01*
X1693321Y1268730D02*
X1703832D01*
X1692150Y1407259D02*
X1702365D01*
X1692404Y1215181D02*
X1702983D01*
X1693563Y1129837D02*
X1703787D01*
X1692910Y1129184D02*
X1693563Y1129837D01*
X1366600Y1140914D02*
X1373445Y1147759D01*
X1156464Y1271196D02*
X1159944Y1274676D01*
X1701967Y1354627D02*
X1703790Y1352804D01*
X1159944Y1274676D02*
X1166938D01*
X1689162Y1072564D02*
X1689684D01*
X1156385Y1408363D02*
X1157501Y1409479D01*
X1704044Y1214120D02*
X1704594D01*
X1157501Y1354107D02*
X1167561D01*
X1689684Y1072564D02*
X1691041Y1073921D01*
X1703790Y1352804D02*
X1704340D01*
X1145938Y1216078D02*
X1156718D01*
X1157501Y1409479D02*
X1168069D01*
X1703282Y1408176D02*
X1703832D01*
X1145076Y1216940D02*
X1145938Y1216078D01*
X1691041Y1073921D02*
Y1074443D01*
X1692658Y1268067D02*
X1693321Y1268730D01*
X1702365Y1407259D02*
X1703282Y1408176D01*
X1166938Y1274676D02*
X1167596Y1275334D01*
X1156385Y1355223D02*
X1157501Y1354107D01*
X1680718Y1070610D02*
X1687207D01*
X1144526Y1216940D02*
X1145076D01*
X1167596Y1275334D02*
X1168146D01*
X1687207Y1070610D02*
X1689162Y1072564D01*
X1702983Y1215181D02*
X1704044Y1214120D01*
X1568776Y813363D02*
X1568831Y813308D01*
X1547241Y813418D02*
X1547296Y813363D01*
X1568776D01*
X1541907Y929242D02*
X1552973Y940308D01*
X1568831D01*
X1591437Y794617D02*
Y812800D01*
X1547224Y964692D02*
X1564132D01*
X1568831Y965708D02*
X1569593Y966470D01*
X1564132Y964692D02*
X1567864Y968424D01*
X1611747Y965200D02*
X1612519Y965972D01*
X1591437Y965200D02*
X1611747D01*
X1566037Y838200D02*
Y863600D01*
X1428853Y1186911D02*
X1430467Y1188525D01*
X1498489Y1204147D02*
X1510979D01*
X1520190Y1213358D01*
X1815815Y1086195D02*
X1815906Y1086286D01*
X1801713Y1086195D02*
X1815815D01*
X1801622Y1086104D02*
X1801713Y1086195D01*
X1412417Y1211029D02*
X1413363Y1211975D01*
X1429361Y1205253D02*
X1430089Y1204525D01*
X1437363D01*
X1430467Y1188525D02*
X1437363D01*
X1413363Y1211975D02*
Y1212525D01*
X1412417Y1204401D02*
Y1211029D01*
X1389363Y1204445D02*
Y1212525D01*
X1365363Y1180525D02*
X1373391D01*
X1357363Y1172625D02*
Y1180525D01*
X1396939Y1148013D02*
X1397363Y1147589D01*
Y1140525D02*
Y1147589D01*
X1356881Y1172143D02*
X1357363Y1172625D01*
X1039741Y1373715D02*
X1053509D01*
X1053592Y1373632D01*
X1496568Y1293876D02*
X1496822Y1294130D01*
X1509142D01*
X1793341Y921165D02*
X1793595Y921419D01*
Y943383D01*
X1767433Y944145D02*
X1767941Y943637D01*
Y921165D02*
Y943637D01*
X1315720Y999362D02*
X1316864Y1000506D01*
X1326896D01*
X1373182Y1148022D02*
X1373445Y1147759D01*
X1373182Y1148022D02*
Y1156350D01*
X1372719Y1156813D02*
X1373182Y1156350D01*
X1365752Y1140914D02*
X1366600D01*
X1365363Y1140525D02*
X1365752Y1140914D01*
X1362710Y1004188D02*
X1363344Y1003554D01*
X1375156D01*
X1384252Y979330D02*
X1384379Y979203D01*
X1384252Y979330D02*
Y998258D01*
X1384125Y998385D02*
X1384252Y998258D01*
X1349835Y985553D02*
X1350089Y985807D01*
Y1004227D01*
X1350343Y1004481D01*
D23*
X1219374Y971123D02*
D03*
Y987921D02*
D03*
X1219748Y1004726D02*
D03*
Y1021476D02*
D03*
Y1054975D02*
D03*
Y1071551D02*
D03*
Y1038225D02*
D03*
Y1088349D02*
D03*
Y1121973D02*
D03*
Y1105223D02*
D03*
X1313564Y1087908D02*
D03*
X1219748Y1138722D02*
D03*
Y1155472D02*
D03*
X1476758Y1330452D02*
D03*
X1158981Y1105243D02*
D03*
Y1038120D02*
D03*
Y1088462D02*
D03*
Y970991D02*
D03*
Y1138804D02*
D03*
Y1054901D02*
D03*
Y987778D02*
D03*
Y1071675D02*
D03*
Y1004559D02*
D03*
Y1122024D02*
D03*
Y1021340D02*
D03*
Y1155585D02*
D03*
X1509142Y1294130D02*
D03*
X1525142D02*
D03*
X1492758Y1330452D02*
D03*
X1174981Y1105243D02*
D03*
X1203748Y1105223D02*
D03*
Y1088349D02*
D03*
X1174981Y1088462D02*
D03*
Y987778D02*
D03*
X1203374Y987921D02*
D03*
X1174981Y1038120D02*
D03*
X1203748Y1038225D02*
D03*
X1174981Y1004559D02*
D03*
X1203748Y1004726D02*
D03*
X1174981Y1054901D02*
D03*
X1203748Y1054975D02*
D03*
Y1071551D02*
D03*
X1174981Y1071675D02*
D03*
Y1021340D02*
D03*
X1203748Y1021476D02*
D03*
Y1155472D02*
D03*
X1174981Y1155585D02*
D03*
X1203748Y1121973D02*
D03*
X1174981Y1122024D02*
D03*
Y970991D02*
D03*
X1203374Y971123D02*
D03*
X1174981Y1138804D02*
D03*
X1203748Y1138722D02*
D03*
X1329564Y1087908D02*
D03*
D26*
X1441706Y1075812D02*
D03*
X1496314Y1217580D02*
D03*
X1491234Y1394494D02*
D03*
X1513039Y1404980D02*
D03*
X1491234Y1406494D02*
D03*
X1441706Y1087812D02*
D03*
X1496314Y1205580D02*
D03*
X1513039Y1392980D02*
D03*
D29*
X1315720Y983362D02*
D03*
X1362710Y988188D02*
D03*
X1565617Y1370150D02*
D03*
Y1354151D02*
D03*
X1315720Y999362D02*
D03*
X1362710Y1004188D02*
D03*
D31*
X1611249Y949596D02*
D03*
X1545336Y845048D02*
D03*
X1547241Y795518D02*
D03*
X1591564Y776214D02*
D03*
X1703752Y755220D02*
D03*
X1538351Y911342D02*
D03*
X1703752Y773120D02*
D03*
X1547241Y813418D02*
D03*
X1538351Y929242D02*
D03*
X1591564Y794114D02*
D03*
X1611249Y967496D02*
D03*
X1545336Y862948D02*
D03*
X1744392Y774390D02*
D03*
Y756490D02*
D03*
D32*
X1298544Y1146890D02*
D03*
X1316553Y1146782D02*
D03*
X1307663D02*
D03*
X1372719Y1164613D02*
D03*
X1373481Y1188235D02*
D03*
X1380133Y1293355D02*
D03*
X1429361Y1180181D02*
D03*
Y1197453D02*
D03*
X1486772Y1099827D02*
D03*
X1504806D02*
D03*
X1495890Y1099973D02*
D03*
X1469239Y1271039D02*
D03*
X1478327Y1270923D02*
D03*
X1390293Y1293481D02*
D03*
X1478327Y1263123D02*
D03*
X1469239Y1263239D02*
D03*
X1504806Y1107627D02*
D03*
X1495890Y1107773D02*
D03*
X1486772Y1107627D02*
D03*
X1390293Y1285681D02*
D03*
X1380133Y1285555D02*
D03*
X1316553Y1154581D02*
D03*
X1307663D02*
D03*
X1298544Y1154690D02*
D03*
X1429361Y1205253D02*
D03*
Y1187981D02*
D03*
X1373481Y1180435D02*
D03*
X1372719Y1156813D02*
D03*
D33*
X1667644Y792480D02*
D03*
X1660786Y809244D02*
D03*
X1652644Y792480D02*
D03*
X1645786Y809244D02*
D03*
D35*
X1380175Y1148013D02*
D03*
X1364681Y1172143D02*
D03*
X1381519Y1204401D02*
D03*
X1389139Y1148013D02*
D03*
X1420217Y1204401D02*
D03*
X1412417D02*
D03*
X1389319D02*
D03*
X1396939Y1148013D02*
D03*
X1356881Y1172143D02*
D03*
X1372375Y1148013D02*
D03*
D39*
X1500220Y1378204D02*
D03*
X1530361Y1444994D02*
D03*
X1502671Y1238945D02*
D03*
X1502925Y1150807D02*
D03*
X1502417Y1250375D02*
D03*
X1502671Y1162237D02*
D03*
X1512220Y1378204D02*
D03*
X1542361Y1444994D02*
D03*
X1490671Y1162237D02*
D03*
Y1238945D02*
D03*
X1355363Y1086733D02*
D03*
X1490417Y1250375D02*
D03*
X1343363Y1086733D02*
D03*
X1490925Y1150807D02*
D03*
D47*
X1529324Y964692D02*
D03*
X1547224D02*
D03*
D53*
X1767433Y959145D02*
D03*
X1761410Y741634D02*
D03*
X1793595Y958383D02*
D03*
Y943383D02*
D03*
X1767433Y944145D02*
D03*
X1761410Y756634D02*
D03*
D99*
X1691386Y1029208D02*
X1756464Y1094286D01*
X1771906D01*
X1670558Y1029208D02*
X1691386D01*
X1222476Y1003211D02*
X1222476Y1003211D01*
X1144780Y1201700D02*
X1145588D01*
X1147466Y1203578D01*
X1156718D01*
X1785600Y1366286D02*
X1785620Y1366266D01*
X1771906Y1366286D02*
X1785600D01*
X1611122Y757682D02*
X1677416D01*
X1680560Y754538D01*
X1703071D02*
X1703752Y755220D01*
X1680560Y754538D02*
X1703071D01*
X1390167Y1285555D02*
X1390293Y1285681D01*
X1389363Y1252525D02*
Y1284752D01*
X1390167Y1285555D01*
X1744392Y750390D02*
Y756490D01*
Y747864D02*
Y750390D01*
X1442602Y943429D02*
X1485455Y986282D01*
X1761410Y732634D02*
Y741634D01*
X1629784Y825246D02*
X1641580Y813450D01*
X1458722Y913892D02*
X1547368Y825246D01*
X1629784D01*
X1762378Y740666D02*
X1770636D01*
X1761410Y741634D02*
X1762378Y740666D01*
X1770636D02*
X1776476Y746506D01*
X1041200Y1044956D02*
X1053846D01*
X1040412Y1045744D02*
X1041200Y1044956D01*
X1538224Y889000D02*
X1566037D01*
X1040692Y1053338D02*
X1053846D01*
X1478280Y948944D02*
X1538224Y889000D01*
X1040666Y1053364D02*
X1040692Y1053338D01*
X1478280Y948944D02*
Y962406D01*
X1070211Y1062000D02*
X1085116D01*
X1052251Y1061746D02*
X1053292Y1060704D01*
X1040920Y1061746D02*
X1052251D01*
X1441553Y1088125D02*
Y1096525D01*
X1053292Y1060704D02*
X1054100D01*
X1485455Y986282D02*
X1569466D01*
X1590992Y964755D01*
X1441395Y1087967D02*
X1441553Y1088125D01*
X1545336Y862948D02*
X1545988Y863600D01*
X1566037D01*
X1449326Y958848D02*
X1449578Y958596D01*
X1449326Y958848D02*
Y1096525D01*
X1069957Y1053618D02*
X1084862D01*
X1489750Y1204147D02*
X1498489D01*
X1489750Y1204147D02*
X1489750Y1204147D01*
X1484563Y1204147D02*
X1489750D01*
X1480820Y1200404D02*
X1484563Y1204147D01*
X1667644Y794766D02*
X1687830D01*
X1700784Y807212D02*
X1713146Y794850D01*
X1713230Y794766D01*
X1660786Y807212D02*
X1700784D01*
X1703498Y773120D02*
Y785202D01*
X1713146Y794850D01*
X1815706Y1094486D02*
X1815906Y1094286D01*
X1801622Y1094486D02*
X1815706D01*
X1739474Y777384D02*
X1742468Y774390D01*
X1744392D01*
X1739058Y795362D02*
X1739220Y795200D01*
Y771796D02*
Y795200D01*
X1776476Y746506D02*
Y826516D01*
X1807210Y857250D01*
X1637030Y1057402D02*
X1670050Y1090422D01*
X1469363Y1095783D02*
X1507744Y1057402D01*
X1637030D01*
X1508042Y1063244D02*
X1634744D01*
X1473456Y1097830D02*
X1508042Y1063244D01*
X1634744D02*
X1665478Y1093978D01*
X1481296Y1169670D02*
X1482820Y1168146D01*
X1633474D01*
X1656588Y1191260D01*
X1628140Y1177290D02*
X1646936Y1196086D01*
X1480283Y1175445D02*
X1482128Y1177290D01*
X1628140D01*
X1480753Y1185097D02*
X1483106Y1187450D01*
X1624838D01*
X1642364Y1204976D01*
X1656588Y1191260D02*
Y1427988D01*
X1551805Y1159883D02*
X1631815D01*
X1661160Y1189228D02*
Y1299210D01*
X1631815Y1159883D02*
X1661160Y1189228D01*
X1651762Y1193800D02*
Y1423670D01*
X1485495Y1172397D02*
X1630359D01*
X1651762Y1193800D01*
X1646936Y1196086D02*
Y1420622D01*
X1815874Y1366254D02*
X1815906Y1366286D01*
X1794243Y1366254D02*
X1815874D01*
X1816050Y1390142D02*
X1831594D01*
X1815906Y1390286D02*
X1816050Y1390142D01*
X1815636Y1398016D02*
X1815906Y1398286D01*
X1801622Y1398016D02*
X1815636D01*
X1816018Y1406398D02*
X1830832D01*
X1815906Y1406286D02*
X1816018Y1406398D01*
X1771890Y1398270D02*
X1771906Y1398286D01*
X1757504Y1398270D02*
X1771890D01*
X1771765Y1406145D02*
X1771906Y1406286D01*
X1757935Y1406145D02*
X1771765D01*
X1815808Y1294384D02*
X1815906Y1294286D01*
X1801663Y1294384D02*
X1815808D01*
X1815680Y1302512D02*
X1815906Y1302286D01*
X1801651Y1302512D02*
X1815680D01*
X1815806Y1310386D02*
X1815906Y1310286D01*
X1801293Y1310386D02*
X1815806D01*
X1815678Y1318514D02*
X1815906Y1318286D01*
X1801051Y1318514D02*
X1815678D01*
X1815754Y1326134D02*
X1815906Y1326286D01*
X1801368Y1326134D02*
X1815754D01*
X1815676Y1334516D02*
X1815906Y1334286D01*
X1801104Y1334516D02*
X1815676D01*
X1815756Y1342136D02*
X1815906Y1342286D01*
X1800606Y1342136D02*
X1815756D01*
X1815884Y1350264D02*
X1815906Y1350286D01*
X1800352Y1350264D02*
X1815884D01*
X1704342Y1344113D02*
X1746169Y1302286D01*
X1771906D01*
X1704342Y1344113D02*
X1704342D01*
X1705102Y1428750D02*
X1753108Y1380744D01*
Y1356614D02*
Y1380744D01*
X1744218Y1357122D02*
Y1376426D01*
X1707134Y1413510D02*
X1744218Y1376426D01*
X1738886Y1353310D02*
Y1367280D01*
X1707134Y1399032D02*
X1738886Y1367280D01*
X1734314Y1348738D02*
Y1353430D01*
X1704301Y1383443D02*
X1734314Y1353430D01*
X1702308Y1383443D02*
X1704301D01*
X1707134Y1374140D02*
X1728980Y1352294D01*
Y1346198D02*
Y1352294D01*
X1740760Y1294286D02*
X1771906D01*
X1706372Y1328674D02*
X1740760Y1294286D01*
X1706372Y1328674D02*
X1706372D01*
X1755748Y1310286D02*
X1771906D01*
X1707134Y1358900D02*
X1755748Y1310286D01*
X1756892Y1318286D02*
X1771906D01*
X1728980Y1346198D02*
X1756892Y1318286D01*
X1756766Y1326286D02*
X1771906D01*
X1734314Y1348738D02*
X1756766Y1326286D01*
X1757910Y1334286D02*
X1771906D01*
X1738886Y1353310D02*
X1757910Y1334286D01*
X1759054Y1342286D02*
X1771906D01*
X1744218Y1357122D02*
X1759054Y1342286D01*
X1759436Y1350286D02*
X1771906D01*
X1753108Y1356614D02*
X1759436Y1350286D01*
X1786066Y1000444D02*
Y1030286D01*
X1767433Y959145D02*
Y981811D01*
X1786066Y1000444D01*
X1771906Y1030286D02*
X1786066D01*
X1706880Y1274318D02*
X1758912Y1222286D01*
X1771906D01*
X1642364Y1204976D02*
Y1417828D01*
X1588008Y1472184D02*
X1642364Y1417828D01*
X1590294Y1477264D02*
X1646936Y1420622D01*
X1593342Y1482090D02*
X1651762Y1423670D01*
X1598168Y1486408D02*
X1656588Y1427988D01*
X1665478Y1093978D02*
Y1425702D01*
X1600200Y1490980D02*
X1665478Y1425702D01*
X1670050Y1090422D02*
Y1427988D01*
X1602232Y1495806D02*
X1670050Y1427988D01*
X1641602Y1052576D02*
X1675130Y1086104D01*
X1602400Y1503004D02*
X1675130Y1430274D01*
Y1086104D02*
Y1430274D01*
X1610400Y1501100D02*
X1680210Y1431290D01*
X1639570Y1042924D02*
X1680210Y1083564D01*
Y1431290D01*
X1646936Y1042670D02*
X1685290Y1081024D01*
Y1434846D01*
X1618400Y1501736D02*
X1685290Y1434846D01*
X1510462Y1144270D02*
X1536192D01*
X1551805Y1159883D01*
X1802108Y1206042D02*
X1817072D01*
X1704555Y1244576D02*
X1716076D01*
X1754366Y1206286D02*
X1771906D01*
X1716076Y1244576D02*
X1754366Y1206286D01*
X1801854Y1230426D02*
X1816818D01*
X1752460Y1198286D02*
X1771906D01*
X1706626Y1234948D02*
X1715798D01*
X1752460Y1198286D01*
X1802132Y1174014D02*
X1802184Y1173962D01*
X1817072D01*
X1802132Y1189762D02*
X1802282Y1189912D01*
X1817072D01*
X1802282Y1214042D02*
X1817072D01*
X1802132Y1213892D02*
X1802282Y1214042D01*
X1740940Y1189458D02*
X1756112Y1174286D01*
X1771906D01*
X1706372Y1189228D02*
X1706602Y1189458D01*
X1740940D01*
X1413183Y1100346D02*
X1413363Y1100525D01*
X1707134Y1219962D02*
X1723898D01*
X1753574Y1190286D02*
X1771906D01*
X1723898Y1219962D02*
X1753574Y1190286D01*
X1711801Y1259519D02*
X1757034Y1214286D01*
X1707201Y1259519D02*
X1711801D01*
X1757034Y1214286D02*
X1771906D01*
X1707134Y1259586D02*
X1707201Y1259519D01*
X1802184Y1198092D02*
X1817072D01*
X1802132Y1198144D02*
X1802184Y1198092D01*
X1754234Y1182286D02*
X1771906D01*
X1732052Y1204468D02*
X1754234Y1182286D01*
X1707134Y1204468D02*
X1732052D01*
X1790700Y1068578D02*
Y1178560D01*
X1787906Y1065784D02*
X1790700Y1068578D01*
X1787144Y1182116D02*
X1790700Y1178560D01*
X1787906Y1041654D02*
X1795018Y1034542D01*
Y1014984D02*
Y1034542D01*
X1787906Y1041654D02*
Y1065784D01*
X1795018Y1014984D02*
X1807210Y1002792D01*
Y857250D02*
Y1002792D01*
X1511999Y1244537D02*
X1512570Y1245108D01*
X1511999Y1240727D02*
Y1244537D01*
X1510363Y1239091D02*
X1511999Y1240727D01*
X1502816Y1239091D02*
X1510363D01*
X1502671Y1238945D02*
X1502816Y1239091D01*
X1802108Y1181912D02*
X1817072D01*
X1801878Y1222528D02*
X1801930Y1222476D01*
X1816818D01*
X1503925Y1150807D02*
X1510462Y1144270D01*
X1502925Y1150807D02*
X1503925D01*
X1706372Y1290066D02*
X1706943Y1289495D01*
Y1287749D02*
Y1289495D01*
X1770246Y1231946D02*
X1771906Y1230286D01*
X1762746Y1231946D02*
X1770246D01*
X1706943Y1287749D02*
X1762746Y1231946D01*
X1573784Y1122172D02*
X1601154Y1149542D01*
X1487739Y1122172D02*
X1573784D01*
X1565617Y1392389D02*
X1582570Y1409342D01*
X1588262Y1321054D02*
Y1404992D01*
X1565617Y1370150D02*
Y1392389D01*
X1582570Y1409342D02*
Y1423774D01*
X1038434Y1237768D02*
X1053340D01*
X1038836Y1181380D02*
X1051262D01*
X1039598Y1174014D02*
X1052832D01*
X1158724Y1071682D02*
X1158981D01*
X1085312Y1191286D02*
X1085508Y1191090D01*
X1038582Y1149630D02*
X1053594D01*
X1038328Y1158012D02*
X1053848D01*
X1085447Y1151421D02*
X1086668Y1150201D01*
X1038582Y1132612D02*
X1053848D01*
X1038836Y1140994D02*
X1054102D01*
X1039090Y1205764D02*
X1053996D01*
X1038836Y1197382D02*
X1053742D01*
X1085447Y1127421D02*
X1086873Y1125996D01*
X1038582Y1085622D02*
X1053487D01*
X1038836Y1094004D02*
X1053742D01*
X1038582Y1117626D02*
X1053487D01*
X1038328Y1109244D02*
X1053233D01*
X1174773Y1054828D02*
X1178190Y1058245D01*
X1039116Y1407421D02*
X1040822Y1405715D01*
X1083137Y1407421D02*
X1084843Y1405715D01*
X1523073Y1294332D02*
X1525057Y1296316D01*
X1237234Y1370617D02*
X1246108Y1379490D01*
X1070465Y1038124D02*
X1085370D01*
X1756458Y1022168D02*
X1772356D01*
X1070231Y1396899D02*
X1085137D01*
X1039426Y1389406D02*
X1058138D01*
X1083968Y1389126D02*
X1085010Y1390168D01*
X1069340Y1389126D02*
X1083968D01*
X1038942Y1382040D02*
X1053848D01*
X1329222Y1086804D02*
X1343292D01*
X1535189Y1309855D02*
Y1326300D01*
X1513039Y1378204D02*
X1513220D01*
X1512220D02*
X1513039D01*
Y1392980D01*
X1513162Y1334008D02*
X1513801Y1333369D01*
X1038434Y1357910D02*
X1053340D01*
X1038180Y1349528D02*
X1053086D01*
X1038688Y1341654D02*
X1053594D01*
X1038434Y1333272D02*
X1053340D01*
X1085447Y1324009D02*
X1088860Y1327421D01*
X1038688Y1318032D02*
X1053594D01*
X1038434Y1309650D02*
X1053340D01*
X1038942Y1301776D02*
X1053848D01*
X1038688Y1293394D02*
X1053594D01*
X1038688Y1277900D02*
X1053594D01*
X1038434Y1269518D02*
X1053340D01*
X1038942Y1261644D02*
X1053848D01*
X1038688Y1253262D02*
X1053594D01*
X1038688Y1246150D02*
X1053594D01*
X1038942Y1229894D02*
X1053848D01*
X1038688Y1221512D02*
X1053594D01*
X1802184Y1102334D02*
X1817072D01*
X1802158Y1102360D02*
X1802184Y1102334D01*
X1802132Y1102386D02*
X1802158Y1102360D01*
X1802438Y1109954D02*
X1817326D01*
X1802412Y1109980D02*
X1802438Y1109954D01*
X1802386Y1110006D02*
X1802412Y1109980D01*
X1802362Y1117904D02*
X1817326D01*
X1802536Y1125904D02*
X1817326D01*
X1802461Y1125829D02*
X1802536Y1125904D01*
X1802386Y1125754D02*
X1802461Y1125829D01*
X1802438Y1134084D02*
X1817326D01*
X1802362Y1142034D02*
X1817326D01*
X1704721Y1064387D02*
X1750620Y1110286D01*
X1802536Y1150034D02*
X1817326D01*
X1802488Y1158390D02*
X1802592Y1158286D01*
X1802384Y1158494D02*
X1802488Y1158390D01*
X1586992Y1150620D02*
X1587246D01*
X1558544D02*
X1586992D01*
X1506400Y1515716D02*
X1506474Y1515790D01*
Y1531366D01*
X1490400Y1515716D02*
Y1531648D01*
X1801622Y1041908D02*
X1804455Y1039075D01*
X1815117D02*
X1815906Y1038286D01*
X1804455Y1039075D02*
X1815117D01*
X1801622Y1041908D02*
Y1041908D01*
X1803846Y1030286D02*
X1815906D01*
X1792224Y1041908D02*
X1803846Y1030286D01*
X1792224Y1041908D02*
Y1061720D01*
X1758580Y1039992D02*
X1770200D01*
X1771906Y1038286D01*
X1755140Y1043432D02*
X1758580Y1039992D01*
X1771906Y1038286D02*
X1784670D01*
X1646682Y1042670D02*
X1646936D01*
X1790446Y1007872D02*
Y1032510D01*
Y1007872D02*
X1802892Y995426D01*
X1784670Y1038286D02*
X1790446Y1032510D01*
X1578356Y1544066D02*
X1578400Y1544110D01*
Y1559716D01*
X1290320Y1543558D02*
Y1557896D01*
X1282446Y1544066D02*
Y1558404D01*
X1274318Y1544066D02*
Y1558532D01*
X1207008Y1266634D02*
Y1422654D01*
X1282400Y1498046D02*
Y1515716D01*
X1207008Y1422654D02*
X1282400Y1498046D01*
X1458468Y1543304D02*
X1458680Y1543516D01*
Y1558700D01*
X1450340Y1543558D02*
X1450552Y1543770D01*
Y1558954D01*
X1442212Y1543304D02*
X1442424Y1543516D01*
Y1558700D01*
X1522222Y1544066D02*
X1522434Y1544278D01*
Y1559462D01*
X1586484Y1544066D02*
X1586696Y1544278D01*
Y1559462D01*
X1610106Y1543304D02*
X1610192Y1543390D01*
Y1558954D01*
X1602192Y1543852D02*
Y1558954D01*
Y1543852D02*
X1602232Y1543812D01*
X1618192Y1543770D02*
Y1558954D01*
X1617980Y1543558D02*
X1618192Y1543770D01*
X1594192Y1544232D02*
X1594358Y1544066D01*
X1594192Y1544232D02*
Y1558954D01*
X1546606Y1543304D02*
X1546692Y1543390D01*
Y1558954D01*
X1538692Y1543852D02*
Y1558954D01*
Y1543852D02*
X1538732Y1543812D01*
X1554692Y1543770D02*
Y1558954D01*
X1554480Y1543558D02*
X1554692Y1543770D01*
X1530692Y1544232D02*
X1530858Y1544066D01*
X1530692Y1544232D02*
Y1558954D01*
X1426210Y1542796D02*
X1426296Y1542882D01*
Y1558446D01*
X1418296Y1543344D02*
Y1558446D01*
Y1543344D02*
X1418336Y1543304D01*
X1434296Y1543262D02*
Y1558446D01*
X1434084Y1543050D02*
X1434296Y1543262D01*
X1410296Y1543724D02*
X1410462Y1543558D01*
X1410296Y1543724D02*
Y1558446D01*
X1394460Y1543558D02*
X1394546Y1543644D01*
Y1559208D01*
X1386546Y1544106D02*
Y1559208D01*
Y1544106D02*
X1386586Y1544066D01*
X1402546Y1544024D02*
Y1559208D01*
X1402334Y1543812D02*
X1402546Y1544024D01*
X1378546Y1544486D02*
X1378712Y1544320D01*
X1378546Y1544486D02*
Y1559208D01*
X1322324Y1542796D02*
X1322410Y1542882D01*
Y1558446D01*
X1314410Y1543344D02*
Y1558446D01*
Y1543344D02*
X1314450Y1543304D01*
X1330410Y1543262D02*
Y1558446D01*
X1330198Y1543050D02*
X1330410Y1543262D01*
X1306410Y1543724D02*
X1306576Y1543558D01*
X1306410Y1543724D02*
Y1558446D01*
X1266150Y1543598D02*
Y1558700D01*
Y1543598D02*
X1266190Y1543558D01*
X1258150Y1543978D02*
X1258316Y1543812D01*
X1258150Y1543978D02*
Y1558700D01*
X1399288Y1256818D02*
Y1406904D01*
X1306400Y1499792D02*
Y1515716D01*
Y1499792D02*
X1399288Y1406904D01*
X1403350Y1258305D02*
Y1409954D01*
X1314400Y1498904D02*
X1403350Y1409954D01*
X1314400Y1498904D02*
Y1515716D01*
X1453896Y1304290D02*
Y1498092D01*
Y1304290D02*
X1458724Y1299462D01*
X1450400Y1501588D02*
X1453896Y1498092D01*
X1458724Y1265886D02*
Y1299462D01*
X1449363Y1256525D02*
X1458724Y1265886D01*
X1450400Y1501588D02*
Y1515716D01*
X1522400Y1501978D02*
X1597914Y1426464D01*
X1522400Y1501978D02*
Y1515716D01*
X1597914Y1313942D02*
Y1426464D01*
X1579894Y1295922D02*
X1597914Y1313942D01*
X1579894Y1271538D02*
Y1295922D01*
X1536446Y1228090D02*
X1579894Y1271538D01*
X1491800Y1228090D02*
X1536446D01*
X1480219Y1216510D02*
X1491800Y1228090D01*
X1546400Y1499822D02*
X1568958Y1477264D01*
X1590294D01*
X1546400Y1499822D02*
Y1515716D01*
X1226400Y1544994D02*
Y1559716D01*
Y1544994D02*
X1226566Y1544828D01*
X1359904Y1064006D02*
X1393293Y1097395D01*
X1266400Y1502366D02*
Y1515716D01*
X1197356Y1433322D02*
X1266400Y1502366D01*
X1197356Y1264412D02*
Y1433322D01*
X1268476Y1091184D02*
X1295654Y1064006D01*
X1359904D01*
X1197356Y1264412D02*
X1268476Y1193292D01*
Y1091184D02*
Y1193292D01*
X1425450Y1420620D02*
X1425450Y1256564D01*
X1346400Y1499670D02*
Y1515716D01*
Y1499670D02*
X1425450Y1420620D01*
X1375664Y1044956D02*
X1425297Y1094589D01*
X1289078Y1044956D02*
X1375664D01*
X1243838Y1090196D02*
Y1153442D01*
Y1090196D02*
X1289078Y1044956D01*
X1212850Y1477518D02*
X1234400Y1499068D01*
Y1515716D01*
X1212850Y1477518D02*
X1212850D01*
X1178814Y1218466D02*
X1243838Y1153442D01*
X1178814Y1443482D02*
X1212850Y1477518D01*
X1178814Y1218466D02*
Y1443482D01*
X1421363Y1097259D02*
Y1108525D01*
X1374140Y1050036D02*
X1421363Y1097259D01*
X1290348Y1050036D02*
X1374140D01*
X1248918Y1091466D02*
Y1155474D01*
X1242400Y1499194D02*
Y1515716D01*
X1183894Y1440688D02*
X1242400Y1499194D01*
X1183894Y1220498D02*
X1248918Y1155474D01*
Y1091466D02*
X1290348Y1050036D01*
X1183894Y1220498D02*
Y1440688D01*
X1435102Y1265454D02*
Y1493518D01*
X1429363Y1259715D02*
X1435102Y1265454D01*
X1429363Y1252525D02*
Y1259715D01*
X1426400Y1502220D02*
X1435102Y1493518D01*
X1426400Y1502220D02*
Y1515716D01*
X1514400Y1498001D02*
X1592580Y1419821D01*
X1514400Y1498001D02*
Y1515716D01*
X1592580Y1318006D02*
Y1419821D01*
X1572260Y1297686D02*
X1592580Y1318006D01*
X1572260Y1273582D02*
Y1297686D01*
X1531086Y1232408D02*
X1572260Y1273582D01*
X1487562Y1232408D02*
X1531086D01*
X1479714Y1224560D02*
X1487562Y1232408D01*
X1538400Y1499694D02*
X1565910Y1472184D01*
X1588008D01*
X1538400Y1499694D02*
Y1515716D01*
X1554400Y1500204D02*
X1572514Y1482090D01*
X1593342D01*
X1554400Y1500204D02*
Y1515716D01*
X1417322Y1256525D02*
Y1414016D01*
X1330400Y1500938D02*
Y1515716D01*
Y1500938D02*
X1417322Y1414016D01*
X1250188Y1544320D02*
X1250400Y1544532D01*
Y1559716D01*
X1202182Y1425448D02*
X1274400Y1497666D01*
Y1515716D01*
X1373647Y1084754D02*
X1385419Y1096525D01*
X1373647Y1084753D02*
Y1084754D01*
X1358259Y1069366D02*
X1373647Y1084753D01*
X1202182Y1265428D02*
Y1425448D01*
X1273810Y1092708D02*
X1297152Y1069366D01*
X1358259D01*
X1202182Y1265428D02*
X1273810Y1193800D01*
Y1092708D02*
Y1193800D01*
X1407162Y1258960D02*
X1408787Y1257335D01*
X1407162Y1258960D02*
Y1413508D01*
X1322400Y1498270D02*
Y1515716D01*
Y1498270D02*
X1407162Y1413508D01*
X1530400Y1500836D02*
X1563878Y1467358D01*
X1587246D01*
X1530400Y1500836D02*
Y1515716D01*
X1633982Y1255776D02*
Y1420622D01*
X1601470Y1223264D02*
X1633982Y1255776D01*
X1587246Y1467358D02*
X1633982Y1420622D01*
X1521714Y1223264D02*
X1601470D01*
X1510030Y1211580D02*
X1521714Y1223264D01*
X1484418Y1211580D02*
X1510030D01*
X1481363Y1208525D02*
X1484418Y1211580D01*
X1610400Y1501100D02*
Y1515716D01*
X1226400Y1501482D02*
Y1515716D01*
X1173734Y1448816D02*
X1226400Y1501482D01*
X1379220Y1040892D02*
X1433329Y1095001D01*
X1173734Y1217196D02*
Y1448816D01*
X1239266Y1087953D02*
X1286328Y1040892D01*
X1379220D01*
X1173734Y1217196D02*
X1239266Y1151664D01*
Y1087953D02*
Y1151664D01*
X1421363Y1252525D02*
Y1417087D01*
X1338400Y1500050D02*
X1421363Y1417087D01*
X1338400Y1500050D02*
Y1515716D01*
X1498400Y1499416D02*
Y1515716D01*
X1503975Y1357578D02*
Y1358078D01*
X1473363Y1474379D02*
X1498400Y1499416D01*
X1473363Y1388690D02*
X1503975Y1358078D01*
X1473363Y1388690D02*
Y1474379D01*
X1506400Y1499944D02*
Y1515716D01*
Y1499944D02*
X1582570Y1423774D01*
X1570400Y1501984D02*
X1581404Y1490980D01*
X1570400Y1501984D02*
Y1515716D01*
X1581404Y1490980D02*
X1600200D01*
X1234400Y1544614D02*
X1234440Y1544574D01*
X1234400Y1544614D02*
Y1559716D01*
X1449580Y1264806D02*
Y1495296D01*
X1442400Y1502476D02*
X1449580Y1495296D01*
X1441299Y1256525D02*
X1449580Y1264806D01*
X1442400Y1502476D02*
Y1515716D01*
X1577594Y1486408D02*
X1598168D01*
X1562400Y1501602D02*
X1577594Y1486408D01*
X1562400Y1501602D02*
Y1515716D01*
X1618400Y1501736D02*
Y1515716D01*
X1354449Y1073684D02*
X1377291Y1096525D01*
X1278382Y1094994D02*
X1299692Y1073684D01*
X1354449D01*
X1207008Y1266634D02*
X1278382Y1195260D01*
Y1094994D02*
Y1195260D01*
X1395478Y1259164D02*
Y1403348D01*
X1298400Y1500426D02*
Y1515716D01*
X1393293Y1256979D02*
X1395478Y1259164D01*
X1298400Y1500426D02*
X1395478Y1403348D01*
X1402082Y1091974D02*
Y1096525D01*
X1250400Y1500336D02*
Y1515716D01*
X1187958Y1437894D02*
X1250400Y1500336D01*
X1187958Y1223518D02*
Y1437894D01*
X1365224Y1055116D02*
X1402082Y1091974D01*
X1253236Y1093470D02*
X1291590Y1055116D01*
X1365224D01*
X1187958Y1223518D02*
X1253236Y1158240D01*
Y1093470D02*
Y1158240D01*
X1242400Y1544152D02*
Y1559716D01*
X1242314Y1544066D02*
X1242400Y1544152D01*
X1258400Y1501224D02*
Y1515716D01*
X1397363Y1094595D02*
Y1100525D01*
X1362202Y1059434D02*
X1397363Y1094595D01*
X1294130Y1059434D02*
X1362202D01*
X1192784Y1435608D02*
X1258400Y1501224D01*
X1192784Y1226566D02*
Y1435608D01*
X1257554Y1096010D02*
Y1161796D01*
Y1096010D02*
X1294130Y1059434D01*
X1192784Y1226566D02*
X1257554Y1161796D01*
X1434400Y1501334D02*
Y1515716D01*
Y1501334D02*
X1439926Y1495808D01*
Y1263127D02*
Y1495808D01*
X1433324Y1256525D02*
X1439926Y1263127D01*
X1490400Y1502084D02*
Y1515716D01*
X1472552Y1334408D02*
X1476508Y1330452D01*
X1476758D01*
X1472552Y1334408D02*
Y1334658D01*
X1469136Y1480820D02*
X1490400Y1502084D01*
X1469136Y1338074D02*
X1472552Y1334658D01*
X1469136Y1338074D02*
Y1480820D01*
X1578400Y1503636D02*
X1586230Y1495806D01*
X1602232D01*
X1578400Y1503636D02*
Y1515716D01*
X1469363Y1095783D02*
Y1100525D01*
X1602400Y1503004D02*
Y1515716D01*
X1506474Y1052576D02*
X1641602D01*
X1465328Y1093722D02*
Y1096755D01*
Y1093722D02*
X1506474Y1052576D01*
X1249172Y1251712D02*
X1286543Y1214342D01*
Y1212591D02*
Y1214342D01*
X1250696Y1262888D02*
X1321028Y1192556D01*
X1271575Y1297126D02*
Y1298249D01*
Y1297126D02*
X1320266Y1248436D01*
X1268476Y1301349D02*
Y1301750D01*
Y1301349D02*
X1271575Y1298249D01*
X1065022Y1409446D02*
X1099058Y1443482D01*
X1065022Y1377950D02*
Y1409446D01*
X1099058Y1443482D02*
X1135126D01*
X1703832Y1094994D02*
X1710690D01*
X1741982Y1126286D02*
X1771906D01*
X1710690Y1094994D02*
X1741982Y1126286D01*
X1603252Y1102868D02*
X1603502D01*
X1601080Y1100696D02*
X1603252Y1102868D01*
X1536840Y1100696D02*
X1601080D01*
X1711960Y1129792D02*
X1732454Y1150286D01*
X1771906D01*
X1704301Y1049758D02*
X1756829Y1102286D01*
X1771906D01*
X1750620Y1110286D02*
X1771906D01*
X1797801Y962590D02*
X1802892Y967681D01*
Y995426D01*
X1509881Y1287929D02*
Y1293391D01*
X1529080Y1268730D02*
X1545082D01*
X1509142Y1294130D02*
X1509881Y1293391D01*
Y1287929D02*
X1529080Y1268730D01*
X1256792Y1236726D02*
X1257300D01*
X1321790Y1172236D01*
X1407668Y1062228D02*
Y1062296D01*
X1373886Y1028446D02*
X1407668Y1062228D01*
X1267460Y1264666D02*
X1315440Y1216686D01*
X1316456D01*
X1259078Y1266698D02*
X1317311Y1208465D01*
X1321363D01*
X1256030Y1274064D02*
X1271824D01*
X1237234Y1299210D02*
X1250442Y1286002D01*
Y1269492D02*
Y1286002D01*
Y1269492D02*
X1319250Y1200684D01*
X1302512Y1078992D02*
X1346622D01*
X1354363Y1086733D01*
X1353318Y1088778D02*
X1355363Y1086733D01*
X1271824Y1274064D02*
X1321421Y1224467D01*
X1249934Y1301750D02*
X1319159Y1232525D01*
X1245616Y1276604D02*
X1245618Y1276602D01*
Y1261362D02*
Y1276602D01*
X1286543Y1212591D02*
X1323342Y1175792D01*
X1245110Y1234692D02*
X1319250Y1160552D01*
X1245110Y1234692D02*
Y1245618D01*
X1249682Y1237232D02*
Y1241324D01*
Y1237232D02*
X1318327Y1168587D01*
X1321363D01*
X1245110Y1245618D02*
X1245616Y1246124D01*
X1310386Y1028446D02*
X1373886D01*
X1232154Y950214D02*
X1310386Y1028446D01*
X1252855Y1377973D02*
Y1396111D01*
X1286258Y1323366D02*
Y1344570D01*
X1252855Y1377973D02*
X1286258Y1344570D01*
X1252220Y1404366D02*
X1305816Y1350770D01*
Y1328708D02*
Y1350770D01*
X1570508Y1128548D02*
X1582420Y1140460D01*
X1489211Y1128548D02*
X1570508D01*
X1493301Y1132586D02*
X1540510D01*
X1558544Y1150620D01*
X1481363Y1144524D02*
X1493301Y1132586D01*
X1566418Y1276858D02*
Y1299210D01*
X1539935Y1250375D02*
X1566418Y1276858D01*
Y1299210D02*
X1588262Y1321054D01*
X1083741Y1269715D02*
X1101313D01*
X1106932Y1275334D01*
X1118616D01*
X1083741Y1277715D02*
X1083836Y1277620D01*
X1101090D01*
X1107948Y1284478D01*
X1135888D01*
X1083741Y1285715D02*
X1098517D01*
X1105916Y1293114D01*
X1118362D01*
X1083741Y1293715D02*
X1099405D01*
X1107694Y1302004D01*
X1135888D01*
X1109218Y1221232D02*
X1134110D01*
X1100836Y1229614D02*
X1109218Y1221232D01*
X1100836Y1229614D02*
Y1237488D01*
X1108456Y1235710D02*
X1114298Y1229868D01*
X1108456Y1235710D02*
Y1246124D01*
X1094572Y1260008D02*
X1108456Y1246124D01*
X1093681Y1252009D02*
X1104646Y1241044D01*
Y1234186D02*
X1113282Y1225550D01*
X1104646Y1234186D02*
Y1241044D01*
X1085447Y1260008D02*
X1094572D01*
X1114298Y1229868D02*
X1124966D01*
X1113282Y1225550D02*
X1129792D01*
X1083741Y1253715D02*
X1085447Y1252009D01*
X1093681D01*
X1094315Y1244009D02*
X1100836Y1237488D01*
X1083741Y1245715D02*
X1085447Y1244009D01*
X1094315D01*
X1083741Y1237715D02*
X1085447Y1236009D01*
X1093933D02*
X1097026Y1232916D01*
Y1227074D02*
Y1232916D01*
X1085447Y1236009D02*
X1093933D01*
X1097026Y1227074D02*
X1107440Y1216660D01*
X1138428D01*
X1109218Y1337818D02*
X1117854Y1346454D01*
X1109218Y1320292D02*
Y1337818D01*
X1098641Y1309715D02*
X1109218Y1320292D01*
X1083741Y1309715D02*
X1098641D01*
X1083741Y1261715D02*
X1085447Y1260008D01*
X1104646Y1345692D02*
X1114552Y1355598D01*
X1093615Y1319421D02*
X1104646Y1330452D01*
Y1345692D01*
X1100582Y1346708D02*
X1117854Y1363980D01*
X1093995Y1327421D02*
X1100582Y1334008D01*
Y1346708D01*
X1096518Y1349248D02*
X1108456Y1361186D01*
X1093867Y1335421D02*
X1096518Y1338072D01*
Y1349248D01*
X1083741Y1317715D02*
X1085447Y1319421D01*
X1093615D01*
X1108456Y1361186D02*
Y1367790D01*
X1113790Y1373124D01*
X1104900Y1404112D02*
X1117854Y1417066D01*
X1104900Y1363218D02*
Y1404112D01*
X1093103Y1351421D02*
X1104900Y1363218D01*
X1088860Y1327421D02*
X1093995D01*
X1085447Y1335421D02*
X1093867D01*
X1083741Y1333715D02*
X1085447Y1335421D01*
X1114552Y1355598D02*
X1135126D01*
X1113790Y1373124D02*
X1135126D01*
X1116657Y1433395D02*
X1117854Y1434592D01*
X1097026Y1371600D02*
Y1420368D01*
X1110053Y1433395D01*
X1116657D01*
X1100836Y1366774D02*
Y1413002D01*
X1113536Y1425702D01*
X1135126D01*
X1085447Y1351421D02*
X1093103D01*
X1092200Y1358138D02*
X1100836Y1366774D01*
X1092454Y1367028D02*
X1097026Y1371600D01*
X1083741Y1325715D02*
X1085447Y1324009D01*
X1083741Y1365715D02*
X1085447Y1367421D01*
X1083741Y1357715D02*
X1085307Y1359281D01*
X1065022Y1377950D02*
X1069257Y1373715D01*
X1083741D01*
Y1349715D02*
X1085447Y1351421D01*
X1237234Y1299210D02*
Y1370617D01*
X1245743Y1306195D02*
X1279807D01*
X1329184Y1256818D01*
X1320303Y1240525D02*
X1321363D01*
X1259332Y1301496D02*
X1320303Y1240525D01*
X1058138Y1389406D02*
X1058418Y1389126D01*
X1645786Y809244D02*
Y810244D01*
X1642580Y813450D02*
X1645786Y810244D01*
X1641580Y813450D02*
X1642580D01*
X1652644Y792480D02*
Y918354D01*
X1756458Y1022168D01*
X1802386Y1134136D02*
X1802438Y1134084D01*
X1717569Y1158286D02*
X1771906D01*
X1709166Y1149883D02*
X1717569Y1158286D01*
X1794595Y958383D02*
X1797801Y961590D01*
Y962590D01*
X1793595Y958383D02*
X1794595D01*
X1802386Y1149884D02*
X1802536Y1150034D01*
X1802592Y1158286D02*
X1815906D01*
X1738678Y1142286D02*
X1771906D01*
X1711198Y1114806D02*
X1738678Y1142286D01*
X1703832Y1080008D02*
X1742110Y1118286D01*
X1771906D01*
X1740076Y1134286D02*
X1771906D01*
X1710436Y1104646D02*
X1740076Y1134286D01*
X1502417Y1250375D02*
X1539935D01*
X1481363Y1136396D02*
X1489211Y1128548D01*
X1481363D02*
X1487739Y1122172D01*
X1502671Y1162237D02*
X1504586Y1160322D01*
X1507948D01*
X1513078Y1155192D01*
X1513721Y1323369D02*
X1518720Y1328368D01*
X1495552Y1334008D02*
X1513162D01*
X1286258Y1323366D02*
X1345541Y1264083D01*
X1258572Y1430046D02*
X1331724Y1356894D01*
X1385419Y1256422D02*
Y1269171D01*
X1331724Y1322866D02*
X1385419Y1269171D01*
X1331724Y1322866D02*
Y1356894D01*
X1249428Y1374506D02*
X1257556Y1366378D01*
Y1335304D02*
X1337312Y1255548D01*
X1257556Y1335304D02*
Y1366378D01*
X1305816Y1328708D02*
X1361363Y1273161D01*
Y1256525D02*
Y1273161D01*
X1310388Y1331756D02*
X1369363Y1272781D01*
X1310388Y1331756D02*
Y1351996D01*
X1369363Y1256525D02*
Y1272781D01*
X1247825Y1414559D02*
X1310388Y1351996D01*
X1299974Y1328164D02*
X1353415Y1274723D01*
X1299974Y1328164D02*
Y1343686D01*
X1259289Y1384371D02*
X1299974Y1343686D01*
X1353415Y1256525D02*
Y1274723D01*
X1247394Y1435100D02*
X1314452Y1368042D01*
X1377291Y1256525D02*
Y1270441D01*
X1314452Y1333280D02*
Y1368042D01*
Y1333280D02*
X1377291Y1270441D01*
X1042190Y1029234D02*
X1053340D01*
X1135573Y1129842D02*
X1154775Y1110640D01*
X1083741Y1189715D02*
X1085312Y1191286D01*
X1154775Y1109199D02*
X1158731Y1105243D01*
X1135573Y1129842D02*
Y1150709D01*
X1154775Y1109199D02*
Y1110640D01*
X1158731Y1105243D02*
X1158981D01*
X1085508Y1191090D02*
X1095192D01*
X1135573Y1150709D01*
X1154775Y1042077D02*
X1157980Y1038872D01*
X1154775Y1042077D02*
Y1043517D01*
X1095192Y1150201D02*
X1118809Y1126584D01*
Y1079483D02*
Y1126584D01*
X1083741Y1149715D02*
X1085447Y1151421D01*
X1086668Y1150201D02*
X1095192D01*
X1118809Y1079483D02*
X1150647Y1047645D01*
X1154775Y1043517D01*
X1152530Y1085157D02*
X1155675D01*
X1097763Y1172009D02*
X1131318Y1138454D01*
Y1106368D02*
Y1138454D01*
X1083741Y1173715D02*
X1085447Y1172009D01*
X1097763D01*
X1131318Y1106368D02*
X1152530Y1085157D01*
X1155675D02*
X1158981Y1088462D01*
X1102045Y1029121D02*
X1102904Y1028261D01*
X1095013Y1100760D02*
X1102045Y1093728D01*
X1083741Y1101715D02*
X1084697Y1100760D01*
X1095013D01*
X1150647Y980518D02*
X1154775Y976391D01*
X1150647Y980518D02*
Y980518D01*
X1154775Y974447D02*
X1158231Y970991D01*
X1102904Y1028261D02*
X1150647Y980518D01*
X1154775Y974447D02*
Y976391D01*
X1102904Y1028261D02*
Y1028261D01*
X1102045Y1029121D02*
Y1093728D01*
X1154775Y1142760D02*
X1158731Y1138804D01*
X1158981D01*
X1144018Y1153767D02*
Y1166394D01*
X1095250Y1215162D02*
X1144018Y1166394D01*
Y1153767D02*
X1154775Y1143010D01*
X1083741Y1213715D02*
X1085188Y1215162D01*
X1154775Y1142760D02*
Y1143010D01*
X1085188Y1215162D02*
X1095250D01*
X1083137Y1407421D02*
Y1415594D01*
X1084843Y1405715D02*
X1085871D01*
X1155679Y1051599D02*
X1158981Y1054901D01*
X1122936Y1081193D02*
Y1128294D01*
Y1081193D02*
X1152530Y1051599D01*
X1083741Y1157715D02*
X1085200Y1156256D01*
X1094974D02*
X1122936Y1128294D01*
X1152530Y1051599D02*
X1155679D01*
X1085200Y1156256D02*
X1094974D01*
X1158481Y988278D02*
X1158981Y987778D01*
X1085447Y1108009D02*
X1093601D01*
X1154775Y991735D02*
Y991985D01*
X1152530Y984473D02*
X1154775D01*
X1106172Y1030831D02*
Y1095438D01*
X1154775Y991735D02*
X1158231Y988278D01*
X1154775Y984473D02*
X1158231Y987929D01*
X1106172Y1030831D02*
X1107032Y1029971D01*
X1158231Y987929D02*
Y988278D01*
X1107032Y1029971D02*
X1152530Y984473D01*
X1093601Y1108009D02*
X1106172Y1095438D01*
X1107032Y1029971D02*
Y1029971D01*
X1083741Y1109715D02*
X1085447Y1108009D01*
X1158231Y988278D02*
X1158481D01*
X1083741Y1165715D02*
X1085436Y1167410D01*
X1150820Y1081029D02*
X1150820D01*
X1085436Y1167410D02*
X1096520D01*
X1150820Y1081029D02*
X1154775Y1077075D01*
X1127000Y1104849D02*
Y1136930D01*
X1154775Y1075631D02*
Y1077075D01*
X1096520Y1167410D02*
X1127000Y1136930D01*
X1154775Y1075631D02*
X1158724Y1071682D01*
X1127000Y1104849D02*
X1150820Y1081029D01*
X1064507Y1077715D02*
X1083741D01*
X1058418Y1071626D02*
X1064507Y1077715D01*
X1038434Y1381532D02*
X1038942Y1382040D01*
X1051262Y1181380D02*
X1052278Y1182396D01*
X1053086D01*
X1154775Y1008515D02*
X1158731Y1004559D01*
X1153845Y1010886D02*
X1153845D01*
X1095192Y1125996D02*
X1110426Y1110761D01*
X1154775Y1008515D02*
Y1009956D01*
X1083741Y1125715D02*
X1085447Y1127421D01*
X1110426Y1054304D02*
X1153845Y1010886D01*
X1086873Y1125996D02*
X1095192D01*
X1153845Y1010886D02*
X1154775Y1009956D01*
X1110426Y1054304D02*
Y1110761D01*
X1158731Y1004559D02*
X1158981D01*
X1038074Y1133120D02*
X1038582Y1132612D01*
X1038074Y1157758D02*
X1038328Y1158012D01*
X1139700Y1131551D02*
X1152530Y1118722D01*
X1083741Y1197715D02*
X1085344Y1196112D01*
X1152530Y1118722D02*
X1155679D01*
X1158981Y1122024D01*
X1097028Y1196112D02*
X1139700Y1153440D01*
X1085344Y1196112D02*
X1097028D01*
X1139700Y1131551D02*
Y1153440D01*
X1085352Y1132104D02*
X1095758D01*
X1114554Y1056013D02*
Y1113308D01*
X1083741Y1133715D02*
X1085352Y1132104D01*
X1114554Y1056013D02*
X1152530Y1018038D01*
X1155679D02*
X1158981Y1021340D01*
X1152530Y1018038D02*
X1155679D01*
X1095758Y1132104D02*
X1114554Y1113308D01*
X1085116Y1029742D02*
X1097536D01*
X1039041Y1389791D02*
X1039426Y1389406D01*
X1038328Y1141502D02*
X1038836Y1140994D01*
X1040822Y1405715D02*
X1044469D01*
X1039116Y1407421D02*
Y1416584D01*
X1152530Y1152040D02*
X1155436D01*
X1148336Y1156234D02*
Y1168934D01*
Y1156234D02*
X1152530Y1152040D01*
X1085447Y1220009D02*
X1093857D01*
X1083741Y1221715D02*
X1085447Y1220009D01*
X1097282Y1219988D02*
X1148336Y1168934D01*
X1093857Y1220009D02*
X1093877Y1219988D01*
X1097282D01*
X1155436Y1152040D02*
X1158981Y1155585D01*
X1245618Y1261362D02*
X1322552Y1184428D01*
X1482116Y1194080D02*
X1482116D01*
X1479229Y1191193D02*
X1482116Y1194080D01*
X1482116D02*
X1485138Y1197102D01*
X1111250Y939038D02*
X1122426Y950214D01*
X1232154D01*
X1517416Y1373612D02*
X1529156D01*
X1536689Y1381145D01*
X1515426Y1375602D02*
X1517416Y1373612D01*
X1513220Y1378204D02*
X1515426Y1375998D01*
Y1375602D02*
Y1375998D01*
X1526540Y1410821D02*
X1529111Y1413392D01*
X1526540Y1392437D02*
Y1410821D01*
Y1392437D02*
X1528689Y1390288D01*
Y1385300D02*
Y1390288D01*
X1524723Y1357578D02*
X1541689Y1374545D01*
X1513975Y1357578D02*
X1524723D01*
X1527343Y1328368D02*
X1528689Y1327023D01*
Y1326300D02*
Y1327023D01*
X1543611Y1431892D02*
Y1443744D01*
X1542361Y1444994D02*
X1543611Y1443744D01*
X1525057Y1296316D02*
Y1310080D01*
X1535189Y1309855D02*
X1535471Y1309572D01*
X1565363Y1337098D02*
X1565617Y1337352D01*
Y1354151D01*
X1564565Y1326300D02*
X1565363Y1327098D01*
X1548189Y1326300D02*
X1564565D01*
X1541689Y1374545D02*
Y1385300D01*
X1518720Y1328368D02*
X1527343D01*
X1482447Y1240469D02*
X1489147D01*
X1490671Y1238945D01*
X1178184Y1092281D02*
X1189845D01*
X1175547Y1089645D02*
X1178184Y1092281D01*
X1175547Y988045D02*
X1178184Y990681D01*
X1189845D01*
X1206521Y1054626D02*
X1206521Y1054626D01*
X1178190Y1058245D02*
X1190098D01*
X1178184Y1024463D02*
X1189845D01*
X1175547Y1021827D02*
X1178184Y1024463D01*
X1353318Y1088778D02*
Y1096525D01*
X1354363Y1086733D02*
X1355363D01*
X1480923Y1248597D02*
X1488639D01*
X1178692Y1158575D02*
X1190352D01*
X1176055Y1155939D02*
X1178692Y1158575D01*
Y1125047D02*
X1190352D01*
X1176055Y1122411D02*
X1178692Y1125047D01*
X1343292Y1086804D02*
X1343363Y1086733D01*
X1489971Y1152585D02*
X1490321Y1152235D01*
X1481431Y1152585D02*
X1489971D01*
X1744392Y756490D02*
X1761266D01*
X1761410Y756634D01*
D101*
X1202210Y1073321D02*
X1204174D01*
X1202718Y1106087D02*
X1204681D01*
X1202464Y1039285D02*
X1204427D01*
X1175023Y1038041D02*
X1179011Y1042029D01*
X1174773Y1038041D02*
X1175023D01*
X1199947Y1058245D02*
X1203540Y1054652D01*
X1199182Y1159112D02*
X1199652Y1159583D01*
X1202718Y1139615D02*
X1204681D01*
X1202046Y1005503D02*
X1204174D01*
X1175023Y1004467D02*
X1179011Y1008455D01*
X1174773Y1004467D02*
X1175023D01*
X1200133Y1024463D02*
X1203540Y1021057D01*
X1202210Y971721D02*
X1204174D01*
X1175023Y970892D02*
X1179011Y974881D01*
X1174773Y970892D02*
X1175023D01*
X1200320Y990681D02*
X1203540Y987461D01*
X1189487Y1118152D02*
X1190070Y1118735D01*
X1202718Y1106087D01*
X1188036Y1118152D02*
X1189487D01*
X1175023Y1105389D02*
X1175273D01*
X1188036Y1118152D01*
X1198456Y1092235D02*
X1199610D01*
X1189845Y1092281D02*
X1198409D01*
X1199610Y1092235D02*
X1202790Y1089054D01*
X1198409Y1092281D02*
X1198456Y1092235D01*
X1189845Y990681D02*
X1200320D01*
X1179011Y1042029D02*
Y1042279D01*
X1188082Y1051350D02*
X1189233D01*
X1189816Y1051933D01*
X1202464Y1039285D01*
X1179011Y1042279D02*
X1188082Y1051350D01*
X1187874Y1017568D02*
X1188979D01*
X1179011Y1008705D02*
X1187874Y1017568D01*
X1199302Y1008247D02*
Y1008456D01*
X1188979Y1017568D02*
X1189562Y1018151D01*
X1179011Y1008455D02*
Y1008705D01*
X1189562Y1018151D02*
X1189607D01*
X1199302Y1008456D01*
Y1008247D02*
X1202046Y1005503D01*
X1190098Y1058245D02*
X1199947D01*
X1188979Y1085386D02*
X1189562Y1085969D01*
X1202210Y1073321D01*
X1174765Y1072623D02*
X1187528Y1085386D01*
X1188979D01*
X1189845Y1024463D02*
X1200133D01*
X1190890Y1159112D02*
X1199182D01*
X1190352Y1158575D02*
X1190890Y1159112D01*
Y1125584D02*
X1199182D01*
X1199652Y1126055D01*
X1190352Y1125047D02*
X1190890Y1125584D01*
X1188979Y983786D02*
X1189562Y984369D01*
X1179011Y974881D02*
Y975130D01*
X1189562Y984369D02*
X1202210Y971721D01*
X1187666Y983786D02*
X1188979D01*
X1179011Y975130D02*
X1187666Y983786D01*
X1190070Y1152263D02*
X1202718Y1139615D01*
X1175023Y1138917D02*
X1175273D01*
X1188036Y1151680D01*
X1189487D02*
X1190070Y1152263D01*
X1188036Y1151680D02*
X1189487D01*
D102*
X1441553Y1096525D02*
Y1104335D01*
X1437363Y1108525D02*
X1441553Y1104335D01*
X1445363Y1108525D02*
X1449326Y1104562D01*
Y1096525D02*
Y1104562D01*
X1445363Y1204525D02*
X1449484Y1200404D01*
X1480820D01*
X1437048Y1169670D02*
X1481296D01*
X1473935Y1185097D02*
X1480753D01*
X1399288Y1256818D02*
X1401675Y1254431D01*
Y1240837D02*
Y1254431D01*
X1397363Y1236525D02*
X1401675Y1240837D01*
X1403350Y1258305D02*
X1405231Y1256424D01*
Y1236575D02*
Y1256424D01*
X1393698Y1232408D02*
X1401064D01*
X1405231Y1236575D01*
X1389380Y1236726D02*
X1393698Y1232408D01*
X1452891Y1228997D02*
Y1231409D01*
Y1228997D02*
X1453363Y1228525D01*
X1449363Y1234937D02*
Y1256525D01*
Y1234937D02*
X1452891Y1231409D01*
X1465378Y1216510D02*
X1480219D01*
X1461363Y1220525D02*
X1465378Y1216510D01*
X1434187Y1175445D02*
X1480283D01*
X1423773Y1158681D02*
Y1165031D01*
X1434187Y1175445D01*
X1416661Y1151569D02*
X1423773Y1158681D01*
X1402691Y1144711D02*
X1409549Y1151569D01*
X1416661D01*
X1402691Y1129853D02*
Y1144711D01*
X1397363Y1124525D02*
X1402691Y1129853D01*
X1385419Y1106103D02*
Y1112469D01*
X1381363Y1116525D02*
X1385419Y1112469D01*
X1393293Y1097395D02*
Y1102039D01*
X1390877Y1104455D02*
X1393293Y1102039D01*
X1385419Y1106103D02*
X1387067Y1104455D01*
X1390877D01*
X1425450Y1232438D02*
X1429363Y1228525D01*
X1425450Y1232438D02*
Y1256564D01*
X1421363Y1116525D02*
X1425297Y1112591D01*
Y1094589D02*
Y1112591D01*
X1473328Y1224560D02*
X1479714D01*
X1469363Y1228525D02*
X1473328Y1224560D01*
X1469363Y1180525D02*
X1473935Y1185097D01*
X1435711Y1172397D02*
X1485495D01*
X1426489Y1157334D02*
Y1163176D01*
X1435711Y1172397D01*
X1418185Y1149029D02*
X1426489Y1157334D01*
X1405739Y1143441D02*
X1411327Y1149029D01*
X1418185D01*
X1405739Y1124901D02*
Y1143441D01*
X1397363Y1116525D02*
X1405739Y1124901D01*
X1417322Y1232566D02*
X1421363Y1228525D01*
X1417322Y1232566D02*
Y1256525D01*
X1381363Y1106009D02*
X1385419Y1101953D01*
X1381363Y1106009D02*
Y1108525D01*
X1385419Y1096525D02*
Y1101953D01*
X1408787Y1233029D02*
Y1257335D01*
X1404283Y1228525D02*
X1408787Y1233029D01*
X1397363Y1228525D02*
X1404283D01*
X1469363Y1212525D02*
X1473363Y1208525D01*
X1481363D01*
X1421363Y1124525D02*
X1425307Y1120581D01*
X1433329Y1095001D02*
Y1118137D01*
X1425307Y1120581D02*
X1430885D01*
X1433329Y1118137D01*
X1469363Y1108525D02*
X1473456Y1104432D01*
Y1097830D02*
Y1104432D01*
X1451612Y1216432D02*
X1456692D01*
X1449326Y1218718D02*
X1451612Y1216432D01*
X1456692D02*
X1460599Y1212525D01*
X1449326Y1218718D02*
Y1230148D01*
X1460599Y1212525D02*
X1461363D01*
X1443230Y1232434D02*
X1447040D01*
X1449326Y1230148D01*
X1441299Y1234365D02*
Y1256525D01*
Y1234365D02*
X1443230Y1232434D01*
X1429615Y1155887D02*
Y1162237D01*
X1437048Y1169670D01*
X1419963Y1146235D02*
X1429615Y1155887D01*
X1408787Y1142679D02*
X1412343Y1146235D01*
X1419963D01*
X1408787Y1119949D02*
Y1142679D01*
X1397363Y1108525D02*
X1408787Y1119949D01*
X1381363Y1122232D02*
Y1124525D01*
X1377291Y1118160D02*
X1381363Y1122232D01*
X1377291Y1096525D02*
Y1118160D01*
X1393293Y1248595D02*
X1397363Y1244525D01*
X1393293Y1248595D02*
Y1256979D01*
Y1107119D02*
Y1120595D01*
X1389363Y1124525D02*
X1393293Y1120595D01*
X1402082Y1096525D02*
Y1102140D01*
X1399643Y1104579D02*
X1402082Y1102140D01*
X1393293Y1107119D02*
X1395833Y1104579D01*
X1399643D01*
X1433324Y1232564D02*
Y1256525D01*
Y1232564D02*
X1437363Y1228525D01*
X1465328Y1112490D02*
X1469363Y1116525D01*
X1465328Y1096755D02*
Y1112490D01*
X1321421Y1224467D02*
X1337421D01*
X1319159Y1232525D02*
X1330109D01*
X1319250Y1160552D02*
X1335534D01*
X1321790Y1172236D02*
X1328249D01*
X1363293Y1244525D02*
X1365363D01*
X1359221Y1248597D02*
X1363293Y1244525D01*
X1473492Y1136396D02*
X1481363D01*
X1469363Y1140525D02*
X1473492Y1136396D01*
X1467905Y1128548D02*
X1481363D01*
X1465326Y1131127D02*
X1467905Y1128548D01*
X1465326Y1131127D02*
Y1134364D01*
X1463040Y1136650D02*
X1465326Y1134364D01*
X1457238Y1136650D02*
X1463040D01*
X1453363Y1140525D02*
X1457238Y1136650D01*
X1465362Y1144524D02*
X1481363D01*
X1461363Y1140525D02*
X1465362Y1144524D01*
X1319250Y1200684D02*
X1327406D01*
X1330962Y1204240D02*
X1333078D01*
X1333363Y1204525D01*
X1327406Y1200684D02*
X1330962Y1204240D01*
X1351383Y1248597D02*
X1353415Y1246565D01*
X1345541Y1250883D02*
X1347827Y1248597D01*
X1351383D01*
X1353415Y1242755D02*
Y1246565D01*
X1369417Y1232471D02*
X1373363Y1228525D01*
X1345541Y1250883D02*
Y1264083D01*
X1367131Y1240469D02*
X1369417Y1238183D01*
X1353415Y1242755D02*
X1355701Y1240469D01*
X1367131D01*
X1369417Y1232471D02*
Y1238183D01*
X1381363Y1228525D02*
X1385419Y1232581D01*
Y1256422D01*
X1331724Y1248690D02*
X1334772D01*
X1329184Y1251230D02*
Y1256818D01*
X1337312Y1232576D02*
Y1246150D01*
Y1232576D02*
X1341363Y1228525D01*
X1334772Y1248690D02*
X1337312Y1246150D01*
X1329184Y1251230D02*
X1331724Y1248690D01*
X1321363Y1240525D02*
X1329363D01*
X1333363Y1236525D01*
X1345440Y1208602D02*
Y1246150D01*
X1337312Y1250468D02*
X1339090Y1248690D01*
X1342900D01*
X1337312Y1250468D02*
Y1255548D01*
X1342900Y1248690D02*
X1345440Y1246150D01*
X1341363Y1204525D02*
X1345440Y1208602D01*
X1363829Y1248597D02*
X1367131D01*
X1369417Y1243009D02*
X1372954Y1239472D01*
X1367131Y1248597D02*
X1369417Y1246311D01*
Y1243009D02*
Y1246311D01*
X1361363Y1251063D02*
X1363829Y1248597D01*
X1372954Y1236934D02*
X1373363Y1236525D01*
X1361363Y1251063D02*
Y1256525D01*
X1372954Y1236934D02*
Y1239472D01*
X1330809Y1244525D02*
X1333363D01*
X1326898Y1248436D02*
X1330809Y1244525D01*
X1320266Y1248436D02*
X1326898D01*
X1369363Y1250683D02*
X1372764Y1247282D01*
Y1245124D02*
X1373363Y1244525D01*
X1369363Y1250683D02*
Y1256525D01*
X1372764Y1245124D02*
Y1247282D01*
X1353415Y1250883D02*
Y1256525D01*
X1355701Y1248597D02*
X1359221D01*
X1353415Y1250883D02*
X1355701Y1248597D01*
X1377291Y1240597D02*
X1381363Y1236525D01*
X1377291Y1240597D02*
Y1256525D01*
X1330109Y1232525D02*
X1331825Y1230809D01*
Y1230898D01*
X1333363Y1229360D01*
Y1228525D02*
Y1229360D01*
X1322552Y1184428D02*
X1327660D01*
X1323342Y1175792D02*
X1326898D01*
X1472031Y1191193D02*
X1479229D01*
X1316456Y1216686D02*
X1329524D01*
X1321028Y1192556D02*
X1327660D01*
X1465429Y1160459D02*
X1488893D01*
X1461363Y1164525D02*
X1465429Y1160459D01*
X1488893D02*
X1490671Y1162237D01*
X1457419Y1240469D02*
X1482447D01*
X1453363Y1244525D02*
X1457419Y1240469D01*
X1321363Y1208465D02*
X1329303D01*
X1333363Y1212525D01*
X1329524Y1216686D02*
X1333363Y1220525D01*
X1321363Y1168587D02*
X1331885D01*
X1340915Y1177617D01*
Y1180077D01*
X1341363Y1180525D01*
X1335728Y1200430D02*
X1337413Y1202115D01*
Y1208575D01*
X1327660Y1192556D02*
X1329438Y1194334D01*
X1337413Y1208575D02*
X1341363Y1212525D01*
X1329438Y1194334D02*
Y1198398D01*
X1331470Y1200430D01*
X1335728D01*
X1461363Y1180525D02*
X1472031Y1191193D01*
X1337421Y1224467D02*
X1341363Y1220525D01*
X1328249Y1172236D02*
X1333323Y1177310D01*
Y1180485D02*
X1333363Y1180525D01*
X1333323Y1177310D02*
Y1180485D01*
X1353363Y1096570D02*
Y1103959D01*
X1353318Y1096525D02*
X1353363Y1096570D01*
X1357363Y1107959D02*
Y1108525D01*
X1353363Y1103959D02*
X1357363Y1107959D01*
X1465291Y1248597D02*
X1480923D01*
X1461363Y1252525D02*
X1465291Y1248597D01*
X1329438Y1178332D02*
Y1182396D01*
X1331470Y1184428D01*
X1326898Y1175792D02*
X1329438Y1178332D01*
X1345266Y1184428D02*
X1349363Y1188525D01*
X1331470Y1184428D02*
X1345266D01*
X1329438Y1186206D02*
Y1190778D01*
X1331123Y1192463D01*
X1343315D01*
X1349363Y1220525D02*
X1353314Y1216574D01*
X1327660Y1184428D02*
X1329438Y1186206D01*
X1353314Y1202462D02*
Y1216574D01*
X1343315Y1192463D02*
X1353314Y1202462D01*
X1337312Y1162330D02*
Y1168474D01*
X1349363Y1180525D01*
X1335534Y1160552D02*
X1337312Y1162330D01*
X1457303Y1152585D02*
X1481431D01*
X1453363Y1156525D02*
X1457303Y1152585D01*
D103*
X1591437Y838200D02*
D03*
Y889000D02*
D03*
Y939800D02*
D03*
Y863600D02*
D03*
X1566037Y914400D02*
D03*
Y812800D02*
D03*
Y939800D02*
D03*
Y889000D02*
D03*
X1591437Y812800D02*
D03*
Y965200D02*
D03*
X1566037Y838200D02*
D03*
Y863600D02*
D03*
X1591437Y914400D02*
D03*
D104*
X1771142Y1507744D02*
D03*
X1105916Y674077D02*
D03*
X1020064Y717804D02*
D03*
X1411224Y834390D02*
D03*
X1836928Y743204D02*
D03*
X1597660Y1296416D02*
D03*
X1815592Y1461262D02*
D03*
X1490726Y1470152D02*
D03*
X1406906Y1484376D02*
D03*
X1569212Y1140968D02*
D03*
X1593412Y1443736D02*
D03*
X1136650Y1248918D02*
D03*
X1135888Y1284478D02*
D03*
X1118616Y1275334D02*
D03*
X1136396Y1266190D02*
D03*
X1135888Y1302004D02*
D03*
X1118362Y1293114D02*
D03*
X1118870Y1240028D02*
D03*
X1118616Y1257554D02*
D03*
X1135634Y1319276D02*
D03*
X1135126Y1408176D02*
D03*
Y1390650D02*
D03*
X1117854Y1399286D02*
D03*
Y1434592D02*
D03*
Y1417066D02*
D03*
X1135126Y1425702D02*
D03*
Y1443482D02*
D03*
X1117600Y1381506D02*
D03*
X1117854Y1346454D02*
D03*
X1135126Y1355598D02*
D03*
Y1373124D02*
D03*
X1117854Y1328674D02*
D03*
X1118362Y1310640D02*
D03*
X1117854Y1363980D02*
D03*
X1135380Y1338072D02*
D03*
X1251712Y1181100D02*
D03*
X1253490Y1446530D02*
D03*
X1545082Y1268730D02*
D03*
X1513078Y1472692D02*
D03*
D105*
X1691741Y895765D02*
D03*
X1793341D02*
D03*
X1789430Y820166D02*
D03*
X1687830D02*
D03*
X1767941Y895765D02*
D03*
X1713230Y820166D02*
D03*
X1789430Y794766D02*
D03*
X1713230D02*
D03*
X1738630Y820166D02*
D03*
X1764030Y794766D02*
D03*
Y820166D02*
D03*
X1738630Y794766D02*
D03*
X1767941Y921165D02*
D03*
X1691741D02*
D03*
X1717141Y895765D02*
D03*
Y921165D02*
D03*
X1742541Y895765D02*
D03*
Y921165D02*
D03*
D106*
X1030224Y657860D02*
D03*
Y1563116D02*
D03*
X1830070D02*
D03*
Y657860D02*
D03*
D107*
X1687830Y794766D02*
D03*
X1793341Y921165D02*
D03*
D108*
X1118673Y769493D02*
D03*
X1130173D02*
D03*
X1124423Y778993D02*
D03*
Y759993D02*
D03*
D109*
X1566037Y965200D02*
D03*
D110*
X1201400Y1537716D02*
D03*
X1793906Y1431286D02*
D03*
X1061741Y988715D02*
D03*
D111*
X1643400Y1537716D02*
D03*
X1793906Y989286D02*
D03*
X1061741Y1430715D02*
D03*
D112*
X1260220Y717804D02*
D03*
X1627634Y1408629D02*
D03*
X1628396Y1354862D02*
D03*
X1627632Y1267460D02*
D03*
X1628650Y1130072D02*
D03*
X1627632Y1214120D02*
D03*
X1670558Y1029208D02*
D03*
X1628140Y1074166D02*
D03*
X1403604Y794258D02*
D03*
X1211834Y1410716D02*
D03*
X1212064Y1316507D02*
D03*
X1212088Y1308354D02*
D03*
X1203452Y1432814D02*
D03*
X1211580Y1354328D02*
D03*
Y1274572D02*
D03*
X1207262Y1229106D02*
D03*
X1168402Y1183412D02*
D03*
X1217168Y747522D02*
D03*
X1216660Y732282D02*
D03*
X1198372Y731774D02*
D03*
X1198118Y748030D02*
D03*
X1073404Y728218D02*
D03*
X1084291Y751967D02*
D03*
X1131045Y889648D02*
D03*
X1182376Y684872D02*
D03*
X1197610Y687920D02*
D03*
X1187958Y822452D02*
D03*
X1189990Y883920D02*
D03*
X1216018Y995927D02*
D03*
Y1012945D02*
D03*
Y979163D02*
D03*
Y1046219D02*
D03*
Y1062729D02*
D03*
Y1029201D02*
D03*
X1064006Y1067054D02*
D03*
X1053839Y1077715D02*
D03*
X1066292Y1114044D02*
D03*
X1216018Y1079747D02*
D03*
Y1096765D02*
D03*
Y1113529D02*
D03*
X1246378Y826014D02*
D03*
X1265936Y826262D02*
D03*
X1221860Y1012945D02*
D03*
Y979163D02*
D03*
Y995927D02*
D03*
X1301369Y849121D02*
D03*
X1355852Y938276D02*
D03*
X1374902D02*
D03*
X1363980Y938784D02*
D03*
X1325702Y983362D02*
D03*
X1328928Y992124D02*
D03*
X1374648Y992632D02*
D03*
X1221860Y1062729D02*
D03*
Y1029201D02*
D03*
Y1046219D02*
D03*
Y1113529D02*
D03*
Y1079747D02*
D03*
Y1096765D02*
D03*
X1296647Y1083287D02*
D03*
X1326638Y1034060D02*
D03*
X1325363Y1100525D02*
D03*
X1376934Y1059434D02*
D03*
X1365363Y1100525D02*
D03*
X1373363D02*
D03*
X1283208Y1112266D02*
D03*
X1365363Y1108525D02*
D03*
X1373363D02*
D03*
X1053592Y1125474D02*
D03*
X1053084Y1188974D02*
D03*
X1098042Y1181862D02*
D03*
X1144780Y1201700D02*
D03*
X1068324Y1239520D02*
D03*
X1216018Y1130039D02*
D03*
Y1147311D02*
D03*
X1221860Y1130039D02*
D03*
Y1147311D02*
D03*
X1168654Y1232154D02*
D03*
X1206500Y1219200D02*
D03*
X1213104Y1231900D02*
D03*
X1069594Y1301496D02*
D03*
X1167894Y1287044D02*
D03*
X1167561Y1339121D02*
D03*
X1069848Y1381252D02*
D03*
X1167638Y1369314D02*
D03*
X1167507Y1394039D02*
D03*
X1168146Y1259840D02*
D03*
X1211834Y1268730D02*
D03*
X1211349Y1287041D02*
D03*
X1212872Y1339574D02*
D03*
X1168069Y1424465D02*
D03*
X1211834Y1420622D02*
D03*
X1282702Y1133120D02*
D03*
X1325363Y1140525D02*
D03*
X1333363Y1132525D02*
D03*
X1357363D02*
D03*
X1333363Y1140525D02*
D03*
X1357363D02*
D03*
X1325363Y1148525D02*
D03*
X1357363D02*
D03*
Y1164525D02*
D03*
X1373363Y1140525D02*
D03*
X1365363Y1148525D02*
D03*
X1373363Y1132525D02*
D03*
X1381363D02*
D03*
Y1140525D02*
D03*
X1365363Y1164525D02*
D03*
X1381363Y1156525D02*
D03*
Y1164525D02*
D03*
Y1180525D02*
D03*
X1325363Y1252525D02*
D03*
X1357363Y1212525D02*
D03*
Y1220525D02*
D03*
Y1188525D02*
D03*
X1246124Y1394206D02*
D03*
X1324610Y1293622D02*
D03*
X1246886Y1368806D02*
D03*
X1290320Y1529334D02*
D03*
X1354076Y1369848D02*
D03*
X1365363Y1188525D02*
D03*
Y1212525D02*
D03*
X1381363Y1188525D02*
D03*
Y1196525D02*
D03*
Y1212525D02*
D03*
X1362712Y1377976D02*
D03*
X1365363Y1220525D02*
D03*
X1381363D02*
D03*
X1388364Y1070356D02*
D03*
X1397363Y1156525D02*
D03*
X1389363D02*
D03*
X1405363D02*
D03*
X1420040Y1073732D02*
D03*
X1421363Y1140525D02*
D03*
X1437363D02*
D03*
Y1132525D02*
D03*
X1413363Y1140525D02*
D03*
Y1156525D02*
D03*
Y1164525D02*
D03*
X1437363Y1156525D02*
D03*
X1389363Y1164525D02*
D03*
Y1180525D02*
D03*
X1397363Y1164525D02*
D03*
X1405363D02*
D03*
X1397363Y1180525D02*
D03*
X1405363D02*
D03*
X1389363Y1188525D02*
D03*
Y1196525D02*
D03*
X1397363Y1188525D02*
D03*
Y1196525D02*
D03*
X1413363Y1180525D02*
D03*
X1437363D02*
D03*
X1405363Y1188525D02*
D03*
X1413363D02*
D03*
Y1196525D02*
D03*
X1437363D02*
D03*
X1579245Y838454D02*
D03*
X1579499Y863600D02*
D03*
X1591183Y900684D02*
D03*
Y952246D02*
D03*
X1715262Y1045718D02*
D03*
X1747774Y1057402D02*
D03*
X1679448Y1064167D02*
D03*
X1634490Y1074166D02*
D03*
X1631950Y1083056D02*
D03*
X1485138Y1092200D02*
D03*
X1477363Y1100525D02*
D03*
X1445363Y1156525D02*
D03*
Y1132525D02*
D03*
Y1140525D02*
D03*
Y1180525D02*
D03*
X1469363Y1164525D02*
D03*
X1477363Y1196525D02*
D03*
X1634490Y1130046D02*
D03*
X1707499Y1090025D02*
D03*
X1703578Y1114806D02*
D03*
X1627886Y1145286D02*
D03*
X1658418Y1150418D02*
D03*
X1703832Y1144778D02*
D03*
X1786128Y1165860D02*
D03*
X1405363Y1196525D02*
D03*
X1421363Y1212525D02*
D03*
X1437363D02*
D03*
X1397363Y1252525D02*
D03*
X1421363Y1220525D02*
D03*
X1437363D02*
D03*
X1445363Y1196525D02*
D03*
X1453363Y1204525D02*
D03*
X1445363Y1212525D02*
D03*
X1469363Y1196525D02*
D03*
X1461363Y1204525D02*
D03*
X1445363Y1220525D02*
D03*
X1477363Y1252525D02*
D03*
X1505712Y1215898D02*
D03*
X1477542Y1293345D02*
D03*
X1388618Y1301496D02*
D03*
X1521970Y1343178D02*
D03*
X1477518Y1407668D02*
D03*
X1412494Y1529588D02*
D03*
X1504188Y1400810D02*
D03*
X1521206Y1462532D02*
D03*
X1531112Y1342898D02*
D03*
X1579628Y1339876D02*
D03*
X1575816Y1346454D02*
D03*
X1532128Y1400810D02*
D03*
X1529975Y1461891D02*
D03*
X1559814Y1401572D02*
D03*
X1562862Y1407668D02*
D03*
X1567180Y1401064D02*
D03*
X1556004Y1462532D02*
D03*
X1628140Y1202944D02*
D03*
X1628142Y1227862D02*
D03*
X1628394Y1257300D02*
D03*
X1703578Y1199388D02*
D03*
X1704086Y1229360D02*
D03*
X1787906Y1251966D02*
D03*
X1703832Y1254252D02*
D03*
X1704079Y1284231D02*
D03*
X1627888Y1284931D02*
D03*
X1628394Y1341628D02*
D03*
X1628904Y1368070D02*
D03*
X1628394Y1394206D02*
D03*
X1583436Y1530096D02*
D03*
X1628648Y1419860D02*
D03*
X1704110Y1338048D02*
D03*
X1704340Y1368298D02*
D03*
X1785600Y1366286D02*
D03*
X1704088Y1393389D02*
D03*
X1703400Y1423033D02*
D03*
X1263332Y745744D02*
D03*
X1262990Y686620D02*
D03*
X1561084Y753618D02*
D03*
X1401064Y886460D02*
D03*
X1157605Y660107D02*
D03*
X1144206Y769810D02*
D03*
X1138647Y820293D02*
D03*
X1137539Y708748D02*
D03*
X1132840Y721106D02*
D03*
X1125429Y797433D02*
D03*
X1093087Y753745D02*
D03*
X1611122Y757682D02*
D03*
X1548892Y755904D02*
D03*
X1591564Y766826D02*
D03*
X1110961Y752729D02*
D03*
X1111098Y786493D02*
D03*
X1108075Y696556D02*
D03*
X1103595Y762889D02*
D03*
X1089152Y737870D02*
D03*
X1131062Y665695D02*
D03*
X1120394Y653503D02*
D03*
X1130683Y806921D02*
D03*
X1135888Y653503D02*
D03*
X1140933Y740791D02*
D03*
X1140968Y677379D02*
D03*
X1148842Y762254D02*
D03*
X1148080Y664933D02*
D03*
X1154303Y726567D02*
D03*
X1152363Y768731D02*
D03*
X1162431Y710145D02*
D03*
X1166114Y892556D02*
D03*
X1570482Y1462278D02*
D03*
X1572514Y1405128D02*
D03*
X1546606Y1400556D02*
D03*
X1544320Y1199134D02*
D03*
X1539494Y1400556D02*
D03*
X1539240Y1342898D02*
D03*
X1521206Y1405636D02*
D03*
X1507998Y1444498D02*
D03*
X1505712Y1407160D02*
D03*
X1498346Y1406144D02*
D03*
X1501648Y1342898D02*
D03*
X1534160Y1198880D02*
D03*
X1469363Y1252525D02*
D03*
X1453363Y1220525D02*
D03*
Y1212525D02*
D03*
X1550414Y911349D02*
D03*
X1560957Y794766D02*
D03*
X1461363Y1196525D02*
D03*
X1453363D02*
D03*
X1544320Y1192276D02*
D03*
X1445363Y1164525D02*
D03*
X1437363D02*
D03*
X1445363Y1148525D02*
D03*
X1437363D02*
D03*
X1543050Y977392D02*
D03*
X1545336Y836422D02*
D03*
X1477363Y1108525D02*
D03*
X1429363Y1220525D02*
D03*
X1397363D02*
D03*
X1389363Y1252525D02*
D03*
X1373363Y1212525D02*
D03*
Y1220525D02*
D03*
X1429363Y1212525D02*
D03*
X1397363D02*
D03*
X1365363Y1204525D02*
D03*
Y1196525D02*
D03*
X1325363Y1244525D02*
D03*
X1059180Y1405890D02*
D03*
X1021842Y1398778D02*
D03*
X1357363Y1204525D02*
D03*
Y1196525D02*
D03*
X1349363Y1212525D02*
D03*
Y1204525D02*
D03*
X1365363Y1156525D02*
D03*
X1357363D02*
D03*
X1325363D02*
D03*
X1389363Y1140525D02*
D03*
Y1132525D02*
D03*
X1421363D02*
D03*
X1413363D02*
D03*
X1381363Y1100525D02*
D03*
X1152144Y883920D02*
D03*
X1084101Y907148D02*
D03*
X1085628Y889647D02*
D03*
X1145157Y863714D02*
D03*
X1083339Y869556D02*
D03*
X1276858Y847598D02*
D03*
X1410716Y871474D02*
D03*
X1761410Y732634D02*
D03*
X1187704Y864362D02*
D03*
X1293074Y698754D02*
D03*
X1285620Y731266D02*
D03*
X1058926Y797052D02*
D03*
X1073404Y814070D02*
D03*
X1013460Y750316D02*
D03*
X1744392Y750390D02*
D03*
X1069086Y737870D02*
D03*
X1047496Y746252D02*
D03*
X1703832Y1408176D02*
D03*
X1144526Y1216940D02*
D03*
X1704340Y1352804D02*
D03*
X1703832Y1129792D02*
D03*
X1680718Y1070610D02*
D03*
X1703832Y1268730D02*
D03*
X1704594Y1214120D02*
D03*
X1168146Y1275334D02*
D03*
X1168069Y1409479D02*
D03*
X1167561Y1354107D02*
D03*
X1703787Y1129837D02*
D03*
X1429363Y1100525D02*
D03*
X1053846Y1044956D02*
D03*
X1481582Y938276D02*
D03*
X1478280Y962406D02*
D03*
X1053846Y1053338D02*
D03*
X1070211Y1062000D02*
D03*
X1472438Y957834D02*
D03*
X1437363Y1100525D02*
D03*
X1054100Y1060704D02*
D03*
X1437363Y1108525D02*
D03*
X1442602Y943429D02*
D03*
X1069957Y1053618D02*
D03*
X1445363Y1108525D02*
D03*
X1449578Y958596D02*
D03*
X1520190Y1213358D02*
D03*
X1445363Y1204525D02*
D03*
X1437363D02*
D03*
X1801622Y1086104D02*
D03*
X1445363Y1188525D02*
D03*
X1437363D02*
D03*
X1413363Y1212525D02*
D03*
Y1220525D02*
D03*
X1389363D02*
D03*
Y1212525D02*
D03*
X1429363Y1140525D02*
D03*
Y1132525D02*
D03*
X1397363D02*
D03*
X1365363Y1180525D02*
D03*
X1357363D02*
D03*
X1397363Y1140525D02*
D03*
X1477363Y1212525D02*
D03*
X1801622Y1094486D02*
D03*
X1512316Y1342703D02*
D03*
X1476552Y924356D02*
D03*
X1148715Y931037D02*
D03*
X1485138Y1182370D02*
D03*
X1556766Y1197991D02*
D03*
X1575816Y1198164D02*
D03*
X1831594Y1390142D02*
D03*
X1830832Y1406398D02*
D03*
X1801622Y1398016D02*
D03*
X1757504Y1398270D02*
D03*
X1757935Y1406145D02*
D03*
X1801663Y1294384D02*
D03*
X1801651Y1302512D02*
D03*
X1801293Y1310386D02*
D03*
X1801051Y1318514D02*
D03*
X1801368Y1326134D02*
D03*
X1801104Y1334516D02*
D03*
X1800606Y1342136D02*
D03*
X1800352Y1350264D02*
D03*
X1794243Y1366254D02*
D03*
X1786066Y1030286D02*
D03*
X1413363Y1236525D02*
D03*
X1796796Y1241298D02*
D03*
X1704342Y1344113D02*
D03*
X1707134Y1374140D02*
D03*
Y1358900D02*
D03*
X1521714Y1139952D02*
D03*
X1586242Y1213600D02*
D03*
X1641806Y1196797D02*
D03*
X1661160Y1299210D02*
D03*
X1648714Y1089406D02*
D03*
X1546860Y1132840D02*
D03*
X1550924Y1150874D02*
D03*
X1453363Y1100525D02*
D03*
X1477363Y1180525D02*
D03*
X1600962Y1204722D02*
D03*
X1461363Y1236525D02*
D03*
X1453896Y1296416D02*
D03*
X1604264Y1258570D02*
D03*
X1437363Y1244525D02*
D03*
X1461363Y1148525D02*
D03*
X1703324Y1183592D02*
D03*
X1469363Y1132525D02*
D03*
X1604518Y1233678D02*
D03*
X1445363Y1244525D02*
D03*
X1802108Y1206042D02*
D03*
X1704555Y1244576D02*
D03*
X1469363Y1148525D02*
D03*
X1513078Y1149096D02*
D03*
X1444244Y1271270D02*
D03*
X1595628Y1252220D02*
D03*
X1437363Y1252525D02*
D03*
X1801854Y1230426D02*
D03*
X1706626Y1234948D02*
D03*
X1802132Y1174014D02*
D03*
X1477363Y1140525D02*
D03*
X1499108Y1140206D02*
D03*
X1592072Y1235964D02*
D03*
X1445363Y1236525D02*
D03*
X1413363Y1228525D02*
D03*
X1597914Y1284478D02*
D03*
X1413002Y1326642D02*
D03*
X1802132Y1189762D02*
D03*
X1706880Y1274318D02*
D03*
X1802132Y1213892D02*
D03*
X1706372Y1189228D02*
D03*
X1413363Y1100525D02*
D03*
X1604010Y1041400D02*
D03*
X1604518Y1271524D02*
D03*
X1707134Y1219962D02*
D03*
Y1259586D02*
D03*
X1802132Y1198144D02*
D03*
X1707134Y1204468D02*
D03*
X1602994Y1245870D02*
D03*
X1468122Y1304316D02*
D03*
X1445363Y1228525D02*
D03*
X1453363Y1148525D02*
D03*
X1787144Y1182116D02*
D03*
X1512570Y1245108D02*
D03*
X1634236Y1202690D02*
D03*
X1802108Y1181912D02*
D03*
X1801878Y1222528D02*
D03*
X1604225Y1264629D02*
D03*
X1463296Y1314476D02*
D03*
X1437363Y1236525D02*
D03*
X1477363Y1132525D02*
D03*
X1706372Y1290066D02*
D03*
X1582420Y1140460D02*
D03*
X1601216Y1149604D02*
D03*
X1605788Y1135126D02*
D03*
X1588262Y1405128D02*
D03*
X1506474Y1531366D02*
D03*
X1490400Y1531648D02*
D03*
X1801622Y1041908D02*
D03*
X1477363Y1116525D02*
D03*
X1757426Y1169924D02*
D03*
X1792224Y1061720D02*
D03*
X1461363Y1108525D02*
D03*
X1465328Y1065786D02*
D03*
X1755140Y1043432D02*
D03*
X1646682Y1042670D02*
D03*
X1639570Y1042924D02*
D03*
X1475994Y1041146D02*
D03*
X1470660Y1045972D02*
D03*
X1464564Y1057910D02*
D03*
X1578356Y1544066D02*
D03*
X1290320Y1543558D02*
D03*
X1282446Y1544066D02*
D03*
X1274318D02*
D03*
X1458468Y1543304D02*
D03*
X1450340Y1543558D02*
D03*
X1442212Y1543304D02*
D03*
X1522222Y1544066D02*
D03*
X1586484D02*
D03*
X1610106Y1543304D02*
D03*
X1602232Y1543812D02*
D03*
X1617980Y1543558D02*
D03*
X1594358Y1544066D02*
D03*
X1546606Y1543304D02*
D03*
X1538732Y1543812D02*
D03*
X1554480Y1543558D02*
D03*
X1530858Y1544066D02*
D03*
X1426210Y1542796D02*
D03*
X1418336Y1543304D02*
D03*
X1434084Y1543050D02*
D03*
X1410462Y1543558D02*
D03*
X1394460D02*
D03*
X1386586Y1544066D02*
D03*
X1402334Y1543812D02*
D03*
X1378712Y1544320D02*
D03*
X1322324Y1542796D02*
D03*
X1314450Y1543304D02*
D03*
X1330198Y1543050D02*
D03*
X1306576Y1543558D02*
D03*
X1266190D02*
D03*
X1258316Y1543812D02*
D03*
X1349363Y1156525D02*
D03*
Y1164525D02*
D03*
X1397363Y1236525D02*
D03*
X1389380Y1236726D02*
D03*
X1453363Y1228525D02*
D03*
X1613408Y1037082D02*
D03*
X1389363Y1116525D02*
D03*
X1461363Y1220525D02*
D03*
X1711452Y1185164D02*
D03*
X1477363Y1164525D02*
D03*
X1397363Y1124525D02*
D03*
X1226566Y1544828D02*
D03*
X1341363Y1188525D02*
D03*
X1104646Y1324102D02*
D03*
X1381363Y1116525D02*
D03*
X1349363Y1228525D02*
D03*
X1429363D02*
D03*
X1421363Y1236525D02*
D03*
X1469363Y1220525D02*
D03*
X1477363Y1148525D02*
D03*
X1726438Y1170686D02*
D03*
X1461363Y1124525D02*
D03*
X1748790Y1169162D02*
D03*
X1421363Y1116525D02*
D03*
Y1108525D02*
D03*
X1341363Y1156525D02*
D03*
X1357363Y1236525D02*
D03*
X1389363Y1228525D02*
D03*
X1429363Y1252525D02*
D03*
X1469363Y1228525D02*
D03*
Y1180525D02*
D03*
X1397363Y1116525D02*
D03*
X1421363Y1228525D02*
D03*
X1250188Y1544320D02*
D03*
X1333363Y1148525D02*
D03*
Y1164525D02*
D03*
X1381363Y1108525D02*
D03*
X1397363Y1228525D02*
D03*
X1453363Y1252525D02*
D03*
X1469363Y1212525D02*
D03*
X1477363Y1156525D02*
D03*
X1722120Y1180338D02*
D03*
X1389363Y1108525D02*
D03*
X1053340Y1237768D02*
D03*
X1421363Y1124525D02*
D03*
X1357363Y1228525D02*
D03*
X1421363Y1252525D02*
D03*
X1429363Y1244525D02*
D03*
X1469363Y1108525D02*
D03*
X1453363Y1132525D02*
D03*
X1730756Y1184910D02*
D03*
X1469363Y1124525D02*
D03*
X1739900Y1178052D02*
D03*
X1234440Y1544574D02*
D03*
X1349363Y1148525D02*
D03*
X1333363Y1156525D02*
D03*
X1381506Y1252474D02*
D03*
X1389363Y1244525D02*
D03*
X1461363Y1212525D02*
D03*
Y1228525D02*
D03*
X1397363Y1108525D02*
D03*
X1389363Y1100525D02*
D03*
X1381363Y1124525D02*
D03*
X1397363Y1244525D02*
D03*
X1421363D02*
D03*
X1717548Y1183640D02*
D03*
X1469363Y1156525D02*
D03*
X1477363Y1124525D02*
D03*
X1744218Y1173734D02*
D03*
X1389363Y1124525D02*
D03*
X1242314Y1544066D02*
D03*
X1341363Y1148525D02*
D03*
X1397363Y1100525D02*
D03*
X1349363Y1236525D02*
D03*
X1381363Y1244525D02*
D03*
X1429363Y1236525D02*
D03*
X1437363Y1228525D02*
D03*
X1469363Y1100525D02*
D03*
X1445363Y1124525D02*
D03*
X1735582Y1181862D02*
D03*
X1469363Y1116525D02*
D03*
X1604518Y1443990D02*
D03*
X1547622Y1452880D02*
D03*
X1053592Y1373632D02*
D03*
X1411986Y1321054D02*
D03*
X1249172Y1251712D02*
D03*
X1250696Y1262888D02*
D03*
X1268476Y1301750D02*
D03*
X1703832Y1094994D02*
D03*
X1516380Y1199388D02*
D03*
X1536840Y1100696D02*
D03*
X1453363Y1188525D02*
D03*
X1711960Y1129792D02*
D03*
X1802412Y1109980D02*
D03*
X1704301Y1049758D02*
D03*
X1704530Y1064577D02*
D03*
X1531874Y1103884D02*
D03*
X1453363Y1180525D02*
D03*
X1802158Y1102360D02*
D03*
X1477363Y1220525D02*
D03*
X1706372Y1328674D02*
D03*
X1707134Y1399032D02*
D03*
Y1413510D02*
D03*
X1705102Y1428750D02*
D03*
X1703832Y1323086D02*
D03*
X1601620Y1108075D02*
D03*
X1516380Y1192276D02*
D03*
X1523238Y1268476D02*
D03*
X1528572Y1264666D02*
D03*
X1256792Y1236726D02*
D03*
X1407668Y1062296D02*
D03*
X1513078Y1155192D02*
D03*
X1267460Y1264666D02*
D03*
X1259078Y1266698D02*
D03*
X1256030Y1274064D02*
D03*
X1277366Y1456182D02*
D03*
X1493266Y1021334D02*
D03*
X1059434Y1207770D02*
D03*
X1063752Y1246886D02*
D03*
X1245616Y1276604D02*
D03*
Y1246124D02*
D03*
X1302512Y1078992D02*
D03*
X1485138Y1197102D02*
D03*
X1542288Y1090930D02*
D03*
X1246091Y1379507D02*
D03*
X1252855Y1396111D02*
D03*
X1252220Y1404366D02*
D03*
X1485392Y1067412D02*
D03*
X1445363Y1116525D02*
D03*
X1487170Y1435862D02*
D03*
X1244346Y1191260D02*
D03*
X1244094Y1196874D02*
D03*
X1244346Y1202944D02*
D03*
X1262888Y1186434D02*
D03*
X1598930Y1431290D02*
D03*
X1605026Y1434338D02*
D03*
X1365363Y1236525D02*
D03*
X1361948Y1338834D02*
D03*
X1628648Y1334262D02*
D03*
X1296416Y1410970D02*
D03*
X1325363Y1196525D02*
D03*
X1586992Y1150620D02*
D03*
X1592072Y1242568D02*
D03*
X1601216Y1213358D02*
D03*
X1445363Y1252525D02*
D03*
X1604772Y1067562D02*
D03*
X1053848Y1261644D02*
D03*
X1053594Y1253262D02*
D03*
Y1277900D02*
D03*
X1053340Y1269518D02*
D03*
X1124966Y1229868D02*
D03*
X1129792Y1225550D02*
D03*
X1134110Y1221232D02*
D03*
X1138428Y1216660D02*
D03*
X1069340Y1389126D02*
D03*
X1053340Y1357910D02*
D03*
Y1309650D02*
D03*
X1053086Y1349528D02*
D03*
X1053848Y1301776D02*
D03*
X1053594Y1341654D02*
D03*
Y1293394D02*
D03*
Y1318032D02*
D03*
X1053340Y1333272D02*
D03*
X1245743Y1306195D02*
D03*
X1249934Y1301750D02*
D03*
X1259332Y1301496D02*
D03*
X1058418Y1389126D02*
D03*
X1458722Y913892D02*
D03*
X1413363Y1244525D02*
D03*
X1802386Y1134136D02*
D03*
X1709166Y1149883D02*
D03*
X1444752Y1336802D02*
D03*
X1704301Y1383514D02*
D03*
X1461363Y1244525D02*
D03*
X1802386Y1149884D02*
D03*
X1802488Y1158390D02*
D03*
X1711198Y1114806D02*
D03*
X1802461Y1125829D02*
D03*
X1703832Y1080008D02*
D03*
X1430530Y1332103D02*
D03*
X1464818Y1342898D02*
D03*
X1413363Y1252525D02*
D03*
X1461363Y1100525D02*
D03*
X1802362Y1142034D02*
D03*
X1756458Y1022168D02*
D03*
X1461363Y1132525D02*
D03*
X1710436Y1104646D02*
D03*
X1802362Y1117904D02*
D03*
X1357363Y1244525D02*
D03*
X1353820Y1350264D02*
D03*
X1602486D02*
D03*
X1305054Y1400582D02*
D03*
X1341363Y1196525D02*
D03*
X1588008Y1412240D02*
D03*
X1349363Y1252525D02*
D03*
X1349248Y1358646D02*
D03*
X1602486Y1357630D02*
D03*
X1603250Y1404565D02*
D03*
X1341363Y1244525D02*
D03*
X1329438Y1395756D02*
D03*
X1325363Y1188525D02*
D03*
X1286510Y1421384D02*
D03*
X1369824Y1331494D02*
D03*
X1603504Y1334796D02*
D03*
X1365363Y1228525D02*
D03*
X1469363Y1236525D02*
D03*
X1602996Y1365022D02*
D03*
X1349363Y1244525D02*
D03*
X1344424Y1384834D02*
D03*
X1333363Y1188525D02*
D03*
X1291590Y1416304D02*
D03*
X1469363Y1204525D02*
D03*
X1602994Y1378712D02*
D03*
X1333363Y1196525D02*
D03*
X1300988Y1406652D02*
D03*
X1603392Y1413874D02*
D03*
X1469363Y1244525D02*
D03*
X1341363Y1252525D02*
D03*
X1602996Y1371880D02*
D03*
X1339090Y1390422D02*
D03*
X1515364Y1098296D02*
D03*
X1527048Y1096518D02*
D03*
X1604772Y1073658D02*
D03*
X1604264Y1080008D02*
D03*
X1517396Y1107948D02*
D03*
X1477363Y1228525D02*
D03*
Y1236525D02*
D03*
X1482371Y1448780D02*
D03*
X1453363Y1164525D02*
D03*
X1461363Y1140525D02*
D03*
X1453363Y1124525D02*
D03*
X1437363D02*
D03*
X1461363Y1188525D02*
D03*
X1469363Y1140525D02*
D03*
X1453363D02*
D03*
Y1108525D02*
D03*
X1461363Y1156525D02*
D03*
X1453363Y1116525D02*
D03*
X1477363Y1244525D02*
D03*
X1756664Y1163066D02*
D03*
X1325363Y1236525D02*
D03*
X1333363Y1204525D02*
D03*
X1373363Y1228525D02*
D03*
X1258572Y1430046D02*
D03*
X1381363Y1228525D02*
D03*
X1341363D02*
D03*
X1333363Y1236525D02*
D03*
X1341363Y1204525D02*
D03*
X1249428Y1374506D02*
D03*
X1365363Y1252525D02*
D03*
X1373363D02*
D03*
Y1236525D02*
D03*
X1325363Y1228525D02*
D03*
X1333363Y1244525D02*
D03*
X1247825Y1414559D02*
D03*
X1373363Y1244525D02*
D03*
X1259289Y1384371D02*
D03*
X1365363Y1244525D02*
D03*
X1247394Y1435100D02*
D03*
X1381363Y1236525D02*
D03*
X1333363Y1228525D02*
D03*
X1437363Y1116525D02*
D03*
X1053340Y1029234D02*
D03*
X1053742Y1094004D02*
D03*
X1053594Y1246150D02*
D03*
Y1221512D02*
D03*
X1325363Y1212525D02*
D03*
X1083137Y1417123D02*
D03*
X1053996Y1205764D02*
D03*
X1053487Y1117626D02*
D03*
X1053594Y1149630D02*
D03*
X1058418Y1071626D02*
D03*
X1429363Y1116525D02*
D03*
X1428496Y954024D02*
D03*
X1070465Y1038124D02*
D03*
X1325363Y1204525D02*
D03*
X1053848Y1382040D02*
D03*
X1053086Y1182396D02*
D03*
X1053742Y1197382D02*
D03*
X1341363Y1236525D02*
D03*
X1070231Y1396899D02*
D03*
X1053848Y1132612D02*
D03*
X1053233Y1109244D02*
D03*
X1053848Y1158012D02*
D03*
X1053487Y1085622D02*
D03*
X1052832Y1174014D02*
D03*
X1053848Y1229894D02*
D03*
X1424432Y949706D02*
D03*
X1097536Y1029742D02*
D03*
X1429363Y1124525D02*
D03*
X1333363Y1252525D02*
D03*
X1054102Y1140994D02*
D03*
X1039116Y1416584D02*
D03*
X1602486Y1343660D02*
D03*
X1477363Y1204525D02*
D03*
X1496568Y1293876D02*
D03*
X1357630Y1343914D02*
D03*
X1442466Y994664D02*
D03*
Y987044D02*
D03*
X1111250Y939038D02*
D03*
X1413363Y1116525D02*
D03*
X1372870Y977900D02*
D03*
X1326896Y1000506D02*
D03*
X1404620Y991870D02*
D03*
X1375664Y1015238D02*
D03*
X1375156Y1003554D02*
D03*
X1369568Y1022858D02*
D03*
X1365363Y1132525D02*
D03*
Y1140525D02*
D03*
X1360424Y1014984D02*
D03*
X1354074Y1023112D02*
D03*
X1292354Y993420D02*
D03*
X1283718Y986816D02*
D03*
X1384125Y998385D02*
D03*
X1384379Y979203D02*
D03*
X1350343Y1004481D02*
D03*
X1349835Y985553D02*
D03*
X1190070Y1118735D02*
D03*
X1341363Y1116525D02*
D03*
Y1140525D02*
D03*
X1190324Y1141948D02*
D03*
X1461363Y1164525D02*
D03*
X1453363Y1244525D02*
D03*
X1333363Y1212525D02*
D03*
Y1220525D02*
D03*
X1325363Y1164525D02*
D03*
X1189816Y1001740D02*
D03*
X1349363Y1124525D02*
D03*
X1189845Y1092281D02*
D03*
X1333363Y1124525D02*
D03*
X1365363D02*
D03*
X1189845Y990681D02*
D03*
X1341363Y1100525D02*
D03*
X1189816Y1051933D02*
D03*
X1413363Y1124525D02*
D03*
X1189562Y1018151D02*
D03*
X1357363Y1116525D02*
D03*
X1341363Y1164525D02*
D03*
X1249682Y1241324D02*
D03*
X1341363Y1180525D02*
D03*
X1357363Y1100525D02*
D03*
X1341363Y1132525D02*
D03*
X1190324Y1135852D02*
D03*
X1341363Y1212525D02*
D03*
X1190098Y1058245D02*
D03*
X1341363Y1108525D02*
D03*
X1333363Y1116525D02*
D03*
X1189562Y1085969D02*
D03*
X1461363Y1180525D02*
D03*
X1341363Y1220525D02*
D03*
X1333363Y1180525D02*
D03*
X1325363Y1124525D02*
D03*
X1190324Y1108420D02*
D03*
X1189816Y1069558D02*
D03*
X1333363Y1100525D02*
D03*
X1189845Y1024463D02*
D03*
X1357363Y1124525D02*
D03*
X1453363Y1236525D02*
D03*
X1357363Y1108525D02*
D03*
X1189816Y967958D02*
D03*
X1373363Y1116525D02*
D03*
X1413363Y1108525D02*
D03*
X1325363D02*
D03*
X1461363Y1252525D02*
D03*
X1349363Y1188525D02*
D03*
Y1220525D02*
D03*
X1190352Y1158575D02*
D03*
X1349363Y1140525D02*
D03*
Y1108525D02*
D03*
X1189064Y1041866D02*
D03*
X1341363Y1124525D02*
D03*
X1190352Y1125047D02*
D03*
X1445363Y1100525D02*
D03*
X1190324Y1102324D02*
D03*
X1325363Y1116525D02*
D03*
X1189816Y974054D02*
D03*
X1373363Y1124525D02*
D03*
X1189816Y1075654D02*
D03*
X1333363Y1108525D02*
D03*
X1189064Y1035770D02*
D03*
X1349363Y1100525D02*
D03*
X1357363Y1252525D02*
D03*
X1349363Y1116525D02*
D03*
X1189816Y1007836D02*
D03*
X1189562Y984369D02*
D03*
X1365363Y1116525D02*
D03*
X1325363Y1132525D02*
D03*
X1349363Y1180525D02*
D03*
X1190070Y1152263D02*
D03*
X1349363Y1132525D02*
D03*
X1325363Y1180525D02*
D03*
X1453363Y1156525D02*
D03*
X1325363Y1220525D02*
D03*
X1461363Y1116525D02*
D03*
D119*
X1616204Y1407767D02*
D03*
X1615950Y1354881D02*
D03*
X1616458Y1268321D02*
D03*
X1617726Y1213050D02*
D03*
X1617220Y1131615D02*
D03*
X1616458Y1077413D02*
D03*
X1230378Y1409572D02*
D03*
X1228344Y1353466D02*
D03*
X1232156Y1273174D02*
D03*
X1231900Y1214020D02*
D03*
X1156718Y1203578D02*
D03*
X1231900Y1201520D02*
D03*
X1156464Y1258696D02*
D03*
X1156385Y1367723D02*
D03*
Y1395863D02*
D03*
X1228344Y1340966D02*
D03*
X1232156Y1285674D02*
D03*
X1230378Y1422072D02*
D03*
X1616458Y1089913D02*
D03*
X1617220Y1144115D02*
D03*
X1694180Y1088544D02*
D03*
X1693926Y1116684D02*
D03*
X1617726Y1225550D02*
D03*
X1616458Y1255821D02*
D03*
X1694180Y1228244D02*
D03*
Y1255622D02*
D03*
X1615950Y1367381D02*
D03*
X1616204Y1395267D02*
D03*
X1694688Y1367182D02*
D03*
X1694434Y1394814D02*
D03*
X1156385Y1408363D02*
D03*
Y1355223D02*
D03*
X1156718Y1216078D02*
D03*
X1156464Y1271196D02*
D03*
X1694688Y1354682D02*
D03*
X1694434Y1407314D02*
D03*
X1694180Y1215744D02*
D03*
Y1268122D02*
D03*
X1693926Y1129184D02*
D03*
X1694180Y1076044D02*
D03*
D120*
X1771906Y1094286D02*
D03*
X1039741Y1077715D02*
D03*
Y1125715D02*
D03*
X1083741Y1069715D02*
D03*
Y1117715D02*
D03*
Y1181715D02*
D03*
X1039741Y1189715D02*
D03*
X1083741Y1229715D02*
D03*
Y1301715D02*
D03*
Y1381715D02*
D03*
X1771906Y1062286D02*
D03*
Y1166286D02*
D03*
Y1238286D02*
D03*
Y1366286D02*
D03*
X1039741Y1045715D02*
D03*
Y1053715D02*
D03*
X1083741Y1061715D02*
D03*
X1039741D02*
D03*
X1083741Y1053715D02*
D03*
X1815906Y1086286D02*
D03*
X1039741Y1365715D02*
D03*
Y1213715D02*
D03*
X1815906Y1062286D02*
D03*
Y1374286D02*
D03*
Y1238286D02*
D03*
Y1094286D02*
D03*
Y1350286D02*
D03*
X1771906D02*
D03*
X1815906Y1182286D02*
D03*
Y1230286D02*
D03*
X1771906D02*
D03*
X1815906Y1222286D02*
D03*
X1771906D02*
D03*
X1815906Y1214286D02*
D03*
X1771906D02*
D03*
X1815906Y1206286D02*
D03*
X1771906D02*
D03*
X1815906Y1198286D02*
D03*
X1771906D02*
D03*
X1815906Y1190286D02*
D03*
X1771906D02*
D03*
Y1182286D02*
D03*
X1815906Y1174286D02*
D03*
X1771906D02*
D03*
X1815906Y1166286D02*
D03*
Y1358286D02*
D03*
Y1054286D02*
D03*
X1771906Y1358286D02*
D03*
X1815906Y1342286D02*
D03*
X1771906D02*
D03*
Y1326286D02*
D03*
X1815906Y1318286D02*
D03*
X1771906D02*
D03*
X1815906Y1310286D02*
D03*
X1771906D02*
D03*
X1815906Y1158286D02*
D03*
X1771906Y1086286D02*
D03*
Y1078286D02*
D03*
X1815906Y1070286D02*
D03*
X1771906D02*
D03*
X1815906Y1078286D02*
D03*
X1771906Y1254286D02*
D03*
X1815906D02*
D03*
X1771906Y1262286D02*
D03*
X1815906D02*
D03*
X1771906Y1270286D02*
D03*
X1815906Y1286286D02*
D03*
X1771906Y1294286D02*
D03*
X1815906D02*
D03*
X1771906Y1302286D02*
D03*
X1815906D02*
D03*
X1771906Y1278286D02*
D03*
X1815906D02*
D03*
Y1270286D02*
D03*
X1771906Y1286286D02*
D03*
X1815906Y1366286D02*
D03*
Y1246286D02*
D03*
Y1334286D02*
D03*
Y1406286D02*
D03*
Y1046286D02*
D03*
X1771906Y1030286D02*
D03*
Y1398286D02*
D03*
X1815906Y1014286D02*
D03*
Y1326286D02*
D03*
Y1038286D02*
D03*
X1771906Y1054286D02*
D03*
X1815906Y1398286D02*
D03*
X1771906Y1382286D02*
D03*
Y1046286D02*
D03*
Y1022286D02*
D03*
Y1374286D02*
D03*
X1815906Y1030286D02*
D03*
Y1390286D02*
D03*
Y1382286D02*
D03*
X1771906Y1014286D02*
D03*
Y1038286D02*
D03*
Y1406286D02*
D03*
X1815906Y1022286D02*
D03*
X1771906Y1134286D02*
D03*
X1815906Y1118286D02*
D03*
Y1142286D02*
D03*
X1771906Y1118286D02*
D03*
Y1390286D02*
D03*
Y1142286D02*
D03*
X1815906Y1126286D02*
D03*
Y1150286D02*
D03*
Y1134286D02*
D03*
X1771906Y1158286D02*
D03*
Y1246286D02*
D03*
Y1334286D02*
D03*
X1815906Y1102286D02*
D03*
X1771906Y1110286D02*
D03*
Y1102286D02*
D03*
X1815906Y1110286D02*
D03*
X1771906Y1150286D02*
D03*
Y1126286D02*
D03*
X1039741Y1237715D02*
D03*
Y1373715D02*
D03*
Y1261715D02*
D03*
X1083741Y1293715D02*
D03*
X1039741Y1253715D02*
D03*
Y1277715D02*
D03*
X1083741Y1285715D02*
D03*
X1039741Y1269715D02*
D03*
X1083741Y1277715D02*
D03*
Y1269715D02*
D03*
X1039741Y1357715D02*
D03*
X1083741Y1365715D02*
D03*
X1039741Y1309715D02*
D03*
X1083741Y1317715D02*
D03*
X1039741Y1349715D02*
D03*
X1083741Y1333715D02*
D03*
Y1357715D02*
D03*
X1039741Y1301715D02*
D03*
X1083741Y1309715D02*
D03*
Y1325715D02*
D03*
X1039741Y1341715D02*
D03*
X1083741Y1349715D02*
D03*
X1039741Y1293715D02*
D03*
X1083741Y1373715D02*
D03*
X1039741Y1317715D02*
D03*
Y1333715D02*
D03*
X1083741Y1213715D02*
D03*
Y1165715D02*
D03*
X1039741Y1157715D02*
D03*
X1083741Y1101715D02*
D03*
X1039741Y1093715D02*
D03*
Y1197715D02*
D03*
Y1165715D02*
D03*
X1083741Y1013715D02*
D03*
X1039741Y1109715D02*
D03*
X1083741Y1125715D02*
D03*
Y1173715D02*
D03*
X1039741Y1205715D02*
D03*
Y1325715D02*
D03*
X1083741Y1221715D02*
D03*
X1039741Y1229715D02*
D03*
X1083741Y1141715D02*
D03*
X1039741Y1133715D02*
D03*
X1083741D02*
D03*
Y1109715D02*
D03*
Y1149715D02*
D03*
X1039741Y1173715D02*
D03*
Y1149715D02*
D03*
Y1037715D02*
D03*
X1083741Y1189715D02*
D03*
Y1157715D02*
D03*
Y1205715D02*
D03*
Y1197715D02*
D03*
X1039741Y1085715D02*
D03*
Y1101715D02*
D03*
Y1117715D02*
D03*
Y1069715D02*
D03*
Y1221715D02*
D03*
X1083741Y1045715D02*
D03*
Y1085715D02*
D03*
Y1093715D02*
D03*
Y1405715D02*
D03*
X1039741D02*
D03*
Y1245715D02*
D03*
Y1285715D02*
D03*
X1083741Y1245715D02*
D03*
Y1237715D02*
D03*
X1039741Y1181715D02*
D03*
Y1141715D02*
D03*
X1083741Y1253715D02*
D03*
Y1341715D02*
D03*
Y1261715D02*
D03*
X1039741Y1013715D02*
D03*
Y1381715D02*
D03*
X1083741Y1397715D02*
D03*
Y1037715D02*
D03*
Y1021715D02*
D03*
Y1389715D02*
D03*
X1039741Y1021715D02*
D03*
Y1389715D02*
D03*
Y1397715D02*
D03*
X1083741Y1029715D02*
D03*
X1039741D02*
D03*
X1083741Y1077715D02*
D03*
D121*
X1290400Y1515716D02*
D03*
X1418400D02*
D03*
X1586400D02*
D03*
X1330400D02*
D03*
X1234400D02*
D03*
X1386400D02*
D03*
X1226400Y1559716D02*
D03*
Y1515716D02*
D03*
X1234400Y1559716D02*
D03*
X1242400D02*
D03*
Y1515716D02*
D03*
X1250400Y1559716D02*
D03*
X1258400D02*
D03*
Y1515716D02*
D03*
X1266400Y1559716D02*
D03*
Y1515716D02*
D03*
X1274400Y1559716D02*
D03*
Y1515716D02*
D03*
X1282400Y1559716D02*
D03*
Y1515716D02*
D03*
X1290400Y1559716D02*
D03*
X1298400D02*
D03*
Y1515716D02*
D03*
X1306400Y1559716D02*
D03*
Y1515716D02*
D03*
X1314400Y1559716D02*
D03*
Y1515716D02*
D03*
X1322400Y1559716D02*
D03*
Y1515716D02*
D03*
X1330400Y1559716D02*
D03*
X1338400D02*
D03*
Y1515716D02*
D03*
X1346400Y1559716D02*
D03*
Y1515716D02*
D03*
X1354400Y1559716D02*
D03*
Y1515716D02*
D03*
X1362400Y1559716D02*
D03*
Y1515716D02*
D03*
X1370400Y1559716D02*
D03*
Y1515716D02*
D03*
X1378400Y1559716D02*
D03*
Y1515716D02*
D03*
X1386400Y1559716D02*
D03*
X1394400D02*
D03*
Y1515716D02*
D03*
X1402400Y1559716D02*
D03*
Y1515716D02*
D03*
X1410400Y1559716D02*
D03*
Y1515716D02*
D03*
X1418400Y1559716D02*
D03*
X1426400D02*
D03*
Y1515716D02*
D03*
X1434400Y1559716D02*
D03*
Y1515716D02*
D03*
X1442400Y1559716D02*
D03*
Y1515716D02*
D03*
X1450400Y1559716D02*
D03*
Y1515716D02*
D03*
X1458400Y1559716D02*
D03*
X1466400D02*
D03*
Y1515716D02*
D03*
X1474400Y1559716D02*
D03*
Y1515716D02*
D03*
X1482400Y1559716D02*
D03*
Y1515716D02*
D03*
X1490400Y1559716D02*
D03*
Y1515716D02*
D03*
X1498400Y1559716D02*
D03*
Y1515716D02*
D03*
X1506400Y1559716D02*
D03*
Y1515716D02*
D03*
X1514400Y1559716D02*
D03*
Y1515716D02*
D03*
X1522400Y1559716D02*
D03*
Y1515716D02*
D03*
X1530400Y1559716D02*
D03*
Y1515716D02*
D03*
X1538400Y1559716D02*
D03*
Y1515716D02*
D03*
X1546400Y1559716D02*
D03*
Y1515716D02*
D03*
X1554400Y1559716D02*
D03*
Y1515716D02*
D03*
X1562400Y1559716D02*
D03*
Y1515716D02*
D03*
X1570400Y1559716D02*
D03*
Y1515716D02*
D03*
X1578400Y1559716D02*
D03*
Y1515716D02*
D03*
X1586400Y1559716D02*
D03*
X1594400D02*
D03*
Y1515716D02*
D03*
X1602400Y1559716D02*
D03*
Y1515716D02*
D03*
X1610400Y1559716D02*
D03*
Y1515716D02*
D03*
X1618400Y1559716D02*
D03*
Y1515716D02*
D03*
X1250400D02*
D03*
X1458400D02*
D03*
D122*
X1560957Y764422D02*
D03*
Y781422D02*
D03*
D123*
X1548189Y1385300D02*
D03*
X1541689Y1326300D02*
D03*
X1528689Y1385300D02*
D03*
X1541689D02*
D03*
X1528689Y1326300D02*
D03*
X1548189D02*
D03*
X1535189D02*
D03*
Y1385300D02*
D03*
D124*
X1543611Y1413392D02*
D03*
X1529111Y1431892D02*
D03*
Y1413392D02*
D03*
X1543611Y1431892D02*
D03*
D125*
X1789548Y858012D02*
D03*
X1692792Y858774D02*
D03*
X1772548Y858012D02*
D03*
X1709792Y858774D02*
D03*
D126*
X1503975Y1357578D02*
D03*
X1535057Y1310080D02*
D03*
X1525057D02*
D03*
X1513975Y1357578D02*
D03*
D127*
X1565363Y1327098D02*
D03*
Y1337098D02*
D03*
X1513721Y1323369D02*
D03*
Y1333369D02*
D03*
M02*
