M48
;Layer_Color=9474304
;FILE_FORMAT=4:4
METRIC,LZ
;TYPE=PLATED
T01F00S00C0.2032
T02F00S00C0.6350
T03F00S00C1.0000
T04F00S00C1.1500
;TYPE=NON_PLATED
T05F00S00C0.8300
T06F00S00C1.2300
T07F00S00C3.2004
%
T01
X01591564Y00766826
X01611122Y00757682
X01744392Y0075039
X0176141Y00732634
X01561084Y00753618
X01548892Y00755904
X0128562Y00731266
X01263332Y00745744
X0126022Y00717804
X0126299Y0068662
X01293074Y00698754
X0119761Y0068792
X01198372Y00731774
X01198118Y0074803
X01217168Y00747522
X0121666Y00732282
X01154303Y00726567
X01162431Y00710145
X01137539Y00708748
X0113284Y00721106
X01140933Y00740791
X01148842Y00762254
X01152363Y00768731
X01144206Y0076981
X01130173Y00769493
X01118673
X01124423Y00778993
Y00759993
X01110961Y00752729
X01103595Y00762889
X01093087Y00753745
X01084291Y00751967
X01089152Y0073787
X01069086
X01073404Y00728218
X01047496Y00746252
X0101346Y00750316
X01111098Y00786493
X01108075Y00696556
X01140968Y00677379
X0114808Y00664933
X01157605Y00660107
X01135888Y00653503
X01120394
X01131062Y00665695
X01182376Y00684872
X01187958Y00822452
X01187704Y00864362
X0118999Y0088392
X01166114Y00892556
X01152144Y0088392
X01131045Y00889648
X01145157Y00863714
X01138647Y00820293
X01130683Y00806921
X01125429Y00797433
X01058926Y00797052
X01073404Y0081407
X01083339Y00869556
X01085628Y00889647
X01084101Y00907148
X0111125Y00939038
X01148715Y00931037
X01189816Y00967958
Y00974054
X01189562Y00984369
X01189845Y00990681
X01189816Y0100174
Y01007836
X01189562Y01018151
X01189845Y01024463
X01189064Y0103577
Y01041866
X01189816Y01051933
X01190098Y01058245
X01189816Y01069558
Y01075654
X01189562Y01085969
X01189845Y01092281
X01190324Y01102324
Y0110842
X0119007Y01118735
X01190352Y01125047
X01190324Y01135852
Y01141948
X0119007Y01152263
X01190352Y01158575
X01168402Y01183412
X01098042Y01181862
X01053086Y01182396
X01053084Y01188974
X01052832Y01174014
X01053848Y01158012
X01053594Y0114963
X01054102Y01140994
X01053848Y01132612
X01053592Y01125474
X01053487Y01117626
X01053233Y01109244
X01053742Y01094004
X01053487Y01085622
X01053839Y01077715
X01058418Y01071626
X01064006Y01067054
X01070211Y01062
X01069957Y01053618
X01070465Y01038124
X01053846Y01044956
Y01053338
X010541Y01060704
X0105334Y01029234
X01097536Y01029742
X01066292Y01114044
X01216018Y01113529
X0122186
Y01130039
X01216018
Y01147311
X0122186
Y01096765
X01216018
Y01079747
X0122186
Y01062729
X01216018
Y01046219
X0122186
Y01029201
X01216018
Y01012945
X0122186
Y00995927
X01216018
Y00979163
X0122186
X01283718Y00986816
X01292354Y0099342
X01328928Y00992124
X01326896Y01000506
X01325702Y00983362
X01349835Y00985553
X01350343Y01004481
X01360424Y01014984
X01354074Y01023112
X01369568Y01022858
X01375664Y01015238
X01375156Y01003554
X01374648Y00992632
X01384125Y00998385
X01384379Y00979203
X0137287Y009779
X01374902Y00938276
X0136398Y00938784
X01355852Y00938276
X01424432Y00949706
X01428496Y00954024
X01442602Y00943429
X01449578Y00958596
X01472438Y00957834
X0147828Y00962406
X01481582Y00938276
X01476552Y00924356
X01458722Y00913892
X01401064Y0088646
X01410716Y00871474
X01403604Y00794258
X01301369Y00849121
X01276858Y00847598
X01265936Y00826262
X01246378Y00826014
X01326638Y0103406
X01325363Y01100525
X01333363
X01341363
Y01108525
Y01116525
X01333363
Y01124525
Y01132525
Y01140525
X01325363
Y01148525
Y01156525
X01333363
X01341363
X01349363
X01357363
Y01148525
Y01140525
Y01132525
X01365363
X01373363
Y01140525
X01381363
Y01132525
X01389363
Y01140525
X01397363
Y01132525
Y01124525
Y01116525
X01389363
X01381363
Y01108525
X01373363
Y01100525
X01365363
Y01108525
X01357363
Y01116525
Y01124525
X01349363
X01341363
Y01132525
Y01140525
Y01148525
X01333363
Y01164525
X01325363
X01341363
X01349363
X01357363
X01365363
Y01156525
Y01148525
Y01140525
Y01124525
X01373363
X01381363
X01389363
Y01108525
X01397363
Y01100525
X01389363
X01381363
X01357363
X01349363
Y01108525
Y01116525
X01365363
X01373363
X01413363
X01421363
Y01108525
X01413363
Y01100525
X01429363
X01437363
Y01108525
X01445363
Y01116525
Y01124525
Y01132525
X01437363
Y01140525
X01445363
Y01148525
Y01156525
X01437363
Y01164525
X01445363
X01453363
X01461363
X01469363
X01477363
Y01156525
Y01148525
X01469363
X01461363
X01453363
Y01140525
Y01132525
X01461363
X01469363
X01477363
Y01140525
X01469363
X01461363
Y01124525
X01469363
X01477363
Y01116525
Y01108525
Y01100525
X01469363
Y01108525
X01461363
Y01100525
X01453363
Y01108525
Y01116525
Y01124525
X01437363
Y01116525
X01429363
Y01124525
Y01132525
X01421363
Y01140525
X01413363
Y01132525
Y01124525
X01421363
X01429363Y01140525
X01437363Y01148525
X01453363Y01156525
X01461363
X01469363
Y01180525
X01477363
X01485138Y0118237
X01461363Y01180525
X01453363
X01445363
X01437363
Y01188525
X01445363
X01453363
X01461363
X01413363
Y01180525
X01405363
X01397363
X01389363
X01381363
Y01188525
X01389363
X01397363
X01405363
Y01164525
Y01156525
X01397363
X01389363
X01381363
Y01164525
X01389363
X01397363
X01413363
Y01156525
X01365363Y01180525
Y01188525
X01357363
Y01180525
X01349363
X01341363
Y01188525
X01333363
X01325363
Y01180525
X01333363
X01349363Y01188525
Y01148525
Y01140525
Y01132525
X01325363
Y01124525
Y01116525
Y01108525
X01333363
X01283208Y01112266
X01282702Y0113312
X01296647Y01083287
X01302512Y01078992
X01376934Y01059434
X01388364Y01070356
X01407668Y01062296
X0142004Y01073732
X01445363Y01100525
X01461363Y01116525
X01469363
X01485138Y010922
X01485392Y01067412
X01465328Y01065786
X01464564Y0105791
X0147066Y01045972
X01475994Y01041146
X01493266Y01021334
X01442466Y00994664
Y00987044
X0140462Y0099187
X0154305Y00977392
X01550414Y00911349
X01579499Y008636
X01579245Y00838454
X01545336Y00836422
X01560957Y00794766
X01542288Y0109093
X0153684Y01100696
X01531874Y01103884
X01527048Y01096518
X01515364Y01098296
X01517396Y01107948
X01521714Y01139952
X01513078Y01149096
Y01155192
X01499108Y01140206
X0154686Y0113284
X01550924Y01150874
X01586992Y0115062
X0158242Y0114046
X01262888Y01186434
X01601216Y01149604
X01605788Y01135126
X0162865Y01130072
X0163449Y01130046
X01627886Y01145286
X01658418Y01150418
X01703832Y01144778
X01709166Y01149883
X0171196Y01129792
X01703832
X01703787Y01129837
X01703578Y01114806
X01711198
X01710436Y01104646
X01703832Y01094994
X01707499Y01090025
X01703832Y01080008
X0170453Y01064577
X01704301Y01049758
X01715262Y01045718
X0175514Y01043432
X01747774Y01057402
X01756458Y01022168
X01786066Y01030286
X01801622Y01041908
X01792224Y0106172
X01801622Y01086104
Y01094486
X01802158Y0110236
X01802412Y0110998
X01802362Y01117904
X01802461Y01125829
X01802386Y01134136
X01802362Y01142034
X01802386Y01149884
X01802488Y0115839
X01802132Y01174014
X01802108Y01181912
X01802132Y01189762
X01787144Y01182116
X01786128Y0116586
X01756664Y01163066
X01757426Y01169924
X0174879Y01169162
X01744218Y01173734
X017399Y01178052
X01735582Y01181862
X01730756Y0118491
X0172212Y01180338
X01717548Y0118364
X01711452Y01185164
X01706372Y01189228
X01703324Y01183592
X01726438Y01170686
X01680718Y0107061
X01679448Y01064167
X01670558Y01029208
X01646682Y0104267
X0163957Y01042924
X01613408Y01037082
X0160401Y010414
X01604772Y01067562
Y01073658
X01604264Y01080008
X0162814Y01074166
X0163449
X0163195Y01083056
X01648714Y01089406
X0160162Y01108075
X01591183Y00952246
Y00900684
X01600962Y01204722
X01601216Y01213358
X01604518Y01233678
X01602994Y0124587
X01595628Y0125222
X01592072Y01242568
Y01235964
X01604264Y0125857
X01604225Y01264629
X01604518Y01271524
X01597914Y01284478
X01627888Y01284931
X01627632Y0126746
X01628394Y012573
X01628142Y01227862
X01627632Y0121412
X0162814Y01202944
X01634236Y0120269
X01641806Y01196797
X01703578Y01199388
X01707134Y01204468
X01704594Y0121412
X01707134Y01219962
X01704086Y0122936
X01706626Y01234948
X01704555Y01244576
X01703832Y01254252
X01707134Y01259586
X01703832Y0126873
X0170688Y01274318
X01704079Y01284231
X01706372Y01290066
X01703832Y01323086
X01706372Y01328674
X0170411Y01338048
X01704342Y01344113
X0170434Y01352804
X01707134Y013589
X0170434Y01368298
X01707134Y0137414
X01704301Y01383514
X01704088Y01393389
X01707134Y01399032
X01703832Y01408176
X01707134Y0141351
X017034Y01423033
X01705102Y0142875
X01757935Y01406145
X01757504Y0139827
X01801622Y01398016
X01830832Y01406398
X01831594Y01390142
X01794243Y01366254
X017856Y01366286
X01800352Y01350264
X01800606Y01342136
X01801104Y01334516
X01801368Y01326134
X01801051Y01318514
X01801293Y01310386
X01801651Y01302512
X01801663Y01294384
X01787906Y01251966
X01796796Y01241298
X01801854Y01230426
X01801878Y01222528
X01802132Y01213892
X01802108Y01206042
X01802132Y01198144
X0166116Y0129921
X01628648Y01334262
X01628394Y01341628
X01628396Y01354862
X01628904Y0136807
X01628394Y01394206
X01627634Y01408629
X01628648Y0141986
X01603392Y01413874
X0160325Y01404565
X01588262Y01405128
X01588008Y0141224
X0159893Y0143129
X01605026Y01434338
X01604518Y0144399
X01602994Y01378712
X01602996Y0137188
Y01365022
X01602486Y0135763
Y01350264
Y0134366
X01603504Y01334796
X01602232Y01543812
X01594358Y01544066
X01610106Y01543304
X0161798Y01543558
X01586484Y01544066
X01578356
X01583436Y01530096
X0155448Y01543558
X01546606Y01543304
X01538732Y01543812
X01530858Y01544066
X01522222
X01506474Y01531366
X014904Y01531648
X01458468Y01543304
X0145034Y01543558
X01442212Y01543304
X01434084Y0154305
X0142621Y01542796
X01418336Y01543304
X01410462Y01543558
X01402334Y01543812
X0139446Y01543558
X01386586Y01544066
X01378712Y0154432
X01412494Y01529588
X01330198Y0154305
X01322324Y01542796
X0131445Y01543304
X01306576Y01543558
X0129032
X01282446Y01544066
X01274318
X0126619Y01543558
X01258316Y01543812
X01250188Y0154432
X01242314Y01544066
X0123444Y01544574
X01226566Y01544828
X0129032Y01529334
X01277366Y01456182
X0128651Y01421384
X0129159Y01416304
X01296416Y0141097
X01300988Y01406652
X01305054Y01400582
X01329438Y01395756
X0133909Y01390422
X01344424Y01384834
X01354076Y01369848
X01349248Y01358646
X0135382Y01350264
X0135763Y01343914
X01361948Y01338834
X01369824Y01331494
X01413002Y01326642
X01411986Y01321054
X0143053Y01332103
X01444752Y01336802
X01464818Y01342898
X01463296Y01314476
X01468122Y01304316
X01477542Y01293345
X01496568Y01293876
X01453896Y01296416
X01444244Y0127127
X01445363Y01252525
Y01244525
X01437363
Y01252525
X01429363
X01421363
Y01244525
Y01236525
X01413363
Y01228525
Y01220525
X01421363
Y01212525
X01429363
X01437363
Y01220525
X01445363
Y01212525
X01453363
Y01204525
X01461363
Y01196525
X01469363
X01477363
Y01204525
Y01212525
X01469363
Y01220525
X01461363
X01453363
Y01228525
X01445363
Y01236525
X01437363
X01429363
Y01228525
Y01220525
X01421363Y01228525
X01437363
Y01204525
Y01196525
X01445363
X01453363
X01445363Y01204525
X01461363Y01212525
Y01228525
Y01236525
Y01244525
X01469363
Y01252525
X01477363
Y01244525
Y01236525
X01469363
Y01228525
X01477363
Y01220525
X01469363Y01204525
X01485138Y01197102
X0151638Y01199388
Y01192276
X0153416Y0119888
X0154432Y01199134
Y01192276
X01556766Y01197991
X01575816Y01198164
X01586242Y012136
X0152019Y01213358
X01505712Y01215898
X0151257Y01245108
X01523238Y01268476
X01528572Y01264666
X01461363Y01252525
X01453363
Y01244525
Y01236525
X01429363Y01244525
X01413363
Y01252525
X01397363
X01389363
X01381506Y01252474
X01381363Y01244525
X01389363
X0138938Y01236726
X01397363Y01236525
Y01228525
Y01220525
Y01212525
X01389363
X01381363
Y01220525
X01373363
X01365363
X01357363
Y01212525
X01365363
X01373363
X01365363Y01204525
Y01196525
X01357363
Y01204525
X01349363
Y01212525
X01341363
Y01204525
Y01196525
X01333363
X01325363
Y01204525
X01333363
Y01212525
X01325363
Y01220525
Y01228525
Y01236525
Y01244525
Y01252525
X01333363
X01341363
X01349363
Y01244525
Y01236525
Y01228525
X01357363
Y01236525
X01365363
Y01228525
X01373363
X01381363
X01389363
Y01220525
Y01196525
X01381363
X01397363
X01405363
X01413363
Y01212525
X01397363Y01244525
X01373363
Y01252525
X01365363
Y01244525
X01357363
Y01252525
X01341363Y01244525
X01333363
Y01236525
Y01228525
X01341363
Y01236525
Y01220525
X01333363
X01349363
X01373363Y01236525
X01381363
X01388618Y01301496
X0132461Y01293622
X01268476Y0130175
X01259332Y01301496
X01249934Y0130175
X01245743Y01306195
X01245616Y01276604
X0125603Y01274064
X01259078Y01266698
X0126746Y01264666
X01250696Y01262888
X01249172Y01251712
X01245616Y01246124
X01249682Y01241324
X01256792Y01236726
X01244346Y01202944
X01244094Y01196874
X01244346Y0119126
X012065Y012192
X01207262Y01229106
X01213104Y012319
X01211834Y0126873
X0121158Y01274572
X01211349Y01287041
X01212088Y01308354
X01212064Y01316507
X01212872Y01339574
X0121158Y01354328
X01246886Y01368806
X01249428Y01374506
X01246091Y01379507
X01246124Y01394206
X01252855Y01396111
X0125222Y01404366
X01247825Y01414559
X01247394Y014351
X01258572Y01430046
X01259289Y01384371
X01211834Y01410716
Y01420622
X01203452Y01432814
X01362712Y01377976
X01477518Y01407668
X01498346Y01406144
X01505712Y0140716
X01504188Y0140081
X01521206Y01405636
X01532128Y0140081
X01539494Y01400556
X01546606
X01559814Y01401572
X0156718Y01401064
X01572514Y01405128
X01562862Y01407668
X01547622Y0145288
X01556004Y01462532
X01570482Y01462278
X01529975Y01461891
X01521206Y01462532
X01507998Y01444498
X0148717Y01435862
X01482371Y0144878
X01501648Y01342898
X01512316Y01342703
X0152197Y01343178
X01531112Y01342898
X0153924
X01575816Y01346454
X01579628Y01339876
X01167561Y01339121
Y01354107
X01167638Y01369314
X01167507Y01394039
X01168069Y01409479
Y01424465
X01083137Y01417123
X01070231Y01396899
X0106934Y01389126
X01069848Y01381252
X01053848Y0138204
X01053592Y01373632
X0105334Y0135791
X01053086Y01349528
X01053594Y01341654
X0105334Y01333272
X01053594Y01318032
X0105334Y0130965
X01053848Y01301776
X01053594Y01293394
Y012779
X0105334Y01269518
X01053848Y01261644
X01053594Y01253262
Y0124615
X0105334Y01237768
X01053848Y01229894
X01053594Y01221512
X01053996Y01205764
X01059434Y0120777
X01053742Y01197382
X01068324Y0123952
X01063752Y01246886
X01069594Y01301496
X01104646Y01324102
X01167894Y01287044
X01168146Y01275334
Y0125984
X01168654Y01232154
X01144526Y0121694
X01138428Y0121666
X0113411Y01221232
X01129792Y0122555
X01124966Y01229868
X0114478Y012017
X01058418Y01389126
X0105918Y0140589
X01039116Y01416584
X01021842Y01398778
T02
X01836928Y00743204
X01105916Y00674077
X01020064Y00717804
X01411224Y0083439
X01569212Y01140968
X01251712Y011811
X0159766Y01296416
X01593412Y01443736
X01815592Y01461262
X01771142Y01507744
X01513078Y01472692
X01490726Y01470152
X01406906Y01484376
X0125349Y0144653
X01545082Y0126873
X01136396Y0126619
X0113665Y01248918
X0111887Y01240028
X01118616Y01257554
Y01275334
X01118362Y01293114
Y0131064
X01117854Y01328674
Y01346454
Y0136398
X011176Y01381506
X01117854Y01399286
Y01417066
Y01434592
X01135126Y01425702
Y01408176
Y0139065
Y01373124
Y01355598
X0113538Y01338072
X01135634Y01319276
X01135888Y01302004
Y01284478
X01135126Y01443482
T03
X01566037Y008128
Y008382
Y008636
Y00889
Y009144
Y009398
Y009652
X01591437
Y009398
Y009144
Y00889
Y008636
Y008382
Y008128
T04
X0168783Y00794766
Y00820166
X0171323
Y00794766
X0173863
Y00820166
X0176403
X0178943
Y00794766
X0176403
X01767941Y00895765
X01793341
Y00921165
X01767941
X01742541
X01717141
X01691741
Y00895765
X01717141
X01742541
T05
X01061741Y00988715
X01793906Y01431286
X012014Y01537716
T06
X01793906Y00989286
X016434Y01537716
X01061741Y01430715
T07
X0183007Y0065786
X01030224
X0183007Y01563116
X01030224
M30
